<svg id="pizza" xmlns="http://www.w3.org/2000/svg" xmlns:xlink="http://www.w3.org/1999/xlink" viewBox="0 0 272.5581 124.3291"><defs><radialGradient id="radial-gradient" cx="-1557.3103" cy="1985.0167" fx="-1602.4179495082385" r="127.7411" gradientTransform="matrix(-0.9981, -0.062, 0.0237, -0.3815, -924.4071, 1663.5611)" gradientUnits="userSpaceOnUse"><stop offset="0" stop-color="#757a3e"/><stop offset="1" stop-color="#394d26"/></radialGradient></defs><g id="basil_b"><path d="M822.2743,1003.1578c-1.3135-1.5082-4.1912-1.0972-5.0888-1.0315-21.4792,1.07-36.6241,6.49-47.5046-14.773-5.8842-11.9023-32.16-28.4291-36.2955-34.2428a8.2623,8.2623,0,0,0-7.66-4.6535c-2.1163-.1459-15.1448-6.9133-20.0658-9.7618,0,0-1.2771-1.01-1.5617-.7882,2.4227,4.3348-.4378,2.2379-5.87.63-6.1591-1.9558-5.58-.8952-10.1144-2.5688-7.7208-2.7439-3.172-.8708-6.5508,2.2841-6.1178,1.35-9.72-1.2942-17.5774,3.6925a7.8256,7.8256,0,0,1-3.4275-.2506c-6.0448-1.7636-10.9342,1.3014-15.2957.6178-2.2379-.4379-1.5933,1.52-2.2817,3.0747a3.2924,3.2924,0,0,1-2.435.98c-6.4461.973-9.2071,2.98-14.7557,3.8871-1.2381.8927-.6008,2.7511-1.5179,3.9212-4.1012,1.5032-12.075.7832-16.5654,3.8189-1.2747.394-2.1431.8587-1.9047,2.7463-6.1762,4.6631-14.2011,7.3558-18.6648,9.387-1.3038,4.106-1.54,3.622-7.5189,6.8669-3.1672,1.9363-1.97,1.8487-5.5146,4.1134-1.53,1.0143-2.9822,1.7222-3.172,3.24.2505,4.7945-11.9292,15.1107-17.6773,16.0326-.2991.0219-1.3889.2019-1.6444.8222-.44.8344.759,2.15.98,2.435,5.5851,3.7023,7.4411,1.6615,15.6143,6.4779,9.2776,4.8359,10.4355,6.957,13.4907,10.3431,5.21,5.4343,9.7106,3.9018,15.9889,8.8569,4.1474,4.61,8.3533,5.9063,14.7654,9.9492,4.51,4.0818,10.09.866,11.7174,6.6627-.16,1.9169,2.07,2.255,3.16,2.075,4.9016-.1581,7.1638,1.9826,14.0259,2.5834a5.2461,5.2461,0,0,1,4.96,4.7508c.7492.647,2.25-.7663,4.7142-1.3476.99-.1727.8051.0413,6.2565.5449,2.9287.287,3.7339.3284,4.4831.9755,1.3355,1.8074,2.8776,3.7,5.4561,3.3106,4.04.4063,11.2115-1.6224,15.86-3.8675,1.603-.0171,2.3109,1.4352,3.858,2.0239.9341.433,1.7319.3746,4.6023-.1362,8.0127-1.4887,11.9655-2.2792,13.1259-2.8655,5.2542-2.1893.5424,4.6728,11.2942.8782,11.6615-5.0644,9.17.6325,15.7846-2.1576,8.492-4.5317,2.1333,1.749,20.5014-10.3235,8.0347-5.3,12.1481-8.0078,14.1257-9.7567,8.6866-7.3534,14.5807-18.6136,26.9379-21.0217a30.1672,30.1672,0,0,1,5.2007-.18c14.6486.1315,13.1308-.0582,13.8362-.01C818.3652,1012.7686,826.6284,1011.9635,822.2743,1003.1578Z" transform="translate(-551.5138 -934.6395)" style="fill:url(#radial-gradient)"/><g id="Shadows_copy_6" data-name="Shadows copy 6" style="opacity:0.4000000059604645"><path d="M758.45,1006.524c-32.676-13.5518-57.86-45.2988-87.5509-67.3911,5.2056-1.4838,12.2015,2.3159,12.1334-4.0963.5473-.7419,3.2353.3649,5.0889,1.0315,4.0137,1.4108,4.0769.9049,8.0614,1.9168,5.3831,6.4243,8.8226,13.6927,15.5048,17.3148,23.014,13.0555,37.3073,34.3693,58.1442,49.1884C773.1592,1008.8568,762.22,1007.351,758.45,1006.524Z" transform="translate(-551.5138 -934.6395)" style="fill:#556824"/><path d="M807.0443,1004.6732a82.7694,82.7694,0,0,0-16.4269,1.6029.8756.8756,0,0,1,.8636.8393c-33.2769,5.6432-50.7373-38.4-79.8935-51.8084-6.6748-3.5223-10.1143-10.7907-15.5048-17.3148,2.452.6228,8.3411,2.9994,8.7036,2.4715l.0146.1995-.0146-.1995a.4012.4012,0,0,0,.1557-.613,1.9628,1.9628,0,0,1,.8319-.9633c4.9064,2.6491,17.8425,9.5234,19.8518,9.577a8.4269,8.4269,0,0,1,7.66,4.6535c2.9871,5.1959,12.2842,8.9274,23.717,19.9224,12.5274,9.5113,13.7266,23.16,28.03,29.5334,5.7383,1.6858,24.082.2434,32.0534-.44,1.7587-.63,6.0278.1605,6.0545,3.2669C817.8033,1005.0891,812.4372,1004.3788,807.0443,1004.6732Z" transform="translate(-551.5138 -934.6395)" style="fill:#687710"/><path d="M590.2994,990.05c-6.3123-4.05-12.7391-4.1815-19.5915-3.2791.5936-2.8509.2992-4.1329,3.4883-5.77a76.4457,76.4457,0,0,1,11.6786-7.5724c8.9225,5.4635,19.594,4.6827,27.8937,12.5982,2.902,1.2917,5.9232,1.4718,8.8251,2.7634a130.794,130.794,0,0,0,19.6814,18.2124C587.0154,1006.8343,611.3576,1013.3755,590.2994,990.05Z" transform="translate(-551.5138 -934.6395)" style="fill:#556810"/><path d="M579.9318,1018.2817c-4.7044-5.371-17.0908-11.5837-22.2793-12.6079a8.0115,8.0115,0,0,1-5.1837-2.3279c13.7827-2.1114,27.93.7639,41.2312,4.4031C595.0087,1014.672,587.6673,1017.1141,579.9318,1018.2817Z" transform="translate(-551.5138 -934.6395)" style="fill:#557710"/><path d="M593.2693,1026.53c-4.7482-1.8585-9.752-3.0966-13.3375-8.2487,7.7354-1.1676,15.0768-3.61,13.7609-10.6325,6.0764-.5448,13.4932-.5861,19.6061-.6323C616.135,1019.7439,604.9357,1024.2732,593.2693,1026.53Z" transform="translate(-551.5138 -934.6395)" style="fill:#657d10"/><path d="M607.6212,1036.3093c-5.6751-2.1917-8.9541-7.266-14.4516-9.7715,11.7661-2.2646,22.9655-6.7939,20.03-19.5136,9.2728,2.0288,19.2534,1.3988,28.9762-.0144,11,7.8181,25.1012,4.5806,38.6261,1.686C664.2308,1030.2624,634.8411,1034.2175,607.6212,1036.3093Z" transform="translate(-551.5138 -934.6395)" style="fill:#678710"/><path d="M640.4406,1050.4522c-6.271-.7444-8.5187-2.6856-13.2207-2.5421-1.09.18-3.32-.1581-3.16-2.075-.3527-2.08-2.2087-4.15-4.3882-3.79-3.5126-.0438-8.3994-3.7972-12.0506-5.7359,27.12-2.0845,56.61-6.0469,73.18-27.6135,3.4542-.7541,7.0154-1.4157,10.3844-1.963-1.2916-1.209-2.683-2.4107-3.9674-3.52,6.8062,5.3175,14.5392,6.8574,23.2792,5.7166C696.4276,1034.5243,666.5246,1042.4275,640.4406,1050.4522Z" transform="translate(-551.5138 -934.6395)" style="fill:#557710"/><path d="M667.23,1058.92l-.2991.0219c24.0991-18.7084,69.3-13.4928,78.5172-47.857,6.39-.3673,9.21-1.5762,9.2874-5.9936,3.0528,1.9825,18.5893,4.6559,15.1035-.5035a13.9849,13.9849,0,0,0,2.71,1.406c-6.0693,12.9774-17.5727,22.9435-27.9013,32.5226-10.8734,7.6138-25.6047,9.0926-35.4151,17.531-1.6614-.7809-1.9728-3.6659-4.5488-1.873-.37.4281-7.1857,1.8292-13.1259,2.8654-5.0986,1.5762-4.9819-.939-8.46-1.8877C678.5338,1057.1905,671.37,1059.3189,667.23,1058.92Z" transform="translate(-551.5138 -934.6395)" style="fill:#466610"/><path d="M744.74,1038.4094c10.3286-9.5793,21.832-19.5452,27.9012-32.5227,4.741,1.7587,11.4523,1.6688,17.75,1.4086l-5.1351,1.0776c.89-.1654,5.5267-1.2065,6.3392-1.0654l-.0146-.2c10.2775-2.0554,22.2917-5.04,31.7639,1.0851-.6106,5.3588-8.1369,3.9042-10.9878,3.3106-.7054-.0486.8052.0413-13.8361.01-19.9005-.65-25.634,21.0266-46.1646,30.9511-18.3607,12.1723-12.0094,5.7918-20.5013,10.3236a5.5183,5.5183,0,0,1-5.8065.124c-1.4351-1.8-14.2205,4.3493-16.7236,3.0284C719.1351,1047.5019,733.8665,1046.0232,744.74,1038.4094Z" transform="translate(-551.5138 -934.6395)" style="fill:#657d10"/><path d="M663.8512,1057.9639c-1.1627-.8174-1.0217-1.63-2.0847-2.4544-.8489-.64-1.5544-.6885-4.4831-.9755-5.4514-.5036-5.2665-.7176-6.2565-.5449-2.5712.4889-3.965,1.9946-4.7142,1.3476a5.6363,5.6363,0,0,0-5.7724-4.8919c25.9842-8.0174,55.987-15.9279,70.05-41.6225,5.7772-.5229,11.8245-1.4667,17.7744-1-.0073-.1-.1216-.2919-.1289-.3916A39.56,39.56,0,0,0,745.64,1010.97c-9.4166,34.3787-54.3257,29.0415-78.5172,47.8569A4.9611,4.9611,0,0,1,663.8512,1057.9639Z" transform="translate(-551.5138 -934.6395)" style="fill:#556824"/><path d="M566.21,1002.04a25.8688,25.8688,0,0,0-13.7486,1.2064c-1.2917-1.2089-1.0241-3.0333.8854-2.9725,7.7987-1.6735,12.2186-8.414,17.1056-12.8825,15.8016-4.6655,24.7387,5.1085,31.4256,19.76C588.1758,1006.2481,578.8349,1001.9181,566.21,1002.04Z" transform="translate(-551.5138 -934.6395)" style="fill:#678710"/><path d="M640.149,1005.3532a131.6323,131.6323,0,0,1-17.6552-16.5558c-2.902-1.2917-5.9232-1.4717-8.8251-2.7634-8.3-7.9155-19.071-7.1274-27.8937-12.5982,1.2869-5.7091,5.3369-3.8,9.4285-6.8061,36.7871-2.8921,67.3954,18.03,95.9822,40.1031C673.927,1009.299,654.1846,1017.6619,640.149,1005.3532Z" transform="translate(-551.5138 -934.6395)" style="fill:#466610"/><path d="M691.3122,1005.7208C661.4677,985.645,632.353,963.21,595.2035,966.63c3.2013-2.8411,10.5256-2.7754,10.7737-7.6064,4.7313-3.8555,13.1892-3.3714,18.21-4.6411,9.6814,3.5029,20.7859-2.3229,30.1341,2.1067,27.9982,11.2871,49.0515,31.8055,73.7221,51.0567.0072.1.1216.2918.1289.3916C715.3528,1006.7694,701.7477,1012.6779,691.3122,1005.7208Z" transform="translate(-551.5138 -934.6395)" style="fill:#657d10"/><path d="M723.5066,1004.4683c-22.42-20.0174-42.997-36.76-69.1927-48.0792-9.4406-4.3227-20.4527,1.3961-30.1341-2.1068,1.1019-1.3841.2773-4.432,2.885-4.4223,5.1788-.4791,7.4046-2.9482,13.481-3.493a3.2927,3.2927,0,0,0,2.435-.98c.6957-1.4547.0365-3.6123,2.2817-3.0747,4.4613.6763,9.2509-2.3814,15.2957-.6178,3.9358,1.7174,6.7576-2.1989,10.4331-2.6684,28.436,21.382,53.2816,51.2487,83.8291,65.8586C755.8056,1014.2375,732.8037,1012.3108,723.5066,1004.4683Z" transform="translate(-551.5138 -934.6395)" style="fill:#566610"/></g><g id="Branch_copy_8" data-name="Branch copy 8"><path d="M682.09,1049.6107c8.526-5.4366,27.9935-7.9639,35.5416-10.3209,10.2653-4.9622,21.3284-14.0939,27.7041-26.9935-10.596-.9293-21.0072-2.0726-31.7006-1.5911-5.9646,11.6663-18.1516,17.7719-29.3631,23.5053a107.4466,107.4466,0,0,1-37.1179,13.4443,105.9735,105.9735,0,0,0,36.4174-14.7968c10.0074-5.7456,21.5181-11.5009,26.95-22.2258-8.8349-.1557-17.5944-2.0215-26.4779-1.4719a45.78,45.78,0,0,1-24.06,16.5c-15.1425,6.8231-31.2215,11.81-48.0618,9.1314,16.8038,2.18,32.6469-3.2911,47.4537-10.5909a43.9737,43.9737,0,0,0,21.5692-14.9137c-21.8319,3.1014-43.3621-.6375-65.2281-.7423-2.9555,8.94-8.73,19.088-19.7278,16.7843,10.7614,1.82,16.06-7.9932,18.6234-16.8038-6.4413-.3308-12.9605-.3552-19.4455-1.2845-1.6347,6.4364-6.8963,12.6369-14.1306,11.0606,6.9983,1.0922,11.6688-4.9647,13.0189-11.18-13.1356-2.7488-26.3369-6.3952-39.8715-5.004,15.4781-2.2353,31.832,3.3863,46.6825,4.9067-3.7436-10.0536-10.9535-22.26-23.4956-19.6379,19.7935-3.5537,19.6595,17.9132,27.5,19.5455,9.134.1338,23.7973.4648,34.2206.404-12.5833-17.1274-28.56-23.0774-46.75-31.8736,19.7715,8.48,36.2177,13.9945,49.8787,32.1461,15.7578,2.958,31.1971-1.18,47.0279-1.3352a148.5581,148.5581,0,0,0-44.2109-30.0541c-13.048-5.6629-27.6333-14.5223-42.1726-9.0467,14.5174-5.7748,29.273,2.671,42.6056,8.1127a145.4318,145.4318,0,0,1,46.9913,31.0539,262.7649,262.7649,0,0,0,33.345.7689c-11.2455-9.8056-24.1257-17.2857-35.6339-26.5707-15.894-11.6713-33.3788-32.7516-55.111-25.5466,21.6884-7.8035,39.85,12.9266,56.22,24.2623,12.8339,9.589,26.9546,17.58,39.2485,28.0107,7.86.5278,15.6557,1.5618,23.5274.8855-5.692-7.9057-16.8038-10.4015-24.04-17.4924-15.7262-13.4884-29.6888-28.9107-47.1639-40.2658,17.7379,10.8345,32.0848,26.0282,48.0809,39.0958,8.4555,7.3025,19.611,10.3967,26.7066,18.3q5.9292-1.1857,11.9023-1.7732c-12.936-10.9854-23.5321-24.2476-36.2759-35.3473-7.2805-7.6892-17.4533-11.0559-25.2884-18.103,7.92,6.84,18.1927,10.2,25.5657,17.7819,13.25,11.1629,24.2521,24.4957,37.5944,35.5515,17.2028-1.9605,34.6172-1.0287,51.82-2.9892l1.1141,5.6337c-17.3172,1.7684-34.8751.2455-52.2,1.9141-9.9248,16.468-24.6343,30.579-43.8561,35.0937,16.3368-4.2033,34.0724-19.4381,42.46-34.9915-7.1881.4257-14.167,2.34-21.5132,1.9751-6.1568,11.7806-19.3533,23.2742-30.7157,28.3168-12.5713,2.2233-34.5,6.7354-46.87,14.4587C674.7367,1053.257,678.41,1051.384,682.09,1049.6107Z" transform="translate(-551.5138 -934.6395)" style="fill:#4d5f2a"/></g></g></svg>