<svg id="pizza" xmlns="http://www.w3.org/2000/svg" xmlns:xlink="http://www.w3.org/1999/xlink" viewBox="0 0 269.0475 125.2864"><defs><radialGradient id="radial-gradient" cx="-181.9093" cy="-172.365" fx="-227.01551388123048" r="127.7367" gradientTransform="matrix(-0.9908, -0.0426, 0.0223, -0.523, 500.8669, 903.6907)" gradientUnits="userSpaceOnUse"><stop offset="0" stop-color="#b0b13e"/><stop offset="0.2636" stop-color="#9ca038"/><stop offset="0.8033" stop-color="#677628"/><stop offset="1" stop-color="#526522"/></radialGradient></defs><g id="basil_a"><path d="M820.5,1016.3c-1.4,1.4-4.2.7-5.1.5-21.2-3.3-35.4-10.2-48.4,9.7-7,11.2-34.6,24.9-39.4,30.3a8.2013,8.2013,0,0,1-8.1,3.9c-2.1-.1-15.7,5.3-20.8,7.6-.1,0-1.4.8-1.6.6,2.9-4-.2-2.3-5.7-1.3-6.3,1.3-5.6.3-10.3,1.5-7.9,1.9-3.2.5-6.2-3-5.8-2-9.9.2-17-5.5a7.8073,7.8073,0,0,0-3.4-.1c-6.2,1.1-10.6-2.5-15.1-2.2-2.2.3-1.4-1.7-1.9-3.3a3.2619,3.2619,0,0,0-2.3-1.2c-6.2-1.6-8.8-3.9-14.1-5.4-1.1-1.1-.3-2.8-1.1-4-3.9-1.9-11.8-2-15.9-5.5-1.3-.5-2-1.1-1.6-2.9-.2-1-1.2-1.5-1.7-1.8-6.4-3.5-10.7-7.6-14.4-8.6a2.7451,2.7451,0,0,1-1.9-3.2c-.2-1.9-2.4-2.3-6.2-5.3-2.9-2.2-1.8-2.1-5-4.7-1.4-1.1-2.7-2.1-2.8-3.5.8-4.7-10.2-16.3-15.7-17.8-.3-.1-1.4-.3-1.6-1-.3-.9.9-2.1,1.2-2.3,5.9-3.1,7.5-.9,16.1-4.9,9.6-3.8,11-5.8,14.4-8.9,5.7-4.8,9.9-2.9,16.7-7.1,4.6-4.1,8.9-5,15.6-8.3,4.9-3.6,10.1.2,12.2-5.4.1-1.9,2.3-2,3.3-1.7,4.8.7,7.2-1.2,14.1-1.1,2.6.3,5-2,5.4-4.2.8-.6,2.1,1,4.5,1.8,1,.3.8.1,6.3.1,3,0,3.7.1,4.6-.5,1.5-1.7,3.2-3.4,5.8-2.8,4.1,0,10.9,2.8,15.3,5.5,1.6.2,2.4-1.1,4-1.6,1-.3,1.8-.2,4.5.7,7.7,2.3,11.6,3.5,12.7,4.2,4.9,2.7,1-4.6,11.2.3,11,6.3,9.1.3,15.3,3.7,7.9,5.4,2.3-1.5,19.1,12.4,7.4,6.2,11.1,9.2,12.9,11.2,7.8,8.2,12.4,20,24.3,23.8a29.7754,29.7754,0,0,0,5.1.7c14.4,1.4,13,1.4,13.7,1.4C817.7,1006.3,825.7,1008.1,820.5,1016.3Z" transform="translate(-553.1523 -944.6652)" style="fill:url(#radial-gradient)"/><g id="Shadows_copy_7" data-name="Shadows copy 7" style="opacity:0.5"><path d="M757.9,1006.4c-33.7,10.1-61.8,39-93.3,57.9,5,2,12.3-1.1,11.5,5.3.5.8,3.3,0,5.1-.5,4.1-1,4.1-.4,8.1-1.1,6-5.9,10.1-12.7,17.1-15.6,24.1-10.6,40.3-30.3,62.5-42.9C772.6,1005.5,761.6,1005.8,757.9,1006.4Z" transform="translate(-553.1523 -944.6652)" style="fill:#556824"/><path d="M805.6,1013.3a87.4285,87.4285,0,0,1-16-3.3.9738.9738,0,0,0,1-.8c-32.5-9-54,32.9-84.1,43.2-7,2.9-11.1,9.7-17.1,15.6,2.5-.4,8.6-2.1,8.9-1.5v0c.2.1.2.4.1.6a1.9013,1.9013,0,0,0,.7,1.1c5.1-2.2,18.6-7.6,20.6-7.5a8.2857,8.2857,0,0,0,8.1-3.9c3.5-4.9,13-7.6,25.4-17.3,13.3-8.2,15.9-21.6,30.7-26.4,5.8-1,23.8,2.3,31.6,3.8,1.6.8,6,.5,6.3-2.6C816.3,1014,810.9,1014.1,805.6,1013.3Z" transform="translate(-553.1523 -944.6652)" style="fill:#687710"/><path d="M590.3,1005.1c-6.6,3.4-13,2.8-19.7,1.2.3,2.9-.2,4.1,2.8,6.1,3.2,3.4,8.1,6.8,10.7,8.8,9.3-4.5,19.8-2.6,28.8-9.6,3-.9,6-.9,9-1.8a124.3169,124.3169,0,0,1,21.4-16C588.8,988.1,613.5,984.1,590.3,1005.1Z" transform="translate(-553.1523 -944.6652)" style="fill:#556810"/><path d="M583,975.9c-5.2,4.8-18.1,9.7-23.3,10.2a7.3049,7.3049,0,0,0-5.3,1.8c13.4,3.5,27.6,2.2,41.1,0C597.5,981.1,590.6,977.9,583,975.9Z" transform="translate(-553.1523 -944.6652)" style="fill:#557710"/><path d="M597,969.1c-4.9,1.4-9.9,2.1-14,6.8,7.5,2,14.5,5.2,12.4,12,4.6,1,14.5,2.2,19.2,2.7C618.9,978.3,608.3,972.6,597,969.1Z" transform="translate(-553.1523 -944.6652)" style="fill:#657d10"/><path d="M612.2,960.9c-5.9,1.6-9.6,6.3-15.2,8.2,11.4,3.4,21.9,9.2,17.7,21.5,9.3-1.1,19.2.6,28.6,3.1,11.7-6.6,25.2-1.9,38.3,2.4C667.5,972.9,638.8,965.8,612.2,960.9Z" transform="translate(-553.1523 -944.6652)" style="fill:#678710"/><path d="M646.1,950.3c-6.3.1-8.7,1.8-13.3,1.1-1.1-.3-3.3-.2-3.3,1.7-2.1,5.6-7.3,1.9-12.2,5.4-1.2.5-3.7,1.8-5,2.3,26.6,4.9,55.2,11.9,69.4,35.1,3.4,1.1,6.7,2.2,10,3-1.4,1-2.9,2.1-4.3,3.1,7.3-4.5,15-5.3,23.5-3.2C699.6,972,670.9,961,646.1,950.3Z" transform="translate(-553.1523 -944.6652)" style="fill:#557710"/><path d="M673.4,944.7h-.3c21.8,21.1,67,20.7,72.5,55.8,6.3,1,8.9,2.6,8.5,7,3.2-1.6,18.8-2.7,14.9,2a14.4555,14.4555,0,0,1,2.9-1.1c-4.6-13.6-14.9-24.7-24.1-35.2-10-8.7-24.3-11.7-33.1-21.1-1.8.6-2.3,3.4-4.7,1.4-.3-.5-6.9-2.5-12.7-4.2-2.8-.8-3.6-1-4.5-.7-2.1.9-3.7,2.7-5.7.9C683.1,946.5,676.7,945,673.4,944.7Z" transform="translate(-553.1523 -944.6652)" style="fill:#466610"/><path d="M747.6,973.1c9.2,10.6,19.5,21.7,24.1,35.2,4.8-1.2,11.4-.5,17.6.4l-5-1.6a52.0031,52.0031,0,0,0,6.1,1.8v.2c9.9,3.1,21.5,7.4,31.4,2.2,0-5.4-7.6-4.7-10.5-4.5-.7,0,.8,0-13.7-1.4-19.7-1.5-23.1-23.6-42.3-35.6-16.8-14-11.2-7-19.1-12.4a5.3927,5.3927,0,0,0-5.7-.7c-1.6,1.6-13.6-5.8-16.2-4.7C723.3,961.4,737.7,964.4,747.6,973.1Z" transform="translate(-553.1523 -944.6652)" style="fill:#657d10"/><path d="M669.9,945.2c-1.2.7-1.2,1.5-2.3,2.3-.9.6-1.6.5-4.6.5-5.5-.1-5.3.2-6.3-.1-2.4-.8-3.7-2.4-4.5-1.8a5.3712,5.3712,0,0,1-6.2,4.2c24.8,10.7,53.6,21.8,64.7,48.7,5.7,1.1,11.5,2.7,17.4,2.8-.1.1-.1.3-.2.4a38.4435,38.4435,0,0,1,17.5-1.7c-5.6-35.1-50.5-34.5-72.5-55.8A5.4535,5.4535,0,0,0,669.9,945.2Z" transform="translate(-553.1523 -944.6652)" style="fill:#556824"/><path d="M567.8,990.6a26.8342,26.8342,0,0,1-13.4-2.6c-1.4,1.1-1.4,2.9.6,3.1,7.5,2.5,11.2,9.6,15.5,14.6,15.2,6.3,24.9-2.6,33.1-16.4C589.9,988.8,580.2,992.1,567.8,990.6Z" transform="translate(-553.1523 -944.6652)" style="fill:#678710"/><path d="M641.1,995.1a122.2776,122.2776,0,0,0-19.1,14.6c-3,.9-6,.9-9,1.8-9,7-19.5,5.1-28.8,9.6.7,5.8,4.8,4.4,8.6,7.8,36,6.7,68.4-10.8,98.8-29.8C674.8,994.7,656.2,984.4,641.1,995.1Z" transform="translate(-553.1523 -944.6652)" style="fill:#466610"/><path d="M691.6,1000.1c-31.5,16.9-62.5,36.1-98.8,28.8,2.7,2.9,10.5,4.3,9.8,8.7,4.3,4.3,12.7,4.7,17.5,6.6,9.9-2.4,20.2,4.4,30,1.1,28.8-8.3,51.7-26.5,78-43.1.1-.1.1-.3.2-.4C715.3,1001.5,702.6,994.3,691.6,1000.1Z" transform="translate(-553.1523 -944.6652)" style="fill:#657d10"/><path d="M723.2,1004.7c-24.2,17.5-46.3,32.1-73.2,40.6-9.7,3.4-20.1-3.5-30-1.1,1,1.5-.2,4.5,2.4,4.7,5,1,7,3.7,12.9,4.9a3.47,3.47,0,0,1,2.3,1.2c.5,1.5-.3,3.6,1.9,3.3,4.4-.2,8.9,3.3,15.1,2.2,4-1.3,6.4,2.9,10,3.7,30.2-18.3,57.9-45.4,89.5-56.8C756.1,998.4,733.2,997.9,723.2,1004.7Z" transform="translate(-553.1523 -944.6652)" style="fill:#566610"/></g><g id="Branch_copy_9" data-name="Branch copy 9"><path d="M687,955.5c7.8,6.3,26.7,10.8,34,14,9.6,6.1,19.6,16.2,24.5,29.7-10.6-.2-20.9-.1-31.4-1.7-4.6-12.2-16.1-19.6-26.6-26.4a108.0521,108.0521,0,0,0-35.2-17.3,104.729,104.729,0,0,1,34.3,18.5c9.3,6.8,20,13.7,24.2,24.9-8.7-.8-17.5.1-26.2-1.3a45.6028,45.6028,0,0,0-22-18.9c-14.2-8.4-29.6-15-46.4-14.1,16.8-.4,31.9,6.7,45.7,15.5a42.5977,42.5977,0,0,1,19.7,17.1c-21.2-5.4-42.8-3.8-64.4-6.1-2-9.2-6.6-19.9-17.7-18.8,10.8-.7,15,9.7,16.6,18.7-6.4-.4-12.8-1-19.3-.8-.9-6.5-5.4-13.3-12.8-12.4,7-.3,11,6.2,11.7,12.5-13.3,1.4-26.6,3.6-39.9.8,15,3.8,31.8-.1,46.6,0-4.7,9.6-13.1,21-25.2,17.1,19.2,5.6,21.2-15.7,29.1-16.6,9,.8,23.5,2.1,33.8,3.2-14.4,15.8-30.4,19.9-49.5,26.9,20.3-6.3,37.3-10.3,52.5-26.8,15.8-1.3,30.6,4.4,46.2,6.3a143.9646,143.9646,0,0,1-46.7,25.2c-13.5,4.3-28.7,11.6-42.5,4.6,13.7,7.3,29.2.4,42.8-3.6a146.2879,146.2879,0,0,0,49.6-25.9,240.724,240.724,0,0,1,32.9,2.8c-12.1,8.6-25.5,14.6-37.9,22.7-16.9,9.9-36.3,29.1-57,19.7,20.6,10.1,40.7-8.7,57.9-18.2,13.7-8.2,28.4-14.6,41.6-23.8,7.8.3,15.6.1,23.3,1.5-6.4,7.3-17.6,8.6-25.6,14.9-16.9,11.7-32.2,25.7-50.7,35.1,18.7-8.9,34.4-22.5,51.5-33.8,9.1-6.4,20.4-8.3,28.2-15.4a116.1425,116.1425,0,0,0,11.6,3c-13.9,9.6-25.7,21.7-39.5,31.4-7.9,6.9-18.4,9.2-26.8,15.3,8.5-6,19-8.2,27-15,14.2-9.7,26.5-21.9,40.8-31.4,16.8,3.8,34,4.6,50.8,8.4l1.6-5.5c-16.8-3.5-34.4-3.9-51.3-7.4-8-17.3-21-32.9-39.6-39.4,15.7,5.9,31.6,23,38.2,39.2-7.1-1.1-13.8-3.8-21-4.2-4.8-12.3-16.7-25.2-27.4-31.4-12.3-3.6-33.3-10.3-44.8-19.3C680.1,951.1,683.6,953.3,687,955.5Z" transform="translate(-553.1523 -944.6652)" style="fill:#86882a"/></g></g></svg>