<svg id="pizza" xmlns="http://www.w3.org/2000/svg" xmlns:xlink="http://www.w3.org/1999/xlink" viewBox="0 0 271.3288 123.1255"><defs><radialGradient id="radial-gradient" cx="-268.9627" cy="-737.5682" fx="-314.0705172612459" r="127.7411" gradientTransform="matrix(-0.9909, -0.1347, -0.0515, 0.3788, 372.0528, 1245.1951)" gradientUnits="userSpaceOnUse"><stop offset="0" stop-color="#757a3e"/><stop offset="1" stop-color="#394d26"/></radialGradient></defs><g id="basil_b"><path d="M821.3762,1012.9871c-1.2-1.6-4.1-1.4-5-1.4-21.5-.5-37,3.8-46.3-18.2-5-12.3-30-30.7-33.7-36.8a8.2622,8.2622,0,0,0-7.3-5.2c-2.1-.3-14.6-8-19.3-11.2,0,0-1.2-1.1-1.5-.9,2.1,4.5-.6,2.2-5.9.2-6-2.4-5.5-1.3-9.9-3.3-7.5-3.3-3.1-1.1-6.7,1.8-6.2.9-9.6-2-17.8,2.4a7.8263,7.8263,0,0,1-3.4-.5c-5.9-2.2-11,.5-15.3-.5-2.2-.6-1.7,1.4-2.5,2.9a3.2921,3.2921,0,0,1-2.5.8c-6.5.5-9.4,2.3-15,2.8-1.3.8-.8,2.7-1.8,3.8-4.2,1.2-12.1-.1-16.8,2.6-1.3.3-2.2.7-2.1,2.6-6.5,4.2-14.7,6.3-19.3,8-1.6,4-1.8,3.5-8,6.3-3.3,1.7-2.1,1.7-5.8,3.7-1.6.9-3.1,1.5-3.4,3-.1,4.8-13,14.2-18.8,14.7-.3,0-1.4.1-1.7.7-.5.8.6,2.2.8,2.5,5.3,4.1,7.3,2.2,15.1,7.6,8.9,5.5,9.9,7.7,12.7,11.3,4.8,5.8,9.4,4.6,15.3,10,3.8,4.9,7.9,6.5,14,11,4.2,4.4,10,1.6,11.2,7.5-.3,1.9,1.9,2.4,3,2.3,4.9.2,7,2.5,13.8,3.6a5.246,5.246,0,0,1,4.6,5.1c.7.7,2.3-.6,4.8-1,1-.1.8.1,6.2,1,2.9.5,3.7.6,4.4,1.3,1.2,1.9,2.6,3.9,5.2,3.7,4,.7,11.3-.8,16.1-2.7,1.6.1,2.2,1.6,3.7,2.3.9.5,1.7.5,4.6.2,8.1-.9,12.1-1.4,13.3-1.9,5.4-1.8.2,4.7,11.2,1.7,12-4.2,9.1,1.3,15.9-1,8.8-3.9,2,1.9,21.2-8.8,8.4-4.7,12.7-7.1,14.8-8.7,9.2-6.7,15.9-17.5,28.4-19a30.1673,30.1673,0,0,1,5.2.2c14.6,1.2,13.1.9,13.8,1C816.7761,1022.2871,825.0761,1022.0871,821.3762,1012.9871Z" transform="translate(-551.4471 -934.5373)" style="fill:url(#radial-gradient)"/><g id="Shadows_copy_6" data-name="Shadows copy 6" style="opacity:0.4000000059604645"><path d="M757.4762,1011.6872c-31.6-15.9-54.4-49.4-82.4-73.6,5.3-1.1,12,3.2,12.4-3.2.6-.7,3.2.6,5,1.4,3.9,1.7,4,1.2,7.9,2.5,4.9,6.8,7.8,14.3,14.2,18.4,22,14.7,34.7,37,54.4,53.3C771.9762,1015.0871,761.1761,1012.7871,757.4762,1011.6872Z" transform="translate(-551.4471 -934.5373)" style="fill:#556824"/><path d="M806.0761,1013.3872a82.7713,82.7713,0,0,0-16.5.4.8755.8755,0,0,1,.8.9c-33.6,3.2-47.8-42-75.9-57.5-6.4-4-9.3-11.5-14.2-18.4,2.4.8,8.1,3.6,8.5,3.1v0a.4012.4012,0,0,0,.2-.6,1.9622,1.9622,0,0,1,.9-.9c4.7,3,17.1,10.8,19.1,11a8.427,8.427,0,0,1,7.3,5.2c2.6,5.4,11.6,9.8,22.2,21.6,11.8,10.4,12,24.1,25.8,31.5,5.6,2.1,24,2,32,1.9,1.8-.5,6,.6,5.8,3.7C816.7761,1014.5871,811.4762,1013.4871,806.0761,1013.3872Z" transform="translate(-551.4471 -934.5373)" style="fill:#687710"/><path d="M590.9762,982.9871c-6-4.5-12.4-5.1-19.3-4.7.8-2.8.6-4.1,3.9-5.5a76.43,76.43,0,0,1,12.2-6.7c8.5,6.1,19.2,6.1,26.9,14.6,2.8,1.5,5.8,1.9,8.6,3.4a130.7913,130.7913,0,0,0,18.3,19.6C586.4762,999.4871,610.2761,1007.7871,590.9762,982.9871Z" transform="translate(-551.4471 -934.5373)" style="fill:#556810"/><path d="M578.5761,1010.3872c-4.3-5.7-16.2-12.8-21.3-14.2a8.0123,8.0123,0,0,1-5-2.7c13.9-1.1,27.8,2.8,40.8,7.4C593.8761,1007.8872,586.3761,1009.7871,578.5761,1010.3872Z" transform="translate(-551.4471 -934.5373)" style="fill:#557710"/><path d="M591.2761,1019.5871c-4.6-2.2-9.5-3.8-12.7-9.2,7.8-.6,15.3-2.5,14.5-9.6,6.1-.1,13.5.4,19.6.8C614.5761,1014.4871,603.0761,1018.1872,591.2761,1019.5871Z" transform="translate(-551.4471 -934.5373)" style="fill:#657d10"/><path d="M604.8761,1030.3872c-5.5-2.6-8.4-7.9-13.7-10.8,11.9-1.4,23.4-5.1,21.4-18,9.1,2.7,19.1,2.8,28.9,2.1,10.4,8.6,24.7,6.4,38.4,4.5C661.7761,1028.4871,632.1761,1030.2871,604.8761,1030.3872Z" transform="translate(-551.4471 -934.5373)" style="fill:#678710"/><path d="M636.5761,1046.8872c-6.2-1.2-8.3-3.3-13-3.5-1.1.1-3.3-.4-3-2.3-.2-2.1-1.9-4.3-4.1-4.1-3.5-.3-8.1-4.4-11.6-6.6,27.2-.1,56.9-1.9,75-22.2,3.5-.5,7.1-.9,10.5-1.2-1.2-1.3-2.5-2.6-3.7-3.8,6.4,5.8,14,7.9,22.8,7.4C693.5761,1035.0871,663.1761,1040.7871,636.5761,1046.8872Z" transform="translate(-551.4471 -934.5373)" style="fill:#557710"/><path d="M662.6761,1057.2871h-.3c25.4-16.9,70.1-8.4,81.8-42,6.4.1,9.3-.9,9.7-5.3,2.9,2.2,18.2,6,15.1.6a13.9889,13.9889,0,0,0,2.6,1.6c-7,12.5-19.2,21.6-30.2,30.4-11.4,6.8-26.2,7.2-36.6,14.9-1.6-.9-1.7-3.8-4.4-2.2-.4.4-7.3,1.3-13.3,1.9-5.2,1.2-4.9-1.3-8.3-2.5C674.0761,1056.3872,666.7761,1057.9871,662.6761,1057.2871Z" transform="translate(-551.4471 -934.5373)" style="fill:#466610"/><path d="M741.4762,1042.4871c11-8.8,23.2-17.9,30.2-30.4,4.6,2.1,11.3,2.5,17.6,2.7l-5.2.7c.9-.1,5.6-.8,6.4-.6v-.2c10.4-1.3,22.6-3.4,31.6,3.4-1,5.3-8.4,3.3-11.2,2.5-.7-.1.8.1-13.8-1-19.8-2.1-27.1,19.1-48.3,27.5-19.2,10.8-12.4,4.9-21.2,8.8a5.5183,5.5183,0,0,1-5.8-.3c-1.3-1.9-14.5,3.3-16.9,1.8C715.2761,1049.6872,730.0761,1049.2871,741.4762,1042.4871Z" transform="translate(-551.4471 -934.5373)" style="fill:#657d10"/><path d="M659.3761,1056.0871c-1.1-.9-.9-1.7-1.9-2.6-.8-.7-1.5-.8-4.4-1.3-5.4-.9-5.2-1.1-6.2-1-2.6.3-4.1,1.7-4.8,1a5.6361,5.6361,0,0,0-5.4-5.3c26.5-6.1,57-11.8,72.9-36.4,5.8-.1,11.9-.6,17.8.3,0-.1-.1-.3-.1-.4a39.5587,39.5587,0,0,0,17.1,4.8c-11.9,33.6-56.3,25-81.8,42A4.9618,4.9618,0,0,1,659.3761,1056.0871Z" transform="translate(-551.4471 -934.5373)" style="fill:#556824"/><path d="M566.0761,993.1872a25.8676,25.8676,0,0,0-13.8.2c-1.2-1.3-.8-3.1,1.1-2.9,7.9-1.1,12.8-7.5,18-11.6,16.1-3.5,24.3,6.9,29.9,22C587.6761,998.9871,578.6761,993.9871,566.0761,993.1872Z" transform="translate(-551.4471 -934.5373)" style="fill:#678710"/><path d="M639.5761,1001.8872a131.6442,131.6442,0,0,1-16.4-17.8c-2.8-1.5-5.8-1.9-8.6-3.4-7.7-8.5-18.5-8.5-26.9-14.6,1.7-5.6,5.6-3.4,9.9-6.1,36.9-.2,65.9,22.9,92.8,47C672.9762,1008.2871,652.6761,1015.1872,639.5761,1001.8872Z" transform="translate(-551.4471 -934.5373)" style="fill:#466610"/><path d="M690.5761,1005.9871c-28.3-22.2-55.7-46.7-93-46,3.4-2.6,10.7-2,11.3-6.8,5-3.5,13.4-2.4,18.5-3.3,9.4,4.2,20.9-.8,29.9,4.3,27.1,13.3,46.6,35.3,69.8,56.3,0,.1.1.3.1.4C714.4762,1008.7871,700.4762,1013.6872,690.5761,1005.9871Z" transform="translate(-551.4471 -934.5373)" style="fill:#657d10"/><path d="M722.7761,1007.0871c-20.9-21.6-40.2-39.8-65.5-53-9.1-5-20.5-.1-29.9-4.3,1.2-1.3.6-4.4,3.2-4.2,5.2-.1,7.6-2.4,13.7-2.5a3.2925,3.2925,0,0,0,2.5-.8c.8-1.4.3-3.6,2.5-2.9,4.4,1,9.4-1.7,15.3.5,3.8,2,6.9-1.7,10.6-1.9,26.8,23.4,49.4,55,78.8,71.8C754.2761,1019.1872,731.4762,1015.5871,722.7761,1007.0871Z" transform="translate(-551.4471 -934.5373)" style="fill:#566610"/></g><g id="Branch_copy_8" data-name="Branch copy 8"><path d="M678.1761,1049.0871c8.9-4.8,28.5-5.9,36.2-7.7,10.6-4.2,22.3-12.5,29.6-24.9-10.5-1.7-20.8-3.6-31.5-3.9-6.8,11.2-19.4,16.4-31,21.3a107.4489,107.4489,0,0,1-38,10.7,105.9737,105.9737,0,0,0,37.4-12.1c10.4-5,22.3-9.9,28.5-20.2-8.8-.8-17.4-3.3-26.3-3.4a45.78,45.78,0,0,1-25.2,14.7c-15.6,5.7-32,9.5-48.6,5.6,16.6,3.4,32.8-.9,48.1-7.1a43.9741,43.9741,0,0,0,22.6-13.3c-22,1.5-43.2-3.8-65-5.5-3.6,8.7-10.1,18.4-20.9,15.3,10.6,2.6,16.6-6.8,19.8-15.4-6.4-.8-12.9-1.3-19.3-2.7-2.1,6.3-7.8,12.1-14.9,10,6.9,1.6,12-4.1,13.8-10.2-12.9-3.7-25.8-8.3-39.4-7.9,15.6-1.1,31.5,5.7,46.2,8.3-3-10.3-9.3-23-22-21.3,20-2.1,18.3,19.3,26,21.5,9.1.8,23.7,2.2,34.1,2.9-11.3-18-26.8-25.1-44.3-35.2,19.1,9.9,35.1,16.6,47.4,35.7,15.5,4.1,31.2,1.1,47,2.1a148.5581,148.5581,0,0,0-41.9-33.2c-12.6-6.6-26.5-16.5-41.4-12.1,14.9-4.7,29,4.8,41.9,11.2a145.4322,145.4322,0,0,1,44.6,34.4,262.7537,262.7537,0,0,0,33.2,3.2c-10.5-10.6-22.8-19-33.6-29.1-15-12.8-30.9-35.1-53.1-29.5,22.2-6.2,38.8,15.8,54.3,28.3,12.1,10.5,25.6,19.5,37.1,30.8,7.8,1.1,15.5,2.7,23.4,2.6-5.1-8.3-16-11.6-22.7-19.2-14.7-14.6-27.5-31-44.1-43.6,16.9,12.1,30.1,28.3,45.1,42.5,7.9,7.9,18.8,11.8,25.3,20.2q6-.75,12-.9c-12.1-11.9-21.7-25.9-33.6-37.9-6.7-8.2-16.6-12.3-23.9-19.9,7.4,7.4,17.4,11.5,24.2,19.6,12.4,12.1,22.4,26.2,34.9,38.2,17.3-.7,34.6,1.5,51.9.8l.7,5.7c-17.4.5-34.8-2.3-52.2-1.9-11.1,15.7-26.8,28.7-46.3,31.8,16.6-3,35.4-16.9,44.9-31.8-7.2-.1-14.3,1.3-21.6.4-7,11.3-21,21.8-32.7,26-12.7,1.3-34.9,4.2-47.8,11C670.5761,1052.1872,674.3761,1050.5871,678.1761,1049.0871Z" transform="translate(-551.4471 -934.5373)" style="fill:#4d5f2a"/></g></g></svg>