<svg id="pizza" xmlns="http://www.w3.org/2000/svg" viewBox="0 0 216 131.0319"><g id="camember_half"><path d="M528.2,776.8c.6-9.4-7.9-19.7-3-28.5a21.5308,21.5308,0,0,0,6.7-10.7c2.3-9.6.8-20.3,5.2-29.4,3.5-7,11.2-10.8,14.3-18.3,2.7-6.9,10.1-10,13.4-16.4-26.6,1.9-52.5,10.7-79.4,9.2a47.5837,47.5837,0,0,0-15.5-1.1c-7.2,0-13.9-3.4-21-4.8-15.4-2.5-31.2-2.8-46.7-2.7-10.2,1.5-22-.2-30.6,6.2-10.2,10.8-6.9,42-8,57.3,0,7.5.6,8.3.8,13.1-2.6,4.8-5.8,2-4.3,10.3,0,0,.8,8.1,2.6,10.9,4.8,5,6.7,9.8,12.3,12.3,9.9,6.9,13.9,8.2,25.2,7.5,12.4,2.3,25.7,2.4,38.3,3.1,25,.5,22.9,3.6,39.4,2.5,19.1-1.8,37.6-7.1,56.9-4.8-2.7-3.1-2.6-7.1-4.8-10.4C526.7,780.2,528.8,780,528.2,776.8Z" transform="translate(-357.4 -666.5025)" style="fill:#d8d0bf"/><g id="Shadows-3"><path d="M568.1,684.8c.2,2.2-1.8,3-5.8,9-2.6,3.8-7.6,12-8.8,14.8-2.3,9.9-5.1,20.5-7.9,30.5-3.4,13.9-3.1,39.1-8,49.7-3.3-3.3-2.8-9.8-5.7-12.9-10.5,3.2-9.4-22.8-8.4-29.1,1.5-7.5,2.8-7.1,8.3-23.3,4.6-15.5,10.3-29.6,18.4-37.6,5.6-5.6,5.7-13.9,12-7.5C566,682.1,567.8,683.8,568.1,684.8Z" transform="translate(-357.4 -666.5025)" style="fill:#ffd78b"/><path d="M557,682.1c2.3,1.4,2.5,4.2,4.7,5.6,1.9,1.7,1.7,3.3,2.5,3.2,1.3-1,6.5-7.7,7.6-9.9,0,0-1.3-1.7-2.5-3.2-2-2.8-1.9-3-2.5-3.2C561.3,672.7,560.3,679.4,557,682.1Z" transform="translate(-357.4 -666.5025)" style="fill:#f4c27d"/><path d="M534.4,790.6c-2.9-4-2.6-5.3-4.7-8.9-1.8-2-3.8-3.5-3.1-6.3,5.2-10.2,9.4,7,11.7,11.1-.7,1.6-1.9,5-2.6,6.6h0Z" transform="translate(-357.4 -666.5025)" style="fill:#f4c27d"/><path d="M529.4,778.3c1,1.8,3.1,7.1,4.2,9.5.4,1.7,2.5,3.3,2.3,5-3.8,0-3.9-4.8-5.3-7.4C529.8,783.5,527.8,780.5,529.4,778.3Z" transform="translate(-357.4 -666.5025)" style="fill:#e5ddca"/><path d="M567.5,668.7c1.6,1.6,4.1,5,5.9,6.1-.1,2.4.3,5.9-2.2,7.5-.8-3.3-4.6-6-6.8-7.9-.8-.7,1.8-5.3,1.3-7.1C566.4,667.8,566.8,668.2,567.5,668.7Z" transform="translate(-357.4 -666.5025)" style="fill:#e5ddca"/></g><path d="M529.4,778.3c.9-1.7-1.2-5.6-2.5-9.7-.9-6.4-3.7-9.8-3.3-16,.4-6,7.5-8.8,8.2-15.1,2.7-12,.1-26.2,9.6-35.5,6.9-5.2,9.6-13.5,15.2-19.8,3.5-4.2,6.6-5.3,8.3-9.4.1-2.4,3.3-7.8-2.3-5.9-9.3,0-68.3,12.8-90.1,7.9-10.5,1.4-20.1-2.4-30.1-4.9-22.1-2.6-41.8-3.7-64.3-.1-9,.9-16.3,4.9-16,15.7.1,6.6-4.5,15-4.7,20,3.6,11.2,4.4,16.5,1.9,28.6,2.8,8.5-2.8,24.4,2.3,27.6,5.7,2.1,6.4,9.6,12.1,11.7,7.3,4,9.7,7.7,13.8,8,3.2,0,12.1.7,13.9,1a319.7,319.7,0,0,0,32.3,1.9c24.7.4,22.8,3.6,39.3,2.4,17.6-1.3,38.4-6.8,55.6-5.2A9.2951,9.2951,0,0,1,529.4,778.3Z" transform="translate(-357.4 -666.5025)" style="fill:#eee6cf"/><path d="M529.4,778.3a16.9122,16.9122,0,0,1,1.1-2.6c.2-.8-.1-1.6.1-2.2.1-.9.6-.9.5-1.3-1.2-.8-3.9-.9-4.2-3.5-1-6.1-3.6-10-3.3-16,.2-1.7.2-3.2,1.5-4.4,11.9-9.9,5.4-27.6,11.9-40.1,3.5-7,11.2-10.8,14.3-18.3,2.7-6.8,9.1-9.3,13.1-15.5-11.1,1.5-18.3.5-30.1,1.8-6.5,1.4-18.7,3.7-30.9,5-27.8,3.2-60-9.3-95-7.4-22.4-.4-6.2,1.2-21.2,1.5-13.4,0-17.3,6.6-18.6,21.8-2.7,7.3-2.9,11.6-2.4,19.7.3,10.9-1.2,10-.4,17.2.7,3.7,2.6,23.7,2.9,24.5,12.9,24.7,45.9,20.3,69.3,22.8,27.5,1.9,28,2.8,37.7,2.3C492.6,782.2,513.9,777.3,529.4,778.3Z" transform="translate(-357.4 -666.5025)" style="fill:#f4d07d"/><path d="M531,772.2c2.6-9.3,2.7-24,3.5-34.3.8-13.9,6.3-24.2,9.3-35.8,3.4-5.4,8.7-15.1,13.4-20.1a179.7164,179.7164,0,0,1-18,.3c-7.4-.2-37.2,6.3-38.1,5.4-34.2,3.9-64.8-13.4-107.2-6.6-23.4,1.9-16-1.1-21.5,21.8-2.7,11.6-3.5,11.5-1.7,24.2-.2-1.5,2.5,33.5,4,33.2,4.6,5.5,11.9,7,17.3,11.6,15.1,4.3,31.4,2.7,46.9,3.8C483.4,780.7,491.5,773.2,531,772.2Z" transform="translate(-357.4 -666.5025)" style="fill:#fce895"/><g id="Holes_copy_2" data-name="Holes copy 2"><path d="M395.1,688c1.8-3.2,6-.4,8.8-.8,1.3-.2,2.5-1.1,3.7-.6,4.5,3.3-3.8,4.1-2.7,9.1-4.2,1.6-2.4-1.8-4.6-3-.8-.9-7-3.1-5.3-5.2" transform="translate(-357.4 -666.5025)" style="fill:#d9b869"/><path d="M511.1,714.5c-1,1.4-1.7,3.6-3.8,3.8,0,5.3,2.2,1.9,5.5,4.5,4.5-4.4,6.8,2,10,2.4,3.6-4.4-5.8-5.6-7.7-8.3C514.3,716.3,512.2,713.8,511.1,714.5Z" transform="translate(-357.4 -666.5025)" style="fill:#d9b869"/><path d="M469.7,752.3a8.5129,8.5129,0,0,0,4.6-1.6c.2,4.2-5.5,5.9-8.7,4-1.2-.6-2.4-1.8-1-2.9C465.8,751,468.5,752.4,469.7,752.3Z" transform="translate(-357.4 -666.5025)" style="fill:#d9b869"/><path d="M471.3,697.6c.5-1.4,1.8-1.3,2.9-.7,1.2.6,3.8,1.1,3.1,2.8-2.6,1.3-4-1.6-5.7,3C465,705.1,469.4,700.2,471.3,697.6Z" transform="translate(-357.4 -666.5025)" style="fill:#d9b869"/><path d="M424.4,728.8c4.3,3,7.8-2.5,10.6-5.1.4-2.6-3.3-2.5-4.7-1-1.4,1-1.8,3.3-3.3,3.8-.9.2-2-1.1-2.8-.6C423.3,726.6,423.8,728.3,424.4,728.8Z" transform="translate(-357.4 -666.5025)" style="fill:#d9b869"/><path d="M400.1,758.8c3,1.1,6.3-4.7,2.3-3.6-.4.6-1,1.3-1.4.6-2.1-3.1,1.6-6.9.2-10.1-1.3-2.9-4.5-.2-3.6,2.2,1.3,5.4-2.6,3.2-5.8,2.8-1.2-.7-3.6-4.3-4.3-1.3-.2,1.7,1.5,2.5,3,2.2,2.5.2,3.4,2.6,4.1,4.7C395.3,758.5,398.3,758,400.1,758.8Z" transform="translate(-357.4 -666.5025)" style="fill:#d9b869"/></g></g></svg>