<svg id="pizza" xmlns="http://www.w3.org/2000/svg" viewBox="0 0 324.9879 142.878"><g id="camembert"><path d="M828.433,376.8718a17.9772,17.9772,0,0,1-2.4187,3.6564c-2.8034,5.7759.3831,13.9034,3.5932,17.6377,9.5086,4.5943,30.1494,1.716,42.5322,3.8878,8.42,1.7545,16.89,1.2535,25.3988.4386,13.9215-.7951,27.814,1.2732,41.6811,1.7139,22.871,1.0556,45.1612-6.7512,68.0342-5.1857a66.0829,66.0829,0,0,1,23.0507,1.9375c9.96-.7025,18.9552,2.8739,28.3022,6.1744,15.25,3.2206,31.0223,4.4978,46.5569,5.1089,10.2143-.9583,21.9112,1.3533,30.8914-4.66,10.8473-10.3742,9.01-41.4327,10.9752-56.8349.5223-12.9652-.4684-10.3141.0578-16.7486,2.0139-12.6568,1.2317-23.009-8.9538-30.425-24.8711-17.3851-11.5717-5.7049-28.5509-9.9-23.7784-2.5037-54.6845-7.4333-73.83-8.7375-14.1592.1291-28.1315,3.18-42.2127,3.1909-37.8-2.1985-74.91-14.5387-113.1469-12.8721-16.6089.6282-43.7334.235-45.97,21.8159-.2611,9.2381-4.09,18.9988-1.6253,28.09-1.9759,6.832-6.2275,8.0043-4.2131,17.3911.6225,4.0574,1.5789,8.2509.9656,12.2539-.4409,2.8453-1.6856,5.7523-.6367,8.3961.4555,1.2339,1.4789,2.25,1.8564,3.6019C830.6176,368.0583,828.8975,375.1443,828.433,376.8718Z" transform="translate(-822.9898 -269.3634)" style="fill:#d8d0bf"/><path d="M823.3792,367.5939c-1.2645,13.8308,1.1818,23.3337,17.1447,23.0413,11.3375.5477,22.6732.5856,33.8784,2.4871A437.5376,437.5376,0,0,1,933.3,394.1862c22.6751,1.0955,44.8093-6.4754,67.4662-4.9679,10.4085-1.5082,20.1492,2.2224,30.5232,2.048,11.3993,1.3516,21.895,7.7859,33.6826,8.0379,20.2054,1.4966,44.9945,6.958,63.7518-1.66,11.3011-9.65,10.5888-55.2253,10.9242-71.112,2.4887-38.8794-43.2516-40.4807-71.501-42.89-24.6585-1.814-22.4919-4.7047-38.9847-4.5084-14.0613.1092-27.9555,3.0418-41.9387,3.033-46.51-2.8733-93.6585-19.904-140.5127-9.44-8.935,2.2285-16.9354,8.0426-17.5666,17.9684.45,5.2151-4.5088,22.4519-1.6289,27.07.2032,2-1.517,3.5748-2.6093,5.2261-4.5835,7.057.6645,15.785-.6219,23.497C820.6426,359.1707,828.6013,352.6507,823.3792,367.5939Z" transform="translate(-822.9898 -269.3634)" style="fill:#eee6cf"/><path d="M831.6645,364.6813c-8.0308,24.7,13.0491,18.4668,28.5294,20.3137,7.9316,2.3642,15.6508.1793,23.5715-.5158,10.8912,1.8633,21.7914.7653,32.8712.5491,15.11,2.5347,30.1023,4.9913,45.3483,1.6812,49.244-11.2569,97.6975,8.6717,146.8837,8.6525,13.3372.3445,19.1564-6.6581,20.5152-21.5287,2.4149-15.698,4.75-31.788,3.0258-47.7654,3.6357-36.2555-43.3531-35.97-68.7029-39.1737-42.5631-7.0451-43.2744-3.0222-77.8639-1.4863-19.69.0313-38.93-5.7442-58.4135-8.2044-27.5056-2.7648-58.7293-8.7523-84.9879,2.6185-10.1887,8.0968-11.1719,23.8094-10.3642,35.7892-1.9486,8.97-1.87,25.3843-2.2094,34.74C828.5723,355.5141,833.4318,359.8309,831.6645,364.6813Z" transform="translate(-822.9898 -269.3634)" style="fill:#f4d07d"/><path d="M842.02,359.4079c.5626,3.7634-.5424,7.3564-.3917,11.1016,1.7913,12.8,26.729,4.9642,36.0886,6.3231,13.7854-.4612,27.3295,2.9028,41.0768,2.7555,19.06-.6173,38.2116,2.2166,57.0669-.91,47.326-10.1518,96.1589,17.1495,142.3635,6.0015,8.6627-7.0716,7.5191-25.2084,10.4422-35.9072.6186-7.9842-1.43-16.0373-1.3215-24.02.0815-4.609.809-9.5538-1.6371-13.5458-2.7819-4.6381-8.3163-5.7557-12.3485-9.0164-12.8638-10.5443-35.0706-6.8367-50.8685-9.7415-24.6421-2.7359-25.1757-3.8518-35.6675-3.7554-12.7475.0456-25.5457,2.3468-38.2932,2.3924-25.8506-.6527-51.1969-8.3478-77.2253-9.3726-20.28-.3588-49.1663-5.3937-65.7695,7.786-6.2185,5.0429-6.2673,13.3192-4.4182,20.3924C841.0778,326.2282,839.2944,343.0223,842.02,359.4079Z" transform="translate(-822.9898 -269.3634)" style="fill:#fce895"/><g id="Holes"><path d="M860.2483,296.0948c1.7728-3.3207,6.019-.5118,8.7826-.9728,1.2738-.26,2.5458-1.0289,3.7434-.6606,4.542,3.2589-3.7506,4.1319-2.6146,9.2073-4.25,1.6822-2.379-1.6585-4.6781-2.925-.7875-.86-7.0316-2.9558-5.4112-5.0209" transform="translate(-822.9898 -269.3634)" style="fill:#d9b869"/><path d="M976.6745,321.0556c-1.0343,1.4354-1.595,3.6927-3.8106,3.838.0582,5.2949,2.2429,1.9923,5.4874,4.393,4.3767-4.5656,6.714,1.8979,9.9712,2.3569,3.5728-4.5039-5.923-5.5289-7.8736-8.0911C979.8773,322.75,977.7505,320.3262,976.6745,321.0556Z" transform="translate(-822.9898 -269.3634)" style="fill:#d9b869"/><path d="M935.8036,359.386a9.0552,9.0552,0,0,0,4.6616-1.6641c.2306,4.1372-5.411,6.0009-8.5557,4.09-1.0416-.6042-2.3989-1.7564-1.0888-2.84C931.8767,358.1449,934.5878,359.43,935.8036,359.386Z" transform="translate(-822.9898 -269.3634)" style="fill:#d9b869"/><path d="M936.5881,304.6272c.3483-1.2956,1.76-1.3791,2.9-.7949s3.8868,1.0452,3.1084,2.7345c-2.6039,1.2449-4.1826-1.4951-5.6959,3.0995C930.4767,312.2,934.8916,307.32,936.5881,304.6272Z" transform="translate(-822.9898 -269.3634)" style="fill:#d9b869"/><path d="M890.2225,336.525c4.3641,2.8869,7.7173-2.6949,10.4736-5.1954.3829-2.6294-3.3624-2.4787-4.5927-1.0034-1.428,1.0053-1.6548,3.3988-3.2807,3.9341-.8819.18-2.0432-1.0125-2.8453-.4409C889.0774,334.411,889.5928,335.9389,890.2225,336.525Z" transform="translate(-822.9898 -269.3634)" style="fill:#d9b869"/><path d="M1092.4654,338.39a1.6523,1.6523,0,0,0-2.1122,1.655c2.9051.7348,5.9662-4.2771,9.0166-1.3267.4138.528,1.1233,1.5061,1.9253.9345,1.5622-7.36-4.2426-1.7891-7.253-4.5436C1093.9678,336.2467,1094.1512,338.1484,1092.4654,338.39Z" transform="translate(-822.9898 -269.3634)" style="fill:#d9b869"/><path d="M997.9476,357.85a13.2831,13.2831,0,0,0,8.0785-.4211c5.2351-.3521-2.6091,10.737-11.978,1.3176A4.68,4.68,0,0,1,997.9476,357.85Z" transform="translate(-822.9898 -269.3634)" style="fill:#d9b869"/><path d="M1065.901,308.1847c2.6512.9907,3.8505-3.6419,6.5052-1.6314a1.9,1.9,0,0,1-1.1649,3.299l-5.7794,1.6877c-1.8618.3792-4.48,3.0558-5.589.118-.3175-1.0579.4646-1.7275,1.0307-2.4551.136-.3339-.14-.686-.3176-1.058C1059.9147,306.853,1065.1553,308.0305,1065.901,308.1847Z" transform="translate(-822.9898 -269.3634)" style="fill:#d9b869"/><path d="M1056.4424,344.9121c1.98-.3012,2.6347,1.9126,3.9522,2.8688,1.9453,1.0325,4.37-1.0943,6.3729-.2778,2.13,3.4441-3.7288,4.74-6.16,4.827-1.2974-.8583-2.673-1.5986-4.2008-1.0832-1.4317-.0145-4.44,3.2518-4.6072.4283.1125-1.4517,3.8178-1.7983,2.4986-3.2645-1.1577-.1724-2.51.2051-3.415-.733C1051.719,345.7724,1054.6187,344.9775,1056.4424,344.9121Z" transform="translate(-822.9898 -269.3634)" style="fill:#d9b869"/><path d="M1099.0929,370.9215c2.7111,1.2847,4.0393-.21,4.658-2.6838,2.6021-1.7548,5.6451-.8439,3.9611-5.6036,3.27-1.4826,3.29,4.1263,1.55,5.6034a4.3183,4.3183,0,0,0-2.3407,3.5385c-.6514,4.3169-11.7621,6.8866-10.9783,1.216,1.35-.8874-.3992-1.96.6768-2.6892C1097.1677,369.9871,1098.5431,370.7274,1099.0929,370.9215Z" transform="translate(-822.9898 -269.3634)" style="fill:#d9b869"/><path d="M1024.173,315.257a3.771,3.771,0,0,0-1.3282,1.4953c2.0051,1.3264,5.4111-.49,3.1283-2.6784-.9853-1.33-3.6873-.0653-2.1921,1.263" transform="translate(-822.9898 -269.3634)" style="fill:#d9b869"/><path d="M1110.1771,317.1261c5.1171-.43,1.5713-4.81-.73-6.5869-.9853-1.33-.7732-2.2918-2.8127-2.2845-2.1956.2431-5.9737,2.2375-6.4362,4.4749C1102.9968,316.4458,1105.8,316.1808,1110.1771,317.1261Z" transform="translate(-822.9898 -269.3634)" style="fill:#d9b869"/><path d="M866.2869,366.8127c2.867,1.0488,6.3763-4.7688,2.2228-3.6165-.41.4917-.9762,1.2194-1.43.4954-2.0506-3.0521,1.5441-6.9481.0814-10.12-1.4227-2.9759-4.5111-.1015-3.5021,2.3463,1.49,5.31-2.6166,3.1865-5.7358,2.9035-1.2575-.6623-3.6239-4.2624-4.3188-1.1613.25,4.2353,5.8049-.06,7.3,6.7792C861.4619,366.6731,864.4015,366.0742,866.2869,366.8127Z" transform="translate(-822.9898 -269.3634)" style="fill:#d9b869"/></g></g></svg>