<svg id="pizza" xmlns="http://www.w3.org/2000/svg" viewBox="0 0 324.5318 134.6435"><g id="camembert"><path d="M825.6723,1650.5065a14.6435,14.6435,0,0,1-2.2847,3.8093c-2.5762,5.91.956,13.8962,4.27,17.4829,9.6172,4.2613,30.1026.5788,42.61,2.3285,8.506,1.4657,16.9027.6319,25.3982-.5023,13.8947-1.3559,27.8014.2881,41.7009.1321,22.9011.2078,44.9662-8.4811,67.77-7.6729a66.376,66.376,0,0,1,23.1042,1.007c9.9959-1.04,19.1091,2.223,28.5212,5.1852,15.3107,2.6383,31.1138,3.3747,46.714,3.4119,10.1947-1.341,21.9027.6118,30.6768-5.8236,10.4568-10.7422,7.432-41.73,8.87-57.1362.0476-13-.8415-10.2966-.4673-16.6982,1.5484-12.8063.3074-23.0014-10.1211-30.0595-25.5666-16.4972-11.8213-5.2525-28.936-8.8836-23.9067-1.6038-54.9222-5.3789-74.0248-6.002-14.1975.6572-27.9833,4.2127-42.0811,4.7695-37.9038-.8474-75.3477-11.6967-113.5361-8.7429-16.5954,1.1668-43.6932,1.7759-45.2058,23.4821.037,9.2-3.4231,19.114-.5869,28.1026-1.7722,6.9072-5.867,8.2237-3.5295,17.5144.7165,4.0971,1.933,8.1923,1.45,12.2942-.2887,2.8012-1.4762,5.906-.2661,8.4012.5048,1.198,1.6088,2.1935,2.0141,3.4919C827.5368,1641.699,826.065,1648.705,825.6723,1650.5065Z" transform="translate(-818.5724 -1541.0447)" style="fill:#d8d0bf"/><path d="M820.3357,1641.4279c-.7444,13.8031,2.0934,23.1918,17.89,22.3282,11.3.0545,22.6994-.1914,34.0054,1.2631a445.1616,445.1616,0,0,1,58.8963-1.0372c22.7014.3086,44.5674-8.1795,67.2705-7.4709,10.2926-1.8414,20.2058,1.4187,30.5037.8772,11.404.9541,22.1284,7.011,33.9276,6.7635,20.203.7186,45.2217,5.3179,63.6841-4.0565,10.9592-10.1442,8.5765-55.535,8.3124-71.434,1.0429-39.0045-44.757-38.92-73.0625-40.2062-24.7038-.9-22.6159-3.9089-39.1125-3.0425-14.0975.6567-27.8841,4.0123-41.7819,4.5682-46.6053-1.2123-94.3669-16.42-140.7182-4.2334-8.79,2.5354-16.5653,8.6668-16.925,18.6683.7209,5.1971-3.709,22.6151-.5909,27.1026.308,1.9988-1.3855,3.6056-2.3787,5.31-4.371,7.2177,1.2636,15.795.2947,23.499C817.2023,1633.1405,824.9752,1626.4091,820.3357,1641.4279Z" transform="translate(-818.5724 -1541.0447)" style="fill:#eee6cf"/><path d="M828.5227,1638.195c-7.1,24.9288,13.6727,18.0451,29.2779,19.2822,8.0084,2.0678,15.6986-.3632,23.5945-1.395,11.006,1.4557,21.8.0123,32.8974-.7324,15.2079,1.9388,30.2158,3.8783,45.3.0176,48.7476-13.0964,97.9214,5.1058,147.1145,3.3077,13.3-.1536,18.97-7.3764,19.71-22.28,1.8364-15.8075,3.6716-31.915,1.2071-47.9052,2.2535-36.4094-44.7389-34.42-70.148-36.6179-42.8222-5.4276-43.4061-1.4252-77.8949,1.4137-19.6975.6793-39.1174-4.2425-58.6249-6.064-27.6074-1.7889-59.0273-6.6624-84.8776,5.7418-9.8661,8.44-10.3025,24.2417-9.0546,36.1367-1.5633,9.1064-.9977,25.4042-.96,34.8042C825.0865,1629.2087,830.0029,1633.289,828.5227,1638.195Z" transform="translate(-818.5724 -1541.0447)" style="fill:#f4d07d"/><path d="M838.6,1632.5543c.7153,3.7972-.27,7.4012.0447,11.1,2.2511,12.691,26.8163,3.992,36.32,4.9538,13.7959-1.0556,27.4079,1.89,41.2053,1.2341,19.095-1.2769,38.3033.7457,56.9883-3.03,46.8525-11.8887,96.7552,13.5105,142.504.7262,8.47-7.4341,6.5976-25.4267,9.0541-36.2367.2679-8.0012-1.964-15.8922-2.1962-23.8914-.1185-4.6.4614-9.6019-2.0539-13.3918-2.9181-4.4883-8.5221-5.4657-12.6345-8.5492-13.2405-10.0468-35.3223-5.4578-51.2317-7.7938-24.7074-1.8-25.3124-2.9981-35.81-2.4558-12.6983.4511-25.3873,3.2022-38.1848,3.8537-25.899.3043-51.4262-6.393-77.5271-6.5879-20.2986.3818-49.415-3.601-65.4592,10.2637-5.979,5.2241-5.8457,13.5236-3.6175,20.5147C836.4668,1599.4627,835.3345,1616.2673,838.6,1632.5543Z" transform="translate(-818.5724 -1541.0447)" style="fill:#fce895"/><g id="Holes"><path d="M854.4427,1568.59c1.6863-3.4068,5.9971-.7241,8.7946-1.3354,1.2988-.3052,2.4956-1.11,3.6968-.8148,4.6128,3.1814-3.6831,4.2148-2.2625,9.3091-4.0927,1.8165-2.5065-1.59-4.8108-2.6806-.8037-.8968-7.1112-2.7714-5.6193-4.7774" transform="translate(-818.5724 -1541.0447)" style="fill:#d9b869"/><path d="M971.827,1589.3176c-.9943,1.404-1.4846,3.806-3.6842,3.9148.3213,5.2988,2.3076,1.8907,5.6168,4.1775,4.1811-4.7169,6.8068,1.6726,10.1084,2.0593,3.4814-4.6141-6.1213-5.2754-8.2314-7.7669C975.0335,1590.9047,972.8238,1588.5136,971.827,1589.3176Z" transform="translate(-818.5724 -1541.0447)" style="fill:#d9b869"/><path d="M932.2869,1629.0771a8.5708,8.5708,0,0,0,4.5922-1.9185c.3165,4.0988-5.175,6.2209-8.4822,4.4342-1.0024-.596-2.5068-1.69-1.2112-2.7952C928.3824,1627.9928,931.0873,1629.1819,932.2869,1629.0771Z" transform="translate(-818.5724 -1541.0447)" style="fill:#d9b869"/><path d="M931.0662,1574.2816c.2948-1.3012,1.794-1.5073,2.8964-.9117s3.9036.8843,3.2105,2.5871c-2.5948,1.31-4.2057-1.3831-5.5867,3.3225C925.2976,1582.1049,929.4775,1577.088,931.0662,1574.2816Z" transform="translate(-818.5724 -1541.0447)" style="fill:#d9b869"/><path d="M885.901,1607.8637c4.5113,2.7818,7.5879-3.0306,10.2778-5.5414.2895-2.6012-3.51-2.3859-4.6032-.7815-1.396,1.0056-1.5858,3.5064-3.1839,4.0129-.8992.2036-2.0036-.892-2.8011-.2887C884.693,1605.8685,885.299,1607.3661,885.901,1607.8637Z" transform="translate(-818.5724 -1541.0447)" style="fill:#d9b869"/><path d="M1088.1805,1602.3492a1.5907,1.5907,0,0,0-1.9927,1.808c2.9024.5883,5.8818-4.5237,8.9935-1.6362.402.4984,1.106,1.4956,1.9032.7923,1.37-7.4055-4.3069-1.6827-7.4173-4.27C1089.5713,1600.0436,1089.8788,1601.9424,1088.1805,1602.3492Z" transform="translate(-818.5724 -1541.0447)" style="fill:#d9b869"/><path d="M994.3718,1625.2271a13.9032,13.9032,0,0,0,8.0971-.7326c5.1976-.621-2.1565,10.8087-11.993,1.7483A5.155,5.155,0,0,1,994.3718,1625.2271Z" transform="translate(-818.5724 -1541.0447)" style="fill:#d9b869"/><path d="M1060.4628,1573.1606c2.7035.8891,3.7851-3.7153,6.3927-1.8258a1.89,1.89,0,0,1-1.0867,3.3044l-5.6922,1.923c-1.898.5076-4.3871,3.2177-5.5987.3225-.3045-1.0988.3931-1.7016.89-2.5036a1.6752,1.6752,0,0,0-.3045-1.0988C1054.3583,1572.0851,1059.7619,1572.9634,1060.4628,1573.1606Z" transform="translate(-818.5724 -1541.0447)" style="fill:#d9b869"/><path d="M1052.3118,1610.1937c1.9984-.408,2.7072,1.7891,4.1112,2.7835,1.9036.8923,4.3952-1.2178,6.398-.5258,2.2132,3.2911-3.4807,4.814-5.98,5.0241a4.74,4.74,0,0,0-4.2039-.9831c-1.4.0057-4.2863,3.4173-4.5975.6185.0939-1.5,3.6922-1.9148,2.3863-3.41-1.2008-.1952-2.4988.31-3.4024-.5863C1047.6159,1611.2126,1050.5121,1610.3009,1052.3118,1610.1937Z" transform="translate(-818.5724 -1541.0447)" style="fill:#d9b869"/><path d="M1095.9105,1634.6184c2.7047,1.1891,3.9987-.3161,4.5882-2.9185,2.4924-1.91,5.5959-1.0226,3.7771-5.7153,3.1935-1.6129,3.4161,3.9863,1.7221,5.4931-1.4972.7061-1.9919,2.008-2.1855,3.6088-.5826,4.3024-11.57,7.3467-10.9934,1.6443,1.2964-.9052-.5081-1.9979.5891-2.7024C1094.0068,1633.726,1095.31,1634.4208,1095.9105,1634.6184Z" transform="translate(-818.5724 -1541.0447)" style="fill:#d9b869"/><path d="M1018.9969,1581.7276a3.8385,3.8385,0,0,0-1.294,1.5052c2.0049,1.192,5.3972-.7217,2.9887-2.812-1.0052-1.296-3.7.0149-2.1943,1.4088" transform="translate(-818.5724 -1541.0447)" style="fill:#d9b869"/><path d="M1105.0922,1580.3809c5.0975-.6205,1.3807-4.8056-.9266-6.5963-1.0052-1.2959-.9093-2.2963-2.9089-2.1883-2.1987.3088-5.89,2.4237-6.1809,4.7249C1097.7906,1580.01,1100.5894,1579.699,1105.0922,1580.3809Z" transform="translate(-818.5724 -1541.0447)" style="fill:#d9b869"/><path d="M863.1265,1639.0557c2.9036.8883,6.18-5.025,2.085-3.7085-.398.5016-.9951,1.204-1.398.5057-2.212-2.9912,1.2722-6.9052-.2407-10.0992-1.512-2.9939-4.5.0182-3.39,2.4137,1.721,5.1931-2.4867,3.31-5.5874,3.1225-1.3028-.6947-3.7169-4.1851-4.3044-1.0827.4169,4.1984,5.7987-.3233,7.5265,6.57C858.3269,1639.175,861.224,1638.4633,863.1265,1639.0557Z" transform="translate(-818.5724 -1541.0447)" style="fill:#d9b869"/></g></g></svg>