<svg id="pizza" xmlns="http://www.w3.org/2000/svg" viewBox="0 0 231.2854 186.9556"><g id="camember_half"><path d="M494.4064,799.4305c5.0655-7.9475,2.8134-21.0168,11.3571-26.2918a21.256,21.256,0,0,0,11.0812-6.0107c6.7481-7.2411,10.6708-17.3085,19.0146-23.0418,6.4928-4.4242,15.11-3.9273,21.4257-8.9072,5.7373-4.7057,13.73-3.74,19.695-7.6724-24.133-11.36-50.9762-16.4767-73.7427-31.0075a47.5926,47.5926,0,0,0-12.9649-8.6158c-6.2543-3.5346-10.4326-9.7636-15.8781-14.5456-12.2021-9.6684-25.7917-17.8154-39.4451-25.2581-9.6039-3.71-19.0832-10.9878-29.6894-9.5917-14.2057,4.4494-26.5506,33.1793-35.1433,46.0469-3.701,6.5233-3.5189,7.4912-5.6712,11.8118-4.5957,2.9205-6.0052-1.1123-8.8147,6.855,0,0-3.3012,7.44-3.0647,10.7842,1.71,6.6727,1.0226,11.7509,4.6526,16.8227,5.2321,10.897,8.0857,14.0382,18.3351,18.9289,9.6845,8.148,21.1917,14.6721,31.9027,21.5215,21.4575,12.68,18.18,14.3708,33.1165,21.6033,17.4665,7.8308,36.2482,12.2735,51.918,23.79-.8026-3.992,1.1656-7.534.9468-11.3879C491.4263,801.6028,493.3779,802.4755,494.4064,799.4305Z" transform="translate(-352.5538 -630.3671)" style="fill:#d8d0bf"/><g id="Shadows-3"><path d="M574.2868,738.8924c-.8957,2.0488-2.9623,1.6627-9.5168,5.0447-4.0736,2.0165-12.4791,6.7076-14.8806,8.6058-6.9144,7.51-14.5048,15.2713-21.9057,22.6662-9.7637,10.4327-21.8774,32.5378-31.4193,39.4263-1.1971-4.4962,2.4452-9.903,1.3506-13.9641-10.7276-2.4348,3.0122-24.4636,6.9748-29.4863,4.9713-5.8117,5.8576-4.78,18.7374-16.2224,11.5969-11.2322,23.5067-20.7461,34.4812-23.6993,7.59-2.11,11.7665-9.3423,14.11-.5673C573.7583,735.479,574.6142,737.9422,574.2868,738.8924Z" transform="translate(-352.5538 -630.3671)" style="fill:#ffd78b"/><path d="M565.9647,731.0665c1.3143,2.2634.0629,4.9474,1.28,7.1877.7586,2.44-.1475,3.6644.585,4.0432,1.5978-.2386,9.3661-3.539,11.5321-4.8764,0,0-.3181-2.13-.585-4.0432-.4312-3.39-.1905-3.5389-.585-4.0432C574.3776,725.0413,570.2486,730.3329,565.9647,731.0665Z" transform="translate(-352.5538 -630.3671)" style="fill:#f4c27d"/><path d="M492.9972,814.511c-.5955-4.8677.2646-5.8974.3326-10.0945-.6153-2.6118-1.6147-4.9034.4205-6.991,9.5011-6.2816,4.6713,10.6616,4.78,15.4143-1.3927,1.1093-4.0809,3.3507-5.4736,4.46h0Z" transform="translate(-352.5538 -630.3671)" style="fill:#f4c27d"/><path d="M494.6733,801.3432c.0262,2.0614-.7993,7.7235-1.0316,10.443-.5116,1.7287.562,4.1406-.4875,5.5365-3.25-1.8991-1.0235-6.0994-1.0372-9.0826C492.4519,805.9558,492.1641,802.3938,494.6733,801.3432Z" transform="translate(-352.5538 -630.3671)" style="fill:#e5ddca"/><path d="M581.673,724.609c.61,2.1995,1.149,6.4374,2.1662,8.2193-1.2849,1.9568-2.6975,5.322-5.6065,5.456.88-3.2857-.9932-7.5308-1.9977-10.2347-.2794-.991,4.1729-3.74,4.61-5.5888A12.7374,12.7374,0,0,1,581.673,724.609Z" transform="translate(-352.5538 -630.3671)" style="fill:#e5ddca"/></g><path d="M494.6733,801.3432c1.5874-1.0631,1.7013-5.4548,2.5938-9.6624,2.2517-6.044,1.6155-10.3049,4.9942-15.4657,3.3326-4.9662,10.9127-3.9953,14.5833-9.0871,8.2047-9.0545,13.0021-22.82,25.8151-26.16,8.573-1.0549,15.0218-7.0309,22.967-9.7757,5.0927-1.9809,8.4475-1.3929,11.76-4.1031,1.2849-1.9568,6.6769-5.2028.8663-6.269-8.0625-4.5788-65.8225-22.3518-82.29-37.4478-9.7754-3.8537-16.282-11.9694-23.769-18.9811-17.97-13.0879-34.5511-23.7922-55.9-31.7193-8.27-3.703-16.5895-3.7186-21.611,5.7806-3.1276,5.8368-11.31,10.8889-13.8518,15.1174-2.4013,11.4549-4.3025,16.4514-12.3815,25.844-1.6595,8.7531-14.3729,19.9266-11.6135,25.2035,3.94,4.6312.8739,11.51,4.8137,16.1415,4.3834,7.1,4.6817,11.4861,8.0574,13.7233,2.81,1.5894,10.2474,6.637,11.6433,7.6865a307.1235,307.1235,0,0,0,27.1949,17.5308c21.2859,12.5364,18.1059,14.25,32.9679,21.3625,16.0068,7.4856,36.8143,12.9212,51.0317,22.7581A6.2282,6.2282,0,0,1,494.6733,801.3432Z" transform="translate(-352.5538 -630.3671)" style="fill:#eee6cf"/><path d="M494.6733,801.3432c.1434-.1716,2.3041-1.9212,2.1607-1.75.6478-.5661.7346-1.3676,1.1647-1.8824.476-.7095,1.0369-.4741,1.129-.8633-.72-1.3006-2.9686-2.6546-1.8836-5.07,2.0854-5.775,1.7588-10.4765,4.9942-15.4657.9521-1.4189,1.761-2.6663,3.5022-3.0765,15.2458-2.7648,18.3083-21.3592,30.0957-29.0524,6.4928-4.4243,15.11-3.9274,21.4257-8.9073,5.7143-4.6083,12.47-3.627,19.0473-7.1063-10.4105-4.2094-16.1658-8.5508-27.0912-13.19-6.3077-2.0058-18.0985-6.0279-29.4131-10.76-25.777-10.927-47.7275-37.596-79.0933-53.1333-19.3291-11.2515-5.9927-2.034-19.2286-9.07-11.7019-6.57-18.2742-2.6785-26.8722,9.7769-5.9036,4.9746-8.2328,8.74-11.8029,16.0131-5.1418,9.5735-5.9131,8.0552-8.8355,14.7626-1.1667,3.6289-9.3994,21.9252-9.5092,22.824-.9319,27.8329,29.9567,40.1746,49.22,53.8767,23.0177,15.2068,22.9821,16.226,31.7436,20.4564C460.747,786.6389,481.6854,792.8248,494.6733,801.3432Z" transform="translate(-352.5538 -630.3671)" style="fill:#f4d07d"/><path d="M499.1277,796.8479c6.7533-6.8289,14.1835-19.56,19.92-28.1713,7.4919-11.6893,17.4053-17.9762,25.7125-26.5954,5.6379-2.9823,15.0469-8.8747,21.4968-10.9456-5.3219-2.6975-10.7413-5.418-15.7535-8.556-6.3056-3.7523-35.5031-12.8167-35.8338-14.0253-31.6546-13.4476-49.9366-43.4619-90.0753-58.4026-21.3234-9.7708-13.4284-8.8282-29.4128,8.3538-8.1355,8.7626-8.65,8.3325-13.4,20.1568.6372-1.3906-14.2879,30.4283-12.7539,30.8939,1.3259,6.993,6.943,11.9182,9.38,18.5575,11.0093,11.236,26.0094,17.7641,38.9743,26.38C453.4934,780.8127,464.1581,778.3,499.1277,796.8479Z" transform="translate(-352.5538 -630.3671)" style="fill:#fce895"/><g id="Holes_copy_2" data-name="Holes copy 2"><path d="M422.13,656.6592c3.1287-1.9317,5.4423,2.6232,8.0981,3.56,1.219.4938,2.6966.33,3.4856,1.3382,2.2958,5.0645-5.3387,1.7173-6.8046,6.6112-4.4482-.7439-1.2222-2.6525-2.5365-4.9159-.2334-1.1855-4.6137-6.1265-2.1275-7.08" transform="translate(-352.5538 -630.3671)" style="fill:#d9b869"/><path d="M510.0552,736.7493c-1.6156.7482-3.2208,2.321-5.1723,1.4483-2.6337,4.6177.9816,2.8012,2.5575,6.565,6.14-1.63,4.8669,5.0561,7.4871,7.0117,5.3334-2.13-2.2813-7.7328-2.6382-11.0027C511.9868,739.8781,511.4123,736.6594,510.0552,736.7493Z" transform="translate(-352.5538 -630.3671)" style="fill:#d9b869"/><path d="M455.4945,749.3279a10.1781,10.1781,0,0,0,4.8145.9333c-1.8939,3.6624-7.6585,2.4016-9.47-.8013-.6687-1.0831-1.1992-2.75.4959-2.9655C452.7153,746.307,454.3959,748.76,455.4945,749.3279Z" transform="translate(-352.5538 -630.3671)" style="fill:#d9b869"/><path d="M483.739,702.4711c1.0547-.9836,2.2277-.2951,2.8964.7879s2.8253,2.8262,1.3122,4.01c-2.9372-.181-2.6871-3.41-6.43-.1851C474.6134,705.8616,480.8457,703.842,483.739,702.4711Z" transform="translate(-352.5538 -630.3671)" style="fill:#d9b869"/><path d="M427.5908,706.5562c2.2906,4.6522,7.9516,1.5726,11.7259.8212,1.6229-2.0824-1.6733-3.7869-3.5578-3.2051-1.6952.2156-3.1517,2.0291-4.8291,1.735-.8528-.3044-1.1887-1.9253-2.2309-1.8635C427.731,704.2259,427.34,705.88,427.5908,706.5562Z" transform="translate(-352.5538 -630.3671)" style="fill:#d9b869"/><path d="M391.6549,720.7657c2.1159,2.35,7.8458-1.0214,3.7586-1.9882-.5786.2742-1.4722.5766-1.4827-.248-.2648-3.6592,4.8332-5.2279,5.1292-8.6516.25-3.2292-3.8392-2.4495-4.1688.247-1.4606,5.3063-3.8381,1.4556-6.384-.38-.7429-1.2034-.9669-5.4695-3.1455-3.21-1.0495,1.3958.134,2.9089,1.5477,3.4488,2.1284,1.4283,1.7245,4.0045,1.3385,6.0711C387.6441,718.1728,390.4945,719.1553,391.6549,720.7657Z" transform="translate(-352.5538 -630.3671)" style="fill:#d9b869"/></g></g></svg>