<svg id="pizza" xmlns="http://www.w3.org/2000/svg" xmlns:xlink="http://www.w3.org/1999/xlink" viewBox="0 0 934.3476 578.3202"><defs><radialGradient id="radial-gradient" cx="-1255.3566" cy="-678.3404" r="62.2382" gradientTransform="matrix(-0.0826, -0.9966, -0.6577, 0.0545, 691.395, -41.6591)" gradientUnits="userSpaceOnUse"><stop offset="0" stop-color="#a88800"/><stop offset="0.2231" stop-color="#a38201"/><stop offset="0.5084" stop-color="#957302"/><stop offset="0.8262" stop-color="#7e5804"/><stop offset="1" stop-color="#6e4706"/></radialGradient></defs><g id="green_olive_whole"><path d="M1263.6137,1239.3021c48.4259-30.7574,32.0387-139.0331-28.2756-138.5671C1173.7135,1112.055,1172.1523,1276.6714,1263.6137,1239.3021Z" transform="translate(-357.6037 -666.4897)" style="fill:url(#radial-gradient)"/><g id="Highlight_A-3" data-name="Highlight A-3" style="opacity:0.4000000059604645"><path d="M1225.8615,1229.8459c4.8749-.6967,13.44,3.1869,10.8977,9.2222-1.8909,2.27-9.2875-.97-11.68-2.0642-22.0619-7.6062-31.235-40.142-27.6414-49.5173C1196.3239,1193.6152,1207.74,1228.1382,1225.8615,1229.8459Z" transform="translate(-357.6037 -666.4897)" style="fill:#cdad3c"/><path d="M1267.9187,1120.3663c15.39,16.1087,22.3888,46.7809-3.6523,34.5124-9.6-5.7359-5.3626-16.28-15.4406-27.6606-8.3432-9.4335-18.455-10.4294-17.832-14.8262.488-3.1877,6.3492-5.1639,10.2493-5.7213C1254.0828,1105.01,1264.8213,1116.9935,1267.9187,1120.3663Z" transform="translate(-357.6037 -666.4897)" style="fill:#cdad3c"/></g><g id="Highlight_B-3" data-name="Highlight B-3" style="opacity:0.8199999928474426"><path d="M1273.2527,1136.0146c2.12,2.0561,7.146,15.1226,2.106,15.6686-.8832-2.0174.0557-6.4285-.6912-8.9271C1274.1646,1138.6639,1273.0057,1136.1524,1273.2527,1136.0146Z" transform="translate(-357.6037 -666.4897)" style="fill:#d1b375"/><path d="M1234.1987,1236.3673c-4.5445.9982-9.5345-.8322-13.1115-3.6135l.0546-.1923c.2469-.1379.5772.1636.8658.2455,3.81,2.3273,8.3,1.5215,12.2457,3.3679Z" transform="translate(-357.6037 -666.4897)" style="fill:#d1b375"/><path d="M1208.0685,1220.7476a37.8558,37.8558,0,0,0,11.0385,10.9252l-.0545.1924C1214.4459,1229.4158,1210.8659,1225.1787,1208.0685,1220.7476Z" transform="translate(-357.6037 -666.4897)" style="fill:#d1b375"/><path d="M1268.9115,1128.9631c-9.2651-10.2146-18.3662-14.0422-31.5179-17.1473l-.0417-.22c12.6618-1.3993,25.2194,6.7344,31.56,17.367Z" transform="translate(-357.6037 -666.4897)" style="fill:#d1b375"/><path d="M1269.8541,1139.9362c-.8644.4825-5.1953-1.4729-5.7884-2.6805-.51-.7682-.2772-1.2219-.5271-2.54-.487-3.0485-1.9316-4.1856-1.4792-4.681C1265.4079,1128.49,1272.3237,1138.5576,1269.8541,1139.9362Z" transform="translate(-357.6037 -666.4897)" style="fill:#d1b375"/></g></g><g id="camember_half"><path d="M528.1953,776.7872c.56-9.3865-7.88-19.6659-2.9937-28.5076a21.6478,21.6478,0,0,0,6.72-10.68c2.2977-9.563.8189-20.3251,5.2471-29.3678,3.4993-7.0261,11.2352-10.8162,14.2655-18.2666,2.6551-6.8942,10.1142-9.9541,13.3745-16.3861-26.5916,1.9127-52.5263,10.6883-79.4217,9.2131a47.4246,47.4246,0,0,0-15.5481-1.1026c-7.2068.0472-13.8733-3.4253-20.9729-4.8164-15.3919-2.4538-31.2169-2.8261-46.7471-2.6759-10.1792,1.4944-22.04-.1957-30.5845,6.232-10.2057,10.81-6.8546,41.9859-7.9684,57.3107-.0288,7.4793.6368,8.252.8335,13.0781-2.5815,4.786-5.7662,1.99-4.2741,10.3335,0,0,.7619,8.0666,2.6067,10.93,4.7727,5,6.6689,9.7859,12.3482,12.3227,9.8848,6.9384,13.9338,8.2135,25.2252,7.4694,12.4283,2.2886,25.6873,2.3864,38.3477,3.0514,24.9659.4971,22.927,3.5992,39.442,2.5489,19.0744-1.8052,37.5724-7.0742,56.8971-4.7724-2.6622-3.0908-2.64-7.1219-4.8176-10.3712C526.6634,780.1774,528.8475,779.9786,528.1953,776.7872Z" transform="translate(-357.6037 -666.4897)" style="fill:#d8d0bf"/><g id="Shadows-3"><path d="M568.058,684.835c.1989,2.1841-1.7775,2.9547-5.8173,9.0226-2.5882,3.7565-7.5949,11.9774-8.7517,14.8115-2.3245,9.9225-5.1112,20.45-7.92,30.5314-3.4253,13.8733-3.105,39.0669-7.9887,49.7444-3.2563-3.33-2.7742-9.8018-5.66-12.8813-10.4985,3.1671-9.4253-22.8126-8.3982-29.1328,1.505-7.5084,2.78-7.08,8.327-23.2979,4.6-15.4545,10.2965-29.5757,18.403-37.5935,5.5875-5.5633,5.7078-13.8979,11.9857-7.4506C565.9519,682.1194,567.828,683.8166,568.058,684.835Z" transform="translate(-357.6037 -666.4897)" style="fill:#ffd78b"/><path d="M556.9965,682.12c2.2623,1.3644,2.4947,4.2186,4.67,5.6321,1.876,1.6973,1.7309,3.2717,2.488,3.1891,1.2952-.96,6.4673-7.6671,7.6084-9.9183,0,0-1.2932-1.6816-2.488-3.1891-2.019-2.7647-1.894-2.95-2.488-3.189C561.3153,672.68,560.2615,679.3592,556.9965,682.12Z" transform="translate(-357.6037 -666.4897)" style="fill:#f4c27d"/><path d="M534.3954,790.6266c-2.93-3.9729-2.6377-5.2861-4.7014-8.9441-1.8-1.97-3.8012-3.4815-3.0911-6.2932,5.1786-10.1549,9.351,7.01,11.7475,11.0543-.6789,1.6459-1.9,4.9758-2.5792,6.6218h0Z" transform="translate(-357.6037 -666.4897)" style="fill:#f4c27d"/><path d="M529.39,778.2946c1.0318,1.829,3.0866,7.1,4.2391,9.5494.4,1.7263,2.5371,3.2761,2.267,5.0359-3.8078-.0333-3.8682-4.8214-5.3423-7.4343C529.7834,783.4691,527.7533,780.4811,529.39,778.2946Z" transform="translate(-357.6037 -666.4897)" style="fill:#e5ddca"/><path d="M567.4768,668.7442c1.6035,1.6213,4.1027,5.0337,5.9452,6.0609-.1495,2.3806.2526,5.9427-2.1749,7.5418-.8376-3.3164-4.5561-6.0408-6.7537-7.9011-.7527-.7235,1.84-5.2862,1.2548-7.1375C566.3534,667.7705,566.8224,668.1948,567.4768,668.7442Z" transform="translate(-357.6037 -666.4897)" style="fill:#e5ddca"/></g><path d="M529.39,778.2946c.853-1.7442-1.2218-5.6256-2.5017-9.7258-.9449-6.3559-3.6674-9.7571-3.2612-15.9567.4174-5.9762,7.5281-8.84,8.2447-15.1,2.6706-11.9548.12-26.2454,9.5973-35.496,6.95-5.1837,9.6249-13.4671,15.2168-19.8366,3.4592-4.2478,6.6282-5.3467,8.2628-9.3689.1495-2.3807,3.28-7.8211-2.3117-5.9292-9.3149-.0265-68.3155,12.8215-90.0566,7.8645-10.4517,1.4185-20.0929-2.4425-30.0646-4.854-22.114-2.5652-41.8294-3.728-64.2626-.1427-9.0469.8556-16.2759,4.9339-15.9628,15.6648.15,6.5747-4.4861,15.0457-4.6869,19.9813,3.56,11.1952,4.3622,16.4836,1.877,28.5635,2.8433,8.5-2.7639,24.4076,2.279,27.6479,5.657,2.09,6.4344,9.5738,12.0914,11.6639,7.3208,4.0219,9.7441,7.7067,13.7863,7.9522,3.2249.0178,12.1268.7365,13.8866,1.0067a313.93,313.93,0,0,0,32.2888,1.877c24.6934.4211,22.7908,3.5612,39.2567,2.4238,17.62-1.3294,38.39-6.8464,55.6218-5.2012A6.9864,6.9864,0,0,1,529.39,778.2946Z" transform="translate(-357.6037 -666.4897)" style="fill:#eee6cf"/><path d="M529.39,778.2946a13.1453,13.1453,0,0,1,1.0808-2.5616c.2278-.8174-.0782-1.5633.1116-2.2445.0915-.8553.6252-.9268.5158-1.3244-1.2485-.7882-3.94-.8775-4.1607-3.5083-1.0209-6.0834-3.5915-10.0295-3.2612-15.9566.183-1.7107.241-3.236,1.5251-4.42,11.8629-9.9073,5.4236-27.63,11.9175-40.1347,3.4993-7.026,11.2352-10.8162,14.2655-18.2665,2.7043-6.8071,9.1181-9.2774,13.06-15.5195-11.1217,1.452-18.3352.47-30.0888,1.819-6.47,1.3536-18.7125,3.6677-30.9129,5.0394-27.8265,3.1835-60.02-9.31-94.9838-7.3818-22.3618-.3587-6.2085,1.2062-21.1938,1.5083-13.4331.0006-17.2652,6.64-18.6135,21.7528-2.6819,7.2538-2.8671,11.6065-2.4157,19.7334.2751,10.8671-1.1587,9.9537-.3924,17.2141.7237,3.7251,2.5737,23.6928,2.9288,24.5257,12.8758,24.6549,45.8812,20.272,69.3352,22.77,27.5007,1.9375,27.9921,2.8084,37.6822,2.2788C492.5546,782.1976,513.8912,777.2791,529.39,778.2946Z" transform="translate(-357.6037 -666.4897)" style="fill:#f4d07d"/><path d="M531.0113,772.2134c2.5813-9.2638,2.7371-24.0481,3.4759-34.3391.7833-13.8754,6.31-24.2268,9.3136-35.7953,3.4033-5.3644,8.6914-15.1219,13.37-20.0576-5.9427.2526-11.9726.5543-17.9868.2732-7.3542-.2141-37.2084,6.2948-38.0593,5.397-34.1936,3.9051-64.8348-13.3682-107.1686-6.593-23.3667,1.93-15.9947-1.08-21.4788,21.7619-2.7309,11.6444-3.4991,11.5037-1.7455,24.1775-.1653-1.5142,2.4825,33.5036,4.0346,33.202,4.5717,5.458,11.8567,6.9741,17.3262,11.5811,15.0837,4.35,31.391,2.7279,46.9392,3.8306C483.4338,780.6838,491.5247,773.2489,531.0113,772.2134Z" transform="translate(-357.6037 -666.4897)" style="fill:#fce895"/><g id="Holes_copy_2" data-name="Holes copy 2"><path d="M395.1087,688.0262c1.7663-3.1781,5.9806-.3888,8.8236-.8445,1.2908-.1542,2.499-1.0654,3.6871-.5875,4.5091,3.3117-3.7808,4.0848-2.68,9.09-4.1762,1.5522-2.3718-1.762-4.585-3.0394-.7639-.9469-7.0037-3.0526-5.3177-5.1519" transform="translate(-357.6037 -666.4897)" style="fill:#d9b869"/><path d="M511.0615,714.4638c-1.05,1.3958-1.657,3.5755-3.8411,3.7744-.0043,5.2839,2.2467,1.9473,5.5074,4.4708,4.5267-4.3908,6.7736,2.0342,9.9717,2.4116,3.5842-4.4332-5.7867-5.5763-7.6694-8.3031C514.2886,716.3173,512.1937,713.825,511.0615,714.4638Z" transform="translate(-357.6037 -666.4897)" style="fill:#d9b869"/><path d="M469.6981,752.2658a8.8,8.8,0,0,0,4.6228-1.5746c.1632,4.1561-5.5271,5.8738-8.6672,3.9711-1.15-.6141-2.3718-1.762-1.0385-2.8585C465.7854,751.0287,468.4944,752.3708,469.6981,752.2658Z" transform="translate(-357.6037 -666.4897)" style="fill:#d9b869"/><path d="M471.2638,697.6487c.4667-1.4114,1.7687-1.3423,2.9189-.7282s3.8144,1.0629,3.0976,2.8451c-2.624,1.2507-4.0222-1.6346-5.6724,2.9705C465.0087,705.0813,469.3768,700.2059,471.2638,697.6487Z" transform="translate(-357.6037 -666.4897)" style="fill:#d9b869"/><path d="M424.4175,728.7846c4.3126,2.9634,7.7538-2.5373,10.5833-5.0521.3617-2.6152-3.3478-2.4743-4.7078-1.0182-1.3824,1.01-1.8044,3.3143-3.3453,3.8391-.9312.181-1.9787-1.0652-2.85-.5738C423.3254,726.6452,423.8123,728.3224,424.4175,728.7846Z" transform="translate(-357.6037 -666.4897)" style="fill:#d9b869"/><path d="M400.1273,758.7919c3.0083,1.0584,6.3021-4.7036,2.3269-3.6091-.3752.5561-1.0116,1.26-1.4047.5628-2.0793-3.0751,1.6255-6.8875.1671-10.0832-1.3111-2.9345-4.4889-.2232-3.56,2.2379,1.2978,5.3531-2.5726,3.1735-5.7707,2.7962-1.1993-.7012-3.5734-4.2989-4.2723-1.2639-.183,1.7108,1.5121,2.4767,2.9771,2.2243,2.5169.1875,3.446,2.6485,4.13,4.6741C395.2788,758.5419,398.296,757.988,400.1273,758.7919Z" transform="translate(-357.6037 -666.4897)" style="fill:#d9b869"/></g></g></svg>