<svg id="pizza" xmlns="http://www.w3.org/2000/svg" xmlns:xlink="http://www.w3.org/1999/xlink" viewBox="0 0 90.9888 91.3609"><defs><radialGradient id="radial-gradient" cx="1210.7332" cy="1810.1884" r="43.8103" gradientTransform="translate(-603.4551 -740.9368) rotate(-10.929)" gradientUnits="userSpaceOnUse"><stop offset="0" stop-color="#fe6413"/><stop offset="0.1843" stop-color="#f85b14"/><stop offset="0.4897" stop-color="#e74118"/><stop offset="0.8763" stop-color="#cb191e"/><stop offset="1" stop-color="#c10a20"/></radialGradient></defs><g id="chilli_red_a"><path d="M973.9,803.8c-9.1-33-51.4-41.1-73.5-22-6.5,4.3-14.6,31-13.9,38.8,1.1,25,32,33.8,52.1,35.3,11.4-1.1,19.3-8.7,23.5-12.7C974.2,834.6,977.9,813.1,973.9,803.8Zm-70.4,25.7c-8.8-9.3-1.7-30.1,5.7-37.9,7.4-5.8,15.5-8.4,21.6-5.5,4.1,4.5,4.9,11,3.2,16.7-4.2,6.2-13,10.9-11.7,18.6-.1,3.8,4,14.5,2,16.5-7,2.9-16.3-3.2-20.8-8.4Zm56.5-6.1c-2.5,4.2-16.5,19.5-22.6,16.1-8.7-8.8-6.7-21.4,1.4-29.3,3.5-3.4,5.5-10,6.5-14,.5-3.6.6-4.8,3.6-5.5,8.9,2.1,17.3,19.4,11.1,32.7Z" transform="translate(-884.4576 -764.5391)" style="fill:#89091e"/><path d="M971.9,796.7c-9.1-33-51.4-41.1-73.5-22-6.5,4.3-14.6,31-13.9,38.8,1.1,25,32,33.8,52.1,35.3,11.4-1.1,19.3-8.7,23.5-12.7C972.2,827.5,975.9,806,971.9,796.7Zm-70.3,25.7c-8.8-9.3-1.7-30.1,5.7-37.9,9.8-7.8,24.5-11.2,25.2,3,1,5.5.5,8.5-4.6,13.1-10.7,8.7-6.5,11.9-6.8,22.7-.3,3.1-.4,4.6-1,5.3-5.8,3.5-14.9-1-18.5-6.2Zm56.5-6c-3.8,6.5-16.1,17.2-23.8,18.5-3.9-2.7-5.1-14.1-5-16.2.1-5.9,11.1-19.3,11.9-22.7,1.9-6.7-.9-10.5,1.7-12.5a3.0443,3.0443,0,0,1,4.1.2c8.1,4.8,17.9,18,11.1,32.7Z" transform="translate(-884.4576 -764.5391)" style="fill:url(#radial-gradient)"/><path d="M932.9,796.4a7.358,7.358,0,0,1-8.6.1c-2-.7-6.1-2.1-8.1-2.8v-.6c5.4-1.1,14.2-4,16.9,2.7Z" transform="translate(-884.4576 -764.5391)" style="fill:#ff8902"/><path d="M924.2,805.8c-1.7,1.8-4.4,2.2-5.8-.1a17.33,17.33,0,0,1-3.7-4.4l.3-.5a51.3562,51.3562,0,0,1,5.5.6C923,800.7,924.8,803.5,924.2,805.8Z" transform="translate(-884.4576 -764.5391)" style="fill:#ff8902"/><path d="M921.8,817.7c-4.2,4.3-9.3-.5-14-1.6v-.6c4.5-1.3,11.9-4.5,14.1,1.6Z" transform="translate(-884.4576 -764.5391)" style="fill:#ff8902"/><path d="M922.3,825.4a4.0163,4.0163,0,0,1-5.8-.2,38.1626,38.1626,0,0,1-4.7-3.5l.2-.5a37.5006,37.5006,0,0,1,5.8.2c2.4-.4,4.2,1.2,4.7,3.5Z" transform="translate(-884.4576 -764.5391)" style="fill:#ff8902"/><path d="M941.3,793.1c1.4-6,9.3-2.2,11.2,1.6l-.3.4c-3.6-1.8-7.4,1.3-10.7-1.5Z" transform="translate(-884.4576 -764.5391)" style="fill:#ff8902"/><path d="M930,812.7c1.5-1.3,3.6-1.8,4.9,0,1.3.9,2.7,1.9,3.9,2.9l-.1.5c-2,.5-4.3.3-6.3.4C930.7,816.5,929.5,814.1,930,812.7Z" transform="translate(-884.4576 -764.5391)" style="fill:#ff8902"/><path d="M937.5,801.1c5.2-4.8,10,2.7,12.4,6.8l-.4.5c-2.8-.6-5.9-1.8-8.7-1.9C938.6,806.2,937,803,937.5,801.1Z" transform="translate(-884.4576 -764.5391)" style="fill:#ff8902"/><path d="M930.3,827.7c1.1-7.3,9.4-6,14.5-9.1l.6.6c-2.5,5.4-8.2,14.9-14.8,9.3Z" transform="translate(-884.4576 -764.5391)" style="fill:#ff8902"/></g></svg>