<svg id="pizza" xmlns="http://www.w3.org/2000/svg" xmlns:xlink="http://www.w3.org/1999/xlink" viewBox="0 0 90.9888 91.3609"><defs><radialGradient id="radial-gradient" cx="1443.7136" cy="1816.3187" r="43.8616" gradientTransform="translate(-603.4551 -740.9368) rotate(-10.929)" gradientUnits="userSpaceOnUse"><stop offset="0" stop-color="#f7d050"/><stop offset="0.1991" stop-color="#f8ca47"/><stop offset="0.5238" stop-color="#f9bb2f"/><stop offset="0.9315" stop-color="#fca207"/><stop offset="1" stop-color="#fc9d00"/></radialGradient></defs><g id="chilli_yellow_a"><path d="M1203.8,765.5c-9.1-33-51.4-41.1-73.5-22-6.5,4.3-14.6,31-13.9,38.8,1.1,25,32,33.8,52.1,35.3,11.4-1.1,19.3-8.7,23.5-12.7C1204.1,796.3,1207.8,774.8,1203.8,765.5Zm-70.4,25.7c-8.8-9.3-1.7-30.1,5.7-37.9,7.4-5.8,15.5-8.4,21.6-5.5,4.1,4.5,4.9,11,3.2,16.7-4.2,6.2-13,10.9-11.7,18.6-.1,3.8,4,14.5,2,16.5-7,2.9-16.3-3.2-20.8-8.4Zm56.5-6.1c-2.5,4.2-16.5,19.5-22.6,16.1-8.7-8.8-6.7-21.4,1.4-29.3,3.5-3.4,5.5-10,6.5-14,.5-3.6.6-4.8,3.6-5.5,9,2.1,17.3,19.4,11.1,32.7Z" transform="translate(-1114.3576 -726.2391)" style="fill:#d85632"/><path d="M1201.8,758.4c-9.1-33-51.4-41.1-73.5-22-6.5,4.3-14.6,31-13.9,38.8,1.1,25,32,33.8,52.1,35.3,11.4-1.1,19.3-8.7,23.5-12.7C1202.1,789.2,1205.8,767.8,1201.8,758.4Zm-70.3,25.7c-8.8-9.3-1.7-30.1,5.7-37.9,9.8-7.8,24.5-11.2,25.2,3,1,5.5.5,8.5-4.6,13.1-10.7,8.7-6.5,11.9-6.8,22.7-.3,3.1-.4,4.6-1,5.3-5.8,3.5-14.9-1-18.5-6.2Zm56.5-6c-3.8,6.5-16.1,17.2-23.8,18.5-3.9-2.7-5.1-14.1-5-16.2.1-5.9,11.1-19.3,11.9-22.7,1.9-6.7-.9-10.5,1.7-12.5a3.0441,3.0441,0,0,1,4.1.2c8.1,4.8,17.9,18.1,11.1,32.7Z" transform="translate(-1114.3576 -726.2391)" style="fill:url(#radial-gradient)"/><path d="M1162.8,758.1a7.3579,7.3579,0,0,1-8.6.1c-2-.7-6.1-2.1-8.1-2.8v-.6c5.4-1.1,14.2-4,16.9,2.7Z" transform="translate(-1114.3576 -726.2391)" style="fill:#ff8902"/><path d="M1154.1,767.5c-1.7,1.8-4.4,2.2-5.8-.1a17.3278,17.3278,0,0,1-3.7-4.4l.3-.5a51.3534,51.3534,0,0,1,5.5.6C1152.9,762.4,1154.7,765.2,1154.1,767.5Z" transform="translate(-1114.3576 -726.2391)" style="fill:#ff8902"/><path d="M1151.7,779.4c-4.2,4.3-9.3-.5-14-1.6v-.6c4.5-1.3,11.9-4.5,14.1,1.6Z" transform="translate(-1114.3576 -726.2391)" style="fill:#ff8902"/><path d="M1152.2,787.1a4.0164,4.0164,0,0,1-5.8-.2,38.1617,38.1617,0,0,1-4.7-3.5l.2-.5a37.5023,37.5023,0,0,1,5.8.2c2.4-.4,4.2,1.2,4.7,3.5Z" transform="translate(-1114.3576 -726.2391)" style="fill:#ff8902"/><path d="M1171.2,754.8c1.4-6,9.3-2.2,11.2,1.6l-.3.4c-3.6-1.8-7.4,1.3-10.7-1.5Z" transform="translate(-1114.3576 -726.2391)" style="fill:#ff8902"/><path d="M1159.9,774.4c1.5-1.3,3.6-1.8,4.9,0,1.3.9,2.7,1.9,3.9,2.9l-.1.5c-2,.5-4.3.3-6.3.4C1160.6,778.2,1159.4,775.8,1159.9,774.4Z" transform="translate(-1114.3576 -726.2391)" style="fill:#ff8902"/><path d="M1167.4,762.8c5.2-4.8,10,2.7,12.4,6.8l-.4.5c-2.8-.6-5.9-1.8-8.7-1.9C1168.5,767.9,1166.9,764.7,1167.4,762.8Z" transform="translate(-1114.3576 -726.2391)" style="fill:#ff8902"/><path d="M1160.3,789.4c1.1-7.3,9.4-6,14.5-9.1l.6.6c-2.5,5.4-8.2,14.9-14.8,9.3Z" transform="translate(-1114.3576 -726.2391)" style="fill:#ff8902"/></g></svg>