<svg id="Pizza" xmlns="http://www.w3.org/2000/svg" xmlns:xlink="http://www.w3.org/1999/xlink" viewBox="0 0 236.5045 235.625"><defs><radialGradient id="radial-gradient" cx="111.5022" cy="111.5248" r="110.0135" gradientUnits="userSpaceOnUse"><stop offset="0.0241" stop-color="#e3eecf"/><stop offset="0.2881" stop-color="#e1edcc"/><stop offset="0.4583" stop-color="#d9e8c4"/><stop offset="0.6019" stop-color="#cbe1b5"/><stop offset="0.7309" stop-color="#b9d7a0"/><stop offset="0.8499" stop-color="#a0c985"/><stop offset="0.9601" stop-color="#83b964"/><stop offset="1" stop-color="#76b256"/></radialGradient><radialGradient id="radial-gradient-2" cx="126.1707" cy="48.2747" r="29.8523" gradientTransform="matrix(-1.062, 0.223, -0.2244, -1.0551, 289.8713, 151.7289)" gradientUnits="userSpaceOnUse"><stop offset="0" stop-color="#aec785"/><stop offset="0.3207" stop-color="#b1c989"/><stop offset="0.6529" stop-color="#b9d096"/><stop offset="0.9894" stop-color="#c7dbaa"/><stop offset="1" stop-color="#c8dbab"/></radialGradient><radialGradient id="radial-gradient-3" cx="188.1296" cy="52.5173" r="30.2947" xlink:href="#radial-gradient-2"/><radialGradient id="radial-gradient-4" cx="151.2356" cy="105.0478" r="32.8921" xlink:href="#radial-gradient-2"/></defs><g id="Ingreds"><g id="Cucumber"><g id="Layer_1_456_copy" data-name="Layer 1 456 copy"><path d="M236.5,123.7686a53.942,53.942,0,0,0-2.0281-16.3531c-2.5663-8.6314-5.2508-8.34-10.14-18.3972-5.3178-10.9383-3.6129-14.3085-10.61-29.4461a70.8207,70.8207,0,0,0-3.9107-7.8057c-2.7451-4.5349-5.2162-9.4578-9.6424-14.46a59.097,59.097,0,0,0-10.2726-9.0951c-9.3075-6.7445-21.9275-12.6329-23.3918-10.5862-1.04,1.453,4.5223,5.5366,6.1127,9.0475C184.6556,53.2468,4.6014,138.9867,21.53,184.07c4.6536,12.3933,21.179,20.7213,54.23,37.3773,27.7961,14.0081,41.2076,14.3652,47.5416,14.14,10.678-.379,20.1113-3.1537,30.3954-6.2847,11.9752-3.6457,19.7264-6.0056,28.6373-11.7862,7.9631-5.1659,13.4286-11.56,24.36-24.35,10.1752-11.9046,16.2034-19.0784,21.0788-30.7018a116.2026,116.2026,0,0,0,5.42-18.0029C235.1841,136.3375,236.447,131.0424,236.5,123.7686Z" style="fill:#27623e"/><path d="M221.3272,111.6023c-1.1193-13.6526-7.0717-15.4883-13.8348-33.05-7.71-20.02-2.5564-24.3382-10.7605-36.8929-6.21-9.5028-14.1692-14.6907-20.3145-18.696-9.5895-6.25-17.6861-8.78-33.4877-13.5853-15.558-4.7308-23.3369-7.0963-31.5127-7.686a97.2652,97.2652,0,0,0-43.81,7.686c-8.8,3.7344-20.1584,8.5543-29.2069,19.9837-5.0828,6.42-3.5719,7.5179-10.76,21.5208C15.9831,73.5888,9.5,75.5942,4.5812,92.3873a60.7348,60.7348,0,0,0-3.0744,19.215c.1059,6.6279,1.5511,9.5147,3.0744,22.2895.8979,7.5294.6737,8.6581,1.189,12.7683a88.9905,88.9905,0,0,0,9.5715,28.7363C23.0234,189.1107,36.86,195.3,64.5323,207.6777c21.3959,9.57,32.39,14.3452,46.8847,13.8348,10.5306-.3708,19.8336-3.0855,29.9755-6.1488,11.81-3.5672,19.454-5.876,28.2417-11.5318,7.8532-5.0545,13.2432-11.3109,24.0233-23.8239,10.0346-11.6476,15.98-18.6666,20.7876-30.0389a89.2557,89.2557,0,0,0,5.3449-17.6145C220.3633,129.3941,222.0506,120.4244,221.3272,111.6023Z" style="stroke:#27623e;stroke-miterlimit:10;stroke-width:3px;fill:url(#radial-gradient)"/><path d="M148.39,213.4618c.2329-.0111.58-.036.9952-.0979a13.5684,13.5684,0,0,0,3.8827-1.3873c2.1275-.8916,4.6717-1.1216,4.976-.49s-1.038,1.8134-.7991,2.0885c.4655.5358,5.2012-3.189,5.775-2.5785.3478.37-.7611,2.4179-2.4819,3.8817-1.7228,1.4654-3.4993,1.8694-3.4073,2.5279.0874.6249,1.7358.6089,1.8319,1.2824.1218.8535-2.4421,1.472-2.4181,2.6744a1.4281,1.4281,0,0,0,.8425,1.1358c1.223.5652,2.4708-1.1369,5.3857-2.2348,1.6829-.6338,3.9046-1.06,4.115-.605.2453.5308-2.183,2.3941-4.682,3.4758a13.527,13.527,0,0,1-5.1118,1.3424c-2.0937.0836-3.4525-.4328-4.1034.4029-.5259.6753-.3453,1.92-1.15,2.25a1.0149,1.0149,0,0,1-.2874.0686c-2.4751.2743-9.9063,1.3508-9.9518.98-.0479-.3893,8.2069-1.0793,8.2754-2.7491.048-1.1683-3.9323-2.2933-3.79-2.717.1358-.4033,3.7107.7159,4.2293-.2507.3238-.6036-.8084-1.5287-.4446-2.1317.4327-.7173,2.2743.194,2.8627-.5427.6331-.7925-.4348-3.178-1.5387-3.2608-.71-.0532-.8716.8888-2.2715,1.6853-1.3959.7942-3.0581.8946-3.2293.52-.1538-.3368.975-.84,1.7944-2.1864A5.3923,5.3923,0,0,0,148.39,213.4618Z" style="fill:#30784c"/><path d="M141.5044,215.625c.1033.235-2.0861.9713-2,2,.0394.4686.6929.9791,2,2,.6935.5416,1.0523.7631,1,1-.1047.4756-1.6977.2509-2,1-.1583.3923.2122.7725,0,1-.1784.1914-.5123.01-1,0a2.3923,2.3923,0,0,0-2,1c-.3945.6256-.4576,1.6289,0,2,.5916.48,1.741-.35,2,0,.2048.2764-.4962.8171-1,2-.6677,1.5676-.3458,2.7518-1,3-.3442.1305-.5369-.1581-1,0-.6718.2293-.8693,1.0429-1,1-.2172-.0713.7652-2.182,0-3a1.5233,1.5233,0,0,0-2,0c-.2061.3159.1791.6095,0,1-.3063.668-1.6685.3208-2,1-.1875.3843.1735.65,0,1-.3731.7537-2.6627.7752-3,0-.2871-.66.86-1.8538,1-2,.5621-.5852.8722-.59,1-1a1.9791,1.9791,0,0,0-1-2c-1.2564-.7457-2.8367.3163-3,0-.1621-.3141,1.1829-1.7744,3-2,.7337-.0911,1.1464.5261,3,1,.44.1123.759.1746,1,0,.4537-.3284.4327-1.3525,0-2-.2575-.3855-.6223-.58-2-1-2.1761-.6639-2.97-.6991-3-1-.0356-.3534,1.0025-.87,2-1,1.1211-.1462,1.48.2882,2,0,1.0514-.5828.7-2.9823,1-3,.2315-.0137.1543,1.2785,1,2,.8711.7433,2.5069.6979,3,0,.3987-.5642-.2458-1.1349,0-2C137.9963,215.8948,141.38,215.3427,141.5044,215.625Z" style="fill:#30784c"/><path d="M195.6026,181.4345a5.9825,5.9825,0,0,1-.5386.8426c-1.1789,1.5421-2.6334,1.8607-2.56,2.3479.08.5292,1.8276.3583,2,1,.1672.6215-1.2691,1.5352-2,2-1.7237,1.0966-3.1813,1.4686-3.13,1.6967.06.2658,2.0493-.1961,2.2239.2347.2666.6578-5.2006,3.19-4.9167,3.9783.1722.4778,2.5.4178,4.5851-.4523,2.0873-.8711,3.2528-2.2714,3.7981-1.8909.5174.3614-.2444,1.8233.3124,2.2143.84.59,3.1095-1.3551,3.48-.9427.2344.2609-.3109,1.4855-1.3527,2.1619-1.333.8655-2.706.3313-3,1-.2178.4957.5131.8435.5492,1.8911.04,1.1455-.8034,1.6227-.5492,2.1089.3008.5751,1.8908.6915,3,0,.9107-.5677.7864-1.2367,2-3,.8989-1.306,1.0318-1.0332,1.8792-2.26,1.4521-2.1028,1.2748-3.292,2.22-3.4748.84-.1625,1.868.5628,2.5269-.0052a1.0114,1.0114,0,0,0,.1914-.2251c1.3667-2.0817,5.6954-8.2171,5.3857-8.4257-.3252-.2191-4.683,6.8256-6.2023,6.1295-1.063-.4869-.2611-4.5445-.7035-4.6095-.421-.0619-1.0444,3.6319-2.1409,3.6559-.6849.0149-.9961-1.4136-1.6985-1.3628-.8355.0606-.8583,2.115-1.7817,2.3054-.9934.2051-2.6353-1.8283-2.2087-2.85.2745-.657,1.1874-.3738,2.5321-1.2605,1.3407-.884,2.1837-2.32,1.9275-2.6425-.23-.29-1.1907.4882-2.7623.608A5.3922,5.3922,0,0,1,195.6026,181.4345Z" style="fill:#30784c"/><path d="M198.7555,176.3077c.1626.1987,1.8116-1.419,2.6894-.8758.4.2476.5586,1.0615.8758,2.6894.1684.8637.2032,1.2839.438,1.3448.4713.1223.9933-1.4,1.7981-1.3293.4214.0368.5923.5394.8913.4534.2515-.0722.2415-.4519.4534-.8913A2.3926,2.3926,0,0,1,207.7,176.37c.7365-.068,1.6593.3307,1.7826.9069.1593.7447-1.101,1.3932-.9068,1.7826.1535.3077.9533-.0718,2.2361.0155,1.7.1156,2.6095.9394,3.1273.4689.2723-.2477.1025-.55.4533-.8914.509-.4949,1.3238-.302,1.3448-.4379.0349-.2259-2.2918-.3073-2.674-1.36a1.5234,1.5234,0,0,1,.9068-1.7826c.3751-.0405.4621.4359.8913.4534.7343.03,1.0425-1.3418,1.7981-1.3292.4275.007.5.4492.8914.4533.8409.0092,1.898-2.0218,1.36-2.6738-.458-.5552-2.042-.0743-2.236-.0155-.7765.2356-.9215.51-1.3447.4379a1.9791,1.9791,0,0,1-1.3292-1.7981c-.095-1.458,1.5681-2.385,1.36-2.674-.2066-.2868-2.1179.25-3.1428,1.7672-.4138.6126-.0508,1.26-.4689,3.1274-.0991.4426-.1885.7554-.4534.8912-.4984.2555-1.4017-.2275-1.7827-.9067-.2268-.4043-.2345-.8176.0155-2.236.3949-2.2407.7233-2.9639.4689-3.1273-.2988-.192-1.23.499-1.7981,1.3292-.6387.9329-.4142,1.45-.9067,1.7826-.9961.6728-2.9758-.7282-3.1274-.4689-.1172.2,1.07.7172,1.3293,1.7981.2674,1.1134-.5147,2.5508-1.36,2.674-.6836.0994-.9-.7338-1.7826-.9069C200.5866,173.3032,198.56,176.0692,198.7555,176.3077Z" style="fill:#30784c"/><path d="M224.1253,141.9434c1.1857-.8358,1.3466-1.2422,1.8855-1.2019.4513.0337,1.04.6158,2.1965,1.7819.6383.6437.7754.8643,1.0983.8909.9965.082,2.1-1.8188,1.782-2.1965-.256-.3039-1.2294.62-1.9893.2074a2.0913,2.0913,0,0,1-.3109-2.9839,1.9258,1.9258,0,0,1,1.9893-.2073c.6972.3139.7209.8672,1.0982.8909.9785.0616,2.3761-3.5615,1.5746-4.1857-.5062-.3943-1.6544.5912-1.9892.2073-.2863-.3283.2439-1.4036.7873-2.0929.522-.6621.9569-.8427.891-1.0983-.1221-.4731-1.67-.0816-2.0929-.7873a1.7853,1.7853,0,0,1,.7872-2.0928c.83-.48,1.8239.1086,1.9893-.2074.1633-.312-.8829-.7384-1.2019-1.8855-.2462-.8855.1918-1.2982-.2073-1.9892a2.7493,2.7493,0,0,0-1.0983-.891c-.1323-.08-1.8339-1.1036-2.0928-.7873-.2419.2953,1.1781,1.2283,1.3055,2.88a2.4511,2.4511,0,0,1-.7874,2.0929,1.7462,1.7462,0,0,1-1.9891.2072c-.65-.6036.406-1.8979-.311-2.9837a1.8852,1.8852,0,0,0-2.0929-.7874,1.38,1.38,0,0,0-.8909,1.0983c-.0353.7068.7926.8446,1.2019,1.8856.3688.9377-.1424,1.2345.2073,1.9891.5563,1.2,2.1542,1.1072,2.1965,1.782.0332.53-.9595,1.1821-1.8856,1.2019-.8279.0178-1.0422-.4818-2.0928-.7873-1.3864-.403-2.9109-.0846-2.9839.311-.0719.3892,1.325.5067,2.1966,1.7819.7046,1.031.8725,2.5355.3109,2.9838-.4827.3854-1.121-.2354-1.9892.2073-.0433.0221-.8319.4372-.8909,1.0983-.0674.7532.89.9553,1.2019,1.8856.4646,1.3844-1.0512,2.7356-.6838,3.0874C221.6724,143.6581,223.96,142.06,224.1253,141.9434Z" style="fill:#30784c"/><path d="M220.3122,134.2974c-.5208.2361-1.0151.8035-.8909,1.0983.24.57,2.8664.296,2.9838-.311.0607-.314-.54-.7673-1.0983-.8909A1.6027,1.6027,0,0,0,220.3122,134.2974Z" style="fill:#30784c"/><path d="M225.3272,143.829c-.5035.1167-.1465,2.9762-.6837,3.0874-.2894.06-.4548-.7574-1.0982-.8909-.8111-.1683-1.65.9021-1.8856,1.2019a3.8824,3.8824,0,0,0-.7873,2.0929c-.0525.4841-.0947.8722.1036.9946.3514.2169,1.2934-.5027,1.8856-1.2019.5683-.6708.5218-.9771.891-1.0983.6071-.1992.9456.5591,2.0929.7873a3.861,3.861,0,0,0,1.9892-.2073c.7053-.2181,1.9512-.7673,1.8856-1.2019-.0573-.3784-1.0345-.1777-2.0929-.7873C226.0081,145.6729,225.7425,143.7327,225.3272,143.829Z" style="fill:#30784c"/><path d="M221.5044,89.625c-.389,1.2617-2.0377,1.4436-2,2,.0247.364.7436.4782,2,1,1.6574.6884,2.8771,1.195,3,2a2.096,2.096,0,0,1-2,2c-.8878-.1252-.8007-1.4534-2-2-1.2327-.5619-2.022.5238-3,0-1.2861-.6891-.4545-2.8535-2-4-.8763-.65-1.9759-.5716-2-1-.0218-.3883.9443-.5024,1-1,.0727-.6471-1.5059-.8592-2-2-.5263-1.2153.3866-3.0038,1-3,.8.0049,1.2072,3.06,2,3,.342-.026.3462-.6,1-1,.7322-.4475,1.81-.3885,2,0,.267.5449-1.233,1.691-1,2,.1515.2009.8484-.2009,1,0,.2331.309-1.2669,1.4551-1,2,.1949.3975,1.27.3524,2,0a1.7873,1.7873,0,0,0,1-1c.1491-.52-.1419-.9133,0-1,.1719-.1048.7935.353,1,1A1.72,1.72,0,0,1,221.5044,89.625Z" style="fill:#30784c"/><path d="M212.5044,79.625c.3609-.1455.5593.165,1,0,.6133-.23.6077-.9725,1-1,.277-.0194.3335.3471,1,1,.6147.6022.8936.6107,1,1,.1281.4686-.1923.7628,0,1a.7957.7957,0,0,0,1,0c.5564-.4728.0569-1.848,0-2-.3922-1.0483-.9842-1.1811-1-2-.0094-.49.1956-.8252,0-1-.205-.1833-.5083.1156-1,0a1.533,1.533,0,0,1-1-1c-.06-.1731-.2519-.7226,0-1,.4384-.4825,1.8078.3118,2,0,.1745-.283-.9769-.8992-1-2-.01-.4809.2-.8146,0-1-.1543-.1428-.3863-.0439-1,0a7.9872,7.9872,0,0,1-1,0c-1.1445-.082-1.9-1.1025-2-1-.11.1121.901.8677,1,2,.0743.8484-.3626,1.9175-1,2-.5776.0748-1.2266-.6727-1.3708-1.39-.122-.6067.1652-.953.3708-1.61.6366-2.033-.6481-3.3973,0-4,.6733-.626,2.2187.6974,3,0a1.5119,1.5119,0,0,0,0-2c-.2836-.1672-.5356.1478-1,0-.557-.1774-.482-.7222-1-1-.7629-.4092-1.6882.3641-2,0-.2349-.2745.2052-.814,0-1-.2528-.2292-1.2551.2861-2,1-.6209.5951-.62.9033-1,1-.87.2211-1.7886-1.1588-2-1-.2038.1533.8562,1.2836,1,3,.0907,1.0824-.223,1.9193,0,2,.05.0181.1615.0108,1-1,.6479-.7808.7562-.9871,1-1,.4469-.0237.8428.6287,1,1a2.9154,2.9154,0,0,1,0,2c-.3736,1.2236-1.0231,1.28-1,2,.0307.9535,1.1852,1.3058,1,2,0,0-.041.1539-1,1a9.6,9.6,0,0,0,1,2c.2845.4177.8171,1.092,1,1,.2095-.1053-.3981-1.0394,0-2a1.839,1.839,0,0,1,1-1c.1408-.0517.698-.2567,1,0s.0839.75,0,2c-.0815,1.2153.2914,1.49,0,2-.3394.595-.9471.5629-1,1-.0584.4832.6125,1.1105,1,1C212.0508,81.4692,211.76,79.9252,212.5044,79.625Z" style="fill:#30784c"/></g><g id="Layer_1_458" data-name="Layer 1 458"><path d="M167.7157,152.546a22.9547,22.9547,0,0,1-9.5208,5.5424c-28.4149,10.0368-32.0094,8.9917-34.1412,7.1684-.9407-.8046-1.5548-2.1154-2.7894-4.7293-1.839-3.8937-3.9928-9.9855-4.3292-20.3512-.3415-10.5214-.5124-15.7822,2.4989-21.7849,2.1135-4.2131,5.8081-7.2761,13.1989-13.4014,15.6584-12.9773,22.6478-12.7345,24.1627-12.16.1194.0453,2.4917.96,5.6965,2.2574.0536.0216.1346.0543.1463.0592,4.5963,1.869,9.45,19.2757,9.45,19.276,4.0826,14.64,6.34,16.8552,4.69,22.0471a52.1393,52.1393,0,0,1-3.6781,7.859C171.1777,147.9046,169.8724,150.3319,167.7157,152.546Z" style="fill:url(#radial-gradient-2)"/><path d="M50.9845,148.7085c-.9893-4.6793-.1358-5.7348.1672-15.98.2636-8.9131-.333-9.7792.5279-14.2843.99-5.18,1.7992-9.4144,5.2164-11.8964,3.63-2.6363,8.1785-1.826,13.4644-.8843,4.8135.8574,9.8066,3.3457,19.596,8.2873,8.2847,4.1819,10.4186,5.6518,12.3722,8.2819,1.9429,2.6157,2.6238,4.9662,3.9065,9.56a63.67,63.67,0,0,1,2.6222,20.71c-.3777,9.3785-.5665,14.0677-3.5812,16.6971-.982.8565-2.1085,1.4481-22.1989,1.8845a62.5919,62.5919,0,0,1-9.6105-.5207c-7.7112-1.0123-9.77-2.7516-10.3534-3.28-1.14-1.0333-1.0434-1.4256-3.7606-4.3861-1.9831-2.1607-3.01-3.014-3.8347-3.8851C52.4861,155.81,51.6376,151.7969,50.9845,148.7085Z" style="fill:url(#radial-gradient-3)"/><path d="M110.9849,46.0312a49.0733,49.0733,0,0,1,10.0236,4.5848c11.2545,6.3673,16.9667,9.6633,21.1187,15.1752,2.1492,2.8529,5.1571,6.9639,4.2325,11.5131a11.52,11.52,0,0,1-4.0389,6.1631c-14.5321,13.2369-21.7982,19.8552-31.8975,21.4454a38.7747,38.7747,0,0,1-9.8649.3154c-4.8566-.5032-6.0918-1.6267-21.3987-8.4992-6.1071-2.7418-8.5285-3.7385-10.3392-6.6875a14.1038,14.1038,0,0,1-1.8038-8.48c.454-5.8384,3.8047-6.8574,9.997-17.2762,3.94-6.6286,3.8734-8.3866,7.1439-11.1263a57.6929,57.6929,0,0,1,8.37-5.312,33.7723,33.7723,0,0,1,5.9107-3.0016C102.9617,43.5554,107.0574,44.7921,110.9849,46.0312Z" style="fill:url(#radial-gradient-4)"/></g><g id="Layer_1_460" data-name="Layer 1 460"><path d="M157.7625,134.8818a23.4,23.4,0,0,1-8.2456.7842,32.7253,32.7253,0,0,1-15.4469-5.2145,23.55,23.55,0,0,1-6.092-5.6088,70.9013,70.9013,0,0,1,7.789,2.0625c2.4741.7761,4.8883,1.5763,7.2968,2.3955,2.41.8154,4.8116,1.649,7.2485,2.5289A76.0893,76.0893,0,0,1,157.7625,134.8818Z" style="fill:#ecf5db"/><path d="M155.2687,142.3613a19.3657,19.3657,0,0,1-5.9848,3.23,27.7661,27.7661,0,0,1-6.4843,1.38,27.2867,27.2867,0,0,1-6.628-.1806,19.0713,19.0713,0,0,1-6.4689-2.1113,33.3556,33.3556,0,0,1,6.4088-1.82c2.0918-.3977,4.1583-.68,6.2346-.8661,2.0766-.1843,4.16-.2843,6.2909-.2669A33.4523,33.4523,0,0,1,155.2687,142.3613Z" style="fill:#ecf5db"/><path d="M160.4961,128.3331a18.9076,18.9076,0,0,1-6.88-1.6858,26.6822,26.6822,0,0,1-5.9409-3.6285,26.4077,26.4077,0,0,1-4.8058-5.0362,18.7682,18.7682,0,0,1-3.0952-6.3735,43.0334,43.0334,0,0,1,5.8744,3.5927c1.7913,1.2721,3.499,2.5734,5.1659,3.9274,1.6708,1.3492,3.3044,2.7429,4.9258,4.2259A43.8948,43.8948,0,0,1,160.4961,128.3331Z" style="fill:#ecf5db"/><path d="M163.1141,120.4412a9.3428,9.3428,0,0,1-3.6972-1.7641,12.608,12.608,0,0,1-2.7829-2.9557,12.4425,12.4425,0,0,1-1.7157-3.68,9.2554,9.2554,0,0,1-.2577-4.09,34.5516,34.5516,0,0,1,2.3979,3.0987l2.0587,2.99,2.01,3.0243A35.3427,35.3427,0,0,1,163.1141,120.4412Z" style="fill:#ecf5db"/><path d="M101.91,61.7534a23.4065,23.4065,0,0,1,6.385,5.2761,32.7266,32.7266,0,0,1,7.2355,14.61,23.5538,23.5538,0,0,1,.3415,8.2737,70.9624,70.9624,0,0,1-4.0493-6.9659c-1.2005-2.2984-2.3419-4.5713-3.4657-6.8537-1.1273-2.2805-2.2362-4.5682-3.3371-6.9137A76.0113,76.0113,0,0,1,101.91,61.7534Z" style="fill:#ecf5db"/><path d="M108.9617,58.2282a19.3675,19.3675,0,0,1,6.5163,1.9476,27.7673,27.7673,0,0,1,5.5612,3.6089,27.291,27.291,0,0,1,4.559,4.8146,19.0765,19.0765,0,0,1,3.0813,6.0668,33.3418,33.3418,0,0,1-5.8186-3.2448c-1.76-1.1979-3.4212-2.46-5.021-3.796-1.5986-1.3381-3.1428-2.7409-4.637-4.26A33.4607,33.4607,0,0,1,108.9617,58.2282Z" style="fill:#ecf5db"/><path d="M95.3459,64.4512a18.91,18.91,0,0,1,3.6726,6.0565,26.6859,26.6859,0,0,1,1.6351,6.7667,26.4167,26.4167,0,0,1-.1629,6.9594,18.7663,18.7663,0,0,1-2.3182,6.6954,43.0544,43.0544,0,0,1-1.6134-6.6943c-.3672-2.1662-.6545-4.2937-.8757-6.43-.2274-2.1357-.3971-4.2763-.4949-6.4714A43.9016,43.9016,0,0,1,95.3459,64.4512Z" style="fill:#ecf5db"/><path d="M87.9145,68.1806a9.3435,9.3435,0,0,1,1.3668,3.8615A12.6116,12.6116,0,0,1,89.1591,76.1,12.442,12.442,0,0,1,87.77,79.9152,9.2587,9.2587,0,0,1,85.06,82.99a34.5665,34.5665,0,0,1,.4956-3.8868l.6585-3.57.7174-3.56A35.3011,35.3011,0,0,1,87.9145,68.1806Z" style="fill:#ecf5db"/><path d="M68.3593,147.6531a76.0778,76.0778,0,0,1,6.8684-4.2011c2.2654-1.2572,4.5036-2.4631,6.7525-3.6522,2.247-1.1927,4.5029-2.3675,6.8215-3.5283a70.9031,70.9031,0,0,1,7.3606-3.2778,23.5552,23.5552,0,0,1-5.12,6.5083,32.7286,32.7286,0,0,1-14.4179,7.6106A23.4071,23.4071,0,0,1,68.3593,147.6531Z" style="fill:#ecf5db"/><path d="M72.0137,154.6393a33.4563,33.4563,0,0,1,6.4459-1.6831c2.1005-.3569,4.1736-.59,6.253-.7395,2.0794-.1474,4.1645-.1981,6.2928-.1389a33.36,33.36,0,0,1,6.6171.7747,19.0726,19.0726,0,0,1-6.0494,3.1155,27.2893,27.2893,0,0,1-6.5146,1.2351,27.7637,27.7637,0,0,1-6.6214-.3289A19.3713,19.3713,0,0,1,72.0137,154.6393Z" style="fill:#ecf5db"/><path d="M64.6165,141.6239a43.89,43.89,0,0,1,3.901-5.6725c1.3641-1.7225,2.7546-3.3589,4.189-4.9573,1.43-1.6024,2.9081-3.1593,4.4736-4.7006a43.0378,43.0378,0,0,1,5.2264-4.4834,18.7656,18.7656,0,0,1-2.0394,6.7854,26.4083,26.4083,0,0,1-3.9413,5.7381,26.6814,26.6814,0,0,1-5.2865,4.5293A18.91,18.91,0,0,1,64.6165,141.6239Z" style="fill:#ecf5db"/><path d="M60.774,134.25A35.2821,35.2821,0,0,1,62.1971,130.6l1.5019-3.3062,1.5557-3.28a34.5343,34.5343,0,0,1,1.8732-3.4415,9.2582,9.2582,0,0,1,.3978,4.0792,12.446,12.446,0,0,1-1.1071,3.9064,12.609,12.609,0,0,1-2.2761,3.3615A9.3448,9.3448,0,0,1,60.774,134.25Z" style="fill:#ecf5db"/></g></g></g></svg>