<svg id="Pizza" xmlns="http://www.w3.org/2000/svg" xmlns:xlink="http://www.w3.org/1999/xlink" viewBox="0 0 230.6793 240.791"><defs><radialGradient id="radial-gradient" cx="98.7509" cy="112.8822" r="110.0135" gradientTransform="translate(199.1093 -12.323) rotate(76.4662)" gradientUnits="userSpaceOnUse"><stop offset="0.0241" stop-color="#f0f5c8"/><stop offset="0.2804" stop-color="#eef3c5"/><stop offset="0.4456" stop-color="#e5ecbd"/><stop offset="0.585" stop-color="#d8e1ae"/><stop offset="0.7102" stop-color="#c4d199"/><stop offset="0.8257" stop-color="#abbc7e"/><stop offset="0.9327" stop-color="#8ca25d"/><stop offset="1" stop-color="#758f44"/></radialGradient><radialGradient id="radial-gradient-2" cx="-473.126" cy="-8.9964" r="29.8523" gradientTransform="matrix(-0.4653, -0.9803, 0.9733, -0.4651, -108.0019, -320.2239)" gradientUnits="userSpaceOnUse"><stop offset="0" stop-color="#b9c785"/><stop offset="0.3207" stop-color="#bcc989"/><stop offset="0.6529" stop-color="#c5d096"/><stop offset="0.9894" stop-color="#d4dbaa"/><stop offset="1" stop-color="#d5dbab"/></radialGradient><radialGradient id="radial-gradient-3" cx="-411.1672" cy="-4.7538" r="30.2947" xlink:href="#radial-gradient-2"/><radialGradient id="radial-gradient-4" cx="-448.0612" cy="47.7767" r="32.8921" xlink:href="#radial-gradient-2"/></defs><g id="Ingreds"><g id="Pickle"><g id="Layer_1_456_copy_2" data-name="Layer 1 456 copy 2"><path d="M143.3887,237.1152a72.8463,72.8463,0,0,0,7.8906-3.57c11.1178-5.3565,16.7519-8.1406,20.446-13.3285,1.8418-2.5865,1.7624-3.5765,4-6,2.0588-2.23,4.36-3.8109,9.8515-6.4236,9.5663-4.5511,11.7937-4.2616,17.1562-7.68a36.2836,36.2836,0,0,0,6.9463-5.8965c8.2918-8.7982,11.68-18.3327,14.2954-25.6939,4.0817-11.4869,4.6835-20.501,5.72-38.06,1.0208-17.2882,1.5313-25.9322.1043-34.5447a103.5883,103.5883,0,0,0-18.8772-43.4467c-6.06-8.1811-13.8813-18.74-27.9708-25.261-7.9143-3.6628-8.6744-1.8247-24.9651-5.778-26.4154-6.41-30.1078-12.6236-48.7215-13.5307-5.5784-.2719-12.3055-.5475-20.662,1.6055C81.7665,11.269,79.1376,13.485,66.29,18.2462c-7.5723,2.8061-8.7969,2.8553-12.9243,4.4132A94.7815,94.7815,0,0,0,25.9968,39.7319C13.7112,51.1039,10.7513,66.9728,4.8318,98.7105c-4.5769,24.5392-6.781,37.1123-2.64,51.9938C5.2,161.5155,10.33,170.4715,16.0293,180.2092c6.637,11.3391,10.9327,18.6787,18.9791,26.368,7.1908,6.8717,15.0121,10.8934,30.6552,18.9368,14.5611,7.4872,23.31,11.8934,36.2839,14.0374a95.08,95.08,0,0,0,19.5706,1.1443C124.7263,240.5514,134.4343,240.0628,143.3887,237.1152Z" style="fill:#314534"/><path d="M138.0969,216.896c.76-.25,1.6143-.5535,2.5611-.9418a37.3316,37.3316,0,0,0,4.848-2.4106c6.1784-3.6153,8.9188-3.8305,12.7193-6.8271,5.0967-4.0185,3.3345-6.1278,8.7661-11.0056,2.9086-2.6119,5.5323-3.8151,10.7186-6.3479,9.7768-4.7748,14.7834-4.42,22.6318-12.7474,7.7858-8.2611,10.9669-17.2136,13.423-24.1256,3.8326-10.7859,4.3975-19.25,5.3712-35.737.9585-16.2331,1.4378-24.35.098-32.4364a97.2649,97.2649,0,0,0-17.7251-40.7951c-5.69-7.6818-13.0342-17.5967-26.2637-23.7193-7.4314-3.4392-8.145-1.7134-23.4414-5.4254-24.8033-6.0189-28.27-11.8531-45.7481-12.705A60.7358,60.7358,0,0,0,86.6547,3.18c-6.4191,1.654-8.8875,3.7347-20.9511,8.2052-7.11,2.635-8.26,2.6812-12.1355,4.144A88.997,88.997,0,0,0,27.87,31.5593C16.3339,42.2372,13.5547,57.1375,7.9963,86.9383c-4.2975,23.0415-6.367,34.8473-2.4786,48.8206C8.3425,145.91,13.1589,154.32,18.5106,163.4631c6.2318,10.647,10.2654,17.5386,17.8207,24.7587,6.7519,6.4524,14.0959,10.2285,28.7843,17.781,13.6725,7.03,21.8877,11.1676,34.07,13.1806a89.248,89.248,0,0,0,18.3761,1.0744C120.5736,220.1224,129.6892,219.6638,138.0969,216.896Z" style="stroke:#314534;stroke-miterlimit:10;stroke-width:3px;fill:url(#radial-gradient)"/><path d="M147.6246,231.7481c-.2311.0312-.5746.0857-.9831.1831-2.1526.5132-2.8754,1.987-3.7492,1.7159-.6931-.2151-.4978-1.1869-1.167-1.4306-1.283-.4673-3.421,2.5884-3.7484,2.3465-.242-.179.9328-1.8461.6166-2.1495-.5483-.5261-5.1384,3.4767-5.532,3.0652-.2812-.2942,2.1419-2.2572,1.6638-4.2622-.2561-1.0739-1.22-1.6367-1-2,.3346-.5526,2.7039.5213,3,0,.2519-.4431-1.257-1.5779-1-2,.2447-.4017,1.77.365,2,0,.2369-.3756-.7125-1.9-2-2a2.6241,2.6241,0,0,0-2,1c-.7461.9108-.5932,1.9464-1,2-.2915.0385-.3509-.4958-1-1-.88-.6832-1.68-.4089-2-1-.1471-.2722-.0658-.4941,0-1,.2414-1.8534-.3377-2.8083,0-3,.5153-.2925,1.5439,2.1115,3,2,1.2959-.0991,3.0771-2.2146,3.8936-2.4381a7.2983,7.2983,0,0,1,1.1882-.24c2.0789-.2633,3.477.1344,4.0536-.7542.466-.7179.1791-1.9425.9528-2.34a1.0074,1.0074,0,0,1,.28-.093c2.4424-.4859,9.7535-2.1971,9.8307-1.8318.0812.3837-8.0838,1.78-8.0086,3.45.0526,1.168,4.1148,1.9468,4.0091,2.3812-.1006.4135-3.7586-.3943-4.1921.6133-.2708.6292.9367,1.4535.6261,2.0856-.3695.7518-2.2825.0022-2.8055.7867-.5626.8439.7063,3.1288,1.8132,3.1165.7121-.0081.792-.96,2.1183-1.8743,1.3225-.9112,2.97-1.154,3.1726-.7955.1823.3224-.8991.9205-1.6,2.3325A5.3915,5.3915,0,0,0,147.6246,231.7481Z" style="fill:#455435"/><path d="M219.193,156.898c.1544.1784-1.5679,1.4189-1.2131,2.2984.1617.4007.8739.6716,2.2983,1.2131.7557.2874,1.1307.3844,1.1492.6066.0371.4459-1.4223.6808-1.4844,1.4205-.0326.3873.3957.62.2713.8777-.1047.2166-.447.1482-.8779.2715a2.198,2.198,0,0,0-1.4844,1.4205c-.1765.6561.04,1.554.5426,1.7556.65.2605,1.4335-.7793,1.7558-.5427.2547.1873-.2139.8521-.3352,2.0271-.1609,1.5573.443,2.51-.064,2.9049-.2667.2079-.5143.0069-.8777.2713-.5276.3835-.48,1.1513-.6065,1.1493-.21-.0037.08-2.1231-.814-2.6337a1.4,1.4,0,0,0-1.7557.5426c-.0953.3334.3225.4866.2713.8779-.0879.6694-1.3778.7344-1.4845,1.4205-.06.3882.3286.5232.2714.8779-.1231.7628-2.1271,1.4029-2.6336.8139-.4311-.5014.2518-1.8606.3352-2.0271.3345-.6662.6055-.7547.6066-1.1491a1.8186,1.8186,0,0,0-1.4205-1.4844c-1.3053-.3137-2.4046,1.0472-2.6336.8139s.557-1.8786,2.091-2.57c.6192-.2789,1.149.1509,2.9049.064.4161-.0206.7135-.0526.8778-.2714.3091-.4112.0128-1.3046-.5426-1.7556-.3307-.2685-.7036-.34-2.0271-.3352-2.0905.0075-2.7966.1919-2.9049-.0639-.1271-.3006.644-1.0357,1.4845-1.4205.9444-.4326,1.3774-.1486,1.7557-.5427.7648-.7969-.1946-2.808.0639-2.9049.1994-.0748.4823,1.0806,1.4205,1.4845a2.1478,2.1478,0,0,0,2.6334-.814c.197-.6035-.5237-.9295-.5426-1.7557C216.1865,158.0868,219.0074,156.6839,219.193,156.898Z" style="fill:#455435"/><path d="M64.1839,207.2277a5.9794,5.9794,0,0,1-.9453-.3264c-1.7752-.7853-2.4253-2.1249-2.8817-1.9391-.4957.202.0793,1.8607-.5042,2.1785-.5651.3079-1.7895-.8746-2.4125-1.4764-1.4695-1.4193-2.1724-2.7494-2.3821-2.6463-.2445.12.67,1.9466.2922,2.2171-.5772.4131-4.3184-4.31-5.0184-3.8491-.4242.2791.1789,2.5286,1.5127,4.3519,1.3354,1.8255,2.97,2.6309,2.7272,3.25-.23.5876-1.83.1891-2.08.8219-.3769.9544,2.0451,2.706,1.7308,3.1629-.1987.2889-1.5169.0453-2.4183-.8092-1.1534-1.0935-.9554-2.5534-1.6743-2.6827-.533-.0958-.7.6962-1.71.9765-1.1044.3065-1.7657-.4014-2.1789-.04-.4887.427-.23,2,.7021,2.9167.7651.7525,1.3864.4751,3.3847,1.2424,1.48.5682,1.246.7613,2.6373,1.298,2.3842.92,3.4989.469,3.8977,1.3448.3546.779-.11,1.9479.5964,2.4555a1.0075,1.0075,0,0,0,.2636.1334c2.3437.8416,9.3218,3.6144,9.4521,3.2644.1369-.3674-7.7319-2.9556-7.4108-4.5956.2247-1.1474,4.3573-1.3173,4.3169-1.7626-.0383-.4239-3.7754-.1656-4.0554-1.226-.1747-.6624,1.1412-1.2993.9275-1.97-.2544-.7981-2.2571-.3395-2.6584-1.1926-.4318-.9178,1.1609-2.99,2.2539-2.8143.703.1131.6412,1.0669,1.818,2.1668,1.1733,1.0966,2.7667,1.58,3.02,1.2556.2278-.2919-.7533-1.0434-1.2375-2.5434A5.3918,5.3918,0,0,1,64.1839,207.2277Z" style="fill:#455435"/><path d="M73.5645,211.9949c-.1551.2045,1.8036,1.4291,1.4809,2.41-.1471.4467-.9014.7915-2.41,1.4809-.8.3657-1.2006.4979-1.2048.74-.0087.4868,1.5931.6382,1.7131,1.4371.0629.4183-.3858.702-.2323.9726.1292.2277.4959.1291.9728.2323a2.3923,2.3923,0,0,1,1.7131,1.4371c.2384.7.0668,1.6906-.4645,1.9453-.6868.3292-1.6122-.7445-1.9454-.4645-.2632.2213.2929.91.5083,2.1776.2854,1.68-.3027,2.7569.276,3.15.3045.2068.559-.0291.9727.2322.6.379.6034,1.2163.74,1.2049.2278-.0189-.2375-2.3.6967-2.918a1.5234,1.5234,0,0,1,1.9453.4644c.1271.3552-.3157.5513-.2322.9727.1428.7208,1.5485.7,1.7131,1.4371.0931.4173-.32.5916-.2322.9727.1879.82,2.41,1.3722,2.9179.6966.4325-.5752-.4056-2.0027-.5082-2.1775-.4108-.7-.7113-.7766-.74-1.2049a1.9792,1.9792,0,0,1,1.4371-1.7131c1.3953-.4336,2.6857.9664,2.918.6967.2306-.268-.7386-2.0006-2.4536-2.642-.6924-.259-1.2372.2455-3.15.276-.4536.0072-.7786-.0064-.9726-.2322-.365-.4248-.1068-1.4161.4644-1.9454.34-.3151.74-.4193,2.1775-.5082,2.2709-.1405,3.0508.01,3.15-.276.1167-.3355-.773-1.0789-1.7131-1.4371-1.0565-.4026-1.5065-.0634-1.9453-.4644-.8873-.811.0115-3.0635-.276-3.15-.222-.0671-.447,1.2076-1.4371,1.7131-1.02.5206-2.6.0966-2.918-.6967-.2567-.6413.5027-1.0468.4645-1.9453C76.9141,213.072,73.7506,211.749,73.5645,211.9949Z" style="fill:#455435"/><path d="M189.5166,196.6729c-1.2746-.6927-1.71-.6569-1.9128-1.1579-.17-.4195.0912-1.2054.6244-2.7587.2943-.8574.4313-1.078.3122-1.3792-.3679-.93-2.5611-1.0771-2.7587-.6245-.159.3641,1.1009.8273,1.0672,1.6915a2.0913,2.0913,0,0,1-2.5373,1.6007,1.9255,1.9255,0,0,1-1.0671-1.6916c-.0276-.7642.458-1.03.3121-1.3793-.3783-.9045-4.2456-.5524-4.45.4427-.1292.6285,1.2629,1.2213,1.0671,1.6916-.1675.402-1.3664.4031-2.2251.2213-.8248-.1746-1.1794-.4846-1.3794-.3122-.37.319.6667,1.5335.2214,2.2251a1.7854,1.7854,0,0,1-2.225.2214c-.7977-.5319-.7106-1.6833-1.0672-1.6916-.3521-.0082-.2708,1.1187-1.1579,1.9129-.6848.613-1.2488.4032-1.6916,1.0671a2.7522,2.7522,0,0,0-.3122,1.3793c-.0127.1539-.1768,2.1331.2214,2.2251.3719.086.5793-1.6,2.0037-2.4464a2.451,2.451,0,0,1,2.2251-.2213c.6428.3209,1.2422,1.1033,1.0671,1.6914-.2531.85-1.8814.4769-2.5372,1.6007a1.8854,1.8854,0,0,0,.2213,2.2252,1.38,1.38,0,0,0,1.3793.3121c.6493-.2815.4061-1.0848,1.158-1.9129.6773-.7461,1.17-.4192,1.6915-1.0671.83-1.03.0382-2.4217.6244-2.7586.46-.2644,1.4849.3365,1.9129,1.158.3828.7343.03,1.1478.2213,2.225.253,1.4215,1.2137,2.6471,1.6007,2.5373.3808-.1079-.1327-1.4123.6244-2.7586.6122-1.0884,1.8866-1.9056,2.5374-1.6007.5593.262.2855,1.1093,1.067,1.6915a1.6686,1.6686,0,0,0,1.3793.3122c.7051-.2732.4624-1.2208,1.1581-1.9129,1.0353-1.03,2.9181-.2695,3.0707-.7548C192.1406,198.1123,189.694,196.7693,189.5166,196.6729Z" style="fill:#455435"/><path d="M168.7547,201.59c-.5083-.2619-1.26-.2974-1.4141-.0171-.2978.5418,1.5467,2.4314,2.0955,2.1468.2839-.1473.2667-.9.0171-1.4141A1.6025,1.6025,0,0,0,168.7547,201.59Z" style="fill:#455435"/><path d="M172.8271,211.0635c.5167.0152.899-2.841,1.4467-2.8119.2952.0156.2472.8482.8355,1.141.7416.3692,1.8257-.4525,2.1293-.6826a3.8818,3.8818,0,0,0,1.2939-1.8237c.174-.4548.3135-.8194.1528-.9882-.2846-.2992-1.3787.1571-2.1293.6826-.72.5041-.7532.8122-1.1411.8354-.6378.0383-.7722-.7812-1.8237-1.2939a3.863,3.863,0,0,0-1.9765-.3056c-.7376.0315-2.0822.2456-2.1293.6826-.0409.3806.9552.4351,1.8237,1.2939C172.6378,209.1071,172.401,211.051,172.8271,211.0635Z" style="fill:#455435"/><path d="M21.41,172.0894c-.6013,1.1755-2.2566,1.07-2.3156,1.6242-.0387.3628.65.5995,1.797,1.3307,1.5134.9645,2.6272,1.6743,2.6091,2.4884a2.096,2.096,0,0,1-2.3156,1.6242c-.8528-.2768-.5375-1.57-1.6242-2.3156-1.1171-.7665-2.0822.1664-2.9548-.5186-1.1477-.901.0455-2.8891-1.2784-4.2855-.7508-.7919-1.8474-.9046-1.7971-1.3307.0456-.3862,1.0169-.3316,1.1578-.8121.1834-.6248-1.3347-1.1066-1.6241-2.3156-.3084-1.288.9-2.8917,1.5035-2.782.7873.1432.66,3.2228,1.4513,3.3006.3413.0335.4448-.5316,1.1578-.8121.7985-.3142,1.8495-.07,1.97.3458.1688.5828-1.5068,1.4524-1.3307,1.797.1145.2241.87-.0513.985.1728.1761.3446-1.4994,1.2142-1.3307,1.7971.1232.4251,1.19.5666,1.97.3457a1.7875,1.7875,0,0,0,1.1578-.8121c.2367-.4864.0181-.9241.1729-.9849.1874-.0736.72.4848.8121,1.1578A1.7211,1.7211,0,0,1,21.41,172.0894Z" style="fill:#455435"/><path d="M220.5718,145.6618c.3872.0373.42.4043.8873.4611.65.0791.9877-.5826,1.3484-.4261.2547.11.136.4617.4263,1.3485.2677.8177.5112.9539.4261,1.3485-.1025.4748-.5225.5881-.4612.8872a.7959.7959,0,0,0,.8874.4612c.7117-.163.9027-1.6136.9223-1.7747.1354-1.1111-.3287-1.502.0349-2.2357.2178-.4395.5541-.6421.4612-.8873-.0974-.2574-.5044-.1319-.8873-.4612a1.5329,1.5329,0,0,1-.4263-1.3485c.0264-.1814.11-.7574.4612-.8874.6114-.2259,1.46,1.11,1.7747.9224.2852-.1707-.4522-1.2484.0349-2.2358.213-.4314.5534-.63.4611-.8874-.071-.1978-.3225-.2171-.8873-.4612a7.998,7.998,0,0,1-.8873-.461c-.9777-.6006-1.177-1.8543-1.3135-1.81-.1492.0488.3993,1.1854-.0349,2.2358-.3254.787-1.2061,1.5342-1.81,1.3135-.547-.2-.7782-1.1626-.5753-1.8656.1715-.5946.586-.77,1.0714-1.2574,1.5024-1.51.9916-3.3135,1.8446-3.5494.886-.2449,1.6471,1.6419,2.662,1.3835a1.512,1.512,0,0,0,.9222-1.7747c-.1745-.2792-.5434-.1158-.8873-.4612-.4124-.4142-.0947-.863-.4261-1.3484-.4883-.7149-1.6659-.4554-1.7747-.9223-.0819-.3519.5575-.6276.4612-.8873-.1187-.32-1.2457-.3249-2.2359-.035-.8254.2417-.9663.5158-1.3485.4262-.8736-.205-1.0527-1.853-1.3134-1.81-.2516.042.1678,1.5337-.4961,3.1231-.4187,1.0023-1.083,1.6-.9223,1.7746.0359.0391.1383.084,1.3484-.4261.9349-.3941,1.1261-.5272,1.3485-.4262.4075.1851.4579.9464.4262,1.3484a2.9158,2.9158,0,0,1-.9223,1.7747c-.8959.9134-1.4983.6642-1.8095,1.3136-.4126.86.4494,1.7052-.0351,2.2357a4.5564,4.5564,0,0,1-1.3484.4263,9.5909,9.5909,0,0,0-.035,2.2357c.06.5018.2214,1.3458.4263,1.3485.2343.003.1259-1.106.9222-1.7747a1.8387,1.8387,0,0,1,1.3485-.4261c.1487.0189.7377.094.8873.461s-.2716.7044-.9223,1.7747c-.6328,1.0408-.4284,1.4561-.9223,1.7747-.5755.3714-1.1.0627-1.3485.4261-.2746.4019.0314,1.2678.4262,1.3485C219.3188,147.0891,219.7731,145.5851,220.5718,145.6618Z" style="fill:#455435"/><path d="M128.7253,231.2165a2.7861,2.7861,0,0,0,2,1c1.0667-.0819,1.557-1.2026,2-1,.4014.1836.5246,1.344,0,2-.5865.7337-1.5754.3262-2,1-.4547.7217.3848,1.6575,0,2s-1.7057-.1578-2-1c-.1339-.3832.0494-.5387,0-1-.107-1.0022-1.1641-2.0681-2-2-1.1109.0906-1.71,2.12-2,2-.195-.0809.2535-.9317,0-2-.2782-1.1725-1.1877-1.7043-1-2,.2066-.3252,1.2455.4143,2,0,1.0616-.583.682-2.968,1-3S127.0539,229.5854,128.7253,231.2165Z" style="fill:#455435"/><path d="M227.7472,100.8753c-.6-.1954-.6235-.203-.6732-.2429-.3661-.2929-.2038-.7691-.4468-.87-.2872-.1191-.66.4851-.8994.3842-.3216-.1356.1058-1.3312-.2206-1.4971-.25-.1268-.9056.3655-1.1257,1.0112a1.5759,1.5759,0,0,0,.22,1.4972c.091-.0038-.0139-.53.2263-.627.3022-.1216,1.096.4577,1.12,1.1129a.9385.9385,0,0,1-.2263.627c-.2352.2624-.5159.2438-.8994.3842-.736.2694-1.2089.8887-1.1257,1.0114.1064.1571,1.1245-.5029,1.5725-.1413.2678.2158.0991.6085.4469.87.2737.2057.5089.0606.6731.2429a.929.929,0,0,1-.4527,1.2542c-.2408.0351-.3271-.2228-.6731-.2429-.4054-.0236-.4979.3184-.8994.3842-.6319.1036-1.14-.6229-1.3463-.4858-.1909.127.3143.7041.2206,1.4971-.0867.7315-.61,1.0315-.4526,1.2542.1733.2449.969.1116,1.5725-.1413,1.128-.4724,1.0957-1.1569,2.0252-1.3954.8-.2052,1.3161.1749,1.5725-.1414.05-.0618.12-.1867-.22-1.497-.2212-.8516-.3319-1.1123-.2206-1.4972.0427-.1477.088-.2094.2263-.6271.1624-.4906.1413-.53.2263-.6271.29-.33.7647-.13.8995-.3841.124-.2335-.1387-.6636-.4468-.87A4.4974,4.4974,0,0,0,227.7472,100.8753Z" style="fill:#455435"/><path d="M223.1059,98.1135c-.3388.2488.1372.9079,0,2.2395-.064.6205-.1956.94,0,1.12.3091.2839,1.0036-.1784,1.12,0s-.3844.9393-1.12,1.12c-.5112.1255-.6766-.1424-1.12,0-.7373.2369-.9143,1.1823-1.12,1.12-.1529-.0465-.22-.6206,0-1.12.277-.6275.7536-.5587,1.12-1.12a2.2839,2.2839,0,0,0,0-2.24c-.4045-.7066-1.1836-.9916-1.12-1.12.0606-.1215.5625.168,1.12,0,.5343-.1612.6419-.6014,1.12-1.12a3.3118,3.3118,0,0,1,2.24-1.12c.0354.068-.936.3631-1.12,1.12-.1269.5227.2077.9128,0,1.12C223.9776,98.3606,223.4254,97.8791,223.1059,98.1135Z" style="fill:#455435"/><path d="M226.7253,115.2165c-.5868-.174-.6953-1.0433-1-1-.4166.0592-.2346,1.6867-1,2a3.9154,3.9154,0,0,1-1,0,3.3927,3.3927,0,0,0-1,0c-.6034.16-1.1107.77-1,1,.12.2493,1.0224-.3769,2,0,.6352.2449,1.0922.8268,1,1-.0453.0852-.2082.0428-1,0a4.138,4.138,0,0,0-1,0c-.5023.1352-1.0522.6072-1,1,.0553.4159.7388.3918,1,1,.1114.2592.0591.4309,0,1-.0863.8325-.2005,1.9342,0,2,.2089.0686,1-.9074,1-2a2.843,2.843,0,0,1,0-1c.1479-.489.5845-1.03,1-1,.5288.0384,1,1,1,1a2.3884,2.3884,0,0,1,0,1c-.1956.6078-.9248.5564-1,1a1.045,1.045,0,0,0,1,1c.5085-.076.5691-.979,1-1,.4749-.023.73,1.0569,1,1,.2669-.0562.5166-1.2166,0-2-.3917-.5941-.9925-.62-1-1-.0037-.1935.3308-.4623,1-1,.8374-.6728.985-.7915,1-1a1.1576,1.1576,0,0,0-1-1c-.9331-.1176-1.6369,1.2089-2,1-.1974-.1135-.2092-.6317,0-1,.3677-.6472,1.1735-.4,2-1,.9065-.6581,1.1859-1.862,1-2C228.4978,114.0477,227.56,115.4642,226.7253,115.2165Z" style="fill:#455435"/></g><g id="Layer_1_458_copy" data-name="Layer 1 458 copy"><path d="M85.7441,175.3547a22.9551,22.9551,0,0,1-7.6166-7.9594C61.72,142.1183,61.8947,138.379,63.1684,135.88c.5622-1.1029,1.6929-2.0066,3.9453-3.8187,3.3552-2.6991,8.7738-6.2187,18.773-8.9716,10.1493-2.7942,15.224-4.1915,21.7647-2.6685,4.5908,1.0688,8.4333,3.944,16.1181,9.6962,16.2813,12.1866,17.6809,19.0387,17.4769,20.6461-.016.1266-.35,2.6471-.8615,6.0665-.0085.0572-.0214.1436-.0234.1561-.7414,4.9061-16.5289,13.6989-16.5291,13.699-13.2779,7.3952-14.9035,10.1082-20.3373,9.7192a52.1415,52.1415,0,0,1-8.5016-1.7367C91.0667,177.6344,88.4014,176.9334,85.7441,175.3547Z" style="fill:url(#radial-gradient-2)"/><path d="M62.1576,60.9669c4.3179-2.0569,5.5438-1.4742,15.5756-3.5772,8.7273-1.8295,9.43-2.6122,14.0112-2.8295,5.2675-.25,9.5741-.4539,12.7868,2.2875,3.4126,2.912,3.6892,7.5241,4.0107,12.8837.2928,4.8805-.9579,10.3172-3.4713,20.9912-2.127,9.0333-3.0567,11.4519-5.1566,13.9668-2.0885,2.501-4.2143,3.7131-8.3806,6.0353a63.6766,63.6766,0,0,1-19.5209,7.3959c-9.2065,1.8275-13.81,2.7412-17.0716.4256-1.0625-.7543-1.9013-1.7111-7.0271-21.1415a62.5988,62.5988,0,0,1-1.7428-9.4654c-.82-7.734.3888-10.1425.7665-10.8337.7377-1.35,1.1418-1.348,3.3843-4.6826,1.6366-2.4336,2.2259-3.6314,2.88-4.6374C55.6047,64.0887,59.3079,62.3246,62.1576,60.9669Z" style="fill:url(#radial-gradient-3)"/><path d="M176.0251,95.2727a49.0777,49.0777,0,0,1-2.1118,10.8182c-3.5567,12.4321-5.4245,18.7569-9.8116,24.0836-2.2708,2.7571-5.5637,6.6436-10.203,6.8092a11.5193,11.5193,0,0,1-6.9371-2.4844c-16.27-11.031-24.4051-16.5465-28.3146-25.9931a38.78,38.78,0,0,1-2.6152-9.5172c-.6472-4.84.156-6.3033,3.2555-22.7935,1.2365-6.5792,1.6389-9.1665,4.0823-11.6171a14.1046,14.1046,0,0,1,7.8221-3.7382c5.7825-.9249,7.5574,2.0943,19.1359,5.6765,7.3665,2.2789,9.06,1.8032,12.4892,4.3417a57.6839,57.6839,0,0,1,7.1233,6.8951,33.7729,33.7729,0,0,1,4.3016,5.044C176.5546,86.8929,176.3106,91.1643,176.0251,95.2727Z" style="fill:url(#radial-gradient-4)"/></g><g id="Layer_1_460_copy" data-name="Layer 1 460 copy"><path d="M100.5885,161.5442a23.4,23.4,0,0,1-2.692-7.8332,32.7234,32.7234,0,0,1,1.4548-16.2382,23.55,23.55,0,0,1,4.0274-7.2355,70.92,70.92,0,0,1-.1824,8.0554c-.1756,2.5871-.3886,5.1215-.6214,7.6548-.2288,2.5337-.4772,5.0639-.7624,7.6391A76.0907,76.0907,0,0,1,100.5885,161.5442Z" style="fill:#ecf5d0"/><path d="M92.7331,160.87a19.3662,19.3662,0,0,1-4.5412-5.0627,27.761,27.761,0,0,1-2.86-5.9812,27.2841,27.2841,0,0,1-1.3756-6.4862,19.0742,19.0742,0,0,1,.5389-6.7834,33.3618,33.3618,0,0,1,3.2691,5.805c.8761,1.9407,1.6341,3.8838,2.301,5.8588.6652,1.9758,1.25,3.9784,1.7316,6.0538A33.4464,33.4464,0,0,1,92.7331,160.87Z" style="fill:#ecf5d0"/><path d="M107.5951,162.6694a18.9093,18.9093,0,0,1,.029-7.083,26.6831,26.6831,0,0,1,2.1375-6.6251,26.4083,26.4083,0,0,1,3.7718-5.8509,18.7667,18.7667,0,0,1,5.4721-4.5008,43.0321,43.0321,0,0,1-2.1182,6.552c-.8176,2.0392-1.6831,4.0041-2.6094,5.9415-.9208,1.94-1.8934,3.8546-2.9559,5.778A43.8887,43.8887,0,0,1,107.5951,162.6694Z" style="fill:#ecf5d0"/><path d="M115.8805,163.3677a9.3428,9.3428,0,0,1,.85-4.0073,12.61,12.61,0,0,1,2.2223-3.3974,12.449,12.449,0,0,1,3.1762-2.5292,9.2563,9.2563,0,0,1,3.9165-1.2077,34.539,34.539,0,0,1-2.4515,3.0565l-2.4252,2.7013-2.47,2.6618A35.3256,35.3256,0,0,1,115.8805,163.3677Z" style="fill:#ecf5d0"/><path d="M158.6156,90.1287a23.4053,23.4053,0,0,1-3.6354,7.4424,32.7255,32.7255,0,0,1-12.5109,10.4536,23.5562,23.5562,0,0,1-7.964,2.2683,70.9332,70.9332,0,0,1,5.8249-5.5671c1.9535-1.7051,3.8963-3.3466,5.8523-4.9733,1.9533-1.63,3.918-3.2432,5.9407-4.8625A76.0508,76.0508,0,0,1,158.6156,90.1287Z" style="fill:#ecf5d0"/><path d="M163.6933,96.16a19.3682,19.3682,0,0,1-.3686,6.7911,27.7678,27.7678,0,0,1-2.2072,6.2514,27.2965,27.2965,0,0,1-3.614,5.5591,19.0761,19.0761,0,0,1-5.1774,4.4155,33.3484,33.3484,0,0,1,1.7931-6.4164c.7527-1.9917,1.5906-3.9017,2.5156-5.77.9268-1.8674,1.9293-3.697,3.0563-5.5051A33.4521,33.4521,0,0,1,163.6933,96.16Z" style="fill:#ecf5d0"/><path d="M154.4567,84.3786a18.908,18.908,0,0,1-5.0288,4.9879,26.6866,26.6866,0,0,1-6.1962,3.1733,26.411,26.411,0,0,1-6.8043,1.47,18.7666,18.7666,0,0,1-7.052-.6869,43.0549,43.0549,0,0,1,6.1309-3.1352c2.02-.8639,4.0213-1.6412,6.0464-2.3561,2.023-.7209,4.0645-1.3868,6.1758-1.9955A43.8863,43.8863,0,0,1,154.4567,84.3786Z" style="fill:#ecf5d0"/><path d="M149.0918,78.0263a9.3437,9.3437,0,0,1-3.4345,2.2325,12.6092,12.6092,0,0,1-3.9737.8309,12.4424,12.4424,0,0,1-4.0343-.4575,9.2572,9.2572,0,0,1-3.6234-1.9154,34.54,34.54,0,0,1,3.8947-.4277l3.625-.1953,3.6287-.1355A35.29,35.29,0,0,1,149.0918,78.0263Z" style="fill:#ecf5d0"/><path d="M67.25,77.6122a76.0537,76.0537,0,0,1,5.6917,5.6946c1.7525,1.9083,3.4487,3.8021,5.131,5.71,1.6855,1.9056,3.3556,3.8239,5.0268,5.8065a70.9137,70.9137,0,0,1,4.9093,6.3891,23.5553,23.5553,0,0,1-7.5257-3.4545A32.7265,32.7265,0,0,1,69.71,85.5215,23.4022,23.4022,0,0,1,67.25,77.6122Z" style="fill:#ecf5d0"/><path d="M61.3128,82.8a33.451,33.451,0,0,1,3.1448,5.873c.8386,1.9586,1.5507,3.92,2.1823,5.9063.63,1.9872,1.1672,4.0025,1.6077,6.0856a33.3538,33.3538,0,0,1,.7953,6.6146,19.0735,19.0735,0,0,1-4.4447-5.1524,27.2849,27.2849,0,0,1-2.7253-6.0446,27.7626,27.7626,0,0,1-1.23-6.5145A19.3653,19.3653,0,0,1,61.3128,82.8Z" style="fill:#ecf5d0"/><path d="M72.2357,72.5624a43.8978,43.8978,0,0,1,6.4279,2.4652c1.9939.9232,3.91,1.8921,5.8,2.9126,1.8925,1.015,3.7521,2.088,5.617,3.2493a43.0422,43.0422,0,0,1,5.582,4.0321,18.7679,18.7679,0,0,1-7.0742-.3948,26.42,26.42,0,0,1-6.5012-2.489,26.686,26.686,0,0,1-5.6406-4.08A18.91,18.91,0,0,1,72.2357,72.5624Z" style="fill:#ecf5d0"/><path d="M78.5052,67.101a35.3085,35.3085,0,0,1,3.8822.5293l3.5658.6866,3.5529.7449a34.554,34.554,0,0,1,3.7844,1.0157,9.256,9.256,0,0,1-3.8729,1.3414,12.447,12.447,0,0,1-4.057-.1621A12.6118,12.6118,0,0,1,81.56,69.8305,9.3429,9.3429,0,0,1,78.5052,67.101Z" style="fill:#ecf5d0"/></g></g></g></svg>