<svg id="bin" xmlns="http://www.w3.org/2000/svg" viewBox="0 0 1184.8017 1184.8017"><path d="M1179.8472,368.495c-7.2078-65.1188-17.864-122.9412-19.722-132.9271-3.0214-16.2407-4.5327-24.361-6.2336-30.9174-6.3137-24.3378-17.8257-68.6357-52.4863-106.055-37.4195-34.6611-81.7178-46.1733-106.0558-52.4872-6.5565-1.7009-14.6768-3.212-30.9175-6.2336-9.9859-1.8579-67.8083-12.5142-132.9271-19.7219C731.0462,9.0334,628.51,7.8128,600,7.5992c-28.51.2136-131.0462,1.4342-231.5049,12.5536-65.1188,7.2077-122.9412,17.864-132.9271,19.7219-16.2407,3.0216-24.361,4.5327-30.9175,6.2336-24.338,6.3139-68.6364,17.8261-106.0558,52.4872-34.6606,37.4193-46.1725,81.7172-52.4864,106.055-1.7009,6.5564-3.212,14.6767-6.2336,30.9174-1.8579,9.9859-12.5142,67.8083-19.7219,132.9271C9.0333,468.9538,7.8128,571.49,7.5992,600c.2136,28.51,1.4341,131.0462,12.5536,231.505,7.2077,65.1188,17.864,122.9412,19.7219,132.9271,3.0216,16.2407,4.5327,24.361,6.2336,30.9174,6.3139,24.3378,17.8258,68.6356,52.4864,106.055,37.4194,34.6612,81.7178,46.1734,106.0558,52.4871,6.5565,1.7009,14.6768,3.2122,30.9175,6.2336,9.9859,1.858,67.8083,12.5142,132.9271,19.722,100.4587,11.1194,202.9949,12.34,231.5049,12.5537,28.51-.2136,131.0462-1.4343,231.5049-12.5537,65.1188-7.2078,122.9412-17.864,132.9271-19.722,16.2407-3.0214,24.361-4.5327,30.9175-6.2336,24.338-6.3137,68.6363-17.8259,106.0558-52.4871,34.6606-37.4194,46.1726-81.7172,52.4863-106.055,1.7009-6.5564,3.2122-14.6767,6.2336-30.9174,1.858-9.9859,12.5142-67.8083,19.722-132.9271,11.12-100.4588,12.34-202.9951,12.5537-231.505C1192.1873,571.49,1190.9668,468.9538,1179.8472,368.495Z" transform="translate(-7.5992 -7.5992)" style="fill:#2e2d2d"/><path d="M1113.8746,394.8347c-6.3877-57.71-15.8315-108.9535-17.478-117.8032-2.6777-14.393-4.017-21.5894-5.5244-27.4-5.5954-21.5687-15.7976-60.8265-46.5147-93.9884-33.162-30.7175-72.42-40.92-93.9892-46.5154-5.81-1.5074-13.0069-2.8466-27.4-5.5244-8.85-1.6466-60.0934-11.09-117.8032-17.4781C716.1363,76.2711,625.2663,75.1893,600,75c-25.2663.1893-116.1363,1.2711-205.1653,11.1253-57.71,6.3877-108.9534,15.8315-117.8032,17.4781-14.3929,2.6778-21.5893,4.017-27.4,5.5244-21.5689,5.5955-60.8273,15.7979-93.9893,46.5154-30.717,33.1619-40.9191,72.42-46.5146,93.9884-1.5074,5.8105-2.8466,13.0069-5.5244,27.4-1.6466,8.85-11.09,60.0933-17.4781,117.8032C76.2709,483.8637,75.1893,574.7338,75,600c.1893,25.2662,1.2709,116.1363,11.1253,205.1654,6.3877,57.71,15.8315,108.9534,17.4781,117.8031,2.6778,14.393,4.017,21.5894,5.5244,27.4,5.5955,21.5687,15.7976,60.8265,46.5146,93.9885,33.162,30.7175,72.42,40.92,93.9893,46.5153,5.8105,1.5074,13.0069,2.8467,27.4,5.5244,8.85,1.6465,60.0934,11.09,117.8032,17.478C483.8637,1123.7289,574.7337,1124.8107,600,1125c25.2663-.1893,116.1363-1.2711,205.1653-11.1254,57.71-6.3877,108.9534-15.8315,117.8032-17.478,14.3929-2.6777,21.5893-4.017,27.4-5.5244,21.5689-5.5954,60.8272-15.7978,93.9892-46.5153,30.7171-33.162,40.9193-72.42,46.5147-93.9885,1.5074-5.81,2.8467-13.0069,5.5244-27.4,1.6465-8.85,11.09-60.0933,17.478-117.8031C1123.7291,716.1363,1124.8107,625.2662,1125,600,1124.8107,574.7338,1123.7291,483.8637,1113.8746,394.8347Z" transform="translate(-7.5992 -7.5992)" style="fill:#1e1e1e"/><g id="Layer_5" data-name="Layer 5"><path d="M1059.459,174.6137a164.004,164.004,0,0,0-15.1022-18.9713c-33.1619-30.717-72.42-40.9192-93.9884-46.5146-5.81-1.5075-13.0069-2.8466-27.4-5.5244-.8172-.1521-1.9983-.371-3.51-.6475L949,183Z" transform="translate(-7.5992 -7.5992)" style="fill:#202020"/><path d="M949,183l89.8669,89.0479,19.949-97.3517L948,178Q948.5,180.5,949,183Z" transform="translate(-7.5992 -7.5992)" style="fill:#1d1d1d"/><path d="M1096.3967,277.0314c-2.6778-14.3929-4.0171-21.5893-5.5244-27.4-4.5554-17.56-12.167-46.844-31.4133-75.018l-.6431.0825-19.949,97.3517,67.4981,65.13C1101.7418,305.9624,1097.4558,282.7244,1096.3967,277.0314Z" transform="translate(-7.5992 -7.5992)" style="fill:#1b1b1b"/><path d="M805.1654,86.1253c-16.1757-1.79-32.41-3.29-48.3031-4.5485l179.6458,88.7661-17.05-67.387C904.5973,100.2384,857.5461,91.9231,805.1654,86.1253Z" transform="translate(-7.5992 -7.5992)" style="fill:#1e1e1e"/><path d="M756.8623,81.5767c-16.251-1.2868-32.14-2.32-47.24-3.15l59.06,165.3687,81.0948-116.3071Z" transform="translate(-7.5992 -7.5992)" style="fill:#1c1c1c"/><path d="M949,183q-1-3.5-2-7l-97.2224-48.5121L768.6828,243.795l1.0425,2.9192Z" transform="translate(-7.5992 -7.5992)" style="fill:#1d1d1d"/><path d="M949,183,827.3412,225.3141l234.7165,69.111Z" transform="translate(-7.5992 -7.5992)" style="fill:#1e1e1e"/><path d="M1113.8747,394.8347c-2.2786-20.5861-4.946-40.3474-7.51-57.657l-44.3072-42.7526-59.4536-17.5058,117.2983,186.2975C1118.39,441.08,1116.4274,417.8969,1113.8747,394.8347Z" transform="translate(-7.5992 -7.5992)" style="fill:#1d1d1d"/><path d="M709.6225,78.4263C658.214,75.598,615.9815,75.12,600,75c-8.27.062-23.5722.22-43.5363.7492L745.3712,178.5227Z" transform="translate(-7.5992 -7.5992)" style="fill:#1e1e1e"/><path d="M243.9337,1089.38,110.26,954.7088c5.8494,22.2154,16.6255,58.6027,45.3831,89.6487C186.0688,1072.54,221.615,1083.45,243.9337,1089.38Z" transform="translate(-7.5992 -7.5992)" style="fill:#1d1d1d"/><path d="M249.6317,109.1278c-21.5687,5.5954-60.8265,15.7976-93.9886,46.5146-30.7175,33.162-40.92,72.42-46.5151,93.9893-.51,1.9649-1.0014,4.0979-1.531,6.6045l160.9555-151.05C259.5645,106.8739,254.1672,107.9511,249.6317,109.1278Z" transform="translate(-7.5992 -7.5992)" style="fill:#1e1e1e"/><polygon points="926.094 249.03 953.361 381.957 994.521 269.178 926.094 249.03" style="fill:#1f1f1f"/><polygon points="1062.04 375.788 995.005 269.32 994.521 269.178 953.361 381.957 953.599 383.115 1062.04 375.788" style="fill:#1e1e1e"/><path d="M751.6316,196.0519l-6.26-17.5292L556.4637,75.7492c-7.0188.1863-14.626.42-22.695.71L613.066,229.3076Z" transform="translate(-7.5992 -7.5992)" style="fill:#1c1c1c"/><path d="M336.44,93.7443c-30.8435,4.5814-53.7608,8.8082-59.4088,9.8591-3.1581.5875-5.9524,1.1077-8.479,1.5823L213.482,156.8673l152.7268,61.3634Z" transform="translate(-7.5992 -7.5992)" style="fill:#202020"/><path d="M80.6548,744.6986c1.4292,19.7171,3.2206,40.1387,5.4706,60.4667,6.3877,57.71,15.8315,108.9534,17.4781,117.8032,2.6777,14.3929,4.0169,21.5893,5.5245,27.4.3569,1.3762.7334,2.8264,1.132,4.3405l5.607,5.6488,77.8583-132.8961Z" transform="translate(-7.5992 -7.5992)" style="fill:#1d1d1d"/><path d="M504.8611,1122.3232C549.623,1124.49,585.5471,1124.8918,600,1125c9.0581-.0679,26.5495-.2505,49.3634-.9109l-129.66-109.9023Z" transform="translate(-7.5992 -7.5992)" style="fill:#1e1e1e"/><path d="M702.2768,1121.9663c31.7569-1.64,67.4662-4.1708,102.8886-8.0917,36.454-4.035,70.3225-9.2887,92.5607-13.027l24.543-20.2856L698.5165,980.956Z" transform="translate(-7.5992 -7.5992)" style="fill:#1e1e1e"/><path d="M1060.0537,966.6789l33.2828-27.5092c.8273-4.2036,1.793-9.39,3.06-16.2012,1.6465-8.85,11.09-60.0934,17.478-117.8032,3.077-27.7992,5.2982-55.7765,6.9044-81.8813L962.78,822.7143Z" transform="translate(-7.5992 -7.5992)" style="fill:#1e1e1e"/><path d="M649.3634,1124.0891c15.5032-.4487,33.4686-1.1189,52.9134-2.1228l-3.3757-126.5876-149.1829,44.2492Z" transform="translate(-7.5992 -7.5992)" style="fill:#202020"/><path d="M1120.7791,723.284c.7243-11.7713,1.3239-23.1628,1.82-33.9839l-112.4281-86.4832-1.4041,190.9575Z" transform="translate(-7.5992 -7.5992)" style="fill:#202020"/><polygon points="805.482 1024.356 1005.689 997.733 1052.454 959.08 981.528 854.109 802.941 1023.226 805.482 1024.356" style="fill:#1c1c1c"/><path d="M75,600c.1461,19.4972.8249,78.0622,5.6548,144.6986l97.4614,71.3377L78.208,494.4141C75.5734,543.9872,75.1166,584.4391,75,600Z" transform="translate(-7.5992 -7.5992)" style="fill:#1c1c1c"/><polygon points="205.883 149.268 126.223 224.026 154.951 420.127 208.387 150.274 205.883 149.268" style="fill:#1e1e1e"/><polygon points="208.387 150.274 154.951 420.127 155.645 424.864 350.826 207.504 208.387 150.274" style="fill:#1c1c1c"/><path d="M394.8347,86.1253c-20.8789,2.311-40.91,5.0219-58.3944,7.619l1.4252,5.96L608.5429,220.5893l-74.7742-144.13C494.6751,77.865,444.4752,80.6307,394.8347,86.1253Z" transform="translate(-7.5992 -7.5992)" style="fill:#1e1e1e"/><polygon points="600.944 212.99 330.266 92.105 358.61 210.632 350.826 207.504 342.442 216.84 602.243 215.494 600.944 212.99" style="fill:#1e1e1e"/><polygon points="958.619 382.776 958.893 383.883 961.595 382.575 958.619 382.776" style="fill:#1e1e1e"/><polygon points="1062.04 375.788 961.595 382.575 958.893 383.883 1005.882 573.88 1006.001 573.672 1062.384 376.334 1062.04 375.788" style="fill:#1d1d1d"/><polygon points="1006.001 573.672 1064.008 473.337 1033.88 476.099 1006.001 573.672" style="fill:#1e1e1e"/><polygon points="1062.384 376.334 1033.88 476.099 1064.008 473.337 1092.466 424.112 1062.384 376.334" style="fill:#202020"/><polygon points="406.082 482.807 297.525 266.861 155.695 424.808 406.082 482.807" style="fill:#202020"/><polygon points="112.523 621.744 169.412 804.881 318.146 586.156 112.523 621.744" style="fill:#1d1d1d"/><path d="M328.2308,590.0988,164.6927,442.3506l.549,3.7482L78.33,492.1109c-.0419.7721-.0816,1.5353-.1224,2.3032l41.9142,134.9293,205.6225-35.5885Z" transform="translate(-7.5992 -7.5992)" style="fill:#1e1e1e"/><polygon points="327.624 997.507 327.839 997.746 383.003 978.958 329.238 848.234 327.624 997.507" style="fill:#1e1e1e"/><polygon points="1000.934 786.323 1001.168 786.175 1002.487 606.738 834.917 698.016 1000.934 786.323" style="fill:#1e1e1e"/><polygon points="839.079 402.18 820.857 218.043 819.742 217.715 772.783 235.157 667.181 348.302 839.079 402.18" style="fill:#1c1c1c"/><polygon points="957.958 819.225 955.181 815.115 1000.934 786.323 860.735 711.749 832.292 896.103 957.958 819.225" style="fill:#1c1c1c"/><polygon points="169.412 803.881 170.517 807.437 186.126 818.862 183.057 824.101 183.635 836.655 193.454 847.556 307.23 778.88 282.268 637.917 169.412 803.881" style="fill:#1c1c1c"/><polygon points="372.296 474.981 155.695 424.808 155.645 424.864 157.093 434.751 270.093 536.841 372.296 474.981" style="fill:#1c1c1c"/><polygon points="342.442 216.84 297.525 266.861 385.162 441.192 347.098 216.816 342.442 216.84" style="fill:#1e1e1e"/><polygon points="580.405 215.607 349.7 216.802 474.745 345.454 580.405 215.607" style="fill:#1c1c1c"/><polygon points="474.745 345.454 349.7 216.802 347.098 216.816 385.162 441.192 389.622 450.063 474.745 345.454" style="fill:#1e1e1e"/><polygon points="958.893 383.883 852.149 435.569 1002.6 560.611 958.893 383.883" style="fill:#1c1c1c"/><polygon points="832.445 895.112 860.735 711.749 856.722 709.614 791.401 861.005 832.445 895.112" style="fill:#1e1e1e"/><polygon points="559.739 241.003 451.526 373.987 535.84 462.236 559.739 241.003" style="fill:#202020"/><polygon points="372.575 475.046 372.296 474.981 270.093 536.841 271.566 538.172 440.895 602.28 372.575 475.046" style="fill:#1e1e1e"/><polygon points="271.566 538.172 320.632 582.5 318.146 586.156 330.126 584.082 318.146 586.156 307.93 601.178 404.112 588.354 271.566 538.172" style="fill:#1e1e1e"/><polygon points="330.09 769.444 329.238 848.234 330.028 850.156 452.962 739.38 330.09 769.444" style="fill:#1e1e1e"/><polygon points="1002.487 606.738 1002.572 595.218 996.324 590.412 1005.882 573.88 1002.6 560.611 953.797 520.05 857.134 685.914 1002.487 606.738" style="fill:#1d1d1d"/><polygon points="610.482 220.505 605.467 221.708 602.243 215.494 580.405 215.607 559.739 241.003 540.636 417.844 655.306 333.499 610.482 220.505" style="fill:#1e1e1e"/><polygon points="953.797 520.05 852.149 435.569 847.277 437.929 874.869 655.483 953.797 520.05" style="fill:#1c1c1c"/><polygon points="699.654 977.246 832.292 896.103 832.445 895.112 795.706 864.583 696.378 975.788 699.654 977.246" style="fill:#1e1e1e"/><polygon points="448.412 799.291 444.805 809.562 531.489 777.928 452.564 739.739 330.028 850.156 330.49 851.279 444.805 809.562 448.412 799.291" style="fill:#202020"/><polygon points="330.49 851.279 383.003 978.958 385.511 978.104 384.6 980.137 384.843 980.3 444.805 809.562 330.49 851.279" style="fill:#1d1d1d"/><polygon points="662.425 351.444 661.847 349.986 661.951 351.706 662.425 351.444" style="fill:#1e1e1e"/><polygon points="874.8 655.601 874.869 655.483 847.277 437.929 845.853 438.618 714.258 634.324 874.8 655.601" style="fill:#1d1d1d"/><polygon points="307.93 601.178 282.268 638.917 282.618 640.895 319.11 658.347 400.153 588.881 307.93 601.178" style="fill:#202020"/><polygon points="404.112 588.354 400.153 588.881 319.11 658.347 418.4 705.833 409.52 590.401 404.112 588.354" style="fill:#1c1c1c"/><polygon points="845.853 439.618 842.829 441.082 839.246 404.866 668.112 454.65 668.42 459.745 789.613 523.258 845.853 439.618" style="fill:#1b1b1b"/><polygon points="451.526 373.987 389.622 450.063 395.246 461.252 530.293 456.429 451.526 373.987" style="fill:#1c1c1c"/><polygon points="855.471 708.949 834.917 698.016 838.558 696.033 732.176 637.855 719.721 747.87 855.471 708.949" style="fill:#1e1e1e"/><polygon points="789.613 522.258 668.42 458.745 671.74 513.676 783.516 531.325 789.613 522.258" style="fill:#202020"/><polygon points="581.308 387.928 540.636 417.844 537.223 449.435 642.986 483.71 581.308 387.928" style="fill:#1c1c1c"/><polygon points="447.634 808.529 525.606 907.493 517.575 783.006 447.634 808.529" style="fill:#1e1e1e"/><polygon points="779.866 882.317 795.706 864.583 791.401 861.005 793.863 855.299 712.224 759.203 721.379 862.192 779.866 882.317" style="fill:#1e1e1e"/><polygon points="651.749 497.318 642.986 483.71 537.223 449.435 535.898 461.703 597.95 593.972 651.749 497.318" style="fill:#1e1e1e"/><polygon points="530.702 456.858 530.293 456.429 395.246 461.252 406.082 482.807 405.746 482.73 491.137 597.533 530.702 456.858" style="fill:#1e1e1e"/><polygon points="779.866 882.317 721.379 862.192 721.321 861.539 668.201 889.709 762.551 901.702 779.866 882.317" style="fill:#1e1e1e"/><polygon points="586.664 911.896 691.301 987.758 690.917 973.357 696.378 975.788 697.146 974.928 662.271 912.872 585.081 908.913 586.664 911.896" style="fill:#1e1e1e"/><polygon points="720.986 857.774 712.909 766.905 569.467 814.719 720.986 857.774" style="fill:#1c1c1c"/><polygon points="535.898 461.703 535.84 462.236 530.702 456.858 494.978 583.876 590.538 578.171 535.898 461.703" style="fill:#202020"/><polygon points="405.746 482.73 372.575 475.046 427.377 577.104 470.586 569.903 405.746 482.73" style="fill:#1e1e1e"/><polygon points="668.201 889.709 721.321 861.539 720.986 857.774 589.304 820.356 647.938 887.133 668.201 889.709" style="fill:#1e1e1e"/><polygon points="672.389 524.423 672.72 529.884 651.749 497.318 612.894 567.125 714.411 595.302 672.389 524.423" style="fill:#1e1e1e"/><polygon points="470.586 569.903 427.377 577.104 440.895 602.28 409.52 590.401 409.643 591.996 498.917 672.17 490.236 596.321 470.586 569.903" style="fill:#202020"/><polygon points="712.407 767.073 580.676 705.401 587.923 808.567 712.407 767.073" style="fill:#1e1e1e"/><polygon points="589.024 578.262 494.978 583.876 494.722 584.786 540.06 684.829 589.024 578.262" style="fill:#1e1e1e"/><path d="M739.6378,646.6631l.1369-1.2093q-2.7708-10.9677-5.5419-21.9355L722.01,602.9014l-100.498-27.8949,70.7929,76.5167Z" transform="translate(-7.5992 -7.5992)" style="fill:#1c1c1c"/><polygon points="712.909 766.905 712.224 759.203 705.95 751.818 719.721 747.87 719.736 747.742 719.821 746.988 719.436 746.616 598.513 713.751 712.407 767.073 712.909 766.905" style="fill:#1e1e1e"/><polygon points="409.643 591.996 418.4 705.833 473.32 732.1 410.3 592.587 409.643 591.996" style="fill:#1e1e1e"/><polygon points="498.332 667.058 536.651 677.306 494.722 584.786 491.137 597.533 490.236 596.321 498.332 667.058" style="fill:#1c1c1c"/><polygon points="590.538 578.171 589.024 578.262 556.216 649.667 597.438 592.881 590.538 578.171" style="fill:#1e1e1e"/><polygon points="584.815 764.328 581.2 712.861 522.481 773.57 528.661 776.56 584.815 764.328" style="fill:#202020"/><polygon points="684.706 643.924 613.913 567.407 612.894 567.125 612.277 568.232 626.434 649.907 684.706 643.924" style="fill:#1e1e1e"/><polygon points="719.436 746.616 624.018 654.207 598.619 713.78 719.436 746.616" style="fill:#1c1c1c"/><polygon points="624.018 654.207 620.236 650.544 626.434 649.907 612.277 568.232 597.95 593.972 597.438 592.881 556.216 649.667 553.13 656.383 615.822 673.431 624.018 654.207" style="fill:#1e1e1e"/><polygon points="578.541 715.609 581.2 712.861 580.676 705.401 598.513 713.751 598.619 713.78 615.822 673.431 553.13 656.383 540.06 684.829 537.83 679.908 504.886 737.662 505.012 738.399 578.541 715.609" style="fill:#1e1e1e"/><polygon points="504.886 737.662 537.83 679.908 536.651 677.306 498.332 667.058 498.917 672.17 492.845 666.717 504.886 737.662" style="fill:#1e1e1e"/><polygon points="578.541 715.609 505.012 738.399 505.048 738.612 505.247 738.632 505.048 738.612 509.952 767.507 522.481 773.57 578.541 715.609" style="fill:#1e1e1e"/><polygon points="492.845 666.717 410.3 592.587 473.32 732.1 476.5 733.621 470.176 735.168 505.048 738.612 492.845 666.717" style="fill:#1e1e1e"/><polygon points="505.048 738.612 470.176 735.168 452.962 739.38 452.564 739.739 509.952 767.507 505.048 738.612" style="fill:#1e1e1e"/><polygon points="587.923 808.567 584.815 764.328 528.661 776.56 531.489 777.928 517.575 783.006 517.889 787.873 587.526 808.7 587.923 808.567" style="fill:#1e1e1e"/><polygon points="719.821 746.988 732.039 639.064 620.236 650.544 719.821 746.988" style="fill:#202020"/><polygon points="647.796 887.115 647.938 887.133 589.304 820.356 569.467 814.719 587.526 808.7 517.889 787.873 518 789.595 546.146 842.44 647.962 887.409 647.796 887.115" style="fill:#1e1e1e"/><polygon points="662.271 912.872 647.962 887.409 546.146 842.44 573.767 894.302 575.401 890.676 585.081 908.913 662.271 912.872" style="fill:#1e1e1e"/><polygon points="573.767 894.302 518 789.595 525.606 907.493 532.336 916.035 568.652 905.659 573.767 894.302" style="fill:#1e1e1e"/><polygon points="783.516 531.325 671.74 513.676 672.389 524.423 726.634 615.919 783.516 531.325" style="fill:#1e1e1e"/><polygon points="697.146 974.928 762.551 901.702 647.796 887.115 697.146 974.928" style="fill:#1c1c1c"/><polygon points="691.301 987.758 586.664 911.896 635.695 1004.273 691.302 987.78 691.301 987.758" style="fill:#1e1e1e"/><polygon points="568.652 905.659 532.336 916.035 533.862 917.972 515.884 1009.791 520.126 1013.387 568.652 905.659" style="fill:#202020"/><polygon points="575.401 890.676 520.126 1013.387 542.119 1032.029 635.695 1004.273 575.401 890.676" style="fill:#1d1d1d"/><polygon points="512.104 1006.588 515.884 1009.791 533.862 917.972 447.634 808.529 446.235 809.04 503.881 1060.143 504.68 1060.678 512.104 1006.588" style="fill:#1d1d1d"/><polygon points="857.134 685.914 874.8 655.601 729.385 636.329 838.558 696.033 857.134 685.914" style="fill:#1e1e1e"/><polygon points="839.246 403.866 839.079 402.18 667.774 348.488 662.425 351.444 662.434 351.467 662.425 351.444 661.951 351.706 668.112 453.65 839.246 403.866" style="fill:#1c1c1c"/><polygon points="793.863 855.299 856.722 709.614 855.471 708.949 705.95 751.818 793.863 855.299" style="fill:#202020"/><polygon points="661.951 351.706 661.906 351.73 661.951 351.706 661.847 349.986 655.306 333.499 581.308 387.928 672.72 529.884 661.951 351.706" style="fill:#1e1e1e"/><polygon points="446.235 809.04 444.805 809.562 384.843 980.3 503.881 1060.143 446.235 809.04" style="fill:#1e1e1e"/><polygon points="667.774 348.488 667.181 348.302 772.783 235.157 762.126 239.115 744.032 188.453 610.482 220.505 662.425 351.444 667.774 348.488" style="fill:#202020"/><polygon points="282.618 640.895 307.23 779.88 330.126 766.06 330.09 769.444 476.5 733.621 282.618 640.895" style="fill:#1d1d1d"/><polygon points="958.893 383.883 958.619 382.776 954.59 383.048 956.269 385.154 958.893 383.883" style="fill:#202020"/><polygon points="926.094 249.03 823.662 218.869 953.237 381.352 926.094 249.03" style="fill:#1e1e1e"/><polygon points="954.59 384.048 953.599 384.115 953.237 382.352 823.662 219.869 820.857 219.043 842.829 441.082 956.269 386.154 954.59 384.048" style="fill:#1d1d1d"/><polygon points="329.238 848.234 328.712 846.956 193.774 848.911 255.198 917.102 329.225 849.421 329.238 848.234" style="fill:#1e1e1e"/><polygon points="329.225 849.421 255.198 917.102 327.624 997.507 329.225 849.421" style="fill:#1f1f1f"/><polygon points="325.379 838.851 328.712 846.956 329.252 846.948 330.126 766.06 193.454 848.556 193.774 848.911 328.712 846.956 325.379 838.851" style="fill:#1d1d1d"/><polygon points="328.712 846.956 329.238 848.234 329.252 846.948 328.712 846.956" style="fill:#1e1e1e"/><polygon points="802.941 1023.226 981.528 854.109 957.958 819.225 699.654 977.246 802.941 1023.226" style="fill:#202020"/><polygon points="197.114 1042.268 327.839 997.746 255.096 916.989 195.485 1040.627 197.114 1042.268" style="fill:#1e1e1e"/><polygon points="255.096 916.989 183.635 837.655 192.861 1037.982 195.485 1040.627 255.096 916.989" style="fill:#1d1d1d"/><polygon points="183.057 825.101 108.268 952.758 108.895 953.39 188.405 941.23 183.057 825.101" style="fill:#1c1c1c"/><polygon points="188.405 941.23 108.895 953.39 192.861 1037.982 188.405 941.23" style="fill:#1f1f1f"/><path d="M392.1992,987.7362l-53.262,118.8885q3.0195.4443,6.1363.8911l165.9336-40.0914Z" transform="translate(-7.5992 -7.5992)" style="fill:#1f1f1f"/><path d="M504.8611,1122.3232l7.418-54.0456-1.272-.8532-165.9336,40.0914c15.3225,2.1988,32.2414,4.42,49.7612,6.3588C432.9368,1118.092,471.3714,1120.7018,504.8611,1122.3232Z" transform="translate(-7.5992 -7.5992)" style="fill:#1d1d1d"/><polygon points="914.67 1072.963 1005.689 997.733 805.482 1024.356 914.67 1072.963" style="fill:#1e1e1e"/><path d="M1119.9026,464.2167l-19.8372-31.5059-27.209,47.0642,52.14,120.745C1124.8491,581.3752,1124.1934,527.0262,1119.9026,464.2167Z" transform="translate(-7.5992 -7.5992)" style="fill:#1b1b1b"/><path d="M1072.6164,478.7562l-68.6612,119.3927,118.8838,91.0184c1.8309-42.04,2.1252-75.4858,2.1972-89.3054-.0014-.151-.0031-.3244-.0047-.48Z" transform="translate(-7.5992 -7.5992)" style="fill:#1c1c1c"/><path d="M393.11,985.7033l-188.3965,64.1639,39.22,39.5129c2.0073.5333,3.9182,1.03,5.698,1.4921,1.1812.3065,2.4255.6063,3.77.9115L391.6144,989.0416Z" transform="translate(-7.5992 -7.5992)" style="fill:#1c1c1c"/><path d="M338.9372,1106.6247l52.6772-117.5831L253.4018,1091.7837c5.27,1.196,12.1627,2.48,23.63,4.6129C282.831,1097.4756,306.8369,1101.903,338.9372,1106.6247Z" transform="translate(-7.5992 -7.5992)" style="fill:#1d1d1d"/><path d="M133.8221,231.625,107.597,256.2362c-1.0364,4.9057-2.2212,11.27-3.9935,20.7953-1.6466,8.85-11.09,60.0933-17.4781,117.8032-3.6913,33.3488-6.1515,66.9556-7.795,97.2762l86.9113-46.0121Z" transform="translate(-7.5992 -7.5992)" style="fill:#202020"/><path d="M922.9686,1096.3966c14.3929-2.6778,21.5893-4.017,27.4-5.5244,21.5687-5.5954,60.8266-15.7975,93.9884-46.5147,30.7176-33.162,40.92-72.42,46.5155-93.9892.7941-3.0609,1.5432-6.5191,2.4642-11.1986l-195.61,161.6779C910.693,1098.6679,919.709,1097.003,922.9686,1096.3966Z" transform="translate(-7.5992 -7.5992)" style="fill:#202020"/></g></svg>