<svg id="plate" xmlns="http://www.w3.org/2000/svg" viewBox="0 0 1184.8017 1184.8017"><path d="M1179.8472,368.495c-7.2078-65.1188-17.864-122.9412-19.722-132.9271-3.0214-16.2407-4.5327-24.361-6.2336-30.9174-6.3137-24.3378-17.8257-68.6357-52.4863-106.055-37.4195-34.6611-81.7178-46.1733-106.0558-52.4872-6.5565-1.7009-14.6768-3.212-30.9175-6.2336-9.9859-1.8579-67.8083-12.5142-132.9271-19.7219C731.0462,9.0334,628.51,7.8128,600,7.5992c-28.51.2136-131.0462,1.4342-231.5049,12.5536-65.1188,7.2077-122.9412,17.864-132.9271,19.7219-16.2407,3.0216-24.361,4.5327-30.9175,6.2336-24.338,6.3139-68.6364,17.8261-106.0558,52.4872-34.6606,37.4193-46.1725,81.7172-52.4864,106.055-1.7009,6.5564-3.212,14.6767-6.2336,30.9174-1.8579,9.9859-12.5142,67.8083-19.7219,132.9271C9.0333,468.9538,7.8128,571.49,7.5992,600c.2136,28.51,1.4341,131.0462,12.5536,231.505,7.2077,65.1188,17.864,122.9412,19.7219,132.9271,3.0216,16.2407,4.5327,24.361,6.2336,30.9174,6.3139,24.3378,17.8258,68.6356,52.4864,106.055,37.4194,34.6612,81.7178,46.1734,106.0558,52.4871,6.5565,1.7009,14.6768,3.2122,30.9175,6.2336,9.9859,1.858,67.8083,12.5142,132.9271,19.722,100.4587,11.1194,202.9949,12.34,231.5049,12.5537,28.51-.2136,131.0462-1.4343,231.5049-12.5537,65.1188-7.2078,122.9412-17.864,132.9271-19.722,16.2407-3.0214,24.361-4.5327,30.9175-6.2336,24.338-6.3137,68.6363-17.8259,106.0558-52.4871,34.6606-37.4194,46.1726-81.7172,52.4863-106.055,1.7009-6.5564,3.2122-14.6767,6.2336-30.9174,1.858-9.9859,12.5142-67.8083,19.722-132.9271,11.12-100.4588,12.34-202.9951,12.5537-231.505C1192.1873,571.49,1190.9668,468.9538,1179.8472,368.495Z" transform="translate(-7.5992 -7.5992)" style="fill:#fff"/><path d="M1113.8746,394.8347c-6.3877-57.71-15.8315-108.9535-17.478-117.8032-2.6777-14.393-4.017-21.5894-5.5244-27.4-5.5954-21.5687-15.7976-60.8265-46.5147-93.9884-33.162-30.7175-72.42-40.92-93.9892-46.5154-5.81-1.5074-13.0069-2.8466-27.4-5.5244-8.85-1.6466-60.0934-11.09-117.8032-17.4781C716.1363,76.2711,625.2663,75.1893,600,75c-25.2663.1893-116.1363,1.2711-205.1653,11.1253-57.71,6.3877-108.9534,15.8315-117.8032,17.4781-14.3929,2.6778-21.5893,4.017-27.4,5.5244-21.5689,5.5955-60.8273,15.7979-93.9893,46.5154-30.717,33.1619-40.9191,72.42-46.5146,93.9884-1.5074,5.8105-2.8466,13.0069-5.5244,27.4-1.6466,8.85-11.09,60.0933-17.4781,117.8032C76.2709,483.8637,75.1893,574.7338,75,600c.1893,25.2662,1.2709,116.1363,11.1253,205.1654,6.3877,57.71,15.8315,108.9534,17.4781,117.8031,2.6778,14.393,4.017,21.5894,5.5244,27.4,5.5955,21.5687,15.7976,60.8265,46.5146,93.9885,33.162,30.7175,72.42,40.92,93.9893,46.5153,5.8105,1.5074,13.0069,2.8467,27.4,5.5244,8.85,1.6465,60.0934,11.09,117.8032,17.478C483.8637,1123.7289,574.7337,1124.8107,600,1125c25.2663-.1893,116.1363-1.2711,205.1653-11.1254,57.71-6.3877,108.9534-15.8315,117.8032-17.478,14.3929-2.6777,21.5893-4.017,27.4-5.5244,21.5689-5.5954,60.8272-15.7978,93.9892-46.5153,30.7171-33.162,40.9193-72.42,46.5147-93.9885,1.5074-5.81,2.8467-13.0069,5.5244-27.4,1.6465-8.85,11.09-60.0933,17.478-117.8031C1123.7291,716.1363,1124.8107,625.2662,1125,600,1124.8107,574.7338,1123.7291,483.8637,1113.8746,394.8347Z" transform="translate(-7.5992 -7.5992)" style="fill:#fff;stroke:#e3e0e0;stroke-miterlimit:10;stroke-width:20px"/></svg>