<svg id="bin" xmlns="http://www.w3.org/2000/svg" viewBox="0 0 1200 1200"><path d="M1179.8472,368.495c-7.2078-65.1188-17.864-122.9412-19.722-132.9271-3.0214-16.2407-4.5327-24.361-6.2336-30.9174-6.3137-24.3378-17.8257-68.6357-52.4863-106.055-37.4195-34.6611-81.7178-46.1733-106.0558-52.4872-6.5565-1.7009-14.6768-3.212-30.9175-6.2336-9.9859-1.8579-67.8083-12.5142-132.9271-19.7219C731.0462,9.0334,628.51,7.8128,600,7.5992c-28.51.2136-131.0462,1.4342-231.5049,12.5536-65.1188,7.2077-122.9412,17.864-132.9271,19.7219-16.2407,3.0216-24.361,4.5327-30.9175,6.2336-24.338,6.3139-68.6364,17.8261-106.0558,52.4872-34.6606,37.4193-46.1725,81.7172-52.4864,106.055-1.7009,6.5564-3.212,14.6767-6.2336,30.9174-1.8579,9.9859-12.5142,67.8083-19.7219,132.9271C9.0333,468.9538,7.8128,571.49,7.5992,600c.2136,28.51,1.4341,131.0462,12.5536,231.505,7.2077,65.1188,17.864,122.9412,19.7219,132.9271,3.0216,16.2407,4.5327,24.361,6.2336,30.9174,6.3139,24.3378,17.8258,68.6356,52.4864,106.055,37.4194,34.6612,81.7178,46.1734,106.0558,52.4871,6.5565,1.7009,14.6768,3.2122,30.9175,6.2336,9.9859,1.858,67.8083,12.5142,132.9271,19.722,100.4587,11.1194,202.9949,12.34,231.5049,12.5537,28.51-.2136,131.0462-1.4343,231.5049-12.5537,65.1188-7.2078,122.9412-17.864,132.9271-19.722,16.2407-3.0214,24.361-4.5327,30.9175-6.2336,24.338-6.3137,68.6363-17.8259,106.0558-52.4871,34.6606-37.4194,46.1726-81.7172,52.4863-106.055,1.7009-6.5564,3.2122-14.6767,6.2336-30.9174,1.858-9.9859,12.5142-67.8083,19.722-132.9271,11.12-100.4588,12.34-202.9951,12.5537-231.505C1192.1873,571.49,1190.9668,468.9538,1179.8472,368.495Z" style="fill:#2e2d2d"/><path d="M1113.8746,394.8347c-6.3877-57.71-15.8315-108.9535-17.478-117.8032-2.6777-14.393-4.017-21.5894-5.5244-27.4-5.5954-21.5687-15.7976-60.8265-46.5147-93.9884-33.162-30.7175-72.42-40.92-93.9892-46.5154-5.81-1.5074-13.0069-2.8466-27.4-5.5244-8.85-1.6466-60.0934-11.09-117.8032-17.4781C716.1363,76.2711,625.2663,75.1893,600,75c-25.2663.1893-116.1363,1.2711-205.1653,11.1253-57.71,6.3877-108.9534,15.8315-117.8032,17.4781-14.3929,2.6778-21.5893,4.017-27.4,5.5244-21.5689,5.5955-60.8273,15.7979-93.9893,46.5154-30.717,33.1619-40.9191,72.42-46.5146,93.9884-1.5074,5.8105-2.8466,13.0069-5.5244,27.4-1.6466,8.85-11.09,60.0933-17.4781,117.8032C76.2709,483.8637,75.1893,574.7338,75,600c.1893,25.2662,1.2709,116.1363,11.1253,205.1654,6.3877,57.71,15.8315,108.9534,17.4781,117.8031,2.6778,14.393,4.017,21.5894,5.5244,27.4,5.5955,21.5687,15.7976,60.8265,46.5146,93.9885,33.162,30.7175,72.42,40.92,93.9893,46.5153,5.8105,1.5074,13.0069,2.8467,27.4,5.5244,8.85,1.6465,60.0934,11.09,117.8032,17.478C483.8637,1123.7289,574.7337,1124.8107,600,1125c25.2663-.1893,116.1363-1.2711,205.1653-11.1254,57.71-6.3877,108.9534-15.8315,117.8032-17.478,14.3929-2.6777,21.5893-4.017,27.4-5.5244,21.5689-5.5954,60.8272-15.7978,93.9892-46.5153,30.7171-33.162,40.9193-72.42,46.5147-93.9885,1.5074-5.81,2.8467-13.0069,5.5244-27.4,1.6465-8.85,11.09-60.0933,17.478-117.8031C1123.7291,716.1363,1124.8107,625.2662,1125,600,1124.8107,574.7338,1123.7291,483.8637,1113.8746,394.8347Z" style="fill:#1e1e1e"/><g id="Layer_5" data-name="Layer 5"><path d="M1059.459,174.6137a164.004,164.004,0,0,0-15.1022-18.9713c-33.1619-30.717-72.42-40.9192-93.9884-46.5146-5.81-1.5075-13.0069-2.8466-27.4-5.5244-.8172-.1521-1.9983-.371-3.51-.6475L949,183Z" style="fill:#202020"/><path d="M949,183l89.8669,89.0479,19.949-97.3517L948,178Q948.5,180.5,949,183Z" style="fill:#1d1d1d"/><path d="M1096.3967,277.0314c-2.6778-14.3929-4.0171-21.5893-5.5244-27.4-4.5554-17.56-12.167-46.844-31.4133-75.018l-.6431.0825-19.949,97.3517,67.4981,65.13C1101.7418,305.9624,1097.4558,282.7244,1096.3967,277.0314Z" style="fill:#1b1b1b"/><path d="M805.1654,86.1253c-16.1757-1.79-32.41-3.29-48.3031-4.5485l179.6458,88.7661-17.05-67.387C904.5973,100.2384,857.5461,91.9231,805.1654,86.1253Z" style="fill:#1e1e1e"/><path d="M756.8623,81.5767c-16.251-1.2868-32.14-2.32-47.24-3.15l59.06,165.3687,81.0948-116.3071Z" style="fill:#1c1c1c"/><path d="M949,183q-1-3.5-2-7l-97.2224-48.5121L768.6828,243.795l1.0425,2.9192Z" style="fill:#1d1d1d"/><path d="M949,183,827.3412,225.3141l234.7165,69.111Z" style="fill:#1e1e1e"/><path d="M1113.8747,394.8347c-2.2786-20.5861-4.946-40.3474-7.51-57.657l-44.3072-42.7526-59.4536-17.5058,117.2983,186.2975C1118.39,441.08,1116.4274,417.8969,1113.8747,394.8347Z" style="fill:#1d1d1d"/><path d="M709.6225,78.4263C658.214,75.598,615.9815,75.12,600,75c-8.27.062-23.5722.22-43.5363.7492L745.3712,178.5227Z" style="fill:#1e1e1e"/><path d="M243.9337,1089.38,110.26,954.7088c5.8494,22.2154,16.6255,58.6027,45.3831,89.6487C186.0688,1072.54,221.615,1083.45,243.9337,1089.38Z" style="fill:#1d1d1d"/><path d="M249.6317,109.1278c-21.5687,5.5954-60.8265,15.7976-93.9886,46.5146-30.7175,33.162-40.92,72.42-46.5151,93.9893-.51,1.9649-1.0014,4.0979-1.531,6.6045l160.9555-151.05C259.5645,106.8739,254.1672,107.9511,249.6317,109.1278Z" style="fill:#1e1e1e"/><polygon points="933.693 256.629 960.96 389.556 1002.121 276.777 933.693 256.629" style="fill:#1f1f1f"/><polygon points="1069.639 383.387 1002.604 276.919 1002.121 276.777 960.96 389.556 961.198 390.714 1069.639 383.387" style="fill:#1e1e1e"/><path d="M751.6316,196.0519l-6.26-17.5292L556.4637,75.7492c-7.0188.1863-14.626.42-22.695.71L613.066,229.3076Z" style="fill:#1c1c1c"/><path d="M336.44,93.7443c-30.8435,4.5814-53.7608,8.8082-59.4088,9.8591-3.1581.5875-5.9524,1.1077-8.479,1.5823L213.482,156.8673l152.7268,61.3634Z" style="fill:#202020"/><path d="M80.6548,744.6986c1.4292,19.7171,3.2206,40.1387,5.4706,60.4667,6.3877,57.71,15.8315,108.9534,17.4781,117.8032,2.6777,14.3929,4.0169,21.5893,5.5245,27.4.3569,1.3762.7334,2.8264,1.132,4.3405l5.607,5.6488,77.8583-132.8961Z" style="fill:#1c1c1d"/><path d="M549.9857,1039.87l-35.8914,28.8413q-4.6167,26.8062-9.2332,53.6123c44.7619,2.1673,80.686,2.5686,95.1389,2.6768,9.0581-.0679,26.55-.2505,49.3634-.9109Z" style="fill:#1d1d1d"/><path d="M536,923l-21.9057,145.7109,35.8914-28.8413Z" style="fill:#1e1e1e"/><path d="M702.2768,1121.9663c31.7569-1.64,67.4662-4.1708,102.8886-8.0917,36.454-4.035,70.3225-9.2887,92.5607-13.027l24.543-20.2856L698.5165,980.956Z" style="fill:#1e1e1e"/><path d="M1060.0537,966.6789l33.2828-27.5092c.8273-4.2036,1.793-9.39,3.06-16.2012,1.6465-8.85,11.09-60.0934,17.478-117.8032,3.077-27.7992,5.2982-55.7765,6.9044-81.8813L962.78,822.7143Z" style="fill:#1e1e1e"/><polygon points="549.718 1040.628 648.095 1124.014 644.094 1012.635 549.718 1040.628" style="fill:#1c1c1c"/><polygon points="698.901 995.379 644.094 1011.635 644.258 1016.206 702.258 1121.263 698.901 995.379" style="fill:#1d1d1d"/><path d="M644.2579,1016.2065l3.8374,106.8077,1.2682,1.0749c15.5031-.4487,33.4685-1.1189,52.9134-2.1228l-.0188-.7029Z" style="fill:#1c1c1c"/><path d="M1120.7791,723.284c.7243-11.7713,1.3239-23.1628,1.82-33.9839l-112.4281-86.4832-1.4041,190.9575Z" style="fill:#202020"/><polygon points="813.081 1031.956 1013.288 1005.332 1060.054 966.679 989.128 861.708 810.54 1030.825 813.081 1031.956" style="fill:#1c1c1c"/><path d="M75,600c.1461,19.4972.8249,78.0622,5.6548,144.6986l97.4614,71.3377L78.208,494.4141C75.5734,543.9872,75.1166,584.4391,75,600Z" style="fill:#1d1d1d"/><polygon points="213.482 156.867 133.822 231.625 162.55 427.726 215.986 157.874 213.482 156.867" style="fill:#1e1e1e"/><polygon points="215.986 157.874 162.55 427.726 163.244 432.463 358.425 215.103 215.986 157.874" style="fill:#1c1c1c"/><path d="M394.8347,86.1253c-20.8789,2.311-40.91,5.0219-58.3944,7.619l1.4252,5.96L608.5429,220.5893l-74.7742-144.13C494.6751,77.865,444.4752,80.6307,394.8347,86.1253Z" style="fill:#1e1e1e"/><polygon points="608.543 220.589 337.866 99.704 366.209 218.231 358.425 215.103 350.041 224.439 609.842 223.093 608.543 220.589" style="fill:#1e1e1e"/><polygon points="966.218 390.375 966.492 391.482 969.194 390.174 966.218 390.375" style="fill:#1e1e1e"/><polygon points="1069.639 383.387 969.194 390.174 966.492 391.482 1013.481 581.479 1013.601 581.272 1069.983 383.933 1069.639 383.387" style="fill:#1d1d1d"/><polygon points="1013.601 581.272 1071.607 480.936 1041.479 483.698 1013.601 581.272" style="fill:#1e1e1e"/><polygon points="1069.983 383.933 1041.479 483.698 1071.607 480.936 1100.065 431.711 1069.983 383.933" style="fill:#202020"/><polygon points="413.681 490.407 305.125 274.46 163.294 432.407 413.681 490.407" style="fill:#202020"/><polygon points="120.122 629.343 177.012 812.48 325.745 593.755 120.122 629.343" style="fill:#1d1d1d"/><path d="M328.2308,590.0988,164.6927,442.3506l.549,3.7482L78.33,492.1109c-.0419.7721-.0816,1.5353-.1224,2.3032l41.9142,134.9293,205.6225-35.5885Z" style="fill:#1e1e1e"/><polygon points="335.223 1005.106 335.438 1005.345 390.603 986.557 336.837 855.833 335.223 1005.106" style="fill:#1e1e1e"/><polygon points="1008.533 793.922 1008.767 793.774 1010.086 614.338 842.517 705.615 1008.533 793.922" style="fill:#1e1e1e"/><polygon points="846.678 409.779 828.456 225.642 827.341 225.314 780.382 242.756 674.78 355.901 846.678 409.779" style="fill:#1c1c1c"/><polygon points="965.557 826.824 962.78 822.714 1008.533 793.922 868.334 719.348 839.891 903.702 965.557 826.824" style="fill:#1c1c1c"/><polygon points="177.012 811.48 178.116 815.036 193.725 826.462 190.656 831.701 191.234 844.254 201.053 855.155 314.829 786.48 289.867 645.516 177.012 811.48" style="fill:#1c1c1c"/><polygon points="379.896 482.581 163.294 432.407 163.244 432.463 164.693 442.351 277.693 544.44 379.896 482.581" style="fill:#1c1c1c"/><polygon points="350.041 224.439 305.125 274.46 392.761 448.792 354.698 224.415 350.041 224.439" style="fill:#1e1e1e"/><polygon points="588.004 223.206 357.299 224.402 482.344 353.053 588.004 223.206" style="fill:#1c1c1c"/><polygon points="482.344 353.053 357.299 224.402 354.698 224.415 392.761 448.792 397.221 457.662 482.344 353.053" style="fill:#1e1e1e"/><path d="M966.4923,391.4821,850,449l166,121Z" style="fill:#1c1c1c"/><polygon points="840.044 902.711 868.334 719.348 864.321 717.213 799 868.604 840.044 902.711" style="fill:#1e1e1e"/><polygon points="567.338 248.602 459.126 381.587 543.44 469.835 567.338 248.602" style="fill:#202020"/><polygon points="380.174 482.645 379.896 482.581 277.693 544.44 279.166 545.771 448.495 609.879 380.174 482.645" style="fill:#1e1e1e"/><polygon points="279.166 545.771 328.231 590.099 325.745 593.755 337.725 591.681 325.745 593.755 315.53 608.777 411.711 595.953 279.166 545.771" style="fill:#1e1e1e"/><polygon points="337.689 777.043 336.837 855.833 337.627 857.755 460.562 746.979 337.689 777.043" style="fill:#1e1e1e"/><polygon points="1010.086 614.338 1010.171 602.817 1003.923 598.011 1013.481 581.479 1010.199 568.21 961.396 527.649 864.733 693.514 1010.086 614.338" style="fill:#1d1d1d"/><polygon points="618.081 228.104 613.066 229.308 609.842 223.093 588.004 223.206 567.338 248.602 548.235 425.443 662.905 341.099 618.081 228.104" style="fill:#1e1e1e"/><path d="M961.396,527.649,850,449q16.2341,107.0412,32.468,214.0823Z" style="fill:#1b1b1b"/><polygon points="707.253 984.845 839.891 903.702 840.044 902.711 803.306 872.182 703.977 983.387 707.253 984.845" style="fill:#1d1d1d"/><polygon points="456.011 806.89 452.404 817.161 539.088 785.527 460.163 747.338 337.627 857.755 338.089 858.878 452.404 817.161 456.011 806.89" style="fill:#202020"/><polygon points="338.089 858.878 390.603 986.557 393.11 985.703 392.199 987.736 392.442 987.899 452.404 817.161 338.089 858.878" style="fill:#1d1d1d"/><polygon points="670.024 359.043 669.446 357.586 669.55 359.305 670.024 359.043" style="fill:#1e1e1e"/><path d="M882.4,664.2l.0685-.1174Q866.234,557.0411,850,450L721.8572,642.9231Z" style="fill:#1c1c1c"/><polygon points="315.53 608.777 289.867 646.516 290.217 648.494 326.709 665.946 407.753 596.481 315.53 608.777" style="fill:#202020"/><polygon points="411.711 595.953 407.753 596.481 326.709 665.946 425.999 713.433 417.119 598 411.711 595.953" style="fill:#1c1c1c"/><path d="M850,450l-3-40L675.7112,462.2494l.308,5.0949,121.1927,63.5128Z" style="fill:#1b1b1b"/><polygon points="459.126 381.587 397.221 457.662 402.846 468.852 537.892 464.029 459.126 381.587" style="fill:#1c1c1c"/><polygon points="863.07 716.548 842.517 705.615 846.158 703.632 739.775 645.454 727.32 755.469 863.07 716.548" style="fill:#1e1e1e"/><polygon points="797.212 529.857 676.019 466.344 679.339 521.276 791.115 538.924 797.212 529.857" style="fill:#1d1d1d"/><polygon points="588.907 395.527 548.235 425.443 544.822 457.034 650.585 491.309 588.907 395.527" style="fill:#1c1c1c"/><polygon points="455.234 816.128 533.205 915.092 525.174 790.605 455.234 816.128" style="fill:#1e1e1e"/><polygon points="787.466 889.916 803.306 872.182 799 868.604 801.462 862.898 719.824 766.803 728.978 869.791 787.466 889.916" style="fill:#1e1e1e"/><polygon points="659.348 504.917 650.585 491.309 544.822 457.034 543.497 469.302 605.549 601.571 659.348 504.917" style="fill:#1e1e1e"/><polygon points="538.301 464.457 537.892 464.029 402.846 468.852 413.681 490.407 413.346 490.329 498.736 605.132 538.301 464.457" style="fill:#1e1e1e"/><polygon points="787.466 889.916 728.978 869.791 728.92 869.139 675.8 897.308 770.15 909.302 787.466 889.916" style="fill:#1e1e1e"/><path d="M584,904l114.9,91.3574,5.0766-11.9706q-17.0533-31.4579-34.1066-62.9159Z" style="fill:#1d1d1d"/><polygon points="728.585 865.373 720.508 774.505 577.066 822.319 728.585 865.373" style="fill:#1c1c1c"/><polygon points="543.497 469.302 543.44 469.835 538.301 464.457 502.577 591.476 598.137 585.771 543.497 469.302" style="fill:#202020"/><polygon points="413.346 490.329 380.174 482.645 434.976 584.704 478.185 577.502 413.346 490.329" style="fill:#1e1e1e"/><polygon points="675.8 897.308 728.92 869.139 728.585 865.373 596.904 827.956 655.537 894.732 675.8 897.308" style="fill:#1d1d1d"/><polygon points="679.989 532.022 680.319 537.483 659.348 504.917 620.493 574.724 722.01 602.901 679.989 532.022" style="fill:#1e1e1e"/><polygon points="478.185 577.502 434.976 584.704 448.495 609.879 417.119 598 417.242 599.595 506.517 679.769 497.835 603.92 478.185 577.502" style="fill:#202020"/><polygon points="720.006 774.672 588.275 713 595.522 816.167 720.006 774.672" style="fill:#1e1e1e"/><polygon points="596.623 585.861 502.577 591.476 502.321 592.385 547.659 692.429 596.623 585.861" style="fill:#1e1e1e"/><path d="M739.6378,646.6631l.1369-1.2093q-2.7708-10.9677-5.5419-21.9355L722.01,602.9014l-100.498-27.8949,70.7929,76.5167Z" style="fill:#1c1c1c"/><polygon points="720.508 774.505 719.824 766.803 713.549 759.418 727.32 755.469 727.335 755.341 727.42 754.588 727.035 754.215 606.112 721.351 720.006 774.672 720.508 774.505" style="fill:#1e1e1e"/><polygon points="417.242 599.595 425.999 713.433 480.919 739.699 417.899 600.186 417.242 599.595" style="fill:#1e1e1e"/><polygon points="505.931 674.657 544.25 684.905 502.321 592.385 498.736 605.132 497.835 603.92 505.931 674.657" style="fill:#1c1c1c"/><polygon points="598.137 585.771 596.623 585.861 563.815 657.267 605.038 600.48 598.137 585.771" style="fill:#1e1e1e"/><polygon points="592.414 771.927 588.799 720.46 530.08 781.169 536.26 784.159 592.414 771.927" style="fill:#202020"/><polygon points="692.305 651.523 621.512 575.007 620.493 574.724 619.876 575.831 634.033 657.506 692.305 651.523" style="fill:#1e1e1e"/><polygon points="727.035 754.215 631.618 661.806 606.218 721.38 727.035 754.215" style="fill:#1c1c1c"/><polygon points="631.618 661.806 627.835 658.143 634.033 657.506 619.876 575.831 605.549 601.571 605.038 600.48 563.815 657.267 560.729 663.983 623.421 681.03 631.618 661.806" style="fill:#1e1e1e"/><polygon points="586.14 723.209 588.799 720.46 588.275 713 606.112 721.351 606.218 721.38 623.421 681.03 560.729 663.983 547.659 692.429 545.429 687.508 512.486 745.261 512.611 745.998 586.14 723.209" style="fill:#1e1e1e"/><polygon points="512.486 745.261 545.429 687.508 544.25 684.905 505.931 674.657 506.517 679.769 500.445 674.316 512.486 745.261" style="fill:#1e1e1e"/><polygon points="586.14 723.209 512.611 745.998 512.647 746.211 512.846 746.231 512.647 746.211 517.551 775.106 530.08 781.169 586.14 723.209" style="fill:#1e1e1e"/><polygon points="500.445 674.316 417.899 600.186 480.919 739.699 484.099 741.22 477.776 742.767 512.647 746.211 500.445 674.316" style="fill:#1e1e1e"/><polygon points="512.647 746.211 477.776 742.767 460.562 746.979 460.163 747.338 517.551 775.106 512.647 746.211" style="fill:#1e1e1e"/><polygon points="595.522 816.167 592.414 771.927 536.26 784.159 539.088 785.527 525.174 790.605 525.488 795.473 595.125 816.299 595.522 816.167" style="fill:#1e1e1e"/><polygon points="727.42 754.588 739.638 646.663 627.835 658.143 727.42 754.588" style="fill:#202020"/><polygon points="655.396 894.714 655.537 894.732 596.904 827.956 577.066 822.319 595.125 816.299 525.488 795.473 525.599 797.194 553.745 850.039 655.561 895.008 655.396 894.714" style="fill:#1e1e1e"/><path d="M669.8705,920.4709l-14.31-25.4628-101.816-44.9688,27.6218,51.8616Z" style="fill:#1f1f1f"/><path d="M581.3666,901.9009,525.5989,797.1941,536,923Z" style="fill:#1d1d1d"/><polygon points="791.115 538.924 679.339 521.276 679.989 532.022 734.233 623.518 791.115 538.924" style="fill:#1e1e1e"/><polygon points="704.745 982.527 770.15 909.302 655.396 894.714 704.745 982.527" style="fill:#1e1e1e"/><path d="M698.9005,995.3574,584,904q29.647,53.9362,59.2942,107.8723Z" style="fill:#1c1c1c"/><path d="M586.337,908.6751l-46.962,12.9064Q544.6876,980.7909,550,1040,568.1685,974.3375,586.337,908.6751Z" style="fill:#1f1f1f"/><path d="M643.2942,1011.8723,581,902l-31.6365,137.3273.3547.3006Z" style="fill:#1d1d1d"/><path d="M523.483,1017.3906Q529.7415,970.1954,536,923L455.2337,816.1283l-1.3993.5106,57.6462,251.103.7985.5357Q517.881,1042.834,523.483,1017.3906Z" style="fill:#1d1d1d"/><polygon points="864.733 693.514 882.4 663.2 736.984 643.928 846.158 703.632 864.733 693.514" style="fill:#1e1e1e"/><polygon points="846.845 411.465 846.678 409.779 675.373 356.087 670.024 359.043 670.033 359.066 670.024 359.043 669.55 359.305 675.711 461.249 846.845 411.465" style="fill:#1c1c1c"/><polygon points="801.462 862.898 864.321 717.213 863.07 716.548 713.549 759.418 801.462 862.898" style="fill:#202020"/><polygon points="669.55 359.305 669.506 359.33 669.55 359.305 669.446 357.586 662.905 341.099 588.907 395.527 680.319 537.483 669.55 359.305" style="fill:#1e1e1e"/><polygon points="484.34 949.519 483.168 949.988 439.189 1019.254 511.481 1067.742 484.34 949.519" style="fill:#1c1c1c"/><polygon points="393.105 986.013 392.442 987.899 439.189 1019.254 483.168 949.988 393.105 986.013" style="fill:#1e1e1e"/><polygon points="453.834 816.639 452.404 817.161 393.105 986.013 484.34 949.519 453.834 816.639" style="fill:#1c1c1c"/><polygon points="675.373 356.087 674.78 355.901 780.382 242.756 769.725 246.714 751.632 196.052 618.081 228.104 670.024 359.043 675.373 356.087" style="fill:#202020"/><polygon points="290.217 648.494 314.829 787.48 337.725 773.659 337.689 777.043 484.099 741.22 290.217 648.494" style="fill:#1d1d1d"/><polygon points="966.492 391.482 966.219 390.375 962.189 390.647 963.868 392.753 966.492 391.482" style="fill:#202020"/><polygon points="933.693 256.629 831.262 226.468 960.836 388.951 933.693 256.629" style="fill:#1e1e1e"/><polygon points="962.189 391.647 961.198 391.714 960.836 389.951 831.262 227.468 828.456 226.642 850.429 448.681 963.868 393.753 962.189 391.647" style="fill:#1d1d1d"/><polygon points="336.837 855.833 336.311 854.555 201.374 856.51 262.798 924.701 336.824 857.02 336.837 855.833" style="fill:#1e1e1e"/><polygon points="336.824 857.02 262.798 924.701 335.223 1005.106 336.824 857.02" style="fill:#1f1f1f"/><polygon points="332.978 846.451 336.311 854.555 336.851 854.547 337.725 773.659 201.053 856.155 201.374 856.51 336.311 854.555 332.978 846.451" style="fill:#1d1d1d"/><polygon points="336.311 854.555 336.837 855.833 336.851 854.547 336.311 854.555" style="fill:#1e1e1e"/><polygon points="810.54 1030.825 989.128 861.708 965.557 826.824 707.253 984.845 810.54 1030.825" style="fill:#202020"/><polygon points="204.714 1049.867 335.438 1005.345 262.695 924.588 203.084 1048.226 204.714 1049.867" style="fill:#1e1e1e"/><polygon points="262.695 924.588 191.234 845.254 200.46 1045.582 203.084 1048.226 262.695 924.588" style="fill:#1d1d1d"/><polygon points="190.656 832.701 115.867 960.358 116.494 960.989 196.004 948.829 190.656 832.701" style="fill:#1e1e1e"/><polygon points="196.004 948.829 116.494 960.989 200.46 1045.582 196.004 948.829" style="fill:#1f1f1f"/><path d="M338.9372,1106.6248q3.0195.4442,6.1363.8911l70.9549-17.1436-24.119-101.9891Z" style="fill:#1e1e1e"/><polygon points="392.199 987.736 391.909 988.383 415.896 1089.812 437.903 1018.391 392.199 987.736" style="fill:#1f1f1f"/><path d="M514,1069l-76.0967-50.6087-22.0075,71.42.1326.5608Z" style="fill:#1d1d1d"/><path d="M504.8611,1122.3232,514,1069l-168.9265,38.5159c15.3225,2.1987,32.2414,4.4194,49.7612,6.3587C432.9368,1118.092,471.3714,1120.7018,504.8611,1122.3232Z" style="fill:#1b1b1b"/><polygon points="922.269 1080.562 1013.288 1005.332 813.081 1031.956 922.269 1080.562" style="fill:#1e1e1e"/><path d="M1119.9026,464.2167l-19.8372-31.5059-27.209,47.0642,52.14,120.745C1124.8491,581.3752,1124.1934,527.0262,1119.9026,464.2167Z" style="fill:#1b1b1b"/><path d="M1072.6164,478.7562l-68.6612,119.3927,118.8838,91.0184c1.8309-42.04,2.1252-75.4858,2.1972-89.3054-.0014-.151-.0031-.3244-.0047-.48Z" style="fill:#1c1c1c"/><path d="M393.11,985.7033l-188.3965,64.1639,39.22,39.5129c2.0073.5333,3.9182,1.03,5.698,1.4921,1.1812.3065,2.4255.6063,3.77.9115L391.6144,989.0416Z" style="fill:#1c1c1c"/><path d="M338.9372,1106.6247l52.6772-117.5831L253.4018,1091.7837c5.27,1.196,12.1627,2.48,23.63,4.6129C282.831,1097.4756,306.8369,1101.903,338.9372,1106.6247Z" style="fill:#1d1d1d"/><path d="M133.8221,231.625,107.597,256.2362c-1.0364,4.9057-2.2212,11.27-3.9935,20.7953-1.6466,8.85-11.09,60.0933-17.4781,117.8032-3.6913,33.3488-6.1515,66.9556-7.795,97.2762l86.9113-46.0121Z" style="fill:#202020"/><path d="M922.9686,1096.3966c14.3929-2.6778,21.5893-4.017,27.4-5.5244,21.5687-5.5954,60.8266-15.7975,93.9884-46.5147,30.7176-33.162,40.92-72.42,46.5155-93.9892.7941-3.0609,1.5432-6.5191,2.4642-11.1986l-195.61,161.6779C910.693,1098.6679,919.709,1097.003,922.9686,1096.3966Z" style="fill:#202020"/></g><path d="M1083.8552,94.806a34.34,34.34,0,0,1,4.049,4.3633c.8171.8857,1.5838,1.8179,2.4179,2.781l3.7857-3.2986.0949.0529c-.0531.19-.0986.3822-.16.5693q-2.1466,6.51-4.2947,13.02c-.0788.2392-.1523.416-.4645.4686q-7.0632,1.1883-14.1214,2.4059a2.0916,2.0916,0,0,1-.2507-.0014l3.9743-3.4487c-.1464-.1806-.2626-.3313-.3863-.4756q-4.3714-5.1-8.7432-10.2a9.784,9.784,0,0,0-4.9391-3.3322c.2479-.0692.382-.1171.52-.1436q7.9363-1.5254,15.8751-3.0385a12.5659,12.5659,0,0,1,1.5522-.1047Z" style="fill:#54cc94"/><path d="M1101.2179,147.8893c-.1818.2542-.3512.5183-.5477.7605a3.5621,3.5621,0,0,1-2.1879,1.2424c-2.4734.4774-4.9445.9666-7.4163,1.4522-.1693.0332-.337.075-.5551.124l1.0042,5.0805c-.2123-.2168-.3319-.3287-.44-.4507q-4.5387-5.1277-9.0827-10.25a.82.82,0,0,1-.1736-.971q2.3529-6.3546,4.6671-12.7235c.0591-.1615.1141-.3245.171-.4868l.1362-.0064.902,4.9593c.2181-.0339.3882-.0557.5565-.0872,4.2127-.7879,8.4187-1.6139,12.64-2.3508a10.669,10.669,0,0,0,6.0974-2.7556Z" style="fill:#54cc94"/><path d="M1061.8484,155.3591c-.4424-.3347-.9154-.6361-1.322-1.01a7.0223,7.0223,0,0,1-2.2142-7.6488c.463-1.559,1.0391-3.0849,1.5843-4.6185a.6163.6163,0,0,1,.38-.35c5.1851-.997,10.3733-1.9781,15.6129-2.9712l2.7206,14.8448c-.1917.0411-.3594.0806-.5286.1129-3.7963.7243-7.5878,1.4753-11.3925,2.1521a22.632,22.632,0,0,1-2.9563.1491Z" style="fill:#54cc94"/><path d="M1066.6923,133.471l-4.88-1.7109c-.0786.1637-.1481.2792-.1917.4036q-2.3746,6.7665-4.7445,13.5346a8.511,8.511,0,0,0-.2012,5.2958c-.2-.196-.3079-.2875-.3993-.3933q-5.2994-6.1366-10.5973-12.2746a3.78,3.78,0,0,1-.7589-3.9631q1.21-3.4728,2.4317-6.9413l.2131-.6079-4.7489-1.6647.0052-.1161a3.0845,3.0845,0,0,1,.3526-.117q6.837-1.4092,13.6773-2.8022a.7006.7006,0,0,1,.5732.1614q4.5846,5.4711,9.1381,10.9681C1066.5833,133.27,1066.5966,133.3037,1066.6923,133.471Z" style="fill:#54cc94"/><path d="M1065.7752,120.5418l-14.26-4.999.1923-.5486q1.9377-5.5275,3.8761-11.0548a7.12,7.12,0,0,1,8.7541-4.6685,7.8351,7.8351,0,0,1,3.6686,2.3482c1.018,1.0825,1.9819,2.2164,2.9506,3.344a.66.66,0,0,1,.1276.5393q-2.5861,7.4433-5.2057,14.8749A1.0574,1.0574,0,0,1,1065.7752,120.5418Z" style="fill:#54cc94"/><path d="M1086.8347,120.9181l11.4784-9.8134c.1157.1257.21.222.2976.3242,2.5491,2.9762,5.0224,6.0216,7.6643,8.9131a7.1653,7.1653,0,0,1-3.4043,11.7c-1.7367.47-3.5185.774-5.2836,1.1343a.5539.5539,0,0,1-.439-.168q-5.1515-5.9868-10.2837-11.99A.441.441,0,0,1,1086.8347,120.9181Z" style="fill:#54cc94"/><path d="M148.4576,102.33a34.3484,34.3484,0,0,1,1.79,5.6772c.3588,1.15.6522,2.3211.9934,3.5487l4.8337-1.3588.0631.0884c-.1292.1488-.2528.3032-.3886.4457q-4.7286,4.9629-9.4582,9.9247a.5435.5435,0,0,1-.6205.2244q-6.8911-1.9521-13.7906-3.8754a2.104,2.104,0,0,1-.2259-.1087l5.0685-1.4137c-.0549-.2259-.0954-.4119-.1453-.5953q-1.7652-6.481-3.5308-12.9618a9.784,9.784,0,0,0-3.0355-5.1268c.2536.0437.3952.0578.5314.093q7.8247,2.0216,15.6463,4.0551a12.5766,12.5766,0,0,1,1.4475.57Z" style="fill:#54cc94"/><path d="M141.4061,157.7333c-.2731.1518-.5394.3178-.8206.4525a3.5618,3.5618,0,0,1-2.5092.1854q-3.6593-.9423-7.3235-1.8649c-.1672-.0425-.3367-.0766-.5547-.1258l-1.269,5.0209c-.099-.2868-.1591-.4391-.2045-.5957-1.27-4.3851-2.5316-8.7724-3.8159-13.1532a.82.82,0,0,1,.2592-.9517q4.8483-4.7341,9.6678-9.4976c.1226-.1206.2421-.2443.363-.3666l.1258.0526-1.3094,4.8675c.2116.0629.3746.116.54.16,4.144,1.0927,8.2984,2.1481,12.4287,3.2907a10.6687,10.6687,0,0,0,6.69.1222Z" style="fill:#54cc94"/><path d="M102.6321,147.6175c-.2563-.492-.5546-.967-.762-1.4788a7.0226,7.0226,0,0,1,1.2759-7.86c1.0863-1.21,2.26-2.3423,3.41-3.4946a.6165.6165,0,0,1,.4935-.1533c5.1124,1.32,10.2207,2.6564,15.3806,4.0036l-3.901,14.5792c-.1909-.045-.3594-.0811-.526-.1244-3.7406-.9719-7.4883-1.9175-11.2162-2.9358a22.6516,22.6516,0,0,1-2.7352-1.1318Z" style="fill:#54cc94"/><path d="M116.3857,129.9146l-3.6771-3.6367c-.1411.1143-.2533.1888-.3461.2826q-5.0443,5.0969-10.0851,10.1973a8.51,8.51,0,0,0-2.45,4.699c-.0969-.2628-.1552-.3917-.1924-.5264q-2.16-7.8153-4.3173-15.631a3.78,3.78,0,0,1,1.0119-3.9062q2.5809-2.62,5.1709-5.23l.453-.458-3.5779-3.5386.0544-.1027a3.0634,3.0634,0,0,1,.3687.0454q6.7815,1.6554,13.5592,3.3271a.7008.7008,0,0,1,.4488.3914q1.7988,6.9077,3.5585,13.8254C116.3733,129.6862,116.3709,129.7224,116.3857,129.9146Z" style="fill:#54cc94"/><path d="M121.0958,117.8389l-10.744-10.626.4087-.4133q4.1189-4.1644,8.2382-8.3285a7.12,7.12,0,0,1,9.91-.4683,7.8341,7.8341,0,0,1,2.309,3.6934c.4561,1.4142.8414,2.8517,1.2337,4.2856a.66.66,0,0,1-.1158.542q-5.5256,5.6178-11.0761,11.2108A1.0491,1.0491,0,0,1,121.0958,117.8389Z" style="fill:#54cc94"/><path d="M139.9637,127.2006l14.5758-3.95c.0507.1631.0947.2906.13.42,1.0284,3.7813,1.9587,7.5927,3.1072,11.3372a7.1654,7.1654,0,0,1-8.0881,9.1133c-1.77-.32-3.5108-.8079-5.26-1.2386a.5537.5537,0,0,1-.3247-.34q-2.09-7.6164-4.1559-15.24A.4448.4448,0,0,1,139.9637,127.2006Z" style="fill:#54cc94"/><path d="M1052.7032,1097.111a34.3467,34.3467,0,0,1-1.6772-5.7114c-.336-1.1572-.6063-2.3336-.9231-3.5676l-4.86,1.2631-.0613-.09c.1322-.1463.2587-.2982.3974-.438q4.8255-4.8686,9.6522-9.7361a.5435.5435,0,0,1,.6248-.212q6.8514,2.0875,13.7114,4.1469a2.0891,2.0891,0,0,1,.2238.113l-5.0955,1.3134c.0505.227.0873.4137.1336.5981q1.637,6.5145,3.2742,13.029a9.7845,9.7845,0,0,0,2.9337,5.1857c-.2527-.0487-.394-.0656-.5295-.1035q-7.7832-2.1756-15.5632-4.3632a12.5716,12.5716,0,0,1-1.4359-.5988Z" style="fill:#54cc94"/><path d="M1060.8469,1041.8572c.2761-.1463.5456-.3071.83-.4362a3.5618,3.5618,0,0,1,2.5124-.1358q3.64,1.0143,7.2851,2.0091c.1665.0458.3352.0832.5522.1367l1.3679-4.9949c.0933.2888.15.4422.1926.6,1.1828,4.4093,2.358,8.8207,3.5555,13.226a.82.82,0,0,1-.2779.9464q-4.9407,4.6375-9.8534,9.3049c-.1249.1182-.2468.24-.37.3593l-.1248-.055,1.4053-4.8407c-.21-.067-.3723-.1234-.5369-.17-4.1217-1.1743-8.2545-2.3116-12.3614-3.5355a10.6691,10.6691,0,0,0-6.6863-.2542Z" style="fill:#54cc94"/><path d="M1099.4138,1052.7365c.2465.4969.5354.9777.7326,1.4935a7.0225,7.0225,0,0,1-1.4308,7.8332c-1.11,1.1887-2.3063,2.2973-3.4785,3.4266a.6158.6158,0,0,1-.4963.1436c-5.0854-1.421-10.1663-2.8576-15.2987-4.3064l4.1881-14.4994c.19.0488.3577.0882.5235.1348,3.7206,1.0455,7.449,2.0649,11.156,3.1566a22.6331,22.6331,0,0,1,2.7123,1.1856Z" style="fill:#54cc94"/><path d="M1085.3134,1070.1644l3.6045,3.7086c.1434-.1115.257-.1838.3516-.2757q5.1441-4.9963,10.2845-9.9963a8.5093,8.5093,0,0,0,2.5427-4.65c.0916.2647.1474.3947.182.53q2.0049,7.8564,4.0079,15.7132a3.78,3.78,0,0,1-1.0889,3.8854q-2.632,2.5683-5.2731,5.1273l-.4619.449,3.5073,3.6086-.0565.1015a3.0661,3.0661,0,0,1-.3676-.0526q-6.7476-1.789-13.4909-3.5941a.7006.7006,0,0,1-.441-.4q-1.6621-6.9417-3.2849-13.8929C1085.3212,1070.393,1085.3244,1070.3568,1085.3134,1070.1644Z" style="fill:#54cc94"/><path d="M1080.3659,1082.1447l10.5321,10.8361-.4169.4051q-4.2,4.0824-8.401,8.1643a7.12,7.12,0,0,1-9.9174.2726,7.8355,7.8355,0,0,1-2.2356-3.7383c-.4281-1.423-.7849-2.8678-1.1488-4.3091a.66.66,0,0,1,.1264-.54q5.6353-5.5075,11.2953-10.99A1.0559,1.0559,0,0,1,1080.3659,1082.1447Z" style="fill:#54cc94"/><path d="M1061.6864,1072.4124l-14.651,3.6615c-.0475-.1641-.0889-.2923-.1217-.4228-.9535-3.8009-1.8083-7.63-2.8827-11.3963a7.1653,7.1653,0,0,1,8.2664-8.9518c1.7638.3545,3.4942.877,5.2347,1.3422a.554.554,0,0,1,.3179.3462q1.9394,7.6561,3.8542,15.3186A.44.44,0,0,1,1061.6864,1072.4124Z" style="fill:#54cc94"/><path d="M159.9145,1064.2871a34.34,34.34,0,0,1-1.4716,5.7678c-.3013,1.1667-.6691,2.3163-1.0262,3.5393l4.824,1.393.0071.1084c-.1883.0584-.3747.1244-.5653.174q-6.6342,1.7251-13.2687,3.449a.5436.5436,0,0,1-.6456-.1364q-4.8274-5.2911-9.6769-10.5622a2.1052,2.1052,0,0,1-.1347-.2114l5.0525,1.47c.0724-.2209.136-.4.19-.5825q1.916-6.438,3.8314-12.8762a9.7836,9.7836,0,0,0,.1226-5.9567c.1925.1708.3054.2575.4026.3591q5.584,5.8422,11.1591,11.693a12.5567,12.5567,0,0,1,.9295,1.2476Z" style="fill:#54cc94"/><path d="M124.72,1107.6535c-.3121-.015-.6259-.0143-.9359-.048a3.5626,3.5626,0,0,1-2.23-1.165q-2.6129-2.73-5.2406-5.4449c-.12-.1243-.2458-.2425-.4052-.3993l-3.7248,3.598c.0671-.2959.0963-.457.14-.614,1.2323-4.3957,2.4722-8.7893,3.69-13.189a.82.82,0,0,1,.7219-.6722c4.41-.9785,8.8154-1.98,13.2218-2.9756.1677-.0379.3345-.08.5017-.12l.0792.111-3.6784,3.4463c.1468.165.2573.2961.375.4205,2.9457,3.1128,5.92,6.1994,8.8276,9.3474a10.6691,10.6691,0,0,0,5.621,3.63Z" style="fill:#54cc94"/><path d="M97.1009,1078.62c.0415-.5532.0384-1.1141.1319-1.6583a7.0224,7.0224,0,0,1,5.2271-6.007c1.5611-.456,3.1556-.7991,4.74-1.1724a.6159.6159,0,0,1,.5.13c3.6487,3.8166,7.2856,7.6445,10.9606,11.5091l-11,10.3335c-.1385-.1388-.2626-.2584-.3814-.383-2.6666-2.7974-5.353-5.5764-7.9843-8.4066a22.6488,22.6488,0,0,1-1.7279-2.4035Z" style="fill:#54cc94"/><path d="M118.12,1070.8249l-1.208-5.0286c-.18.0227-.3148.027-.443.0577q-6.9732,1.6726-13.9453,3.35a8.51,8.51,0,0,0-4.5592,2.7018c.0562-.2744.0746-.4147.114-.5488q2.2839-7.78,4.57-15.5591a3.78,3.78,0,0,1,2.9188-2.7861q3.5741-.8661,7.1511-1.7194l.6264-.15-1.1754-4.893.1-.0585a3.0752,3.0752,0,0,1,.2894.2328q4.89,4.9814,9.7691,9.9742a.7.7,0,0,1,.1751.5692q-2.1121,6.8184-4.2629,13.6247C118.23,1070.6243,118.2085,1070.6538,118.12,1070.8249Z" style="fill:#54cc94"/><path d="M128.4872,1063.0454l-3.53-14.6931.5652-.1358q5.6952-1.3682,11.3907-2.7355a7.12,7.12,0,0,1,8.6686,4.8254,7.8336,7.8336,0,0,1,.0155,4.3557c-.3578,1.4423-.7881,2.867-1.21,4.2923a.66.66,0,0,1-.3841.3995q-7.6566,1.8618-15.3216,3.6892A1.05,1.05,0,0,1,128.4872,1063.0454Z" style="fill:#54cc94"/><path d="M139.5872,1080.946l14.4688,4.3258c-.0429.1654-.0727.2968-.1111.4257-1.1191,3.7555-2.3375,7.4848-3.3351,11.2722a7.1653,7.1653,0,0,1-11.6767,3.4816c-1.3361-1.2047-2.5578-2.537-3.8174-3.825a.5543.5543,0,0,1-.0968-.46q2.2383-7.5743,4.5008-15.1413C139.5242,1081.01,139.5418,1080.9983,139.5872,1080.946Z" style="fill:#54cc94"/></svg>