<svg id="pizza" xmlns="http://www.w3.org/2000/svg" xmlns:xlink="http://www.w3.org/1999/xlink" viewBox="0 0 580.0876 241.3458"><defs><radialGradient id="radial-gradient" cx="227.3192" cy="1284.1487" r="500.476" gradientTransform="matrix(0.3812, 0.9245, -0.7361, 0.3035, 1231.3016, -46.7128)" gradientUnits="userSpaceOnUse"><stop offset="0" stop-color="#dc4343"/><stop offset="0.5214" stop-color="#e7645b"/><stop offset="0.6283" stop-color="#e8685e"/><stop offset="0.7524" stop-color="#e8625a"/><stop offset="0.9191" stop-color="#e9514e"/><stop offset="1" stop-color="#e94646"/></radialGradient></defs><g id="ham_a"><g id="_Layer_" data-name=" Layer "><path d="M192.8461,626.4224c2.2352-47.6843,12.2936-59.5123,12.0142-75.7176-6.7987-30.92,2.0489-56.2526,9.6859-56.532.4657,18.9993,1.9558,57.929,1.9558,77.1146l.0931.0931-.0931-.0931,11.7348,48.6156c4.5635,6.3331,9.22,12.573,13.7837,18.9062,118.4658,27.94,348.878-20.21,467.6232-38.8366,11.5486-36.5083,52.62-113.716,16.1121-139.0484-7.73-5.588-27.0087-10.0584-24.2147-10.71-12.9455-1.9558-27.4743-3.7254-27.4743-4.0048,0-.1862,16.5778,1.3039,32.5036,1.9558,10.5241-.3726,15.5532,2.4214,24.1216,5.3085,12.8524,1.77,23.2833,7.2645,33.6211,32.9693,4.5636,13.6906,4.9361,28.4988,4.9361,42.9345-1.397,35.0182.2795,71.9922-8.6614,105.8927-2.6078,4.0048-7.2645,6.0537-11.7348,7.5438-25.1461,9.8721-51.41,3.7254-76.9282-.5588-15.6465-1.49-31.2929,1.49-46.9393,2.8872-24.4942,2.2352-49.1746.5587-73.6686,2.6077-64.169,5.3086-144.0775,43.8659-203.031,28.2195-30.6409-7.5438-51.7821-11.4554-82.1437-11.7348-24.0284,1.397-46.0079,14.0632-66.87.1863C194.4293,660.4161,191.5422,653.6174,192.8461,626.4224Z" transform="translate(-189.1616 -438.3346)" style="fill:#e46557"/></g><path d="M756.6761,523.7893c-1.2108,10.8035-4.8429,21.2345-6.3331,32.038-3.6323,21.3276,7.6369,80.933-27.4744,71.8058-75.9969-27.0087-99.4666-20.3962-171.645,6.6125-36.3221,8.7546-75.0656.6519-111.4808,9.1271-16.6709,3.9116-32.3173,11.176-48.9882,15.2739-46.9393,13.4113-75.2518-8.2889-117.6275-12.2-24.0285-.6519-49.2677,19.0923-72.4579,7.9163-6.7987-5.2154-6.7056-15.367-5.8674-23.9352,4.0979-44.1453,7.8233-65.566,8.1958-87.4524,0,0-4.9361-29.6165-1.0245-43.9589,2.98-15.8327,21.8864-18.3473,33.8075-17.6023,11.8279-.6519,6.6124-1.0244,23.2833-2.1421,13.5044-.9313,27.7538-1.8627,43.7728-1.3039,27.94.9313,27.8469,5.3086,55.6938,5.6811,13.5043.1862,27.5674-.6519,32.131-.9313,65.1934-3.3528,51.6891-19.1855,129.083-38.371,29.244-7.1712,59.7917-6.5193,89.8738-5.1223C670.3414,442.9494,765.4307,435.2194,756.6761,523.7893Z" transform="translate(-189.1616 -438.3346)" style="fill:url(#radial-gradient)"/><g id="_Layer_2" data-name=" Layer 2"><path d="M196.0126,655.8526c20.7688,13.6906,42.7483,1.2108,66.4973-.1862,30.3615.1862,51.2234,4.0979,81.6781,11.5486,58.581,15.367,138.1169-22.6315,201.9133-27.8469,24.3079-1.9558,48.8951-.3726,73.2029-2.6078,15.5533-1.397,31.1066-4.2841,46.66-2.8871,25.3322,4.191,51.5028,10.2446,76.5556.5587,8.7546-2.1421,14.7152-9.0339,14.7152-18.161a804.9148,804.9148,0,0,0,5.588-93.506c2.4214-27.1018-8.8477-68.36-32.038-73.5755a46.7078,46.7078,0,0,1-14.0631-4.0047c-5.4949-2.4215-16.2052-2.4215-16.2052-2.4215-36.974.6519-48.3363-1.7695-5.8675,2.794,22.2589,3.5391,24.5873,7.6369,24.96,9.6859.28,6.7988-6.4262,12.2-12.7592,12.48-2.2352,0-2.794-.8382-11.3622-2.5145-4.6567-1.5833-3.3528,2.98.0931,4.3772,11.5485-1.3039,9.9652,5.7742,1.8626,10.6172-7.0781,9.9653-8.1025,23.656-16.5778,32.8762-5.0292,5.6811-12.6661,6.7056-19.1854,3.4459-8.1026-1.6765-10.8035.7451-13.3182-1.397-3.0734-2.6078-1.3039-9.3134-4.5635-14.8083-1.9558-2.8871-2.0489-1.1175-2.794,2.98-.8383,3.7253-1.3039,4.0047-1.3039,5.8674,0,1.77.4656,2.2352.0931,2.8871-.4657.8383-1.8627,1.49-6.5194.7451-4.0047-.8382-15.8327,2.6078-20.8619,3.4459-5.3085,1.397-12.1073-7.3575-12.1073-7.4506-.2795.1862,2.2352,4.5635,3.1665,8.6614.9314,1.6765-.9313,5.3086-1.3039,5.8675,5.0293-.9314,32.3173-11.6417,39.9543-.7451.6519,5.588-6.3331,32.5967-9.4064,35.5769-4.0979,3.6322-11.0829,8.1026-16.5778,6.1468-3.4459-1.8627-8.1958-7.2645-8.4752-6.5194-1.49.2795-1.397,3.5392-3.0734,8.1026-1.2108,3.1666-2.6078,5.1224-5.3086,9.0339-6.7988,9.5928-16.2983,16.0189-4.0048,8.5682a69.2123,69.2123,0,0,0,8.1958-6.4262c6.24-7.3576,9.3134-8.6614,17.6023-6.8919,25.6117.28,17.23-22.9108,33.6211-30.5478,4.8429-6.5194.8383-16.2984,13.3182-11.176,4.5635.6519,8.4751-4.0979,13.0387-4.0048a69.1478,69.1478,0,0,0,8.1957,1.2108c6.1468,5.8674,1.3039,15.8327,0,22.9108-.7451,4.9361-.5587,10.0584.2795,10.2447.1862,1.3039,5.6811-13.5975,5.4949-13.3182,1.49-5.4949-.0931-5.9605,1.1175-13.2249.8383-5.4018,1.9558-6.1468,1.2108-8.8477-1.397-3.0734-2.0489-6.1467.5588-8.7545,1.1176-7.4507,3.4459-16.95,13.5975-16.0189,5.4018,2.3283,10.3378.6519,14.4357,2.0489,4.191,2.1421,8.7545,5.3085,10.5241,9.9652,1.0244,3.8184-2.2352,5.0292-4.0048,11.8279-1.397,7.2645.8382,13.97-3.3528,21.2345-2.0489,1.7695-2.1421,3.5391-3.26,6.0536-4.75,7.2645-12.2,12.5731-16.764,20.1169-9.6859,4.0047-14.1562.4656-19.1855-5.3086-.6518.3725-.0931,4.0048,1.6765,7.2644,2.4214,4.3773,4.6567,4.75,4.5636,7.1713-.0932,2.7009-3.0735,2.98-4.0048,6.985a7.3327,7.3327,0,0,1-2.794,4.6567c-8.9408,2.794-7.73,11.6416-18.9062,8.1025-8.7545-1.3039-16.95,1.3039-24.68,5.1224-7.0782,2.5145-12.2,1.8626-18.068,1.9558-18.44.2794-23.19,8.1025-34.3662,3.9115-12.2005-4.2841-7.1713-12.48-7.8233-17.3228-2.3283-1.5832-15.9258,14.9014-18.3472,17.7885-33.2486,38.8366-101.6086,8.8477-169.0373,29.71-14.4356,4.47-28.9644,10.3378-44.0521,9.4064-6.6124-.3725-24.96-2.4214-29.71-7.4506-6.5193-6.8919,4.6567-9.5,10.8035-11.3623,9.9653-2.98,16.6709-11.9211,24.0284-19.2786,12.573-11.3622,26.3568-23.19,42.0963-29.8958,7.2644-2.2352,15.0877-1.6764,22.7246-1.9558,11.828-.4656,16.6709-5.6811,31.1066-6.24,25.8911.1863,51.0372,1.77,63.2376-6.3331-27.3812,12.6661-44.5178-2.3283-64.2621-.0931-.3725.0931-15.1807,3.5391-20.955,4.3772-14.9945,1.9558-31.1066-2.6077-44.7041,3.9116-5.9605,2.8871-10.8034,7.6369-16.4846,10.8966-11.176,5.6811-24.4941,8.1958-36.974,8.5682-9.779-.5588-18.9061-6.3331-28.6851-5.3086-5.0292,1.397-9.4065-.1862-13.225-3.7253-11.6416-7.8232-28.4057.2794-40.9787-5.9606-1.7695-.9313-4.191-4.0979-8.1026-4.191-4.191.6519-5.9606-.6519-6.5194-4.5635,9.5928-16.3915,39.3955-18.9993,55.4145-24.7735,7.2644-.6519,13.4112-9.5,20.3962-7.5438a36.8651,36.8651,0,0,1-11.0829,13.1318c10.431-1.77,16.95-12.0142,25.8911-17.6023,30.8272-16.2983,37.5328,17.23,82.0506-4.8429-44.89,11.6417-40.6062-3.4458-73.948-4.2841-13.5044-.4656-25.9843,2.5146-35.67,11.4555-11.828-.4657-34.2731,12.7592-52.9,8.8477a36.8226,36.8226,0,0,0-12.7593.9313c-4.0979-1.1175-15.1808-1.5832-17.6954-7.2644-2.3283-6.6125,1.6764-9.4065,1.9558-14.0632-1.0245-4.0979-3.446-6.6124,1.2107-8.8477,16.5778-9.8721,28.8714-2.6077,43.0277-6.24,10.4309-6.4262,21.7932-10.2446,33.8074-12.7592-8.2889.8382-17.1366,0-24.401,3.9116-5.4949,3.8184-11.176,7.3575-18.2541,6.3331a268.6187,268.6187,0,0,0-33.528.6519c-14.1563,3.5391-13.97-11.2692-12.48-19.8375C194.2429,499.3881,197.4094,518.48,200.39,532.73,208.865,535.8967,175.337,635.4564,196.0126,655.8526ZM722.5893,475.36c3.8184-9.8721,12.0142,2.98,14.5288,7.6369-1.0245,1.5832,6.6124,12.0143-1.2108,13.5975-4.4705.9313-6.7056-6.1468-12.3868-5.4018-2.5146.7451-6.4262.1862-8.382-2.2352-.4657-.4657-5.2155-5.1224-4.0048-7.2645C714.1141,480.11,720.354,480.5754,722.5893,475.36ZM697.1638,598.948c4.9361-12.3868,16.2983-12.48,22.1658-22.8177,5.4949-6.7056,7.3576-15.9258,11.0829-21.7,4.0048-6.8919,4.9361-4.9361,9.22-11.3622,2.4215-4.0048,3.7254-.2794,3.8185,2.6078.4657,4.75-.9313,6.1468-1.1176,10.2447-.3725,6.5193,2.7009,8.9408,1.49,17.4159-4.2841,24.1216-8.0094,31.8516-24.8665,32.8761-4.0979.3726-2.98-.4656-12.6662-.6518C698.2815,605.7468,694.7423,605.5606,697.1638,598.948ZM228.423,597.83c17.9748-24.68,56.6252-7.3575,79.6292.5588,11.3623.5588,22.9108.8382,34.2731,1.397,10.4309-.2794,19.558-4.0048,23.8421-5.588,6.0537-2.1421,10.0584-4.191,10.3378-3.7253.3726.6519-4.5636,3.9115-13.3181,9.779-25.2391,16.4846-24.4009,19.4649-47.3118,29.1508-12.9455,4.5636-27.3812,4.0048-40.14,9.3134-10.3378-2.2353-16.764-13.4113-27.0087-15.274-18.5335.7452-17.8815-9.3133-20.3031-25.6117Zm-15.367-44.1453c5.9606-2.98,24.3078-5.2154,30.641-2.3283-6.7988,4.8429-22.5384,18.9993-30.3615,12.573a4.39,4.39,0,0,1-.0931-2.8871c.745-3.9115-1.304-5.588-.1864-7.3576Z" transform="translate(-189.1616 -438.3346)" style="fill:#ff836f"/><path d="M671.6452,461.2968c11.9211-1.0245,22.2589,5.0292,2.1421,3.5391,0,0-9.3133-.6519-11.7348.4657-2.794,1.8626-6.0537,2.0489-9.22,2.0489-4.75.8382-13.8769,1.8626-16.0189,6.3331,0,1.5832.5587,3.1666,1.5832,6.3331,1.3039,3.4459,1.0244,3.4459,1.3039,6.24.4656,2.5146,1.6764,3.5391,1.3039,3.8185-.4657.4656-3.0735-.5588-4.4705-2.794-1.6764-2.7009.0931-4.5636-1.3039-6.6125-1.9557-2.794-6.1468-.6519-8.1025-3.6322-1.1176-2.0489-1.0245-5.4949-4.0979-6.7056-2.794-1.49-5.2155-1.2108-7.9164-1.397-22.4451-7.3576-24.5872,1.77-25.2391,22.6315-4.9361-3.7254-1.0245-11.3623-6.985-13.97-1.3039-.8383-1.77-.6519-3.7254-1.397-5.1223-2.7009-9.22-6.985-14.1562-2.2353-2.1421-6.1468-13.8769,3.7254-23.8422-1.77-6.5193-7.1713-18.9061-6.7988-26.7292-2.3284,2.0489-6.4262,12.1073-4.6566,17.5091-4.9361,7.3576.4657,11.9211,9.1271,20.6756,6.8919,4.3772-.8382,4.4705-3.3528,10.2447-4.3772,7.6369-2.794,18.161,7.5438,24.96,3.6322,1.2108-2.0489,2.794-10.0584,1.1176-11.7348-.9314-1.3039-2.3284-1.5832-2.2353-2.1421,1.9558-1.397,8.1026-1.1175,10.2447.2795,4.191,6.1467,10.8966-.7452,16.5778,1.0244a24.3907,24.3907,0,0,0,10.8966,2.6078c6.4262.2794,6.6124,2.794,13.5043,3.9115C643.5189,465.86,663.2632,460.738,671.6452,461.2968Z" transform="translate(-189.1616 -438.3346)" style="fill:#ff836f"/><path d="M588.9427,561.7878c2.2353.1863,3.26-2.1421,4.3773-1.5832,2.3283,1.3039-.4657,9.9652-4.0048,11.8279-.4657-6.3331-6.7988-7.9163-11.5486-14.9013-.5588-2.4215-.5588-5.5881-2.7009-7.5438-6.7055-5.1224-14.9013.6519-23.749.5587-5.4018.6519-14.25,10.1516-17.8816,8.7546-.0931-.2794,5.2155-1.6764,8.9408-6.6124,2.7009-5.588,5.8674-6.24,11.5486-6.1468,6.3331-.8382,6.7055-6.4263,11.7348-6.5194,2.8871.2795,5.1223-1.2107,6.6124-3.7253,3.7254-5.6811,10.8035-8.1026,14.25-12.1074,4.2841-8.382,3.3528-2.98,3.0734,4.2842-8.2889.2794-13.2249,10.71-9.6859,17.7884,1.49,3.7254,3.4459,4.191,4.0048,7.73C583.6341,557.1312,585.4036,561.2289,588.9427,561.7878Z" transform="translate(-189.1616 -438.3346)" style="fill:#ff836f"/></g></g></svg>