<svg id="pizza" xmlns="http://www.w3.org/2000/svg" xmlns:xlink="http://www.w3.org/1999/xlink" viewBox="0 0 85.8274 156.8712"><defs><linearGradient id="linear-gradient" x1="805.1899" y1="1629.4213" x2="871.8721" y2="1667.9204" gradientTransform="translate(-408.4531 -866.769)" gradientUnits="userSpaceOnUse"><stop offset="0" stop-color="#ffcc78"/><stop offset="0.164" stop-color="#ffcc78" stop-opacity="0.9876"/><stop offset="0.2946" stop-color="#ffcc78" stop-opacity="0.9485"/><stop offset="0.4138" stop-color="#ffcc78" stop-opacity="0.8825"/><stop offset="0.5262" stop-color="#ffcc78" stop-opacity="0.7895"/><stop offset="0.6338" stop-color="#ffcc78" stop-opacity="0.6693"/><stop offset="0.7378" stop-color="#ffcc78" stop-opacity="0.5219"/><stop offset="0.839" stop-color="#ffcc78" stop-opacity="0.3469"/><stop offset="0.9354" stop-color="#ffcc78" stop-opacity="0.1495"/><stop offset="1" stop-color="#ffcc78" stop-opacity="0"/></linearGradient></defs><g id="mussel_yellow_b"><path d="M469.5,825.3c-5.3-18.6,4.3-38.3,7.3-56.8,2.3-6.5,0-12.1-4.5-16.8-8.6-26-17.8-36-46.8-40.2-9.8-.8-8.5,4.6-12.1,12-24.9,24.4-22.7,34.1-19.7,63.1.7,12.1-.6,24.2.4,36.3s4.7,24.5,13.4,32.9C434.1,881,454.9,842.9,469.5,825.3Z" transform="translate(-391.8769 -707.2953)" style="fill:#fc7e3f"/><path d="M469.4,825.2c-5.3-18.6,4.3-38.3,7.3-56.8,2.3-6.5,0-12.1-4.5-16.8-8.6-26-17.8-35.9-46.8-40.2-9.8-.8-8.5,4.5-12.1,12-24.8,24.3-22.7,34-19.6,63,.7,12.1-.6,24.2.4,36.3s4.7,24.5,13.4,32.8C434.1,880.9,454.9,842.8,469.4,825.2Z" transform="translate(-391.8769 -707.2953)" style="fill:#ffaa4d"/><path d="M460.1,806.9c1-13.8,5.4-26.9,8-40.4,1.8-5.1,0-9.6-3.5-13.3-2.5-3.8-3-8.6-4.8-12.8-4.2-11.4-25.7-22.2-37.2-17.7-3,3.7-3.4,10.9-9.1,14-7.5,6.6-11.1,18.1-11.3,20.1-.7,8,.7,16,1.2,24,.9,18.3-3.5,40.5,10.7,54.7C431.9,855.5,442.1,825.6,460.1,806.9Z" transform="translate(-391.8769 -707.2953)" style="fill:url(#linear-gradient)"/><path d="M423.3,707.3c2.9,3.5,1.4,9.8.6,14.1-1.7,7.6,1.8,8.5.6,18.7-3.1,12.8-1.9,26-3.2,39.1a104.8584,104.8584,0,0,0,1.5,17.7c4.7,26.2,5,29.4,5.1,33,.2,7.3-.5,6.9,0,12.3,1,9.8,4.5,20.8,3.1,21.5-12.3,5.5-9.2-55.2-16.8-74.4-1.6-14.6-8.7-43.9-12.4-54.3a5.9855,5.9855,0,0,1,0-4.6c5.6-4.8,4.3-.5,9.6-11.1,4.9-8.4,3.8-5.4,8.8-8.8C422.1,708.7,422.5,707.2,423.3,707.3Z" transform="translate(-391.8769 -707.2953)" style="fill:#515151"/></g></svg>