<svg id="pizza" xmlns="http://www.w3.org/2000/svg" viewBox="0 0 85.7273 156.7819"><g id="mussel_orange_b"><path d="M659.3,1103.6c-5.3-18.6,4.3-38.3,7.3-56.8,2.3-6.5,0-12.1-4.5-16.8-8.6-26-17.8-35.9-46.8-40.2-9.8-.8-8.5,4.5-12.1,12-24.8,24.3-22.7,34-19.6,63,.7,12.1-.6,24.2.4,36.3s4.7,24.5,13.4,32.8C624,1159.3,644.8,1121.2,659.3,1103.6Z" transform="translate(-581.7769 -985.5955)" style="fill:#fc7e3f"/><path d="M659.3,1103.6c-5.3-18.6,4.3-38.3,7.3-56.8,2.3-6.5,0-12.1-4.5-16.8-8.6-26-17.8-35.9-46.8-40.2-9.8-.8-8.5,4.5-12.1,12-24.8,24.3-22.7,34-19.6,63,.7,12.1-.6,24.2.4,36.3s4.7,24.5,13.4,32.8C624,1159.3,644.8,1121.2,659.3,1103.6Z" transform="translate(-581.7769 -985.5955)" style="fill:#fc7e3f"/><path d="M650,1085.2c1-13.8,5.4-26.9,8-40.4,1.8-5.1,0-9.6-3.5-13.3-2.5-3.8-3-8.6-4.8-12.8-4.2-11.4-25.7-22.2-37.2-17.7-3,3.7-3.4,10.9-9.1,14-7.5,6.6-11.1,18.1-11.3,20.1-.7,8,.7,16,1.2,24,.9,18.3-3.5,40.5,10.7,54.7C621.8,1133.9,632,1103.9,650,1085.2Z" transform="translate(-581.7769 -985.5955)" style="fill:#fa7d50"/><path d="M613.2,985.6c2.9,3.5,1.4,9.8.6,14.1-1.7,7.6,1.8,8.5.6,18.7-3.1,12.8-1.9,26-3.2,39.1a104.8584,104.8584,0,0,0,1.5,17.7c4.7,26.2,5,29.4,5.1,33,.2,7.3-.5,6.9,0,12.3,1,9.8,4.5,20.8,3.1,21.5-12.3,5.5-9.2-55.2-16.8-74.4-1.6-14.6-8.7-43.9-12.4-54.3a5.9857,5.9857,0,0,1,0-4.6c5.6-4.8,4.3-.5,9.6-11.1,4.9-8.4,3.8-5.4,8.8-8.8C612.1,987.1,612.4,985.5,613.2,985.6Z" transform="translate(-581.7769 -985.5955)" style="fill:#35302f"/></g></svg>