<svg id="pizza" xmlns="http://www.w3.org/2000/svg" xmlns:xlink="http://www.w3.org/1999/xlink" viewBox="0 0 190.9406 385.9767"><defs><radialGradient id="radial-gradient" cx="718.9166" cy="458.5725" r="63.564" gradientTransform="matrix(1.0573, 0.1819, 0.2025, -0.9835, -595.6024, 1226.9245)" gradientUnits="userSpaceOnUse"><stop offset="0" stop-color="#fc7e3f"/><stop offset="1" stop-color="#fc7e3f"/></radialGradient></defs><g id="shell"><path d="M171,913.2c-6.3-30.6,10.8-118.4,17.4-130.8,17.9-47,22.8-49.1,55.3-69.1,32.2-16.8,87.4-18,109.7,23.3,3.2,11.5,4.1,15.8,6.7,31.1,2.7,18.2-7.1,45.6-7.1,45.8-11.7,32.7-14.8,63.5-16.9,85-6.1,37.5,7.2,145.5-24,182.7-29.6,33.1-84.9-58.4-101.3-84.3C187.7,958.2,184.5,964.3,171,913.2Z" transform="translate(-169.63 -702.3496)" style="fill:#191919"/><path d="M178.8,914.6c-5.8-28.1,9.9-108.6,15.9-119.9,16.4-43.1,20.9-45,50.7-63.3C275,716,325.6,714.9,346,752.8c3.2,11.5,3.7,13.9,6.1,28.5,2.5,16.7-6.5,41.8-6.5,42-10.7,30-13.5,58.2-15.5,78-5.6,34.5,6.6,133.3-22,167.6-27.6,30.1-77.6-53.3-92.9-77.3C194.1,955.9,191.2,961.4,178.8,914.6Z" transform="translate(-169.63 -702.3496)" style="fill:#5e6a85"/><path d="M188.7,917.7c-5-42.2,12.1-117.2,29.3-138.5,24.1-28,59-42.6,97.1-25.6,5.8,3.1,17.8,9.4,21.7,20.7,2.8,10.2,3.3,12.4,5.4,25.2,2.2,14.8-5.7,37-5.8,37.2-9.5,26.6-12,51.6-13.8,69.1-5,30.6,5.8,118-19.5,148.4-24.5,26.7-68.7-47.2-82.2-68.5C202.2,954.3,199.6,959.2,188.7,917.7Z" transform="translate(-169.63 -702.3496)" style="fill:#c9bacc"/><path d="M196.6,919.2c-4.5-37.8,10.9-105.1,26.3-124.2,22-25.2,52.5-38.2,87-23,5.2,2.8,15.9,8.4,19.5,18.6,2.5,9.1,2.9,11.1,4.9,22.6,2,13.3-5.1,33.2-5.2,33.3-8.5,23.8-10.8,46.3-12.3,61.9-1.3,12.6-1.8,53.6-2.6,75.1,0,0-1.3,35.6-9.1,49.4-19.3,39.3-54.7-16.7-67.9-34.3C222,971.8,204.6,956.4,196.6,919.2Z" transform="translate(-169.63 -702.3496)" style="fill:#968192"/><path d="M205.5,921.6c-3.9-32.9,9.5-91.5,22.9-108.1,20-26.8,72-39.3,92.7-3.8,2.2,8,2.5,9.6,4.2,19.7,1.7,11.5-4.5,28.9-4.5,29-7.4,20.7-9.4,40.3-10.7,53.9-1.2,11-1.5,46.7-2.3,65.4,0,0-1.1,31-7.9,43-16.8,34.2-47.7-14.5-59.1-29.8C227.6,967.3,212.4,953.9,205.5,921.6Z" transform="translate(-169.63 -702.3496)" style="fill:#c6b3ba"/><path d="M213.4,926.1c-3.4-28.6,8.2-79.4,19.9-93.8,17.8-23.4,61.9-34.2,80.5-3.3a131.6977,131.6977,0,0,1,3.7,17.1c1.5,10-3.9,25.1-3.9,25.2-6.4,18-8.1,34.9-9.3,46.8-1,9.5-1.3,40.5-2,56.8,0,0-1,26.9-6.9,37.3-14.9,29.6-41.2-12.5-51.3-25.9C232.5,965.7,219.4,954.1,213.4,926.1Z" transform="translate(-169.63 -702.3496)" style="fill:#ccbfd1"/><path d="M222.2,924.4c-2.7-20.3,5.1-62.3,16.5-77.7,15.1-20,52.1-27.8,66.7-2.8a96.8025,96.8025,0,0,1,3,14.2c1.2,8.3-3.2,20.8-3.3,20.9-8.8,29.5-7.3,32.9-8.7,63.6-1.4,10.3,3.4,62-18.1,61.6C262.6,1003.1,224.1,942.5,222.2,924.4Z" transform="translate(-169.63 -702.3496)" style="fill:#e8dee2"/></g><g id="mussel_orange_a"><path d="M273.8,820.7c59,20.5,27.3,72.9,22.9,116.6-.1,8.4,1.3,16.8.9,25.2-.4,9.3-2.5,17.7-9.8,22.9-15.2,9.8-36.9,2.4-38-16.5-4.4-16.5-11.4-21.4-19.4-36.1C218,916,188.8,798.5,273.8,820.7Z" transform="translate(-169.63 -702.3496)" style="fill:#35302f"/><path d="M271.8,829.6c54.4,19,24.9,67.9,20.9,108.3,1.5,7.9,3.6,41.9-9.7,48-8.1,4.7-20.5,3.2-26.6-2.6-4.7-4.5-2-8.3-8.2-20.8-2.3-4.7-2.9-4.6-7.8-13C211.3,903.1,200.3,810.7,271.8,829.6Z" transform="translate(-169.63 -702.3496)" style="fill:url(#radial-gradient)"/><path d="M270.7,856.2c40.6,14.1,17.8,54.9,14.7,85.2,2.8,16.6,0,53-27.5,36-3.5-3.5-1.4-6.5-6-16.4-4-7.7-6.4-10.4-12.3-23.6C223.2,896.8,224.7,843.4,270.7,856.2Z" transform="translate(-169.63 -702.3496)" style="fill:#fa7d50"/><path d="M268.6,968.5c1.8,8-12.2,4.4-9.7-1.9-1.8-7-12-12.5-1.7-18.7C266.5,945,268.5,962.3,268.6,968.5Z" transform="translate(-169.63 -702.3496)" style="fill:#35302f"/></g></svg>