<svg id="pizza" xmlns="http://www.w3.org/2000/svg" xmlns:xlink="http://www.w3.org/1999/xlink" viewBox="0 0 190.9406 385.9767"><defs><linearGradient id="linear-gradient" x1="720.1713" y1="479.6637" x2="812.0368" y2="426.6251" gradientTransform="matrix(0.985, 0.1728, 0.1728, -0.985, -568.7615, 1227.7129)" gradientUnits="userSpaceOnUse"><stop offset="0" stop-color="#ffcc78"/><stop offset="0.0917" stop-color="#ffcc78" stop-opacity="0.9755"/><stop offset="0.2174" stop-color="#ffcc78" stop-opacity="0.9064"/><stop offset="0.3628" stop-color="#ffcc78" stop-opacity="0.7928"/><stop offset="0.523" stop-color="#ffcc78" stop-opacity="0.6343"/><stop offset="0.6954" stop-color="#ffcc78" stop-opacity="0.431"/><stop offset="0.875" stop-color="#ffcc78" stop-opacity="0.1871"/><stop offset="1" stop-color="#ffcc78" stop-opacity="0"/></linearGradient></defs><g id="shell"><path d="M171,913.2c-6.3-30.6,10.8-118.4,17.4-130.8,17.9-47,22.8-49.1,55.3-69.1,32.2-16.8,87.4-18,109.7,23.3,3.2,11.5,4.1,15.8,6.7,31.1,2.7,18.2-7.1,45.6-7.1,45.8-11.7,32.7-14.8,63.5-16.9,85-6.1,37.5,7.2,145.5-24,182.7-29.6,33.1-84.9-58.4-101.3-84.3C187.7,958.2,184.5,964.3,171,913.2Z" transform="translate(-169.63 -702.3496)" style="fill:#191919"/><path d="M178.8,914.6c-5.8-28.1,9.9-108.6,15.9-119.9,16.4-43.1,20.9-45,50.7-63.3C275,716,325.6,714.9,346,752.8c3.2,11.5,3.7,13.9,6.1,28.5,2.5,16.7-6.5,41.8-6.5,42-10.7,30-13.5,58.2-15.5,78-5.6,34.5,6.6,133.3-22,167.6-27.6,30.1-77.6-53.3-92.9-77.3C194.1,955.9,191.2,961.4,178.8,914.6Z" transform="translate(-169.63 -702.3496)" style="fill:#5e6a85"/><path d="M188.7,917.7c-5-42.2,12.1-117.2,29.3-138.5,24.1-28,59-42.6,97.1-25.6,5.8,3.1,17.8,9.4,21.7,20.7,2.8,10.2,3.3,12.4,5.4,25.2,2.2,14.8-5.7,37-5.8,37.2-9.5,26.6-12,51.6-13.8,69.1-5,30.6,5.8,118-19.5,148.4-24.5,26.7-68.7-47.2-82.2-68.5C202.2,954.3,199.6,959.2,188.7,917.7Z" transform="translate(-169.63 -702.3496)" style="fill:#c9bacc"/><path d="M196.6,919.2c-4.5-37.8,10.9-105.1,26.3-124.2,22-25.2,52.5-38.2,87-23,5.2,2.8,15.9,8.4,19.5,18.6,2.5,9.1,2.9,11.1,4.9,22.6,2,13.3-5.1,33.2-5.2,33.3-8.5,23.8-10.8,46.3-12.3,61.9-1.3,12.6-1.8,53.6-2.6,75.1,0,0-1.3,35.6-9.1,49.4-19.3,39.3-54.7-16.7-67.9-34.3C222,971.8,204.6,956.4,196.6,919.2Z" transform="translate(-169.63 -702.3496)" style="fill:#968192"/><path d="M205.5,921.6c-3.9-32.9,9.5-91.5,22.9-108.1,20-26.8,72-39.3,92.7-3.8,2.2,8,2.5,9.6,4.2,19.7,1.7,11.5-4.5,28.9-4.5,29-7.4,20.7-9.4,40.3-10.7,53.9-1.2,11-1.5,46.7-2.3,65.4,0,0-1.1,31-7.9,43-16.8,34.2-47.7-14.5-59.1-29.8C227.6,967.3,212.4,953.9,205.5,921.6Z" transform="translate(-169.63 -702.3496)" style="fill:#c6b3ba"/><path d="M213.4,926.1c-3.4-28.6,8.2-79.4,19.9-93.8,17.8-23.4,61.9-34.2,80.5-3.3a131.6977,131.6977,0,0,1,3.7,17.1c1.5,10-3.9,25.1-3.9,25.2-6.4,18-8.1,34.9-9.3,46.8-1,9.5-1.3,40.5-2,56.8,0,0-1,26.9-6.9,37.3-14.9,29.6-41.2-12.5-51.3-25.9C232.5,965.7,219.4,954.1,213.4,926.1Z" transform="translate(-169.63 -702.3496)" style="fill:#ccbfd1"/><path d="M222.2,924.4c-2.7-20.3,5.1-62.3,16.5-77.7,15.1-20,52.1-27.8,66.7-2.8a96.8025,96.8025,0,0,1,3,14.2c1.2,8.3-3.2,20.8-3.3,20.9-8.8,29.5-7.3,32.9-8.7,63.6-1.4,10.3,3.4,62-18.1,61.6C262.6,1003.1,224.1,942.5,222.2,924.4Z" transform="translate(-169.63 -702.3496)" style="fill:#e8dee2"/></g><g id="mussel_yellow_a"><path d="M272.7,819.8c58.9,19.8,28.1,72.6,24.3,116.3,0,8.4,1.6,16.8,1.3,25.2-.3,9.3-2.3,17.7-9.5,23-15,10-36.7,2.7-38-16-4.6-16.4-11.6-21.3-19.8-35.9C218.6,916,187.7,798.6,272.7,819.8Z" transform="translate(-169.63 -702.3496)" style="fill:#515151"/><path d="M270.8,828.8c54.4,18.4,25.7,67.6,22.2,108,1.6,7.9,4.2,41.8-9,48.1-8,4.8-20.4,3.4-26.5-2.3-4.8-4.5-2.1-8.2-8.5-20.7-2.4-4.7-3-4.5-7.9-12.9C211.7,903.1,199.3,810.7,270.8,828.8Z" transform="translate(-169.63 -702.3496)" style="fill:#ffaa4d"/><path d="M270.1,855.4c40.6,13.7,18.4,54.7,15.7,85.1,3,16.4.8,53-26.9,36.3-3.5-3.5-1.5-6.5-6.2-16.3-4-7.6-6.5-10.3-12.5-23.4C223.4,896.6,224.2,843.1,270.1,855.4Z" transform="translate(-169.63 -702.3496)" style="fill:url(#linear-gradient)"/><path d="M269.5,967.6c1.9,8-12,4.5-9.6-1.8-1.9-6.8-12-12.7-1.9-18.6C267.2,944.2,269.3,961.5,269.5,967.6Z" transform="translate(-169.63 -702.3496)" style="fill:#515151"/></g></svg>