<svg id="pizza" xmlns="http://www.w3.org/2000/svg" xmlns:xlink="http://www.w3.org/1999/xlink" viewBox="0 0 190.9405 385.9768"><defs><linearGradient id="linear-gradient" x1="1028.7558" y1="1879.3348" x2="875.5052" y2="1918.0425" gradientTransform="translate(-408.4531 -866.769)" gradientUnits="userSpaceOnUse"><stop offset="0" stop-color="#8e7aa9"/><stop offset="0.1817" stop-color="#a57aa9" stop-opacity="0.7625"/><stop offset="0.4581" stop-color="#c47aa9" stop-opacity="0.4367"/><stop offset="0.6966" stop-color="#da7aa9" stop-opacity="0.1993"/><stop offset="0.8851" stop-color="#e87aa9" stop-opacity="0.0537"/><stop offset="1" stop-color="#ed7aa9" stop-opacity="0"/></linearGradient></defs><g id="shell_closed"><path d="M382,1074.2c-6.3-30.6,10.8-118.4,17.4-130.8,17.9-47,22.8-49.1,55.3-69.1,32.2-16.8,87.4-18,109.7,23.3,3.2,11.5,4.1,15.8,6.7,31.1,2.7,18.2-7.1,45.6-7.1,45.8-11.7,32.7-14.8,63.5-16.9,85-6.1,37.5,7.2,145.5-24,182.7-29.6,33.1-84.9-58.4-101.3-84.3C398.7,1119.2,395.5,1125.3,382,1074.2Z" transform="translate(-380.63 -863.3496)" style="fill:#191919"/><path d="M531,1230.5c10.8-18.9,12.5-67.8,12.5-67.8,1.1-29.4,1.8-85.9,3.6-103.2.4-26.3,13-73.1,22.9-107.8-3.5-24.9-11.2-36.5-31.6-45.4-33.8-13.6-53.5-9.2-81.3,2-51.5,24.9-60.9,69.5-70.8,141.7-1.5,17.9-2.4,27.7-1,37.9,15.8,43.5,14.1,33.1,36.5,70.1C441.2,1188.2,502.2,1291,531,1230.5Z" transform="translate(-380.63 -863.3496)" style="fill:#5e6a85"/><path d="M565.5,969.8c-5.4-19.2-4-31.7-29.9-40.6-36.8-15.6-91.2,1.1-111.9,27.9-18.3,20-47.8,115.8-29,155.4,7.7,16.6,19.4,33,27.1,45.5,8.2,13,10.7,13.5,10.1,16,58.9,92.9,105.7,110.8,111.6-11.3C547,1085.3,540.9,1043,565.5,969.8Z" transform="translate(-380.63 -863.3496)" style="fill:#604a63"/><path d="M431.8,1174c59.2,93.2,105.7,110.7,111.6-11.3,3.3-73.3-2.1-113,18.2-181.5-1-14.3-17.2-25.7-26.5-29-38.1-18.3-86.7,1.2-107.1,25.1-18.7,20.9-39.4,96.7-31.7,138.9C408.7,1140.1,418.9,1151.8,431.8,1174Z" transform="translate(-380.63 -863.3496)" style="fill:#2a1b26"/><path d="M431.8,1174c15.2,23,45.1,69.3,73.3,75.1,4.1.3,8.6.5,12.5-.8,4.8-3.6,11.7-15.2,13.4-17.8,18.5-50.9,10.6-76.8,13.8-116.5.7-38.2,2.4-74.8,10.8-111.7-24.8-47.7-98.2-24.8-121.8,2.9-19.7,25-39.2,89.6-28.4,127.1C412.8,1145,423.9,1160.1,431.8,1174Z" transform="translate(-380.63 -863.3496)" style="fill:#7c5f67"/><path d="M505.1,1249c51.5,7.8,36.1-160.1,41.9-189.5.8-10.4,2.3-24.2,5.2-40.5-2.5-9.2-7.1-13.7-9.7-15.8-8.7-7.1-20.2-6.5-36.6-6-39.3,3.6-66.7,17.7-81.5,55.3-11.9,28.9-20.9,63.9-9.9,94.2,4.6,7.7,13.2,19.5,17.2,27.2C447.3,1197.1,476.8,1243.2,505.1,1249Z" transform="translate(-380.63 -863.3496)" style="fill:#2a1b26"/><path d="M543.4,1162.7c1.4-36.4,1.1-66.5,3.5-101.6a181.3947,181.3947,0,0,0-3.7-17.8c-4.3-15.4-5.9-23.4-21.7-25.1-10.3-2.4-39.1.1-52.1,6.5-34.6,16.4-40.9,44.6-47.7,92.5-6.6,41.6,16.3,61.8,35.5,91.1C509.2,1277.7,538.2,1256.7,543.4,1162.7Z" transform="translate(-380.63 -863.3496)" style="fill:#191919"/><path d="M540.6,1169.7c.1-2.3.3-8.6.4-12.9.7-24.3.4-22.8.8-30.2.7-20.2,4.3-45.8-1.4-62.3-4-14.4-5.3-20.4-19.4-22.2-9.2-2.1-35,.1-46.7,5.8-31,14.6-36.5,39.1-42.7,81.8-5.9,37,14.5,54.4,31.7,80.5,17.4,23,35.8,40.3,55.2,32.1,1.4-1.4,1.5-3.1,2-5,1.2-4.1,3.6-6.2,5-8C531.3,1221.9,539.5,1194.4,540.6,1169.7Z" transform="translate(-380.63 -863.3496)" style="fill:#5e6a85"/><path d="M539.5,1138.2c.4-24.1,3.3-70.6-19.6-76.9-17.4-3.6-49.8,2.8-63,19-8.9,9.3-19,42.6-19.5,59-5.1,31.8,11.6,46.6,26.9,68.4,12.1,14.9,29.5,43.3,52.1,37.5,5.2-4.1,8.6-12.4,12-17C545,1195.7,536.9,1175.2,539.5,1138.2Z" transform="translate(-380.63 -863.3496)" style="fill:#2a1b26"/><path d="M529.5,1175.3c0-33.3,6.5-78.1-9.3-92.3-13.2-9.2-46.3-.5-57,13-10.8,12.8-18.8,49.4-16.1,67.2,5.7,21.4,13.6,25.6,24.1,42.1C505.5,1250.4,526.2,1237.6,529.5,1175.3Z" transform="translate(-380.63 -863.3496)" style="fill:#191919"/><path d="M552.4,958.3c-2.3,11.4-6.5,21.9-10.8,32.6-12.1,33.2-16.5,69.2-19.5,104.2-.1,28.3,1.8,56.8-6.5,84.2-2.2,9.1-12.3,16.4-20.3,8.1-15.4-22-9.3-52.7-14.8-78.2-8.7-37.4-27.5-71-28.5-110-3.4-13.3-2-26.3-1-39.6-4.1-17-.1-35.7,11.5-49.1,19.6-20.6,62.2-20.8,77.7,4.9C549.1,928.3,558.4,942.1,552.4,958.3Z" transform="translate(-380.63 -863.3496)" style="fill:url(#linear-gradient)"/></g></svg>