<svg id="pizza" xmlns="http://www.w3.org/2000/svg" xmlns:xlink="http://www.w3.org/1999/xlink" viewBox="0 0 385.9768 190.9406"><defs><radialGradient id="radial-gradient" cx="543.6812" cy="674.8404" r="63.564" gradientTransform="matrix(-0.1819, 1.0573, 0.9835, 0.2025, -311.0994, 176.0797)" gradientUnits="userSpaceOnUse"><stop offset="0" stop-color="#fc7e3f"/><stop offset="1" stop-color="#fc7e3f"/></radialGradient></defs><g id="shell"><path d="M247.2,801.2c30.6-6.3,118.4,10.8,130.8,17.4,47,17.9,49.1,22.8,69.1,55.3,16.8,32.2,18,87.4-23.3,109.7-11.5,3.2-15.8,4.1-31.1,6.7-18.2,2.7-45.6-7.1-45.8-7.1-32.7-11.7-63.5-14.8-85-16.9-37.5-6.1-145.5,7.2-182.7-24-33.1-29.6,58.4-84.9,84.3-101.3C202.2,817.9,196.1,814.7,247.2,801.2Z" transform="translate(-72.0736 -799.83)" style="fill:#191919"/><path d="M245.8,809c28.1-5.8,108.6,9.9,119.9,15.9,43.1,16.4,45,20.9,63.3,50.7,15.4,29.6,16.5,80.2-21.4,100.6-11.5,3.2-13.9,3.7-28.5,6.1-16.7,2.5-41.8-6.5-42-6.5-30-10.7-58.2-13.5-78-15.5-34.5-5.6-133.3,6.6-167.6-22-30.1-27.6,53.3-77.6,77.3-92.9C204.5,824.3,199,821.4,245.8,809Z" transform="translate(-72.0736 -799.83)" style="fill:#5e6a85"/><path d="M242.7,818.9c42.2-5,117.2,12.1,138.5,29.3,28,24.1,42.6,59,25.6,97.1-3.1,5.8-9.4,17.8-20.7,21.7-10.2,2.8-12.4,3.3-25.2,5.4-14.8,2.2-37-5.7-37.2-5.8-26.6-9.5-51.6-12-69.1-13.8-30.6-5-118,5.8-148.4-19.5-26.7-24.5,47.2-68.7,68.5-82.2C206.1,832.4,201.2,829.8,242.7,818.9Z" transform="translate(-72.0736 -799.83)" style="fill:#c9bacc"/><path d="M241.2,826.8c37.8-4.5,105.1,10.9,124.2,26.3,25.2,22,38.2,52.5,23,87-2.8,5.2-8.4,15.9-18.6,19.5-9.1,2.5-11.1,2.9-22.6,4.9-13.3,2-33.2-5.1-33.3-5.2-23.8-8.5-46.3-10.8-61.9-12.3-12.6-1.3-53.6-1.8-75.1-2.6,0,0-35.6-1.3-49.4-9.1-39.3-19.3,16.7-54.7,34.3-67.9C188.6,852.2,204,834.8,241.2,826.8Z" transform="translate(-72.0736 -799.83)" style="fill:#968192"/><path d="M238.8,835.7c32.9-3.9,91.5,9.5,108.1,22.9,26.8,20,39.3,72,3.8,92.7-8,2.2-9.6,2.5-19.7,4.2-11.5,1.7-28.9-4.5-29-4.5-20.7-7.4-40.3-9.4-53.9-10.7-11-1.2-46.7-1.5-65.4-2.3,0,0-31-1.1-43-7.9-34.2-16.8,14.5-47.7,29.8-59.1C193.1,857.8,206.5,842.6,238.8,835.7Z" transform="translate(-72.0736 -799.83)" style="fill:#c6b3ba"/><path d="M234.3,843.6c28.6-3.4,79.4,8.2,93.8,19.9,23.4,17.8,34.2,61.9,3.3,80.5a131.6977,131.6977,0,0,1-17.1,3.7c-10,1.5-25.1-3.9-25.2-3.9-18-6.4-34.9-8.1-46.8-9.3-9.5-1-40.5-1.3-56.8-2,0,0-26.9-1-37.3-6.9-29.6-14.9,12.5-41.2,25.9-51.3C194.7,862.7,206.3,849.6,234.3,843.6Z" transform="translate(-72.0736 -799.83)" style="fill:#ccbfd1"/><path d="M236,852.4c20.3-2.7,62.3,5.1,77.7,16.5,20,15.1,27.8,52.1,2.8,66.7a96.8025,96.8025,0,0,1-14.2,3c-8.3,1.2-20.8-3.2-20.9-3.3-29.5-8.8-32.9-7.3-63.6-8.7-10.3-1.4-62,3.4-61.6-18.1C157.3,892.8,217.9,854.3,236,852.4Z" transform="translate(-72.0736 -799.83)" style="fill:#e8dee2"/></g><g id="mussel_orange_a"><path d="M339.7,904c-20.5,59-72.9,27.3-116.6,22.9-8.4-.1-16.8,1.3-25.2.9-9.3-.4-17.7-2.5-22.9-9.8-9.8-15.2-2.4-36.9,16.5-38,16.5-4.4,21.4-11.4,36.1-19.4C244.4,848.2,361.9,819,339.7,904Z" transform="translate(-72.0736 -799.83)" style="fill:#35302f"/><path d="M330.8,902c-19,54.4-67.9,24.9-108.3,20.9-7.9,1.5-41.9,3.6-48-9.7-4.7-8.1-3.2-20.5,2.6-26.6,4.5-4.7,8.3-2,20.8-8.2,4.7-2.3,4.6-2.9,13-7.8C257.3,841.5,349.7,830.5,330.8,902Z" transform="translate(-72.0736 -799.83)" style="fill:url(#radial-gradient)"/><path d="M304.2,900.9c-14.1,40.6-54.9,17.8-85.2,14.7-16.6,2.8-53,0-36-27.5,3.5-3.5,6.5-1.4,16.4-6,7.7-4,10.4-6.4,23.6-12.3C263.6,853.4,317,854.9,304.2,900.9Z" transform="translate(-72.0736 -799.83)" style="fill:#fa7d50"/><path d="M191.9,898.8c-8,1.8-4.4-12.2,1.9-9.7,7-1.8,12.5-12,18.7-1.7C215.4,896.7,198.1,898.7,191.9,898.8Z" transform="translate(-72.0736 -799.83)" style="fill:#35302f"/></g></svg>