<svg id="pizza" xmlns="http://www.w3.org/2000/svg" xmlns:xlink="http://www.w3.org/1999/xlink" viewBox="0 0 327.7015 175.535"><defs><radialGradient id="radial-gradient" cx="-398.3345" cy="956.9212" r="12.7373" gradientTransform="matrix(-0.7412, -0.6713, -0.6713, 0.7412, 1018.8918, -272.0006)" gradientUnits="userSpaceOnUse"><stop offset="0" stop-color="#c67e72"/><stop offset="0.1658" stop-color="#b76c66"/><stop offset="0.5118" stop-color="#9d4c51"/><stop offset="0.8022" stop-color="#8d3844"/><stop offset="1" stop-color="#87313f"/></radialGradient><radialGradient id="radial-gradient-2" cx="-329.9874" cy="669.1394" r="10.5308" gradientTransform="matrix(-0.4167, -0.909, -0.909, 0.4167, 1154.9342, 94.9729)" xlink:href="#radial-gradient"/><radialGradient id="radial-gradient-3" cx="-267.8285" cy="463.4782" r="10.1086" gradientTransform="matrix(-0.1508, -0.9076, -0.917, 0.1524, 1087.1286, 334.9911)" gradientUnits="userSpaceOnUse"><stop offset="0" stop-color="#c67e72"/><stop offset="0.0499" stop-color="#c0776d"/><stop offset="0.3016" stop-color="#a75959"/><stop offset="0.5479" stop-color="#95434b"/><stop offset="0.7844" stop-color="#8b3542"/><stop offset="1" stop-color="#87313f"/></radialGradient><radialGradient id="radial-gradient-4" cx="-236.5447" cy="472.1636" r="9.265" gradientTransform="matrix(0.046, -0.9089, -0.9429, -0.0477, 1185.085, 438.0907)" xlink:href="#radial-gradient-3"/><radialGradient id="radial-gradient-5" cx="-217.5055" cy="269.4364" r="9.2509" gradientTransform="matrix(0.2652, -0.7709, -0.7511, -0.2397, 1015.3107, 515.997)" xlink:href="#radial-gradient-3"/><radialGradient id="radial-gradient-6" cx="-278.8444" cy="255.0514" r="7.8803" gradientTransform="matrix(0.335, -0.7431, -0.7259, -0.3079, 1055.9039, 485.2136)" xlink:href="#radial-gradient-3"/><radialGradient id="radial-gradient-7" cx="-918.1794" cy="2035.4151" r="6.9232" gradientTransform="matrix(-0.3366, -0.7794, 0.7851, -0.2762, -1106.1381, 457.6008)" xlink:href="#radial-gradient-3"/><radialGradient id="radial-gradient-8" cx="-770.9514" cy="2227.3814" r="5.9601" gradientTransform="matrix(-0.2202, -0.8505, 0.8681, -0.1549, -1278.849, 302.4968)" xlink:href="#radial-gradient-3"/><radialGradient id="radial-gradient-9" cx="-984.56" cy="2303.6259" r="5.9627" gradientTransform="matrix(-0.2023, -0.7225, 0.7621, -0.1226, -1108.9148, 187.2472)" xlink:href="#radial-gradient-3"/><radialGradient id="radial-gradient-10" cx="-1123.3534" cy="2255.1378" r="5.9581" gradientTransform="matrix(-0.2238, -0.6452, 0.7513, -0.0837, -1080.4302, 85.1008)" xlink:href="#radial-gradient-3"/><radialGradient id="radial-gradient-11" cx="-1127.4306" cy="2589.9089" r="5.9705" gradientTransform="matrix(-0.1226, -0.6185, 0.665, 0.0057, -974.3123, -82.7909)" xlink:href="#radial-gradient-3"/><radialGradient id="radial-gradient-12" cx="-1491.5685" cy="2459.8289" r="5.9616" gradientTransform="matrix(-0.1579, -0.4918, 0.6541, 0.0447, -940.4771, -204.1247)" xlink:href="#radial-gradient-3"/><radialGradient id="radial-gradient-13" cx="-768.9594" cy="3602.5892" r="5.9706" gradientTransform="matrix(0.111, -0.4903, 0.4869, 0.2202, -749.1874, -517.4484)" xlink:href="#radial-gradient-3"/><radialGradient id="radial-gradient-14" cx="-398.9357" cy="831.8365" r="13.1372" gradientTransform="matrix(-0.6279, -0.7784, -0.7784, 0.6279, 1091.7191, -136.3918)" xlink:href="#radial-gradient"/><radialGradient id="radial-gradient-15" cx="-313.8357" cy="602.7717" r="11.3458" gradientTransform="matrix(-0.3414, -0.9399, -0.9399, 0.3414, 1164.2189, 170.571)" xlink:href="#radial-gradient"/><radialGradient id="radial-gradient-16" cx="-282.5569" cy="613.8036" r="9.9605" gradientTransform="matrix(-0.8828, -0.4697, 0.4697, -0.8828, 186.5629, 1061.4236)" xlink:href="#radial-gradient"/><radialGradient id="radial-gradient-17" cx="-536.162" cy="1065.2847" r="9.1444" gradientTransform="translate(-342.892 1125.3305) rotate(-140.7781)" xlink:href="#radial-gradient"/><radialGradient id="radial-gradient-18" cx="295.6686" cy="206.3236" r="8.1693" gradientTransform="matrix(0.6471, -0.7624, -0.7624, -0.6471, 734.6278, 989.9699)" xlink:href="#radial-gradient"/><radialGradient id="radial-gradient-19" cx="-566.4483" cy="2005.2991" r="6.8441" gradientTransform="translate(-1289.0011 472.5506) rotate(-101.6317)" xlink:href="#radial-gradient"/><radialGradient id="radial-gradient-20" cx="-855.477" cy="1749.2836" r="5.5488" gradientTransform="translate(-1136.9887 632.2317) rotate(-116.3621)" xlink:href="#radial-gradient"/><radialGradient id="radial-gradient-21" cx="264.6156" cy="130.693" r="5.2777" gradientTransform="matrix(0.624, -0.6798, -0.773, -0.6089, 764.6821, 882.1945)" xlink:href="#radial-gradient"/><radialGradient id="radial-gradient-22" cx="164.0368" cy="-41.6555" r="5.4124" gradientTransform="matrix(0.556, -0.5645, -0.7168, -0.5315, 727.8131, 696.7963)" xlink:href="#radial-gradient"/><radialGradient id="radial-gradient-23" cx="150.2548" cy="178.4769" r="4.5868" gradientTransform="matrix(0.663, -0.5916, -0.9108, -0.6122, 932.2978, 828.6946)" xlink:href="#radial-gradient"/></defs><g id="octopus_b"><path d="M667.48,720.43c18.4148-70.131,92.107-122.5634,164.7286-105.6342,27.4276,5.8836,56.5668,13.0751,78.4574,31.7411,10.5521,9.0677,16.224,21.8614,24.9172,32.3832,7.5373,10.2,15.5229,21.77,22.6369,32.37,14.0132,21.9716,2.7973,55.4908,28.7976,70.2159-28.2148-10.8786-23.0063-42.9586-38.89-63.0639-14.25-15.9124-30.7163-30.5744-44.9926-46.39-13.4224-13.294-33.081-15.7654-50.9836-18.5776-57.9394-10.7586-115.2014,18.1216-118.5088,81.3572C700.1841,754.673,663.9121,755.5626,667.48,720.43Z" transform="translate(-659.3164 -605.9711)" style="fill:#87313f"/><path d="M717.349,719.1793c7.1762,7.3995,10.6772,7.13,14.9571,14.8639-.843,7.8625-6.0686,9.1045-13.1754,12.6249-11.75,5.6515-26.1394,6.622-37.9364.5293-23.13-10.4988-5.7144-23.81,10.7063-27.2247C700.4124,719.2318,710.3118,712.0261,717.349,719.1793Z" transform="translate(-659.3164 -605.9711)" style="fill:#f2d6ca;stroke:#87313f;stroke-miterlimit:10;stroke-width:2px"/><path d="M670.2727,727.5413a1.2312,1.2312,0,0,1-2.0117-.9762c-2.68-17.5655,4.6926-35.4421,13.6093-50.2927,24.6236-37.67,63.42-62.8755,118.1067-64.6512,32.2625-.6581,93.7058,12.4272,117.2755,38.1018,15.3237,22.8562,35.134,44.8871,43.0111,63.1751,6.2656,13.2708,4.9614,22.0428,8.4789,37.35.776,5.4072,8.4939,22.405,8.5366,22.6245-4.5365-2.7184-12.8266-25.4818-13.777-28.0308-1.7708-6.3075-1.01-7.5486-2.7692-14.2682-3.3712-11.7369-7.6353-19.1549-15.8358-29.9546-21.8341-27.0593-37.9709-50.35-66.9963-59.0667-30.797-8.6919-66.8624-16.3614-97.1291-4.2461-23.6748,9.697-52.4632,20.9788-65.448,46.3223-3.2038,8.1385-2.8928,18.1915-5.3148,26.1328C698.1544,718.3945,679.4071,714.5163,670.2727,727.5413Z" transform="translate(-659.3164 -605.9711)" style="fill:#d38787"/><g id="Suckers_copy_3" data-name="Suckers copy 3"><path d="M668.5167,717.0854c6.8169,2.7315,6.9021,3.17,10.7246-2.7192,5.52-6.7659,4.1968-16.1668-1.5678-21.927C661.1946,684.5218,651.9378,712.8774,668.5167,717.0854Z" transform="translate(-659.3164 -605.9711)" style="fill:url(#radial-gradient)"/><path d="M673.1646,704.8855c-3.4067,12.9613-16.9728,9.49-12.4259-3.4651C664.2464,689.214,675.2432,692.592,673.1646,704.8855Z" transform="translate(-659.3164 -605.9711)" style="fill:#f2d6ca;stroke:#87313f;stroke-miterlimit:10"/><path d="M677.0846,681.8935c4.4337,3.8317,2.4313,4.3115,8.434,2.1443,6.9568-3.3547,3.9985.1806,7.7108-7.92,5.3184-8.2756-4.3437-13.4615-11.4218-11.9056C674.0015,665.7728,670.2113,676.7585,677.0846,681.8935Z" transform="translate(-659.3164 -605.9711)" style="fill:url(#radial-gradient-2)"/><path d="M684.222,674.54c-6.1427,8.2533-15.3481,1.43-7.8837-6.3511C682.443,660.4445,689.5136,666.3612,684.222,674.54Z" transform="translate(-659.3164 -605.9711)" style="fill:#f2d6ca;stroke:#87313f;stroke-miterlimit:10"/><path d="M696.426,653.8585c1.25,2.2173,1.9449,3.4492,2.785,3.7872.3742.52,8.5276-.425,8.8545-.8529.3585.2038,4.8664-5.91,5.8158-7.8254.46-5.3738-5.0171-9.1852-9.1277-9.7086C697.94,639.1235,691.7589,647.8853,696.426,653.8585Z" transform="translate(-659.3164 -605.9711)" style="fill:url(#radial-gradient-3)"/><path d="M705.0962,649.9435c-7.7089,6.0517-14.4395-2.5732-5.6127-7.7941C706.9618,636.5525,712.0076,643.7732,705.0962,649.9435Z" transform="translate(-659.3164 -605.9711)" style="fill:#f2d6ca;stroke:#87313f;stroke-miterlimit:10"/><path d="M722.3275,633.57c.715,2.2757,1.1207,3.427,1.7838,4.0272.1547.5622,8.14,1.3356,8.3442.9772.7817-.1973.6159-.3473,4.06-3.02.82-.7058,2.69-2.572,2.9629-2.8073,1.0633-3.4408-2.9137-8.91-6.0387-9.9892C727.43,621.601,718.8609,626.2708,722.3275,633.57Z" transform="translate(-659.3164 -605.9711)" style="fill:url(#radial-gradient-4)"/><path d="M730.6106,631.4161c-3.6261,2.207-11.1617.9362-7.35-4.5413C729.1233,619.9969,742.25,623.5537,730.6106,631.4161Z" transform="translate(-659.3164 -605.9711)" style="fill:#f2d6ca;stroke:#87313f;stroke-miterlimit:10"/><path d="M748.7347,621.5207c.9511,7.0133,15.1637,6.3049,15.3055-1.6493C763.7894,608.4855,747.5567,611.2259,748.7347,621.5207Z" transform="translate(-659.3164 -605.9711)" style="fill:url(#radial-gradient-5)"/><path d="M756.5028,620.4687c-7.49,1.5448-8.3812-6.8013-.87-7.3022C762.9455,611.8838,762.9492,618.9442,756.5028,620.4687Z" transform="translate(-659.3164 -605.9711)" style="fill:#f2d6ca;stroke:#87313f;stroke-miterlimit:10"/><path d="M771.8278,615.3988c.1759,6.07,12.5407,6.4039,13.1308-.18C785.5839,605.5312,771.6066,606.5128,771.8278,615.3988Z" transform="translate(-659.3164 -605.9711)" style="fill:url(#radial-gradient-6)"/><path d="M778.5567,615.0951c-6.52.6733-6.4972-6.4835-.1222-6.263C784.5159,608.2441,784.1834,614.2764,778.5567,615.0951Z" transform="translate(-659.3164 -605.9711)" style="fill:#f2d6ca;stroke:#87313f;stroke-miterlimit:10"/><path d="M806.3993,612.7892c-.3909,5.497-12.0972,5.0356-12.3536-.7457C793.578,603.2964,806.83,604.9156,806.3993,612.7892Z" transform="translate(-659.3164 -605.9711)" style="fill:url(#radial-gradient-7)"/><path d="M800.0354,612.1565c6.187.8948,6.2149-5.5339.3214-5.62C794.4319,605.8185,794.8922,611.2414,800.0354,612.1565Z" transform="translate(-659.3164 -605.9711)" style="fill:#f2d6ca;stroke:#87313f;stroke-miterlimit:10"/><path d="M828.97,615.2421c-1.1235,4.7736-11.6452,2.67-10.95-2.4305C818.81,605.1417,830.4918,608.2956,828.97,615.2421Z" transform="translate(-659.3164 -605.9711)" style="fill:url(#radial-gradient-8)"/><path d="M823.3563,613.7805c5.34,1.6969,6.4167-4.0243,1.054-4.8968C819.3051,607.46,818.7864,612.2985,823.3563,613.7805Z" transform="translate(-659.3164 -605.9711)" style="fill:#f2d6ca;stroke:#87313f;stroke-miterlimit:10"/><path d="M849.95,618.1859c-.9355,4.0993-10.2475,2.1255-9.67-2.1777C841.0626,609.4785,851.1767,612.2989,849.95,618.1859Z" transform="translate(-659.3164 -605.9711)" style="fill:url(#radial-gradient-9)"/><path d="M844.7691,617.7792c4.6393,1.6052,5.8657-4.2818,1.1773-4.9663C841.446,611.4541,840.7772,616.4584,844.7691,617.7792Z" transform="translate(-659.3164 -605.9711)" style="fill:#f2d6ca;stroke:#87313f;stroke-miterlimit:10"/><path d="M869.35,623.0765c-1.0207,3.66-10.06,1.4512-9.6705-2.1777C860.4933,615.0008,870.2916,617.837,869.35,623.0765Z" transform="translate(-659.3164 -605.9711)" style="fill:url(#radial-gradient-10)"/><path d="M864.2221,622.4771c4.7893,1.4394,5.6508-3.5111.9892-4.292C860.6146,616.8,860.23,621.1563,864.2221,622.4771Z" transform="translate(-659.3164 -605.9711)" style="fill:#f2d6ca;stroke:#87313f;stroke-miterlimit:10"/><path d="M889.5,631.6024c-1.3254,3.264-8.9823.1944-8.1653-3.1075C882.7156,623.17,890.9819,627.0326,889.5,631.6024Z" transform="translate(-659.3164 -605.9711)" style="fill:url(#radial-gradient-11)"/><path d="M885.1116,630.5863c3.9271,1.9257,5.34-2.7674,1.2939-3.8956C882.6442,624.9151,881.8051,629.0414,885.1116,630.5863Z" transform="translate(-659.3164 -605.9711)" style="fill:#f2d6ca;stroke:#87313f;stroke-miterlimit:10"/><path d="M907.5562,641.3093c-1.2338,2.5628-8.7249-.3567-8.2191-2.9149C900.7542,634.4293,908.3843,637.5952,907.5562,641.3093Z" transform="translate(-659.3164 -605.9711)" style="fill:url(#radial-gradient-12)"/><path d="M903.1678,640.2932c3.8845,1.7061,5.14-1.681,1.0253-2.9324C900.5977,635.7353,899.6686,638.6945,903.1678,640.2932Z" transform="translate(-659.3164 -605.9711)" style="fill:#f2d6ca;stroke:#87313f;stroke-miterlimit:10"/><path d="M921.0258,655.5508c-1.9932,1.9357-6.6936-2.8009-4.9625-4.9136C918.7058,647.1177,923.6034,652.636,921.0258,655.5508Z" transform="translate(-659.3164 -605.9711)" style="fill:url(#radial-gradient-13)"/><path d="M918.1268,653.289c2.2562,2.7054,4.7644-.3325,2.2238-2.3906C918.137,648.4125,916.2448,651.1031,918.1268,653.289Z" transform="translate(-659.3164 -605.9711)" style="fill:#f2d6ca;stroke:#87313f;stroke-miterlimit:10"/><path d="M687.4226,706.9928c14.3134,10.8433,25.8606-11.5791,16.1866-20.8172C685.7633,674.97,673.65,701.2835,687.4226,706.9928Z" transform="translate(-659.3164 -605.9711)" style="fill:url(#radial-gradient-14)"/><path d="M698.3028,698.5034c-5.97,11.7275-20.9249,5.7922-15.4638-5.9733C687.5471,678.9974,703.3961,685.0781,698.3028,698.5034Z" transform="translate(-659.3164 -605.9711)" style="fill:#f2d6ca;stroke:#87313f;stroke-miterlimit:10"/><path d="M695.8774,677.7906c8.6533,12.8985,24.3953-2.229,19.0688-12.5387C704.7091,651.7042,685.8291,668.0329,695.8774,677.7906Z" transform="translate(-659.3164 -605.9711)" style="fill:url(#radial-gradient-15)"/><path d="M707.1438,673.8729c-8.0266,7.9357-18.7983-1.0894-10.9375-9.1751C703.7263,654.8561,714.9953,664.3313,707.1438,673.8729Z" transform="translate(-659.3164 -605.9711)" style="fill:#f2d6ca;stroke:#87313f;stroke-miterlimit:10"/><path d="M731.0142,645.2322c10.1132,9.1529-4.935,21.048-13.2421,15.0979C707.2534,650.026,723.52,635.2523,731.0142,645.2322Z" transform="translate(-659.3164 -605.9711)" style="fill:url(#radial-gradient-16)"/><path d="M726.2247,654.59c7.8747-5.9016,1.2-16.5873-6.675-10.6857C710.0644,649.2526,716.9478,660.3079,726.2247,654.59Z" transform="translate(-659.3164 -605.9711)" style="fill:#f2d6ca;stroke:#87313f;stroke-miterlimit:10"/><path d="M753.47,633.95c7.4678,10.0763-8.2509,18.047-14.6407,11.1782C731.2876,634.2,748.2938,623.4741,753.47,633.95Z" transform="translate(-659.3164 -605.9711)" style="fill:url(#radial-gradient-17)"/><path d="M747.4461,641.4054c8.1348-3.8566,4.0134-14.7646-4.1484-10.8117C733.9486,633.5927,738.2248,645.0628,747.4461,641.4054Z" transform="translate(-659.3164 -605.9711)" style="fill:#f2d6ca;stroke:#87313f;stroke-miterlimit:10"/><path d="M761.356,627.6357c-4.9775,10.0316,10.1612,14.5647,14.7182,7.53C780.9239,624.4757,764.2727,617.5484,761.356,627.6357Z" transform="translate(-659.3164 -605.9711)" style="fill:url(#radial-gradient-18)"/><path d="M767.7523,633.3643c-7.8292-2.0794-5.9294-12.2426,1.9-10.1632C778.74,624.49,776.1974,635.0965,767.7523,633.3643Z" transform="translate(-659.3164 -605.9711)" style="fill:#f2d6ca;stroke:#87313f;stroke-miterlimit:10"/><path d="M796.0414,623.5006c-.4215,9.33-13.2124,6.801-13.89-.4475C782.2032,613.9319,798.0579,614.4081,796.0414,623.5006Z" transform="translate(-659.3164 -605.9711)" style="fill:url(#radial-gradient-19)"/><path d="M789.2524,625.1372c6.38.9485,8.6739-7.6513,1.6626-8.5683C783.76,614.6775,782.1289,623.8774,789.2524,625.1372Z" transform="translate(-659.3164 -605.9711)" style="fill:#f2d6ca;stroke:#87313f;stroke-miterlimit:10"/><path d="M815.5446,620.9455c1.5716,7.3939-8.9741,7.9828-10.9867,2.5423C802.713,616.3291,815.2631,613.3923,815.5446,620.9455Z" transform="translate(-659.3164 -605.9711)" style="fill:url(#radial-gradient-20)"/><path d="M810.4245,623.67c5.1386.1872,5.9972-7.36.4085-7.0493C804.8118,615.8762,804.4616,623.4609,810.4245,623.67Z" transform="translate(-659.3164 -605.9711)" style="fill:#f2d6ca;stroke:#87313f;stroke-miterlimit:10"/><path d="M823.7572,625.0005c3.0943,4.9117,11.9082,1.9711,9.81-3.9084C831.4967,615.1162,820.9582,619.0292,823.7572,625.0005Z" transform="translate(-659.3164 -605.9711)" style="fill:url(#radial-gradient-21)"/><path d="M828.1677,625.1923c-4.4846-1.0429-3.89-6.8984.9263-5.5553C834.4141,620.29,833.3267,626.4233,828.1677,625.1923Z" transform="translate(-659.3164 -605.9711)" style="fill:#f2d6ca;stroke:#87313f;stroke-miterlimit:10"/><path d="M844.341,628.249c3.0518,4.6922,12.2888,1.3505,8.5313-4.1613C849.991,620.2735,841.9052,623.21,844.341,628.249Z" transform="translate(-659.3164 -605.9711)" style="fill:url(#radial-gradient-22)"/><path d="M848.5052,628.58c-4.3615-1.1124-3.7195-6.02.8346-4.8542C854.2209,624.4637,853.3058,629.6069,848.5052,628.58Z" transform="translate(-659.3164 -605.9711)" style="fill:#f2d6ca;stroke:#87313f;stroke-miterlimit:10"/><path d="M864.6674,632.0485c2.523,3.61,11.5433,2.9075,9.3381-2.5867C872.1633,624.8993,861.7612,626.4626,864.6674,632.0485Z" transform="translate(-659.3164 -605.9711)" style="fill:url(#radial-gradient-23)"/><path d="M868.966,631.8976c-4.1957-.9624-3.8112-5.3192.62-4.0836C874.2741,628.4985,873.8629,632.9517,868.966,631.8976Z" transform="translate(-659.3164 -605.9711)" style="fill:#f2d6ca;stroke:#87313f;stroke-miterlimit:10"/><path d="M888.2042,637.3662c3.3759,1.6681,1.4012,6.5159-2.0332,4.3124C881.9439,640.0845,884.3039,635.3442,888.2042,637.3662Z" transform="translate(-659.3164 -605.9711)" style="fill:#f2d6ca;stroke:#87313f;stroke-miterlimit:10;stroke-width:2px"/><path d="M902.6806,645.7633c3.2843,2.3693,1.027,5.9963-2.23,3.5307C896.438,646.9294,899.011,643.2866,902.6806,645.7633Z" transform="translate(-659.3164 -605.9711)" style="fill:#f2d6ca;stroke:#87313f;stroke-miterlimit:10;stroke-width:2px"/><path d="M915.3407,655.8341c2.4869,2.2507.2787,4.9571-2.1812,2.61C910.2336,656.2786,912.7845,653.46,915.3407,655.8341Z" transform="translate(-659.3164 -605.9711)" style="fill:#f2d6ca;stroke:#87313f;stroke-miterlimit:10;stroke-width:2px"/><path d="M925.7771,668.2954c2.8453,2.4545-.0168,6.0166-2.6851,3.3C919.615,669.1724,922.6965,665.5677,925.7771,668.2954Z" transform="translate(-659.3164 -605.9711)" style="fill:#87313f"/><path d="M932.304,666.482c2.9841,2.7008.0258,6.2361-2.8352,3.4658C925.8261,667.3747,929.0576,663.6042,932.304,666.482Z" transform="translate(-659.3164 -605.9711)" style="fill:#87313f"/><path d="M937.5647,683.7289c2.321,2.1007.3861,4.5717-1.908,2.3748C932.8,684.0613,935.0778,681.4782,937.5647,683.7289Z" transform="translate(-659.3164 -605.9711)" style="fill:#87313f"/><path d="M945.4872,694.0358c2.3211,2.1007.3861,4.5717-1.908,2.3747C940.6265,694.3414,942.9041,691.7582,945.4872,694.0358Z" transform="translate(-659.3164 -605.9711)" style="fill:#87313f"/><path d="M943.2182,682.8139c2.4174,2.1275.0324,5.096-2.235,2.8026C938.0305,683.5473,940.5387,680.51,943.2182,682.8139Z" transform="translate(-659.3164 -605.9711)" style="fill:#87313f"/><path d="M952.9468,696.3236c2.4174,2.1275.0324,5.096-2.2349,2.8027C947.69,696.9339,950.2674,694.0192,952.9468,696.3236Z" transform="translate(-659.3164 -605.9711)" style="fill:#87313f"/></g></g></svg>