<svg id="pizza" xmlns="http://www.w3.org/2000/svg" xmlns:xlink="http://www.w3.org/1999/xlink" viewBox="0 0 104.609 141.3059"><defs><radialGradient id="radial-gradient" cx="-396.3474" cy="2341.334" r="62.2382" gradientTransform="matrix(-0.3513, -0.9363, 0.6179, -0.2318, -367.9185, 1341.9677)" gradientUnits="userSpaceOnUse"><stop offset="0" stop-color="#a88800"/><stop offset="0.2231" stop-color="#a38201"/><stop offset="0.5084" stop-color="#957302"/><stop offset="0.8262" stop-color="#7e5804"/><stop offset="1" stop-color="#6e4706"/></radialGradient></defs><g id="green_olive_whole"><path d="M1257.8,1228.5c38.2-42.8-7.1-142.5-65-125.6C1136.6,1130.6,1180,1289.4,1257.8,1228.5Z" transform="translate(-1167.3015 -1100.9909)" style="fill:url(#radial-gradient)"/><g id="Highlight_A-3" data-name="Highlight A-3" style="opacity:0.4000000059604645"><path d="M1218.9,1229.7c4.5-2,13.8-.6,13,5.9-1.2,2.7-9.2,1.6-11.8,1.2-23.3-1.3-41-30.1-40.1-40.1C1180.6,1202.9,1201,1233,1218.9,1229.7Z" transform="translate(-1167.3015 -1100.9909)" style="fill:#cdad3c"/><path d="M1229.5,1112.9c19.2,11.3,34.3,38.9,5.9,34.2-10.8-2.9-9.6-14.2-22.4-22.4-10.6-6.8-20.6-5-21.2-9.4-.4-3.2,4.7-6.7,8.3-8.3C1212,1101.9,1225.6,1110.5,1229.5,1112.9Z" transform="translate(-1167.3015 -1100.9909)" style="fill:#cdad3c"/></g><g id="Highlight_B-3" data-name="Highlight B-3" style="opacity:0.8199999928474426"><path d="M1238.9,1126.5c2.6,1.4,11,12.6,6.3,14.5-1.4-1.7-1.7-6.2-3.1-8.4C1240.5,1128.8,1238.7,1126.7,1238.9,1126.5Z" transform="translate(-1167.3015 -1100.9909)" style="fill:#d1b375"/><path d="M1228.7,1233.7c-4.1,2.2-9.4,1.8-13.6.1v-.2c.2-.2.6,0,.9,0,4.3,1.2,8.4-.8,12.7-.1Z" transform="translate(-1167.3015 -1100.9909)" style="fill:#d1b375"/><path d="M1199.3,1225.8a37.8555,37.8555,0,0,0,13.6,7.5v.2C1207.8,1232.4,1203.2,1229.3,1199.3,1225.8Z" transform="translate(-1167.3015 -1100.9909)" style="fill:#d1b375"/><path d="M1232.8,1120.9c-11.7-7.3-21.5-8.5-35-7.9l-.1-.2c11.8-4.8,26.1-.4,35.2,8Z" transform="translate(-1167.3015 -1100.9909)" style="fill:#d1b375"/><path d="M1236.7,1131.2c-.7.7-5.4,0-6.3-1-.7-.6-.6-1.1-1.2-2.3-1.3-2.8-3-3.5-2.7-4.1C1229.3,1121.4,1238.7,1129.2,1236.7,1131.2Z" transform="translate(-1167.3015 -1100.9909)" style="fill:#d1b375"/></g></g></svg>