<svg id="pizza" xmlns="http://www.w3.org/2000/svg" xmlns:xlink="http://www.w3.org/1999/xlink" viewBox="0 0 104.5887 141.3396"><defs><radialGradient id="radial-gradient" cx="-553.6403" cy="2287.1572" r="62.2249" gradientTransform="matrix(-0.3513, -0.9363, 0.6179, -0.2318, -385.165, 1348.4377)" gradientUnits="userSpaceOnUse"><stop offset="0" stop-color="#18473f"/><stop offset="0.2114" stop-color="#16413a"/><stop offset="0.4818" stop-color="#11322c"/><stop offset="0.7828" stop-color="#081715"/><stop offset="1"/></radialGradient></defs><g id="black_olive_whole"><path d="M1262.3,1394.8c38.2-42.8-7.1-142.5-65-125.6C1141.1,1296.9,1184.6,1455.8,1262.3,1394.8Z" transform="translate(-1171.8218 -1267.2909)" style="fill:url(#radial-gradient)"/><g id="Highlight_A" data-name="Highlight A"><path d="M1223.4,1396c4.5-2,13.8-.6,13,5.9-1.2,2.7-9.2,1.6-11.8,1.2-23.3-1.3-41-30.1-40.1-40.1C1185.2,1369.2,1205.5,1399.3,1223.4,1396Z" transform="translate(-1171.8218 -1267.2909)" style="fill:#5bd3b6;opacity:0.20000000298023224;isolation:isolate"/><path d="M1234,1279.2c19.2,11.3,34.3,38.9,5.9,34.2-10.8-2.9-9.6-14.2-22.4-22.4-10.6-6.8-20.6-5-21.2-9.4-.4-3.2,4.7-6.7,8.3-8.3C1216.5,1268.2,1230.1,1276.8,1234,1279.2Z" transform="translate(-1171.8218 -1267.2909)" style="fill:#5bd3b6;opacity:0.20000000298023224;isolation:isolate"/></g><g id="Highlight_B" data-name="Highlight B"><path d="M1243.5,1292.9c2.6,1.4,11,12.6,6.3,14.5-1.4-1.7-1.7-6.2-3.1-8.4C1245,1295.1,1243.3,1293,1243.5,1292.9Z" transform="translate(-1171.8218 -1267.2909)" style="fill:#6e9982"/><path d="M1233.2,1400.1c-4.1,2.2-9.4,1.8-13.6.1v-.2c.2-.2.6,0,.9,0,4.3,1.2,8.4-.8,12.7-.1Z" transform="translate(-1171.8218 -1267.2909)" style="fill:#6e9982"/><path d="M1203.8,1392.2a37.857,37.857,0,0,0,13.6,7.5v.2C1212.3,1398.8,1207.7,1395.6,1203.8,1392.2Z" transform="translate(-1171.8218 -1267.2909)" style="fill:#6e9982"/><path d="M1237.3,1287.3c-11.7-7.3-21.5-8.5-35-7.9l-.1-.2c11.8-4.8,26.1-.4,35.2,8Z" transform="translate(-1171.8218 -1267.2909)" style="fill:#6e9982"/><path d="M1241.3,1297.6c-.7.7-5.4,0-6.3-1-.7-.6-.6-1.1-1.2-2.3-1.3-2.8-3-3.5-2.7-4.1C1233.8,1287.7,1243.2,1295.6,1241.3,1297.6Z" transform="translate(-1171.8218 -1267.2909)" style="fill:#6e9982"/></g></g></svg>