<svg id="pizza" xmlns="http://www.w3.org/2000/svg" xmlns:xlink="http://www.w3.org/1999/xlink" viewBox="0 0 100.2991 144.1068"><defs><radialGradient id="radial-gradient" cx="-1412.6494" cy="-624.1636" r="62.2249" gradientTransform="matrix(-0.0826, -0.9966, -0.6577, 0.0545, 673.0377, -40.1387)" gradientUnits="userSpaceOnUse"><stop offset="0" stop-color="#18473f"/><stop offset="0.2114" stop-color="#16413a"/><stop offset="0.4818" stop-color="#11322c"/><stop offset="0.7828" stop-color="#081715"/><stop offset="1"/></radialGradient></defs><g id="black_olive_whole"><path d="M1222.5819,1400.5235c48.4258-30.7574,32.0386-139.0331-28.2756-138.5671C1132.6816,1273.2764,1131.1894,1438.0163,1222.5819,1400.5235Z" transform="translate(-1150.6204 -1261.9549)" style="fill:url(#radial-gradient)"/><g id="Highlight_A" data-name="Highlight A"><path d="M1184.83,1391.0673c4.8749-.6967,13.44,3.1869,10.8977,9.2222-1.8909,2.27-9.2875-.97-11.68-2.0642-22.0619-7.6062-31.235-40.142-27.6414-49.5173C1155.3883,1354.8637,1166.7082,1389.36,1184.83,1391.0673Z" transform="translate(-1150.6204 -1261.9549)" style="fill:#5bd3b6;opacity:0.20000000298023224;isolation:isolate"/><path d="M1226.8869,1281.5876c15.39,16.1087,22.3887,46.7809-3.6523,34.5124-9.6-5.7359-5.3627-16.28-15.4407-27.6606-8.3431-9.4335-18.4549-10.4294-17.832-14.8262.488-3.1877,6.3493-5.1639,10.2493-5.7213C1213.0509,1266.2313,1223.7894,1278.2149,1226.8869,1281.5876Z" transform="translate(-1150.6204 -1261.9549)" style="fill:#5bd3b6;opacity:0.20000000298023224;isolation:isolate"/></g><g id="Highlight_B" data-name="Highlight B"><path d="M1232.29,1297.36c2.12,2.0561,7.146,15.1226,2.106,15.6686-.8832-2.0174.0557-6.4286-.6911-8.9271C1233.1328,1299.8851,1232.07,1297.4011,1232.29,1297.36Z" transform="translate(-1150.6204 -1261.9549)" style="fill:#6e9982"/><path d="M1193.14,1397.6849c-4.5446.9982-9.5346-.8323-13.1115-3.6135l.0545-.1923c.2469-.1379.5772.1636.8659.2455,3.81,2.3273,8.3,1.5215,12.2456,3.3679Z" transform="translate(-1150.6204 -1261.9549)" style="fill:#6e9982"/><path d="M1167.0094,1382.0651a37.8571,37.8571,0,0,0,11.0385,10.9252l-.0545.1924C1173.3868,1390.7334,1169.834,1386.4,1167.0094,1382.0651Z" transform="translate(-1150.6204 -1261.9549)" style="fill:#6e9982"/><path d="M1227.8524,1290.2807c-9.2651-10.2146-18.3662-14.0422-31.518-17.1473l-.0416-.22c12.6618-1.3994,25.2194,6.7344,31.56,17.367Z" transform="translate(-1150.6204 -1261.9549)" style="fill:#6e9982"/><path d="M1228.8912,1301.2811c-.8643.4825-5.1953-1.4729-5.7884-2.68-.51-.7682-.2772-1.2219-.5271-2.54-.4869-3.0484-1.9315-4.1855-1.4792-4.6809C1224.376,1289.7107,1231.2646,1299.8752,1228.8912,1301.2811Z" transform="translate(-1150.6204 -1261.9549)" style="fill:#6e9982"/></g></g></svg>