<svg id="pizza" xmlns="http://www.w3.org/2000/svg" xmlns:xlink="http://www.w3.org/1999/xlink" viewBox="0 0 103.0218 115.9659"><defs><radialGradient id="radial-gradient" cx="-391.078" cy="2359.5222" r="52.7181" gradientTransform="matrix(-0.2677, -0.9635, 0.8331, -0.2315, -716.2867, 1338.3679)" gradientUnits="userSpaceOnUse"><stop offset="0.3165" stop-color="#a88800"/><stop offset="0.4521" stop-color="#a38201"/><stop offset="0.6255" stop-color="#957302"/><stop offset="0.8186" stop-color="#7e5804"/><stop offset="0.9242" stop-color="#6e4706"/></radialGradient></defs><g id="green_olive_sliced"><g id="Blacko_copy" data-name="Blacko copy"><path d="M1331.6,1157.8c1.7,1.2,5-2.4,10.6-5.3,30-14.8,38.4,13.2,38.6,37a34.0611,34.0611,0,0,0,.8-35.5c-1.5-2.4-6.3-10-15.9-12.9C1357.6,1137.1,1325.9,1147.4,1331.6,1157.8Z" transform="translate(-1301.0256 -1117.8)" style="fill:#4f2608"/><path d="M1304.4,1175.9c3.5,35.6,49.1,63.2,82.4,42.3,4.1-3.1,12.3-12.6,14.4-19.7a56.8286,56.8286,0,0,1-10.6,21.2c-16.5,19.7-50.2,18.5-73.3-2.3-11.1-8.9-23.9-40-10.6-59C1307.3,1158.7,1303.8,1166,1304.4,1175.9Z" transform="translate(-1301.0256 -1117.8)" style="fill:#4f2608"/></g><path d="M1401.2,1162.3c-12.7-77.2-101.7-42.8-98.4,18.7C1317.8,1244.5,1422.5,1247,1401.2,1162.3Zm-19.4,4.9c1.8,11.4.9,24.2-11.5,33.1-12.7,6.6-36.5-5.6-39.8-23.6-3-38.6,48.5-43.8,51.3-9.5Z" transform="translate(-1301.0256 -1117.8)" style="fill:url(#radial-gradient)"/><g id="Highlight_A-4" data-name="Highlight A-4" style="opacity:0.4000000059604645"><path d="M1372.8,1214.5c11.1-8,24.2-3.7,3.9,6-17.4,10-53.7-12.3-54.2-17.4C1324.7,1206.2,1361.3,1224,1372.8,1214.5Z" transform="translate(-1301.0256 -1117.8)" style="fill:#cdad3c"/><path d="M1376.2,1129.1c2.4,3.5,3.4,9.2,1.3,10.9-2.5,2-6.4-3.4-14.7-4.3-11-1.3-18.1,5.5-20.1,3C1341.5,1123.3,1368,1117.3,1376.2,1129.1Z" transform="translate(-1301.0256 -1117.8)" style="fill:#cdad3c"/></g><g id="Highlight_B-4" data-name="Highlight B-4"><path d="M1381.3,1214.5a21.2927,21.2927,0,0,1,2.5-1.6C1381.4,1217.1,1370.3,1220.2,1381.3,1214.5Z" transform="translate(-1301.0256 -1117.8)" style="fill:#d1b375"/><path d="M1335.4,1156.3c-20,26.9,33.4,67.6,46.1,27.2,1.8-7,.5-12.8.8-12.9,1.5,5.8,2.1,18.5-6.8,26.5C1350.7,1216.6,1315.5,1178.3,1335.4,1156.3Z" transform="translate(-1301.0256 -1117.8)" style="fill:#d1b375"/><path d="M1303.6,1164.6c-9.2,51.3,75.4,90,97.5,35.5C1382.4,1258.5,1289.2,1217.4,1303.6,1164.6Z" transform="translate(-1301.0256 -1117.8)" style="fill:#d1b375"/><path d="M1316.5,1150.2c.4,1.7,9.9,8,13.6,9.1C1328.7,1156.7,1317.8,1151.2,1316.5,1150.2Z" transform="translate(-1301.0256 -1117.8)" style="fill:#d1b375"/><path d="M1315.3,1189.7c1.3.6,11.3-2.3,14.1-4.1C1326.8,1185.1,1316.7,1189.4,1315.3,1189.7Z" transform="translate(-1301.0256 -1117.8)" style="fill:#d1b375"/><path d="M1323.3,1160.1c.2-.3,6.2,1.9,6,2.2C1327.9,1162.6,1323.6,1160.7,1323.3,1160.1Z" transform="translate(-1301.0256 -1117.8)" style="fill:#d1b375"/><path d="M1379.7,1151.9c3.3-2.5,4.6-6.7,7.9-9.3C1385.5,1145.5,1383.3,1151.3,1379.7,1151.9Z" transform="translate(-1301.0256 -1117.8)" style="fill:#d1b375"/><path d="M1333.2,1137.1c1.5,3.6,4.3,6.5,5.3,10.3l-.1.1c-3.4-2.3-4.2-6.7-5.3-10.4Z" transform="translate(-1301.0256 -1117.8)" style="fill:#d1b375"/><path d="M1327,1173.3c-5.1,1.1-10.8,2.3-15.7,0v-.1c5.2-.6,10.4.7,15.7,0Z" transform="translate(-1301.0256 -1117.8)" style="fill:#d1b375"/><path d="M1351.9,1202.3c.2,4.4-3,8.1-5.8,11.2l-.1-.1c2.5-3.5,3.2-7.8,5.7-11.1Z" transform="translate(-1301.0256 -1117.8)" style="fill:#d1b375"/><path d="M1394.6,1198.2c-4.2-1.8-9.1-4.1-10.9-8.6l.1-.1c3.9,2.5,6.7,6.3,10.8,8.5Z" transform="translate(-1301.0256 -1117.8)" style="fill:#d1b375"/><path d="M1379.8,1149c.3-2.4,1.5-4.5,1.7-6.9h.1c0,2.3-.1,5.1-1.8,6.9Z" transform="translate(-1301.0256 -1117.8)" style="fill:#d1b375"/><path d="M1384.4,1162.1c2.7-.6,5.5-.5,8.1-1.6v.1c-2.5,1.2-5.4,2.4-8.1,1.5Z" transform="translate(-1301.0256 -1117.8)" style="fill:#d1b375"/><path d="M1382.2,1160.7c4.2-2.8,9.1-4.6,12.4-8.7l.1.1c-2.7,4.3-7.1,8.6-12.4,8.7Z" transform="translate(-1301.0256 -1117.8)" style="fill:#d1b375"/><path d="M1332.4,1188.4c-2.4,1.8-5.5,2.3-8.3,3.4v-.1c2.7-1.2,5.3-2.9,8.3-3.3Z" transform="translate(-1301.0256 -1117.8)" style="fill:#d1b375"/><path d="M1346.9,1206.8c.2,1.7-1.5,3-2.6,4l-.1-.1c1.1-1.1,1.5-2.8,2.7-3.9Z" transform="translate(-1301.0256 -1117.8)" style="fill:#d1b375"/><path d="M1386,1183.8c5.3.3,10.6.9,15.9,0v.1c-5.2,1-10.8,1.7-15.9-.1Z" transform="translate(-1301.0256 -1117.8)" style="fill:#d1b375"/><path d="M1383.7,1192.7a14.9057,14.9057,0,0,0,3.9,4.4v.1c-1.8-.9-4.2-2.2-3.9-4.5Z" transform="translate(-1301.0256 -1117.8)" style="fill:#d1b375"/><path d="M1385.1,1181.6c4.2-1.4,8.8-1,13.1-2.5l.1.1c-4,1.9-8.7,4-13.1,2.5Z" transform="translate(-1301.0256 -1117.8)" style="fill:#d1b375"/><path d="M1373.5,1131.8c-7.2-5.3-17.6-4-24.8.8l-.2-.2c5.9-7.7,19.2-9.2,25.1-.7Z" transform="translate(-1301.0256 -1117.8)" style="fill:#d1b375"/><path d="M1373.4,1219.2c-4.3,2.9-11.1,1.5-16.1.7v-.1c4.6,1,9.5,1.3,13.9-.6C1371.9,1218.9,1372.9,1218.3,1373.4,1219.2Z" transform="translate(-1301.0256 -1117.8)" style="fill:#d1b375"/></g></g></svg>