<svg id="pizza" xmlns="http://www.w3.org/2000/svg" xmlns:xlink="http://www.w3.org/1999/xlink" viewBox="0 0 103.0219 115.9659"><defs><radialGradient id="radial-gradient" cx="-533.095" cy="2305.4359" r="52.7181" gradientTransform="matrix(-0.2677, -0.9635, 0.8331, -0.2315, -710.0025, 1340.9795)" gradientUnits="userSpaceOnUse"><stop offset="0.3165" stop-color="#18473f"/><stop offset="0.445" stop-color="#16413a"/><stop offset="0.6093" stop-color="#11322c"/><stop offset="0.7922" stop-color="#081715"/><stop offset="0.9242"/></radialGradient></defs><g id="black_olive_sliced"><g id="Blacko"><path d="M1330.9,1309.8c1.7,1.2,5-2.4,10.6-5.3,20.7-11.5,36.5,2.6,37.8,25.7.4,11.2,0,15.6,3.8,5.3,9.5-22.4-10.8-55.6-41.6-38.6C1336.6,1299,1327.3,1303.5,1330.9,1309.8Z" transform="translate(-1300.2255 -1269.8)" style="fill:#1d1d1b"/><path d="M1303.6,1327.9c3.5,35.6,49.1,63.2,82.4,42.3,4.1-3.1,12.3-12.6,14.4-19.7a56.8267,56.8267,0,0,1-10.6,21.2c-16.5,19.7-50.2,18.5-73.3-2.3-11.1-8.9-23.9-40-10.6-59C1306.5,1310.7,1303.1,1318,1303.6,1327.9Z" transform="translate(-1300.2255 -1269.8)" style="fill:#1d1d1b"/></g><path d="M1400.4,1314.3c-12.7-77.2-101.7-42.8-98.4,18.7C1317,1396.5,1421.7,1399,1400.4,1314.3Zm-19.3,4.9c1.8,11.4.9,24.2-11.5,33.1-12.7,6.6-36.5-5.6-39.8-23.6C1326.8,1290.1,1378.2,1284.9,1381.1,1319.2Z" transform="translate(-1300.2255 -1269.8)" style="fill:url(#radial-gradient)"/><g id="Highlight_A-2" data-name="Highlight A-2"><path d="M1372,1366.5c11.1-8,24.2-3.7,3.9,6-17.4,10-53.7-12.3-54.2-17.4C1323.9,1358.2,1360.5,1376,1372,1366.5Z" transform="translate(-1300.2255 -1269.8)" style="fill:#5bd3b6;opacity:0.20000000298023224;isolation:isolate"/><path d="M1375.5,1281c2.4,3.5,3.4,9.2,1.3,10.9-2.5,2-6.4-3.4-14.7-4.3-11-1.3-18.1,5.5-20.1,3C1340.7,1275.3,1367.2,1269.3,1375.5,1281Z" transform="translate(-1300.2255 -1269.8)" style="fill:#5bd3b6;opacity:0.20000000298023224;isolation:isolate"/></g><g id="Highlight_B-2" data-name="Highlight B-2"><path d="M1380.6,1366.5a21.2844,21.2844,0,0,1,2.5-1.6C1380.7,1369.1,1369.5,1372.2,1380.6,1366.5Z" transform="translate(-1300.2255 -1269.8)" style="fill:#6e9982"/><path d="M1380.5,1366.5c5.8-4-1.2,2.5-3.5,3.1C1372.5,1370.1,1379.5,1367.3,1380.5,1366.5Zm.1,0c-.9.9-7.3,3.6-3.6,2.9h0c2.3-.6,9-6.6,3.6-2.9Z" transform="translate(-1300.2255 -1269.8)" style="fill:#6e9982"/><path d="M1334.6,1308.2c-20,26.9,33.4,67.6,46.1,27.2,1.8-7,.5-12.8.8-12.9,1.5,5.8,2.1,18.5-6.8,26.5C1349.9,1368.5,1314.7,1330.3,1334.6,1308.2Z" transform="translate(-1300.2255 -1269.8)" style="fill:#6e9982"/><path d="M1334.6,1308.2c-3.7,6.7-6.1,13.7-3,21.2h0c8.7,28.3,51.9,32.4,50-3.4-.6-11.3,4.3,13-5.1,21.5C1354.3,1370.9,1313.2,1331.2,1334.6,1308.2Zm0,.1c-12.2,12-3.3,32.5,9.2,40.8,19.8,14.6,44.2-2.9,37.6-26.3h.1c4.7,53.8-69,24-46.9-14.5Z" transform="translate(-1300.2255 -1269.8)" style="fill:#6e9982"/><path d="M1302.9,1316.6c-9.2,51.3,75.4,90,97.5,35.5C1381.6,1410.5,1288.4,1369.4,1302.9,1316.6Z" transform="translate(-1300.2255 -1269.8)" style="fill:#6e9982"/><path d="M1302.9,1316.5c-10,51.1,76.3,89.5,97.4,35.6a.3491.3491,0,0,1,.2-.1C1383.1,1410.5,1287.7,1369.5,1302.9,1316.5Zm0,.1c-14.7,52.8,79.4,93.3,97.5,35.6C1379.5,1406.3,1293.1,1368,1302.9,1316.6Z" transform="translate(-1300.2255 -1269.8)" style="fill:#6e9982"/><path d="M1315.7,1302.2c.4,1.7,9.9,8,13.6,9.1C1327.9,1308.6,1317.1,1303.2,1315.7,1302.2Z" transform="translate(-1300.2255 -1269.8)" style="fill:#6e9982"/><path d="M1315.7,1302.2c3.2,4.2,9.7,7.1,13.5,9C1325.6,1307,1320.1,1305.4,1315.7,1302.2Zm0,0c4.5,3,10.1,4.6,13.7,9a.1384.1384,0,0,1,0,.2c-5-2-10.2-5-13.7-9.2Z" transform="translate(-1300.2255 -1269.8)" style="fill:#6e9982"/><path d="M1314.5,1341.6c1.3.6,11.3-2.3,14.1-4.1C1326,1337.1,1315.9,1341.3,1314.5,1341.6Z" transform="translate(-1300.2255 -1269.8)" style="fill:#6e9982"/><path d="M1314.5,1341.6c4.9-.1,9.7-2.1,14.1-4.2l-.1.1a.0979.0979,0,0,0,.1.1C1323.6,1337.8,1319.3,1340.5,1314.5,1341.6Zm0,0c4.7-1.3,9.3-4.5,14.2-4.1l-.1.1C1324.2,1339.7,1319.4,1341.7,1314.5,1341.6Z" transform="translate(-1300.2255 -1269.8)" style="fill:#6e9982"/><path d="M1322.5,1312c.2-.3,6.2,1.9,6,2.2C1327.2,1314.6,1322.8,1312.7,1322.5,1312Z" transform="translate(-1300.2255 -1269.8)" style="fill:#6e9982"/><path d="M1322.5,1312c1.9.4,4.8.9,6.1,2.3A8.3466,8.3466,0,0,1,1322.5,1312Zm.1.1c1.6,1.3,4.2,1.9,5.9,2.2a18.3481,18.3481,0,0,0-5.9-2.2Z" transform="translate(-1300.2255 -1269.8)" style="fill:#6e9982"/><path d="M1379,1303.8c3.3-2.5,4.6-6.7,7.9-9.3C1384.7,1297.4,1382.6,1303.3,1379,1303.8Z" transform="translate(-1300.2255 -1269.8)" style="fill:#6e9982"/><path d="M1379,1303.8c3.3-2.5,4.6-6.9,8-9.4.1,0,.1.2.1.1C1384.5,1297.8,1383.3,1302.8,1379,1303.8Zm0,0c4.2-1.3,5.2-6.2,7.8-9.2C1384.1,1297.1,1382.1,1301.3,1379,1303.8Z" transform="translate(-1300.2255 -1269.8)" style="fill:#6e9982"/><path d="M1332.4,1289c1.5,3.6,4.3,6.5,5.3,10.3l-.1.1c-3.4-2.3-4.2-6.7-5.3-10.4Z" transform="translate(-1300.2255 -1269.8)" style="fill:#6e9982"/><path d="M1326.3,1325.3c-5.1,1.1-10.8,2.3-15.7,0v-.1c5.2-.6,10.4.7,15.7,0Z" transform="translate(-1300.2255 -1269.8)" style="fill:#6e9982"/><path d="M1351.2,1354.3c.2,4.4-3,8.1-5.8,11.2l-.1-.1c2.5-3.5,3.2-7.8,5.7-11.1Z" transform="translate(-1300.2255 -1269.8)" style="fill:#6e9982"/><path d="M1393.8,1350.1c-4.2-1.8-9.1-4.1-10.9-8.6l.1-.1c3.9,2.5,6.7,6.3,10.8,8.5Z" transform="translate(-1300.2255 -1269.8)" style="fill:#6e9982"/><path d="M1379,1301c.3-2.4,1.5-4.5,1.7-6.9h.1c0,2.3,0,5-1.8,6.9Z" transform="translate(-1300.2255 -1269.8)" style="fill:#6e9982"/><path d="M1383.6,1314c2.7-.6,5.5-.5,8.1-1.6v.1c-2.4,1.3-5.4,2.5-8.1,1.5Z" transform="translate(-1300.2255 -1269.8)" style="fill:#6e9982"/><path d="M1381.5,1312.7c4.2-2.8,9.1-4.6,12.4-8.7l.1.1c-2.7,4.3-7.1,8.6-12.4,8.7Z" transform="translate(-1300.2255 -1269.8)" style="fill:#6e9982"/><path d="M1331.6,1340.4c-2.4,1.8-5.5,2.3-8.3,3.4v-.1c2.7-1.2,5.3-2.9,8.3-3.3Z" transform="translate(-1300.2255 -1269.8)" style="fill:#6e9982"/><path d="M1346.2,1358.8c.2,1.7-1.5,3-2.6,4l-.1-.1c1-1.1,1.5-2.8,2.7-3.9Z" transform="translate(-1300.2255 -1269.8)" style="fill:#6e9982"/><path d="M1385.3,1335.8c5.3.3,10.6.9,15.9,0v.1c-5.2,1-10.8,1.7-15.9-.1Z" transform="translate(-1300.2255 -1269.8)" style="fill:#6e9982"/><path d="M1382.9,1344.7a14.9085,14.9085,0,0,0,3.9,4.4v.1c-1.8-1-4.1-2.3-3.9-4.5Z" transform="translate(-1300.2255 -1269.8)" style="fill:#6e9982"/><path d="M1384.4,1333.5c4.2-1.4,8.8-1,13.1-2.5l.1.1c-4,1.9-8.7,4-13.1,2.5Z" transform="translate(-1300.2255 -1269.8)" style="fill:#6e9982"/><path d="M1372.7,1283.7c-7.2-5.3-17.6-4-24.8.8l-.2-.2c5.9-7.7,19.2-9.2,25.1-.7Z" transform="translate(-1300.2255 -1269.8)" style="fill:#6e9982"/><path d="M1372.6,1371.1c-4.3,2.9-11.1,1.5-16.1.7v-.1c4.6,1,9.5,1.3,13.9-.6C1371.1,1370.9,1372.2,1370.3,1372.6,1371.1Z" transform="translate(-1300.2255 -1269.8)" style="fill:#6e9982"/></g></g></svg>