<svg id="Pizza" xmlns="http://www.w3.org/2000/svg" viewBox="0 0 329.1231 369.8475"><g id="Ingreds"><g id="Onion"><path d="M937.2926,1556.5267c-50.4541-38.8933-127.4-9.4688-135.7852-6.1312-99.3241,39.5356-172.0508,178.6312-115.2166,268.7631,38.9831,61.8222,130.7576,87.6626,196.011,60.5969C999.0907,1831.3138,1018.0148,1618.7527,937.2926,1556.5267Zm-56.464,291.2351c-54.6689,22.6755-131.557,1.0266-164.2167-50.7677-47.6153-75.5119,13.3146-192.0452,96.5276-225.1678,7.0252-2.7963,71.49-27.4479,113.76,5.1366C994.5279,1629.0955,978.6735,1807.1778,880.8286,1847.7618Z" transform="translate(-657.3325 -1520.5949)" style="fill:#f9c7cd"/><path d="M928.2926,1540.5267c-50.4541-38.8933-127.4-9.4688-135.7852-6.1312-99.3241,39.5356-172.0508,178.6312-115.2166,268.7631,38.9831,61.8222,130.7576,87.6626,196.011,60.5969C990.0907,1815.3138,1009.0148,1602.7527,928.2926,1540.5267Zm-56.464,291.2351c-54.6689,22.6755-131.557,1.0266-164.2167-50.7677-47.6153-75.5119,13.3146-192.0452,96.5276-225.1678,7.0252-2.7963,71.49-27.4479,113.76,5.1366C985.5279,1613.0955,969.6735,1791.1778,871.8286,1831.7618Z" transform="translate(-657.3325 -1520.5949)" style="fill:#fcf3f2"/><g id="Lights"><path d="M880.85,1874.8618a6.3312,6.3312,0,0,1-2.6755-1.75,7.8652,7.8652,0,0,1-1.5322-2.4505,7.75,7.75,0,0,1-.5449-2.8374,6.281,6.281,0,0,1,.78-3.1031,8.95,8.95,0,0,1,2.2221,2.1657,10.2282,10.2282,0,0,1,1.2664,2.3162,10.476,10.476,0,0,1,.6388,2.5624A9.0652,9.0652,0,0,1,880.85,1874.8618Z" transform="translate(-657.3325 -1520.5949)" style="fill:#fcf3f2"/><path d="M883.5975,1863.808a13.5787,13.5787,0,0,1,2.15,2.8563,18.7356,18.7356,0,0,1,1.3258,2.8463,18.1833,18.1833,0,0,1,.8276,3.0279,13.3614,13.3614,0,0,1,.1942,3.572,7.4484,7.4484,0,0,1-3.0185-2.1878,9.9008,9.9008,0,0,1-1.76-3.0388,10.0236,10.0236,0,0,1-.61-3.4585A7.5071,7.5071,0,0,1,883.5975,1863.808Z" transform="translate(-657.3325 -1520.5949)" style="fill:#fcf3f2"/><path d="M921.8335,1834.3428a5.5311,5.5311,0,0,1,3.2114,1.1761,7.2516,7.2516,0,0,1,2.0775,2.5113,7.1705,7.1705,0,0,1,.77,3.1667,22.99,22.99,0,0,1-.4851,3.1268,5.0174,5.0174,0,0,1-2.54-2.2677,18.04,18.04,0,0,1-1.3209-2.2351,18.7016,18.7016,0,0,1-.993-2.4A16.5039,16.5039,0,0,1,921.8335,1834.3428Z" transform="translate(-657.3325 -1520.5949)" style="fill:#fcf3f2"/><path d="M924.559,1829.52a4.2391,4.2391,0,0,1,2.0873.1322,2.5774,2.5774,0,0,1,1.1912.8284,2.5262,2.5262,0,0,1,.5125,1.3557,1.5854,1.5854,0,0,1-2.4838,1.93,2.5256,2.5256,0,0,1-1.1869-.8317,2.5767,2.5767,0,0,1-.5082-1.3591A4.2371,4.2371,0,0,1,924.559,1829.52Z" transform="translate(-657.3325 -1520.5949)" style="fill:#fcf3f2"/><path d="M976.51,1725.7605a1.5621,1.5621,0,0,1,.6286-1.6129,1.2169,1.2169,0,0,1,1.217-.08,1.2039,1.2039,0,0,1,.6418,1.0361,1.5619,1.5619,0,0,1-.9579,1.4481,1.97,1.97,0,0,0-1.4146.6167c-.1876.234-.1827.4174-.1075.451.0732.0369.2243-.065.3066-.3536A1.9666,1.9666,0,0,0,976.51,1725.7605Z" transform="translate(-657.3325 -1520.5949)" style="fill:#fcf3f2"/><path d="M972.6752,1741.43a4.44,4.44,0,0,1,2.1953-.1443,3.11,3.11,0,0,1,1.4411.7032,3.0505,3.0505,0,0,1,.87,1.3455,1.5729,1.5729,0,0,1-2.0908,2.35,3.0507,3.0507,0,0,1-1.4374-.7074,3.1114,3.1114,0,0,1-.8661-1.3495A4.4411,4.4411,0,0,1,972.6752,1741.43Z" transform="translate(-657.3325 -1520.5949)" style="fill:#fcf3f2"/><path d="M981.4,1701.2546a12.81,12.81,0,0,1,.81,3.7886,18.4291,18.4291,0,0,1-.0994,3.5148,18.005,18.005,0,0,1-.7647,3.4311,12.6438,12.6438,0,0,1-1.7243,3.4716,9.3364,9.3364,0,0,1-1.4131-3.6931,12.7426,12.7426,0,0,1-.0664-3.7064,12.925,12.925,0,0,1,.9834-3.5747A9.4247,9.4247,0,0,1,981.4,1701.2546Z" transform="translate(-657.3325 -1520.5949)" style="fill:#fcf3f2"/><path d="M767.2443,1582.4408a3.753,3.753,0,0,1,2.4236,1.27,4.5457,4.5457,0,0,1,1.07,2.2472,4.4971,4.4971,0,0,1-.2682,2.474,3.734,3.734,0,0,1-1.8784,1.9947,12.8505,12.8505,0,0,1-1.2641-2.1225,6.5608,6.5608,0,0,1-.533-1.681,6.8112,6.8112,0,0,1-.0428-1.7648A13.1448,13.1448,0,0,1,767.2443,1582.4408Z" transform="translate(-657.3325 -1520.5949)" style="fill:#fcf3f2"/><path d="M773.7345,1577.0708a5.5661,5.5661,0,0,1,2.8018,2.2563,7.5468,7.5468,0,0,1,.7468,6.7381,5.5327,5.5327,0,0,1-2.2494,2.811,23.7852,23.7852,0,0,1-.8764-3.16c-.1915-.9321-.3311-1.7978-.4238-2.6707s-.1465-1.7491-.162-2.701A24.5662,24.5662,0,0,1,773.7345,1577.0708Z" transform="translate(-657.3325 -1520.5949)" style="fill:#fcf3f2"/><path d="M777.6774,1574.05a2.996,2.996,0,0,1,2.1761-.3538,2.7873,2.7873,0,0,1,1.5123.9263,2.7494,2.7494,0,0,1,.6354,1.6548,2.9826,2.9826,0,0,1-.7546,2.0758,9.0519,9.0519,0,0,1-1.9664-.4984,2.4151,2.4151,0,0,1-.9927-.679,2.4911,2.4911,0,0,1-.48-1.1051A9.2077,9.2077,0,0,1,777.6774,1574.05Z" transform="translate(-657.3325 -1520.5949)" style="fill:#fcf3f2"/><path d="M716.5991,1641.5112a4.4563,4.4563,0,0,1,2.4045.6783,4.3555,4.3555,0,0,1,1.43,1.4713,4.2872,4.2872,0,0,1,.5857,1.9651,4.4259,4.4259,0,0,1-.5934,2.43,5.9308,5.9308,0,0,1-2.2113-1.007,4.5847,4.5847,0,0,1-1.2336-1.37,4.6907,4.6907,0,0,1-.5843-1.75A5.9923,5.9923,0,0,1,716.5991,1641.5112Z" transform="translate(-657.3325 -1520.5949)" style="fill:#fcf3f2"/><path d="M713.089,1648.3239a6.9236,6.9236,0,0,1,2.6075,2.1517,8.8732,8.8732,0,0,1,1.3955,2.7656,8.7474,8.7474,0,0,1,.3629,3.0758,6.8654,6.8654,0,0,1-.9974,3.233,9.9211,9.9211,0,0,1-2.0722-2.5472,12.1307,12.1307,0,0,1-1.1239-2.6122,12.4328,12.4328,0,0,1-.4949-2.8015A10.0511,10.0511,0,0,1,713.089,1648.3239Z" transform="translate(-657.3325 -1520.5949)" style="fill:#fcf3f2"/><path d="M709.5149,1660.1742a3.5279,3.5279,0,0,1,1.49.3066,4.083,4.083,0,0,1,1.1062.7242,4.0094,4.0094,0,0,1,.8152,1.04.8892.8892,0,1,1-1.0649,1.1573,4.016,4.016,0,0,1-1.1043-.7262,4.0854,4.0854,0,0,1-.8134-1.0423A3.5288,3.5288,0,0,1,709.5149,1660.1742Z" transform="translate(-657.3325 -1520.5949)" style="fill:#fcf3f2"/><path d="M857.8242,1547.1978a17.6947,17.6947,0,0,1,.7836,3.5605,29.2076,29.2076,0,0,1,.2161,3.56,28.7155,28.7155,0,0,1-.2134,3.5605,17.4686,17.4686,0,0,1-.7863,3.56,17.4619,17.4619,0,0,1-.7863-3.56,28.7155,28.7155,0,0,1-.2134-3.5605,29.2076,29.2076,0,0,1,.2161-3.56A17.6879,17.6879,0,0,1,857.8242,1547.1978Z" transform="translate(-657.3325 -1520.5949)" style="fill:#fcf3f2"/><path d="M853.6509,1550.3652a8.5974,8.5974,0,0,1,.6491,2.4175,13.1413,13.1413,0,0,1,.0826,2.3856,12.9074,12.9074,0,0,1-.3463,2.3616,8.4907,8.4907,0,0,1-.9183,2.33,8.4919,8.4919,0,0,1-.6519-2.4177,12.9069,12.9069,0,0,1-.08-2.3855,13.1276,13.1276,0,0,1,.349-2.3615A8.5984,8.5984,0,0,1,853.6509,1550.3652Z" transform="translate(-657.3325 -1520.5949)" style="fill:#fcf3f2"/><path d="M769.3085,1871.0425a11.1855,11.1855,0,0,1,1.39,2.3542,18.3321,18.3321,0,0,1,.8937,2.4593,17.9529,17.9529,0,0,1,.5388,2.56,11.0375,11.0375,0,0,1,.0563,2.7341,9.307,9.307,0,0,1-1.5584-2.2684,14.0132,14.0132,0,0,1-.96-2.4783,14.2373,14.2373,0,0,1-.4876-2.6128A9.414,9.414,0,0,1,769.3085,1871.0425Z" transform="translate(-657.3325 -1520.5949)" style="fill:#fcf3f2"/><path d="M773.7128,1873.5918a8.1381,8.1381,0,0,1,1.57,1.8558,12.3186,12.3186,0,0,1,1.0419,2.0633,12.0908,12.0908,0,0,1,.6421,2.22,8.0306,8.0306,0,0,1,.1089,2.4294,8.0364,8.0364,0,0,1-1.5727-1.8548,12.1006,12.1006,0,0,1-1.0395-2.0644,12.3236,12.3236,0,0,1-.64-2.221A8.1327,8.1327,0,0,1,773.7128,1873.5918Z" transform="translate(-657.3325 -1520.5949)" style="fill:#fcf3f2"/><path d="M962,1773.2711a18.6029,18.6029,0,0,1,.86,7.3447,26.0751,26.0751,0,0,1-1.4955,7.0291,25.44,25.44,0,0,1-3.36,6.366,17.8343,17.8343,0,0,1-5.4339,5.04,37.2469,37.2469,0,0,1,1.18-7.0791c.5629-2.193,1.2182-4.2969,1.974-6.369.754-2.0728,1.5991-4.1144,2.583-6.1623A35.1589,35.1589,0,0,1,962,1773.2711Z" transform="translate(-657.3325 -1520.5949)" style="fill:#fcf3f2"/></g></g></g></svg>