<svg id="Pizza" xmlns="http://www.w3.org/2000/svg" xmlns:xlink="http://www.w3.org/1999/xlink" viewBox="0 0 90.9049 91.2333"><defs><radialGradient id="radial-gradient" cx="1252.0671" cy="1116.0927" r="43.672" gradientTransform="matrix(0.9819, -0.1896, 0.1896, 0.9819, -180.0152, 282.821)" gradientUnits="userSpaceOnUse"><stop offset="0" stop-color="#fe6413"/><stop offset="1" stop-color="#c10a20"/></radialGradient></defs><g id="Ingreds"><g id="Red_Chili_B" data-name="Red Chili B"><path d="M1306.2888,1137.9a42.8837,42.8837,0,0,0-16.8072-23.7437c-14.1918-10.1408-29.5239-8.2981-34.0742-7.6781-5.4427.7416-14.9638,2.0389-22.6164,9.46-5.9134,5.7346-7.8957,12.3954-11.5381,24.6348-2.6074,8.7617-2.4607,12.6307-2.3493,14.2032a32.26,32.26,0,0,0,6.2639,16.6136c7.073,9.531,17.711,12.45,29.51,15.6888,7.73,2.1215,11.5323,3.4037,16.3565,2.952,11.4078-1.0682,19.3187-8.6587,23.52-12.69,3.3122-3.1781,7.6018-7.294,10.4887-14.2474C1309.8064,1151.6211,1307.139,1141.1061,1306.2888,1137.9Zm-70.3371,25.7233a21.3006,21.3006,0,0,1-4.3472-11.3114c-.0711-1.0729-.156-3.7135,1.73-9.7076,2.6342-8.3732,4.0679-12.93,8.2758-16.8737h0s3.1992-1.7618,5.3634-2.814c.1292-.0628.3847-.1863.742-.3667,1.5994-.8076,1.6937-.9657,1.8625-.9872,1.7437-.222,2.8489,15.2414,8.3225,16.7253a4.3487,4.3487,0,0,0,4.72-1.93c.9078-2.0476-1.9812-4.4-5.4106-12.1953-.5458-1.24-1.8135-4.2285-.9481-4.9093.2486-.1956.5656-.1158,1.3823-.091a14.1,14.1,0,0,0,2.9592-.2209,6.9665,6.9665,0,0,1,2.5581,1.3165c2.6538,2.1659,3.2107,5.6125,3.67,8.4575.4177,2.5847.8656,5.3571-.4467,8.2341-.511,1.12-1.7312,2.3872-4.1508,4.8755-4.3427,4.466-4.9333,4.4315-5.9249,6.2366a14.9914,14.9914,0,0,0-1.6182,7.4419c-.0206,3.2564.7943,4.0426,1.517,7.8549.9578,5.0524,1.4525,7.5938.44,8.681-1.1833,1.2709-3.4588.9258-5.41.6653C1245.1505,1170.9251,1239.7852,1168.6321,1235.9517,1163.6235Zm56.5044-6.0523c-1.7238,3.5-4.1537,5.5646-9.0135,9.694-3.4807,2.9576-6.2828,5.3348-9.24,6.9089-.3684-.2489-.8688-.6068-1.4317-1.0742a21.5,21.5,0,0,1-2.5326-2.5663,23.1562,23.1562,0,0,1-4.8418-9.25c-.2174-1.1167-1.2814-6.581,1.489-11.1907a50.6692,50.6692,0,0,1,4.38-5.7362,22.954,22.954,0,0,0,3.44-4.8573s.1341-.2726.3129-.6955a16.599,16.599,0,0,0,.581-1.5972c1.1553-3.714,1.6716-4.41,2.16-6.8283.5-2.4749.2833-3.3481,1.2052-4.3066a4.5406,4.5406,0,0,1,2.4034-1.1825c3.7639-.5623,9.5876,7.0512,12.06,14.9849C1294.2386,1142.4693,1296.146,1150.08,1292.4561,1157.5712Z" transform="translate(-1216.8979 -1098.8882)" style="fill:#89091e"/><path d="M1304.3322,1130.8487a42.884,42.884,0,0,0-16.8073-23.7438c-14.1918-10.1408-29.5238-8.298-34.0741-7.678-5.4427.7416-14.9638,2.0389-22.6165,9.46-5.9134,5.7346-7.8956,12.3955-11.538,24.6348-2.6074,8.7617-2.4607,12.6308-2.3494,14.2032a32.2594,32.2594,0,0,0,6.264,16.6136c7.073,9.531,17.711,12.4506,29.51,15.6888,7.73,2.1216,11.5324,3.4037,16.3566,2.952,11.4078-1.0682,19.3186-8.6587,23.52-12.69,3.3122-3.1781,7.6018-7.294,10.4887-14.2474C1307.85,1144.57,1305.1824,1134.0546,1304.3322,1130.8487Zm-48.6452-18.7377c1.0111-.1258,1.9925-.187,2.9592-.2209a6.9676,6.9676,0,0,1,2.5582,1.3165c2.6538,2.166,3.2106,5.6125,3.67,8.4575.4176,2.5847.8655,5.3571-.4467,8.2341-.4554.9984-2.0473,4.917-4.1508,4.8755-2.1632-.0427-2.537-4.2122-7.9433-14.7616a15.8352,15.8352,0,0,1-1.93-4.72,11.4918,11.4918,0,0,1-.1945-2.2091A42.9077,42.9077,0,0,1,1255.687,1112.111Zm-21.6919,44.4609a21.2986,21.2986,0,0,1-4.3472-11.3114c-.0712-1.0729-.1561-3.7135,1.73-9.7076,2.6341-8.3732,4.0678-12.93,8.2758-16.8737a21.7124,21.7124,0,0,1,2.36-1.9126,43.3529,43.3529,0,0,0,4.5853,10.464c4.0817,6.6871,8.8786,9.7595,7.7536,13.78a22.4066,22.4066,0,0,0-1.6182,7.4418,13.5643,13.5643,0,0,0,.14,2.1527c.47,3.1016,1.1472,4.1485,1.3774,5.7022a8.41,8.41,0,0,1-3.582,7.8211,6.4135,6.4135,0,0,1-3.85.7565C1241.7514,1163.1913,1237.3025,1160.8934,1233.9951,1156.5719ZM1290.5,1150.52c-1.7239,3.5-4.1538,5.5645-9.0136,9.6939-5.5157,4.6868-9.33,7.9173-14.7556,8.7933a4.1925,4.1925,0,0,1-.7214-.4356c-.9448-.726-1.3451-1.6813-2.0068-3.9626-1.7463-6.0206-2.5555-9.0237-2.2754-11.7823.283-2.7884,1.5875-5.2217,4.1845-9.9745,4.6883-8.5795,6.4183-8.197,7.7327-12.6966,1.9439-6.6541-.8816-10.4846,1.652-12.5408a4.0263,4.0263,0,0,1,2.4763-.8157c.7867.4636,1.3465.8379,1.6407,1.0391,2.96,2.0238,9.3913,6.4209,12.06,14.9849C1292.282,1135.4177,1294.1893,1143.0284,1290.5,1150.52Z" transform="translate(-1216.8979 -1098.8882)" style="fill:url(#radial-gradient)"/><path d="M1254.4219,1142.8237a9.3508,9.3508,0,0,1-2.5254,1.1553,8.7108,8.7108,0,0,1-2.2024.3466,4.0246,4.0246,0,0,1-1.9807-.46,14.991,14.991,0,0,0-1.9114-.9217l-3.9989-1.4-4.15-1.4122.0087-.6a31.0442,31.0442,0,0,1,4.4018-.9768q1.115-.1512,2.2439-.2612,1.1232-.0651,2.2555-.0889c.7533-.01,1.5284-.1122,2.3036-.166a4.2948,4.2948,0,0,1,2.2043.4471,7.5,7.5,0,0,1,1.9471,1.4041,7.1964,7.1964,0,0,1,1.5835,2.3614Z" transform="translate(-1216.8979 -1098.8882)" style="fill:#ff8902"/><path d="M1254.3025,1153.4259a9.1555,9.1555,0,0,1-1.0653.8807,6.777,6.777,0,0,1-1.0226.5552,5.8722,5.8722,0,0,1-1.9631.5226,2.9832,2.9832,0,0,1-1.79-.3893c-.5524-.3293-1.09-.7052-1.65-.9693l-1.6656-.8355-1.62-.9486a32.3027,32.3027,0,0,1-3.1035-2.1721l.18-.5722c1.2719-.0969,2.5006-.1048,3.7273-.1458l1.82-.023,1.79.0315a13.18,13.18,0,0,0,1.8194-.1616,2.8328,2.8328,0,0,1,1.7032.3092,5.68,5.68,0,0,1,1.5333,1.2068,7.4531,7.4531,0,0,1,.7255.8972,11.2138,11.2138,0,0,1,.6829,1.2228Z" transform="translate(-1216.8979 -1098.8882)" style="fill:#ff8902"/><path d="M1272.4568,1126.734a6.7734,6.7734,0,0,1,1.1675-.652,5.0888,5.0888,0,0,1,1.0792-.2977,4.4458,4.4458,0,0,1,1.9529.0774,2.5927,2.5927,0,0,1,1.4585,1.01c.3622.5094.6682,1.0612,1.0254,1.53q.5285.714.99,1.4561.4282.7742.7839,1.565a13.3122,13.3122,0,0,1,.9534,3.3046l-.5085.3182c-.94-.6068-1.8117-1.18-2.7146-1.6611q-.6546-.3791-1.3235-.6935c-.4243-.2306-.8546-.44-1.2877-.6308a6.1353,6.1353,0,0,0-1.4037-.3785,1.7626,1.7626,0,0,1-1.11-.7054,5.421,5.421,0,0,1-.74-1.4359,9.5486,9.5486,0,0,1-.309-.9755c-.066-.43-.19-.7536-.2451-1.2774Z" transform="translate(-1216.8979 -1098.8882)" style="fill:#ff8902"/><path d="M1265.8307,1139.6327a9.9645,9.9645,0,0,1,.8845-.9136,6.1222,6.1222,0,0,1,.82-.5919,4.1745,4.1745,0,0,1,1.5248-.6032,1.7681,1.7681,0,0,1,1.3447.2991,10.5245,10.5245,0,0,0,1.239.8285l1.2714.6668,1.2537.755c.8285.54,1.6588,1.0713,2.4663,1.716l-.1175.5884c-.9931.2853-1.9637.4567-2.936.6376l-1.4475.2158-1.43.1276a10.5065,10.5065,0,0,0-1.4622.2894,1.7682,1.7682,0,0,1-1.3564-.24,4.1738,4.1738,0,0,1-1.1764-1.1423,6.1208,6.1208,0,0,1-.53-.8615,9.9756,9.9756,0,0,1-.4661-1.1831Z" transform="translate(-1216.8979 -1098.8882)" style="fill:#ff8902"/><path d="M1260.3864,1157.9712c.2915-.47.5737-.7308.8376-1.1122a11.0948,11.0948,0,0,1,.7784-.8173,7.2535,7.2535,0,0,1,1.4682-1.1386,2.6716,2.6716,0,0,1,1.5506-.3635,7.84,7.84,0,0,0,1.7161.001c.5591-.0793,1.119-.1875,1.68-.32.5743-.1065,1.1508-.2417,1.7252-.4082a32.7133,32.7133,0,0,0,3.5528-1.1919l.4035.4443a15.1857,15.1857,0,0,1-2.3631,3.29q-.7111.74-1.5073,1.4214c-.5437.4271-1.1105.8358-1.7007,1.2186-.5936.3714-1.169.833-1.7887,1.2316a3.5182,3.5182,0,0,1-2.0492.5521,5.5173,5.5173,0,0,1-2.1984-.5443,5.742,5.742,0,0,1-1.0712-.6437,6.9225,6.9225,0,0,1-1.0176-1.0189Z" transform="translate(-1216.8979 -1098.8882)" style="fill:#ff8902"/></g></g></svg>