<svg id="Pizza" xmlns="http://www.w3.org/2000/svg" xmlns:xlink="http://www.w3.org/1999/xlink" viewBox="0 0 90.9049 91.2333"><defs><radialGradient id="radial-gradient" cx="1347.0671" cy="1025.0927" r="43.672" gradientTransform="matrix(0.9819, -0.1896, 0.1896, 0.9819, -180.0152, 282.821)" gradientUnits="userSpaceOnUse"><stop offset="0" stop-color="#fe6413"/><stop offset="0.1843" stop-color="#f85b14"/><stop offset="0.4897" stop-color="#e74118"/><stop offset="0.8763" stop-color="#cb191e"/><stop offset="1" stop-color="#c10a20"/></radialGradient></defs><g id="Ingreds"><g id="Red_Chili_A" data-name="Red Chili A"><path d="M1382.31,1030.5371a42.8833,42.8833,0,0,0-16.8073-23.7437c-14.1918-10.1408-29.5238-8.2981-34.0741-7.6781-5.4427.7416-14.9638,2.0389-22.6165,9.46-5.9134,5.7346-7.8956,12.3955-11.538,24.6348-2.6074,8.7618-2.4607,12.6308-2.3494,14.2032a32.2594,32.2594,0,0,0,6.264,16.6136c7.073,9.531,17.711,12.4506,29.51,15.6888,7.73,2.1216,11.5324,3.4038,16.3566,2.952,11.4078-1.0681,19.3186-8.6586,23.52-12.69,3.3122-3.178,7.6018-7.294,10.4887-14.2474C1385.8272,1044.2579,1383.16,1033.743,1382.31,1030.5371Zm-70.3371,25.7232a21.299,21.299,0,0,1-4.3472-11.3114c-.0711-1.0728-.1561-3.7135,1.73-9.7076,2.6341-8.3731,4.0678-12.93,8.2758-16.8737,5.5584-5.2092,12.3424-6.1089,16.0335-6.5682,1.0111-.1258,1.9925-.187,2.9593-.2209a6.97,6.97,0,0,1,2.5581,1.3165c2.6538,2.166,3.2106,5.6125,3.67,8.4575.4176,2.5848.8655,5.3571-.4467,8.2341-.511,1.12-1.7312,2.3873-4.1508,4.8755-4.3427,4.466-4.9333,4.4315-5.9249,6.2367a14.99,14.99,0,0,0-1.6182,7.4418c-.0207,3.2565.7942,4.0427,1.517,7.8549.9578,5.0524,1.4525,7.5939.44,8.6811-1.1834,1.2709-3.4589.9258-5.41.6653C1321.1712,1063.5619,1315.8059,1061.269,1311.9725,1056.26Zm56.5044-6.0522c-1.7238,3.5-4.1537,5.5646-9.0135,9.6939-3.4808,2.9577-6.2828,5.3349-9.24,6.909a6.2745,6.2745,0,0,1-4.3773-.5054,6.7662,6.7662,0,0,1-2.7222-3.5482c-2.1-4.7-3.1506-7.0506-3.0677-10.6108a19.1437,19.1437,0,0,1,2.85-9.4166,58.5092,58.5092,0,0,1,4.38-5.7363,22.9522,22.9522,0,0,0,3.44-4.8573s.1341-.2725.3129-.6954a16.6452,16.6452,0,0,0,.581-1.5973c1.1552-3.7139,1.6715-4.41,2.16-6.8282.5-2.475.2834-3.3481,1.2053-4.3067a4.54,4.54,0,0,1,2.4034-1.1825c3.7638-.5623,9.5876,7.0512,12.06,14.985C1370.2594,1035.1061,1372.1667,1042.7168,1368.4769,1050.2081Z" transform="translate(-1292.9187 -991.525)" style="fill:#89091e"/><path d="M1380.3529,1023.4855a42.8837,42.8837,0,0,0-16.8072-23.7437c-14.1918-10.1408-29.5239-8.2981-34.0742-7.6781-5.4427.7416-14.9638,2.0389-22.6164,9.46-5.9134,5.7347-7.8957,12.3955-11.5381,24.6349-2.6074,8.7617-2.4607,12.6307-2.3493,14.2031a32.26,32.26,0,0,0,6.2639,16.6137c7.073,9.531,17.711,12.45,29.51,15.6888,7.73,2.1215,11.5323,3.4037,16.3565,2.952,11.4078-1.0682,19.3187-8.6587,23.52-12.69,3.3122-3.178,7.6018-7.2939,10.4887-14.2473C1383.8705,1037.2064,1381.2031,1026.6914,1380.3529,1023.4855Zm-70.3371,25.7232a21.3,21.3,0,0,1-4.3472-11.3113c-.0711-1.0729-.156-3.7135,1.73-9.7077,2.6342-8.3731,4.0678-12.93,8.2758-16.8737,5.5584-5.2092,12.3424-6.1089,16.0335-6.5682,1.0111-.1257,1.9926-.187,2.9593-.2209a6.97,6.97,0,0,1,2.5581,1.3165c2.6538,2.166,3.2107,5.6126,3.67,8.4575.4176,2.5848.8655,5.3572-.4468,8.2341-.5109,1.12-1.7312,2.3873-4.1508,4.8756-4.3426,4.4659-4.9332,4.4315-5.9249,6.2366a12.878,12.878,0,0,0-1.6182,7.4419c.171,1.4746.5281,1.7607.7585,3.9274a24.0555,24.0555,0,0,1-.0337,5.0989c-.2908,3.0594-.4361,4.5892-1.0156,5.2885-2.0968,2.5305-8.0481.2711-10.7916.0074A21.6837,21.6837,0,0,1,1310.0158,1049.2087Zm56.5044-6.0522c-1.7238,3.5-4.1537,5.5646-9.0135,9.694-5.5158,4.6868-9.33,7.9172-14.7557,8.7932a4.1887,4.1887,0,0,1-.7214-.4356c-.9447-.7259-1.345-1.6813-2.0067-3.9626-1.7463-6.0206-2.5555-9.0237-2.2755-11.7823.2831-2.7883,1.5874-5.2216,4.1846-9.9744,4.6882-8.58,6.4182-8.1971,7.7327-12.6967,1.9439-6.654-.8817-10.4846,1.6519-12.5407a4.0266,4.0266,0,0,1,2.4763-.8158c.7867.4637,1.3465.8379,1.6408,1.0391,2.96,2.0239,9.3912,6.4209,12.06,14.985C1368.3027,1028.0545,1370.21,1035.6652,1366.52,1043.1565Z" transform="translate(-1292.9187 -991.525)" style="fill:url(#radial-gradient)"/><path d="M1341.3105,1023.1769a9.354,9.354,0,0,1-2.5253,1.1554,8.7056,8.7056,0,0,1-2.2024.3464,4.0233,4.0233,0,0,1-1.9807-.46,14.9847,14.9847,0,0,0-1.9114-.9218l-3.9989-1.4-4.15-1.412.0087-.6a31.0605,31.0605,0,0,1,4.4018-.9766q1.115-.1515,2.2439-.2613,1.1232-.0651,2.2555-.089c.7533-.0094,1.5285-.1121,2.3036-.166a4.2942,4.2942,0,0,1,2.2044.4472,7.501,7.501,0,0,1,1.9471,1.404,7.198,7.198,0,0,1,1.5835,2.3615Z" transform="translate(-1292.9187 -991.525)" style="fill:#ff8902"/><path d="M1332.6466,1032.5237a8.5691,8.5691,0,0,1-.9856.7857,5.56,5.56,0,0,1-.8954.46,3.8769,3.8769,0,0,1-1.6144.3211,1.7683,1.7683,0,0,1-1.2733-.5754,13.3268,13.3268,0,0,0-1.0228-1.0983l-1.0522-.9728-.9707-1.0758a17.701,17.701,0,0,1-1.7006-2.3885l.3182-.5087c.9879.0587,1.907.1823,2.8264.2677l1.3475.1549,1.3.1918a7.5025,7.5025,0,0,0,1.3613-.0007,1.4533,1.4533,0,0,1,1.1411.4538,4.0754,4.0754,0,0,1,.8282,1.2819,7.7105,7.7105,0,0,1,.5879,2.1362Z" transform="translate(-1292.9187 -991.525)" style="fill:#ff8902"/><path d="M1330.2318,1044.451a12.152,12.152,0,0,1-1.09.8464,7.9705,7.9705,0,0,1-.9947.5444,6.0027,6.0027,0,0,1-1.8292.556,2.7094,2.7094,0,0,1-1.6534-.2955,11.543,11.543,0,0,0-1.6007-.7826q-.82-.2987-1.6543-.5719-.8307-.3183-1.6778-.6127c-1.1281-.43-2.2774-.8172-3.4524-1.2852l-.0032-.6a25.9679,25.9679,0,0,1,3.6188-1.11q.9188-.1975,1.8507-.3674.9279-.1254,1.8654-.2211c.6234-.0541,1.265-.2171,1.9068-.3271a3.0171,3.0171,0,0,1,1.8391.2646,5.4945,5.4945,0,0,1,1.6449,1.2206,6.3871,6.3871,0,0,1,.7345.9157,8.6263,8.6263,0,0,1,.634,1.2425Z" transform="translate(-1292.9187 -991.525)" style="fill:#ff8902"/><path d="M1330.7659,1052.1917a5.6067,5.6067,0,0,1-1.8162.9544,4.4038,4.4038,0,0,1-1.5588.2321,2.1362,2.1362,0,0,1-1.3018-.49,12.159,12.159,0,0,0-1.1509-.914l-1.1969-.7845-1.1717-.8551c-.7706-.6-1.544-1.1918-2.2848-1.875l.1677-.4711c1.006-.0611,1.9795-.0313,2.9557-.009l1.4485.0779,1.4233.1485a12.1367,12.1367,0,0,0,1.4695.0191,2.1344,2.1344,0,0,1,1.3185.443,4.4065,4.4065,0,0,1,1.0614,1.165,5.6046,5.6046,0,0,1,.8042,1.8876Z" transform="translate(-1292.9187 -991.525)" style="fill:#ff8902"/><path d="M1349.7433,1019.8583a3.8639,3.8639,0,0,1,.9723-1.9821,4.2444,4.2444,0,0,1,1.5782-1.099,3.4984,3.4984,0,0,1,.8975-.1993,3.67,3.67,0,0,1,.9131.0993c.6035.1759,1.1738.4172,1.7324.5979a14.0336,14.0336,0,0,1,1.607.6851,13.225,13.225,0,0,1,1.4261.9563,8.1644,8.1644,0,0,1,2.11,2.5244l-.331.3745a11.4291,11.4291,0,0,0-2.7981-.6161,13.6025,13.6025,0,0,0-2.5717.0368,4.561,4.561,0,0,0-1.1823.3911,1.5739,1.5739,0,0,1-1.1045.1009,3.7177,3.7177,0,0,1-.6015-.1882,4.3088,4.3088,0,0,1-.6759-.2919c-.234-.0927-.4981-.2365-.7843-.3847-.29-.1586-.5929-.3057-.9723-.5535Z" transform="translate(-1292.9187 -991.525)" style="fill:#ff8902"/><path d="M1338.4659,1039.453a5.8865,5.8865,0,0,1,1.6335-.9551,3.6074,3.6074,0,0,1,1.3112-.2843,1.4113,1.4113,0,0,1,1.0345.4049,7.4,7.4,0,0,0,.9024.81l.97.6622.97.7155c.6463.5012,1.31.9822,1.97,1.5445l-.1151.4866a17.6665,17.6665,0,0,1-2.5354.3746l-1.2631.0583-1.2489-.0428a11.563,11.563,0,0,0-1.3.0579,1.615,1.615,0,0,1-1.1518-.3945,3.4783,3.4783,0,0,1-.8573-1.1305,4.9084,4.9084,0,0,1-.5166-1.8477Z" transform="translate(-1292.9187 -991.525)" style="fill:#ff8902"/><path d="M1345.9386,1027.8291l.328-.2747.3088-.206.6254-.4035a6.7831,6.7831,0,0,1,1.1715-.4882,5.2644,5.2644,0,0,1,2.1524-.24,2.7592,2.7592,0,0,1,1.73.84c.4763.4854.9,1.0457,1.3864,1.4683.4815.4339.9477.8816,1.3931,1.35q.6481.7353,1.2549,1.4868a20.3079,20.3079,0,0,1,2.0856,3.28l-.4412.5436c-1.2537-.3052-2.4209-.6459-3.5947-.9171l-3.3878-.8312a9.8784,9.8784,0,0,0-1.7489-.1585,2.1489,2.1489,0,0,1-1.4751-.6444,5.7007,5.7007,0,0,1-1.1166-1.5786,9.8649,9.8649,0,0,1-.8926-2.5609Z" transform="translate(-1292.9187 -991.525)" style="fill:#ff8902"/><path d="M1338.7935,1054.5006a12.6659,12.6659,0,0,1,1.1478-2.9862,8.1207,8.1207,0,0,1,1.3518-1.855,2.8322,2.8322,0,0,1,1.7479-.8366,10.5689,10.5689,0,0,0,2.0766-.336c.6516-.207,1.3027-.4347,1.9639-.6682q1.015-.318,2.0219-.7164c1.3768-.489,2.7335-1.0868,4.186-1.6878l.5773.5537a21.783,21.783,0,0,1-2.2356,4.2342c-.4569.6571-.939,1.3053-1.4484,1.9389a24.0517,24.0517,0,0,1-1.664,1.7671c-.5863.5586-1.1043,1.2581-1.6942,1.8722a3.703,3.703,0,0,1-2.1537,1.131,6.735,6.735,0,0,1-2.6647-.1339,7.5087,7.5087,0,0,1-2.967-1.5156Z" transform="translate(-1292.9187 -991.525)" style="fill:#ff8902"/></g></g></svg>