<svg id="pizza" xmlns="http://www.w3.org/2000/svg" xmlns:xlink="http://www.w3.org/1999/xlink" viewBox="0 0 124.1 122.5"><defs><linearGradient id="linear-gradient" x1="991.963" y1="1572.5567" x2="1023.6772" y2="1572.5567" gradientTransform="translate(-408.4531 -348.769)" gradientUnits="userSpaceOnUse"><stop offset="0" stop-color="#ffa143"/><stop offset="1" stop-color="#ff843b"/></linearGradient><linearGradient id="linear-gradient-2" x1="1022.9531" y1="1577.6723" x2="1116.0531" y2="1577.6723" gradientTransform="translate(-408.4531 -348.769)" gradientUnits="userSpaceOnUse"><stop offset="0" stop-color="#ffa143"/><stop offset="0.5552" stop-color="#ff8b3f"/><stop offset="1" stop-color="#ff773b"/></linearGradient></defs><g id="pineapple_a"><path d="M584.9,1209.7c-.4,4-.9,8.1-1.3,12.1a60.9761,60.9761,0,0,1,31,17.5C617.9,1219.4,608.8,1203.3,584.9,1209.7Z" transform="translate(-583.6 -1116.9)" style="fill:url(#linear-gradient)"/><path d="M614.5,1239.4l.0714-14.4659,92.077-6.5275.9516.7935q-.675,4.3751-1.35,8.75c-.45,2.925-.9,5.85-1.35,8.75Z" transform="translate(-583.6 -1116.9)" style="fill:url(#linear-gradient-2)"/><path d="M617.4,1116.9a137.0263,137.0263,0,0,1,90.3,102.2l-93.1,6.7a78.3975,78.3975,0,0,0-29.7-16.2Z" transform="translate(-583.6 -1116.9)" style="fill:#fccb51"/><g id="Light"><path d="M593,1212.4a42.6656,42.6656,0,0,0-2.7,6.7,45.531,45.531,0,0,1-1.3-8.1Z" transform="translate(-583.6 -1116.9)" style="fill:#fccb51"/><path d="M611.8,1223.2c-1.3,2.2-1.3,4.5-2.7,6.7,0-3.1-1.3-6.3-1.3-9.4Z" transform="translate(-583.6 -1116.9)" style="fill:#fccb51"/><polygon points="122.4 115.4 108.5 113.7 122.3 111.3 122.4 115.4" style="fill:#fccb51"/><path d="M605.1,1215.1" transform="translate(-583.6 -1116.9)" style="fill:#fccb51"/><path d="M719.8,1207" transform="translate(-583.6 -1116.9)" style="fill:#fccb51"/></g><g id="Lighter"><path d="M629,1122.3c-5.9,10.6-12.3,20.8-19.1,30.7,5.7-10.6,10.8-21.4,15.5-32.5h1.4Z" transform="translate(-583.6 -1116.9)" style="fill:#f9f275"/><path d="M674.3,1154a4.1247,4.1247,0,0,1-1-1.3,85.0337,85.0337,0,0,0-8.1,7.8,79.6155,79.6155,0,0,1,10.4-4.5A7.6855,7.6855,0,0,0,674.3,1154Z" transform="translate(-583.6 -1116.9)" style="fill:#f9f275"/><path d="M650.1,1133.1a93.32,93.32,0,0,0-20.1,27.3,90.6456,90.6456,0,0,1,23.6-25A34.9983,34.9983,0,0,1,650.1,1133.1Z" transform="translate(-583.6 -1116.9)" style="fill:#f9f275"/><path d="M688.8,1174.1a322.7484,322.7484,0,0,0-60.3,25.5,320.5113,320.5113,0,0,1,57.6-30.5Z" transform="translate(-583.6 -1116.9)" style="fill:#f9f275"/><path d="M704.6,1208.1c-10.4,1.6-20.9,2.9-31.3,4,10.2-2.4,20.4-5,30.4-7.9Z" transform="translate(-583.6 -1116.9)" style="fill:#f9f275"/><path d="M588.9,1211a103.61,103.61,0,0,1,14.2-15.5,107.821,107.821,0,0,0-10.1,16.9Z" transform="translate(-583.6 -1116.9)" style="fill:#f9f275"/><path d="M607.8,1220.5a68.45,68.45,0,0,1,14.2-2c-3.3,1.4-6.9,3.1-10.1,4.7Z" transform="translate(-583.6 -1116.9)" style="fill:#f9f275"/></g></g></svg>