<svg id="pizza" xmlns="http://www.w3.org/2000/svg" xmlns:xlink="http://www.w3.org/1999/xlink" viewBox="0 0 136.1 105.5554"><defs><linearGradient id="linear-gradient" x1="42.1868" y1="1941.2523" x2="67.3224" y2="1965.834" gradientTransform="translate(-846.8509 -218.9471) rotate(-44.3639)" gradientUnits="userSpaceOnUse"><stop offset="0" stop-color="#ff883c"/><stop offset="0.5267" stop-color="#ffa043"/><stop offset="1" stop-color="#ff843b"/></linearGradient><linearGradient id="linear-gradient-2" x1="58.7812" y1="1962.5984" x2="159.9053" y2="1962.5984" gradientTransform="matrix(0.7133, -0.7008, 0.7008, 0.7133, -847.9606, -217.9765)" gradientUnits="userSpaceOnUse"><stop offset="0" stop-color="#ffa143"/><stop offset="1" stop-color="#ff843b"/></linearGradient><linearGradient id="linear-gradient-3" x1="-1361.6619" y1="557.086" x2="-1268.0017" y2="557.086" gradientTransform="matrix(-0.7133, -0.7008, -0.7008, 0.7133, -26.388, -218.0332)" gradientUnits="userSpaceOnUse"><stop offset="0" stop-color="#ffa143"/><stop offset="0.3189" stop-color="#ff9841"/><stop offset="0.8355" stop-color="#ff803d"/><stop offset="1" stop-color="#ff773b"/></linearGradient></defs><g id="pineapple_b"><path d="M541.5,1134.6a20.402,20.402,0,0,0,0,12.1,105.8232,105.8232,0,0,1,33.7,0,20.8074,20.8074,0,0,0-.8-12.1A53.5831,53.5831,0,0,0,541.5,1134.6Z" transform="translate(-500.1 -1041.2447)" style="fill:url(#linear-gradient)"/><path d="M575.3,1146.8l-.9813-14.5363,60.2307-67.45L636.2,1064.5c-.17,2.2749-.5809,7.7876-.75,10.0625q-.375,5.0438-.75,10.1375Z" transform="translate(-500.1 -1041.2447)" style="fill:url(#linear-gradient-2)"/><path d="M541.5,1146.8l-.0165-14.19-40.7472-77.7857-.5363.3759,0,.0049c.3,6.6983.6,13.3967.8,20.195Z" transform="translate(-500.1 -1041.2447)" style="fill:url(#linear-gradient-3)"/><path d="M500.1,1054.9a137.0449,137.0449,0,0,1,136,9.6q-30.9,35.1-61.7,70.1a100.8932,100.8932,0,0,0-32.9,0Q520.8,1094.85,500.1,1054.9Z" transform="translate(-500.1 -1041.2447)" style="fill:#fccb51"/><g id="Light-2"><polygon points="49.5 91.355 47.5 102.155 45.5 91.355 49.5 91.355" style="fill:#fccb51"/><polygon points="68.4 92.055 65.7 98.755 64.4 92.055 68.4 92.055" style="fill:#fccb51"/><path d="M635.4,1074.7l-7.5,10,7.1-4.8C635.1,1079.9,635.4,1074.7,635.4,1074.7Z" transform="translate(-500.1 -1041.2447)" style="fill:#fccb51"/></g><g id="Lighter-2"><path d="M515.4,1048.6c3.9,10.3,9,26,12,36.8-4.1-10.4-10.7-25.3-15.7-35.1Z" transform="translate(-500.1 -1041.2447)" style="fill:#f9f275"/><path d="M567.3,1041.4a74.5255,74.5255,0,0,0,.6,11.6,75.6327,75.6327,0,0,1,1.8-11.6Z" transform="translate(-500.1 -1041.2447)" style="fill:#f9f275"/><path d="M540.2,1042.6c-1.2.3-2.5.4-3.8.6,1.1,7.4,3.3,22.6,4.4,30.1C540.7,1065.6,540.4,1050.2,540.2,1042.6Z" transform="translate(-500.1 -1041.2447)" style="fill:#f9f275"/><path d="M586,1044a301.8468,301.8468,0,0,0-14.7,52.8,303.4,303.4,0,0,1,20-51.5C591.2,1045.3,586,1044,586,1044Z" transform="translate(-500.1 -1041.2447)" style="fill:#f9f275"/><path d="M625.6,1058.1c-6,7.8-14.4,20.3-19.9,28.7,6.5-7.8,16.2-19.2,23.2-26.4A11.4356,11.4356,0,0,1,625.6,1058.1Z" transform="translate(-500.1 -1041.2447)" style="fill:#f9f275"/><path d="M545.8,1134.3a100.2969,100.2969,0,0,1,.5-21.9,107.8749,107.8749,0,0,0,3.5,21.2Z" transform="translate(-500.1 -1041.2447)" style="fill:#f9f275"/><path d="M564.6,1132.2a76.618,76.618,0,0,1,8.6-11.7,78.549,78.549,0,0,0-4.9,13.3l-3.9-.4Z" transform="translate(-500.1 -1041.2447)" style="fill:#f9f275"/></g></g></svg>