<svg id="pizza" xmlns="http://www.w3.org/2000/svg" xmlns:xlink="http://www.w3.org/1999/xlink" viewBox="0 0 565.8019 228.9544"><defs><radialGradient id="radial-gradient" cx="1051.8044" cy="835.6775" r="486.014" gradientTransform="matrix(0.356, 0.9345, -0.7441, 0.2835, 619.4836, -682.8969)" gradientUnits="userSpaceOnUse"><stop offset="0" stop-color="#dc4343"/><stop offset="0.5214" stop-color="#e7645b"/><stop offset="0.6283" stop-color="#e8685e"/><stop offset="0.7524" stop-color="#e8625a"/><stop offset="0.9191" stop-color="#e9514e"/><stop offset="1" stop-color="#e94646"/></radialGradient></defs><g id="prosciutto_a"><g id="Side"><path d="M750.9776,483.8143a61.6252,61.6252,0,0,0-23.1271-32.14c17.5762,64.2024,15.0811,131.0774-60.5195,147.8395-11.0671,1.8224-50.2561-3.4822-73.9632.3221a241.2879,241.2879,0,0,0-32.2472,5.7833c-52.1625,11.8728-112.187,11.7339-164.72,24.3435l-160.359-14.75L214.4589,492.1058c-.984-1.5529-1.9562-3.6157-3.5238-6.2219-11.729,7.5155-7.9613,27.73-5.5664,34.416,9.4412,3.1423-27.56,99.5826-7.2193,119.927,8.12,7.6627,22.4827,6.682,33.4066,5.9549,16.2741-2.1918,33.605-6.8111,51.5052-3.0016,23.3462,3.2887,35.0571,4.9928,59.3938,12.0905,56.76,16.5217,135.3141-18.4352,197.6557-21.7736,23.7674-1.3311,47.6689.8524,71.4581-.5764,25.68-3.4641,50.8642-2.4279,75.7982,4.2914,17.7305,1.8243,58.0658,3.389,59.2734-20.7314C751.3246,572.7458,760.1126,527.1641,750.9776,483.8143Z" transform="translate(-189.1616 -430.7286)" style="fill:#f7e0bf"/></g><path d="M745.8335,518.6326c-1.42,10.4424-5.3,20.4354-6.9371,30.9316-4.0858,20.5029,5.3669,78.8866-28.596,69.015-72.9855-28.2567-96.1108-22.4773-166.867,1.93-35.5046,7.5124-72.8863-1.2811-108.4446,6.0142-36.5514,10.3522-74.4222,24.3029-112.4579,11.5707-16.3691-4.696-32.3088-12.6776-49.37-12.917-19.7294-.2229-38.5685,10.2073-58.3837,9.4527-15.436.74-19.9094-13.5862-17.1822-27.1174,5.1923-42.8012,9.3-63.4016,10.2633-84.6047,1.3379-29.7277-5.8791-33.191.1485-42.7025,10.4128-16.7267,36.5567-13.118,95.8763-13.0348,74.3636.1777,111.8691,1.1078,151.95-11.7322,47.7522-19.6258,97.904-29.3874,149.5527-22.5183C664.1214,437.8941,756.6521,432.9226,745.8335,518.6326Z" transform="translate(-189.1616 -430.7286)" style="fill:url(#radial-gradient)"/><g id="Fat"><path d="M242.95,493.4739c14.0682-.1244,15.2236,2.4918,21.2049.0414,8.623-5.5475,22.33-9.5448,33.1261-11.53-8.1142.5373-16.6052-.4446-23.8685,3.1531-5.3976,3.5037-11.0879,6.9418-17.8644,5.627a248.2664,248.2664,0,0,0-32.6368-.248c-10.7069.6732-9.6938-1.5592-15.0561-10.5506-11.6095,7.44-7.9394,27.6324-5.62,34.199,7.8244,3.4971-26.2681,98.8475-7.1856,119.32,8.1419,7.565,22.3852,6.66,33.2115,5.9111,16.1546-2.1161,33.5074-6.833,51.31-3.0453,23.2486,3.2667,34.8619,4.949,59.101,12.0248,56.4675,16.456,134.6848-18.3714,196.8313-21.7535,23.6479-1.2554,47.4519.9061,71.1654-.642,25.583-3.4861,50.55-2.3961,75.5054,4.2256,18.24,1.8362,41.353,2.51,55.6953-10.2605,9.5752-32.1847,8.8849-67.4916,11.1739-101.0029,2.3633-49.38-11.8059-75.3089-58.3623-79.2937-15.4325-1.104-31.3191-2.9247-31.3629-2.7295,5.2354,1.789,44.7308,5.7275,55.1187,12.874,9.1075,7.3717,11.135,18.8947,13.0549,29.9836,2.125,11.5448,2.4881,14.4958.8257,15.9677-4.6571,2.03-16.3527-2.0277-21.2634-3.4365-20.6643-4.7369-32.9593,9.4156-59.52-8.327a15.0012,15.0012,0,0,1,6.2639-2.7971c-3.3477-1.9806-16.2138,4.665-21.4765,5.7393-15.3439,3.5277-29.6557.6255-36.081,2.7714-2.899,1.502-5.9676,1.0187-8.6979-.5159-9.8835-4.3688-21.2569-1.18-31.5889,1.934-30.11,10.8746-22.3251,23.6887-66.845,26.6171,47.8851,6.7424,43.5892-26.1961,77.1051-20.7291,10.0066,2.4492,19.0923,9.9185,29.2912,8.3115-3.62-1.2219-12.799-5.5351-13.3909-7.9224,1.6477-5.0622,5.99-1.1164,12.9949-.3652,16.7666,1.0957,33.7155-2.277,50.514-.8667,9.0965,1.9376,17.893,7.4973,24.4855,14.2025,3.7336,9.856,14.2374,18.7707,24.6361,20.3854,10.4614-2.778,17.31,11.4661,25.5868,5.6359-10.85,1.7685-12.0933-11.4233-28.6766-11.9655-15.1982-4.4333-15.579-26.04,2.6832-24.3018,7.9036,1.7726,15.7708.0525,23.5905.3714,6.46,2.2687,9.3428,9.0643,12.0441,14.3844,2.2654,6.35-.2487,10.705-.22,23.8294h0c-4.2935,26.9128.68,73.7361-40.8935,62.1576-9.0089-2.3278-17.4826-6.5854-26.71-7.9376-15.4845-2.2429-31.1046,3.8874-46.766,3.3471-9.0564-.2888-17.902-2.8876-26.8827-3.057-10.9221-.1948-21.493,3.071-32.03,5.73-53.9879,13.6156-111.2175,9.6968-164.8071,24.7339-14.1192,4.0074-28.4253,9.3051-42.99,7.9859-6.42-.62-24.2362-2.9758-28.6519-7.963-6.1365-6.91,4.8011-9.0692,10.7267-10.8148,9.7128-2.6385,16.541-11.15,23.8216-18.0238,12.5487-10.7136,26.1069-21.8157,41.6075-27.87,7.1084-1.9928,14.7212-1.2078,22.1186-1.291,11.4975-.086,16.4209-5.1308,30.3915-5.2771,25.2274.841,49.4217,3.09,61.5628-4.4354-26.6725,11.5429-43.1951-3.4359-62.3208-1.7811-.217.0537-15.0174,2.986-20.5072,3.702-14.5916,1.5442-30.0926-3.367-43.5323,2.6374-5.808,2.5918-10.6219,7.1489-16.3,10.0772-11.0086,5.2174-23.9852,7.3289-36.1876,7.3592-9.4567-.7886-18.1876-6.641-27.68-5.9-4.9919,1.2376-9.132-.4083-12.7369-3.9838-14.8646-8.6629-31.8042,1.0659-47.3883-11.2428-9.3838-4.7691-24.2668,12.6974-27.4133,2.0507-.9678-9.8505,3.8857-34.6905,2.9-46.2873,3.2143-7.4779.6837-5.7907.1629-11.2367C223.9894,493.9358,244.2842,493.4656,242.95,493.4739Zm47.6282,121.6719c-6.4217.302-12.5881,3.1209-18.8365,3.5642-9.268-3.0009-14.9969-13.0993-24.4837-15.1245-13.8677-2.5977-10.8636,3.2-18.0547-19.1143-2.7178-7.9884,2.31-10.7553,8.9993-14.994,23.1271-6.7014,39.6321.5871,58.5128,7.7935,6.2513,3.6567,13.2567,4.4079,20.3077,4.0421,11.1172.2386,11.96,1.9648,21.6791,1.5825,14.47-.5467,25.09-6.7735,25.9331-5.0472-.0474,2.039-3.6649,4.9171-5.5762,6.1282-6.646,4.0437-13.1406,8.3262-19.5595,12.7282-10.9509,14.5564-27.6755,14.1875-48.9214,18.4413Z" transform="translate(-189.1616 -430.7286)" style="fill:#ffefdc"/></g></g></svg>