<svg id="pizza" xmlns="http://www.w3.org/2000/svg" viewBox="0 0 302.3307 206.505"><g id="rokpol_blue"><path d="M938.98,1026.2088c2.4031,2.4051,4.777,4.9061,7.18,7.3112l62.9542-79.2894-3.8569-7.2391Z" transform="translate(-706.784 -827.0442)" style="fill:#e2dbbf"/><path d="M943.3057,1027.1091l2.95,6.44L723.0738,991.6547a80.921,80.921,0,0,1-16.103-53.8344Z" transform="translate(-706.784 -827.0442)" style="fill:#c4bb9d"/><path d="M799.7,827.0442,707.0665,937.85l236.2392,89.26q30.895-40.1358,61.9521-80.1176Z" transform="translate(-706.784 -827.0442)" style="fill:#f1e8ce"/><g id="Shadows-4"><path d="M953.4347,967.4712c-11.0327,23.5044-31.9493,1.2382-35.403-14.8687C915.8066,942.4108,927.88,937.1,930.18,928.1834c.134-2.1545-1.9658-3.84-2.2435-6.0155.732-9.6039,13.229-4.6446,16.8163.7351,12.2024,13.1283,16.067,12.1109,10.4058,31.712C953.9908,960.8453,959.78,962.0873,953.4347,967.4712Z" transform="translate(-706.784 -827.0442)" style="fill:#e2dbbf"/><path d="M888.9245,941.43c-.0767,4.3674-5.0063,5.792-3.2364,10.6177-3.4406,11.2873-25.8832,7.06-33.068.7927-13.3292-13.89-29.9042,4.4752-41.4595-14.2057-2.8814-2.551-6.92-3.3638-10.4381-4.8544-15.1217-4.923-25.72-34.2892-4.8711-37.8656,10.2872-2.196,19.8353,2.4917,28.8095,7.0044,16.1867,4.5158,13.0045,5.01,22.0047,16.639,3.2185,2.1311,7.4948,1.1346,11.3839,1.0656,8.5062-.1253,16.2823,4.545,23.5511,9.1651A15.3811,15.3811,0,0,1,888.9245,941.43Z" transform="translate(-706.784 -827.0442)" style="fill:#e2dbbf"/><path d="M915.9034,920.4864c3.44-.3105,5.3961-2.955,4.4534-6.3787-2.8726-13.2116-17.7866-17.444-28.2493-23.2468-15.6807-10.6342-19.6794,12.0872-12.8956,22.4139,3.3049,4.2482,11.6371,2.2927,13.71,7.8381-.0906,7.4994,1.32,15.5611,10.9844,11.2935C909.4812,930.2375,912.9606,925.3392,915.9034,920.4864Z" transform="translate(-706.784 -827.0442)" style="fill:#e2dbbf"/><path d="M854.7867,876.453c-.6476-3.02-.9-6.6513-3.5944-8.1-3.2978-1.5279-15.2076,1.5325-18.7806,1.5933-2.4917.286-5.2621.8005-6.7271,2.863-4.1009,8.9951,7.09,14.8107,14.2183,16.4609,3.9863,6.1286,12.297,15.5617,20.3877,14.0553C860.836,892.6193,860.0611,885.9015,854.7867,876.453Z" transform="translate(-706.784 -827.0442)" style="fill:#e2dbbf"/><path d="M821.4585,853.7489c-4.1992,5.2017-8.4269-.4778-12.026,12.0156-14.486,15.97-6.1931,18.6026-29.4982,27.4938-9.0075,5.2-.6114,19.154-2.8529,27.88.3841,6.285-4.9337,11.0412-10.0725,5.6067-4.2077-3.6871-9.8933-4.5838-14.6714-7.0857-11.83-8.5195-3.6747-24.6422,4.2361-33.1033,6.1306-8.7946,13.4255-16.607,24.7895-17.5339,2.5582-.161,5.5071.1106,7.23-1.7687,5.0985-7.123.0329-18.285,5.8756-24.7629,5.9991-2.8758,13.0786-3.1223,17.16,3.0355C813.4281,850.2556,821.5644,849.2859,821.4585,853.7489Z" transform="translate(-706.784 -827.0442)" style="fill:#e2dbbf"/><path d="M910.7841,1014.7915c3.9418,3.1878,9.3159,3.0487,13.9237,5.08.64.3,1.6424,1.1279,2.0962.3253,5.0493-9.02,19.065-5.27,26.4433-23.3023,5.5195-9.19-21.3913-21.0519-22.1325-9.36-.1059,4.463,1.8471,9.0309-.48,13.2352-2.0236,4.9239-6.79,4.0983-7.9649-.9643-2.6144-4.4559-8.3338-4.2129-12.7431-3.4661-.9064-.799-.5356-2.3587-1.1632-3.3863-5.2273-2.7433-12.6577,1.0552-17.9243,2.9-3.3945.8471-1.1929,7.6862-1.5766,9.9737C895.2169,1010.9872,903.7977,1011.3028,910.7841,1014.7915Z" transform="translate(-706.784 -827.0442)" style="fill:#e2dbbf"/><path d="M974.5943,975.9073c-.6614.112-6.6713-1.0927-6.3424-1.8287l3.4979-9.0745c1.0323-1.6716-.2066-3.0947-1.0337-4.4968-2.4512-6.7061,4.948-5.6006,6.04-9.8678,1.3075-3.26,5.9419-5.0886,8.7859-2.7581.3351,4.3884,3.64,8.6366,1.8578,13.1114C985.6664,967.3644,980.4979,973.0024,974.5943,975.9073Z" transform="translate(-706.784 -827.0442)" style="fill:#e2dbbf"/><path d="M893.0366,964.6375c4.1735-3.7459,16.67-7.3592,17.7519,1.4385.46,4.3219-.8512,6.2222,2.2461,9.78,9.7664,9.4587,1.5181,9.7671-6.5773,12.3175-8.6366,3.64-17.6537,2.3549-26.6172,1.9227-5.2738-.8758-8.4125,4.9627-13.495,4.1453-5.4278-.7136-11.1507-1.8308-15.7831-4.811-3.7341-2.4972-8.0165-6.6253-12.65-7.2013-21.6646-4.722-22.9372-5.0054-39.6937-19.3128-5.419-11.3743,10.0771-6.6508,15.96-9.1439,7.01-4.1357,8.1839-5.2416,16.53-1.7565,15.2828,7.4811.9361,9.2759,26.7184,14.2077,1.5177,1.1944,1.3545,3.4446,1.6906,5.4288a8.9862,8.9862,0,0,0,13.2284,6.3322c-2.9141-3.8154,2.3326-7.6523,6.0013-7.684C884.1084,969.234,888.5259,968.8033,893.0366,964.6375Z" transform="translate(-706.784 -827.0442)" style="fill:#e2dbbf"/><path d="M789.5142,968.8355c-12.2065-3.5117-24.2917-8.45-36.2358-12.8226-2.2-.6706-3.0727-2.6093-1.18-4.0185,1.5244-4.658-5.3919-6.6617-.1606-13.535,4.6064-4.1366,1.8319-13.5548,7.0428-11.4437,7.9056,3.56,7.3909,20.3388,19.3463,17.8149,6.4027-3.1709,15.1575-1.025,10.6575,7.2213-2.2221,2.1453-5.4007,3.9991-3.98,7.5685C785.7275,963.0813,786.795,966.4385,789.5142,968.8355Z" transform="translate(-706.784 -827.0442)" style="fill:#e2dbbf"/><path d="M744.291,943.6555c-3.4993,2.9059-6.8671-.1069-9.1828-2.7991-3.7422-2.8135-10.256-2.7081-10.6238-8.361-.7-6.2769,3.411-19.7642,11.7867-16.3748,3.2057,2.8589,2.8082,8.2785,5.2732,11.8526C743.8507,932.7534,749.8457,939.4943,744.291,943.6555Z" transform="translate(-706.784 -827.0442)" style="fill:#e2dbbf"/></g><g id="Shadows_Dark" data-name="Shadows Dark"><path d="M788.89,969.1681c-10.4581-6.8468-23.43-10.5918-36.132-12.4774-2.2956-.7-3.2323,1.0011-2.8006,3.0145-.5688,7.3536-16.34,4.219-9.1819,14.3461,5.6472,3.0805,7.6053,15.177,15.0894,12.2312l6.61-2.48c2.0425-.5273,1.9934-2.4241,1.3786-4.18,1.2477-9.2376,8.4007,12.91,12.6407,9.2893,6.4391-.5463,6.8949-6.1572,9.4633-10.8105C785.5612,972.544,782.8409,972.5512,788.89,969.1681Z" transform="translate(-706.784 -827.0442)" style="fill:#b7ae95"/><path d="M753.2317,996.9794c-9.5747-.8277-19.5648-3.0365-28.8561-5.1369-1.61.1365-1.21-1.5187-1.1095-2.5336-.12-.9775-.9309-1.7474-1.0511-2.7249.1213-1.4267.5878-2.9571.709-4.3838,1.2691-1.0768,3.2651.2634,4.6625.48,5.1362,1.67,10.9231-.8521,15.9427,1.2007,2.1208,1.2736,2.4149,4.0814,3.795,6.07a26.6007,26.6007,0,0,1,3.8661,5.1511A6.4713,6.4713,0,0,0,753.2317,996.9794Z" transform="translate(-706.784 -827.0442)" style="fill:#b7ae95"/><path d="M722.6854,947.3148c-2.7147-3.441-11.8622-1.2113-9.7308,4.1428,5.3045,6.9486-4.1889,20.2589,7.2978,24.0739,6.2094,1.5791,6.4539-6.0826,8.8264-9.75,7.4851-5.35.8707-12.8025-4.9095-16.1325A3.7933,3.7933,0,0,1,722.6854,947.3148Z" transform="translate(-706.784 -827.0442)" style="fill:#b7ae95"/><path d="M822.7045,983.7614c-10.5441-.3913-24.3849-4.7148-33.9581.626-6.0831,4.5229,2.9412,8.5281,7.2,9.3036,2.641.5959,3.4635,3.042,4.4691,5.23,7.7087,6.95,17.929-3.9437,26.2428-1.7232,2.2456,1.2072,2.6225,4.772,5.0221,5.8171,3.7761,1.6737,10.342-3.7474,5.327-6.8442C830.7445,993.7393,828.6806,986.1058,822.7045,983.7614Z" transform="translate(-706.784 -827.0442)" style="fill:#b7ae95"/><path d="M865.749,1016.4316c-.52.6777-2.3085.0281-2.8824-.1469-4.4329-2.6056-9.4954-1.4307-14.2117-2.7638-8.3091-3.2645-4.5407-12.8838,3.89-11.0458,3.531.7628,13.7288,3.6621,15.0168,6.9819C868.0678,1011.9113,865.5879,1013.8736,865.749,1016.4316Z" transform="translate(-706.784 -827.0442)" style="fill:#b7ae95"/><path d="M926.1508,1020.6255c-11.7609-4.63-24.258-9.59-36.1437-14.1535-2.0272,3.5637,2.0593,8.6775,2.54,12.5875,2.3437,5.0007,10.23,4.1639,14.3343,7.5057,14.1907,3.1756,5.857-1.0374,14.4481-5.2139A44.9217,44.9217,0,0,1,926.1508,1020.6255Z" transform="translate(-706.784 -827.0442)" style="fill:#b7ae95"/></g><g id="Mold"><path d="M872.7347,944.1267c3.0784-.8388,6.6841.3648,9.185-2.0091,5.103-8.167-3.06-3.3372-6.4488-5.9383-1.9959-1.34-2.76-3.9777-5.21-4.5153-2.2-.6706-3.2548-4.7556-5.6252-5.8963-3.173-1.5945-5.6447.6838-8.8514.2291-1.597-.5914-5.54-1.3751-4.4513,1.57,1.1386,2.4379,4.3162,2.9883,5.8293,5.2268C861.513,943.2152,856.7005,952.83,872.7347,944.1267Z" transform="translate(-706.784 -827.0442)" style="fill:#57847f"/><path d="M727.3935,928.7823c-.14-2.97,4.6667-9.1364,7.989-6.66,3.4169,4.91.5815,11.4679,7.6262,14.7652,3.3751,5.7332-6.994,4.7679-8.2017-1.5592C732.35,932.0705,727.6119,933.5533,727.3935,928.7823Z" transform="translate(-706.784 -827.0442)" style="fill:#57847f"/><path d="M796.7836,856.1591c.9381,4.4676-8.3865,12.08.3437,13.2771,2.77-.5146-.0563-4.617,2.1239-5.9388,3.4527-1.0384,4.7019-4.1075,4.67-7.7762,1.6518-.96,3.7644-.0025,5.6028.14,11.3021-2.0957,2.7479-6.2713-3.0579-8.1455C799.1137,844.7424,793.3058,847.6765,796.7836,856.1591Z" transform="translate(-706.784 -827.0442)" style="fill:#57847f"/><path d="M822.2173,907.506c-3.9054-.5632-8.4816,1.0736-12.0453-.9536-1.3674-2.7167-2.3438-5.0006-6.0171-3.9249-5.3122,1.3079-18.0911,3.79-15.4614,11.282,2.7111,2.0809,6.8207,1.9745,9.3778,4.2176a23.9048,23.9048,0,0,0,12.0131,8.2617c2.9233,1.7274,3.5045,4.6226,5.4,6.9777,2.9935,3.2124,13.204,5.3839,14.2838-.5595-1.69-5.4288-12.7548-5.1424-8.5336-13.16C823.6363,915.8837,830.2442,909.6391,822.2173,907.506Z" transform="translate(-706.784 -827.0442)" style="fill:#57847f"/><path d="M833.5508,880.957c2.4614,2.2139,12.8607.6794,9.7639,5.6943-.4537.8027.1949,1.4185,1.0476,1.3648,1.6471.0839,5.4417-2.4185,6.6222-.8041,1.4093,1.8932-1.2281,2.6574-1.7985,3.8426-1.8277,3.9382,3.98,1.0041,4.9832-.5719,2.41-3.4471-.0551-7.0212-3.0158-8.9691-.9438-1.0195-1.0722-2.3131-2.3612-3.2287-2.7822-1.1617-1.47-5.4662-4.2231-6.7236-4.0687,1.687.0168,9.2049-7.2811,4.68C829.5175,868.1233,822.4385,876.9424,833.5508,880.957Z" transform="translate(-706.784 -827.0442)" style="fill:#57847f"/><path d="M900.3565,966.3459c7.8442-8.5859,4.1565,6.5987,5.0292,8.5374.8062,1.8139,3.6139,1.52,4.42,3.3337a2.5656,2.5656,0,0,1-1.94,3.2768c-2.4834.602-6.0845-1.6456-7.8493,1.0572,2.2143,6.1112-5.3516,5.8959-8.457,2.0221-1.7172-1.5689-3.6549-3.1-5.8677-3.0431-.9484.0245-2.1755.2777-2.7658-.5295-.7934-2.5417-1.9044-11.2438,2.8236-8.2345C893.7966,976.8915,897.0509,973.0745,900.3565,966.3459Z" transform="translate(-706.784 -827.0442)" style="fill:#57847f"/><path d="M948.3086,1000.4075c.31-5.1326-6.7163-12.606-9.901-15.8767-4.1878-1.6947-4.219,3.2093-1.9909,6.1884,7.1383,8.1348-3.0323,9.9481-1.5761,18.5463,1.2343,2.4671,4.5669.4513,5.1127-1.6823a2.549,2.549,0,0,0,1-2.9361C941.2746,1001.1907,947.2088,1004.3586,948.3086,1000.4075Z" transform="translate(-706.784 -827.0442)" style="fill:#57847f"/><path d="M975.7044,967.464c1.7745,3.7817,6.58.0195,7.4923-2.63.7453-1.7591.5632-3.9054.7346-5.8395.954-3.4727-.7785-8.078-4.972-6.3245-1.6808,1.0558-3.0374,2.4195-4.9843,2.976a8.77,8.77,0,0,0-.8164,2.6783c.2742.8154,1.8175.554,2.1873,1.3986a4.4094,4.4094,0,0,0,.91,2.1591C977.5986,963.6506,975.0231,965.5837,975.7044,967.464Z" transform="translate(-706.784 -827.0442)" style="fill:#57847f"/><path d="M861.1537,985.55c4.1019,8.15-13.06-1.0538-15.16-2.7393-6.8687-6.2754-18.7494-3.3107-24.2242-10.7293-.5811-2.8953-3.9254-2.5556-5.2472-4.7358-2.8722-4.639-15.1273-1.4748-14.0428-8.4622,4.1525-3.3341,14.3518,5.7338,19.0829,1.5306.666-1.1561-.1028-2.75.5632-3.9055.4829-.8982,4.4978-3.4379,5.2677-4.2487,3.5055,2.2185,5.1842,5.9711,2.0675,8.9937-4.6329,7.9966,4.1136,9.8264,9.8529,11.5758,1.6635.7162,4.4,1.3413,5.0124-.6675,1.5351-.5775,3.39.197,4.8212-.7258,1.3355-.9519.5586-2.8614,1.6737-3.776,1.6143-1.1806,2.8486,1.2865,2.1243,2.6339C850.1309,976.44,856.5131,982.2536,861.1537,985.55Z" transform="translate(-706.784 -827.0442)" style="fill:#57847f"/><path d="M777.7416,875.7585a3.2454,3.2454,0,0,0,1.666,4.4805c2.886,1.5069,6.2247,4.6154,1.266,6.1357-3.91.4808-8.2847-2.3162-11.518,1.089-6.4447,3.9945-3.7158,12.876,1.1324,16.8629,3.7469,1.7693,2.7719,5.6538-1.5325,4.3418-11.6678-8.3655-10.2945-.5244-17.3765-4.0422-2.6353-4.0441,2.5193-6.55,4.7624-9.1071l5.5183-6.7858c2.7049-3.0436.6982-8.4642,5.6943-9.764C770.0544,876.97,775.7313,868.9778,777.7416,875.7585Z" transform="translate(-706.784 -827.0442)" style="fill:#57847f"/><path d="M780.9929,965.9244c2.1581,1.4942,2.0016-2.1079.8082-2.9944-2.332-3.3244-5.5531-9.22-1.3632-12.3334,1.4768-.3862,6.3982-2.1269,3.2252-3.7213-6.7587-.8058-13.2158,12.4893-19.73,4.022-1.1887-1.93-.3058-4.4841-.6792-6.6887-.6849-3.2406-2.6262-6.1322-4.0308-9.0694-.4737-1.19.5749-2.2292.5795-3.2732-6.1429-1.4543-3.7976,9.7148-2.3183,13.0929,3.1955,7.3512-6.2191,11.4858,5.6467,14.0573C769.0779,961.4561,775.5078,962.9979,780.9929,965.9244Z" transform="translate(-706.784 -827.0442)" style="fill:#57847f"/><path d="M888.712,894.112c-1.3264-1.1361-5.3055-4.5444-3.8016-.2179.86,2.6666,6.74,4.9818,6.36,8.6294-1.71,1.1515-6.8145,3.15-6.5624,6.7813,1.6241,5.304,9.1942-4.0973,11.4152-3.8384,7.0344,7.7895,6.0406,7.2775,1.7775,16.1186.4972,4.5424,8.6519-.6035,9.6432-3.8558,2.14,5.67,7.8484,1.3469,5.3588-3.1755-1.197-2.2466-4.0958-3.0256-4.6395-5.7-.2031-1.7345.0266-3.86-2.0405-4.2809A56.5251,56.5251,0,0,1,888.712,894.112Z" transform="translate(-706.784 -827.0442)" style="fill:#57847f"/><path d="M949.98,934.2189c4.9111,2.7515.9606,10.2243-3.371,4.2-1.3627-3.7607-12.428-1.07-7.7961-6.6626-.0946-2.4333-.3887-5.2411-2.1432-7.03-2.1127-.9576-1.8656-4.8549.5667-2.5453C941.2484,926.853,943.8581,932.3529,949.98,934.2189Z" transform="translate(-706.784 -827.0442)" style="fill:#57847f"/><path d="M942.926,952.5591c3.7853-.4144,6.6212,1.6,3.8952,5.0554-.2833,1.2726,1.13,2.1218,2.47,2.53,12.0024,4.1813-7.1,9.2309-11.6623,7.7357-7.7363-.6854-5.6789-6.749-8.58-11.2924-13.3825-6.17,1.02-11.9205,6.5112-3.87C938.1458,954.8655,940.1848,952.978,942.926,952.5591Z" transform="translate(-706.784 -827.0442)" style="fill:#57847f"/><path d="M900.2958,1010.4444c-2.2665-.7954-8.0022-1.1847-8.6917-3.3812,1.486-2.4742-2.5469-6.7353,1.7668-7.5112,3.951,1.1,10.84-1.6092,13.1058,1.59,2.3657,2.1847,5.3157.0522,7.94.0159,3.1357,1.374,3.79,7.1143.7074,8.9972-1.8057,1.1223-3.8692,2.0614-5.3132,3.7121a.5288.5288,0,0,1-.7862.1785C906.1845,1013.0758,903.4151,1011.1862,900.2958,1010.4444Z" transform="translate(-706.784 -827.0442)" style="fill:#57847f"/></g><g id="Mold_Dark" data-name="Mold Dark"><path d="M896.4985,981.06c-.8435-2.0343,5.3469-4.8518,1.088-5.6273-3.216,1.6333-6.3153,2.884-9.9875,1.5556a1.9486,1.9486,0,0,0-2.5-.03c-2.1428,1.5422.4761,4.9541,2.5524,3.2871,3.5229.4466,5.834,4.1827,9.3113,4.0927C899.4172,983.8319,896.7516,982.2876,896.4985,981.06Z" transform="translate(-706.784 -827.0442)" style="fill:#3d5b57"/><path d="M867.5387,936.48c1.6052.9074,7.54,1.6711,4.7771,4.906-8.6667,6.14-13.2914-5.0969-11.0381-12.1462C864.5591,930.135,864.5863,934.8477,867.5387,936.48Z" transform="translate(-706.784 -827.0442)" style="fill:#3d5b57"/><path d="M901.1266,906.8869c4.9884,6.9567-2.9459,12.0653.7263,13.3937,2.4625-.19,2.6768-5.352,5.1766-5.3218,1.5515.0547,2.9188,2.7714,4.4912,2.4144.1842-2.6619-1.9156-4.3474-3.999-5.4007C905.7461,910.595,903.5108,904.8956,901.1266,906.8869Z" transform="translate(-706.784 -827.0442)" style="fill:#3d5b57"/><path d="M808.4485,919.4086c-3.53-3.1669-12.1154-2.4385-11.4053-9.2264.97-2.8405,6.4646-2.0021,8.5189-.8532a9.2166,9.2166,0,0,0,7.748,2.3617c2.0507-.2113,7.1133-1.3862,7.0994,1.7459-1.0112,1.26-2.9873,1.9121-3.799,3.5464C815.5015,923.022,812.8313,922.5217,808.4485,919.4086Z" transform="translate(-706.784 -827.0442)" style="fill:#3d5b57"/><path d="M764.4786,901.0921c-2.3039-1.0158-1.5412-4.5469-3.6246-5.6-6.4646,2.002-11.472,10.1982.35,7.4248C763.7333,902.8513,767.8582,905.7814,764.4786,901.0921Z" transform="translate(-706.784 -827.0442)" style="fill:#3d5b57"/><path d="M776.3328,882.438c-1.6143,1.1805-4.2088-1.2829-5.8441.3094-1.1817.79-1.108,3.6349-2.9255,3.0809.5832-1.9131,1.2083-4.65,2.8891-5.7055.5622-1.5013,2.1776-5.0861,4.0733-2.731C775.677,879.1018,777.4525,880.4794,776.3328,882.438Z" transform="translate(-706.784 -827.0442)" style="fill:#3d5b57"/><path d="M733.9364,928.5814c-.5714,3.5893,7.0391,6.7454,4.7668,9.3982-1.8338-1.1862-2.6645-3.9485-4.69-5.193-2.9735-1.22-7.2022-4.4953-3.6446-7.5926C734.8423,920.8077,735.3441,924.306,733.9364,928.5814Z" transform="translate(-706.784 -827.0442)" style="fill:#3d5b57"/><path d="M776.9037,957.0465c-.2369-.5949.225-1.0814-.2614-1.5433-1.5386-.7826-1.528,3.2978-4.6682,2.9679-.5365.0454-1.2644.0327-1.56-.3709-1.3427-1.7684-4.1878-1.6948-5.9633-3.0723-2.1617-2.8543-4.0328-4.261-4.0057.4516a2.8911,2.8911,0,0,0-.4129,2.3833c-1.023-.4165-1.98-.708-2.9069-1.0952-1.3331,4.7162,2.1315,5.3541,5.7873,6.05,1.0348,2.0926,3.0144,2.8006,4.7607,4.2738.7525.9611,3.6467,2.7842,3.305,4.2482-.0011,2.4041-.51,4.7581,1.2158,6.6432.328,1.6681,2.3122,1.332,3.439,2.0937.9811,1.24,3.6186.4757,4.5715-.5929-.0829-.757-.8645-1.6226-.7268-2.4169.3417-1.464,2.28-2.3367,2.1438-3.9464-1.2553-2.0554-2.598-3.8237-.2138-5.8151,1.71-1.1514-.0035-1.36-1.1223-1.8057-.4491-.2414.2333-.7652.1586-1.2062-.9974-1.8721-2.7147-3.441-2.8384-5.7787C777.494,957.8535,777.0741,957.5164,776.9037,957.0465Z" transform="translate(-706.784 -827.0442)" style="fill:#3d5b57"/><path d="M817.8407,929.0667c-3.3664,3.1555,6.2154,6.7036,7.4856,3.2226C825.3191,929.5691,820.0372,928.3772,817.8407,929.0667Z" transform="translate(-706.784 -827.0442)" style="fill:#3d5b57"/><path d="M803.2319,853.5247c-3.0492.7433-2.132,5.6227-4.836,6.2621-1.3428-1.7683,1.4742-4.15,1.4543-6.1429-.3816-2.5207.352-5.9561,3.7664-4.8108C811.669,849.51,810.5692,853.4614,803.2319,853.5247Z" transform="translate(-706.784 -827.0442)" style="fill:#3d5b57"/><path d="M846.9819,880.4511c-1.5387-.7827-4.6953-1.7448-5.89-.2272,2.9444,1.3157,5.7312,1.4334,5.58,5.36.7151.7407,2.109-.4026,2.8952-.5811,2.4963-1.33-2.5023-3.7945-3.2548-4.7556" transform="translate(-706.784 -827.0442)" style="fill:#3d5b57"/><path d="M830.3,877.5614c-1.2542-4.46,3.2032-.9053,4.9332-.0644C842.3848,882.5,832.05,880.3948,830.3,877.5614Z" transform="translate(-706.784 -827.0442)" style="fill:#3d5b57"/><path d="M980.2519,954.9461a1.5534,1.5534,0,0,0-1.444,1.6506c2.2865,2.7879-1.4415,5.4151-.2947,8.1691,2.2328,1.9351,3.8482-1.65,3.4165-3.663C981.8223,959.3973,983.097,954.8724,980.2519,954.9461Z" transform="translate(-706.784 -827.0442)" style="fill:#3d5b57"/><path d="M940.0107,990.2466c-.4328.3908.2777,2.1755.448,2.6456,1.6916,3.0247-1.5371,5.3859-1.3387,8.1644.1331.25.3535.2124.5075.05,1.76-1.6588,6.5767-1.3406,5.3178-4.7561C944.131,994.2207,942.7018,990.3351,940.0107,990.2466Z" transform="translate(-706.784 -827.0442)" style="fill:#3d5b57"/><path d="M826.3578,961.1439c-1.7694,3.7469.1007,7.5577,1.0143,11.077-1.1524.6942-2.67-.5-3.2978-1.5279-.7887-3.5858-6.8451-2.9229-6.4942-6.4749,2.1673-.5939,5.1746-.5135,5.0927-3.6748C823.278,955.8143,828.14,956.6691,826.3578,961.1439Z" transform="translate(-706.784 -827.0442)" style="fill:#3d5b57"/><path d="M850.4669,978.4243c.3463-2.508-1.8947-4.7592-3.9546-2.46-1.4312.9228-3.2778.4644-4.8129,1.0419-1.065.4072-2.284.9766-.687,1.5679,2.4661,1.17,5.41,2.4855,8.03,3.4932C855.6384,985.1233,849.7753,981.0362,850.4669,978.4243Z" transform="translate(-706.784 -827.0442)" style="fill:#3d5b57"/><path d="M757.65,937.9c-1.7729,2.3867,1.25,5.5034,2.13,7.7583.31,3.44,2.2128-.0573,1.8558-1.63C760.6384,942.1568,760.287,937.1362,757.65,937.9Z" transform="translate(-706.784 -827.0442)" style="fill:#3d5b57"/><path d="M941.1055,959.2175c-1.9959-1.34-4.3535-3.2088-6.8533-3.2389-2.65,1.4921.9135,3.5193,2.1734,4.5306.9974,1.8721,2.2819,3.8318,4.7152,3.7372,1.3018.1877,5.5035-1.25,3.7571-2.7229-1.443-.7534-4.8165-.3182-4.6824-2.4727" transform="translate(-706.784 -827.0442)" style="fill:#3d5b57"/><path d="M949.5171,937.11c-1.3274,1.2681-2.8988-.779-4.084-1.3494-1.73-.8409-4.1843-.3346-5.0569-2.2733-.6358-1.3438,1.0788-3.5392,2.376-2.3075.22,2.3669,2.7648,2.9337,4.2323,4.6355A8.6751,8.6751,0,0,1,949.5171,937.11Z" transform="translate(-706.784 -827.0442)" style="fill:#3d5b57"/><path d="M720.455,949.1441c-.9832,3.5683-.1827,8.83.7309,12.35-.0966,2.3749-3.0047,3.6839-3.6753,5.884-.08,3.0072,4.1321,5.65,6.1756,2.7188-4.93-7.1481,12.7693-8.9665,3.4089-14.956a5.0445,5.0445,0,0,1-4.0911-4.07C722.5221,949.565,721.65,947.6264,720.455,949.1441Z" transform="translate(-706.784 -827.0442)" style="fill:#3d5b57"/><path d="M734.3316,986.6184c-6.4555-.0861-4.702,4.1074-3.4094,6.3832l19.7724,3.7271c-1.729-3.2451-7.902-2.2-7.0263-7.4734C742.7011,984.8833,737.3306,986.3826,734.3316,986.6184Z" transform="translate(-706.784 -827.0442)" style="fill:#3d5b57"/><path d="M747.377,973.6589c1.555,1.4149,3.4553,2.726,4.1075,4.702.3488,1.2562.2568,2.5873,1.134,3.4819,2.1581,1.4942,7.104.7018,8.2739-1.7642-7.61-3.1562-6.2191-8.0637-12.5732-11.5687C743.1083,966.3988,744.82,971.4159,747.377,973.6589Z" transform="translate(-706.784 -827.0442)" style="fill:#3d5b57"/><path d="M791.1705,986.3809c-1.08,5.9433,13.9585,1.5366,14.3216,8.2335.3571,1.5724-1.0952,2.9069.8926,3.931,1.7965.9657,3.5858-.7888,4.5971-2.0486,5.5721-5.9332-4.1325-14.223-10.0616-9.8623C797.4628,988.7169,793.7962,983.94,791.1705,986.3809Z" transform="translate(-706.784 -827.0442)" style="fill:#3d5b57"/><path d="M826.7071,990.5223c-.3172,2.4124,4.0072,5.7169,5.2333,7.8678,2.8057,4.5142,7.987-1.8517,1.8231-2.8943C831.077,994.3633,829.5685,991.0809,826.7071,990.5223Z" transform="translate(-706.784 -827.0442)" style="fill:#3d5b57"/><path d="M849.6125,1011.4084c4.8457.2225,11.076,1.39,15.8225.2231a2.8362,2.8362,0,0,0-1.5633-1.731C853.5267,1001.311,840.5253,1008.6384,849.6125,1011.4084Z" transform="translate(-706.784 -827.0442)" style="fill:#3d5b57"/><path d="M903.0509,1006.8937c-.24-1.9551-2.0042-1.6564-3.4226-1.4615-1.83.1739-2.1766,2.6819-3.35,3.7878-1.464-.3417-3.0109-1.4405-4.525-1.2748-.134,2.1546,2.69,2.4927,3.0845,4.2856.4154,1.3811,2.5162.6624,2.5863,2.1474-.0629,1.2353-2.0763,1.667-.9039,2.9653a2.0459,2.0459,0,0,0,1.0522.3207c3.2487-.3688,2.5781,1.8313,4.8237,3.0385a5.7554,5.7554,0,0,1,3.0773,1.5652c4.17,3.4666,11.3967.3377,6.1414-4.7142-.6021-2.4835-2.7228-3.7571-5.0186-4.4569-2.74-1.9853,6.0156-2.2436,7.0187-3.82C917.9307,1003.6929,904.9011,1008.712,903.0509,1006.8937Z" transform="translate(-706.784 -827.0442)" style="fill:#3d5b57"/></g><g id="Mold_Darker" data-name="Mold Darker"><path d="M780.0945,965.4414c-.7407.7152-.9657,1.7965-1.6108,2.5408-1.3939,1.1432-3.4492,2.3985-1.599,4.217,1.7044,2.2967-2.5065,5.8221-3.0748,2.199-.2731-3.2195-1.6859-6.4728-2.6788-9.389-2.32-1.6481-6.1884-1.9909-8.238-4.1838-1.1561-.666-3.7434-.4092-3.16-2.3223-.4982-2.1382,10.501,3.6191,12.3768,3.9817A51.405,51.405,0,0,0,780.0945,965.4414Z" transform="translate(-706.784 -827.0442)" style="fill:#2e4440"/><path d="M906.0725,1012.4142c-1.24.9812-.5084,2.3541.398,3.1531-.9157,1.289,2.64,3-.3673,2.92-4.3091-.2681-2.5234-3.3827-6.3915-3.7254-.7607-1.2773-1.0221-2.8205-2.8313-3.0584-1.1561-.666.2087-1.7136-.4773-2.55A43.2192,43.2192,0,0,0,906.0725,1012.4142Z" transform="translate(-706.784 -827.0442)" style="fill:#2e4440"/><path d="M807.1438,993.6542c-.2777-2.1755-3.838-2.8425-3.7412-5.2176,1.5187-1.21,4.1679-.2977,5.4651.9341C811.6289,990.9442,809.3464,998.0891,807.1438,993.6542Z" transform="translate(-706.784 -827.0442)" style="fill:#2e4440"/><path d="M753.63,980.5829c-1.3882-2.3049-.3723-4.6088,1.6062-1.4967C758.6959,980.7682,755.4636,981.7691,753.63,980.5829Z" transform="translate(-706.784 -827.0442)" style="fill:#2e4440"/><path d="M722.8413,961.8938c-.4409.0747-.67-.2041-.553-.5867a7.1659,7.1659,0,0,0-.8506-4.7547c-.5985-1.1232.8082-2.9944,1.6727-1.3719.8481.99,2.3039,1.0159,3.21,1.8149C729.0691,959.2968,725.0168,961.616,722.8413,961.8938Z" transform="translate(-706.784 -827.0442)" style="fill:#2e4440"/><path d="M720.6765,966.2519c-1.3857,1.46-1.7075,4.9157,1.23,3.5111-.8773-.8946-1.8293-2.23-.9428-3.4236" transform="translate(-706.784 -827.0442)" style="fill:#2e4440"/><path d="M745.8909,995.6827c-4.7792-.0977-4.68-7.2811-7.78-6.03-2.7224,4.8154-5.7393-1.75-5.7915,3.5662A88.3978,88.3978,0,0,0,745.8909,995.6827Z" transform="translate(-706.784 -827.0442)" style="fill:#2e4440"/></g></g></svg>