<svg id="pizza" xmlns="http://www.w3.org/2000/svg" xmlns:xlink="http://www.w3.org/1999/xlink" viewBox="0 0 619.6868 329.5586"><defs><radialGradient id="radial-gradient" cx="542.7936" cy="1464.6593" fx="237.31272875800164" fy="1457.2375827538044" r="333.5829" gradientTransform="matrix(0.9999, -0.0141, 0.007, 0.4926, 386.7881, -36.7951)" gradientUnits="userSpaceOnUse"><stop offset="0" stop-color="#6d912f"/><stop offset="1" stop-color="#769933"/></radialGradient></defs><g id="rucola_c"><path d="M612.6585,654.869c-5.3011,8.8175-.4655,5.7865,10.4127,10.7988,3.84,1.6068,3.1336,1.5846,9.8338,4.4842,8.46,3.1674,18.9785,8.3807,23.8679,10.3742,9.6551,3.4174,11.4955,1.1408,16.1989,4.5435,3.5265,2.5873,1.8719,3.4548,8.2419,10.0936,5.0055,5.0394,11.8174,11.1261,13.7459,17.2711,3.6795-.0254,4.5946-2.119,7.78,2.2971,11.09,14.0037,13.074,34.0874,26.815,38.058,1.0073-.5342.8555-2.4491.0816-7.072-3.1194-19.978-4.7134-30.0034-5.0289-31.216a1.9489,1.9489,0,0,1,.0446-1.4135c.8286-1.601,4.19-.5046,4.9457-2.0372.5237-.9031-.5849-1.6455-.5953-3.556,10.1508-30.2421,105.5609,1.9852,103.0066,13.4362,3.1845,8.9437,5.9955,18.5123,11.4773,26.3964,5.193,5.8235,12.3052,4.6329,17.5456,6.7084,11.9451,4.8337,14.7564,21.1231,12.98,23.614a2.1147,2.1147,0,0,0,.5953,3.556c4.79,2.91,5.8688,13.5561,5.3333,17.0765,5.1453,2.8506,2.9841,22.0254,14.4142,20.7587,6.5483.9847,14.53-27.7693,14.3239-41.43-.875-5.9-3.5712-7.8947-6.1514-13.565-3.96-9.0389.1245-10.6787-3.1462-19.13-4.0564-10.4568-11.5257-11.4-11.6272-19.3974,1.0021-20.5555,18.85-5.49,28.4336-6.5315,2.3791-1.4106.8539-4.6423,2.9978-9.81,4.4781-11.8855,14.7-12.978,19.0406-.3191.6443,2.0012.86,4.13,2.7216,5.6748,11.4,1.916,14.7055,13.764,25.5722,28.1144,5.6543,6.8992,5.2733,3.2792,18.104,15.9228,9.6048,9.5,10.6465,12.3626,17.3749,16.6073,6.24,4.0171,6.5082,2.2569,18.9146,8.1664,13.1042,6.2144,15.55,9.4044,20.328,8.211,13.5978-4.9478,13.3353-21.2984,5.5993-31.73-3.9536-6.9871-5.5992-6.4023-13.0615-16.5421-7.8044-10.5043-6.8983-12.3151-12.3323-17.2265-6.3967-5.7907-9.6061-4.9722-11.8709-9.43-3.3971-6.6865-.6553-17.3534,5.384-20.4172,4.9457-2.0372,25.9566,4.71,33.1433,5.6438,8.09,1.4578,7.4782.66,11.2679,1.6288,11.0909,2.7552,11.5643,7.9345,23.0943,12.4722,9.5733,3.7684,11.1489.9176,19.0037,5.3393,5.0723,2.9192,6.6243,5.3027,11.8871,6.6714,5.5454,1.3776,6.7387-.5657,11.997.9443,6.38,1.8284,6.2732,5.2209,11.8871,6.6714,19.2982,2.731,15.5958-9.9785,22.9741-15.1225,3.0859-1.3883,4.3.4894,7.8011-.6029,5.7849-1.7277,5.8441-8.0929,10.8879-13.24,1.8211-3.9043,42.0686-10.4169,44.8865-16.7659,17.003-18.7066-2.4819-40.1912-28.0785-45.1018-5.3535-.7348-9.1194-.2169-11.2234-3.0423-.7484-.9433-1.0639-2.156-1.2427-9.9437-.0837-8.5628.3671-9.3976-.5138-10.6281-13.07-9.5384-79.172,20.4246-87.2,10.2669-9.6388-6.1759-10.48-15.3994,1.0705-20.4825,12.1872-7.3269,22.0725-13.453,28.71-22.0161,5.6939-7.8147,14.8261-21.4636-8.0712-19.9927-13.3643-.2093-20.0123-.2774-28.3683,2.2181-23.0489,6.2768-24.2014,20.39-37.1745,18.99-7.1271-.5785-20.6675,27.2221-38.7425,26.086-3.5472.3126-5.7834,3.9208-6.4484,4.82-5.508,6.4057-28.0626,21.6829-39.3009,16.8714-14.7112-9.095-12.7522-24.102-4.8059-38.2836,7.4345-15.8956,3.6389-12.195,12.7114-32.92,18.1806-42.5816,20.9444-22.544,12.1221-72.5566-8.0782-10.7959-21.088.1838-24.144,5.11-6.9928,8.6226-16.44,3.09-19.369,12.9723-2.8669,7.9038-10.6375,25.4866-16.9564,32.9279-3.3743,6.0485-15.51,9.4861-15.1938,17.4195-.8078,5.422-2.532,10.7443-2.4916,16.193,2.2962,10.1891-25.6268,61.0943-31.831,69.3881-8.8661,9.6955-19.1572-9.4474-19.6366-16.6786-.7872-4.1989-4.8832.0582-11.17,1.9823-10.3617,3.2813-16.1853,1.7534-19.77,1.0036-3.3419.5313-11.2215,5.8717-15.6184,3.9644-3.7451-2.3821,1.98-17.907,3.9868-23.2205,3.2311-14.9669,24.95-44.1366,34.65-48.8536,5.9515-4.7645,5.1225-9.8844,16.2294-16.6086,7.1373-4.2318,15.59-5.3094,17.7609-4.6042,2.0936.9149,1.4492-1.0863.7737-2.098-2.5609-4.0426-13.3214-3.816-13.3214-3.816-26.4817.7212-39.8995,2.2081-59.16,20.7021-5.8992,7.5959-12.9646,23.0079-26.6529,35.31-3.0442,2.3094-3.98,7.3028-3.9009,9.2861-.7555,8.2534-3.34,16.1663-6.2022,23.9288.1834,7.6463,2.5821,14.5843-3.2859,21.1908-3.3536,3.1486-10.7052,7.4445-13.715,13.1507-10.83,11.4022-44.5535,10.6923-63.7195,1.5275-12.2606-6.0463-16.1457-12.96-20.315-15.3558-2.577-1.284-.3036-3.83,1.9207-4.8209,5.0737-1.6086-9.23-1.2107-10.64-10.3108-1.5328-7.4766-9.24,3.6-20.3694-2.4111-1.8421.0834-2.6841,2.1085-4.3059,4.18-3.69,4.8358-6.9319,4.4506-12.0769,8.3208a1.7994,1.7994,0,0,1-1.5727.5164C620.1226,635.7908,616.58,649.4038,612.6585,654.869Z" transform="translate(-610.4996 -489.5424)" style="fill:url(#radial-gradient)"/><g id="Branch_copy_2" data-name="Branch copy 2"><path d="M993.83,726.8837c-15.4736-23.0559-41.7756-32.5165-62.6844-49.2353,43.0537-10.2444,87.103-11.6849,131.1568-13.2667,23.9782,18.089,50.9128,32.168,78.566,43.6521a372.5627,372.5627,0,0,1-72.4061-43.8116,791.8751,791.8751,0,0,1,100.2641,3.9406c-52.5679-6.61-105.701-6.5174-158.6227-4.1541,13.9277-15.4077,31.004-27.4619,49.4179-37.0686,9.7262-5.5651,12.7223-17.5682,22.2477-23.4934a248.5427,248.5427,0,0,1,27.2949-17.533,243.1855,243.1855,0,0,0-27.9064,16.7355c-9.6533,5.4967-13.0691,17.3451-22.6451,22.6319-20.9031,10.0233-37.8291,21.7993-54.2906,39.0373-26.583-.5554-52.1985,6.3479-78.2634,9.5583l-.0685-.0729-.0729.0684c-12.2007,1.03-24.171-.7623-36.4-1.0773a137.0151,137.0151,0,0,0,46.344-69.7086c9.4039-28.9921,20.3493-57.5112,35.824-83.8358-21.1017,32.019-32.3831,68.9463-47.4913,103.8426-9.2779,20.5067-26.333,36.3818-44.0877,49.7587-36.4209,1.8226-72.4635,9.6-109.0228,9.0833,20.406-16.6891,23.1192-35.4219,29.5267-59.1319a180.0613,180.0613,0,0,1,37.024-63.5647,182.4065,182.4065,0,0,0-39.82,62.4861c-8.4339,27.3956-10.7217,41.6142-35.2118,59.943-13.4418.0006-34.4869-3.4223-47.8661-5.4007-29.6451-4.4016-60.2693-6.9239-86.7441-22.12a42.689,42.689,0,0,0,31.3377-13.373c-10.7944,10.2714-30.0357,16.9513-42.8009,6.7151l-5.2921,8.5348a163.7571,163.7571,0,0,0,67.3807,23.7026c15.2365,10.385,31.3167,20.9381,39.1855,38.3775-6.5593-16.337-20-27.585-33.9-37.7156,38.9565,5.2612,78.8668,11.6845,118.1487,6.6271,15.793,10.6855,35.075,16.1751,48.8773,29.4154,21.8256,23.5393,40.9863,50.8149,47.26,82.9192-5.505-34.061-25.0052-64.0355-48.0582-89.0284-11.4974-10.0548-26.1059-15.68-38.5689-24.28,20.0881-2.1255,40.075-5.5277,60.0946-7.7261,16.965-1.7995,33.9287.9287,50.7941.0457l-.0729.0684c16.0178,12.532,34.8639,20.6254,51.6375,31.6249,17.5474,15.6223,36.6738,39.501,52.6041,57.0531C1018.8886,757.8119,1001.4689,735.8972,993.83,726.8837Z" transform="translate(-610.4996 -489.5424)" style="fill:#efffab"/></g></g></svg>