<svg id="pizza" xmlns="http://www.w3.org/2000/svg" xmlns:xlink="http://www.w3.org/1999/xlink" viewBox="0 0 612.5208 316.0635"><defs><radialGradient id="radial-gradient" cx="-369.397" cy="3437.877" fx="-60.355724063411856" fy="3370.282377975722" r="317.2614" gradientTransform="matrix(0.9985, -0.056, 0.0285, 0.5089, 1191.3324, -1108.1982)" gradientUnits="userSpaceOnUse"><stop offset="0.0312" stop-color="#4e512d"/><stop offset="1" stop-color="#587735"/></radialGradient></defs><g id="rucola_a"><path d="M1223.8024,609.5185c6.3352,8.1336,1.3089,5.35-8.91,12.0631-4.4251,2.7385-19.7243,11.6416-24.6712,14.6759-6.7184,5.9928-18.2576,7.1318-22.2764,10.7895-3.1606,2.9412-1.3769,3.6543-6.9466,11.065-4.2737,5.6414-10.2756,12.4925-11.5128,18.8265-3.6482.4589-4.6955-1.5913-7.354,3.2494-7.5754,13.6056-8.4722,25.6092-14.2447,34.2844-2.705,3.9475-9.8317,13.2754-8.6075-.1783.6025-20.2281.8356-30.361,1.0383-31.6255.4953-3.3844-4.1386-1.2172-5.3859-2.8092,2.6456-11.96-16.3153-13.1662-19.0327-12.89-36.61,2.1324-76.08,20.7145-81.2159,35.5812-2.0661,9.3329-3.6129,19.1759-8.0078,27.645-4.4128,6.41-11.68,6.1619-16.552,8.9236-11.2715,6.2749-12.0225,22.7939-9.8471,25.0091,1.2124.922,1.3172,2.9318-.1733,3.5469-3.7551,2.7035-4.4375,13.6659-3.3177,16.25a2.2916,2.2916,0,0,1-.9652,2.9612c-2.4125,1.8274-.5688,14.0016-5.0746,18.6251-11.9092,7.786-14.6235-7.3432-22.4833-26.6823-4.3344-9.2679-1.4964-15.82,2.0314-24.6017,2.7736-9.5041-1.49-10.5357.736-19.3843,2.6545-10.9308,10.0406-12.7041,9.088-20.67-1.9856-10.5994-7.7716-12.4922-18.8314-6.4522-12.4866,6.1592-9.94,5.1756-14.4057-5.7424-6.0023-11.1961-16.2483-11.02-19.01,2.1553-.1241,3.6338-1.8,7.5724-5.9437,7.9676-6.6409,1.4657-10.44,17.0688-17.8737,29.1-4.6648,7.5874-4.8511,4.0146-15.9384,18.1167-8.359,10.6013-8.9646,13.5885-15.1466,18.7024-5.7094,4.7311-6.1505,3.1419-17.7233,10.5073-12.22,7.8469-14.191,11.2636-19.1009,10.7135-14.1414-3.2485-15.9713-19.4537-9.5323-30.8058,3.0147-7.4566,4.7374-7.0538,10.9271-18.0347,6.39-11.439,5.3163-13.13,10.1353-18.62,5.7033-6.5668,8.9021-6.1961,10.5427-10.8047,2.5421-7.0737-1.5286-17.2957-7.8715-19.5624-7.0039-1.2023-30.0516,10.2543-38.0932,11.48-13.0065,2.2006-14.1478,9.5148-26.4022,16.6918-9.01,4.9927-10.898,2.27-18.185,7.6653-4.7,3.4693-5.8628,6.0825-10.955,8.05-5.3531,2.1151-6.7484.2622-11.8289,2.4527-6.0868,2.646-5.5526,6.0216-10.955,8.05-18.8583,5.0582-16.57-7.7344-24.679-12.1033-14.8018,1.2642-9.6836-1.0626-20.204-11.3066-2.2946-3.6421-43.0728-5.0093-46.6989-11-9.1163-7.3617-13.4491-24.3321,1.7973-35.9642,18.7482-20.0545,35.2581-5.7341,31.0259-26.7849-.9382-8.5493-1.5561-9.2336-.82-10.5706,2.0351-3.9126,10.1089-3.6617,19.5952-2.9472,31.8139.3568,73.6535,17.79,74.124-10.9844-1.0795-3.5263-4.7832-4.99-9.6876-7.1527-13.0166-5.7253-23.5679-10.5491-31.269-18.2532-6.773-7.0807-17.3112-19.3839,5.5411-20.8438,13.2037-1.8527,19.7809-2.8225,28.4089-1.3914,23.642,3.38,26.6461,17.1955,39.2957,14.1626,6.9512-1.5267,23.93,24.3679,41.6663,20.98,3.5351-.05,6.2531,3.1223,7.0566,3.9313,3.3241,3.6332,8.7245,5.8594,17.8285,9.55,17.5819,9.1146,32.6494,2.6418,31.6888-17.5048-.3116-6.8354-3.5227-10.8776-8.4571-18.7707-9.3264-14.8293-5.1324-11.6893-16.713-31.1032-14.2321-23.8882-17.0885-22.8436-20.6022-32.6917.8589,2.7318-4.06-16.895-.6275-37.8081,6.6883-11.7233,21.0076-2.4834,24.6017,2.0314,7.7881,7.6548,16.8032,1.05,20.8766,10.4655,3.8324,7.3683,13.7855,23.9115,20.9818,30.5223,4.4208,5.77,16.41,7.25,17.2756,15.2658,6.4391,21.2941,5.0595,25.7546,23.4624,52.3363,11.2464,15.58,20.5324,31.3518,27.3706,30.2341,7.3718-1.19,11.5915-16.4572,11.6368-22.46,1.2207-1.4967,5.1449.7618,10.9829,1.9352,12.5926,2.747,16.02-1.9546,22.02-1.1031,22.5583,8.3626,13.9655-6.9975,6.9187-21.05-3.7337-7.1944-8.0592-15.4327-16.561-24.752-12.5685-13.4512-21.1245-17.7969-25.8782-20.5046-5.2886-9.5316-24.5556-19.1853-34.49-15.6223-2.0009,1.1343-1.5721-.948-.998-1.9631,2.0118-4.3592,12.7448-5.5009,12.7448-5.5009,26.3293-2.6264,39.887-2.8406,61.2287,13.1088,6.5264,6.6458,17.93,23.5164,31.9647,32.4577,2.9933,2.4413,3.5885,6.1272,4.0412,7.94,1.7212,8.1054,5.2926,15.6218,9.1249,22.99.7554,7.6183-.7079,14.77,5.9083,20.56,3.6372,2.7661,11.6884,6.0185,15.28,11.3394,11.6254,9.9626,45.8512,5.0437,63.3423-6.4815,11.3379-7.5771,14.3149-14.8974,18.2817-17.8359,3.2448-2.1843-1.9322-4.4223-3.8029-5.086,17.3643-7.0852,4.8458-17.0011,17.311-13.2623,4.6839,1.368,9.1062-.5643,13.2065-2.6589,1.8734-.1424,2.9584,1.7714,4.8,3.6011,4.3015,4.3435,7.4422,3.5976,13.0254,6.7547a2.1822,2.1822,0,0,0,1.5864.3652C1214.1273,591.4383,1219.2049,604.6531,1223.8024,609.5185Z" transform="translate(-614.0826 -491.5344)" style="fill:url(#radial-gradient)"/><g id="Branch_copy" data-name="Branch copy"><path d="M967.099,751.0221c6.809-17.9991,17.136-34.659,28.18-50.4606,12.0326-14.868,30.4292-22.7683,44.8229-35.2963a330.8513,330.8513,0,0,0,56.2459-6.0221c19.5892-4.7829,40.57-10.3548,60.0984-15.448-12.4189,11.7534-24.4693,24.5623-28.9062,41.6764,5.6315-18.2512,20.1615-30.7415,34.0332-42.9736a163.5111,163.5111,0,0,0,63.8016-32.0313l-6.3612-7.774c-11.3894,11.7445-31.27,7.4966-43.2839-1.3261a42.3541,42.3541,0,0,0,32.7755,9.3525c-31.5719,23.1861-72.0008,28.5179-108.7166,39.7914-6.9772,1.8863-14.25,3.2506-21.3988,4.4294-26.5791-15.0495-30.7606-29.117-42.5048-55.1053A182.3592,182.3592,0,0,0,988.487,542.79a180.2176,180.2176,0,0,1,44.6892,58.35c9.3365,22.7552,14.4092,41.03,36.7626,54.912-36.2355,5.0237-72.9394,1.9215-109.2914,4.7122-19.25-11.0429-38.23-24.6524-50.0226-43.8313-19.35-32.7122-35.1554-67.8931-60.1362-96.9531,18.6838,24.2384,33.1165,51.1165,46.1081,78.6968A138.02,138.02,0,0,0,951.3529,662.01c-12.1249,1.9308-23.7826,5.0911-36.0266,5.595l-.0493-.087-.087.0493c-26.42.0338-52.8023-3.5169-79.198.4117-16.8811-14.57-37.2995-24.8353-58.3987-31.8409-10.2439-4.0786-15.13-15.3329-25.3358-19.5477a259.4361,259.4361,0,0,0-29.7484-13.1377,243.8078,243.8078,0,0,1,29.299,13.9672c10.1425,4.7108,14.73,16.2493,25.072,20.5019,19.4492,7.1364,37.9215,17.0107,53.7149,30.4729-52.7051,4.36-105.48,10.8277-156.8258,24.073a811.8845,811.8845,0,0,1,99.049-16.4933,364.0479,364.0479,0,0,1-66.4021,52.5875,367.9178,367.9178,0,0,0,72.643-53.1368c43.86-3.9433,87.7084-8.11,131.6628-3.3706-12.2881,13.4035-27.9729,22.64-40.8789,35.3594-14.8855,18.5544-29.7,45.3451-42.4828,65.5812,13.6239-19.5634,29.4275-45.42,44.98-63.2036,15.2144-13.1082,32.9493-23.3922,47.2382-37.93l-.0493-.087c16.9972-1.2443,33.4484-6.0875,50.4051-6.3893,20.1322-.3777,40.4213.535,60.5912.0209-11.2968,10.0827-25.0158,17.5152-35.2133,28.9289-19.6922,27.7166-35.2569,59.8755-36.4165,94.3286A145.9472,145.9472,0,0,1,967.099,751.0221Z" transform="translate(-614.0826 -491.5344)" style="fill:#9cc654"/></g></g></svg>