<svg id="pizza" xmlns="http://www.w3.org/2000/svg" xmlns:xlink="http://www.w3.org/1999/xlink" viewBox="0 0 472.548 282.2955"><defs><radialGradient id="radial-gradient" cx="-1994.4468" cy="2680.5997" r="12.024" gradientTransform="matrix(-0.4068, -0.7273, 0.8727, -0.4881, -2132.3404, 907.728)" gradientUnits="userSpaceOnUse"><stop offset="0" stop-color="#1e564b"/><stop offset="0.2703" stop-color="#12352e"/><stop offset="0.5622" stop-color="#081815"/><stop offset="0.8156" stop-color="#020605"/><stop offset="1"/></radialGradient></defs><g id="shrimp_shell"><g id="_Layer_copy_10" data-name=" Layer copy 10"><path d="M722.78,1192.2378c-1.5467,18.488,6.7992,25.6011,7.215,47.0487-13.9637,3.2585-13.0129,2.2259-17.4646-2.6478-1.5379-.6122-2.6985.3433-4.7673.9177-4.4974,1.35-12.6536-.31-16.03-3.312-3.7889-10.4425-.4631-22.2271.9225-33.0091,1.8148-6.2415,4.9948-39.0412,11.1417-38.7854C733.1281,1168.0722,722.1831,1165.0546,722.78,1192.2378Z" transform="translate(-687.8569 -958.8722)" style="fill:#ff4e45"/><path d="M693.7413,1148.7061c-2.0175,20.03,13.7039,24.1819,30.0881,22.7648,9.174-6.303,5.6544-39.8,11.7642-52.42,1.4854-4.6951,3.5575-10.08.9993-14.4014-.3135-3.6881-35.8227-17.9146-36.9313-13.9864C695.2834,1109.2074,694.53,1129.5586,693.7413,1148.7061Z" transform="translate(-687.8569 -958.8722)" style="fill:#ff4e45"/><path d="M696.5539,1081.09c-5.0594,17.675,26.9952,22.1058,37.9413,29.7924,2.84,1.9956,7.5264,1.4291,9.0421-1.9209-.1889-21.936,18.6776-32.97,5.3833-44.9011-6.1909-5.8457-14.2918-9.3436-22.26-12.5546-3.7741-1.5285-8.2853-4.4231-12.3719-4.9705C703.8242,1046.3619,699.5634,1072.7623,696.5539,1081.09Z" transform="translate(-687.8569 -958.8722)" style="fill:#ff4e45"/><path d="M726.4329,1007.3556c-10.24,11.1521-24.8124,29.9557-14.6487,44.8345,7.5342,17.6294,27.2652,22.5384,44.0575,26.3686,1.6447-.5872,3.5669-5.6936,4.4618-7.223,2.9075-4.9352,7.34-8.8342,9.832-14.065,3.609-9.4416-3.8377-18.2255-8.7738-25.8021-5.1292-8.219-8.0269-17.715-11.07-27.0738-.7073-2.3558-.7683-7.38-2.2036-9.0506C744.18,991.1943,730.1332,1004.2834,726.4329,1007.3556Z" transform="translate(-687.8569 -958.8722)" style="fill:#ff4e45"/><path d="M754.39,981.0316c-4.3858,2.344-8.7073,4.9021-11.7221,8.7023-5.0486,7.9127-1.4677,27.6162,4.0341,35.21,5.0776,7.5808,10.1259,18.4856,18.1886,23.2557,3.5216,2.8649,6.4141,7.8331,11.6656,7.2838,3.7608-.3821,6.5444-3.5524,9.5853-5.8662,4.0431-2.7081,8.4162-4.6281,12.4634-7.4775,5.8547-4.1391-3.6348-10.8623-3.9657-16.3194a86.3081,86.3081,0,0,1-2.06-37.3433c-.3235-10.4089,14.6281-20.6412,3.9109-19.478a115.3784,115.3784,0,0,0-42.1,12.0329Z" transform="translate(-687.8569 -958.8722)" style="fill:#ff4e45"/><path d="M818.2872,959.3261c-9.1972-2.3283-20.6627,4.8962-27.34,8.1617-4.9811,3.3165-1.8277,6.6655-7.947,14.9-.8051.8954-7.7637,11.156-5.4239,15.6831.7933,4.1977,2.9938,18.0587,12.66,28.3243,4.417,3.67,7.34,9.9833,9.6924,14.0864,8.0986,12.9774,28.2729,7.8543,42.2668,5.9408,1.7132-.5144,1.8886-1.641,1.4471-3.4228a92.8423,92.8423,0,0,1,1.884-43.8038c.701-6.8409,10.2616-28.342,22.422-30.4521C854.59,958.9328,841.8385,961.8741,818.2872,959.3261Z" transform="translate(-687.8569 -958.8722)" style="fill:#ff4e45"/><path d="M880.9255,960.6449a50.3988,50.3988,0,0,0-22.3127.9557c-12.862,6.6166-20.843,22.6472-24.5754,36.1882,2.93,20.1791,10.93,50.5562,29.4924,61.3724,9.8918,5.1082,21.4273,4.96,32.2863,6.1357,5.2988.23,6.7167.1313,9.6071-4.2385,11.3173-18.76,30.4051-37.1447,27.4358-60.7206C928.8486,976.0939,902.7381,964.5554,880.9255,960.6449Z" transform="translate(-687.8569 -958.8722)" style="fill:#ff4e45"/><path d="M888.5385,1006.22c5.562-10.8685,12.0359-23.8319,24.3416-28.4136,19.2623-3.0283,38.4146-.0468,56.3477,10.5383,4.6441,3.1816,4.5372,4.381,9.3354,7.1428,4.4511,2.5392,6.0145,2.3033,9.9645,5.04,4.5027,3.1775,3.4835,4.1372,7.1592,6.5823,5.3424,3.4857,8.5718,1.9557,12.068,5.6688,4.1311,8.4719,7.13,9.9062,16.0066,15.8328.0728-.0685,18.5219,19.2334,21.4866,21.7985,6.02,6.831,16.13,11.7334,19.049,20.5226-10.6416-6.05-16.0993-8.0538-28.951-13.534-4.1211-1.7511-9.2791-4.3116-10.05-4.547,6.0558,15.0382,68.8561,72.1071,80.8419,94.61-65.0374-22.6845-112.6438-39.2559-112.9265-39.2644,2.7591,2.3467,10.9636,9.4557,12.613,11.0617-29.7911-16.1769-100.5408-30.0489-110.2532-57.577-1.4842-9.4535-6.3436-38.3919-7.4749-40.76A18.0655,18.0655,0,0,1,888.5385,1006.22Z" transform="translate(-687.8569 -958.8722)" style="fill:#ff4e45"/></g><g id="_Layer_copy_10-2" data-name=" Layer copy 10-2"><path d="M737.2373,1113.7947c-5.7108,15.816-6.1484,32.71-8.5565,49.2624-.2524,1.3365-.5129,5.29-3.3395,7.54-2.1071,1.8467-10.3706-.9487-8.29-4.2818,3.1164-9.5272,4.592-39.7606,9.1842-58.3693C731.6818,1115.0424,739.8738,1103.7578,737.2373,1113.7947Z" transform="translate(-687.8569 -958.8722)" style="fill:#ff7664"/><path d="M936.0058,1013.3077c8.1567,3.9947,22.2207,9.1577,31.3026,12.9681,14.6431,9.4249,9.5375,30.9892,18.1931,44.2663,14.6063,17.7008,38.5227,24.575,57.7668,36.2606a263.2666,263.2666,0,0,1,47.1519,34.0312c-35.5863-14.0167-72.8466-24.1221-107.371-40.5121-19.1155-11.2574-29.4173-30.9508-38.8152-50.1218-11.7873-14.9984-31.0989-22.0878-48.1276-29.816-4.5665-1.0571-12.5568-8.23-4.3543-10.4594C914.09,1005.7862,919.0377,1008.27,936.0058,1013.3077Z" transform="translate(-687.8569 -958.8722)" style="fill:#ff3d3d"/><path d="M736.2005,1073.0157a105.8682,105.8682,0,0,1,20.7725-32.0581,14.9813,14.9813,0,0,0,1.3626,1.7388,14.9813,14.9813,0,0,1-1.3626-1.7388c18.5644-22.15,26.3305-21.6331,58.07-30.2284.42.1542,15.3-5.3406,16.5468-2.12,5.7474-5.2743,25.7393-1.9845,39.5625-.5782,1.7733-.1589,14.71.16,17.9492,5.3506,8.01-2.8717,23.7867,1.7769,28.8246,3.6263,9.3737,5.8707,32.6173,11.5928,40.2526,21.1606,5.4071,6.0343,4.2219,12.507,3.0888,21.9524.2957,20.7365,10.563,39.2263,31.3006,43.6-4.4587,2.4126-2.4229,7.6381,2.735,10.1985-30.9593-10.27-75.1338-23.342-100.0134-47.5772-6.6056-1.4721-14.9153-.3781-22.2664-2.9338-11.545-4.2382-25.63-6.36-33.535-16.36-8.5282,1.3-28.4463,2.61-34.9918,1.4938a11.63,11.63,0,0,1-4.644-3.1817,49.941,49.941,0,0,0-14.01,4.8134c-6.4073,3.698-6.9165,6.5125-12.3783,4.65-2.27,2.5492-5.7129,6.4779-7.6271,8.967-6.9887,8.9155-6.0191,16.6557-12.6591,13.98-3.2152,8.1094-8.538,15.7309-8.7417,24.8506-.1664,3.1785-.277,6.8537-2.6838,9.2574-4.7547.4936-11.2533-2.178-15.5843-4.0061C728.508,1095.9171,731.551,1084.1239,736.2005,1073.0157Z" transform="translate(-687.8569 -958.8722)" style="fill:#ff7664"/></g><g id="_Layer_copy_10-3" data-name=" Layer copy 10-3"><path d="M1037.13,1146.2339c-8.2342-6.1193-14.9268-14.1025-18.3639-22.1291-2.996-8.5792-7.9725-24.2217-19.7085-19.7643l-1.007-1.7988c12.9651-5.34,19.4025,11.1244,22.5058,20.8388,2.97,7.0929,8.36,13.6927,15.5406,19.5681,20.757,15.4806,51.5579,26.3113,79.5339,27.5775,23.91-2.3225,25.2289-24.9912,13.8446-39.27-18.8263-20.87-27.1894-48.5694,1.7381-64.8188l.8656,1.7946c-13.556,6.1712-21.0742,23.277-16.5478,37.42,6.0867,18.7178,28.8217,29.5888,21.5361,53.0684C1123.6107,1189.796,1055.2734,1159.2305,1037.13,1146.2339Z" transform="translate(-687.8569 -958.8722)" style="fill:#ff3d3d"/><path d="M886.5245,962.6527c-22.1118-1.0191-19.5509-3.8425-37.8812,10.5327-3.1222,2.665-11.5856,6.5134-11.803,11.3882-3.3546,17.4433-2.2542,34.95,1.5447,52.113a107.764,107.764,0,0,1-7.2711-28.7281l.0644.2142c-.533-8.1514.4206-16.3289,1.4426-24.4336.9237-7.1879,8.582-10.1409,13.6486-13.95C864.63,956.7589,864.8831,957.7569,886.5245,962.6527Z" transform="translate(-687.8569 -958.8722)" style="fill:#d81a16"/><path d="M796.102,1035.98c-11.5215-14.4245-18.4212-29.6295-14.7414-48.4778-.9047-24.009,16.9526-27.3625,36.8537-28.1079-10.49,3.0093-23.2672,4.4642-30.2645,13.6624C782.4467,998.43,783.3494,1013.1005,796.102,1035.98Z" transform="translate(-687.8569 -958.8722)" style="fill:#d81a16"/><path d="M765.6377,976.3472c-15.9061,13.7407-24.5331,13.6226-16.8863,36.9148l2.5469,11.7491c4.4442,9.8255,14.2854,18.9644,21.4579,27.4571-9.5411-7.3613-20.4786-15.3306-25.5184-26.5181l-2.7611-11.6849C736.8467,990.4077,746.2954,986.73,765.6377,976.3472Z" transform="translate(-687.8569 -958.8722)" style="fill:#d81a16"/><path d="M717.6409,1017.42c-4.4907,12.8815-8.554,20.9654-1.0851,33.7116,5.1689,13.95,24.9,18.8593,36.7282,25.4406-15.1646-3.852-34.09-7.3218-40.5358-23.5037C705.2278,1039.6836,709.7147,1029.2779,717.6409,1017.42Z" transform="translate(-687.8569 -958.8722)" style="fill:#d81a16"/><path d="M701.3953,1065.9553c-6.8079,33.4687,14.9176,30.8683,36.0131,46.8541C713.3247,1104.4445,686.1613,1097.3312,701.3953,1065.9553Z" transform="translate(-687.8569 -958.8722)" style="fill:#d81a16"/><path d="M694.8351,1135.8639c3.1579,24.36,2.4091,28.0866,27.0966,35.1963C696.8348,1172.8518,689.5456,1158.8376,694.8351,1135.8639Z" transform="translate(-687.8569 -958.8722)" style="fill:#d81a16"/><path d="M991.6011,990.079" transform="translate(-687.8569 -958.8722)" style="fill:#fc8d5f"/><path d="M707.7631,1237.5564c-35.1444,8.9173-14.06-47.6084-9.1805-64.0153-1.1666,12.9107-3.3913,25.719-5.1919,38.54C690.9434,1225.2363,689.97,1238.79,707.7631,1237.5564Z" transform="translate(-687.8569 -958.8722)" style="fill:#d81a16"/><path d="M728.9327,1239.3252c-33.8717,11.29-26.4594-39.9168-21.0147-58.6413-.1175,10.9616-1.0137,26.64-.0647,37.4209C708.276,1232.2662,713.4482,1241.4061,728.9327,1239.3252Z" transform="translate(-687.8569 -958.8722)" style="fill:#d81a16"/><path d="M1075.3193,1134.8616c-32.2792-13.422-65.2435-25.2375-97.9081-37.61,3.6417,3.576,9.8886,9.9185,13.4533,13.7044-11.4935-3.6-26.3025-7.512-37.5691-11.6a473.088,473.088,0,0,0,52.67,19.9072c-6.268-5.6359-7.8659-6.6036-12.33-11.0532,31.9833,11.503,62.493,22.608,94.1889,31.9093C1083.703,1138.368,1079.509,1136.6854,1075.3193,1134.8616Zm-75.8273-21.4528Z" transform="translate(-687.8569 -958.8722)" style="fill:#d81a16"/><path d="M1041.9248,1073.867a142.822,142.822,0,0,1-17.747-21.4738c14.8525,7.1674,26.676,11.5555,40.1192,18.5391-14.1164-10.47-34.1056-20.9049-51.661-27.5877,6.2388,8.96,12.5933,18.772,19.6244,27.26,9.7859,10.9766,21.4648,20.1709,33.0751,29.2923C1054.2,1086.7577,1046.9376,1078.899,1041.9248,1073.867Z" transform="translate(-687.8569 -958.8722)" style="fill:#d81a16"/><path d="M1031.1964,1042.4881a26.9673,26.9673,0,0,1-4.2267-14.7c-8.3066-3.7164-15.5684-9.2406-17.4037-18.7753-7.5648-.1568-15.7087-4.5757-18.7472-11.7415-8.5368,1.5825-17.3535-3.9885-20.5121-11.8652a30.8986,30.8986,0,0,1-15.8533.23,25.4875,25.4875,0,0,0,14.3546,2.5542c3.0131,8.0138,11.1958,13.495,19.6773,13.75a25.5674,25.5674,0,0,0,18.1259,11.2275c2.0794,8.4809,10.2749,13.538,18.1143,16.3206A21.8215,21.8215,0,0,0,1031.1964,1042.4881Zm-42.707-40.6887Zm17.9889,11.082Z" transform="translate(-687.8569 -958.8722)" style="fill:#d81a16"/><path d="M931.4691,1011.2611c13.4938,2.9528,26.3328,8.857,38.5251,15.0955,7.9978,2.2215,9.88,10.2013,11.7877,17.3329,4.3761,12.0872,2.045,28.4294,14.9956,35.3274,17.2094,11.1292,36.0416,20.0435,53.4694,30.967-21.4585-10.9741-46.433-17.9509-64.1062-34.8242-7.13-12.2407-5.7586-27.2677-11.3129-40.1685-.6817-3.2039-4.0531-4.0128-6.5507-5.6442C956.4531,1022.6242,944.5606,1015.8288,931.4691,1011.2611Z" transform="translate(-687.8569 -958.8722)" style="fill:#d81a16"/><path d="M965.7526,1082.6817c-11.2728-13.2852-4.1393-27.0068-7.689-40.6963-10.1494-8.2993-23.5757-15.8482-35.3226-22.7808,15.2762,4.8457,27.6825,11.02,39.2972,20,1.8679,1.4,1.1616,3.7136.8193,5.6841C962.0548,1057.4567,959.8089,1070.9717,965.7526,1082.6817Z" transform="translate(-687.8569 -958.8722)" style="fill:#d81a16"/><path d="M922.9218,1083.7274c-6.666-4.1621-16.1375-6.7817-20.9834-12.6576a158.81,158.81,0,0,1-8.6758-47.8709.2151.2151,0,0,1-.0085.2827c.6458-5.0033,1.1642-24.5833,5.1132-26.5161,8.15-5.202,16.1845-13.5908,24.5837-17.6534,6.682-1.0723,13.6516.057,20.5393-.7969-22.6616-8.605-27.1028-4.4233-45.8791,8.3113-10.832,4.98-11.0781,15.513-11.5342,25.9692-.7983,12.4267,2.2969,24.7583,7.5468,36.0228,6.69,15.128,3.312,23.94,10.15,29.4515,13.3662,7.1934,27.49,12.7118,41.6911,18.02C938.0959,1091.9657,930.5089,1087.8465,922.9218,1083.7274Z" transform="translate(-687.8569 -958.8722)" style="fill:#d81a16"/><path d="M1106.3434,1147.68c-17.7039-20.5529-38.3041-43.5982-61.2065-55.96-26.8263-13.6116-57.4641-22.81-57.6517-58.8948,3.5026,34.0619,33.3432,41.5388,59.2614,54.7694l-.42-.1541C1071.74,1101.01,1090.3523,1124.278,1106.3434,1147.68Z" transform="translate(-687.8569 -958.8722)" style="fill:#d81a16"/><path d="M1021.6591,1152.56c-18.4651-14.0674.1346-51.4967-28.4206-57.0249l.2737-2.0432c27.7629,6,14.9016,36.1027,25.2758,53.393,5.7631,8.3088,17.7444,9.8012,26.9678,13.6158,25.4345,15.1969,51.7385,29.7123,85.1176,18.3367,57.0093-20.8515,2.5822-83.4694,19.661-122.0762l1.8164.7621c-8.7857,19.2606,1.5521,47.1613,6.0115,68.2354,14.6021,57.8116-52.6125,69.8671-89.5192,50.3635-8.0754-4.346-15.4015-10.0844-23.9265-13.5951C1037.381,1159.0459,1028.2311,1157.4972,1021.6591,1152.56Z" transform="translate(-687.8569 -958.8722)" style="fill:#ff3d3d"/><path d="M845.3305,1045.6677c5.7541,6.257,12.1544,9.8452,17.18,16.7877,3.07,13.18-3.0613,26.5072-5.226,39.6709-1.9516-12.7217,2.6076-25.53,1.4954-37.9438C854.7784,1058.4734,848.3047,1052.6193,845.3305,1045.6677Z" transform="translate(-687.8569 -958.8722)" style="fill:#d81a16"/><path d="M840.3144,1045.446c3.3983,6.9643,9.2465,12.446,13.2958,18.9347,1.592,12.923-5.5972,26.1479-11.87,37.1364,2.3405-11.9558,7.6453-23.681,8.0069-35.6964C846.3187,1059.846,841.2926,1052.9035,840.3144,1045.446Z" transform="translate(-687.8569 -958.8722)" style="fill:#d81a16"/><path d="M800.2454,1041.6937c34.0564,10.7872,16.3339,23.7658,19.6246,48.4125-7.7553-10.2788.65-23.9622-3.9012-34.9227C812.6178,1048.9988,805.1769,1047.077,800.2454,1041.6937Z" transform="translate(-687.8569 -958.8722)" style="fill:#d81a16"/><path d="M795.2553,1042.9584c26.5739,14.9481,14.8641,20.8919,8.5335,43.1976C801.0848,1060.82,818.9744,1068.1491,795.2553,1042.9584Z" transform="translate(-687.8569 -958.8722)" style="fill:#d81a16"/><path d="M773.3768,1050.6477c25.415,4.09,20.3622,12.1437,7.61,29.2335C787.1787,1052.7608,794.0179,1065.2758,773.3768,1050.6477Z" transform="translate(-687.8569 -958.8722)" style="fill:#d81a16"/><path d="M770.9827,1052.6272c7.579,6.7363,11.7244,21.7878-1.4511,24.7163C777.39,1070.0812,771.7771,1061.4939,770.9827,1052.6272Z" transform="translate(-687.8569 -958.8722)" style="fill:#d81a16"/><path d="M753.292,1073.9544c10.0237.726,15.6842,10.0929,12.7177,19.3417-1.7909-1.61-2.2112-4.0988-2.7256-5.8121C761.8264,1081.8514,756.6212,1078.5114,753.292,1073.9544Z" transform="translate(-687.8569 -958.8722)" style="fill:#d81a16"/><path d="M750.3925,1076.2724c6.58,4.6549,12.01,16.9859,5.8649,23.7338C756.2215,1091.7989,751.7736,1084.4494,750.3925,1076.2724Z" transform="translate(-687.8569 -958.8722)" style="fill:#d81a16"/><path d="M873.5636,1047.7906c8.2651,9.7989,14.4022,24.4859,5.7734,36.1817-2.15,3.26-4.95,6.9961-3.8014,11.1337,10.5416,18.781,28.1626,32.6816,43.8521,47.3022-15.8294-7.6213-29.7061-19.004-41.3387-32.0877C851.7978,1082.2948,893.25,1084.7446,873.5636,1047.7906Z" transform="translate(-687.8569 -958.8722)" style="fill:#d81a16"/><path d="M886.2953,1052.56c8.06,11.9151,5.6938,24.7191,4.3773,37.9083,3.1539,5.6835,11.7261,9.9739,16.9743,14.2348,17.39,12.1958,35.1345,24.3315,51.1964,38.3267-20.3107-11.5055-61.5783-31.8478-73.6061-50.6027C885.3708,1076.2307,892.3777,1071.4188,886.2953,1052.56Z" transform="translate(-687.8569 -958.8722)" style="fill:#d81a16"/></g><path d="M1013.6766,1041.678c13.3763-4.9032,20.8085,16.1188,7.2307,20.6622C1007.6723,1067.2477,1000.24,1046.2257,1013.6766,1041.678Z" transform="translate(-687.8569 -958.8722)" style="fill:url(#radial-gradient)"/></g></svg>