<svg id="pizza" xmlns="http://www.w3.org/2000/svg" xmlns:xlink="http://www.w3.org/1999/xlink" viewBox="0 0 409.737 456.867"><defs><radialGradient id="radial-gradient" cx="-1005.2619" cy="-810.4786" r="12.024" gradientTransform="matrix(-0.8084, -0.2024, -0.2429, 0.97, -81.3722, 1569.2362)" gradientUnits="userSpaceOnUse"><stop offset="0" stop-color="#1e564b"/><stop offset="0.2703" stop-color="#12352e"/><stop offset="0.5622" stop-color="#081815"/><stop offset="0.8156" stop-color="#020605"/><stop offset="1"/></radialGradient></defs><g id="shrimp_shell"><g id="_Layer_copy_10" data-name=" Layer copy 10"><path d="M829.0783,1299.3685c12.3837,13.7846,23.2964,12.5957,39.2451,26.9724-7.2456,12.4318-7.2687,11-13.8992,10.9116-1.4912.6527-1.6405,2.2268-2.5811,4.107-2.0833,4.2178-8.8871,8.9727-13.435,9.3674-10.1925-4.3969-16.4676-14.9341-23.358-23.3379-3.3109-5.6186-25.0368-30.4218-20.6285-34.7051C818.624,1275.2845,808.9186,1281.162,829.0783,1299.3685Z" transform="translate(-695.0808 -894.2781)" style="fill:#ff4e45"/><path d="M777.4917,1290.6661c13.1683,15.2248,27.0415,6.5977,37.2206-6.2866,1.6742-10.9588-25.13-31.447-30.09-44.4643-2.354-4.3208-4.8821-9.484-9.7679-10.5507-2.9287-2.2788-37.5817,13.7805-35.5339,17.31C749.83,1262.4731,764.0828,1276.9749,777.4917,1290.6661Z" transform="translate(-695.0808 -894.2781)" style="fill:#ff4e45"/><path d="M730.2041,1242.3161c9.4329,15.76,34.574-4.5045,47.6971-7.231,3.37-.697,6.2357-4.4593,4.8175-7.9291-16.0613-14.8638-11.209-36.226-29.0457-34.7088-8.5279.4938-16.6439,4.0126-24.445,7.5612-3.6825,1.6521-8.8583,2.972-12.0921,5.5877C709.9318,1213.2354,726.2492,1234.4446,730.2041,1242.3161Z" transform="translate(-695.0808 -894.2781)" style="fill:#ff4e45"/><path d="M697.0033,1170.0169c1.0753,15.1266,4.7866,38.6348,22.6012,41.3719,17.954,6.6257,35.0717-4.3937,49.39-14.0269.6874-1.5548-1.7386-6.4542-2.1787-8.18-1.6048-5.52-1.393-11.44-3.5254-16.7565-4.4141-9.0585-15.95-9.6757-24.7558-11.2729-9.5379-1.9208-18.4307-6.29-27.2725-10.5267-2.1546-1.0619-5.8977-4.4661-8.1419-4.5837C697.4338,1146.0437,697.2681,1165.2138,697.0033,1170.0169Z" transform="translate(-695.0808 -894.2781)" style="fill:#ff4e45"/><path d="M697.02,1131.6468c-1.3412,4.7646-2.408,9.6506-1.7282,14.5432,2.3125,9.1134,19.1276,20.0463,28.3594,21.1757,8.9785,1.4547,20.3985,5.3009,29.41,2.7246,4.5374-.618,10.0635.7317,13.2636-3.5389,2.3193-3.02,1.8543-7.1619,2.3443-10.9907.803-4.7838,2.378-9.3357,3.0894-14.16.9609-7.1195-10.437-4.833-14.5864-8.3075a85.7032,85.7032,0,0,1-28.5885-24.12c-7.7606-6.93-4.983-24.8358-11.5152-16.2434a114.842,114.842,0,0,0-20.0482,38.9166Z" transform="translate(-695.0808 -894.2781)" style="fill:#ff4e45"/><path d="M725.0456,1070.2347c-8.0419,5.0823-10.6355,18.3681-12.8046,25.5-.9734,5.9112,3.6362,5.8717,5.372,16.0422.104,1.2486,2.7775,13.255,7.725,14.677,3.5582,2.3385,15.1689,10.2051,29.2721,10.2081,5.6542-.671,12.3394,1.5193,16.87,2.6476,14.962,3.0067,25.07-15.1572,33.3427-26.6976.8193-1.6059.1068-2.4676-1.4585-3.3783a92.8336,92.8336,0,0,1-30.6333-31.3653c-4.4978-5.1593-13.587-26.89-6.8247-37.24C749.5648,1043.4629,743.0277,1054.7866,725.0456,1070.2347Z" transform="translate(-695.0808 -894.2781)" style="fill:#ff4e45"/><path d="M768.862,1025.5349a50.3689,50.3689,0,0,0-14.5577,16.8527c-3.9531,13.8876,2.1719,30.7,9.455,42.6668,16.715,11.6541,44.2908,26.6884,64.9107,20.6068,10.4813-3.6757,18.3133-12.24,26.5746-19.3029,3.8106-3.6728,4.7426-4.7915,3.514-9.9268-5.8793-21.0773-6.195-47.5671-25.3515-61.6126C812.972,1001.1922,786.7267,1012.3309,768.862,1025.5349Z" transform="translate(-695.0808 -894.2781)" style="fill:#ff4e45"/><path d="M807.282,1051.1584c-4.0839-11.5365-9.116-25.1324-4.0019-37.1945a82.3122,82.3122,0,0,1,46.3051-33.7593c5.5415-1.1582,6.3454-.2561,11.6424-1.85,4.9418-1.5327,5.8227-2.7833,10.5218-3.7671,5.41-1.1071,5.4327.3244,9.7256-.73,6.15-1.5452,7.2908-4.8676,12.4387-4.8878,9.042,2.7949,12.0756,1.6213,22.5291-.7547.04-.0914,26.7132-.3262,30.5911-.6892,9.1489.3274,19.5687-3.7036,27.9935.24-11.7407,3.5563-16.8528,6.2163-29.7064,11.7954-4.0782,1.8051-9.5369,3.7653-10.1858,4.2437,15.0995,5.91,99.7159-.7428,124.3,5.9714-61.0822,31.8184-105.8237,55.1164-105.9961,55.259,3.5631-.3929,14.4353-1.49,16.6689-1.5961-32.2268,10.5716-90.8118,52.5691-117.5182,40.7619-7.8694-5.4473-32.28-21.7062-34.7789-22.4831A18.3774,18.3774,0,0,1,807.282,1051.1584Z" transform="translate(-695.0808 -894.2781)" style="fill:#ff4e45"/></g><g id="_Layer_copy_10-2" data-name=" Layer copy 10-2"><path d="M781.9321,1235.1179c7.6037,14.9513,19.5879,26.9193,29.97,40.0376.8145,1.1254,3.46,4.0445,3.1828,7.6394-.1367,2.7823-7.7742,6.95-8.8072,3.1038-4.7588-8.7735-25.85-30.5623-36.1969-46.7268C778.9871,1240.048,776.4119,1226.3357,781.9321,1235.1179Z" transform="translate(-695.0808 -894.2781)" style="fill:#ff7664"/><path d="M845.0052,1021.4773c8.5328-3.2252,21.8716-9.9017,30.86-13.9095,16.9481-4.2061,29.1074,14.29,44.6884,17.1332,22.95,1.5086,44.3285-11.235,65.9845-17.1866a263.3087,263.3087,0,0,1,57.1426-11.0365c-34.551,16.3231-67.5307,36.5116-103.0916,50.42-21.33,6.2048-42.7457.2357-63.1056-6.1416-19.0209-1.74-37.4314,7.5054-54.6886,14.6363-3.9039,2.6475-14.5634,3.511-10.5776-4.0205C824.4757,1032.3,829.7111,1030.3508,845.0052,1021.4773Z" transform="translate(-695.0808 -894.2781)" style="fill:#ff3d3d"/><path d="M751.5405,1207.9049a104.4793,104.4793,0,0,1-9.0583-37.1339,17.244,17.244,0,0,0,2.2037.2089,17.2259,17.2259,0,0,1-2.2037-.2089c-3.3761-28.7177,2.33-33.9578,17.788-62.9863.4362-.2446,6.55-14.8165,9.7921-13.4929.0761-7.8385,16.1963-20.0644,26.6873-29.2027,1.0533-1.393,10.2446-10.5593,16.1664-9.3625,3.437-7.7741,17.5951-16.0566,22.4031-18.523,10.6556-2.8334,30.8155-15.7879,43.0423-14.7558,8.113.1974,11.9918,5.52,18.0676,12.7988,15.3489,14.0021,35.7879,19.2116,53.1673,7.1053-1.29,4.8965,3.9126,6.978,9.28,4.9774-28.7245,15.51-68.5011,38.7067-103.1723,40.2161-5.5974,3.7575-10.468,10.57-17.416,14.1677-10.9754,5.5347-22.1576,14.258-34.9225,13.2066-4.9,7.1272-17.6029,22.504-22.8748,26.5148a10.8743,10.8743,0,0,1-5.5416,1.1582,48.938,48.938,0,0,0-6.0759,13.4957c-1.6713,7.2428-.0423,9.4936-5.063,12.194.25,3.3908.7682,8.6493,1.2717,11.7147,1.6973,11.2467,8.0013,15.7831,1.5192,18.8215,3.7315,7.8819,5.5972,17.0165,12.0774,23.38,2.1672,2.27,4.8426,4.8744,4.87,8.2758-2.8661,3.7623-9.3079,6.7093-13.65,8.6165C762.8931,1229.2152,756.4052,1218.912,751.5405,1207.9049Z" transform="translate(-695.0808 -894.2781)" style="fill:#ff7664"/></g><g id="_Layer_copy_10-3" data-name=" Layer copy 10-3"><path d="M1011.09,1039.0337c-10.0789,1.7762-20.5382,1.1975-28.7378-1.7716-8.3229-3.68-23.12-10.7684-27.9.7855l-1.9505-.5343c5.0208-13.0874,21.36-6.52,30.568-2.1208,7.2445,2.6562,15.6936,3.33,24.86,2.1345,25.4867-4.4766,54.5471-19.51,74.6232-38.9522,14.7263-18.965-.9221-35.5049-19.0794-36.9722-28.0553-.5951-53.9616-13.47-46.0439-45.7226l1.91.6258c-4.7955,14.0618,2.4674,31.2679,15.9332,37.6587,17.8155,8.423,41.293-.6594,53.407,20.66C1102.061,1005.888,1033.0025,1034.7265,1011.09,1039.0337Z" transform="translate(-695.0808 -894.2781)" style="fill:#ff3d3d"/><path d="M774.238,1022.7729c-15.8805,15.3931-16.1923,11.6471-18.32,34.7606-.1646,4.0821-3.1934,12.9113.1945,16.3772,10.3542,14.4181,23.91,25.55,39.0264,34.6387a108.5689,108.5689,0,0,1-25.889-14.3979l.1828.0808c-6.3358-5.2065-11.6481-11.4914-16.8286-17.8271-4.6105-5.6465-1.4777-13.2271-.7893-19.483C754.8782,1034.66,755.7524,1035.1555,774.238,1022.7729Z" transform="translate(-695.0808 -894.2781)" style="fill:#d81a16"/><path d="M765.6412,1138.915c-18.3807-1.4568-34.2206-6.929-45.3893-22.4725-18.0735-15.7534-8.3256-31.1245,4.7532-46.1162-4.9562,9.7265-12.663,19.9864-10.8232,31.4055C728.8953,1123.1066,740.1738,1132.4664,765.6412,1138.915Z" transform="translate(-695.0808 -894.2781)" style="fill:#d81a16"/><path d="M701.3128,1120.2057c-.883,21.04-6.902,27.2349,15.3035,37.5989l10.2773,6.1837c10.2416,3.5439,23.5813,2.5534,34.67,3.1917-11.8658,1.861-25.2229,4.3745-36.7854.356l-10.3581-6.0008C691.8383,1150.7861,695.5565,1141.3869,701.3128,1120.2057Z" transform="translate(-695.0808 -894.2781)" style="fill:#d81a16"/><path d="M698.3492,1183.2951c6.2577,12.06,9.351,20.6441,23.7854,23.8549,13.7489,5.75,30.826-5.1775,43.7027-9.3249-13.2137,8.372-28.7466,19.7639-44.9437,13.3685C705.9913,1207.5571,701.5137,1197.1585,698.3492,1183.2951Z" transform="translate(-695.0808 -894.2781)" style="fill:#d81a16"/><path d="M722.47,1228.4005c19.6813,27.9446,32.7245,10.3131,58.8407,5.8961C758.7224,1246.068,734.9416,1261.03,722.47,1228.4005Z" transform="translate(-695.0808 -894.2781)" style="fill:#d81a16"/><path d="M768.934,1281.0877c19.8883,14.369,22.0978,17.5326,44.2167,4.3508C797.1971,1304.9542,781.9993,1300.75,768.934,1281.0877Z" transform="translate(-695.0808 -894.2781)" style="fill:#d81a16"/><path d="M866.1973,965.1349" transform="translate(-695.0808 -894.2781)" style="fill:#fc8d5f"/><path d="M851.843,1341.36c-17.6154,31.6827-44.3129-22.4339-52.8909-37.16,8.6088,9.71,16.3559,20.1329,24.4881,30.1792C831.3405,1345.1969,840.4576,1355.2412,851.843,1341.36Z" transform="translate(-695.0808 -894.2781)" style="fill:#d81a16"/><path d="M867.6042,1327.2256c-14.9843,32.4087-47.1685-8.0612-57.1011-24.917,7.8839,7.64,18.72,18.9912,27.2311,25.7063C848.251,1337.366,858.4907,1339.9251,867.6042,1327.2256Z" transform="translate(-695.0808 -894.2781)" style="fill:#d81a16"/><path d="M1029.0121,1003.4412c-31.915,14.3177-63.0857,30.1672-94.4606,45.4891,5.0968-.152,14.0416-.3523,19.1894-.3725-10.4669,5.8689-23.4679,14.0069-34.1793,19.4395a467.4224,467.4224,0,0,0,50.6278-24.7412c-8.3855.6662-10.1512,1.1976-16.4562,1.3622,30.2986-15.36,59.2886-29.9872,87.7772-46.6943C1037.3407,999.6885,1033.2221,1001.585,1029.0121,1003.4412Zm-67.6549,40.5022Z" transform="translate(-695.0808 -894.2781)" style="fill:#d81a16"/><path d="M961.65,985.9056a147.1041,147.1041,0,0,1-27.8443-1.8139c15.3913-5.8784,26.722-11.4748,40.9879-16.5387-17.3159,3.06-38.6339,10.4725-55.4828,18.6586,10.7759,1.5934,22.2941,3.7337,33.251,4.423,14.703.3775,29.4214-1.753,43.9569-3.9644C979.51,985.82,968.7571,985.6581,961.65,985.9056Z" transform="translate(-695.0808 -894.2781)" style="fill:#d81a16"/><path d="M931.4981,972.247a26.6076,26.6076,0,0,1-13.63-7.01c-8.4307,3.4888-17.4035,4.9888-25.6175-.1735-5.34,5.4019-14.0667,8.3229-21.4028,5.6262-4.6665,7.34-14.754,9.8776-22.69,6.8065a29.6105,29.6105,0,0,1-10.73,11.6568,25.3315,25.3315,0,0,0,11.72-8.7041c7.9464,3.2946,17.466,1.0524,23.4957-4.92a25.5455,25.5455,0,0,0,20.56-5.4519c7.5931,4.341,16.9192,1.7946,24.263-1.9562A23.5775,23.5775,0,0,0,931.4981,972.247Zm-58.9043,3.1507Zm20.3773-5.5327Z" transform="translate(-695.0808 -894.2781)" style="fill:#d81a16"/><path d="M840.44,1023.395c11.4481-7.8405,24.4951-13.1153,37.442-17.669,7.14-4.2784,14.1841-.18,20.75,3.2695,11.8388,5.1248,22.1189,17.9793,36,13.2918,19.8709-4.882,39.3-12.4741,59.2009-17.6708-22.7178,8.1061-44.9178,21.4709-69.2529,22.8484-13.7643-3.2426-23.7873-14.4527-37.0471-19.331-2.765-1.66-5.6754.2243-8.5983.9C865.8235,1012.9687,852.6725,1016.9948,840.44,1023.395Z" transform="translate(-695.0808 -894.2781)" style="fill:#d81a16"/><path d="M915.8966,1047.3523c-17.4151-.92-22.5406-15.5416-34.86-22.3-12.9931,1.6906-27.727,6.3289-40.7567,10.0806,13.956-7.8251,26.9838-12.5617,41.4683-14.9049,2.2634-.4208,3.5265,1.6684,4.677,3.27C895.0129,1032.7618,903.3194,1043.65,915.8966,1047.3523Z" transform="translate(-695.0808 -894.2781)" style="fill:#d81a16"/><path d="M887.326,1079.3306c-7.56,2.015-16.0489,7.1184-23.5939,6.6254a161.1221,161.1221,0,0,1-40.7874-26.4515.3677.3677,0,0,1,.234.2128c-3.1856-3.9232-17.0924-17.7252-15.811-21.86,1.7889-9.4868,1.2382-21.1014,3.9522-29.96,3.8066-5.6426,9.4233-9.9384,13.5044-15.46-21.84,10.5717-21.8177,16.7044-25.3684,39.0794-3.8058,11.3286,3.6612,18.6752,10.9558,26.1644,8.5366,9.1317,19.5753,15.3241,31.4016,19.2406,15.6166,5.4828,19.7351,13.9733,28.3633,12.7583,14.3679-4.8,28.0725-11.3149,41.7262-17.9617C903.7236,1073.8969,895.5248,1076.6137,887.326,1079.3306Z" transform="translate(-695.0808 -894.2781)" style="fill:#d81a16"/><path d="M1059.6081,989.6337c-27.1426-1.1756-58.0312-2.0394-82.6677,6.2026-28.349,10.2088-55.9758,26.2036-82.3923,1.6228,27.2214,20.7819,53.1212,4.2421,80.5468-5.6094l-.4362.2445C1001.9332,982.8317,1031.5961,985.231,1059.6081,989.6337Z" transform="translate(-695.0808 -894.2781)" style="fill:#d81a16"/><path d="M1005.0685,1054.631c-22.8786,3.7709-37.3628-35.4339-60.9568-18.4213l-1.2824-1.551c23.413-16.1084,36.4782,13.9406,56.1537,18.1566,9.9633,1.4528,19.2692-6.2414,28.3894-10.3,28.4953-8.0666,57.0694-17.3011,71.709-49.4248,23.9041-55.7993-59.036-59.12-75.4284-97.9659l1.7956-.8462c8.0494,19.6312,35.4152,31.1833,53.7641,42.357,52.1438,28.9576,14.7892,86.2453-24.7324,99.7147-8.7263,2.9209-17.8819,4.34-26.3021,8.0522C1020.63,1047.6252,1013.2392,1053.2139,1005.0685,1054.631Z" transform="translate(-695.0808 -894.2781)" style="fill:#ff3d3d"/><path d="M806.4316,1109.7153c8.4684.1357,15.48-2.1218,24.0416-.9607,11.7406,6.8307,17.2195,20.4053,25.3324,30.99-10.5535-7.29-16.7708-19.4416-26.6245-27.0782C822.234,1111.5627,813.4933,1112.2906,806.4316,1109.7153Z" transform="translate(-695.0808 -894.2781)" style="fill:#d81a16"/><path d="M802.8339,1113.1541c7.4063,2.29,15.3961,1.7774,22.9431,3.2551,10.4832,7.6963,15.192,22.0238,18.9417,34.0686-7.0963-9.9162-12.0034-21.8167-20.5081-30.2783C817.4251,1118.73,808.8635,1117.5693,802.8339,1113.1541Z" transform="translate(-695.0808 -894.2781)" style="fill:#d81a16"/><path d="M772.5777,1139.7949c31.188-17.3725,28.4586,4.3816,48.7126,18.9123-12.8267-1.4066-17.01-16.9231-28.0849-21.0543C786.3583,1135.8285,779.8782,1139.8518,772.5777,1139.7949Z" transform="translate(-695.0808 -894.2781)" style="fill:#d81a16"/><path d="M770.0582,1144.2572c29.0719-9.1237,25.37,3.4535,37.3291,23.3919C787.0505,1152.3164,804.7121,1144.2709,770.0582,1144.2572Z" transform="translate(-695.0808 -894.2781)" style="fill:#d81a16"/><path d="M760.6771,1165.476c20.388-15.6964,22.7514-6.4512,26.5186,14.4576C771.687,1156.8951,785.513,1160.4929,760.6771,1165.476Z" transform="translate(-695.0808 -894.2781)" style="fill:#d81a16"/><path d="M760.5105,1168.573c10.1214-.8827,23.9443,6.4312,16.9712,17.9995C777.6031,1175.9112,767.4866,1174.0627,760.5105,1168.573Z" transform="translate(-695.0808 -894.2781)" style="fill:#d81a16"/><path d="M763.8743,1196.0825c7.3784-6.7969,18.0542-4.4825,22.8429,3.9762-2.4059.2484-4.49-1.22-6.0961-2.0391C775.4781,1195.3085,769.46,1196.8027,763.8743,1196.0825Z" transform="translate(-695.0808 -894.2781)" style="fill:#d81a16"/><path d="M763.6479,1199.8092c7.9368-1.63,20.5969,2.874,21.2544,12.021C778.86,1206.2067,770.49,1204.365,763.6479,1199.8092Z" transform="translate(-695.0808 -894.2781)" style="fill:#d81a16"/><path d="M827.3309,1090.6367c12.7949.7366,27.7414,6.2512,30.257,20.5932.9416,3.8057,1.7425,8.424,5.4625,10.3967,20.8856,5.1883,43.1153,1.8958,64.4958.524-16.4465,6.2866-34.2,8.6057-51.6857,8.0916C837.5309,1130.1341,867.7428,1101.615,827.3309,1090.6367Z" transform="translate(-695.0808 -894.2781)" style="fill:#d81a16"/><path d="M839.5337,1084.5513c14.1686,2.328,21.8753,12.8421,30.5861,22.8161,6.2982,1.5818,15.2778-1.6645,22.0381-2.6119,20.8367-4.3457,41.7541-8.8743,63.0114-10.9567-22.2836,6.8769-65.3943,23.0237-87.3033,18.9136C856.0966,1101.4955,857.4,1093.1063,839.5337,1084.5513Z" transform="translate(-695.0808 -894.2781)" style="fill:#d81a16"/></g><path d="M918.9112,984.3947c5.5589-13.0681,25.9545-4.051,20.03,8.8554C933.382,1006.3184,912.9864,997.3013,918.9112,984.3947Z" transform="translate(-695.0808 -894.2781)" style="fill:url(#radial-gradient)"/></g></svg>