<svg id="pizza" xmlns="http://www.w3.org/2000/svg" xmlns:xlink="http://www.w3.org/1999/xlink" viewBox="0 0 263.114 215.0166"><defs><radialGradient id="radial-gradient" cx="1950.965" cy="1047.8495" r="100.8173" gradientTransform="matrix(0.9999, 0.0127, -0.008, 0.6267, -604.1436, -11.1909)" gradientUnits="userSpaceOnUse"><stop offset="0" stop-color="#cc6b31"/><stop offset="0.3215" stop-color="#d4783d"/><stop offset="0.9166" stop-color="#eb9b5b"/><stop offset="1" stop-color="#eea060"/></radialGradient></defs><g id="shroom_dark"><path d="M1468.5616,682.4614c1.2227-40.8351-66.5725-83.772-128.8768-84.4253-59.4391-.6845-131.3068,37.0231-130.9964,81.1292.2036,35.2875,55.8207,73.6874,71.2645,74.2726,1.749.0333,8.9552-.07,12.7611,4.5481,3.42,4.1474,1.26,8.6176,3.8924,9.9884,3.7008,2.0259,9.103-6.0362,23.1208-10.744,10.1009-3.4957,21.2534-2.7519,31.332.3387,18.9285,5.8489,27.2137,16.6585,31.4607,13.4116,2.452-1.7544.2235-5.4332,3.14-9.9918,3.572-5.6269,11.1859-6.4255,15.0418-7.1412C1423.19,748.4263,1469.413,713.4558,1468.5616,682.4614Z" transform="translate(-1207.5553 -587.5811)" style="fill:#793f1a"/><path d="M1292.1964,786.9991c13.4906-18.4745,84.4455-15.41,93.0718-1.7977,5.0068,9.1177-10.8614,12.8126-18.1875,14.7144C1352.8637,804.2767,1301.59,805.36,1292.1964,786.9991Z" transform="translate(-1207.5553 -587.5811)" style="fill:#793f1a"/><path d="M1470.66,672.2609c.9663-44.4935-70.9265-83.9233-131.445-84.68C1207,590.2981,1148.3335,701.38,1287.7478,744.9241c35.5253,6.2332,68.1856,7.0774,102.9273,1.3058C1425.8577,738.0138,1469.98,706.2108,1470.66,672.2609Z" transform="translate(-1207.5553 -587.5811)" style="fill:#b36b31"/><path d="M1215.7474,668.7677c.88-99.4533,246.6375-96.2371,244.9886,3.0815C1459.8564,771.3025,1214.0118,768.1361,1215.7474,668.7677Z" transform="translate(-1207.5553 -587.5811)" style="fill:url(#radial-gradient)"/><path d="M1250.9807,688.5462c.5077-66.3723,175.2534-64.1122,174.0262,2.2121C1424.4993,757.1306,1249.7536,754.8705,1250.9807,688.5462Z" transform="translate(-1207.5553 -587.5811)" style="fill:#a05d30"/><path d="M1265.3652,697.928c-.0538-45.8681,146.2249-43.9778,144.9763,1.8311C1410.3954,745.6271,1264.1165,743.7369,1265.3652,697.928Z" transform="translate(-1207.5553 -587.5811)" style="fill:#933b13"/><g id="Fins_copy" data-name="Fins copy"><path d="M1295.9828,711.478a39.6932,39.6932,0,0,0-6.5941,13.0137l3.675,1.5794a39.7157,39.7157,0,0,1,14.2823-24.9261A42.5,42.5,0,0,0,1295.9828,711.478Z" transform="translate(-1207.5553 -587.5811)" style="fill:#59220c"/><path d="M1292.655,698.8587a45.8063,45.8063,0,0,0-16.6675,17.7622,1.2225,1.2225,0,0,1,.7084.631c.869.3081,1.64,1.249,2.5958,1.5073a42.8582,42.8582,0,0,1,21.1691-23.5772A35.2974,35.2974,0,0,0,1292.655,698.8587Z" transform="translate(-1207.5553 -587.5811)" style="fill:#59220c"/><path d="M1281.9286,700.0613a129.1694,129.1694,0,0,0-11.7468,10.6687,35.8349,35.8349,0,0,1,3.0218,3.4537,53.45,53.45,0,0,1,24.2115-22.0956A53.5125,53.5125,0,0,0,1281.9286,700.0613Z" transform="translate(-1207.5553 -587.5811)" style="fill:#59220c"/><path d="M1279.51,694.6464a46.9789,46.9789,0,0,0-12.553,10.6705,42.6311,42.6311,0,0,0,2.3171,4.4352c4.8635-10.4051,15.3778-17.598,26.3108-20.6491A42.0561,42.0561,0,0,0,1279.51,694.6464Z" transform="translate(-1207.5553 -587.5811)" style="fill:#59220c"/><path d="M1280.5379,688.4051a49.576,49.576,0,0,0-15.16,9.7462,16.4966,16.4966,0,0,0,.8559,5.5052,46.7538,46.7538,0,0,1,32.7643-19.0513A49.0862,49.0862,0,0,0,1280.5379,688.4051Z" transform="translate(-1207.5553 -587.5811)" style="fill:#59220c"/><path d="M1269.6181,686.2591a18.144,18.144,0,0,0-3.1237,6.4073,61.9354,61.9354,0,0,1,32.5962-11.1127A66.9065,66.9065,0,0,0,1269.6181,686.2591Z" transform="translate(-1207.5553 -587.5811)" style="fill:#59220c"/><path d="M1284.5694,677.5553c-4.4407-.1016-9.09.8392-11.5862,4.9256a44.37,44.37,0,0,1,24.6628-3.4418A47.5378,47.5378,0,0,0,1284.5694,677.5553Z" transform="translate(-1207.5553 -587.5811)" style="fill:#59220c"/><path d="M1290.2372,671.7625l-3.4076,1.4961a25.901,25.901,0,0,1,12.359,2.2419A27.7269,27.7269,0,0,0,1290.2372,671.7625Z" transform="translate(-1207.5553 -587.5811)" style="fill:#59220c"/><path d="M1296.9546,669.4031l-3.1234.9869a27.13,27.13,0,0,1,8.254,2.5241A19.3369,19.3369,0,0,0,1296.9546,669.4031Z" transform="translate(-1207.5553 -587.5811)" style="fill:#59220c"/><path d="M1282.1,720.8367c3.976-7.9348,10.2747-14.436,17.221-19.81a42.5607,42.5607,0,0,0-13.2969,21.823Z" transform="translate(-1207.5553 -587.5811)" style="fill:#59220c"/></g><g id="Fins_copy-2" data-name="Fins copy-2"><polygon points="176.685 138.011 170.391 119.023 180.316 136.502 176.685 138.011" style="fill:#59220c"/><path d="M1399.0961,718.3278a69.39,69.39,0,0,0-19.0534-22.73,73.3743,73.3743,0,0,1,15.7344,24.9824Z" transform="translate(-1207.5553 -587.5811)" style="fill:#59220c"/><path d="M1402.1532,715.4184a71.2414,71.2414,0,0,0-22.0551-22.7354,77.7186,77.7186,0,0,1,25.1122,19.8261C1404.53,713.1308,1402.834,714.7967,1402.1532,715.4184Z" transform="translate(-1207.5553 -587.5811)" style="fill:#59220c"/><path d="M1409.4115,705.3676a99.2588,99.2588,0,0,0-28.9755-16.915,99.8138,99.8138,0,0,1,27.433,20.4535Z" transform="translate(-1207.5553 -587.5811)" style="fill:#59220c"/><path d="M1410.3285,699.5359a7.4507,7.4507,0,0,0,.0092-1.3892,50.8319,50.8319,0,0,0-31.1859-12.5316,49.0253,49.0253,0,0,1,30.75,17.3948A18.5874,18.5874,0,0,0,1410.3285,699.5359Z" transform="translate(-1207.5553 -587.5811)" style="fill:#59220c"/><path d="M1405.5986,686.6841c-8.01-4.5092-18.22-5.218-27.3487-5.0485a64.8151,64.8151,0,0,1,30.5735,10.4615A18.9943,18.9943,0,0,0,1405.5986,686.6841Z" transform="translate(-1207.5553 -587.5811)" style="fill:#59220c"/><path d="M1394.1163,677.1345a46.7494,46.7494,0,0,0-15.3534.9773,44.9594,44.9594,0,0,1,20.0615,2.2Z" transform="translate(-1207.5553 -587.5811)" style="fill:#59220c"/><path d="M1384.7037,672.3928a26.9489,26.9489,0,0,0-7.3853,3.2044,25.2565,25.2565,0,0,1,10.005-2.0567Z" transform="translate(-1207.5553 -587.5811)" style="fill:#59220c"/><path d="M1377.33,669.5939h0a28.0923,28.0923,0,0,0-5.0293,2.889,28.4307,28.4307,0,0,1,7.7726-1.9277A13.6778,13.6778,0,0,1,1377.33,669.5939Z" transform="translate(-1207.5553 -587.5811)" style="fill:#59220c"/><path d="M1393.1739,721.2683c-4.1471-7.42-7.9861-15.71-14.7087-21.1892,5.8316,6.3374,8.3939,15.0141,10.744,23.1207C1389.866,722.9379,1392.48,721.6668,1393.1739,721.2683Z" transform="translate(-1207.5553 -587.5811)" style="fill:#59220c"/></g><path d="M1308.7306,666.2136c18.5083-4.5194,38.1712-3.0133,57.0556-.2527,25.8074,31.0746,19.5127,83.3571,20.4339,123.3067-2.5552-.0314-88.1791-1.1282-94.009-1.2391-.6061-26.753,1.2655-54.814,2.9543-75.9658C1296.0848,696.1966,1300.3267,679.69,1308.7306,666.2136Z" transform="translate(-1207.5553 -587.5811)" style="fill:#fcaf7b"/><path d="M1318.8353,664.33c12.6967-1.9884,25.611-.988,37.9681.4477,14.2975,14.852,14.7277,62.58,14.7757,61.86.1838,20.9987.4636,40.5584.6493,62.3633l-65.9886-.8433c.0637-32.2121.8741-46.8624,2.5317-76.3C1308.94,698.5,1313.3831,677.726,1318.8353,664.33Z" transform="translate(-1207.5553 -587.5811)" style="fill:#fadbab"/><g id="Shadows_copy" data-name="Shadows copy"><path d="M1342.8169,787.79c2.44-23.6589-2.1036-47.2277-1.0161-71.0325,1.0594-14.2168,4.5375-28.4391.8962-42.6081,4.6579,13.9311,2.2222,28.3618,2.1054,42.6137.5749,23.8879,6.8671,47.49,5.9291,71.5549Z" transform="translate(-1207.5553 -587.5811)" style="fill:#fcaf7b"/><path d="M1318.21,788.3172c1.5562-30.4169,3.843-61.3688,14.7676-90.1324-8.43,29.2914-7.9517,60.0386-6.7922,90.1641C1324.2627,788.4151,1320.1818,788.3375,1318.21,788.3172Z" transform="translate(-1207.5553 -587.5811)" style="fill:#fcaf7b"/><path d="M1372.11,676.1671c-2.9878,28.1255-12.7,55.3855-9.7955,83.9319-5.5209-28.0815,1.3246-56.1165,1.807-84.1867Z" transform="translate(-1207.5553 -587.5811)" style="fill:#fcaf7b"/><path d="M1297.3846,722.5511c3.5724-21.8878,24.9627-35.4435,29.5037-56.85-1.4656,21.1389-20.2841,36.5617-21.5264,57.6877Z" transform="translate(-1207.5553 -587.5811)" style="fill:#fcaf7b"/></g></g></svg>