<svg id="pizza" xmlns="http://www.w3.org/2000/svg" viewBox="0 0 263.1548 215.0721"><g id="shroom_light"><path d="M1222.0967,572.0025c1.6345-40.8381-65.9093-84.324-128.2328-85.54-131.9339,3.5386-182.3728,106.64-61.1755,154.9252,1.7231.1032,8.95-.0209,12.6614,4.67,3.3182,4.1856,1.1329,8.5986,3.7676,10.0507,3.7322,2.0226,9.1537-6.0382,23.2721-10.479,30.281-10.5523,52.9729,16.2546,62.6793,14.3582,2.3825-1.7955.259-5.3873,3.1949-9.9294,3.701-5.5931,11.2848-6.3516,15.0608-7.0945C1176.0923,637.6081,1222.712,602.9938,1222.0967,572.0025Z" transform="translate(-961.1812 -476.0118)" style="fill:#b59691"/><path d="M1044.9011,675.0473c13.6335-18.3337,84.52-14.6608,93.08-.9978,4.8986,9.19-10.9515,12.7029-18.3048,14.6474C1105.4329,692.7993,1054.1655,693.5054,1044.9011,675.0473Z" transform="translate(-961.1812 -476.0118)" style="fill:#b59691"/><path d="M1224.319,561.8407c1.2807-44.5211-70.18-84.5219-130.7342-85.8289-132.1732,1.528-191.92,112.1731-52.9081,156.9,35.4561,6.5175,68.1878,7.6547,103.0092,2.197C1178.8938,627.1734,1223.4125,595.7585,1224.319,561.8407Z" transform="translate(-961.1812 -476.0118)" style="fill:#ffdad2"/><path d="M1093.4824,482.4647c161.1575,5.3968,157.9338,154.0159-3.2313,152.5243C929.0937,629.5922,932.3174,480.973,1093.4824,482.4647Z" transform="translate(-961.1812 -476.0118)" style="fill:#ffebe6"/><path d="M1092.5676,527.176c114.45,3.7994,112.3347,103.024-2.1359,101.8929C975.9816,625.27,978.0969,526.0449,1092.5676,527.176Z" transform="translate(-961.1812 -476.0118)" style="fill:#ffd4c7"/><path d="M1092.0526,552.14c95.3281,2.9322,93.9128,71.6854-1.5186,70.4764C995.2059,619.6838,996.6212,550.9307,1092.0526,552.14Z" transform="translate(-961.1812 -476.0118)" style="fill:#b59691"/><g id="Fins"><path d="M1049.3512,599.6166a41.1553,41.1553,0,0,0-6.7039,12.998l3.6306,1.5871a39.5641,39.5641,0,0,1,14.56-24.7953A39.2855,39.2855,0,0,0,1049.3512,599.6166Z" transform="translate(-961.1812 -476.0118)" style="fill:#89726f"/><path d="M1046.1138,586.9166a45.6031,45.6031,0,0,0-16.8665,17.6642,1.2348,1.2348,0,0,1,.6852.575c.9494.33,1.5649,1.1964,2.6115,1.5493a43.1586,43.1586,0,0,1,21.318-23.3864A38.1015,38.1015,0,0,0,1046.1138,586.9166Z" transform="translate(-961.1812 -476.0118)" style="fill:#89726f"/><path d="M1035.3563,588.0478a122.13,122.13,0,0,0-11.7977,10.65,35.2213,35.2213,0,0,1,2.9713,3.4859,53.3576,53.3576,0,0,1,24.4622-21.9155A49.711,49.711,0,0,0,1035.3563,588.0478Z" transform="translate(-961.1812 -476.0118)" style="fill:#89726f"/><path d="M1032.97,582.5427a49.1385,49.1385,0,0,0-12.6964,10.5381,40.8817,40.8817,0,0,0,2.3267,4.4629c4.96-10.433,15.4858-17.48,26.4669-20.4084A43.7977,43.7977,0,0,0,1032.97,582.5427Z" transform="translate(-961.1812 -476.0118)" style="fill:#89726f"/><path d="M1034.1426,576.3455a51.4979,51.4979,0,0,0-15.2528,9.6189,16.73,16.73,0,0,0,.8342,5.5457,46.4122,46.4122,0,0,1,32.863-18.7775A50.1823,50.1823,0,0,0,1034.1426,576.3455Z" transform="translate(-961.1812 -476.0118)" style="fill:#89726f"/><path d="M1023.1561,574.1318a20.57,20.57,0,0,0-3.2568,6.3161,61.1086,61.1086,0,0,1,32.7039-10.7959A66.12,66.12,0,0,0,1023.1561,574.1318Z" transform="translate(-961.1812 -476.0118)" style="fill:#89726f"/><path d="M1038.1532,565.5828c-4.4887-.1471-9.1357.799-11.64,4.8272a44.5192,44.5192,0,0,1,24.633-3.2653A48.1109,48.1109,0,0,0,1038.1532,565.5828Z" transform="translate(-961.1812 -476.0118)" style="fill:#89726f"/><path d="M1043.939,559.8709l-3.4524,1.54a26.5039,26.5039,0,0,1,12.2973,2.3211A24.1727,24.1727,0,0,0,1043.939,559.8709Z" transform="translate(-961.1812 -476.0118)" style="fill:#89726f"/><path d="M1050.681,557.4719l-3.1185,1.0028a24.8531,24.8531,0,0,1,8.2252,2.582A25.9571,25.9571,0,0,0,1050.681,557.4719Z" transform="translate(-961.1812 -476.0118)" style="fill:#89726f"/><path d="M1035.331,608.81c4.0409-7.8766,10.4249-14.3709,17.4285-19.5862a42.4029,42.4029,0,0,0-13.525,21.7526Z" transform="translate(-961.1812 -476.0118)" style="fill:#89726f"/></g><g id="Fins-2"><polygon points="176.225 138.474 170.181 119.448 179.993 136.906 176.225 138.474" style="fill:#89726f"/><path d="M1152.37,607.3678a69.4993,69.4993,0,0,0-18.8916-22.9173A73.0013,73.0013,0,0,1,1149.07,609.561Z" transform="translate(-961.1812 -476.0118)" style="fill:#89726f"/><path d="M1155.4437,604.4008a71.2441,71.2441,0,0,0-21.8518-23.0076,77.0965,77.0965,0,0,1,24.9254,20.0407C1157.7245,602.17,1156.1159,603.7389,1155.4437,604.4008Z" transform="translate(-961.1812 -476.0118)" style="fill:#89726f"/><path d="M1162.7613,594.4283a100.0261,100.0261,0,0,0-28.8975-17.1856A100.7656,100.7656,0,0,1,1161.1,597.9383C1161.694,596.7436,1162.288,595.549,1162.7613,594.4283Z" transform="translate(-961.1812 -476.0118)" style="fill:#89726f"/><path d="M1163.7432,588.5968c.019-.51.0147-.9218.0335-1.4314a50.4622,50.4622,0,0,0-31.0828-12.7725,48.7355,48.7355,0,0,1,30.6251,17.701A20.8449,20.8449,0,0,0,1163.7432,588.5968Z" transform="translate(-961.1812 -476.0118)" style="fill:#89726f"/><path d="M1159.1208,575.6688c-7.9549-4.5737-18.15-5.3645-27.3179-5.2929a64.9069,64.9069,0,0,1,30.4545,10.6689A20.36,20.36,0,0,0,1159.1208,575.6688Z" transform="translate(-961.1812 -476.0118)" style="fill:#89726f"/><path d="M1147.7419,566.0616a44.6219,44.6219,0,0,0-15.32.8637,44.24,44.24,0,0,1,20.0842,2.4337Z" transform="translate(-961.1812 -476.0118)" style="fill:#89726f"/><path d="M1138.3047,561.2366a25.4645,25.4645,0,0,0-7.4374,3.1581,27.1814,27.1814,0,0,1,10.0447-2.0211Z" transform="translate(-961.1812 -476.0118)" style="fill:#89726f"/><path d="M1130.9507,558.4515h0a26.2093,26.2093,0,0,0-4.9912,2.8173,26.9793,26.9793,0,0,1,7.8394-1.8284Z" transform="translate(-961.1812 -476.0118)" style="fill:#89726f"/><path d="M1146.4337,610.2677c-4.1541-7.5726-7.78-15.6358-14.5338-21.3621,5.767,6.4158,8.308,15.1452,10.4789,23.2721C1143.0786,611.8309,1145.7339,610.6146,1146.4337,610.2677Z" transform="translate(-961.1812 -476.0118)" style="fill:#89726f"/></g><path d="M1062.51,554.4376c18.63-4.3909,38.1732-2.7035,57.0017.2527,25.528,31.2886,18.7982,83.5555,19.3371,123.4734-2.5478-.0946-88.1625-1.94-94.0086-2-.3776-26.822,1.6824-54.8094,3.6444-75.9317C1049.53,584.2371,1053.9666,567.8186,1062.51,554.4376Z" transform="translate(-961.1812 -476.0118)" style="fill:#e5c6b7"/><path d="M1072.508,552.6109c12.69-1.9033,25.6781-.7536,37.9434.84,22.0758,32.8285,11.8438,91.1472,14.3011,124.3265l-65.9876-1.3715c.3909-32.19,1.3056-46.7771,3.2046-76.2424C1062.3134,586.6744,1066.9481,565.985,1072.508,552.6109Z" transform="translate(-961.1812 -476.0118)" style="fill:#f4dad4"/><g id="Shadows"><path d="M1095.486,676.3373c2.6634-23.6278-1.6587-47.28-.4035-71.0383,1.1368-14.2252,4.7239-28.3792,1.2283-42.58,4.4872,13.9239,1.97,28.3333,1.7318,42.6705.3474,23.9359,6.416,47.5937,5.3088,71.5934Z" transform="translate(-961.1812 -476.0118)" style="fill:#e5c6b7"/><path d="M1070.8461,676.6193c1.8163-30.41,4.2817-61.3854,15.6487-90.028-8.62,29.1961-8.4683,59.9739-7.5467,90.1131Z" transform="translate(-961.1812 -476.0118)" style="fill:#e5c6b7"/><path d="M1125.7063,564.91c-3.1995,28.0236-13.1989,55.2451-10.474,83.8617-5.3147-28.1043,1.79-56.12,2.5158-84.1181Z" transform="translate(-961.1812 -476.0118)" style="fill:#e5c6b7"/><path d="M1050.6305,610.6149c3.7738-21.82,25.2694-35.1913,29.9693-56.5848-1.7443,21.0715-20.5267,36.4273-22.0764,57.5452Z" transform="translate(-961.1812 -476.0118)" style="fill:#e5c6b7"/></g></g></svg>