<svg id="Pizza" xmlns="http://www.w3.org/2000/svg" xmlns:xlink="http://www.w3.org/1999/xlink" viewBox="0 0 395.3416 397.8125"><defs><radialGradient id="radial-gradient" cx="193.9645" cy="192.729" r="167.6894" gradientUnits="userSpaceOnUse"><stop offset="0" stop-color="#ff4b4a"/><stop offset="1" stop-color="#ff4b4a"/></radialGradient><radialGradient id="radial-gradient-2" cx="193.9645" cy="192.729" r="135.8209" gradientUnits="userSpaceOnUse"><stop offset="0" stop-color="#e0161f"/><stop offset="0.5" stop-color="#de161f"/><stop offset="0.6801" stop-color="#d7161f"/><stop offset="0.8085" stop-color="#cc1520"/><stop offset="0.9115" stop-color="#bb1420"/><stop offset="1" stop-color="#a51321"/></radialGradient></defs><g id="Ingreds"><g id="Tomato_Big" data-name="Tomato Big"><circle id="Flesh_B" data-name="Flesh B" cx="197.6708" cy="200.1417" r="197.6708" style="fill:#a51321"/><circle id="Flesh_B-2" data-name="Flesh B" cx="193.9645" cy="192.729" r="192.729" style="fill:#d3161f"/><circle id="Flesh_A" data-name="Flesh A" cx="193.9645" cy="192.729" r="167.6894" style="fill:url(#radial-gradient)"/><circle id="Shadow_B" data-name="Shadow B" cx="193.9645" cy="192.729" r="135.8209" style="fill:url(#radial-gradient-2)"/><ellipse id="Shadow_A" data-name="Shadow A" cx="193.9645" cy="192.729" rx="86.5004" ry="97.1233" style="fill:#b40001"/><path d="M1305.6836,1527.7911c.0277-.1046-.581-.1773-1.7168-.2667C1305.037,1527.7973,1305.6555,1527.8977,1305.6836,1527.7911Z" transform="translate(-1136 -1200)" style="fill:#ff4b4a"/><path d="M1451.3685,1454.9487c-.1757-.0934-1.8187,3.8625-6.07,6.07a16.1534,16.1534,0,0,0-3.0351,1.5175c-2.48,1.8619-2.5194,3.8788-4.5526,4.5527-1.4636.4851-1.8083-.4387-3.0352,0-2.7746.9925-1.6309,5.9382-4.5527,7.5879-1.3643.77-2.9952.4432-6.2574-.2106a32.3936,32.3936,0,0,1-4.3654-1.307c-6.1345-1.9258-8.681.3136-12.14-1.5176-1.4422-.7634-3.2683-2.3533-4.5526-6.07-.9789-.9015-2.6306-2.4691-4.5527-4.5527-4.8866-5.2971-5.67-7.587-9.1054-9.1053-3.1632-1.3981-3.7474-.0083-6.07-1.5175-3.3826-2.1981-2.0459-5.0831-6.07-9.1054-1.9968-1.9958-3.2906-2.23-4.5527-4.5526-1.0913-2.0079-.4417-2.399-1.5175-4.5526a14.9851,14.9851,0,0,0-6.07-6.07c-1.5342-.8218-1.9376-.6635-3.0352-1.5175a7.2187,7.2187,0,0,1-1.1452-1.1109c-.47-.8318-1.0907-1.94-1.89-3.4418-3.1514-5.9222-3.5427-7.5538-3.035-9.1054a4.5138,4.5138,0,0,1,3.035-3.0349c1.3412-.276,2.1543.5721,4.0938,1.4223,3.37,1.4771,7.24,1.6872,7.5506.8723.42-1.1005-4.8378-3.1523-4.4521-5.6151a3.1373,3.1373,0,0,1,2.8075-2.2261c2.1394-.1319,2.9224,2.8062,6.06,3.5153a6.3756,6.3756,0,0,0,2.5665.0322h.0019a4.6664,4.6664,0,0,1,1.1478.1324c.8116.2118,2.004,3.0565,4.0137,3.8861a9.9639,9.9639,0,0,0,2.1722.3923,23.898,23.898,0,0,1,2.5082.57c.9246.2567,1.0326.3407,2.4394.7686.9076.2758,1.7266.5029,1.918.5506,2.6979.6731,7.4782-2.6341,7.0831-3.8407-.319-.9743-4.0514.6595-8.6688-1.3962a12.9938,12.9938,0,0,1-3.9175-2.7716c-1.6244-1.6693-3.78-4.7823-3.0381-5.6766,1.1978-1.4441,8.1973,5.0154,13.5116,2.5054,1.4285-.6748.9413-1.15,3.2758-2.7286,4.3708-2.9552,7.5484-2.2964,8.132-4.1611.51-1.63-1.9-2.5381-1.9354-5.3243-.0441-3.47,3.7832-5.7359,3.3363-6.2933-.3469-.4332-3.04.457-5.08,2.623-3.09,3.2814-1.84,6.3268-3.8711,8.1222-3.5618,3.1482-14.6464-2.2458-14.2907-4.9105.2081-1.56,4.4335-1.0355,9.4609-5.0633,2.2162-1.7755,4.6319-4.4706,4.0575-5.4179-.5106-.8426-2.9727.38-7.9652.8419-2.4781.2294-8.1485.7541-8.7245-.8341-.5255-1.449,3.176-4.69,7.2042-6.2045,3.7449-1.4076,4.9311-.4059,7.8412-1.6445,4.8586-2.0679,7.2795-8.4275,6.1968-9.4855-.695-.6792-4.0015.8076-10.6489,3.87-6.42,2.9579-9.3418,4.6509-12.3122,3.43-.2839-.1168-2.3961-.9847-2.465-2.3319-.1591-3.09,10.5669-5.914,10.325-6.7133-.1895-.6262-6.5615,1.8056-8.4774-.5648-.9123-1.1281-.8063-3.3343.2179-4.7813,3.0219-4.2684,13.6229-1.3427,14.4563-4.14.3073-1.0308-.1792-1.232.2068-3.284.7749-4.12,3.933-5.6495,3.4729-6.4923-.6134-1.1247-7.0516.0982-13.1653,3.5794-4.0459,2.3038-5.088,3.9449-8.132,4.1614-2.7551.196-6.3648-1.0163-7.26-3.3891-.5428-1.44.9-4.2315,3.68-9.7766a12.5089,12.5089,0,0,0,1.2782-4.5112c.1063-1.2378.232-2.7025-.4056-3.039-.8479-.4473-2.2734,1.5045-6.7235,5.6374-3.1307,2.9078-3.9214,3.331-4.6639,4.93a11.3907,11.3907,0,0,0-.7153,5.8868c.3916,9.15-5.132,17.6288-6.3207,17.3521-.4812-.112-.3141-1.723-1.0125-1.8923-.6127-.1481-1.4537.9176-2.3321,2.4654a4.1864,4.1864,0,0,1-2.0263,4.47,3.0977,3.0977,0,0,1-3.0352,0,1.7416,1.7416,0,0,1-.5986-.8505c-.0638-.398-.1277-.7964-.1971-1.1887a4.7709,4.7709,0,0,0-.4007-2.1c-.8783-4.3671-1.8936-8.051-1.8386-9.5185a19.2691,19.2691,0,0,1,.5709-3.65,19.6483,19.6483,0,0,0,2.4642-8.4906c.2654-5.8261-2.6736-7.7873-1.5176-12.14,1.2412-4.6739,4.9458-4.0608,6.07-9.1052.1506-.6761,1.3818-6.5478-1.5175-10.623a5.9233,5.9233,0,0,1-1.5175-3.0351c-.2018-2.1031,1.3834-2.72,1.5175-4.5527.23-3.1477-4.24-4.1318-4.5527-7.5876-.2009-2.2217,1.5929-2.4081,3.0352-6.07,2.1707-5.5119-.32-9.0834,2.0792-11.0737,1.6179-1.3421,2.9873.085,5.5084-1.0667,3.9112-1.7868,3.2-6.4014,6.07-9.1053,5.3077-5,17.0058,2.0513,18.2107,0,1.4428-2.4572-11.88-18.4859-31.8686-22.7633-14.0614-3.0089-25.7771.9529-36.4212,4.5527-17.026,5.7578-29.5885,15.0093-28.8336,16.693.5806,1.2951,8.2066-3.7467,15.2317-.3342,6.1957,3.01,9.3242,12.2662,10.5667,18.5449a24.4312,24.4312,0,0,1,.3537,3.2168c.2833,3.258.2486,5.4784.268,6.1238.1341,4.454,5.2044,6.4026,10.0011,13.4226,2.3458,3.4331,5.2775,7.8313,6.07,13.6581.6061,4.4544-.4867,6.568-1.5176,12.14a96.0615,96.0615,0,0,0-1.1983,20.9636c-3.5076-.896-6.5147-1.2183-7.2136-.3918-1.165,1.3775,8.7643,7.6117,6.8944,9.7793a4.3179,4.3179,0,0,1-3.0352,1.5175c-.4317-.0039-1.1226-.1-3.0349-1.5175-2.1656-1.6045-3.2481-2.4066-3.72-3.5456-1.0031-2.422.3507-4.9683.6846-5.56.4741-3.6579.2718-4.4783,0-4.5527-.2058-.0563-.4353.32-1.5174,1.5176-.921,1.0187-1.3814,1.5264-1.5176,1.5176-1.2178-.08-4.0474-9.795-1.0211-18.4392a11.3939,11.3939,0,0,0,1.0211-5.8417c-.2474-1.7457-.8812-2.38-3.0351-6.07-3.0616-5.2452-3.86-7.5263-4.8013-7.3438-.7081.1372-1.0119,1.5754-1.2689,2.7911a12.5112,12.5112,0,0,0-.084,4.688c1.0537,6.1127,1.6259,9.2027.689,10.4233-1.5441,2.0116-5.35,2.126-7.93,1.14-2.85-1.0893-3.3725-2.962-6.5771-6.3393-4.8427-5.1036-10.65-8.1395-11.5634-7.241-.6845.6735,1.895,3.053,1.4427,7.22-.2252,2.0757-.7491,2.1272-.7538,3.203-.0128,2.9183,10.9811,3.19,12.6366,8.1512.5611,1.6817.0229,3.8239-1.1769,4.6394-2.5207,1.7132-7.9146-2.4606-8.2775-1.9162-.4631.6948,8.9842,6.506,7.9368,9.4172-.4566,1.2694-2.7294,1.4881-3.0351,1.5176-3.1967.3075-5.5026-2.16-10.79-6.8508-5.4749-4.8575-8.2086-7.2388-9.0705-6.79-1.343.699-.869,7.4874,3.1821,10.8743,2.4265,2.0287,3.852,1.4138,7.0283,3.8461,3.4165,2.6163,6.02,6.7913,5.0972,8.0259-1.0116,1.3533-6.2866-.7921-8.5921-1.73-4.6441-1.8891-6.6465-3.7722-7.38-3.1138-.8242.74.7068,4.02,2.3136,6.3612,3.6446,5.3118,7.84,6.0346,7.5877,7.5876-.4115,2.53-12.2223,4.7806-15.1.5586-2.52-3.6968,3.2515-10.239-.0751-14.2164-.8859-1.0592-2.3973-1.9129-3.0351-1.5177-.661.41.0166,1.9121-.0719,4.86a16.92,16.92,0,0,1-.9021,4.9861c-1.0007,2.89-3.4108,2.8639-3.395,4.5352.0183,1.9538,3.25,2.2441,6.5772,6.3391,1.7769,2.1871,1.1727,2.501,2.3445,3.5607,4.3589,3.9421,12.93-.2117,13.6579,1.5175.4509,1.0707-2.5141,3.4258-4.5525,4.5527a13.0019,13.0019,0,0,1-4.5527,1.5176c-5.015.6292-8.1138-2.0159-8.7014-1.1759-.7279,1.04,2.8889,5.5908,5.6662,5.7284.197.01,1.0466.03,1.9952.0289.1524,0,.4058-.0035.9129-.0091,1.608-.0178,1.4766-.0211,1.6446-.02a23.2828,23.2828,0,0,1,2.5656.1818,9.9392,9.9392,0,0,0,2.1926.2538c2.1639-.2114,4.1294-2.5886,4.9676-2.556a4.674,4.674,0,0,1,1.1372.2058l.0016.0005a6.3726,6.3726,0,0,0,2.4658.7129c3.2086.2307,4.8094-2.3544,6.8188-1.6083a3.1369,3.1369,0,0,1,2.0421,2.9442c-.3445,2.4688-5.971,2.9091-5.8882,4.0841.0668.95,3.8533,2.3563,7.4794,1.353,6.1119-1.6911,7.8862-9.154,9.6036-8.6067.8184.2607,1.2526,2.2288,1.1231,4.8074-.4082,1.87-.6243,4.0449-2.6407,5.8154-2.1074,1.85-4.1064,1.4335-5.0707,3.5742-.7788,1.7291.029,3.1032-.9995,4.0135-.9484.84-2.1609.1363-3.9675.2824-2.52.2035-3.0837,1.8071-6.6553,4.27-1.8712,1.29-4.2589,2.4114-9.1054,4.5526a57.6327,57.6327,0,0,1-7.5876,3.0351c-8.4828,2.3061-11.8345-1.2188-15.1756,1.5176-3.1668,2.5935-.7295,6.23-4.5526,10.6229a14.35,14.35,0,0,1-9.1054,4.5527c-4.62.2855-5.1932-2.5093-10.6229-3.0352-5.5226-.535-6.5282,2.2016-12.14,1.5176-1.6308-.1987-7.2593-.8848-9.1054-4.5526-2.0457-4.0648,1.9366-9.0448,0-10.623-1.5618-1.2728-4.9856,1.288-6.07,0-.829-.9841.8245-2.7407.5005-5.3736-.2406-1.954-1.7432-2.2386-3.14-4.5078-3.41-5.5427-1.0505-9.6493-4.9487-12.8819-.8813-.7308-2.1273-1.7639-3.0351-1.5175-5.3258,1.4456-4.9926,61.2186,25.7984,97.1233,29.9043,34.871,79.5379,36.9014,89.3362,37.6721-7.4613-1.9023-36.9382-12.2061-42.2921-19.4615a54.0639,54.0639,0,0,0-7.5878-9.1054c-1.0133-.9559-1.65-1.8406-3.0351-3.0349a15.2484,15.2484,0,0,1-4.5526-7.5879,16.2245,16.2245,0,0,1,0-7.5877c.8852-3.8264,2.2846-5.03,1.5174-6.07-.7062-.9582-2.2477-.3773-3.0349-1.5176-.6481-.9385-.2462-2.2617,0-3.0351,1.0486-3.2951,3.4478-3.3951,4.5525-6.07,1.0033-2.43-.6216-3.0414,0-6.07.5932-2.89,2.66-4.6628,6.07-7.5877,3.7379-3.2061,5.0193-3.1339,7.5877-6.07,1.6736-1.9133,1.7907-2.7911,3.0352-4.5527,2.8256-4,6.67-5.7685,10.6228-7.5877,8.3232-3.83,16.6294-4.4738,18.6367-7.1676a4.6449,4.6449,0,0,1,2.609-1.9377,3.6172,3.6172,0,0,1,1.5175,0,5.06,5.06,0,0,0,2.3716-.3193,2.6516,2.6516,0,0,1,2.1811.3193c1.8224,1.3752,1.33,5.8143-.1464,9-1.3621,2.9391-3.5218,4.6869-3.121,5.0983.6463.6636,3.85-2.4084,5.48-1.3184a2.4681,2.4681,0,0,1,.6592,2.74c-.614,1.57-2.9692,1.1565-4.5135,3.1606a5.0147,5.0147,0,0,0-.8723,1.82l-.0006.0014a3.6654,3.6654,0,0,1-.4743.775c-.42.5093-2.8437.4185-4.1007,1.578-.2139.1974-.0718.0621-.9988,1.42a18.8335,18.8335,0,0,1-1.2364,1.6011c-.489.5746-.5847.624-1.3554,1.4862-.4973.5563-.93,1.0652-1.0275,1.186-1.3731,1.7023-.5953,6.2071.3963,6.3246.8006.0947.87-3.1089,3.8645-5.7229a10.2229,10.2229,0,0,1,3.2739-1.8779c1.7286-.6065,4.6628-1.1142,5.0554-.2892.634,1.3325-6.2908,4.1891-6.2586,8.8112.0085,1.2424.509,1.0522.8626,3.24.6621,4.0964-.8592,6.1454.2779,7.1788.7785.7075,1.553-.1541,4.4392.3813a7.345,7.345,0,0,1,4.35,1.9675c1.2319,1.369,1.2847,3.0757,1.5175,3.0352.22-.0384.3773-1.6017,0-3.0352-1.1484-4.3657-6.44-4.4584-7.1853-7.447-.97-3.8909,6.521-9.66,8.2322-8.571,1.0439.6647-.7283,3.5059.4818,8.4256.5335,2.1688,1.6569,4.7841,2.5228,4.6878.77-.0858.713-2.2468,2.0352-5.9616.6563-1.8439,2.1584-6.0632,3.4822-5.9485,1.2076.1044,2.2955,3.818,2.0427,7.1931-.2489,3.3208-2.0689,4.1053-1.4215,6.1384.5648,1.7737,2.0367,1.7716,3.4679,4.5184.9351,1.7946.9685,3.0653,1.2491,3.0417.5261-.0439.7515-4.5437.7625-8.8785.0141-5.5588-.2269-8.2038,1.6268-9.9191.1772-.164,1.4954-1.3836,2.48-.987,2.2568.9089.7225,9.4961,1.3728,9.5879.51.072.8829-5.2788,3.2081-5.8615a3.4009,3.4009,0,0,1,3.3393,1.7378c2.2,3.838-2.7369,11.1792-1.83,11.6839.3264.1817.6942-.4371,1.45-.4052,2.3354.0978,3.167,6.3409,4.3077,6.2657,1.013-.0667,2.259-5.1154,1.8025-10.5776-.3049-3.6488-1.1307-4.9356-.278-7.1789.7719-2.03,2.8314-4.2048,4.82-4.058,1.207.089,2.7211,2.0423,5.7574,5.8605a9.8359,9.8359,0,0,0,2.7957,2.4047c.848.4856,1.8513,1.06,2.3025.7163.6-.4568-.3212-2.12-1.7972-6.6623-1.0388-3.1961-1.0792-3.9-1.9744-4.9591a8.96,8.96,0,0,0-3.9632-2.4583c-6.6579-2.7487-10.8792-9.495-10.2886-10.2516.239-.3061,1.3333.3462,1.6852-.0963.3084-.3881-.1737-1.3406-.9872-2.4795a5.2948,5.2948,0,0,1-3.6216-2.5083c-.4216-.8733-.3259-1.9286-.1341-4.0393.1692-1.8645.4741-2.3205.698-2.576a3.3526,3.3526,0,0,1,2.4795-.987,12.884,12.884,0,0,1,5.5007,1.0935c1.2214,1.2177,1.5175,1.5173,1.5176,1.5176,1.0615,1.0742,1.2155,1.2572,1.5176,1.5174a8.3854,8.3854,0,0,0,3.035,1.5176,13.9311,13.9311,0,0,1,4.5526,3.0351c2.3225,2.06,5.3606,6.3679,4.5527,10.6229-.4878,2.57-2.0043,3.148-1.5174,4.5527.8827,2.5463,6.1709,1.5217,7.5876,4.5526.8276,1.7705-.7694,2.5634,0,4.5527,1.1175,2.8881,4.8846,2.2491,7.5879,6.07a13.769,13.769,0,0,1,1.5175,3.0351c1.3021,3.2114.8087,4.1923,1.5174,6.07,1.76,4.6625,6.506,3.8871,9.1054,9.1053,1.39,2.79,1.7241,6.6743,0,9.1054-.8606,1.2136-1.4924,1.0187-4.5527,3.035-3.3892,2.2333-6.0313,3.974-6.07,6.07-.04,2.1355,2.6541,2.34,3.035,4.5527.5729,3.3258-4.909,7.17-12.14,12.14-4.7893,3.292-6.18,3.7612-6.07,4.5526.3974,2.8661,19.8872,5.7533,34.9038,1.5175C1436.371,1518.1293,1452.0348,1455.3024,1451.3685,1454.9487Z" transform="translate(-1136 -1200)" style="fill:#ff4b4a"/><path d="M1341.8878,1480.51c.2416.7061.409,1.4065.63,2.1016q.2906,1.0432.531,2.0753c.1608.69.6114,1.354.4309,2.06a3.7448,3.7448,0,0,1-.3732,1.0747,4.0529,4.0529,0,0,1-.8287,1.1319l-.3065.03a3.7258,3.7258,0,0,1-1.0236-.9771,3.614,3.614,0,0,1-.5405-1.0369c-.2827-.7027.0842-1.4485.18-2.1688q.1425-1.083.3909-2.1583c.1931-.7164.3511-1.4283.6015-2.1342Z" transform="translate(-1136 -1200)" style="fill:#ffef85"/><path d="M1358.6365,1468.0885a19.6693,19.6693,0,0,0,1.4612,1.698,12.3594,12.3594,0,0,1,1.4745,1.8594,12.0109,12.0109,0,0,1,.7008,1.1732,2.3063,2.3063,0,0,1,.21,1.3945,3.0044,3.0044,0,0,1-1.6771,2.2974l-.2962-.0845a8.6042,8.6042,0,0,1-.698-1.1932c-.173-.3413-.2992-.6305-.4067-.8949-.2487-.4994.0343-1.0683-.1016-1.7293-.1268-.6334-.3556-1.3375-.5594-2.0873a11.31,11.31,0,0,1-.3985-2.3312Z" transform="translate(-1136 -1200)" style="fill:#ffef85"/><path d="M1325.0361,1480.248c.4438.7786.7985,1.5833,1.1886,2.3835q.5448,1.21.9889,2.4516a6.196,6.196,0,0,1,.7862,2.5089,4.9438,4.9438,0,0,1-.2294,1.3633,4.4454,4.4454,0,0,1-.7116,1.4284l-.3044.0472a4.74,4.74,0,0,1-1.1214-1.12,5.1408,5.1408,0,0,1-.6664-1.1808,6.5615,6.5615,0,0,1-.17-2.5645q-.0612-1.29-.0758-2.6c.0172-.88-.0189-1.7512.0158-2.6442Z" transform="translate(-1136 -1200)" style="fill:#ffef85"/><path d="M1310.4065,1480.197c.063.539.0714,1.0676.1092,1.6017q.0294.7962.0085,1.5823a3.4917,3.4917,0,0,1-.0924,1.5629,3.0023,3.0023,0,0,1-1.2015,1.3489l-.2017-.039a3.0017,3.0017,0,0,1-.6133-1.699c-.0511-.5368.312-.9935.4956-1.485q.273-.7377.5966-1.4656c.2338-.4817.4382-.9692.6973-1.4462Z" transform="translate(-1136 -1200)" style="fill:#ffef85"/><path d="M1284.5577,1501.4329q-.0756,1.5663-.2352,3.116a6.7656,6.7656,0,0,1-.1932,1.5434,4.2967,4.2967,0,0,1-.7477,1.4364l-.1008-.02a4.295,4.295,0,0,1-.16-1.6114,6.7649,6.7649,0,0,1,.3948-1.5045q.4284-1.4979.9409-2.98Z" transform="translate(-1136 -1200)" style="fill:#ffef85"/><path d="M1300.3422,1468.6338a20.4985,20.4985,0,0,0-1.235,1.9895q-.5535.9969-.9974,1.9947c-.3019.6731-.289,1.4714-.7958,1.9912a4.9138,4.9138,0,0,1-.8431.7935,5.6639,5.6639,0,0,1-1.2415.7531l-.295-.0884a3.3824,3.3824,0,0,1-.4826-1.4509,3.8386,3.8386,0,0,1,.0867-1.3439c.1677-.8807.9616-1.4312,1.5349-2.0426a11.8833,11.8833,0,0,1,1.9023-1.6517,12.0348,12.0348,0,0,1,2.1745-1.1853Z" transform="translate(-1136 -1200)" style="fill:#ffef85"/><path d="M1292.7969,1456.6939a15.9672,15.9672,0,0,1,.1017,2.3285,14.7467,14.7467,0,0,1-.2724,2.3268,4.378,4.378,0,0,1-.6379,2.2641,3.6968,3.6968,0,0,1-.9376.8262,3.51,3.51,0,0,1-1.3687.52l-.2636-.1592a4.6966,4.6966,0,0,1-.2722-1.3944,4.2013,4.2013,0,0,1,.07-1.1366c.09-.7147.7348-1.1759,1.1038-1.7892q.5493-.9117,1.0939-1.8676c.39-.6322.7086-1.2981,1.08-1.9731Z" transform="translate(-1136 -1200)" style="fill:#ffef85"/><path d="M1347.8691,1462.0516c.4226.7932.7746,1.6152,1.1366,2.4394q.5164,1.244.9269,2.5294a8.7085,8.7085,0,0,1,.7109,2.6,5.96,5.96,0,0,1-.53,2.7769l-.2039.0248a7.2745,7.2745,0,0,1-1.2914-2.4591,11.5185,11.5185,0,0,1-.2915-2.5947l-.3137-2.6141c-.091-.88-.2313-1.7527-.34-2.6413Z" transform="translate(-1136 -1200)" style="fill:#ffef85"/><path d="M1300.1186,1437.8876c-.75.476-1.4855.9434-2.1727,1.4755q-1.0425.7731-2.0023,1.6124a15.4608,15.4608,0,0,1-1.84,1.7368,8.7983,8.7983,0,0,1-2.4555,1.1807l-.1546-.135a5.2043,5.2043,0,0,1,1.2341-2.57,7.3264,7.3264,0,0,1,2.2661-1.5526,17.446,17.446,0,0,1,2.461-1.1736,18.0079,18.0079,0,0,1,2.588-.7647Z" transform="translate(-1136 -1200)" style="fill:#ffef85"/><path d="M1274.4017,1462.19a38.295,38.295,0,0,0-2.8895,2.8684,32.7862,32.7862,0,0,0-2.56,3.0987c-.7984,1.0743-1.3755,2.2853-2.2269,3.3a23.7926,23.7926,0,0,1-2.8039,3.0235l-.184-.0912a10.1521,10.1521,0,0,1,1.2745-4.0644,14.4287,14.4287,0,0,1,2.69-3.2343,34.1036,34.1036,0,0,1,3.1155-2.7891,28.8861,28.8861,0,0,1,3.4647-2.2793Z" transform="translate(-1136 -1200)" style="fill:#ffef85"/><path d="M1351.6855,1482.9674a25.6106,25.6106,0,0,1,1.1926,3.56,24.6693,24.6693,0,0,1,.635,3.738,9.7835,9.7835,0,0,1,.0582,3.8183,7.918,7.918,0,0,1-.7347,1.8111,5.918,5.918,0,0,1-1.29,1.6321l-.3-.0717a8.4734,8.4734,0,0,1-.5428-1.9434,11.273,11.273,0,0,1-.19-1.8011,18.159,18.159,0,0,1,.5353-3.4689q.2093-1.7556.2972-3.5571c.0848-1.2051.0572-2.4156.0386-3.6513Z" transform="translate(-1136 -1200)" style="fill:#ffef85"/><path d="M1298.2669,1488.3005c.0711.9.06,1.7834.0938,2.6757q.0092,1.33-.0573,2.6455a6.488,6.488,0,0,1-.2083,2.6153,5.12,5.12,0,0,1-.7033,1.1879,4.6276,4.6276,0,0,1-1.1666,1.0954l-.3021-.06a4.6334,4.6334,0,0,1-.6561-1.4594,5.123,5.123,0,0,1-.1929-1.3671,6.49,6.49,0,0,1,.8125-2.4946q.444-1.24.9636-2.4643c.3735-.811.7032-1.6308,1.1146-2.4343Z" transform="translate(-1136 -1200)" style="fill:#ffef85"/><path d="M1348.0041,1444.022a10.84,10.84,0,0,1,1.92.0173,10.5174,10.5174,0,0,1,1.9092.38,4.0431,4.0431,0,0,1,1.8259.7294,3.1037,3.1037,0,0,1,1.0272,1.8553l-.13.1595a4.8408,4.8408,0,0,1-1.97-.2634c-.5581-.1638-.9265-.6632-1.4227-.98q-.7374-.47-1.5331-.8958c-.5266-.3013-1.0853-.5412-1.6589-.7985Z" transform="translate(-1136 -1200)" style="fill:#ffef85"/><path d="M1282.8234,1444.3564c-.493.5844-1.0151,1.1053-1.5,1.672q-.75.815-1.5042,1.59c-.5054.5189-.8237,1.2668-1.5215,1.5144a3.9455,3.9455,0,0,1-1.1181.3,4.227,4.227,0,0,1-1.4222-.0347l-.1977-.2363a4.01,4.01,0,0,1,.8531-2.466c.4508-.6408,1.2983-.7591,1.975-1.0838a21.1787,21.1787,0,0,1,2.09-.8713c.7288-.23,1.4359-.4831,2.1867-.6483Z" transform="translate(-1136 -1200)" style="fill:#ffef85"/><path d="M1285.4255,1472.5475c-.1437,1.0822-.3,2.1341-.348,3.1944-.0751,1.0523-.1108,2.0942-.1206,3.1318a11.8823,11.8823,0,0,1,.0306,3.1095,8.4081,8.4081,0,0,1-.51,1.547,6.3925,6.3925,0,0,1-.94,1.5834l-.308.002a5.409,5.409,0,0,1-.9187-1.6265,6.5368,6.5368,0,0,1-.4-1.6609,8.3273,8.3273,0,0,1,.6034-3.2827,20.4967,20.4967,0,0,1,2.6228-6.1066Z" transform="translate(-1136 -1200)" style="fill:#ffef85"/><path d="M1317.591,1489.3379a13.2642,13.2642,0,0,1,1.3275,2.9037,13.55,13.55,0,0,1,.5917,3.2123,6.54,6.54,0,0,1-.1913,3.3164,4.8927,4.8927,0,0,1-2.3827,2.5542l-.2782-.1326a10.2777,10.2777,0,0,1-.3268-3.1722,14.7229,14.7229,0,0,1,.7182-2.7,20.1622,20.1622,0,0,0,.3432-2.8676,17.815,17.815,0,0,0-.0925-3.0125Z" transform="translate(-1136 -1200)" style="fill:#ffef85"/><path d="M1334.6161,1497.0284a31.2637,31.2637,0,0,1,.5988,3.1973,28.4559,28.4559,0,0,1,.2281,3.2547,8.3452,8.3452,0,0,1-.1448,3.2668,6.6038,6.6038,0,0,1-.7535,1.5111,5.2329,5.2329,0,0,1-1.2593,1.3587l-.2993-.073a6.4016,6.4016,0,0,1-.5626-1.7273,7.8169,7.8169,0,0,1-.1605-1.5964,11.0442,11.0442,0,0,1,.7292-2.999q.3532-1.5117.6835-3.0553c.2474-1.0293.416-2.0717.6324-3.1289Z" transform="translate(-1136 -1200)" style="fill:#ffef85"/><path d="M1368.2123,1486.8821a22.2087,22.2087,0,0,1,1.1443,2.7961,20.84,20.84,0,0,1,.7277,2.9548,6.9537,6.9537,0,0,1,.2937,3.0455,5.6284,5.6284,0,0,1-.5695,1.4808,4.5873,4.5873,0,0,1-1.1037,1.3622l-.3047-.0449a6.1065,6.1065,0,0,1-.7479-1.5309,6.9458,6.9458,0,0,1-.3507-1.4259,9.77,9.77,0,0,1,.3205-2.7826q.1331-1.4064.2086-2.85c.0767-.9679.0633-1.9377.0819-2.9344Z" transform="translate(-1136 -1200)" style="fill:#ffef85"/><path d="M1274.8023,1485.6305a17.0756,17.0756,0,0,0-.6016,1.658q-.258.8236-.4408,1.637a5.6168,5.6168,0,0,1-.302,1.6172,4.6089,4.6089,0,0,1-1.1963,1.4969l-.2044-.0209a2.9166,2.9166,0,0,1-.5935-1.9668,3.75,3.75,0,0,1,.7688-1.7319,9.6954,9.6954,0,0,1,1.0739-1.536,9.9422,9.9422,0,0,1,1.3327-1.2781Z" transform="translate(-1136 -1200)" style="fill:#ffef85"/><path d="M1265.8429,1447.8046c-.4463.51-.9.991-1.312,1.51q-.6346.7562-1.2321,1.5154a6.6582,6.6582,0,0,1-1.1653,1.5244,4.8722,4.8722,0,0,1-1.9344.9279l-.165-.1223a3.6679,3.6679,0,0,1,.5546-2.1588,4.8985,4.8985,0,0,1,1.566-1.35,15.5869,15.5869,0,0,1,1.723-1.1287,16.8329,16.8329,0,0,1,1.848-.8859Z" transform="translate(-1136 -1200)" style="fill:#ffef85"/><path d="M1277.386,1318.6074c-.8375-.41-1.616-.8941-2.42-1.3573q-1.1778-.7254-2.2872-1.5416c-.7382-.5421-1.6743-.9006-2.144-1.7169a5.2793,5.2793,0,0,1-.613-1.3011,4.61,4.61,0,0,1-.244-1.6245l.2267-.2086a4.9858,4.9858,0,0,1,1.5925.3452,5.56,5.56,0,0,1,1.2492.6444c.78.4725,1.111,1.3865,1.6561,2.1q.8163,1.0679,1.6116,2.1742c.5122.7584,1.0655,1.4781,1.5754,2.255Z" transform="translate(-1136 -1200)" style="fill:#ffef85"/><path d="M1303.2725,1311.6145a14.7756,14.7756,0,0,1-1.7148-2.4016c-.492-.84-.9272-1.6712-1.4015-2.3694-.488-.7232-1.2143-1.0606-1.5669-1.7176-.197-.3269-.4084-.6766-.6321-1.0871a9.971,9.971,0,0,1-.6872-1.4654l.1343-.2774a3.9417,3.9417,0,0,1,3.3268.6158,3.1374,3.1374,0,0,1,1.0955,1.3145,13.7,13.7,0,0,1,.5582,1.5652,17.6266,17.6266,0,0,1,.6226,2.9009,23.0145,23.0145,0,0,0,.5347,2.7731Z" transform="translate(-1136 -1200)" style="fill:#ffef85"/><path d="M1263.3158,1334.7562c-.8222-.7608-1.5828-1.5588-2.3873-2.3212q-1.1731-1.1674-2.3058-2.3514a10.6943,10.6943,0,0,1-2.2286-2.3889,7.8589,7.8589,0,0,1-.656-1.5575,6.2259,6.2259,0,0,1-.3108-1.8544l.2379-.1957a5.8333,5.8333,0,0,1,1.7609.6915,7.4147,7.4147,0,0,1,1.3884,1.01,9.7214,9.7214,0,0,1,1.7768,2.8118q.8416,1.4375,1.587,2.9342c.4742,1.0133.9731,2.0049,1.3913,3.0466Z" transform="translate(-1136 -1200)" style="fill:#ffef85"/><path d="M1255.4724,1352.5373c-.6491-.1961-1.27-.44-1.9054-.658q-.94-.3508-1.8527-.746a5.5622,5.5622,0,0,1-1.8-.8342,4.1383,4.1383,0,0,1-1.2218-1.8046l.1053-.1763a4.1375,4.1375,0,0,1,2.1682.2169,5.5652,5.5652,0,0,1,1.59,1.1871q.7818.6155,1.5372,1.2752c.4942.4556,1.0036.8857,1.4847,1.3635Z" transform="translate(-1136 -1200)" style="fill:#ffef85"/><path d="M1253.7862,1368.1653a15.4628,15.4628,0,0,1-6.092,1.1772,6.6214,6.6214,0,0,1-3.1652-.3422,5.4493,5.4493,0,0,1-1.3614-.9287,4.32,4.32,0,0,1-1.0534-1.4482l.13-.279a7.1041,7.1041,0,0,1,1.68-.303,7.8819,7.8819,0,0,1,1.4539-.0022,11.7873,11.7873,0,0,1,2.635.86q1.3542.3713,2.784.619a24.6463,24.6463,0,0,0,2.9364.3439Z" transform="translate(-1136 -1200)" style="fill:#ffef85"/><path d="M1258.4892,1385.3836c-.9211-.2769-1.8054-.5786-2.7156-.797q-1.345-.3641-2.67-.6674a8.861,8.861,0,0,1-2.638-.5568,6.4349,6.4349,0,0,1-1.1848-.7794,5.8214,5.8214,0,0,1-1.1526-1.1931l.0567-.3028a4.4116,4.4116,0,0,1,1.5922-.6133,5.3172,5.3172,0,0,1,1.53-.0746,6.5459,6.5459,0,0,1,2.6824,1.22,20.223,20.223,0,0,1,2.4663,1.5859,21.6271,21.6271,0,0,1,2.1944,1.9155Z" transform="translate(-1136 -1200)" style="fill:#ffef85"/><path d="M1296.9148,1323.1423l-4.5656-4.97a11.9829,11.9829,0,0,1-2.247-2.4363,8.5244,8.5244,0,0,1-.6936-1.5671,6.6947,6.6947,0,0,1-.3816-1.8706l.2314-.2035a5.8118,5.8118,0,0,1,1.81.6814,7.505,7.505,0,0,1,1.4386,1.0348,9.6686,9.6686,0,0,1,1.8349,2.9116q.8507,1.4966,1.5621,3.0662c.45,1.06.912,2.1037,1.2753,3.1955Z" transform="translate(-1136 -1200)" style="fill:#ffef85"/><path d="M1281.2452,1396.9666a30.5448,30.5448,0,0,1-2.9954,1.5123,29.7092,29.7092,0,0,1-3.1591,1.1558,8.8751,8.8751,0,0,1-3.2707.7994,6.9634,6.9634,0,0,1-1.7113-.2856,5.4683,5.4683,0,0,1-1.7129-.8118l-.0166-.3076a6.6238,6.6238,0,0,1,1.5449-1.0395,8.3,8.3,0,0,1,1.5376-.6151,11.75,11.75,0,0,1,3.1879-.1646q1.6016-.0957,3.2236-.2246c1.09-.0607,2.1684-.203,3.2748-.311Z" transform="translate(-1136 -1200)" style="fill:#ffef85"/><path d="M1250.6268,1398.2737a35.9419,35.9419,0,0,1-5.2746-.4292,35.2149,35.2149,0,0,1-5.1955-1.2389,16.8,16.8,0,0,1-4.9829-2.021,13.83,13.83,0,0,1-2.075-1.7588,9.6962,9.6962,0,0,1-1.6619-2.251l.1809-.2493a15.603,15.603,0,0,1,2.6417.6706c.8359.2591,1.6266.5643,2.4011.89,1.5661.603,2.8924,1.68,4.4137,2.4317q2.2725,1.119,4.673,2.0375a50.0365,50.0365,0,0,0,4.9211,1.6127Z" transform="translate(-1136 -1200)" style="fill:#ffef85"/><path d="M1283.2934,1307.1725c-1.1038-1.1039-2.1982-2.1868-3.3771-3.17q-1.7363-1.5-3.5611-2.8392a35.67,35.67,0,0,1-3.7269-2.5193,19.1584,19.1584,0,0,1-1.6324-1.6122,12.4309,12.4309,0,0,1-1.5191-1.9459l.146-.2713a8.2991,8.2991,0,0,1,2.5066.3706,11.6974,11.6974,0,0,1,2.256.9283,14.4392,14.4392,0,0,1,3.5925,3.1949,32.9748,32.9748,0,0,1,3.0755,3.6552,34.006,34.006,0,0,1,2.4895,4.028Z" transform="translate(-1136 -1200)" style="fill:#ffef85"/><path d="M1242.9,1356.9891c-1.0767-.3472-2.1112-.7663-3.1684-1.1467q-1.5649-.6064-3.0906-1.28a10.3672,10.3672,0,0,1-3.0125-1.4121,7.76,7.76,0,0,1-1.1969-1.233,6.0989,6.0989,0,0,1-.9575-1.64l.156-.2656a6.0886,6.0886,0,0,1,1.899.0376,7.7527,7.7527,0,0,1,1.66.445,10.3644,10.3644,0,0,1,2.7,1.9435q1.3308,1.0048,2.6224,2.0763c.8472.7381,1.717,1.4376,2.5445,2.2092Z" transform="translate(-1136 -1200)" style="fill:#ffef85"/><path d="M1315.6859,1341.05c-.0411-.8079-.0584-1.582-.17-2.3485-.0847-.7613-.1949-1.5035-.3259-2.228-.1321-.7332-.59-1.4009-.4544-2.1278a4.8021,4.8021,0,0,1,.2711-1.1422,5.324,5.324,0,0,1,.6445-1.31l.2972-.0809a3.5009,3.5009,0,0,1,1.1823.9621,3.9176,3.9176,0,0,1,.6581,1.1606,4.6568,4.6568,0,0,1-.1343,2.5289,12.91,12.91,0,0,1-.61,2.4309,13.3653,13.3653,0,0,1-1.06,2.2336Z" transform="translate(-1136 -1200)" style="fill:#ffef85"/><path d="M1314.782,1318.6418c-.2765-.8971-.47-1.797-.7077-2.6953q-.3154-1.3491-.5539-2.7007a7.0419,7.0419,0,0,1-.4-2.7059,5.4984,5.4984,0,0,1,.4107-1.3736,4.8371,4.8371,0,0,1,.8828-1.39l.3079-.01a4.8356,4.8356,0,0,1,.9748,1.3267,5.4986,5.4986,0,0,1,.5027,1.3426,7.0417,7.0417,0,0,1-.2159,2.7267q-.1463,1.3647-.37,2.732c-.1766.9124-.3086,1.8233-.5237,2.7371Z" transform="translate(-1136 -1200)" style="fill:#ffef85"/><path d="M1260.7586,1406.7653c-.8113.5088-1.66.923-2.5074,1.3644q-1.2828.6224-2.6156,1.1219a6.884,6.884,0,0,1-2.7026.872,5.4564,5.4564,0,0,1-1.4681-.2052,4.6632,4.6632,0,0,1-1.5235-.7023l-.0447-.3048a5.2319,5.2319,0,0,1,1.2128-1.13,5.91,5.91,0,0,1,1.2595-.6859,7.7961,7.7961,0,0,1,2.7221-.2472q1.37-.1129,2.7618-.2062l2.8146-.1707Z" transform="translate(-1136 -1200)" style="fill:#ffef85"/><path d="M1230.3311,1410.3538a17.4377,17.4377,0,0,1-3.86,1.5309,19.8319,19.8319,0,0,1-4.1787.5684,11.985,11.985,0,0,1-4.2277-.382,9.4215,9.4215,0,0,1-3.68-2.1461l.0775-.19a28.7814,28.7814,0,0,1,4.07.3366c1.2909.1472,2.5231.5952,3.8283.74a18.4838,18.4838,0,0,0,3.9358.0611,19.9857,19.9857,0,0,0,3.9563-.7089Z" transform="translate(-1136 -1200)" style="fill:#ffef85"/><path d="M1237.2635,1378.99a28.4122,28.4122,0,0,1-4.0165-1.1526,28.8043,28.8043,0,0,1-3.8257-1.7646,12.5363,12.5363,0,0,1-3.551-2.254,9.7613,9.7613,0,0,1-1.3081-1.6831,7.4708,7.4708,0,0,1-.93-2.0559l.2065-.2286a8.9441,8.9441,0,0,1,2.1344.64,13.6523,13.6523,0,0,1,1.8288.9279,21.3753,21.3753,0,0,1,3,2.6121c1.0213.846,2.0715,1.6638,3.1637,2.4437,1.08.8054,2.2342,1.5095,3.4086,2.2273Z" transform="translate(-1136 -1200)" style="fill:#ffef85"/><path d="M1251.2516,1336.6687a22.0171,22.0171,0,0,0-2.6579-2.7524,24.2413,24.2413,0,0,0-2.9621-2.2271,35.0039,35.0039,0,0,1-3.185-1.7128,16.7977,16.7977,0,0,1-2.9159-2.6644l.0862-.2958a6.7535,6.7535,0,0,1,4.2581.2309,9.3019,9.3019,0,0,1,3.2941,2.516,17.7159,17.7159,0,0,1,2.5972,3.1543,17.3276,17.3276,0,0,1,1.7547,3.6019Z" transform="translate(-1136 -1200)" style="fill:#ffef85"/><path d="M1258.4276,1314.0888c-1.1411-.7387-2.2463-1.4962-3.4-2.1788q-1.7032-1.0551-3.4156-2.0475a19.2737,19.2737,0,0,1-3.4372-1.9294,12.5314,12.5314,0,0,1-1.4532-1.403,8.944,8.944,0,0,1-1.29-1.7778l.1449-.2719a7.1913,7.1913,0,0,1,2.2277.1726,9.8956,9.8956,0,0,1,1.9978.6641,12.7136,12.7136,0,0,1,3.2482,2.5438,39.3394,39.3394,0,0,1,2.9577,2.8606c.9153,1.0235,1.8223,2.0412,2.6317,3.1432Z" transform="translate(-1136 -1200)" style="fill:#ffef85"/><path d="M1293.5618,1288.1717c-.9078-.8655-1.7845-1.73-2.7291-2.5175q-1.3845-1.2069-2.8072-2.3184a17.52,17.52,0,0,1-2.8829-2.1367,11.2088,11.2088,0,0,1-1.1451-1.4514,8.3458,8.3458,0,0,1-.97-1.8023l.1694-.2573a6.18,6.18,0,0,1,2.0765.3082,8.2975,8.2975,0,0,1,1.7984.8011,10.3785,10.3785,0,0,1,2.67,2.77,28.306,28.306,0,0,1,2.2623,3.0869,29.8514,29.8514,0,0,1,1.81,3.34Z" transform="translate(-1136 -1200)" style="fill:#ffef85"/><path d="M1275.2924,1334.012c-.8074-.7112-1.572-1.458-2.36-2.1858q-1.16-1.1091-2.2807-2.2515a14.3233,14.3233,0,0,1-2.202-2.3173,9.0067,9.0067,0,0,1-1.3347-3.0413l.1576-.1315a9.0058,9.0058,0,0,1,2.7537,1.8567,14.3187,14.3187,0,0,1,1.8866,2.5806q.9237,1.3065,1.8078,2.6463c.5753.9049,1.1734,1.7908,1.729,2.7122Z" transform="translate(-1136 -1200)" style="fill:#ffef85"/><path d="M1215.9659,1377.9052a13.1876,13.1876,0,0,1-2.313.0747,12.9178,12.9178,0,0,1-2.32-.3542,5.4724,5.4724,0,0,1-2.24-.7729,4.0051,4.0051,0,0,1-1.4782-2.004l.12-.1664a6.8556,6.8556,0,0,1,2.319.3553,10.6616,10.6616,0,0,1,1.844,1.0451q.9537.4857,1.9735.8938a20.459,20.459,0,0,0,2.11.7238Z" transform="translate(-1136 -1200)" style="fill:#ffef85"/><path d="M1262.0749,1399.9011a16.0672,16.0672,0,0,1-1.6009.36,1.8491,1.8491,0,0,1-.8.1027,1.56,1.56,0,0,1-.8005-.4622v-.1026a1.56,1.56,0,0,1,.8005-.4621,1.8476,1.8476,0,0,1,.8.1027,16.1228,16.1228,0,0,1,1.6009.3594Z" transform="translate(-1136 -1200)" style="fill:#ffef85"/><path d="M1296.9521,1429.9068a16.0779,16.0779,0,0,1-1.4861.6953,1.8489,1.8489,0,0,1-.76.2724,1.56,1.56,0,0,1-.8811-.2792l-.0222-.1a1.56,1.56,0,0,1,.6824-.6233,1.8476,1.8476,0,0,1,.8039-.072,16.077,16.077,0,0,1,1.6407.0068Z" transform="translate(-1136 -1200)" style="fill:#ffef85"/><path d="M1242.47,1419.8673a22.8146,22.8146,0,0,1-2.01,1.6154,21.3658,21.3658,0,0,1-2.2046,1.3659,7.3706,7.3706,0,0,1-2.3628,1.0942,5.1924,5.1924,0,0,1-2.721-.1957l-.0473-.2a7.2951,7.2951,0,0,1,2.1335-1.5576,11.7443,11.7443,0,0,1,2.365-.6573q1.1822-.3543,2.3663-.7624c.7985-.2565,1.5753-.5729,2.3724-.877Z" transform="translate(-1136 -1200)" style="fill:#ffef85"/><path d="M1222.3586,1396.99c-.6649-.4244-1.3086-.8516-1.9867-1.22q-.9989-.5739-2.0088-1.0808a10.2852,10.2852,0,0,1-2.0315-.954,6.6227,6.6227,0,0,1-1.6752-1.7883l.0766-.1906a4.4805,4.4805,0,0,1,2.55.1585,6.221,6.221,0,0,1,1.9806,1.4,16.9449,16.9449,0,0,1,1.7529,1.6556,17.849,17.849,0,0,1,1.4867,1.8736Z" transform="translate(-1136 -1200)" style="fill:#ffef85"/><path d="M1235.4413,1342.81a25.3507,25.3507,0,0,1-2.5993-.5851,23.5826,23.5826,0,0,1-2.5278-.8812,7.9388,7.9388,0,0,1-2.42-1.1652,5.5349,5.5349,0,0,1-1.6678-2.259l.1221-.1651a7.6324,7.6324,0,0,1,2.6406.6867,12.424,12.424,0,0,1,2.0956,1.4513q1.0656.7107,2.17,1.3921c.73.4713,1.4918.8891,2.2552,1.3317Z" transform="translate(-1136 -1200)" style="fill:#ffef85"/><path d="M1303.4466,1295.7835c-.1212-.7751-.2062-1.5415-.34-2.3034l-.3505-2.2678a8.6144,8.6144,0,0,1-.3589-2.2421,5.8,5.8,0,0,1,.65-2.3718l.2033-.0292a4.7938,4.7938,0,0,1,1.1917,2.21,6.757,6.757,0,0,1-.0445,2.3614q-.0773,1.1785-.2641,2.3454c-.143.7763-.2754,1.5478-.4819,2.3085Z" transform="translate(-1136 -1200)" style="fill:#ffef85"/><path d="M1398.5122,1339.7754c.7133-.5958,1.4515-1.1243,2.1613-1.7018q1.0824-.8286,2.1726-1.6139c.7285-.5249,1.31-1.3038,2.1936-1.53a5.5559,5.5559,0,0,1,1.3823-.2548,4.9888,4.9888,0,0,1,1.6242.1311l.1565.2652a4.61,4.61,0,0,1-.7043,1.4843,5.2739,5.2739,0,0,1-.9637,1.0676,6.6567,6.6567,0,0,1-2.5495,1.022q-1.2975.4593-2.6358.8126c-.9035.21-1.789.4485-2.7093.5979Z" transform="translate(-1136 -1200)" style="fill:#ffef85"/><path d="M1376.7536,1324.0581a23.0376,23.0376,0,0,0,1.3154-2.4993,17.6186,17.6186,0,0,1,1.4364-2.5959,13.688,13.688,0,0,1,.988-1.3363,3.1374,3.1374,0,0,1,1.4292-.9408,3.9424,3.9424,0,0,1,3.3627.3749l.048.3042a9.9656,9.9656,0,0,1-1.0823,1.2035c-.3332.328-.6368.6015-.92.8573-.5278.5267-1.3206.6391-1.9973,1.19-.6563.5307-1.3136,1.2-2.028,1.8617a14.7854,14.7854,0,0,1-2.3371,1.8015Z" transform="translate(-1136 -1200)" style="fill:#ffef85"/><path d="M1407.2348,1359.3481c.7021-.8759,1.467-1.68,2.2143-2.5127q1.1468-1.2162,2.3693-2.3484a9.7164,9.7164,0,0,1,2.5154-2.1763,7.413,7.413,0,0,1,1.6215-.5647,5.83,5.83,0,0,1,1.8858-.1516l.171.2562a6.2259,6.2259,0,0,1-.835,1.6847,7.8427,7.8427,0,0,1-1.0791,1.3006,10.6923,10.6923,0,0,1-2.8251,1.6406q-1.4277.8054-2.8882,1.5824c-.991.4967-1.95,1.04-2.9576,1.53Z" transform="translate(-1136 -1200)" style="fill:#ffef85"/><path d="M1406.6968,1375.6453c.5988-.3179,1.211-.5819,1.8161-.8748q.9141-.4125,1.8408-.775a5.5633,5.5633,0,0,1,1.8656-.6754,4.1373,4.1373,0,0,1,2.1381.4207l.0495.1993a4.1378,4.1378,0,0,1-1.6921,1.373,5.565,5.565,0,0,1-1.9647.2768q-.9885.1136-1.9894.1771c-.6718.0246-1.3364.0781-2.0143.0776Z" transform="translate(-1136 -1200)" style="fill:#ffef85"/><path d="M1407.0044,1394.05a24.6338,24.6338,0,0,0,2.91.5217c.9592.12,1.9081.19,2.8439.2144a11.7857,11.7857,0,0,1,2.771-.0592,7.879,7.879,0,0,1,1.391.4235,7.0975,7.0975,0,0,1,1.52.7769l.044.3048a4.3194,4.3194,0,0,1-1.4278,1.0808,5.4465,5.4465,0,0,1-1.572.4942,6.62,6.62,0,0,1-3.1287-.59,15.4646,15.4646,0,0,1-5.4895-2.8918Z" transform="translate(-1136 -1200)" style="fill:#ffef85"/><path d="M1397.2979,1409.1447a21.6212,21.6212,0,0,1,2.6552-1.1975,20.2136,20.2136,0,0,1,2.82-.8031,6.545,6.545,0,0,1,2.9208-.391,5.3111,5.3111,0,0,1,1.4433.515,4.41,4.41,0,0,1,1.3462,1.0484l-.0336.3062a5.8219,5.8219,0,0,1-1.4488.8079,6.4411,6.4411,0,0,1-1.36.4027,8.8705,8.8705,0,0,1-2.6863-.2315q-1.3569-.0925-2.7491-.1351c-.9344-.0547-1.8682-.0222-2.83-.0241Z" transform="translate(-1136 -1200)" style="fill:#ffef85"/><path d="M1378.4274,1338.51c.6641-.94,1.4087-1.8051,2.1467-2.689q1.1342-1.2947,2.3835-2.4818a9.6688,9.6688,0,0,1,2.6-2.2551,7.4984,7.4984,0,0,1,1.6768-.5734,5.8053,5.8053,0,0,1,1.93-.1276l.1624.2617a6.6855,6.6855,0,0,1-.9072,1.68,8.5182,8.5182,0,0,1-1.1179,1.299,11.9849,11.9849,0,0,1-2.8565,1.6806l-5.81,3.4334Z" transform="translate(-1136 -1200)" style="fill:#ffef85"/><path d="M1371.6935,1410.7029c.9751.5818,1.9214,1.16,2.918,1.6395q1.4685.7518,2.9545,1.3785a14.7329,14.7329,0,0,1,2.9867,1.14,9.499,9.499,0,0,1,1.32,1.0063,7.6,7.6,0,0,1,1.2705,1.3878l-.0861.2958a5.2418,5.2418,0,0,1-1.9132.357,6.8272,6.8272,0,0,1-1.797-.2122,8.4056,8.4056,0,0,1-3.0048-1.8363,21.4165,21.4165,0,0,1-2.6468-2.2794,22.1958,22.1958,0,0,1-2.213-2.6534Z" transform="translate(-1136 -1200)" style="fill:#ffef85"/><path d="M1401.22,1422.193a50.0924,50.0924,0,0,0,5.1352.6689q2.559.2093,5.0947.1786c1.6967-.0216,3.3579-.4208,5.031-.2888.8394.04,1.6844.1059,2.55.2329a15.6182,15.6182,0,0,1,2.6724.535l.0556.3031a9.6957,9.6957,0,0,1-2.4706,1.3133,13.8115,13.8115,0,0,1-2.6309.6911,16.8011,16.8011,0,0,1-5.3672-.3272,35.2327,35.2327,0,0,1-5.2214-1.1246,35.9392,35.9392,0,0,1-4.9433-1.8891Z" transform="translate(-1136 -1200)" style="fill:#ffef85"/><path d="M1396.1134,1327.1542a33.9905,33.9905,0,0,1,3.55-3.1337,32.9654,32.9654,0,0,1,4.0029-2.6072,14.4364,14.4364,0,0,1,4.3643-2.0167,11.6953,11.6953,0,0,1,2.428-.2348,8.301,8.301,0,0,1,2.5065.3717l.061.3018a12.4111,12.4111,0,0,1-2.0177,1.4223,19.1813,19.1813,0,0,1-2.03,1.07,35.6893,35.6893,0,0,1-4.2969,1.3312q-2.1327.7535-4.2312,1.6856c-1.4131.599-2.7742,1.3184-4.1507,2.0551Z" transform="translate(-1136 -1200)" style="fill:#ffef85"/><path d="M1420.4522,1386.4843c1.0156-.4986,2.0508-.9161,3.0755-1.377q1.5466-.6513,3.1115-1.2273a10.363,10.363,0,0,1,3.1478-1.0776,7.7506,7.7506,0,0,1,1.7174.055,6.0923,6.0923,0,0,1,1.8284.5143l.0724.3a6.09,6.09,0,0,1-1.3919,1.2923,7.7422,7.7422,0,0,1-1.5026.8332,10.3618,10.3618,0,0,1-3.2926.4787q-1.6551.2022-3.3286.3291c-1.1222.0578-2.2338.159-3.3649.1792Z" transform="translate(-1136 -1200)" style="fill:#ffef85"/><path d="M1355.1722,1350.4257a13.3487,13.3487,0,0,1-.3671-2.4449,12.901,12.901,0,0,1,.12-2.5036,4.6537,4.6537,0,0,1,.6044-2.4592,3.9127,3.9127,0,0,1,.9661-.92,3.5,3.5,0,0,1,1.41-.5782l.2611.1636a5.3223,5.3223,0,0,1,.237,1.4406,4.7983,4.7983,0,0,1-.0714,1.1718c-.081.7349-.7125,1.2413-1.0515,1.9048q-.5031.9831-.9575,2.0379c-.3292.7012-.57,1.4371-.8436,2.1984Z" transform="translate(-1136 -1200)" style="fill:#ffef85"/><path d="M1363.4672,1322.2455c.1459-.9273.3679-1.8206.549-2.7321q.31-1.35.69-2.6692a7.0435,7.0435,0,0,1,.83-2.6061,5.4894,5.4894,0,0,1,.9727-1.0533,4.8359,4.8359,0,0,1,1.4038-.86l.281.126a4.83,4.83,0,0,1,.2925,1.62,5.4993,5.4993,0,0,1-.1387,1.427,7.0383,7.0383,0,0,1-1.3925,2.3542q-.7313,1.1615-1.533,2.2914c-.56.7418-1.0786,1.502-1.6737,2.2282Z" transform="translate(-1136 -1200)" style="fill:#ffef85"/><path d="M1383.2535,1433.33l1.979,2.0086q.9733,1.0006,1.9162,2c.6306.6682,1.4943,1.1482,1.8592,2.0034a5.9107,5.9107,0,0,1,.4782,1.3521,5.2384,5.2384,0,0,1,.1464,1.6513l-.2369.1969a4.6661,4.6661,0,0,1-1.6027-.4961,5.4637,5.4637,0,0,1-1.229-.8288,6.8843,6.8843,0,0,1-1.4269-2.4553q-.6568-1.2612-1.1954-2.5829c-.335-.8947-.6893-1.77-.9526-2.6908Z" transform="translate(-1136 -1200)" style="fill:#ffef85"/><path d="M1404.832,1435.5185a30.3467,30.3467,0,0,0,4.1949,2.3064,32.4906,32.4906,0,0,0,4.3861,1.6252c1.4964.4335,3.0632.4639,4.5074.9958.7323.2454,1.468.5081,2.2116.8356a14.2851,14.2851,0,0,1,2.2759,1.15l-.0184.3075a8.4651,8.4651,0,0,1-2.5374.6907,11.4243,11.4243,0,0,1-2.5563.0324,13.6448,13.6448,0,0,1-4.7665-1.7119,23.7625,23.7625,0,0,1-7.9006-6.0006Z" transform="translate(-1136 -1200)" style="fill:#ffef85"/><path d="M1419.5208,1409.167c1.3321-.3469,2.64-.6862,3.9076-1.1441,1.2714-.43,2.5135-.9083,3.7363-1.4221a21.3706,21.3706,0,0,1,3.628-1.6307,13.6436,13.6436,0,0,1,2.0192-.358,8.9294,8.9294,0,0,1,2.2282.0056l.1315.2785a7.471,7.471,0,0,1-1.4855,1.6985,9.7533,9.7533,0,0,1-1.74,1.2317,12.5357,12.5357,0,0,1-4.0518,1.1284,28.8338,28.8338,0,0,1-4.1728.58,28.4034,28.4034,0,0,1-4.1783-.0608Z" transform="translate(-1136 -1200)" style="fill:#ffef85"/><path d="M1418.205,1364.694a17.3249,17.3249,0,0,1,2.7231-2.9388,17.7164,17.7164,0,0,1,3.4-2.2664,9.3054,9.3054,0,0,1,3.8819-1.4536,6.7538,6.7538,0,0,1,4.1425,1.0131l-.0034.308a16.8083,16.8083,0,0,1-3.5628,1.7052,35.0274,35.0274,0,0,1-3.5448.7162,24.2515,24.2515,0,0,0-3.48,1.2733,22,22,0,0,0-3.3414,1.8642Z" transform="translate(-1136 -1200)" style="fill:#ffef85"/><path d="M1417.957,1340.9488c1.094-.82,2.2571-1.5313,3.43-2.2457a39.3,39.3,0,0,1,3.66-1.8807,12.7068,12.7068,0,0,1,3.8461-1.4934,9.8784,9.8784,0,0,1,2.1045-.0568,7.1906,7.1906,0,0,1,2.1822.48l.06.3021a8.9435,8.9435,0,0,1-1.75,1.3278,12.5479,12.5479,0,0,1-1.7974.9216,19.2585,19.2585,0,0,1-3.8489.8506q-1.9266.4545-3.8624.97c-1.3021.319-2.5793.7237-3.8857,1.1Z" transform="translate(-1136 -1200)" style="fill:#ffef85"/><path d="M1385.7176,1301.4434a29.91,29.91,0,0,1,2.7-2.6728,28.3408,28.3408,0,0,1,3.06-2.2988,10.3818,10.3818,0,0,1,3.3584-1.8775,8.2939,8.2939,0,0,1,1.9535-.2455,6.179,6.179,0,0,1,2.0766.3067l.0877.2953a8.3352,8.3352,0,0,1-1.4508,1.4439,11.2139,11.2139,0,0,1-1.5165,1.0573,17.53,17.53,0,0,1-3.3784,1.21q-1.6834.6526-3.3586,1.4054c-1.1324.48-2.222,1.0533-3.3415,1.6186Z" transform="translate(-1136 -1200)" style="fill:#ffef85"/><path d="M1396.0673,1355.2343c.7987-.7209,1.6278-1.3954,2.4407-2.0948q1.2343-1.0258,2.4971-2.009a14.32,14.32,0,0,1,2.5533-1.9231,9.0087,9.0087,0,0,1,3.1736-.9791l.1128.1716a9.004,9.004,0,0,1-2.1587,2.5239,14.3143,14.3143,0,0,1-2.779,1.58q-1.4034.7686-2.8353,1.494c-.9647.4683-1.913.9615-2.8917,1.4082Z" transform="translate(-1136 -1200)" style="fill:#ffef85"/><path d="M1440.2861,1414.4067a20.39,20.39,0,0,0,2.2293-.0814q1.0938-.0935,2.1478-.2834a10.6539,10.6539,0,0,1,2.0678-.4659,6.8525,6.8525,0,0,1,2.3224.3318l.0669.1942a4.0028,4.0028,0,0,1-1.9955,1.49,5.4721,5.4721,0,0,1-2.3682.0906,12.9356,12.9356,0,0,1-2.3225-.3331,13.1955,13.1955,0,0,1-2.1923-.7418Z" transform="translate(-1136 -1200)" style="fill:#ffef85"/><path d="M1389.7671,1422.2a16.1286,16.1286,0,0,1,1.6363.12,1.8482,1.8482,0,0,1,.7959.1337,1.561,1.561,0,0,1,.6322.6741l-.03.0983a1.56,1.56,0,0,1-.9.21,1.8487,1.8487,0,0,1-.7364-.33,16.097,16.097,0,0,1-1.4281-.8079Z" transform="translate(-1136 -1200)" style="fill:#ffef85"/><path d="M1407.51,1452.5625c.8057.2808,1.5914.5744,2.397.8075q1.1957.374,2.3875.6929a11.7382,11.7382,0,0,1,2.3832.5881,7.2967,7.2967,0,0,1,2.1782,1.4945l-.0415.2012a5.1916,5.1916,0,0,1-2.7142.275,7.3706,7.3706,0,0,1-2.3938-1.0247,21.3521,21.3521,0,0,1-2.2434-1.3012,22.78,22.78,0,0,1-2.0566-1.5559Z" transform="translate(-1136 -1200)" style="fill:#ffef85"/><path d="M1428.4975,1430.8394a17.85,17.85,0,0,1,1.9659-1.3626,16.968,16.968,0,0,1,2.1574-1.0766,6.2237,6.2237,0,0,1,2.3014-.7659,4.48,4.48,0,0,1,2.486.5871l.0181.2046a6.6179,6.6179,0,0,1-2.1215,1.226,10.2756,10.2756,0,0,1-2.2209.3246q-1.1135.1935-2.2357.4522c-.7558.1565-1.4958.3788-2.2551.5923Z" transform="translate(-1136 -1200)" style="fill:#ffef85"/><path d="M1431.7626,1375.1689c.8591-.2026,1.7091-.3817,2.5443-.6211q1.2552-.332,2.48-.7036a12.4214,12.4214,0,0,1,2.4263-.7818,7.6323,7.6323,0,0,1,2.7262.1079l.0692.1934a5.5358,5.5358,0,0,1-2.2509,1.6789,7.938,7.938,0,0,1-2.6542.4137,23.5682,23.5682,0,0,1-2.6747.1109,25.3536,25.3536,0,0,1-2.6574-.1931Z" transform="translate(-1136 -1200)" style="fill:#ffef85"/><path d="M1367.9715,1296.9528c.0227-.788.12-1.5648.2077-2.3492q.1589-1.17.427-2.3213a6.7564,6.7564,0,0,1,.6415-2.2729,4.7943,4.7943,0,0,1,1.7812-1.77l.186.0869a5.8013,5.8013,0,0,1-.0653,2.4583,8.62,8.62,0,0,1-.9931,2.0419l-.9927,2.069c-.3487.69-.6522,1.3994-.9926,2.1061Z" transform="translate(-1136 -1200)" style="fill:#ffef85"/><g style="opacity:0.8200000000000001"><path d="M1332.4984,1366.4679c2.0807-4.7454,1.9488-10.1261,1.78-15.3049a49.0427,49.0427,0,0,1,1.7378,12.2525c.0172,1.2013-.01,2.4056.1037,3.6015a15.39,15.39,0,0,0,.8238,3.71,2.8241,2.8241,0,0,0,.83,1.3512,1.1032,1.1032,0,0,0,1.4584-.0314,49.36,49.36,0,0,1,1.694,6.0446,14.024,14.024,0,0,1,8.9592-.32c-1.5756.614-3.3264,1.4021-3.885,2.9983a9.1189,9.1189,0,0,0-.2991,1.9387c-.2753,2.2761-1.487,4.497-1.038,6.7456.2,1.0015.7188,1.9106,1.0005,2.8924a2.97,2.97,0,0,1-.4411,2.8882,5.7033,5.7033,0,0,1-2.1207,1.0119c-.7355.29-1.4932.8884-1.4466,1.6776.0528.8937,1.0536,1.3741,1.5772,2.1a7.38,7.38,0,0,1,.745,1.8883,5.38,5.38,0,0,0,2.65,2.96c.6275.3093,1.4074.594,1.5722,1.2739a2.4556,2.4556,0,0,1-.0814,1.0216,9.9728,9.9728,0,0,0,.7408,4.8785l3.3253,10.0913c-3.28-1.7009-4.3285-5.7913-6.4391-8.8235a4.8412,4.8412,0,0,0-2.4067-2.0274,2.1791,2.1791,0,0,0-2.6778,1.1216,1.6564,1.6564,0,0,0,.0386,1.1777c-.7566.0424-1.0787-.9676-1.0013-1.7215s.2509-1.6538-.3175-2.155a9.1385,9.1385,0,0,0-7.6817,5.37,3.769,3.769,0,0,1-.4989-1.3482c-.1905-1.2014.3621-1.7335,0-2.4709-.3728-.7592-1.2261-.74-1.2354-1.2355-.0083-.4367.6542-.5043,1.2354-1.2354.804-1.0115.8569-2.5437.514-2.7062-.0759-.0359-.2188-.0276-.514.2353l-1.2318.7464c-.1965-.4182-.843-.31-1.1965-.0118s-.6393.73-1.0921.8224c-.6828.1393-1.3025-.5806-1.9947-.4994-.6254.0735-.9719.7334-1.4127,1.1832a5.0658,5.0658,0,0,1-3.3192,1.09q-2.6659.2133-5.332.427a6.6864,6.6864,0,0,1-1.1013.0049,13.6278,13.6278,0,0,1-2.2449-.3779c-2.54-.6109-3.2336-.548-3.3127-.9139-.0457-.211.11-.58,1.2354-1.2355a7.1331,7.1331,0,0,0,2.4709,0c.7865-.14,2.1815-.3893,2.4709-1.2354.1888-.5521-.2416-.924,0-1.2354.3266-.421,1.2132.13,2.4709,0a3.4965,3.4965,0,0,0,2.4708-1.2355c.7922-1.325-.6819-3.1023,0-3.7063.581-.5146,1.91.5452,2.4709,0,.4389-.427-.2625-1.1872,0-2.4709.2867-1.401,1.4667-2.1779,1.2355-2.4709-.1777-.2251-.837.2807-1.2355,0-.4375-.3081-.1253-1.258,0-2.4709a10.22,10.22,0,0,0-.3045-3.7843,5.7738,5.7738,0,0,0-2.6928-3.0346l5.3782-1.0618c1.11-.2193,2.52-.8351,2.3486-1.9533a4.68,4.68,0,0,0-2.6094-1.3141,1.83,1.83,0,0,0,.024-1.7509c-.24-.4444-.6584-.7718-.9-1.2152s-.2113-1.1232.2552-1.3173a1.2224,1.2224,0,0,1,.8044.05,3.1645,3.1645,0,0,0,2.5282.0214c1.1759-.7241-.1677-1.6394.209-2.3466.343-.6439,2.5457-.8573,3.1476-1.1163C1330.0087,1371.1982,1331.442,1368.8774,1332.4984,1366.4679Z" transform="translate(-1136 -1200)" style="fill:#fff3a9"/><path d="M1444.3245,1289.0157q-6.7052-6.0894-13.8736-11.5552c-2.4332-1.7623-4.818-3.5786-7.3317-5.2127-1.2511-.8237-2.4648-1.6982-3.7423-2.4778l-3.817-2.3515c-1.25-.8152-2.5669-1.5221-3.8619-2.26l-3.8941-2.1906-3.9864-2.0076c-1.3283-.6663-2.6407-1.3611-4.0145-1.9285-2.721-1.1841-5.3741-2.5113-8.17-3.4938l-4.1412-1.5823c-1.3724-.5455-2.8087-.91-4.2073-1.3742l-4.2214-1.3052c-1.4223-.3778-2.8691-.6652-4.2984-1.0024l-4.2942-.9654-4.3478-.6543-4.3217-.716-4.3492-.4763q-2.17-.2638-4.3347-.5846l-4.36-.3425c-11.6466-1.2936-23.4181-.8886-35.6377-.2023l-.2-.7967a76.6561,76.6561,0,0,1,17.6482-5.6193,83.4646,83.4646,0,0,1,18.5968-1.5864c1.5627.0237,3.13.03,4.6921.0983q2.3308.2443,4.6591.54l4.6447.6486c1.5275.3322,3.0454.71,4.5656,1.0637l4.5375,1.1365,4.4437,1.4441c1.4774.4844,2.9615.9415,4.4264,1.4488l4.3389,1.674a142.2117,142.2117,0,0,1,32.3539,17.6089,169.2133,169.2133,0,0,1,27.0831,24.446Z" transform="translate(-1136 -1200)" style="fill:#fff3a9"/><path d="M1186.1551,1352.3028q-1.8432,8.8677-2.914,17.8187c-.2834,2.9909-.6379,5.9675-.77,8.9628-.0747,1.496-.2122,2.9855-.2352,4.4821l-.0888,4.4823c-.0678,1.491-.0085,2.9844.0127,4.4749l.0891,4.4671.2936,4.4536c.1,1.4827.1677,2.966.376,4.4378.3609,2.9454.5641,5.905,1.1364,8.8123l.7388,4.3713c.2265,1.4592.6415,2.8819.9514,4.3224l1.0181,4.3c.3964,1.4172.8831,2.81,1.3182,4.2124l1.3479,4.19,1.6431,4.0782,1.5766,4.087,1.7971,3.9892q.8743,2.0037,1.6965,4.0316l1.9182,3.9308c4.7969,10.6913,11.1208,20.6281,17.9146,30.8082l-.585.5767a76.6558,76.6558,0,0,1-13.8-12.3536,83.4643,83.4643,0,0,1-10.8062-15.2178c-.7728-1.3585-1.5622-2.7118-2.2968-4.0927q-.9726-2.1322-1.8993-4.2887l-1.7987-4.331c-.4892-1.4847-.934-2.9843-1.401-4.4736l-1.3239-4.4864-1.0113-4.5617c-.3324-1.519-.6919-3.03-.9984-4.5492l-.76-4.5883a142.2173,142.2173,0,0,1-1.25-36.8141,169.2094,169.2094,0,0,1,7.316-35.7432Z" transform="translate(-1136 -1200)" style="fill:#fff3a9"/><path d="M1486.5074,1399.48a169.2082,169.2082,0,0,1-6.61,35.88,142.2093,142.2093,0,0,1-14.9535,33.6636l-2.4237,3.9692c-.8535,1.2939-1.753,2.56-2.63,3.8436l-2.647,3.85-2.9085,3.6635c-.9909,1.2057-1.9652,2.4295-2.9752,3.6227l-3.29,3.3416q-1.6643,1.6533-3.3679,3.2644c-1.1985,1.0052-2.4376,1.964-3.6631,2.934a83.463,83.463,0,0,1-15.721,10.06,76.6657,76.6657,0,0,1-17.423,6.2829l-.3264-.754c10.1134-6.8927,19.7-13.736,28.1535-21.851l3.2512-2.9257q1.525-1.5707,3.0835-3.1021l3.1611-3.0252L1448.21,1479l3.0515-3.1654,2.82-3.38c.9291-1.1374,1.9021-2.2461,2.8007-3.4115l2.555-3.605c.8272-1.2194,1.7448-2.3829,2.5017-3.6511l2.3228-3.776c1.62-2.4809,2.9174-5.1487,4.3557-7.7443.7446-1.2865,1.363-2.6365,2.0115-3.9736l1.941-4.0192,1.7565-4.1082c.5781-1.3741,1.1926-2.7364,1.6885-4.144l1.5973-4.1892c.5392-1.396.97-2.8287,1.4612-4.2436,1-2.8265,1.7867-5.7192,2.6446-8.5983q2.3564-8.6923,3.975-17.6125Z" transform="translate(-1136 -1200)" style="fill:#fff3a9"/></g></g></g></svg>