<svg id="pizza" xmlns="http://www.w3.org/2000/svg" xmlns:xlink="http://www.w3.org/1999/xlink" viewBox="0 0 389.7 397.8"><defs><radialGradient id="radial-gradient" cx="921.5" cy="1806" r="166.5043" gradientTransform="translate(0 -640)" gradientUnits="userSpaceOnUse"><stop offset="0" stop-color="#ff4b4a"/><stop offset="1" stop-color="#ff4b4a"/></radialGradient><radialGradient id="radial-gradient-2" cx="921.5" cy="1805.9" r="134.8409" gradientTransform="translate(0 -640)" gradientUnits="userSpaceOnUse"><stop offset="0" stop-color="#e0161f"/><stop offset="0.5" stop-color="#de161f"/><stop offset="0.6801" stop-color="#d7161f"/><stop offset="0.8085" stop-color="#cc1520"/><stop offset="0.9115" stop-color="#bb1420"/><stop offset="1" stop-color="#a51321"/></radialGradient></defs><g id="tomato"><path id="Flesh_B" data-name="Flesh B" d="M925.2,975.7c259.8,4.4,259.8,390.9,0,395.3C665.4,1366.6,665.4,980.1,925.2,975.7Z" transform="translate(-730.35 -973.2)" style="fill:#a51321"/><path id="Flesh_B-2" data-name="Flesh B-2" d="M921.5,973.2c253.3,4.3,253.3,381.2,0,385.5C668.2,1354.4,668.2,977.5,921.5,973.2Z" transform="translate(-730.35 -973.2)" style="fill:#d3161f"/><path id="Flesh_A" data-name="Flesh A" d="M921.5,998.3c220.4,3.8,220.4,331.6,0,335.4C701.1,1329.9,701.1,1002,921.5,998.3Z" transform="translate(-730.35 -973.2)" style="fill:url(#radial-gradient)"/><path id="Shadow_B" data-name="Shadow B" d="M921.5,1030.1c178.5,3,178.5,268.6,0,271.6C743,1298.7,743,1033.2,921.5,1030.1Z" transform="translate(-730.35 -973.2)" style="fill:url(#radial-gradient-2)"/><path id="Shadow_A" data-name="Shadow A" d="M921.5,1068.8c113.1.4,113,193.9,0,194.2C808.5,1262.7,808.5,1069.2,921.5,1068.8Z" transform="translate(-730.35 -973.2)" style="fill:#b40001"/><path d="M897.2,1301c0-.1-.6-.2-1.7-.3C896.6,1301,897.2,1301.1,897.2,1301Z" transform="translate(-730.35 -973.2)" style="fill:#ff4b4a"/><path d="M1042.9,1228.2c-.2-.1-1.8,3.9-6.1,6.1a14.0341,14.0341,0,0,0-3,1.5c-3.7,3.3-2.8,5.2-7.6,4.6-2.8,1-1.6,5.9-4.6,7.6-1.9,1.2-7.7-.5-10.6-1.5-9.3-2.4-12.9,2.3-16.7-7.6-4.1-3.2-10.4-12.6-13.7-13.7-3.2-1.4-3.7,0-6.1-1.5-3.4-2.2-2-5.1-6.1-9.1-3.8-2.8-4.9-4.6-6.1-9.1-2.6-6.1-10-5.7-12.1-12.1-3.2-5.9-3.5-7.6-3-9.1,1.3-3.4,3.9-3.7,7.1-1.6,3.4,1.5,7.2,1.7,7.6.9.4-1.1-4.8-3.2-4.5-5.6,2.6-5.2,4.9-.1,8.9,1.3,5.5-.3,3.4,1,7.7,4.1a69.84,69.84,0,0,1,9,2.3c2.7.7,7.5-2.6,7.1-3.8-.3-1-4.1.7-8.7-1.4-2.8-1-7.7-6.1-7-8.4,3.2-1,10.6,7.4,16.8-.2,4.4-3,7.5-2.3,8.1-4.2.5-1.6-1.9-2.5-1.9-5.3,0-3.5,3.8-5.7,3.3-6.3-.3-.4-3,.5-5.1,2.6-3.1,3.3-1.8,6.3-3.9,8.1-3.6,3.1-14.6-2.2-14.3-4.9.2-1.6,4.4-1,9.5-5.1,2.2-1.8,4.6-4.5,4.1-5.4-.7-1.1-15,3.1-16.7,0-.5-1.4,3.2-4.7,7.2-6.2,3.7-1.4,4.9-.4,7.8-1.6,4.9-2.1,7.3-8.4,6.2-9.5-.7-.7-4,.8-10.6,3.9-7.8,3.3-11.1,6.4-14.8,1.1-.2-3.1,10.6-5.9,10.3-6.7-.2-.6-6.6,1.8-8.5-.6-4.3-9.7,13.5-5.9,14.7-8.9.3-1-.2-1.2.2-3.3.8-4.1,3.9-5.6,3.5-6.5-.6-1.1-7.1.1-13.2,3.6-5.5,4.1-11.6,6.6-15.4.8-1.6-1.8,7.3-13,4.6-17.3-.8-.4-2.3,1.5-6.7,5.6-3.1,2.9-3.9,3.3-4.7,4.9a10.8639,10.8639,0,0,0-.7,5.9c.4,9.2-5.1,17.6-6.3,17.4-.9-2.5-1.4-2.7-3.3.6.7,2.8-2.3,6-5.1,4.5-1.5-3.4-2.8-11.9-3-13.7.1-4.3,3.1-7.8,3-12.1.3-5.8-2.7-7.8-1.5-12.1,1.2-4.7,4.9-4.1,6.1-9.1,1.2-3.8.1-8-3-13.7-.2-2.1,1.4-2.7,1.5-4.6.2-3.1-4.2-4.1-4.6-7.6-.2-2.2,1.6-2.4,3-6.1,2.2-5.5-.3-9.1,2.1-11.1,1.6-1.3,3,.1,5.5-1.1,3.9-1.8,3.2-6.4,6.1-9.1,5.3-5,17,2.1,18.2,0,1.4-2.5-11.9-18.5-31.9-22.8-19-6-61.1,12.6-65.3,21.2.6,1.3,8.2-3.7,15.2-.3,8.8,4.6,11.4,19.4,11.2,27.9.1,4.5,5.2,6.4,10,13.4,12.1,13.8,1.2,30.1,3.4,46.8-17.2-3.4.8,4.4-.3,9.4-2.5,3.8-8.5-1.2-9.8-3.5-1-2.4.4-5,.7-5.6.5-3.7.3-4.5,0-4.6-.1-.4-2.9,3.3-3,3-1.2-.1-4-9.8-1-18.4a11.5175,11.5175,0,0,0,1-5.8c-.3-1.7-7.1-14.3-7.8-13.4-3.9,3.3,1.4,16.6-.7,17.9-5.4,4.4-10.4.4-14.5-5.2-4.8-5.1-10.7-8.1-11.6-7.2-.7.7,1.9,3.1,1.4,7.2-.2,2.1-.7,2.1-.8,3.2.2,3.2,18.4,4.8,11.5,12.8-2.5,1.7-7.9-2.5-8.3-1.9-.1,1.1,14.2,9.9,4.9,10.9-3.1,2.1-18-14.8-19.9-13.6-1.3.7-.9,7.5,3.2,10.9,2.4,2,3.9,1.4,7,3.8,8.8,7.8,5.7,10.7-3.5,6.3-8.7-4.6-9.4-4.3-5.1,3.2,3.6,5.3,7.8,6,7.6,7.6-.4,2.5-12.2,4.8-15.1.6-2.5-3.7,3.3-10.2-.1-14.2-3.5-3.1-3.5-1.6-3.1,3.3a16.9719,16.9719,0,0,1-.9,5c-1,2.9-3.4,2.9-3.4,4.5,0,2,3.3,2.2,6.6,6.3,3.7,9.1,13.2,3.2,16,5.1,0,2.5-6.1,5.9-9.1,6.1-5,.6-8.1-2-8.7-1.2-.7,1,2.9,5.6,5.7,5.7.2.1,4.4,0,4.6,0,9.3,1.9,6.2-3.8,13.3-1.2,4.2-.1,7.9-4.3,8.9,1.3-.3,2.5-6,2.9-5.9,4.1.1.9,3.9,2.4,7.5,1.4,6.1-1.7,7.9-9.2,9.6-8.6,2,1.6,1.4,8.3-1.5,10.6-2.1,1.9-4.1,1.4-5.1,3.6-.8,1.7,0,3.1-1,4-6.1,1-4-1-10.6,4.6-2.9,2-11.8,6-16.7,7.6-8.5,2.3-11.8-1.2-15.2,1.5-3.2,2.6-.7,6.2-4.6,10.6-7.7,7.4-10.8,3.9-19.7,1.5-5.5-.5-6.5,2.2-12.1,1.5-1.6-.2-7.3-.9-9.1-4.6-2-4.1,1.9-9,0-10.6-1.6-1.3-5,1.3-6.1,0-.3-5,2.7-4.2-2.6-9.9-3.4-5.5-1-9.6-4.9-12.9-12.2-7.8-7,60.6,22.8,95.6,29.9,34.9,79.5,36.9,89.3,37.7-15.2-4-41.2-13.7-49.9-28.6-5.2-4.4-9.7-11-7.6-18.2.9-3.8,2.3-5,1.5-6.1-2.1-1.3-4.4-.9-3-4.6,1-3.3,3.4-3.4,4.6-6.1.3-7-1.2-7.9,6.1-13.7,3.7-3.2,5-3.1,7.6-6.1,5.9-13.6,25.2-14.3,32.3-19.3,1.4-2.6,4.2-1.6,6.5-2.3,4.5-.8,3.7,5.5,2,9.3-1.4,2.9-3.5,4.7-3.1,5.1,1.4.2,7.1-4.3,6.1,1.4-.8,1.6-5.1,1.9-5.4,5-.5,1.7-2.8.8-4.6,2.4a71.8983,71.8983,0,0,1-4.6,5.7c-1.4,1.7-.6,6.2.4,6.3.8.1.9-3.1,3.9-5.7,1.7-1.6,6.9-3.5,8.3-2.2.6,1.3-6.3,4.2-6.3,8.8,3.3,9.1-3.4,10.8,5.6,10.8,2.8-.2,5.7,3.3,5.9,5,.2,0,.4-1.6,0-3-1.1-4.4-6.4-4.5-7.2-7.4-1-3.9,6.5-9.7,8.2-8.6,1,.7-.7,3.5.5,8.4,3.9,13.2,3.4-5.8,8-7.2,1.2.1,2.3,3.8,2,7.2-.2,3.3-2.1,4.1-1.4,6.1.6,1.8,2,1.8,3.5,4.5,3.5,11.2.5-16.1,3.6-15.8,5.4-4.9,3.1,8.1,3.9,8.6.5.1.9-5.3,3.2-5.9,7.9-.4.9,12.9,1.5,13.4,3.4-2.4,4.4,5.6,5.8,5.9,3.3-1.8.8-13.9,1.5-17.8,4.6-9.3,7.6-.1,13.4,4.2,4.1,2.2,2.3-.2.5-5.9-1.4-5-2-5.9-5.9-7.4-6.7-2.7-10.9-9.5-10.3-10.3,2,.2,2.4-.2.7-2.6-4.3-.3-4.6-6.2-3.1-9.1,2.2-1.9,5.6-.8,8,.1,3.4,4.5,7,4.1,10.6,7.6,2.3,2.1,5.4,6.4,4.6,10.6-.5,2.6-2,3.1-1.5,4.6.9,2.5,6.2,1.5,7.6,4.6.8,1.8-.8,2.6,0,4.6,1.4,2.9,8.2,3.9,9.1,9.1,1.3,3.2.8,4.2,1.5,6.1,2.8,5.9,14.1,6.9,9.1,18.2-26.5,15.7,9.2,7-19.7,25.8-4.8,3.3-6.2,3.8-6.1,4.6C1008.3,1324.8,1041.6,1245.5,1042.9,1228.2Z" transform="translate(-730.35 -973.2)" style="fill:#ff4b4a"/><path d="M933.4,1253.7c.5,2.8,2.9,6.1.4,8.4h-.3c-3-1.9-1-5.8-.4-8.5Z" transform="translate(-730.35 -973.2)" style="fill:#ffef85"/><path d="M950.2,1241.3c1.8,2.2,6.2,6.1,2.2,8.4l-.3-.1c-1.6-2.4-1.5-5.4-2.2-8.2Z" transform="translate(-730.35 -973.2)" style="fill:#ffef85"/><path d="M916.6,1253.5c1.3,3.1,4.4,6.9,2,10.1h-.3c-3.2-2.3-1.7-6.7-2-10.1Z" transform="translate(-730.35 -973.2)" style="fill:#ffef85"/><path d="M902,1253.4c0,2,1,4.9-1.2,6.1h-.2c-1.5-1.9.5-4.2,1.2-6.1Z" transform="translate(-730.35 -973.2)" style="fill:#ffef85"/><path d="M876.1,1274.7c-.3,2,.1,4.4-1.2,6.1h-.1c-.6-2.1.7-4.1,1.2-6.1Z" transform="translate(-730.35 -973.2)" style="fill:#ffef85"/><path d="M891.9,1241.9c-2.1,2.3-2,6.3-5.1,7.5l-.3-.1c-2-3.5,2.5-6.4,5.2-7.7Z" transform="translate(-730.35 -973.2)" style="fill:#ffef85"/><path d="M884.3,1229.9c.1,2.9.6,7.6-3.1,8.3l-.3-.2c-1.2-3.2,2.1-5.4,3.1-8.2Z" transform="translate(-730.35 -973.2)" style="fill:#ffef85"/><path d="M939.4,1235.3c1.3,3.2,3.8,6.9,2.2,10.3h-.2c-2.3-2.8-1.5-6.9-2.2-10.3Z" transform="translate(-730.35 -973.2)" style="fill:#ffef85"/><path d="M891.7,1211.1c-3.2,1.6-5.1,5-8.5,6l-.2-.1c.7-3.8,5.3-5.1,8.5-6.1Z" transform="translate(-730.35 -973.2)" style="fill:#ffef85"/><path d="M865.9,1235.4c-4.3,3.4-6.5,8.6-10.5,12.3l-.2-.1c.6-5.7,6-9.5,10.5-12.4Z" transform="translate(-730.35 -973.2)" style="fill:#ffef85"/><path d="M943.2,1256.2c1.5,4.5,3.8,10.8-.1,14.6l-.3-.1c-1.8-4.7.8-9.6.1-14.4Z" transform="translate(-730.35 -973.2)" style="fill:#ffef85"/><path d="M889.8,1261.5c-.2,3.4,1.3,8-2,10.2l-.3-.1c-2.2-3.3.9-7,2-10.2Z" transform="translate(-730.35 -973.2)" style="fill:#ffef85"/><path d="M939.6,1217.3c2.4,0,6.2,0,6.7,3l-.1.2c-2.6.2-4.2-2.2-6.6-2.9Z" transform="translate(-730.35 -973.2)" style="fill:#ffef85"/><path d="M874.4,1217.6c-2.2,1.9-3.7,5.8-7.1,5l-.2-.2c0-3.6,4.4-4.1,7.1-5.1Z" transform="translate(-730.35 -973.2)" style="fill:#ffef85"/><path d="M877,1245.8c-1.1,4.2.9,9-1.9,12.6h-.3c-3-3.8-.1-9,1.9-12.7Z" transform="translate(-730.35 -973.2)" style="fill:#ffef85"/><path d="M909.1,1262.6c1.9,3.5,3.8,9.7-.7,12l-.3-.1c-1.1-3.9,1.5-7.7.6-11.8Z" transform="translate(-730.35 -973.2)" style="fill:#ffef85"/><path d="M926.2,1270.3c.6,4,2.4,9.6-1.3,12.6l-.3-.1c-1.9-4.1,1-8.3,1.3-12.5Z" transform="translate(-730.35 -973.2)" style="fill:#ffef85"/><path d="M959.8,1260.1c1.4,3.5,3.9,8.6.5,11.6H960c-2.3-3.5,0-7.7-.5-11.5Z" transform="translate(-730.35 -973.2)" style="fill:#ffef85"/><path d="M866.3,1258.9c-1.2,2-.6,4.9-2.5,6.4h-.2c-1.7-2.3.9-5,2.6-6.5Z" transform="translate(-730.35 -973.2)" style="fill:#ffef85"/><path d="M857.4,1221c-2,1.7-2.9,4.9-5.6,5.5l-.2-.1c-.1-3.1,3.4-4.4,5.7-5.5Z" transform="translate(-730.35 -973.2)" style="fill:#ffef85"/><path d="M868.9,1091.8c-2.9-1.9-7.8-3.4-7.7-7.5l.2-.2c4,.2,5.4,4.8,7.7,7.5Z" transform="translate(-730.35 -973.2)" style="fill:#ffef85"/><path d="M894.8,1084.8c-2-3.1-4.4-5.8-6-9l.1-.3c5.4-1.2,5.3,5.6,6.1,9.2Z" transform="translate(-730.35 -973.2)" style="fill:#ffef85"/><path d="M854.9,1108c-2.8-3.3-7.7-5.7-7.9-10.5l.2-.2c4.7,1.2,5.9,6.7,7.9,10.5Z" transform="translate(-730.35 -973.2)" style="fill:#ffef85"/><path d="M847,1125.8c-2.4-1-5.8-1.3-6.8-4l.1-.2c2.9-.5,4.7,2.5,6.8,4Z" transform="translate(-730.35 -973.2)" style="fill:#ffef85"/><path d="M845.3,1141.4c-3.6,1.3-9.6,2.7-11.7-1.5l.1-.3c3.9-1.2,7.5,1.7,11.5,1.5Z" transform="translate(-730.35 -973.2)" style="fill:#ffef85"/><path d="M850,1158.6c-3.4-1.6-8-.7-10.4-4l.1-.3c3.8-2.3,7.7,1.7,10.5,4Z" transform="translate(-730.35 -973.2)" style="fill:#ffef85"/><path d="M888.5,1096.4c-2.4-3.2-7.7-6.5-7.9-10.8l.2-.2c4.9,1.1,6.1,6.9,7.9,10.9Z" transform="translate(-730.35 -973.2)" style="fill:#ffef85"/><path d="M872.8,1170.2c-3.8,1.8-8.8,5.1-12.8,2.4v-.3c3.5-3,8.5-1.4,12.8-2.4Z" transform="translate(-730.35 -973.2)" style="fill:#ffef85"/><path d="M842.2,1171.5c-6.8-.4-15.4-1.3-19.2-7.7l.2-.2c6.8,1.4,12.2,6.3,19.1,7.6Z" transform="translate(-730.35 -973.2)" style="fill:#ffef85"/><path d="M874.8,1080.4c-4-4.8-10.3-6.9-13.8-12.1l.1-.3c6.7.2,10.8,7,13.9,12.2Z" transform="translate(-730.35 -973.2)" style="fill:#ffef85"/><path d="M834.4,1130.2c-3.9-1.8-9.5-2.3-11.4-6.7l.2-.3c4.8-.5,7.9,4.1,11.4,6.7Z" transform="translate(-730.35 -973.2)" style="fill:#ffef85"/><path d="M907.2,1114.3c.3-3.1-2.1-6.4,0-9.2l.3-.1c3.5,1.9,1.4,6.6,0,9.3Z" transform="translate(-730.35 -973.2)" style="fill:#ffef85"/><path d="M906.3,1091.9c-.6-3.5-3.1-7.8-.4-10.9h.3c2.9,2.9.7,7.3.4,10.9Z" transform="translate(-730.35 -973.2)" style="fill:#ffef85"/><path d="M852.3,1180c-3.2,1.5-7.3,4.8-10.8,2.5v-.3c2.5-3.2,7.2-1.8,10.8-2.4Z" transform="translate(-730.35 -973.2)" style="fill:#ffef85"/><path d="M821.9,1183.6c-4.8,2.4-11.7,3.5-15.9-.4l.1-.2c5.3.1,10.5,2.3,15.8.4Z" transform="translate(-730.35 -973.2)" style="fill:#ffef85"/><path d="M828.8,1152.2c-5.1-1.4-11.8-3.3-13.6-8.9l.2-.2c5.5,1.1,8.6,6.5,13.5,8.9Z" transform="translate(-730.35 -973.2)" style="fill:#ffef85"/><path d="M842.8,1109.9c-2.9-4.3-8.4-5.5-11.7-9.4l.1-.3c5.8-1.5,10,4.8,11.9,9.5Z" transform="translate(-730.35 -973.2)" style="fill:#ffef85"/><path d="M850,1087.3c-4.2-3.4-10.1-4.6-13-9.3l.1-.3c5.8-.2,9.6,5.5,13.1,9.4Z" transform="translate(-730.35 -973.2)" style="fill:#ffef85"/><path d="M885.1,1061.4c-3.2-3.8-8.5-5.5-10.5-10.2l.2-.3c5.5.1,8.3,6.1,10.6,10.3Z" transform="translate(-730.35 -973.2)" style="fill:#ffef85"/><path d="M866.8,1107.2c-2.9-3-7.1-5.5-8.2-9.8l.2-.1c4,1.8,5.7,6.4,8.2,9.8Z" transform="translate(-730.35 -973.2)" style="fill:#ffef85"/><path d="M807.5,1151.1c-2.9.2-7.2.2-8.4-3.1l.1-.2c3.1-.1,5.3,2.5,8.2,3Z" transform="translate(-730.35 -973.2)" style="fill:#ffef85"/><path d="M853.6,1173.1c-1,.2-2.4.9-3.2,0v-.1c.8-.9,2.2-.2,3.2,0Z" transform="translate(-730.35 -973.2)" style="fill:#ffef85"/><path d="M888.5,1203.1c-1,.4-2.1,1.4-3.1.7v-.1c.6-1.1,2-.6,3.1-.6Z" transform="translate(-730.35 -973.2)" style="fill:#ffef85"/><path d="M834,1193.1c-2.6,2-5.8,5.1-9.3,3.9v-.2c2.4-2.5,6.2-2.3,9.2-3.9Z" transform="translate(-730.35 -973.2)" style="fill:#ffef85"/><path d="M813.9,1170.2c-2.4-2-6-2.3-7.7-5l.1-.2c3.4-.7,5.9,2.7,7.8,5.1Z" transform="translate(-730.35 -973.2)" style="fill:#ffef85"/><path d="M827,1116c-3.3-.8-7.8-1.4-9.2-4.9l.1-.2c3.6.3,6,3.4,9.2,4.9Z" transform="translate(-730.35 -973.2)" style="fill:#ffef85"/><path d="M895,1069c-.1-3-1.9-6.3-.4-9.2h.2c2.3,2.5.9,6.3.4,9.2Z" transform="translate(-730.35 -973.2)" style="fill:#ffef85"/><path d="M990.1,1113c3-1.9,5.6-5.9,9.5-5l.2.3c-1.2,4-6.2,4-9.6,5Z" transform="translate(-730.35 -973.2)" style="fill:#ffef85"/><path d="M968.3,1097.3c1.9-3.1,3.7-9.7,8.5-7v.3c-2.4,2.6-5.6,4.5-8.4,6.9Z" transform="translate(-730.35 -973.2)" style="fill:#ffef85"/><path d="M998.8,1132.6c3-3,5.8-8,10.6-7.8l.2.3c-1.6,4.5-7,5.4-10.6,7.7Z" transform="translate(-730.35 -973.2)" style="fill:#ffef85"/><path d="M998.2,1148.9c2.4-.9,5-3.2,7.7-1.9v.2c-1.7,2.4-5.1,1.6-7.7,1.9Z" transform="translate(-730.35 -973.2)" style="fill:#ffef85"/><path d="M998.6,1167.3c3.7,1.4,8-.4,11.4,1.9v.3c-3.3,3.5-8.5.3-11.6-1.9Z" transform="translate(-730.35 -973.2)" style="fill:#ffef85"/><path d="M988.8,1182.4c3.3-1.4,8.2-4.1,11.2-.8v.3c-3.2,2.4-7.4.3-11.1.8Z" transform="translate(-730.35 -973.2)" style="fill:#ffef85"/><path d="M970,1111.7c2.9-3.3,5.8-8.5,10.7-8.1l.2.3c-1.4,4.1-7.5,5.8-10.7,8.1Z" transform="translate(-730.35 -973.2)" style="fill:#ffef85"/><path d="M963.2,1183.9c3.6,2.8,8.7,2.8,11.4,6.6l-.1.3c-4.8,1.7-8.8-3.3-11.6-6.6Z" transform="translate(-730.35 -973.2)" style="fill:#ffef85"/><path d="M992.8,1195.4c6.8,1.8,13.8-.4,20.5,1.3l.1.3c-6.2,4.2-14.4,1.2-20.6-1.3Z" transform="translate(-730.35 -973.2)" style="fill:#ffef85"/><path d="M987.7,1100.4c4.5-4,10.4-9.4,16.9-7.6l.1.3c-4.9,3.9-11.5,4.1-16.7,7.6Z" transform="translate(-730.35 -973.2)" style="fill:#ffef85"/><path d="M1012,1159.7c4.1-1.4,8.4-5,12.9-3.1l.1.3c-3.1,3.7-8.6,2.5-12.9,3.1Z" transform="translate(-730.35 -973.2)" style="fill:#ffef85"/><path d="M946.7,1123.7c-.5-3-1.2-8.1,2.7-8.9l.3.2c1.1,3.3-2.1,5.7-2.7,8.8Z" transform="translate(-730.35 -973.2)" style="fill:#ffef85"/><path d="M955,1095.5c1-3.4.6-8.3,4.4-9.9l.3.1c1.4,3.9-2.6,6.9-4.4,9.9Z" transform="translate(-730.35 -973.2)" style="fill:#ffef85"/><path d="M974.8,1206.6c2.2,2.8,6.7,5,6.4,9l-.2.2c-4.2-.6-5-5.7-6.4-9.1Z" transform="translate(-730.35 -973.2)" style="fill:#ffef85"/><path d="M996.4,1208.7c5.2,4,12,3.7,17.6,6.9v.3c-6.5,2.7-13.4-2.4-17.8-7Z" transform="translate(-730.35 -973.2)" style="fill:#ffef85"/><path d="M1011.1,1182.4c5.4-.8,9.9-5.1,15.5-4.5l.1.3c-3.3,4.9-10.3,4.7-15.6,4.6Z" transform="translate(-730.35 -973.2)" style="fill:#ffef85"/><path d="M1009.8,1137.9c3.1-3.9,9-8.7,14.1-5.6v.3c-4.3,2.7-9.9,2.3-13.9,5.6Z" transform="translate(-730.35 -973.2)" style="fill:#ffef85"/><path d="M1009.5,1114.2c4.4-2.7,9.7-7.1,15.2-5.2l.1.3c-4.1,3.7-10.2,3.2-15.1,5.2Z" transform="translate(-730.35 -973.2)" style="fill:#ffef85"/><path d="M977.3,1074.7c3.4-3.3,7.9-8.3,13.1-6.8l.1.3c-3.3,3.9-8.9,4-13,6.7Z" transform="translate(-730.35 -973.2)" style="fill:#ffef85"/><path d="M987.6,1128.5c3.4-2.5,6.3-6.4,10.7-7l.1.2c-2.3,3.8-7,4.9-10.7,7Z" transform="translate(-730.35 -973.2)" style="fill:#ffef85"/><path d="M1031.8,1187.6c3,.4,5.9-1.5,8.8-.5l.1.2c-2,2.8-6.2,1.5-8.9.5Z" transform="translate(-730.35 -973.2)" style="fill:#ffef85"/><path d="M981.3,1195.4c1,.1,2.5-.2,3.1.9v.1c-1.1.7-2.2-.4-3.1-1Z" transform="translate(-730.35 -973.2)" style="fill:#ffef85"/><path d="M999.1,1225.8c3,1.4,6.9,1.1,9.3,3.6v.2c-3.5,1.3-6.8-1.7-9.4-3.6Z" transform="translate(-730.35 -973.2)" style="fill:#ffef85"/><path d="M1020,1204.1c2.5-1.7,5.8-4.3,8.9-2.6v.2c-2.4,2.1-6,1.4-8.8,2.6Z" transform="translate(-730.35 -973.2)" style="fill:#ffef85"/><path d="M1023.3,1148.4c3.5-.4,6.7-2.8,10.2-2l.1.2c-2.4,3-6.8,2.2-10.2,2Z" transform="translate(-730.35 -973.2)" style="fill:#ffef85"/><path d="M959.5,1070.2c.4-3,.1-7,3.1-8.7l.2.1c.6,3.2-2.1,5.8-3,8.7Z" transform="translate(-730.35 -973.2)" style="fill:#ffef85"/><g style="opacity:0.8199999928474426"><path d="M924,1139.7c2.1-4.7,1.9-10.1,1.8-15.3,2.7,4.1-.3,21.7,5,20.9a44.9619,44.9619,0,0,1,1.7,6,13.8766,13.8766,0,0,1,9-.3c-2.4.8-4.3,2.3-4.2,4.9-.8,3.3-1.8,6.5,0,9.6,1.6,3.6-3.5,3.1-4,5.6.4,1.4,2.2,2.3,2.3,4,.5,2.3,3.1,2.7,4.2,4.2-.9,4.1,3,12.1,4,16-4.4-2-4.5-8.7-8.8-10.9-1.4-.5-3.3.8-2.6,2.3-1.9-.2-.3-3-1.3-3.9a9.03,9.03,0,0,0-7.7,5.4c-1.4-2.4.8-3.3-1.7-5.1,0-.4.7-.5,1.2-1.2.8-1,.9-2.5.5-2.7-.2-.1-1.5.9-1.7,1-.7-.9-1.6.7-2.3.8s-1.3-.6-2-.5c-1.5.9-2.7,2.6-4.7,2.3-1.6.5-15.8.7-10.8-2.1,1.9.3,5.5.1,4.9-2.5.9-.3,4,.5,4.9-1.2.8-1.3-.7-3.1,0-3.7.6-.5,1.9.5,2.5,0,.4-.4-.3-1.2,0-2.5.3-1.4,1.5-2.2,1.2-2.5-3.6.9,1.5-6.7-4.2-9.3,1.7-.7,7.8-.4,7.7-3a4.3257,4.3257,0,0,0-2.6-1.3c1.3-1.6-2.1-3-.6-4.3,1.1-.1,2.2.7,3.3.1,1.7-2.2-2.4-2.2,3.4-3.5C921.6,1144.4,923,1142.1,924,1139.7Z" transform="translate(-730.35 -973.2)" style="fill:#fff3a9"/><path d="M1035.9,1062.2c-38.7-35.6-79.4-46.3-131.2-42.7l-.2-.8c47.1-21.1,100.2,7.5,132,42.9Z" transform="translate(-730.35 -973.2)" style="fill:#fff3a9"/><path d="M777.7,1125.5c-11,51.3.4,92,29.8,134.7l-.6.6c-42-29.9-44.4-90.2-30-135.5Z" transform="translate(-730.35 -973.2)" style="fill:#fff3a9"/><path d="M1078.1,1172.7c-3.7,47.4-28.5,102.4-78.6,114.4l-.3-.8c43.4-28.7,69.1-62,78.1-113.7Z" transform="translate(-730.35 -973.2)" style="fill:#fff3a9"/></g></g></svg>