<svg id="pizza" xmlns="http://www.w3.org/2000/svg" xmlns:xlink="http://www.w3.org/1999/xlink" viewBox="0 0 269.8945 124.7615"><defs><radialGradient id="radial-gradient" cx="-1475.3127" cy="1415.0225" fx="-1520.4188586735345" r="127.7367" gradientTransform="matrix(-0.9915, 0.0225, 0.0121, 0.5233, -802.9099, 295.0134)" gradientUnits="userSpaceOnUse"><stop offset="0" stop-color="#b0b13e"/><stop offset="0.2636" stop-color="#9ca038"/><stop offset="0.8033" stop-color="#677628"/><stop offset="1" stop-color="#526522"/></radialGradient></defs><g id="basil_a"><path d="M820.8038,1007.56c-1.3051,1.4889-4.145.9742-5.0562.8337-21.3709-1.9009-35.9933-7.8537-47.6587,12.857-6.25,11.6353-32.89,27.118-37.3256,32.8215a8.2012,8.2012,0,0,1-7.8264,4.4235c-2.102.0381-15.3181,6.3194-20.2561,8.9492-.1.0066-1.3445.89-1.5571.7038,2.6311-4.1818-.3506-2.282-5.7731-.923-6.201,1.7109-5.5682.6671-10.1793,2.173-7.7582,2.4146-3.16.709-6.3836-2.5864-5.9188-1.6149-9.8655.85-17.3244-4.372a7.808,7.808,0,0,0-3.3993.1235c-6.1144,1.5047-10.7412-1.7986-15.2118-1.2038-2.1756.4439-1.5086-1.6043-2.1126-3.1682a3.2621,3.2621,0,0,0-2.3738-1.0463c-6.2917-1.1895-9.0371-3.3138-14.4241-4.4626-1.17-1.0254-.4832-2.7743-1.36-3.9192-4.0163-1.64-11.9058-1.2209-16.2268-4.4441-1.33-.4136-2.0679-.9663-1.7869-2.7888-.2653-.9847-1.2959-1.4179-1.8146-1.6845-6.616-3.0722-11.1759-6.881-14.9336-7.6359a2.7452,2.7452,0,0,1-2.106-3.0684c-.3243-1.8828-2.5458-2.1374-6.5346-4.8815-3.0382-2.0048-1.934-1.9772-5.2978-4.3616-1.4692-1.0056-2.8321-1.9181-3.0238-3.3086.49-4.7424-11.2482-15.5951-16.8348-16.7307-.3059-.08-1.4167-.2074-1.6622-.8928-.3584-.8784.76-2.1545,1.0464-2.3738,5.6838-3.4807,7.4248-1.3905,15.7435-5.9466,9.33-4.4221,10.5955-6.51,13.7846-9.8262,5.3726-5.1639,9.6883-3.5438,16.1978-8.1812,4.3209-4.3931,8.5526-5.5736,15.0214-9.3063,4.6531-3.914,10.0913-.4636,11.8191-6.1894-.025-1.9025,2.1637-2.1467,3.1813-1.913,4.8356.3833,7.1057-1.67,13.9973-2.0234,2.6141.1286,4.8579-2.324,5.1126-4.5455.7589-.6512,2.1611.86,4.6085,1.5006,1.0175.2337.8048.0473,6.293-.3139,2.9935-.1969,3.6985-.1431,4.5572-.8009,1.3851-1.7948,2.97-3.6028,5.6036-3.1748,4.0911-.2692,11.06,2.0783,15.6281,4.4836,1.61.0945,2.3226-1.2552,3.8863-1.8591.9782-.365,1.783-.3178,4.5363.403,7.8344,1.79,11.8047,2.7308,12.9483,3.3571,5.0668,2.3725.6959-4.6557,11.1956-.436,11.39,5.5641,9.1-.2982,15.51,2.6874,8.2375,4.87,2.1965-1.6477,19.8729,11.1192,7.7911,5.7008,11.68,8.4514,13.6076,10.3289,8.3215,7.67,13.6864,19.1427,25.81,22.1531a29.77,29.77,0,0,0,5.1349.3637c14.4609.4515,13.0639.5435,13.7624.4975C817.3532,997.7651,825.4542,999.0359,820.8038,1007.56Z" transform="translate(-552.2902 -945.7724)" style="fill:url(#radial-gradient)"/><g id="Shadows_copy_7" data-name="Shadows copy 7" style="opacity:0.5"><path d="M757.6889,1001.7912c-32.9642,12.2909-59.106,42.9735-89.2971,63.901,5.12,1.6674,12.2012-1.9052,11.8231,4.5335.5515.7655,3.2929-.2166,5.0562-.8337,4.0255-1.2671,4.0649-.6684,8.01-1.63,5.6-6.2812,9.2443-13.3357,16.0388-16.689,23.352-12.1595,38.2236-32.8806,59.5484-46.9111C772.298,999.928,761.3414,1000.95,757.6889,1001.7912Z" transform="translate(-552.2902 -945.7724)" style="fill:#556824"/><path d="M805.7389,1005.5444a87.4247,87.4247,0,0,1-16.1821-2.2423.9737.9737,0,0,0,.9453-.8639c-33.0208-6.8467-51.7234,36.3745-81.0821,48.6286-6.7945,3.3534-10.4392,10.4078-16.0388,16.689,2.4683-.5633,8.4435-2.66,8.7823-2.0811l-.0131-.1995.0131.1995c.2062.0867.2259.3861.1392.5921a1.9,1.9,0,0,0,.7707,1.0517c4.9445-2.53,18.0608-8.8048,20.0631-8.8364a8.2854,8.2854,0,0,0,7.8264-4.4234c3.1707-5.1193,12.473-8.4371,24.2093-18.93,12.7329-9.0555,14.4476-22.5974,28.9-28.3588,5.7219-1.3786,23.9.7324,31.7813,1.717,1.6491.6932,6.02.105,6.1157-3.008C816.4618,1005.54,811.08,1005.9947,805.7389,1005.5444Z" transform="translate(-552.2902 -945.7724)" style="fill:#687710"/><path d="M590.3651,1011.4982c-6.3625,3.8261-12.7881,3.6475-19.5787,2.4909.49,2.8741.07,4.1043,3.1944,5.903,3.4164,3.1826,8.529,6.2535,11.2548,8.0784,8.9844-5.1009,19.5865-3.8943,28.1075-11.47,2.9344-1.095,5.928-1.292,8.8624-2.387a124.3152,124.3152,0,0,1,20.3033-17.37C587.7522,994.6334,612.1362,989.02,590.3651,1011.4982Z" transform="translate(-552.2902 -945.7724)" style="fill:#556810"/><path d="M581.1637,982.8406c-4.8737,5.131-17.4241,10.8675-22.58,11.7078a7.3046,7.3046,0,0,0-5.17,2.1441c13.6009,2.6126,27.6849.3831,41.0113-2.6985C595.9738,987.0773,588.8786,984.3373,581.1637,982.8406Z" transform="translate(-552.2902 -945.7724)" style="fill:#557710"/><path d="M594.687,975.136c-4.7975,1.7187-9.7408,2.7455-13.5233,7.7045,7.6151,1.5033,14.81,4.2368,13.1611,11.16,4.6557.6958,14.6132,1.2432,19.3359,1.4335C617.1438,982.8783,606.1924,977.8865,594.687,975.136Z" transform="translate(-552.2902 -945.7724)" style="fill:#657d10"/><path d="M609.3158,965.9557c-5.7822,1.984-9.1656,6.9168-14.6288,9.18,11.5987,2.6442,22.4568,7.7422,19.0734,20.2914,9.2077-1.7082,19.198-.6619,28.7418,1.2155,11.2415-7.3539,25.0209-3.5505,38.375-.12C665.2844,974.299,636.18,969.0986,609.3158,965.9557Z" transform="translate(-552.2902 -945.7724)" style="fill:#678710"/><path d="M642.4466,953.1528c-6.28.5134-8.563,2.3673-13.199,1.9708-1.1173-.2271-3.306.0171-3.1813,1.9131-1.7277,5.7257-7.1595,2.3752-11.8191,6.1893-1.1646.5778-3.5738,2.0391-4.8382,2.6234,26.8643,3.1429,55.8622,8.25,71.5549,30.4676,3.4649.8743,6.83,1.7553,10.1754,2.3369-1.3314,1.09-2.7559,2.2859-4.0872,3.3756,6.9888-4.97,14.62-6.2734,23.2392-4.736C697.256,971.2933,667.8957,962.2014,642.4466,953.1528Z" transform="translate(-552.2902 -945.7724)" style="fill:#557710"/><path d="M669.32,945.7724l-.2993.02c23.1383,19.6231,68.2145,16.2563,76.0072,50.9194,6.3521.5842,9.0516,2.01,8.9413,6.4268,3.088-1.8066,18.5821-3.9285,14.9992,1.0174a14.4558,14.4558,0,0,1,2.8215-1.288c-5.483-13.2686-16.49-23.6684-26.3591-33.5417-10.55-8.0247-25.0158-10.0793-34.4139-18.8812-1.7567.7169-2.0718,3.5437-4.598,1.7056-.3322-.4792-7.0493-2.0415-12.9484-3.3571-2.8464-.6144-3.6578-.7615-4.5362-.403-2.0364,1.0359-3.5148,2.9371-5.6286,1.2723C679.1173,946.9317,672.6327,945.8551,669.32,945.7724Z" transform="translate(-552.2902 -945.7724)" style="fill:#466610"/><path d="M745.2246,969.2393c9.8762,9.9731,20.8827,20.3729,26.3592,33.5417,4.7108-1.5126,11.3425-1.2474,17.5882-.7564l-5.0942-1.2682a52.0134,52.0134,0,0,0,6.2049,1.3956l.0132.2c10.0822,2.4432,21.94,5.9724,31.4767.1336-.3546-5.3884-7.8922-4.1909-10.7728-3.8009-.6985.0459.7983-.0525-13.7624-.4975-19.756-.2033-24.6-22.0324-44.5461-32.7458-17.6829-12.8668-11.6355-6.25-19.8729-11.1193a5.3928,5.3928,0,0,0-5.7337-.3242c-1.4915,1.7016-13.9514-4.8945-16.4736-3.6262C720.2089,959.16,734.7748,961.2082,745.2246,969.2393Z" transform="translate(-552.2902 -945.7724)" style="fill:#657d10"/><path d="M665.8605,946.5012c-1.1515.7773-1.0989,1.5755-2.144,2.446-.8587.6578-1.5637.604-4.5572.8009-5.4947.2614-5.2755.5476-6.293.3139-2.4474-.6407-3.85-2.1519-4.6085-1.5006a5.3711,5.3711,0,0,1-5.9108,4.598c25.449,9.0486,54.9156,18.2337,67.7579,44.3469,5.76.7233,11.6524,1.9391,17.5463,1.6515-.0932.1063-.08.3059-.1733.4123a38.4443,38.4443,0,0,1,17.3506-2.8454c-7.8925-34.6565-52.6562-31.11-76.0073-50.9194A5.453,5.453,0,0,0,665.8605,946.5012Z" transform="translate(-552.2902 -945.7724)" style="fill:#556824"/><path d="M566.9616,998.5068a26.834,26.834,0,0,1-13.5418-1.7145c-1.3248,1.19-1.2066,2.9857.8022,3.0539,7.648,2.0021,11.8062,8.8439,16.4252,13.5507,15.5808,5.2884,24.6756-4.2292,31.9517-18.5379C588.8958,995.26,579.4334,999.1894,566.9616,998.5068Z" transform="translate(-552.2902 -945.7724)" style="fill:#678710"/><path d="M640.3989,998.1844a122.2781,122.2781,0,0,0-18.1,15.8225c-2.9344,1.0951-5.9279,1.2921-8.8624,2.3871-8.5209,7.5758-19.123,6.3692-28.1075,11.47,1.0793,5.7415,5.0785,4.0753,9.0936,7.2185,36.3622,4.3218,67.5433-15.2677,96.63-36.2227C674,995.5726,654.7638,986.5161,640.3989,998.1844Z" transform="translate(-552.2902 -945.7724)" style="fill:#466610"/><path d="M691.1182,999.8579c-30.3224,18.9318-59.9949,40.1257-96.6958,35.2249,2.8846,2.7165,10.76,3.6013,10.35,8.0377,4.5731,4.0085,12.9812,3.856,17.8956,5.4367,9.7211-3.0448,20.4453,3.0643,30.0075-.8721,28.1929-10.1731,49.8485-29.8373,75.0018-48.1283.0932-.1063.08-.3059.1734-.4123C714.859,999.6988,701.7137,993.3482,691.1182,999.8579Z" transform="translate(-552.2902 -945.7724)" style="fill:#657d10"/><path d="M722.9521,1002.3732c-22.9988,19.0512-44.0925,35.0707-70.3764,45.3186-9.4558,4.03-20.2864-2.1727-30.0074.8721,1.0963,1.4311.0958,4.5034,2.7034,4.5323,5.0549.6695,7.2278,3.2323,13.1939,4.0424a3.47,3.47,0,0,1,2.3738,1.0464c.5974,1.4639-.063,3.6119,2.1126,3.1681,4.3774-.4884,9.0975,2.7086,15.2118,1.2038,3.9061-1.56,6.5767,2.4736,10.2214,3.0354,28.9333-20.2434,54.7942-49.1036,85.5775-62.5538C755.3674,993.9267,732.484,994.9313,722.9521,1002.3732Z" transform="translate(-552.2902 -945.7724)" style="fill:#566610"/></g><g id="Branch_copy_9" data-name="Branch copy 9"><path d="M683.6,955.6562c8.1968,5.7742,27.3515,9.0236,34.8459,11.7374,9.98,5.4565,20.6213,14.8782,26.3972,28.0273-10.59.4964-20.8615,1.2725-31.4439.3653-5.3911-11.8716-17.3522-18.5006-28.276-24.5965a108.05,108.05,0,0,0-36.26-14.9515,104.7275,104.7275,0,0,1,35.4406,16.208c9.7264,6.1747,20.8564,12.3573,25.7827,23.2574-8.7338-.2271-17.4557,1.2487-26.2288.423a45.6032,45.6032,0,0,0-23.1935-17.4148c-14.7209-7.45-30.521-13.0241-47.2257-11.023,16.7375-1.5022,32.2711,4.5911,46.6191,12.466a42.5976,42.5976,0,0,1,20.78,15.77c-21.5088-3.9964-42.9572-.9816-64.6616-1.8584-2.6-9.0489-7.8923-19.4238-18.8962-17.5973,10.7307-1.4076,15.6045,8.6942,17.792,17.57-6.4125.0211-12.8381-.1574-19.3109.469-1.3249-6.4269-6.2616-12.9168-13.5865-11.5329,6.9652-.7589,11.3833,5.4644,12.4955,11.7048-13.1794,2.27-26.3062,5.3387-39.7614,3.4181,15.2171,2.8069,31.7248-2.1877,46.4994-3.06-4.06,9.8879-11.6929,21.8148-24.0229,18.7177,19.5263,4.3272,20.1234-17.0581,27.9473-18.4748,9.0331.2073,23.5871.5524,33.9371.9738-13.3315,16.7114-29.0278,21.8531-47.627,30.0921,19.8426-7.6193,36.5433-12.7268,50.6271-30.1892,15.6806-2.3346,30.8229,2.3814,46.514,3.253a143.961,143.961,0,0,1-44.9447,28.2118c-13.1885,5.1772-27.8764,13.4594-42.1063,7.38,14.15,6.3848,29.1633-1.518,42.4713-6.4023A146.2878,146.2878,0,0,0,691.9964,999.5a240.7239,240.7239,0,0,1,33.0129.6338c-11.5092,9.3759-24.4864,16.2428-36.3278,25.14-16.2136,10.9883-34.311,31.4206-55.5836,23.4,21.2187,8.7257,40.041-11.3534,56.58-21.9622,13.132-9.0819,27.38-16.4332,39.9475-26.48,7.8029-.2128,15.5729-.9245,23.3482-.0331-5.9069,7.7045-16.9973,9.737-24.5664,16.5487-16.0954,12.7844-30.4431,27.7588-48.286,38.3532,18.0753-10.1087,32.8485-24.71,49.17-37.1085,8.66-6.9837,19.811-9.6215,27.128-17.2183a116.1488,116.1488,0,0,0,11.7719,2.2319c-13.24,10.4919-24.22,23.3406-37.3531,33.9257-7.43,7.4038-17.7562,10.3882-25.7376,17.0266,8.0878-6.5451,18.4207-9.43,25.9569-16.74,13.5325-10.6114,25.0049-23.5927,38.65-34.0112,17.0132,2.6888,34.2287,2.3577,51.2419,5.0465l1.2354-5.5931c-16.9935-2.3894-34.5818-1.633-51.6751-4.0159-9.1187-16.7374-23.1149-31.45-42.1015-36.7149,16.0535,4.8564,33.0419,20.8756,40.6914,36.6073-7.1569-.6315-14.02-2.8857-21.2305-2.8122-5.5972-11.9583-18.3185-24.0491-29.4025-29.5332-12.51-2.7846-33.9044-8.0914-45.9705-16.3169C676.4258,951.7187,680.0627,953.6842,683.6,955.6562Z" transform="translate(-552.2902 -945.7724)" style="fill:#86882a"/></g></g></svg>