<svg id="pizza" xmlns="http://www.w3.org/2000/svg" xmlns:xlink="http://www.w3.org/1999/xlink" viewBox="0 0 90.8889 91.2609"><defs><radialGradient id="radial-gradient" cx="1327.7673" cy="1812.2147" r="43.8103" gradientTransform="translate(-603.4551 -740.9368) rotate(-10.929)" gradientUnits="userSpaceOnUse"><stop offset="0" stop-color="#cae119"/><stop offset="0.3589" stop-color="#94b520"/><stop offset="0.7923" stop-color="#598327"/><stop offset="1" stop-color="#42702a"/></radialGradient></defs><g id="chilli_green_a"><path d="M1089.1,783.5c-9.1-33-51.4-41.1-73.5-22-6.5,4.3-14.6,31-13.9,38.8,1.1,25,32,33.8,52.1,35.3,11.4-1.1,19.3-8.7,23.5-12.7C1089.4,814.4,1093.1,792.9,1089.1,783.5Zm-70.3,25.8c-8.8-9.3-1.7-30.1,5.7-37.9,7.4-5.8,15.5-8.4,21.6-5.5,4.1,4.5,4.9,11,3.2,16.7-4.2,6.2-13,10.9-11.7,18.6-.1,3.8,4,14.5,2,16.5C1032.5,820.6,1023.3,814.5,1018.8,809.3Zm56.5-6.1c-2.5,4.2-16.5,19.5-22.6,16.1-8.7-8.8-6.7-21.4,1.4-29.3,3.5-3.4,5.5-10,6.5-14,.5-3.6.6-4.8,3.6-5.5C1073.1,772.6,1081.5,789.8,1075.3,803.2Z" transform="translate(-999.7575 -744.3391)" style="fill:#1a4f23"/><path d="M1087.2,776.5c-9.1-33-51.4-41.1-73.5-22-6.5,4.3-14.6,31-13.9,38.8,1.1,25,32,33.8,52.1,35.3,11.4-1.1,19.3-8.7,23.5-12.7C1087.5,807.3,1091.2,785.8,1087.2,776.5Zm-70.4,25.7c-8.8-9.3-1.7-30.1,5.7-37.9,9.8-7.8,24.5-11.2,25.2,3,1,5.5.5,8.5-4.6,13.1-10.7,8.7-6.5,11.9-6.8,22.7-.3,3.1-.4,4.6-1,5.3-5.8,3.5-14.8-1-18.5-6.2Zm56.5-6c-3.8,6.5-16.1,17.2-23.8,18.5-3.9-2.7-5.1-14.1-5-16.2.1-5.9,11.1-19.3,11.9-22.7,1.9-6.7-.9-10.5,1.7-12.5a3.0443,3.0443,0,0,1,4.1.2c8.1,4.8,17.9,18,11.1,32.7Z" transform="translate(-999.7575 -744.3391)" style="fill:url(#radial-gradient)"/><path d="M1048.1,776.2a7.358,7.358,0,0,1-8.6.1c-2-.7-6.1-2.1-8.1-2.8v-.6c5.4-1.1,14.2-4,16.9,2.7Z" transform="translate(-999.7575 -744.3391)" style="fill:#ff8902"/><path d="M1039.4,785.5c-1.7,1.8-4.4,2.2-5.8-.1a17.3282,17.3282,0,0,1-3.7-4.4l.3-.5a51.359,51.359,0,0,1,5.5.6C1038.3,780.5,1040,783.3,1039.4,785.5Z" transform="translate(-999.7575 -744.3391)" style="fill:#ff8902"/><path d="M1037,797.5c-4.2,4.3-9.3-.5-14-1.6v-.6c4.5-1.3,11.9-4.5,14.1,1.6Z" transform="translate(-999.7575 -744.3391)" style="fill:#ff8902"/><path d="M1037.6,805.2a4.0164,4.0164,0,0,1-5.8-.2,38.1693,38.1693,0,0,1-4.7-3.5l.2-.5a37.5015,37.5015,0,0,1,5.8.2c2.4-.4,4.2,1.2,4.7,3.5Z" transform="translate(-999.7575 -744.3391)" style="fill:#ff8902"/><path d="M1056.5,772.9c1.4-6,9.3-2.2,11.2,1.6l-.3.4c-3.6-1.8-7.4,1.3-10.7-1.5Z" transform="translate(-999.7575 -744.3391)" style="fill:#ff8902"/><path d="M1045.3,792.5c1.5-1.3,3.6-1.8,4.9,0,1.3.9,2.7,1.9,3.9,2.9l-.1.5c-2,.5-4.3.3-6.3.4C1046,796.3,1044.7,793.9,1045.3,792.5Z" transform="translate(-999.7575 -744.3391)" style="fill:#ff8902"/><path d="M1052.7,780.8c5.2-4.8,10,2.7,12.4,6.8l-.4.5c-2.8-.6-5.9-1.8-8.7-1.9C1053.8,786,1052.3,782.8,1052.7,780.8Z" transform="translate(-999.7575 -744.3391)" style="fill:#ff8902"/><path d="M1045.6,807.5c1.1-7.3,9.4-6,14.5-9.1l.6.6c-2.5,5.4-8.2,14.9-14.8,9.3Z" transform="translate(-999.7575 -744.3391)" style="fill:#ff8902"/></g></svg>