<svg id="pizza" xmlns="http://www.w3.org/2000/svg" xmlns:xlink="http://www.w3.org/1999/xlink" viewBox="0 0 90.8888 91.2609"><defs><radialGradient id="radial-gradient" cx="1115.753" cy="1901.2279" r="43.8103" gradientTransform="translate(-603.4551 -740.9368) rotate(-10.929)" gradientUnits="userSpaceOnUse"><stop offset="0" stop-color="#fe6413"/><stop offset="1" stop-color="#c10a20"/></radialGradient></defs><g id="chilli_red_b"><path d="M897.8,911.1c-9.1-33-51.4-41.1-73.5-22-6.5,4.3-14.6,31-13.9,38.8,1.1,25,32,33.8,52.1,35.3,11.4-1.1,19.3-8.7,23.5-12.7C898.1,942,901.8,920.5,897.8,911.1Zm-70.3,25.8c-8.7-9.3-1.7-30.1,5.7-37.9h0s6.9-3.7,8-4.2c1.7-.2,2.8,15.2,8.3,16.7,8.8-.6,3.8-4.3-.7-14.1-.5-1.2-1.8-4.2-.9-4.9,2.1-.1,5.2-.8,6.9,1,4.1,4.5,4.9,11,3.2,16.7-4.2,6.2-13,10.9-11.7,18.6-.1,3.8,4,14.5,2,16.5-7,2.8-16.3-3.2-20.8-8.4Zm56.5-6.1c-2.5,5.2-12.8,13.3-18.3,16.6-7.2-6.3-12.1-13-7.3-24.1,2.3-3.8,5.8-6.7,7.8-10.6,2.3-4.5,2.7-10,4.3-13.4,9.4-5.8,20.3,19.9,13.5,31.5Z" transform="translate(-808.4576 -871.9391)" style="fill:#89091e"/><path d="M895.9,904.1c-9.1-33-51.4-41.1-73.5-22-6.5,4.3-14.6,31-13.9,38.8,1.1,25,32,33.8,52.1,35.3,11.4-1.1,19.3-8.7,23.5-12.7C896.2,934.9,899.9,913.4,895.9,904.1Zm-48.7-18.8c10.5-2.6,13,19.4,4.6,22.7-2.2,0-2.5-4.2-7.9-14.8a12.42,12.42,0,0,1-2.1-6.9,51.1569,51.1569,0,0,1,5.4-1Zm-21.7,44.5c-4.8-7.9-5.7-9.8-2.6-21,3.1-9.7,4.4-14.3,10.6-18.8.8,8.4,13.2,18.6,12.3,24.2-2.3,4.4-1.6,11.4-.1,15.3.4,14-15.1,7.5-20.2.3Zm56.5-6c-3.8,6.5-16.1,17.2-23.8,18.5-3.9-2.7-5.1-14.1-5-16.2.1-5.9,11.1-19.3,11.9-22.7,1.9-6.7-.9-10.5,1.7-12.5a3.0443,3.0443,0,0,1,4.1.2C879.1,895.9,888.8,909.1,882,923.8Z" transform="translate(-808.4576 -871.9391)" style="fill:url(#radial-gradient)"/><path d="M846,916.1a7.358,7.358,0,0,1-8.6.1c-2-.7-6.1-2.1-8.1-2.8v-.6c5.4-1.1,14.2-4,16.9,2.7Z" transform="translate(-808.4576 -871.9391)" style="fill:#ff8902"/><path d="M845.8,926.7a5.2775,5.2775,0,0,1-7.5.6,32.6765,32.6765,0,0,1-6.4-4l.2-.6a59.284,59.284,0,0,1,7.3-.1,5.4436,5.4436,0,0,1,6.5,3.5Z" transform="translate(-808.4576 -871.9391)" style="fill:#ff8902"/><path d="M864,900c5.2-3.8,8.6,3.8,9.4,8l-.5.3C869.8,905.5,862.8,905.5,864,900Z" transform="translate(-808.4576 -871.9391)" style="fill:#ff8902"/><path d="M857.4,912.9c1.5-1.9,3.9-2.9,5.8-1a32.0819,32.0819,0,0,1,5,3.1l-.1.6c-2.4.7-4.9.7-7.3,1.3C858.9,917.2,857.1,914.6,857.4,912.9Z" transform="translate(-808.4576 -871.9391)" style="fill:#ff8902"/><path d="M851.9,931.2c2.7-5,8.9-2.8,13.3-5.4l.4.4c-2.5,4.3-9.2,11.1-13.7,5.5Z" transform="translate(-808.4576 -871.9391)" style="fill:#ff8902"/></g></svg>