<svg id="pizza" xmlns="http://www.w3.org/2000/svg" xmlns:xlink="http://www.w3.org/1999/xlink" viewBox="0 0 90.8888 91.2609"><defs><radialGradient id="radial-gradient" cx="1505.2054" cy="1749.2222" r="43.7057" gradientTransform="translate(-408.4531 -866.769)" gradientUnits="userSpaceOnUse"><stop offset="0" stop-color="#f7d050"/><stop offset="0.1991" stop-color="#f8ca47"/><stop offset="0.5238" stop-color="#f9bb2f"/><stop offset="0.9315" stop-color="#fca207"/><stop offset="1" stop-color="#fc9d00"/></radialGradient></defs><g id="chilli_yellow_b"><path d="M1142.2,879.2c-9.1-33-51.4-41.1-73.5-22-6.5,4.3-14.6,31-13.9,38.8,1.1,25,32,33.8,52.1,35.3,11.4-1.1,19.3-8.7,23.5-12.7C1142.5,910,1146.2,888.5,1142.2,879.2Zm-70.3,25.7c-8.7-9.3-1.7-30.1,5.7-37.9h0s6.9-3.7,8-4.2c1.7-.2,2.8,15.2,8.3,16.7,8.8-.6,3.8-4.3-.7-14.1-.5-1.2-1.8-4.2-.9-4.9,2.1-.1,5.2-.8,6.9,1,4.1,4.5,4.9,11,3.2,16.7-4.2,6.2-13,10.9-11.7,18.6-.1,3.8,4,14.5,2,16.5-7.1,2.9-16.3-3.1-20.8-8.4Zm56.5-6c-2.5,5.2-12.8,13.3-18.3,16.6-7.2-6.3-12.1-13-7.3-24.1,2.3-3.8,5.8-6.7,7.8-10.6,2.3-4.5,2.7-10,4.3-13.4,9.4-5.8,20.2,19.9,13.5,31.5Z" transform="translate(-1052.8576 -840.0391)" style="fill:#d64c32"/><path d="M1140.3,872.2c-9.1-33-51.4-41.1-73.5-22-6.5,4.3-14.6,31-13.9,38.8,1.1,25,32,33.8,52.1,35.3,11.4-1.1,19.3-8.7,23.5-12.7C1140.6,903,1144.3,881.5,1140.3,872.2Zm-48.7-18.8c10.5-2.6,13,19.4,4.6,22.7-2.2,0-2.5-4.2-7.9-14.8a12.4193,12.4193,0,0,1-2.1-6.9,46.8259,46.8259,0,0,1,5.4-1Zm-21.7,44.5c-4.8-7.9-5.7-9.8-2.6-21,3.1-9.7,4.4-14.3,10.6-18.8.8,8.4,13.2,18.6,12.3,24.2-2.3,4.4-1.6,11.4-.1,15.3.3,14-15.1,7.5-20.2.3Zm56.5-6.1c-3.8,6.5-16.1,17.2-23.8,18.5-3.9-2.7-5.1-14.1-5-16.2.1-5.9,11.1-19.3,11.9-22.7,1.9-6.7-.9-10.5,1.7-12.5a3.0442,3.0442,0,0,1,4.1.2C1123.4,864,1133.2,877.2,1126.4,891.8Z" transform="translate(-1052.8576 -840.0391)" style="fill:url(#radial-gradient)"/><path d="M1090.3,884.1a7.3579,7.3579,0,0,1-8.6.1c-2-.7-6.1-2.1-8.1-2.8v-.6c5.4-1.1,14.2-4,16.9,2.7Z" transform="translate(-1052.8576 -840.0391)" style="fill:#ff8902"/><path d="M1090.2,894.7a5.2775,5.2775,0,0,1-7.5.6,32.68,32.68,0,0,1-6.4-4l.2-.6a59.284,59.284,0,0,1,7.3-.1,5.4435,5.4435,0,0,1,6.5,3.5Z" transform="translate(-1052.8576 -840.0391)" style="fill:#ff8902"/><path d="M1108.4,868c5.2-3.8,8.6,3.8,9.4,8l-.5.3C1114.2,873.5,1107.2,873.5,1108.4,868Z" transform="translate(-1052.8576 -840.0391)" style="fill:#ff8902"/><path d="M1101.8,880.9c1.5-1.9,3.9-2.9,5.8-1a32.0866,32.0866,0,0,1,5,3.1l-.1.6c-2.4.7-4.9.7-7.3,1.3C1103.3,885.2,1101.5,882.6,1101.8,880.9Z" transform="translate(-1052.8576 -840.0391)" style="fill:#ff8902"/><path d="M1096.3,899.3c2.7-5,8.9-2.8,13.3-5.4l.4.4c-2.5,4.3-9.2,11.1-13.7,5.5Z" transform="translate(-1052.8576 -840.0391)" style="fill:#ff8902"/></g></svg>