<?xml version="1.0" encoding="utf-8"?>
<!-- Generator: Adobe Illustrator 27.0.1, SVG Export Plug-In . SVG Version: 6.00 Build 0)  -->
<svg version="1.1" id="bin" xmlns="http://www.w3.org/2000/svg" xmlns:xlink="http://www.w3.org/1999/xlink" x="0px" y="0px"
	 viewBox="0 0 1200 1200" style="enable-background:new 0 0 1200 1200;" xml:space="preserve">
<style type="text/css">
	.st0{fill:#2E2D2D;}
	.st1{fill:#1E1E1E;}
	.st2{fill:#202020;}
	.st3{fill:#1D1D1D;}
	.st4{fill:#1B1B1B;}
	.st5{fill:#1C1C1C;}
	.st6{fill:#1F1F1F;}
	.st7{fill:#1C1C1D;}
	.st8{fill:#595959;}
</style>
<path class="st0" d="M1179.8,368.5c-7.2-65.1-17.9-122.9-19.7-132.9c-3-16.2-4.5-24.4-6.2-30.9c-6.3-24.3-17.8-68.6-52.5-106.1
	c-37.4-34.7-81.7-46.2-106.1-52.5c-6.6-1.7-14.7-3.2-30.9-6.2c-10-1.9-67.8-12.5-132.9-19.7C731,9,628.5,7.8,600,7.6
	C571.5,7.8,469,9,368.5,20.2C303.4,27.4,245.6,38,235.6,39.9c-16.2,3-24.4,4.5-30.9,6.2C180.3,52.4,136,63.9,98.6,98.6
	C63.9,136,52.4,180.3,46.1,204.7c-1.7,6.6-3.2,14.7-6.2,30.9c-1.9,10-12.5,67.8-19.7,132.9C9,469,7.8,571.5,7.6,600
	C7.8,628.5,9,731,20.2,831.5c7.2,65.1,17.9,122.9,19.7,132.9c3,16.2,4.5,24.4,6.2,30.9c6.3,24.3,17.8,68.6,52.5,106.1
	c37.4,34.7,81.7,46.2,106.1,52.5c6.6,1.7,14.7,3.2,30.9,6.2c10,1.9,67.8,12.5,132.9,19.7c100.5,11.1,203,12.3,231.5,12.6
	c28.5-0.2,131-1.4,231.5-12.6c65.1-7.2,122.9-17.9,132.9-19.7c16.2-3,24.4-4.5,30.9-6.2c24.3-6.3,68.6-17.8,106.1-52.5
	c34.7-37.4,46.2-81.7,52.5-106.1c1.7-6.6,3.2-14.7,6.2-30.9c1.9-10,12.5-67.8,19.7-132.9c11.1-100.5,12.3-203,12.6-231.5
	C1192.2,571.5,1191,469,1179.8,368.5z"/>
<path class="st1" d="M1113.9,394.8c-6.4-57.7-15.8-109-17.5-117.8c-2.7-14.4-4-21.6-5.5-27.4c-5.6-21.6-15.8-60.8-46.5-94
	c-33.2-30.7-72.4-40.9-94-46.5c-5.8-1.5-13-2.8-27.4-5.5c-8.8-1.6-60.1-11.1-117.8-17.5C716.1,76.3,625.3,75.2,600,75
	c-25.3,0.2-116.1,1.3-205.2,11.1c-57.7,6.4-109,15.8-117.8,17.5c-14.4,2.7-21.6,4-27.4,5.5c-21.6,5.6-60.8,15.8-94,46.5
	c-30.7,33.2-40.9,72.4-46.5,94c-1.5,5.8-2.8,13-5.5,27.4c-1.6,8.9-11.1,60.1-17.5,117.8C76.3,483.9,75.2,574.7,75,600
	c0.2,25.3,1.3,116.1,11.1,205.2c6.4,57.7,15.8,109,17.5,117.8c2.7,14.4,4,21.6,5.5,27.4c5.6,21.6,15.8,60.8,46.5,94
	c33.2,30.7,72.4,40.9,94,46.5c5.8,1.5,13,2.8,27.4,5.5c8.9,1.6,60.1,11.1,117.8,17.5c89,9.9,179.9,10.9,205.2,11.1
	c25.3-0.2,116.1-1.3,205.2-11.1c57.7-6.4,109-15.8,117.8-17.5c14.4-2.7,21.6-4,27.4-5.5c21.6-5.6,60.8-15.8,94-46.5
	c30.7-33.2,40.9-72.4,46.5-94c1.5-5.8,2.8-13,5.5-27.4c1.6-8.8,11.1-60.1,17.5-117.8c9.9-89,10.9-179.9,11.1-205.2
	C1124.8,574.7,1123.7,483.9,1113.9,394.8z"/>
<g id="Layer_5">
	<path class="st2" d="M1059.5,174.6c-4.6-6.7-9.6-13-15.1-19c-33.2-30.7-72.4-40.9-94-46.5c-5.8-1.5-13-2.8-27.4-5.5
		c-0.8-0.2-2-0.4-3.5-0.6l29.5,80L1059.5,174.6z"/>
	<path class="st3" d="M949,183l89.9,89l19.9-97.4L948,178C948.3,179.7,948.7,181.3,949,183z"/>
	<path class="st4" d="M1096.4,277c-2.7-14.4-4-21.6-5.5-27.4c-4.6-17.6-12.2-46.8-31.4-75l-0.6,0.1l-19.9,97.4l67.5,65.1
		C1101.7,306,1097.5,282.7,1096.4,277z"/>
	<path class="st1" d="M805.2,86.1c-16.2-1.8-32.4-3.3-48.3-4.5l179.6,88.8l-17-67.4C904.6,100.2,857.5,91.9,805.2,86.1z"/>
	<path class="st5" d="M756.9,81.6c-16.3-1.3-32.1-2.3-47.2-3.2l59.1,165.4l81.1-116.3L756.9,81.6z"/>
	<path class="st3" d="M949,183c-0.7-2.3-1.3-4.7-2-7l-97.2-48.5l-81.1,116.3l1,2.9L949,183z"/>
	<path class="st1" d="M949,183l-121.7,42.3l234.7,69.1L949,183z"/>
	<path class="st3" d="M1113.9,394.8c-2.3-20.6-4.9-40.3-7.5-57.7l-44.3-42.8l-59.5-17.5l117.3,186.3
		C1118.4,441.1,1116.4,417.9,1113.9,394.8z"/>
	<path class="st1" d="M709.6,78.4C658.2,75.6,616,75.1,600,75c-8.3,0.1-23.6,0.2-43.5,0.7l188.9,102.8L709.6,78.4z"/>
	<path class="st3" d="M243.9,1089.4L110.3,954.7c5.8,22.2,16.6,58.6,45.4,89.6C186.1,1072.5,221.6,1083.4,243.9,1089.4z"/>
	<path class="st1" d="M249.6,109.1c-21.6,5.6-60.8,15.8-94,46.5c-30.7,33.2-40.9,72.4-46.5,94c-0.5,2-1,4.1-1.5,6.6l161-151.1
		C259.6,106.9,254.2,108,249.6,109.1z"/>
	<polygon class="st6" points="933.7,256.6 961,389.6 1002.1,276.8 	"/>
	<polygon class="st1" points="1069.6,383.4 1002.6,276.9 1002.1,276.8 961,389.6 961.2,390.7 	"/>
	<path class="st5" d="M751.6,196.1l-6.3-17.5L556.5,75.7c-7,0.2-14.6,0.4-22.7,0.7l79.3,152.8L751.6,196.1z"/>
	<path class="st2" d="M336.4,93.7c-30.8,4.6-53.8,8.8-59.4,9.9c-3.2,0.6-6,1.1-8.5,1.6l-55.1,51.7l152.7,61.4L336.4,93.7z"/>
	<path class="st7" d="M80.7,744.7c1.4,19.7,3.2,40.1,5.5,60.5c6.4,57.7,15.8,109,17.5,117.8c2.7,14.4,4,21.6,5.5,27.4
		c0.4,1.4,0.7,2.8,1.1,4.3l5.6,5.6l77.9-132.9L80.7,744.7z"/>
	<path class="st3" d="M550,1039.9l-35.9,28.8c-3.1,17.9-6.2,35.7-9.2,53.6c44.8,2.2,80.7,2.6,95.1,2.7c9.1-0.1,26.5-0.3,49.4-0.9
		L550,1039.9z"/>
	<path class="st1" d="M536,923l-21.9,145.7l35.9-28.8L536,923z"/>
	<path class="st1" d="M702.3,1122c31.8-1.6,67.5-4.2,102.9-8.1c36.5-4,70.3-9.3,92.6-13l24.5-20.3L698.5,981L702.3,1122z"/>
	<path class="st1" d="M1060.1,966.7l33.3-27.5c0.8-4.2,1.8-9.4,3.1-16.2c1.6-8.8,11.1-60.1,17.5-117.8c3.1-27.8,5.3-55.8,6.9-81.9
		l-158,99.4L1060.1,966.7z"/>
	<polygon class="st5" points="549.7,1040.6 648.1,1124 644.1,1012.6 	"/>
	<polygon class="st3" points="698.9,995.4 644.1,1011.6 644.3,1016.2 702.3,1121.3 	"/>
	<path class="st5" d="M644.3,1016.2l3.8,106.8l1.3,1.1c15.5-0.4,33.5-1.1,52.9-2.1l0-0.7L644.3,1016.2z"/>
	<path class="st2" d="M1120.8,723.3c0.7-11.8,1.3-23.2,1.8-34l-112.4-86.5l-1.4,191L1120.8,723.3z"/>
	<polygon class="st5" points="813.1,1032 1013.3,1005.3 1060.1,966.7 989.1,861.7 810.5,1030.8 	"/>
	<path class="st3" d="M75,600c0.1,19.5,0.8,78.1,5.7,144.7l97.5,71.3L78.2,494.4C75.6,544,75.1,584.4,75,600z"/>
	<polygon class="st1" points="213.5,156.9 133.8,231.6 162.6,427.7 216,157.9 	"/>
	<polygon class="st5" points="216,157.9 162.6,427.7 163.2,432.5 358.4,215.1 	"/>
	<path class="st1" d="M394.8,86.1c-20.9,2.3-40.9,5-58.4,7.6l1.4,6l270.7,120.9L533.8,76.5C494.7,77.9,444.5,80.6,394.8,86.1z"/>
	<polygon class="st1" points="608.5,220.6 337.9,99.7 366.2,218.2 358.4,215.1 350,224.4 609.8,223.1 	"/>
	<polygon class="st1" points="966.2,390.4 966.5,391.5 969.2,390.2 	"/>
	<polygon class="st3" points="1069.6,383.4 969.2,390.2 966.5,391.5 1013.5,581.5 1013.6,581.3 1070,383.9 	"/>
	<polygon class="st1" points="1013.6,581.3 1071.6,480.9 1041.5,483.7 	"/>
	<polygon class="st2" points="1070,383.9 1041.5,483.7 1071.6,480.9 1100.1,431.7 	"/>
	<polygon class="st2" points="413.7,490.4 305.1,274.5 163.3,432.4 	"/>
	<polygon class="st3" points="120.1,629.3 177,812.5 325.7,593.8 	"/>
	<path class="st1" d="M328.2,590.1L164.7,442.4l0.5,3.7l-86.9,46c0,0.8-0.1,1.5-0.1,2.3l41.9,134.9l205.6-35.6L328.2,590.1z"/>
	<polygon class="st1" points="335.2,1005.1 335.4,1005.3 390.6,986.6 336.8,855.8 	"/>
	<polygon class="st1" points="1008.5,793.9 1008.8,793.8 1010.1,614.3 842.5,705.6 	"/>
	<polygon class="st5" points="846.7,409.8 828.5,225.6 827.3,225.3 780.4,242.8 674.8,355.9 	"/>
	<polygon class="st5" points="965.6,826.8 962.8,822.7 1008.5,793.9 868.3,719.3 839.9,903.7 	"/>
	<polygon class="st5" points="177,811.5 178.1,815 193.7,826.5 190.7,831.7 191.2,844.3 201.1,855.2 314.8,786.5 289.9,645.5 	"/>
	<polygon class="st5" points="379.9,482.6 163.3,432.4 163.2,432.5 164.7,442.4 277.7,544.4 	"/>
	<polygon class="st1" points="350,224.4 305.1,274.5 392.8,448.8 354.7,224.4 	"/>
	<polygon class="st5" points="588,223.2 357.3,224.4 482.3,353.1 	"/>
	<polygon class="st1" points="482.3,353.1 357.3,224.4 354.7,224.4 392.8,448.8 397.2,457.7 	"/>
	<path class="st5" d="M966.5,391.5L850,449l166,121L966.5,391.5z"/>
	<polygon class="st1" points="840,902.7 868.3,719.3 864.3,717.2 799,868.6 	"/>
	<polygon class="st2" points="567.3,248.6 459.1,381.6 543.4,469.8 	"/>
	<polygon class="st1" points="380.2,482.6 379.9,482.6 277.7,544.4 279.2,545.8 448.5,609.9 	"/>
	<polygon class="st1" points="279.2,545.8 328.2,590.1 325.7,593.8 337.7,591.7 325.7,593.8 315.5,608.8 411.7,596 	"/>
	<polygon class="st1" points="337.7,777 336.8,855.8 337.6,857.8 460.6,747 	"/>
	<polygon class="st3" points="1010.1,614.3 1010.2,602.8 1003.9,598 1013.5,581.5 1010.2,568.2 961.4,527.6 864.7,693.5 	"/>
	<polygon class="st1" points="618.1,228.1 613.1,229.3 609.8,223.1 588,223.2 567.3,248.6 548.2,425.4 662.9,341.1 	"/>
	<path class="st4" d="M961.4,527.6L850,449c10.8,71.4,21.6,142.7,32.5,214.1L961.4,527.6z"/>
	<polygon class="st3" points="707.3,984.8 839.9,903.7 840,902.7 803.3,872.2 704,983.4 	"/>
	<polygon class="st2" points="456,806.9 452.4,817.2 539.1,785.5 460.2,747.3 337.6,857.8 338.1,858.9 452.4,817.2 	"/>
	<polygon class="st3" points="338.1,858.9 390.6,986.6 393.1,985.7 392.2,987.7 392.4,987.9 452.4,817.2 	"/>
	<polygon class="st1" points="670,359 669.4,357.6 669.5,359.3 	"/>
	<path class="st5" d="M882.4,664.2l0.1-0.1C871.6,592.7,860.8,521.4,850,450L721.9,642.9L882.4,664.2z"/>
	<polygon class="st2" points="315.5,608.8 289.9,646.5 290.2,648.5 326.7,665.9 407.8,596.5 	"/>
	<polygon class="st5" points="411.7,596 407.8,596.5 326.7,665.9 426,713.4 417.1,598 	"/>
	<path class="st4" d="M850,450l-3-40l-171.3,52.2l0.3,5.1l121.2,63.5L850,450z"/>
	<polygon class="st5" points="459.1,381.6 397.2,457.7 402.8,468.9 537.9,464 	"/>
	<polygon class="st1" points="863.1,716.5 842.5,705.6 846.2,703.6 739.8,645.5 727.3,755.5 	"/>
	<polygon class="st3" points="797.2,529.9 676,466.3 679.3,521.3 791.1,538.9 	"/>
	<polygon class="st5" points="588.9,395.5 548.2,425.4 544.8,457 650.6,491.3 	"/>
	<polygon class="st1" points="455.2,816.1 533.2,915.1 525.2,790.6 	"/>
	<polygon class="st1" points="787.5,889.9 803.3,872.2 799,868.6 801.5,862.9 719.8,766.8 729,869.8 	"/>
	<polygon class="st1" points="659.3,504.9 650.6,491.3 544.8,457 543.5,469.3 605.5,601.6 	"/>
	<polygon class="st1" points="538.3,464.5 537.9,464 402.8,468.9 413.7,490.4 413.3,490.3 498.7,605.1 	"/>
	<polygon class="st1" points="787.5,889.9 729,869.8 728.9,869.1 675.8,897.3 770.2,909.3 	"/>
	<path class="st3" d="M584,904l114.9,91.4l5.1-12c-11.4-21-22.7-41.9-34.1-62.9L584,904z"/>
	<polygon class="st5" points="728.6,865.4 720.5,774.5 577.1,822.3 	"/>
	<polygon class="st2" points="543.5,469.3 543.4,469.8 538.3,464.5 502.6,591.5 598.1,585.8 	"/>
	<polygon class="st1" points="413.3,490.3 380.2,482.6 435,584.7 478.2,577.5 	"/>
	<polygon class="st3" points="675.8,897.3 728.9,869.1 728.6,865.4 596.9,828 655.5,894.7 	"/>
	<polygon class="st1" points="680,532 680.3,537.5 659.3,504.9 620.5,574.7 722,602.9 	"/>
	<polygon class="st2" points="478.2,577.5 435,584.7 448.5,609.9 417.1,598 417.2,599.6 506.5,679.8 497.8,603.9 	"/>
	<polygon class="st1" points="720,774.7 588.3,713 595.5,816.2 	"/>
	<polygon class="st1" points="596.6,585.9 502.6,591.5 502.3,592.4 547.7,692.4 	"/>
	<path class="st5" d="M739.6,646.7l0.1-1.2c-1.8-7.3-3.7-14.6-5.5-21.9L722,602.9L621.5,575l70.8,76.5L739.6,646.7z"/>
	<polygon class="st1" points="720.5,774.5 719.8,766.8 713.5,759.4 727.3,755.5 727.3,755.3 727.4,754.6 727,754.2 606.1,721.4 
		720,774.7 	"/>
	<polygon class="st1" points="417.2,599.6 426,713.4 480.9,739.7 417.9,600.2 	"/>
	<polygon class="st5" points="505.9,674.7 544.2,684.9 502.3,592.4 498.7,605.1 497.8,603.9 	"/>
	<polygon class="st1" points="598.1,585.8 596.6,585.9 563.8,657.3 605,600.5 	"/>
	<polygon class="st2" points="592.4,771.9 588.8,720.5 530.1,781.2 536.3,784.2 	"/>
	<polygon class="st1" points="692.3,651.5 621.5,575 620.5,574.7 619.9,575.8 634,657.5 	"/>
	<polygon class="st5" points="727,754.2 631.6,661.8 606.2,721.4 	"/>
	<polygon class="st1" points="631.6,661.8 627.8,658.1 634,657.5 619.9,575.8 605.5,601.6 605,600.5 563.8,657.3 560.7,664 
		623.4,681 	"/>
	<polygon class="st1" points="586.1,723.2 588.8,720.5 588.3,713 606.1,721.4 606.2,721.4 623.4,681 560.7,664 547.7,692.4 
		545.4,687.5 512.5,745.3 512.6,746 	"/>
	<polygon class="st1" points="512.5,745.3 545.4,687.5 544.2,684.9 505.9,674.7 506.5,679.8 500.4,674.3 	"/>
	<polygon class="st1" points="586.1,723.2 512.6,746 512.6,746.2 512.8,746.2 512.6,746.2 517.6,775.1 530.1,781.2 	"/>
	<polygon class="st1" points="500.4,674.3 417.9,600.2 480.9,739.7 484.1,741.2 477.8,742.8 512.6,746.2 	"/>
	<polygon class="st1" points="512.6,746.2 477.8,742.8 460.6,747 460.2,747.3 517.6,775.1 	"/>
	<polygon class="st1" points="595.5,816.2 592.4,771.9 536.3,784.2 539.1,785.5 525.2,790.6 525.5,795.5 595.1,816.3 	"/>
	<polygon class="st2" points="727.4,754.6 739.6,646.7 627.8,658.1 	"/>
	<polygon class="st1" points="655.4,894.7 655.5,894.7 596.9,828 577.1,822.3 595.1,816.3 525.5,795.5 525.6,797.2 553.7,850 
		655.6,895 	"/>
	<path class="st6" d="M669.9,920.5L655.6,895l-101.8-45l27.6,51.9L669.9,920.5z"/>
	<path class="st3" d="M581.4,901.9l-55.8-104.7L536,923L581.4,901.9z"/>
	<polygon class="st1" points="791.1,538.9 679.3,521.3 680,532 734.2,623.5 	"/>
	<polygon class="st1" points="704.7,982.5 770.2,909.3 655.4,894.7 	"/>
	<path class="st5" d="M698.9,995.4L584,904c19.8,36,39.5,71.9,59.3,107.9L698.9,995.4z"/>
	<path class="st6" d="M586.3,908.7l-47,12.9c3.5,39.5,7.1,78.9,10.6,118.4C562.1,996.2,574.2,952.5,586.3,908.7z"/>
	<path class="st3" d="M643.3,1011.9L581,902l-31.6,137.3l0.4,0.3L643.3,1011.9z"/>
	<path class="st3" d="M523.5,1017.4c4.2-31.5,8.3-62.9,12.5-94.4l-80.8-106.9l-1.4,0.5l57.6,251.1l0.8,0.5
		C516,1051.3,519.7,1034.4,523.5,1017.4z"/>
	<polygon class="st1" points="864.7,693.5 882.4,663.2 737,643.9 846.2,703.6 	"/>
	<polygon class="st5" points="846.8,411.5 846.7,409.8 675.4,356.1 670,359 670,359.1 670,359 669.5,359.3 675.7,461.2 	"/>
	<polygon class="st2" points="801.5,862.9 864.3,717.2 863.1,716.5 713.5,759.4 	"/>
	<polygon class="st1" points="669.5,359.3 669.5,359.3 669.5,359.3 669.4,357.6 662.9,341.1 588.9,395.5 680.3,537.5 	"/>
	<polygon class="st5" points="484.3,949.5 483.2,950 439.2,1019.3 511.5,1067.7 	"/>
	<polygon class="st1" points="393.1,986 392.4,987.9 439.2,1019.3 483.2,950 	"/>
	<polygon class="st5" points="453.8,816.6 452.4,817.2 393.1,986 484.3,949.5 	"/>
	<polygon class="st2" points="675.4,356.1 674.8,355.9 780.4,242.8 769.7,246.7 751.6,196.1 618.1,228.1 670,359 	"/>
	<polygon class="st3" points="290.2,648.5 314.8,787.5 337.7,773.7 337.7,777 484.1,741.2 	"/>
	<polygon class="st2" points="966.5,391.5 966.2,390.4 962.2,390.6 963.9,392.8 	"/>
	<polygon class="st1" points="933.7,256.6 831.3,226.5 960.8,389 	"/>
	<polygon class="st3" points="962.2,391.6 961.2,391.7 960.8,390 831.3,227.5 828.5,226.6 850.4,448.7 963.9,393.8 	"/>
	<polygon class="st1" points="336.8,855.8 336.3,854.6 201.4,856.5 262.8,924.7 336.8,857 	"/>
	<polygon class="st6" points="336.8,857 262.8,924.7 335.2,1005.1 	"/>
	<polygon class="st3" points="333,846.5 336.3,854.6 336.9,854.5 337.7,773.7 201.1,856.2 201.4,856.5 336.3,854.6 	"/>
	<polygon class="st1" points="336.3,854.6 336.8,855.8 336.9,854.5 	"/>
	<polygon class="st2" points="810.5,1030.8 989.1,861.7 965.6,826.8 707.3,984.8 	"/>
	<polygon class="st1" points="204.7,1049.9 335.4,1005.3 262.7,924.6 203.1,1048.2 	"/>
	<polygon class="st3" points="262.7,924.6 191.2,845.3 200.5,1045.6 203.1,1048.2 	"/>
	<polygon class="st1" points="190.7,832.7 115.9,960.4 116.5,961 196,948.8 	"/>
	<polygon class="st6" points="196,948.8 116.5,961 200.5,1045.6 	"/>
	<path class="st1" d="M338.9,1106.6c2,0.3,4.1,0.6,6.1,0.9l71-17.1l-24.1-102L338.9,1106.6z"/>
	<polygon class="st6" points="392.2,987.7 391.9,988.4 415.9,1089.8 437.9,1018.4 	"/>
	<path class="st3" d="M514,1069l-76.1-50.6l-22,71.4l0.1,0.6L514,1069z"/>
	<path class="st4" d="M504.9,1122.3l9.1-53.3l-168.9,38.5c15.3,2.2,32.2,4.4,49.8,6.4C432.9,1118.1,471.4,1120.7,504.9,1122.3z"/>
	<polygon class="st1" points="922.3,1080.6 1013.3,1005.3 813.1,1032 	"/>
	<path class="st4" d="M1119.9,464.2l-19.8-31.5l-27.2,47.1l52.1,120.7C1124.8,581.4,1124.2,527,1119.9,464.2z"/>
	<path class="st5" d="M1072.6,478.8L1004,598.1l118.9,91c1.8-42,2.1-75.5,2.2-89.3c0-0.2,0-0.3,0-0.5L1072.6,478.8z"/>
	<path class="st5" d="M393.1,985.7l-188.4,64.2l39.2,39.5c2,0.5,3.9,1,5.7,1.5c1.2,0.3,2.4,0.6,3.8,0.9L391.6,989L393.1,985.7z"/>
	<path class="st3" d="M338.9,1106.6L391.6,989l-138.2,102.7c5.3,1.2,12.2,2.5,23.6,4.6C282.8,1097.5,306.8,1101.9,338.9,1106.6z"/>
	<path class="st2" d="M133.8,231.6l-26.2,24.6c-1,4.9-2.2,11.3-4,20.8c-1.6,8.9-11.1,60.1-17.5,117.8c-3.7,33.3-6.2,67-7.8,97.3
		l86.9-46L133.8,231.6z"/>
	<path class="st2" d="M923,1096.4c14.4-2.7,21.6-4,27.4-5.5c21.6-5.6,60.8-15.8,94-46.5c30.7-33.2,40.9-72.4,46.5-94
		c0.8-3.1,1.5-6.5,2.5-11.2l-195.6,161.7C910.7,1098.7,919.7,1097,923,1096.4z"/>
</g>
<path class="st8" d="M1083.9,94.8c1.5,1.3,2.8,2.8,4,4.4c0.8,0.9,1.6,1.8,2.4,2.8l3.8-3.3l0.1,0.1c-0.1,0.2-0.1,0.4-0.2,0.6
	c-1.4,4.3-2.9,8.7-4.3,13c-0.1,0.2-0.2,0.4-0.5,0.5c-4.7,0.8-9.4,1.6-14.1,2.4c-0.1,0-0.2,0-0.3,0l4-3.4c-0.1-0.2-0.3-0.3-0.4-0.5
	c-2.9-3.4-5.8-6.8-8.7-10.2c-1.3-1.6-3-2.8-4.9-3.3c0.2-0.1,0.4-0.1,0.5-0.1c5.3-1,10.6-2,15.9-3c0.5-0.1,1-0.1,1.6-0.1L1083.9,94.8
	z"/>
<path class="st8" d="M1101.2,147.9c-0.2,0.3-0.4,0.5-0.5,0.8c-0.6,0.7-1.3,1.1-2.2,1.2c-2.5,0.5-4.9,1-7.4,1.5
	c-0.2,0-0.3,0.1-0.6,0.1l1,5.1c-0.2-0.2-0.3-0.3-0.4-0.5c-3-3.4-6.1-6.8-9.1-10.2c-0.3-0.2-0.3-0.6-0.2-1c1.6-4.2,3.1-8.5,4.7-12.7
	c0.1-0.2,0.1-0.3,0.2-0.5l0.1,0l0.9,5c0.2,0,0.4-0.1,0.6-0.1c4.2-0.8,8.4-1.6,12.6-2.4c2.3-0.2,4.4-1.2,6.1-2.8L1101.2,147.9z"/>
<path class="st8" d="M1061.8,155.4c-0.4-0.3-0.9-0.6-1.3-1c-2.3-1.8-3.1-4.9-2.2-7.6c0.5-1.6,1-3.1,1.6-4.6c0.1-0.2,0.2-0.3,0.4-0.4
	c5.2-1,10.4-2,15.6-3l2.7,14.8c-0.2,0-0.4,0.1-0.5,0.1c-3.8,0.7-7.6,1.5-11.4,2.2c-1,0.1-2,0.2-3,0.1L1061.8,155.4z"/>
<path class="st8" d="M1066.7,133.5l-4.9-1.7c-0.1,0.2-0.1,0.3-0.2,0.4c-1.6,4.5-3.2,9-4.7,13.5c-0.6,1.7-0.7,3.6-0.2,5.3
	c-0.2-0.2-0.3-0.3-0.4-0.4c-3.5-4.1-7.1-8.2-10.6-12.3c-1-1.1-1.3-2.6-0.8-4c0.8-2.3,1.6-4.6,2.4-6.9l0.2-0.6l-4.7-1.7l0-0.1
	c0.1,0,0.2-0.1,0.4-0.1c4.6-0.9,9.1-1.9,13.7-2.8c0.2,0,0.4,0,0.6,0.2c3.1,3.6,6.1,7.3,9.1,11
	C1066.6,133.3,1066.6,133.3,1066.7,133.5z"/>
<path class="st8" d="M1065.8,120.5l-14.3-5l0.2-0.5c1.3-3.7,2.6-7.4,3.9-11.1c1.2-3.7,5.1-5.7,8.8-4.7c1.4,0.4,2.7,1.2,3.7,2.3
	c1,1.1,2,2.2,3,3.3c0.1,0.2,0.2,0.3,0.1,0.5c-1.7,5-3.5,9.9-5.2,14.9C1065.8,120.4,1065.8,120.5,1065.8,120.5z"/>
<path class="st8" d="M1086.8,120.9l11.5-9.8c0.1,0.1,0.2,0.2,0.3,0.3c2.5,3,5,6,7.7,8.9c2.6,2.9,2.4,7.5-0.5,10.1
	c-0.8,0.7-1.8,1.3-2.9,1.6c-1.7,0.5-3.5,0.8-5.3,1.1c-0.2,0-0.3,0-0.4-0.2c-3.4-4-6.9-8-10.3-12C1086.9,121,1086.8,121,1086.8,120.9
	z"/>
<path class="st8" d="M148.5,102.3c0.8,1.8,1.4,3.7,1.8,5.7c0.4,1.2,0.7,2.3,1,3.5l4.8-1.4l0.1,0.1c-0.1,0.1-0.3,0.3-0.4,0.4
	c-3.2,3.3-6.3,6.6-9.5,9.9c-0.1,0.2-0.4,0.3-0.6,0.2c-4.6-1.3-9.2-2.6-13.8-3.9c-0.1,0-0.2-0.1-0.2-0.1l5.1-1.4
	c-0.1-0.2-0.1-0.4-0.1-0.6c-1.2-4.3-2.4-8.6-3.5-13c-0.5-2-1.5-3.8-3-5.1c0.3,0,0.4,0.1,0.5,0.1c5.2,1.3,10.4,2.7,15.6,4.1
	c0.5,0.2,1,0.4,1.4,0.6L148.5,102.3z"/>
<path class="st8" d="M141.4,157.7c-0.3,0.2-0.5,0.3-0.8,0.5c-0.8,0.4-1.7,0.4-2.5,0.2c-2.4-0.6-4.9-1.2-7.3-1.9
	c-0.2,0-0.3-0.1-0.6-0.1l-1.3,5c-0.1-0.3-0.2-0.4-0.2-0.6c-1.3-4.4-2.5-8.8-3.8-13.2c-0.1-0.3,0-0.7,0.3-1c3.2-3.2,6.5-6.3,9.7-9.5
	c0.1-0.1,0.2-0.2,0.4-0.4l0.1,0.1l-1.3,4.9c0.2,0.1,0.4,0.1,0.5,0.2c4.1,1.1,8.3,2.1,12.4,3.3c2.2,0.8,4.5,0.8,6.7,0.1L141.4,157.7z
	"/>
<path class="st8" d="M102.6,147.6c-0.3-0.5-0.6-1-0.8-1.5c-1.2-2.6-0.7-5.8,1.3-7.9c1.1-1.2,2.3-2.3,3.4-3.5
	c0.1-0.1,0.3-0.2,0.5-0.2c5.1,1.3,10.2,2.7,15.4,4l-3.9,14.6c-0.2,0-0.4-0.1-0.5-0.1c-3.7-1-7.5-1.9-11.2-2.9
	c-0.9-0.3-1.8-0.7-2.7-1.1L102.6,147.6z"/>
<path class="st8" d="M116.4,129.9l-3.7-3.6c-0.1,0.1-0.3,0.2-0.3,0.3c-3.4,3.4-6.7,6.8-10.1,10.2c-1.3,1.3-2.2,2.9-2.4,4.7
	c-0.1-0.3-0.2-0.4-0.2-0.5c-1.4-5.2-2.9-10.4-4.3-15.6c-0.4-1.4-0.1-2.9,1-3.9c1.7-1.7,3.4-3.5,5.2-5.2l0.5-0.5l-3.6-3.5l0.1-0.1
	c0.1,0,0.2,0,0.4,0c4.5,1.1,9,2.2,13.6,3.3c0.2,0.1,0.4,0.2,0.4,0.4c1.2,4.6,2.4,9.2,3.6,13.8C116.4,129.7,116.4,129.7,116.4,129.9z
	"/>
<path class="st8" d="M121.1,117.8l-10.7-10.6l0.4-0.4c2.7-2.8,5.5-5.6,8.2-8.3c2.6-2.8,7-3,9.9-0.5c1.1,1,1.9,2.3,2.3,3.7
	c0.5,1.4,0.8,2.9,1.2,4.3c0,0.2,0,0.4-0.1,0.5c-3.7,3.7-7.4,7.5-11.1,11.2C121.2,117.8,121.2,117.8,121.1,117.8z"/>
<path class="st8" d="M140,127.2l14.6-3.9c0.1,0.2,0.1,0.3,0.1,0.4c1,3.8,2,7.6,3.1,11.3c1.1,3.8-1,7.8-4.8,8.9
	c-1.1,0.3-2.2,0.4-3.3,0.2c-1.8-0.3-3.5-0.8-5.3-1.2c-0.2-0.1-0.3-0.2-0.3-0.3c-1.4-5.1-2.8-10.2-4.2-15.2
	C139.9,127.3,140,127.2,140,127.2z"/>
<path class="st8" d="M1052.7,1097.1c-0.7-1.9-1.3-3.8-1.7-5.7c-0.3-1.2-0.6-2.3-0.9-3.6l-4.9,1.3l-0.1-0.1c0.1-0.1,0.3-0.3,0.4-0.4
	c3.2-3.2,6.4-6.5,9.7-9.7c0.1-0.2,0.4-0.3,0.6-0.2c4.6,1.4,9.1,2.8,13.7,4.1c0.1,0,0.2,0.1,0.2,0.1l-5.1,1.3
	c0.1,0.2,0.1,0.4,0.1,0.6c1.1,4.3,2.2,8.7,3.3,13c0.4,2,1.4,3.8,2.9,5.2c-0.3,0-0.4-0.1-0.5-0.1c-5.2-1.5-10.4-2.9-15.6-4.4
	c-0.5-0.2-1-0.4-1.4-0.6L1052.7,1097.1z"/>
<path class="st8" d="M1060.8,1041.9c0.3-0.1,0.5-0.3,0.8-0.4c0.8-0.3,1.7-0.4,2.5-0.1c2.4,0.7,4.9,1.3,7.3,2c0.2,0,0.3,0.1,0.6,0.1
	l1.4-5c0.1,0.3,0.2,0.4,0.2,0.6c1.2,4.4,2.4,8.8,3.6,13.2c0.1,0.3,0,0.7-0.3,0.9c-3.3,3.1-6.6,6.2-9.9,9.3c-0.1,0.1-0.2,0.2-0.4,0.4
	l-0.1-0.1l1.4-4.8c-0.2-0.1-0.4-0.1-0.5-0.2c-4.1-1.2-8.3-2.3-12.4-3.5c-2.1-0.8-4.5-0.9-6.7-0.3L1060.8,1041.9z"/>
<path class="st8" d="M1099.4,1052.7c0.2,0.5,0.5,1,0.7,1.5c1.2,2.7,0.6,5.8-1.4,7.8c-1.1,1.2-2.3,2.3-3.5,3.4
	c-0.1,0.1-0.3,0.2-0.5,0.1c-5.1-1.4-10.2-2.9-15.3-4.3l4.2-14.5c0.2,0,0.4,0.1,0.5,0.1c3.7,1,7.4,2.1,11.2,3.2
	c0.9,0.3,1.8,0.7,2.7,1.2L1099.4,1052.7z"/>
<path class="st8" d="M1085.3,1070.2l3.6,3.7c0.1-0.1,0.3-0.2,0.4-0.3c3.4-3.3,6.9-6.7,10.3-10c1.3-1.2,2.2-2.9,2.5-4.7
	c0.1,0.3,0.1,0.4,0.2,0.5c1.3,5.2,2.7,10.5,4,15.7c0.4,1.4,0,2.9-1.1,3.9c-1.8,1.7-3.5,3.4-5.3,5.1l-0.5,0.4l3.5,3.6l-0.1,0.1
	c-0.1,0-0.2,0-0.4-0.1c-4.5-1.2-9-2.4-13.5-3.6c-0.2-0.1-0.4-0.2-0.4-0.4c-1.1-4.6-2.2-9.3-3.3-13.9
	C1085.3,1070.4,1085.3,1070.4,1085.3,1070.2z"/>
<path class="st8" d="M1080.4,1082.1l10.5,10.8l-0.4,0.4c-2.8,2.7-5.6,5.4-8.4,8.2c-2.7,2.8-7.1,2.9-9.9,0.3c-1.1-1-1.9-2.3-2.2-3.7
	c-0.4-1.4-0.8-2.9-1.1-4.3c0-0.2,0-0.4,0.1-0.5c3.8-3.7,7.5-7.3,11.3-11C1080.3,1082.2,1080.3,1082.2,1080.4,1082.1z"/>
<path class="st8" d="M1061.7,1072.4l-14.7,3.7c0-0.2-0.1-0.3-0.1-0.4c-1-3.8-1.8-7.6-2.9-11.4c-1.1-3.8,1.2-7.8,5-8.8
	c1.1-0.3,2.2-0.3,3.3-0.1c1.8,0.4,3.5,0.9,5.2,1.3c0.2,0.1,0.3,0.2,0.3,0.3c1.3,5.1,2.6,10.2,3.9,15.3
	C1061.7,1072.3,1061.7,1072.4,1061.7,1072.4z"/>
<path class="st8" d="M159.9,1064.3c-0.3,2-0.8,3.9-1.5,5.8c-0.3,1.2-0.7,2.3-1,3.5l4.8,1.4l0,0.1c-0.2,0.1-0.4,0.1-0.6,0.2
	c-4.4,1.2-8.8,2.3-13.3,3.4c-0.2,0.1-0.5,0-0.6-0.1c-3.2-3.5-6.4-7-9.7-10.6c0-0.1-0.1-0.1-0.1-0.2l5.1,1.5c0.1-0.2,0.1-0.4,0.2-0.6
	c1.3-4.3,2.6-8.6,3.8-12.9c0.7-1.9,0.7-4,0.1-6c0.2,0.2,0.3,0.3,0.4,0.4c3.7,3.9,7.4,7.8,11.2,11.7c0.3,0.4,0.6,0.8,0.9,1.2
	L159.9,1064.3z"/>
<path class="st8" d="M124.7,1107.7c-0.3,0-0.6,0-0.9,0c-0.9-0.1-1.7-0.5-2.2-1.2c-1.7-1.8-3.5-3.6-5.2-5.4c-0.1-0.1-0.2-0.2-0.4-0.4
	l-3.7,3.6c0.1-0.3,0.1-0.5,0.1-0.6c1.2-4.4,2.5-8.8,3.7-13.2c0.1-0.4,0.4-0.6,0.7-0.7c4.4-1,8.8-2,13.2-3c0.2,0,0.3-0.1,0.5-0.1
	l0.1,0.1l-3.7,3.4c0.1,0.2,0.3,0.3,0.4,0.4c2.9,3.1,5.9,6.2,8.8,9.3c1.4,1.8,3.4,3.1,5.6,3.6L124.7,1107.7z"/>
<path class="st8" d="M97.1,1078.6c0-0.6,0-1.1,0.1-1.7c0.3-2.9,2.4-5.3,5.2-6c1.6-0.5,3.2-0.8,4.7-1.2c0.2,0,0.4,0,0.5,0.1
	c3.6,3.8,7.3,7.6,11,11.5l-11,10.3c-0.1-0.1-0.3-0.3-0.4-0.4c-2.7-2.8-5.4-5.6-8-8.4c-0.6-0.8-1.2-1.6-1.7-2.4L97.1,1078.6z"/>
<path class="st8" d="M118.1,1070.8l-1.2-5c-0.2,0-0.3,0-0.4,0.1c-4.6,1.1-9.3,2.2-13.9,3.3c-1.8,0.4-3.4,1.3-4.6,2.7
	c0.1-0.3,0.1-0.4,0.1-0.5c1.5-5.2,3-10.4,4.6-15.6c0.4-1.4,1.5-2.5,2.9-2.8c2.4-0.6,4.8-1.2,7.2-1.7l0.6-0.2l-1.2-4.9l0.1-0.1
	c0.1,0.1,0.2,0.1,0.3,0.2c3.3,3.3,6.5,6.6,9.8,10c0.1,0.2,0.2,0.4,0.2,0.6c-1.4,4.5-2.8,9.1-4.3,13.6
	C118.2,1070.6,118.2,1070.7,118.1,1070.8z"/>
<path class="st8" d="M128.5,1063l-3.5-14.7l0.6-0.1c3.8-0.9,7.6-1.8,11.4-2.7c3.7-1,7.6,1.1,8.7,4.8c0.4,1.4,0.4,2.9,0,4.4
	c-0.4,1.4-0.8,2.9-1.2,4.3c-0.1,0.2-0.2,0.3-0.4,0.4c-5.1,1.2-10.2,2.5-15.3,3.7C128.6,1063.1,128.6,1063.1,128.5,1063z"/>
<path class="st8" d="M139.6,1080.9l14.5,4.3c0,0.2-0.1,0.3-0.1,0.4c-1.1,3.8-2.3,7.5-3.3,11.3c-1,3.8-5,6.1-8.8,5
	c-1.1-0.3-2.1-0.8-2.9-1.6c-1.3-1.2-2.6-2.5-3.8-3.8c-0.1-0.1-0.1-0.3-0.1-0.5C136.5,1091.1,138,1086.1,139.6,1080.9
	C139.5,1081,139.5,1081,139.6,1080.9z"/>
<g>
	<g>
		<path class="st8" d="M872.4,73.6c-0.2-0.1-0.4-0.1-0.3-0.1c-0.2-1.6-0.4-3.9-0.6-7c-0.3-4.5-0.4-6.8-0.7-11.3
			c-0.1-0.6-0.1-0.8-0.2-1.4c-0.3-1.8-0.4-3.1-0.4-3.9c0-0.1,0.1-0.3,0.2-0.4c0.1-0.1,0.2-0.2,0.3-0.1c0.1,0,0.1,0,0.2,0.1
			c0.1,0.1,0.2,0.2,0.3,0.4c0.1,0.2,0.1,0.3,0.1,0.5c0,0.2,0,0.3,0,0.4c0.1,1,0.1,1.5,0.2,2.5c0.1,0.7,0.1,1,0.1,1.7
			c0.2,4.4,0.3,6.5,0.6,10.9c0,1.2,0.1,1.8,0.1,3c0.1,1,0.1,2,0.1,2.9c0.2-0.9,0.3-1.3,0.4-2.2c0.3-1.4,0.4-2.1,0.7-3.6
			c0.6-2.7,0.9-4.1,1.5-6.8c0.4-1.9,0.7-3.2,0.8-3.8c0.1-0.6,0.2-1,0.3-1.6c0.2-0.6,0.2-0.9,0.4-1.5c0.2-0.6,0.3-1.2,0.4-1.7
			c0.1-0.4,0.3-0.6,0.7-0.5c0.1,0.1,0.1,0.1,0.2,0.1c0,0,0,0-0.1,0c0.1,0.1,0.2,0.2,0.3,0.3c-0.1,0.6-0.2,1.5-0.5,2.6
			c-0.1,0.5-0.2,0.7-0.3,1.2c-0.1,0.3-0.1,0.5-0.2,0.8c-0.5,2.2-0.8,3.6-1,4.2c-0.6,2.6-1.2,5.4-1.9,8.5c-0.7,3-1,4.9-1.1,5.4
			c-0.1,0.4-0.4,0.7-0.7,0.6C872.5,73.6,872.4,73.6,872.4,73.6z M872.5,71.8C872.5,71.7,872.5,71.7,872.5,71.8
			C872.5,71.7,872.5,71.7,872.5,71.8C872.5,71.8,872.5,71.8,872.5,71.8z"/>
		<path class="st8" d="M881.7,74.5c-0.4-0.3-0.7-0.6-0.9-0.9c-0.3-0.4-0.4-1.5-0.3-3.2c0-1.7,0.1-3.8,0.4-6c0.1-0.5,0.1-0.9,0.1-1.1
			c0.3-5.1,0.8-8.3,0.8-9.3c0.1-0.2,0.1-0.2,0.2-0.4c0.5,0.1,0.7,0.7,0.6,1.8c-0.3,3.3-0.5,5-0.9,8.3c-0.1,0.6-0.2,1.7-0.2,3.3
			c-0.1,1.5-0.1,2.6-0.2,3.3c-0.3,2.4,0.4,3.6,1.9,3.8c1,0.1,1.8-2,2.7-6.3c0-0.2,0.1-0.4,0.1-0.6c0.8-5.7,1.4-9.9,1.8-12.7
			c0-0.1,0-0.2,0-0.3c0-0.1,0-0.2,0-0.3c0-0.2,0.2-0.3,0.6-0.3c0.3,0,0.4,0.1,0.5,0.2c0,0.2,0,0.6-0.1,1.1c-0.2,1.6-0.4,2.6-0.6,3.2
			c0,0.1,0,0.1,0,0.2c0,0.3-0.1,0.7-0.3,1.2c-0.1,0.5-0.1,0.7-0.2,1.2c0,0.1,0,0.2,0,0.3c0,0.1,0,0.2,0,0.3c-0.1,0.5-0.2,1-0.2,1.4
			c0,0.1-0.1,0.4-0.1,0.7c-0.3,2-0.5,3.7-0.8,5.1c-0.3,1.8-0.7,3.3-1.3,4.5c-0.6,1.3-1.4,1.9-2.5,1.7
			C882.4,74.9,882.1,74.7,881.7,74.5z"/>
		<path class="st8" d="M896.3,73.9c-0.4-1.8-0.7-3.8-0.9-5.8c-0.2-2.1-0.3-3.5-0.2-4.3c0-0.1,0-0.1-0.1-0.1
			c-0.2,0.4-0.4,0.6-0.6,0.9c-0.3,0.4-0.5,0.7-0.7,1c-0.2,0.3-0.3,0.6-0.5,1c-0.2,0.4-0.3,0.8-0.4,1.2c-0.1,0.4-0.1,0.8-0.2,1.1
			c-0.1,0.4-0.1,0.7-0.2,1.1c-0.2,1.6-0.3,2.4-0.5,4c0,0.2,0,0.5,0,0.9c0,0.4,0,0.7,0,0.9c0,0.1-0.1,0.2-0.2,0.2
			c-0.1,0.1-0.2,0.1-0.4,0.1c-0.3,0-0.4-0.1-0.5-0.2c-0.1-0.1-0.1-0.3-0.1-0.5c0.3-2.3,0.5-3.5,0.8-5.9c0-0.3,0.2-1,0.4-1.9
			c0.2-1,0.4-1.6,0.4-1.9c0.1-0.9,0.3-1.9,0.6-3c0.2-1.1,0.4-2.1,0.5-3c0.2-1.7,0.3-2.6,0.6-4.3c0.2-0.2,0.4-0.3,0.7-0.3
			c0.2,0,0.3,0.1,0.4,0.2c0.1,0.1,0.1,0.3,0.1,0.4c-0.2,0.4-0.4,0.8-0.5,1.5c-0.2,1.3-0.3,2-0.5,3.3c-0.2,1-0.3,2.1-0.5,3.3
			c0.2,0,1.2-1.4,3.1-4c1.8-2.6,2.9-3.8,3-3.8c0.6,0.1,0.8,0.3,0.8,0.7c-1.7,1.8-3.1,3.5-4.2,5.3c-0.1,0.4-0.1,0.6-0.2,1
			c-0.1,0.3-0.1,0.6-0.2,1c-0.1,0.9,0,2.7,0.4,5.3c0.4,2.6,0.7,4.4,1.1,5.5c0.2,0.3,0.3,0.5,0.3,0.6c0.2,0.3,0.3,0.6,0.3,0.8
			c0.1,0.2,0.1,0.4,0.1,0.6c0,0.1-0.1,0.3-0.2,0.3c-0.1,0.1-0.2,0.1-0.4,0.1C897.2,76.9,896.8,75.9,896.3,73.9z"/>
		<path class="st8" d="M906.8,78c-0.1-0.1-0.1-0.3-0.1-0.6c0.1-1.5,0.1-2.5,0.1-2.9c0-0.5,0-0.8,0-1.3c-0.4-0.2-1-0.3-1.5-0.4
			c-0.4-0.1-0.7-0.1-1.1-0.2c-0.5-0.1-0.9-0.2-1.1-0.3c-0.1,0-0.2,0-0.2,0.1c0,0.1,0,0.1,0,0.1c-0.1,0.2-0.1,0.4-0.2,0.6
			c-0.1,0.4-0.3,1.1-0.7,2.2c-0.2,0.5-0.4,1-0.6,1.2c-0.2,0.3-0.4,0.5-0.5,0.5c-0.1,0-0.3-0.1-0.4-0.2c-0.1-0.1-0.2-0.3-0.2-0.4
			c0,0,0-0.1,0-0.1c0,0,0-0.1,0-0.1c0.6-1.4,1.1-2.8,1.6-4.2c0.3-0.7,0.4-1.1,0.7-1.9c0.3-0.9,0.4-1.4,0.7-2.3
			c0.3-0.8,0.4-1.2,0.7-2c0.2-0.5,0.5-1.4,1-2.6c0.5-1.4,0.8-2.3,1-2.8c0-0.1,0.1-0.4,0.3-1.1c0.2-0.8,0.4-1.3,0.5-1.7
			c0.2-0.5,0.3-0.8,0.3-0.9c0.1,0,0.1,0,0.2,0c0.1,0,0.1,0.1,0.2,0.1c0.3,0,0.5,0,0.6-0.1c0.2,0,0.3,0.1,0.4,0.2
			c0.1,0.1,0.1,0.2,0.1,0.4c-0.2,1-0.3,2.2-0.3,3.5c0,0.7,0,1.2-0.1,1.7c-0.2,2.7-0.4,7.8-0.7,15.3c0,0,0,0.1,0,0.1
			c0,0.2-0.1,0.3-0.3,0.4C907,78.1,906.8,78.1,906.8,78z M906.8,72.4c0.3-3,0.6-7.5,0.9-13.4c-1.2,3.2-1.8,4.8-3,8
			c-0.9,2.3-1.3,3.8-1.4,4.4c0,0.1,0.4,0.3,1.2,0.5c0.8,0.2,1.5,0.4,2.1,0.5C906.6,72.3,906.7,72.4,906.8,72.4z"/>
		<path class="st8" d="M911.9,78.3c-0.1,0-0.2,0-0.3,0c-0.1,0-0.1,0-0.2,0c-0.5-0.1-0.7-0.2-0.8-0.5c0-0.1,0.1-0.3,0.3-0.3
			c0.1-0.1,0.1-0.1,0.2-0.1c0.4,0.1,0.5,0.1,0.9,0.2c0.1,0,0.1-0.1,0.1-0.1c0-0.1,0.1-0.2,0.1-0.3c0-0.1,0.1-0.2,0.1-0.4
			c0.2-1.3,0.4-2.4,0.5-3.4c0.1-0.5,0.1-0.7,0.1-1.2c0.1-0.9,0.2-1.4,0.3-2.3c0.1-0.8,0.4-2,0.7-3.6c0.3-1.4,0.4-2.2,0.7-3.6
			c0.3-1.6,0.4-2.8,0.5-3.6c-0.2-0.1-0.5-0.2-0.9-0.3c-0.1,0-0.2,0-0.4,0c-0.1,0-0.3,0-0.4,0c-0.4-0.1-0.6-0.3-0.5-0.6
			c0-0.1,0.1-0.1,0.3-0.2c0.2-0.1,0.4-0.1,0.5,0c0.8,0.1,1.6,0.3,2.4,0.5c0.5,0.1,1,0.3,1.4,0.5c0.4,0.2,0.5,0.4,0.5,0.6
			c0,0-0.1,0.1-0.1,0.2c-0.3,0-0.4,0-0.7-0.1c-0.1-0.1-0.4-0.3-0.9-0.3c-0.1,0-0.1,0-0.2,0.1c0,0.2,0,0.8-0.2,1.7
			c-0.2,1.4-0.5,2.6-0.7,3.7c-0.3,1.5-0.4,2.2-0.7,3.7c-0.2,0.9-0.3,2.1-0.5,3.4c-0.2,1.5-0.4,2.7-0.5,3.4c0,0.2,0,0.2-0.1,0.4
			c0,0.1-0.1,0.3-0.1,0.6c-0.1,0.5-0.1,0.8-0.1,0.9c0,0,0,0,0,0.1c0,0.2,0.2,0.3,0.6,0.4c0.2,0,0.3,0,0.5,0.1c0.2,0,0.3,0,0.5,0.1
			c0.6,0.1,0.9,0.3,0.8,0.6c0,0.2-0.1,0.3-0.3,0.4c-0.1,0.1-0.3,0.1-0.5,0.1c-0.2,0-0.4-0.1-0.5-0.1c-0.1-0.1-0.3-0.1-0.5-0.1
			c-0.1,0-0.3,0-0.6,0.1c-0.3,0.1-0.5,0.1-0.6,0.1C912.2,78.7,911.9,78.6,911.9,78.3z"/>
		<path class="st8" d="M925.9,81.2c0-0.1-0.1-0.4-0.1-0.6c0-0.2,0-0.3,0-0.5c0,0,0-0.1,0-0.1c0-1-0.1-2.2-0.4-3.8
			c-0.1-0.7-0.1-1-0.3-1.7c0,0-0.1-0.6-0.3-1.7c0-0.3-0.1-0.5-0.1-0.8c-0.8-6.1-1.4-9.4-1.8-10c-0.3,0.5-0.5,1.2-0.7,2.1
			c-0.1,0.5-0.2,0.9-0.2,1.2c-0.1,0.5-0.1,0.7-0.2,1.2c-0.1,0.3-0.1,0.4-0.2,0.7c-0.1,0.2-0.1,0.5-0.2,0.7c-0.1,0.5-0.1,0.8-0.2,1.2
			c0,0.4-0.1,0.6-0.1,1c0,0-0.1,0-0.1,0c-0.6,3.4-0.9,5.4-0.8,5.7c-0.2,1.1-0.3,1.7-0.5,2.8c0.1,0.2,0.1,0.4,0,0.7
			c0,0.2-0.1,0.3-0.3,0.4c-0.1,0.1-0.3,0.1-0.5,0.1c-0.4-0.1-0.5-0.7-0.3-1.8c0.1-0.4,0.1-0.6,0.2-1c0.1-0.3,0.2-0.6,0.2-1
			c0.2-1,0.4-2.5,0.7-4.5s0.5-3.5,0.7-4.5c0.1-0.6,0.3-1.5,0.6-2.7c0.3-1.2,0.5-2.1,0.6-2.7c0-0.2,0-0.2,0.1-0.4
			c0.2-1,0.5-1.6,0.9-1.9c0,0,0,0.1,0.1,0.1c0.1,0,0.2,0,0.3,0c0.1,0,0.2,0.1,0.3,0.2c0.1,0.1,0.1,0.2,0.1,0.3c0,0.1,0,0.1,0,0.2
			c0,0,0,0.1,0,0.2c0.1,1.5,0.5,3.7,1.1,6.6c0.7,3,1.1,5,1.2,6c0.1,0.7,0.1,1.4,0.1,2c0.1,1.8,0.3,3.3,0.6,4.3c0,0,0,0,0.1-0.1
			c1.4-4.5,2.7-10,4.1-16.7c0-0.2,0-0.2,0-0.4c0-0.1,0-0.2,0-0.4c0.1-0.4,0.3-0.6,0.6-0.6c0.2,0,0.3,0.2,0.4,0.4
			c0.1,0.2,0.1,0.4,0.1,0.7c-0.2,0.8-0.2,1.2-0.4,2.1c-0.1,0.1-0.1,0.1-0.2,0.2c-0.4,2-1.2,5.1-2.3,9.5c-1.1,4.4-1.8,6.8-2.1,7.1
			c-0.2,0-0.3,0-0.5,0c0,0,0,0,0,0c0,0,0,0,0,0c-0.1,0-0.2,0-0.3,0C926,81.4,925.9,81.3,925.9,81.2z"/>
		<path class="st8" d="M937.6,83.8c-0.1-0.1-0.2-0.3-0.1-0.5c1-1.4,1.5-2,2.5-3.4c1.8-2.3,3.3-4.6,4.4-6.8c1.1-2.2,2-4.5,2.5-7
			c0.7-2.9,0.1-4.8-1-4.9c-0.2,0-0.6,0.2-0.8,0.5c-0.2,0.3-0.4,0.5-0.5,0.9c-0.3,0.7-0.5,1-0.8,1c-0.2,0-0.3-0.2-0.3-0.4
			c0-0.1,0-0.2,0.1-0.3c0.2-0.8,0.6-1.5,1.2-2c0.3-0.3,0.7-0.4,1-0.3c0.9,0.2,1.5,0.7,1.9,1.4s0.5,1.6,0.3,2.5c0,0,0,0,0,0.1
			c-0.1,0.4-0.2,0.8-0.2,1.1c-0.1,0.3-0.1,0.7-0.2,1.1c-0.4,1.7-1.1,3.7-2.1,6c-1,2.3-2,4.1-3,5.3c-0.5,0.7-0.8,1.1-1.3,1.8
			c-0.4,0.6-0.6,0.8-1,1.4c-0.5,0.7-0.9,1.2-1.1,1.5c-0.1,0.1-0.1,0.2-0.2,0.3c0,0.1,0,0.2,0.2,0.2c1.2,0,2.4,0.2,3.8,0.5
			c0.3,0.1,0.4,0.3,0.3,0.6c-0.1,0.3-0.2,0.4-0.4,0.3c-0.9-0.2-1.3-0.2-2.2-0.4c-1.2-0.2-1.9-0.3-2.3-0.4
			C937.9,84,937.7,83.9,937.6,83.8z"/>
		<path class="st8" d="M950.6,86.8c-0.2-0.2-0.4-0.3-0.4-0.4c-0.8-1-1-3-0.6-6.2c0.2-1.5,0.4-2.9,0.7-4.3c0.3-1.4,0.7-3.2,1.2-5.4
			c0.2-1,0.3-1.5,0.6-2.4c0.2-0.7,0.4-1.5,0.6-2.4c0.1-0.5,0.3-0.9,0.4-1.3c0.1-0.2,0.2-0.4,0.3-0.5c0.1-0.1,0.3-0.2,0.5-0.4
			c0.4-0.2,0.9-0.2,1.7,0c1.9,0.5,2.6,2.4,2.3,5.7c-0.4,3.5-1,7.2-2,10.9c-0.3,1.2-0.6,2.2-0.8,3c-0.3,0.9-0.7,1.8-1.2,2.5
			c-0.3,0.4-0.5,0.7-0.8,0.9c-0.3,0.2-0.6,0.4-0.9,0.4c-0.4,0.1-0.7,0.1-1.1,0C951,87,950.8,86.9,950.6,86.8z M953.1,85.3
			c0.5-0.9,0.9-1.8,1.2-2.7c0.3-1.1,0.6-1.9,0.7-2.2c0.2-0.7,0.5-2.1,0.9-4.3c0.4-2.2,0.7-3.6,0.8-4.2c0.1-0.3,0.1-0.4,0.2-0.7
			c0.2-1.2,0.3-2.3,0.3-3c0-0.7-0.1-1.3-0.2-1.8c-0.1-0.5-0.3-1-0.6-1.3c-0.3-0.4-0.7-0.6-1.2-0.8c-0.5-0.1-0.9-0.1-1.2,0.1
			c-0.3,0.2-0.5,0.5-0.6,1.1c0,0.2-0.1,0.3-0.1,0.5c0,0.2-0.1,0.3-0.1,0.5c-0.2,1.1-0.4,1.7-0.6,2.9c-0.3,1.2-0.4,1.7-0.6,2.9
			c-0.3,1.2-0.4,1.8-0.7,3c-0.3,1.2-0.5,2.5-0.7,3.8c-0.3,1.7-0.4,3.3-0.3,4.8c0,0.7,0.1,1.3,0.4,1.8c0.2,0.5,0.5,0.8,0.9,0.9
			C952.1,86.5,952.6,86.1,953.1,85.3z"/>
		<path class="st8" d="M957.8,88.6c-0.1-0.1-0.1-0.3-0.1-0.5c1-1.3,1.5-2,2.6-3.3c1.9-2.3,3.4-4.5,4.6-6.6s2.1-4.4,2.8-6.9
			c0.8-2.9,0.3-4.8-0.8-4.9c-0.2,0-0.6,0.2-0.8,0.4c-0.3,0.2-0.5,0.5-0.6,0.8c-0.3,0.7-0.6,1-0.8,1c-0.2-0.1-0.3-0.2-0.3-0.4
			c0-0.1,0-0.2,0.1-0.3c0.2-0.8,0.6-1.5,1.3-2c0.3-0.3,0.7-0.3,1-0.2c0.9,0.2,1.5,0.7,1.9,1.5c0.4,0.8,0.5,1.6,0.3,2.5
			c0,0,0,0,0,0.1c-0.1,0.4-0.2,0.8-0.3,1.1c-0.1,0.3-0.2,0.7-0.3,1.1c-0.5,1.7-1.2,3.6-2.3,5.9c-1.1,2.3-2.2,4-3.2,5.2
			c-0.6,0.7-0.8,1-1.4,1.7c-0.4,0.5-0.6,0.8-1.1,1.3c-0.6,0.7-0.9,1.2-1.1,1.5c-0.1,0.1-0.2,0.2-0.2,0.3c0,0.1,0,0.2,0.1,0.2
			c1.2,0.1,2.4,0.3,3.8,0.6c0.3,0.1,0.4,0.3,0.3,0.6c-0.1,0.3-0.2,0.4-0.4,0.3c-0.9-0.2-1.3-0.3-2.2-0.5c-1.1-0.2-1.9-0.3-2.3-0.4
			C958.1,88.8,957.9,88.7,957.8,88.6z"/>
		<path class="st8" d="M967.6,90.9c-0.1-0.1-0.1-0.3,0-0.5c0-0.1,0.1-0.1,0.1-0.2c0.1-0.1,0.1-0.1,0.2-0.1c0.4,0.1,0.5,0.1,0.9,0.2
			c0.3,0.1,0.5,0.2,0.8,0.3c0.3,0.1,0.5,0.1,0.7,0.1c0.1,0,0.2-0.2,0.3-0.5c1.3-4.7,2.7-10.6,4.2-17.6c0.1-0.4,0.2-0.6,0.3-1
			c0.1-0.4,0.2-0.6,0.3-1c0.1-0.3,0.1-0.6,0.1-0.7c0-0.1-0.1-0.3-0.3-0.4c-0.2-0.1-0.5-0.2-1-0.3c-0.1,0-0.2-0.1-0.4-0.1
			c-0.2,0-0.2,0-0.4-0.1c-0.4-0.1-0.5-0.3-0.4-0.5c0-0.1,0.1-0.2,0.2-0.2c0.1,0,0.3,0,0.5,0c0.3,0,1.1,0.3,2.5,0.6
			c0.1,0,0.3,0.1,0.3,0.3c0.1,0.1,0.1,0.3,0,0.4c-0.1,0.4-0.2,0.6-0.3,0.9c-0.2,0.6-0.4,1.6-0.7,2.9c-0.3,1.2-0.4,1.7-0.7,2.9
			c-0.1,0.4-0.4,1.9-1,4.3c-0.6,2.6-1.1,4.6-1.5,5.9c0,0.2-0.1,0.2-0.1,0.4c-0.2,0.7-0.2,1-0.4,1.7c-0.2,0.7-0.3,1.1-0.4,1.8
			c0,0.1-0.1,0.1-0.1,0.2c0,0.1-0.1,0.1-0.1,0.2c0,0.1,0.1,0.1,0.1,0.1c0.3,0.1,0.4,0.1,0.7,0.1c0.2,0,0.4,0.1,0.7,0.2
			c0.6,0.2,0.9,0.4,0.8,0.7c-0.1,0.3-0.3,0.4-0.8,0.2c-1-0.3-1.5-0.4-2.4-0.6c-0.8-0.2-1.6-0.4-2.5-0.6
			C967.8,91.1,967.7,91,967.6,90.9z"/>
	</g>
</g>
<g>
	<g>
		<path class="st8" d="M360.4,1162.6c-0.4-0.1-0.6-0.2-0.5-0.2c-0.4-2.5-0.7-6.3-0.9-11.2c-0.4-7.2-0.6-10.8-0.9-18
			c-0.1-0.9-0.1-1.3-0.2-2.2c-0.4-2.9-0.6-5-0.5-6.1c0-0.2,0.1-0.4,0.3-0.6c0.2-0.2,0.3-0.2,0.5-0.2c0.1,0,0.2,0.1,0.3,0.1
			c0.1,0.1,0.3,0.3,0.4,0.6c0.1,0.3,0.1,0.5,0.1,0.8c0,0.3,0,0.4,0,0.7c0.1,1.6,0.2,2.3,0.3,3.9c0.1,1.1,0.1,1.6,0.2,2.7
			c0.3,6.9,0.4,10.4,0.7,17.3c0.1,1.9,0.1,2.9,0.2,4.8c0.1,1.6,0.2,3.2,0.2,4.6c0.3-1.4,0.4-2.1,0.7-3.5c0.5-2.3,0.7-3.4,1.1-5.7
			c0.9-4.3,1.4-6.5,2.3-10.8c0.6-3.1,1-5.1,1.3-6c0.2-1,0.3-1.5,0.5-2.6c0.2-1,0.4-1.5,0.6-2.5c0.3-1,0.5-1.9,0.6-2.8
			c0.1-0.6,0.5-0.9,1-0.9c0.1,0.1,0.2,0.1,0.3,0.2c0,0-0.1,0-0.1,0c0.2,0.2,0.3,0.3,0.5,0.4c-0.1,1-0.4,2.4-0.8,4.2
			c-0.2,0.8-0.3,1.1-0.5,1.9c-0.1,0.5-0.2,0.7-0.3,1.2c-0.8,3.6-1.3,5.8-1.5,6.7c-0.9,4.2-1.9,8.7-3,13.5c-1.1,4.9-1.5,7.9-1.8,8.6
			c-0.2,0.6-0.7,1-1.1,1C360.5,1162.7,360.5,1162.7,360.4,1162.6z M360.6,1159.8c0-0.1,0-0.1,0-0.2c0,0.1-0.1,0.1-0.1,0.1
			C360.5,1159.8,360.5,1159.8,360.6,1159.8z"/>
		<path class="st8" d="M375.4,1164c-0.6-0.4-1.1-0.9-1.4-1.4c-0.4-0.6-0.6-2.4-0.6-5.1c0-2.8,0.1-6,0.4-9.5c0.1-0.8,0.1-1.4,0.1-1.8
			c0.4-8.1,1.1-13.3,1-14.8c0.1-0.3,0.2-0.4,0.4-0.7c0.8,0.2,1.1,1.1,0.9,2.8c-0.5,5.3-0.7,7.9-1.1,13.2c-0.1,0.9-0.2,2.7-0.3,5.3
			c0,2.3-0.1,4.1-0.2,5.3c-0.4,3.8,0.7,5.8,3.2,6c1.5,0.1,2.9-3.2,4-10.2c0.1-0.4,0.1-0.6,0.1-1c1.1-9.1,1.9-15.9,2.3-20.2
			c0-0.2,0-0.3,0-0.5c0-0.1,0-0.3,0-0.5c0-0.4,0.3-0.5,0.9-0.5c0.4,0,0.7,0.2,0.7,0.4c0.1,0.3,0,0.9-0.1,1.8
			c-0.2,2.5-0.5,4.2-0.8,5.1c0,0.1,0,0.2,0,0.3c0,0.4-0.2,1.1-0.3,2c-0.1,0.8-0.2,1.2-0.3,2c0,0.2,0,0.3,0,0.5c0,0.1,0,0.3,0,0.5
			c-0.1,0.8-0.2,1.6-0.3,2.3c0,0.2-0.1,0.6-0.2,1.1c-0.3,3.1-0.7,5.9-1,8.2c-0.4,2.9-1,5.3-1.9,7.2c-0.9,2-2.2,3-3.9,2.8
			C376.5,1164.6,376,1164.4,375.4,1164z"/>
		<path class="st8" d="M398.8,1162.3c-0.8-2.8-1.4-5.9-1.9-9.2c-0.5-3.3-0.7-5.6-0.7-6.9c-0.1-0.1-0.1-0.1-0.1-0.2
			c-0.4,0.6-0.5,0.9-0.9,1.5c-0.4,0.7-0.8,1.2-1,1.6c-0.2,0.4-0.4,1-0.7,1.6c-0.2,0.6-0.4,1.3-0.5,1.9c-0.1,0.7-0.1,1.3-0.3,1.8
			c-0.1,0.7-0.2,1.1-0.3,1.8c-0.2,2.6-0.3,3.8-0.6,6.4c0,0.3,0,0.8,0,1.5c0,0.6,0.1,1.1,0,1.4c0,0.2-0.1,0.3-0.3,0.4
			c-0.2,0.1-0.4,0.1-0.6,0.1c-0.4,0-0.7-0.1-0.9-0.3c-0.1-0.1-0.2-0.4-0.2-0.9c0.3-3.7,0.5-5.6,0.9-9.4c0-0.5,0.2-1.6,0.5-3.1
			c0.3-1.5,0.5-2.6,0.5-3.1c0.1-1.4,0.4-3,0.7-4.8c0.3-1.8,0.5-3.4,0.6-4.8c0.3-2.8,0.4-4.2,0.6-6.9c0.2-0.3,0.6-0.5,1-0.5
			c0.3,0,0.5,0.1,0.6,0.3c0.2,0.2,0.2,0.4,0.2,0.7c-0.3,0.6-0.5,1.4-0.6,2.4c-0.2,2.1-0.3,3.1-0.6,5.2c-0.2,1.6-0.4,3.3-0.6,5.3
			c0.3-0.1,1.9-2.3,4.5-6.5c2.7-4.2,4.1-6.4,4.3-6.3c0.9,0.1,1.3,0.4,1.2,1c-2.4,3-4.4,5.9-6.1,8.8c-0.1,0.6-0.1,1-0.2,1.6
			c-0.1,0.5-0.1,1-0.2,1.6c-0.1,1.5,0.2,4.3,1,8.4c0.8,4.1,1.5,7,2.2,8.6c0.3,0.5,0.5,0.8,0.6,0.9c0.3,0.5,0.5,0.9,0.6,1.2
			c0.1,0.3,0.2,0.7,0.1,1c0,0.2-0.1,0.4-0.3,0.5c-0.2,0.1-0.4,0.2-0.6,0.1C400.5,1166.9,399.7,1165.3,398.8,1162.3z"/>
		<path class="st8" d="M416,1167.6c-0.1-0.1-0.2-0.4-0.2-0.9c-0.1-2.5-0.2-4-0.2-4.6c0-0.8-0.1-1.2-0.1-2c-0.7-0.2-1.6-0.4-2.5-0.5
			c-0.7-0.1-1.1-0.2-1.8-0.3c-0.8-0.2-1.4-0.3-1.8-0.3c-0.2,0-0.3,0.1-0.4,0.2c0,0.1,0,0.1-0.1,0.1c-0.1,0.4-0.1,0.6-0.2,1
			c-0.1,0.6-0.4,1.8-0.9,3.5c-0.2,0.9-0.5,1.6-0.8,2c-0.3,0.5-0.6,0.8-0.8,0.8c-0.2,0-0.4-0.1-0.6-0.3c-0.2-0.2-0.3-0.4-0.3-0.6
			c0-0.1,0-0.1,0.1-0.1c0-0.1,0-0.1,0.1-0.1c0.8-2.3,1.5-4.6,2.1-6.9c0.3-1.2,0.5-1.8,0.9-3c0.4-1.5,0.6-2.2,0.9-3.7
			c0.3-1.3,0.5-1.9,0.8-3.2c0.2-0.9,0.7-2.3,1.3-4.3c0.7-2.2,1.1-3.7,1.2-4.6c0-0.1,0.2-0.7,0.4-1.8c0.2-1.2,0.5-2.2,0.6-2.8
			c0.2-0.8,0.3-1.3,0.4-1.5c0.1,0,0.2,0,0.3,0c0.1,0,0.2,0.1,0.3,0.1c0.4,0,0.7,0,0.9-0.2c0.2,0,0.4,0.1,0.6,0.3
			c0.2,0.2,0.2,0.3,0.2,0.5c-0.1,1.6-0.2,3.4-0.1,5.5c0,1.1,0.1,2,0.1,2.7c0,4.3,0.3,12.4,0.9,24.4c0,0.1,0,0.1,0,0.1
			c0,0.3-0.2,0.6-0.5,0.7C416.4,1167.8,416.1,1167.7,416,1167.6z M415.3,1158.7c0.1-4.8,0-11.9-0.2-21.3c-1.5,5.2-2.3,7.9-3.8,13.1
			c-1.1,3.8-1.7,6.1-1.8,7.1c0,0.2,0.6,0.4,1.9,0.6c1.3,0.2,2.4,0.4,3.4,0.5C415,1158.7,415.1,1158.7,415.3,1158.7z"/>
		<path class="st8" d="M424.2,1167.5c-0.2,0-0.3,0-0.4,0c-0.2,0-0.2,0-0.4,0c-0.7-0.1-1.2-0.3-1.4-0.6c0-0.2,0.2-0.4,0.5-0.6
			c0.1-0.1,0.2-0.1,0.3-0.2c0.6,0,0.9,0.1,1.5,0.1c0.1-0.1,0.1-0.1,0.2-0.2c0.1-0.2,0.1-0.3,0.1-0.4c0-0.2,0.1-0.4,0.1-0.6
			c0.2-2,0.3-3.8,0.3-5.4c0-0.7,0-1.1,0-1.9c0.1-1.5,0.1-2.2,0.2-3.6c0.1-1.3,0.3-3.2,0.6-5.8c0.2-2.3,0.3-3.5,0.6-5.8
			c0.2-2.5,0.3-4.5,0.2-5.8c-0.3-0.1-0.8-0.2-1.5-0.3c-0.2,0-0.3,0-0.6,0c-0.2,0-0.4,0-0.7,0c-0.6-0.1-0.9-0.4-0.9-0.9
			c0-0.1,0.2-0.3,0.5-0.4c0.3-0.1,0.6-0.2,0.8-0.1c1.3,0.1,2.6,0.3,3.8,0.5c0.7,0.1,1.5,0.3,2.3,0.6c0.6,0.2,0.9,0.6,0.8,0.9
			c0,0.1-0.1,0.2-0.2,0.4c-0.5,0-0.7,0-1.2,0c-0.2-0.2-0.7-0.4-1.4-0.4c-0.1,0.1-0.2,0.1-0.3,0.1c0.1,0.3,0.1,1.2-0.1,2.7
			c-0.2,2.2-0.3,4.2-0.5,5.9c-0.2,2.4-0.3,3.6-0.6,5.9c-0.1,1.5-0.2,3.3-0.2,5.5c-0.1,2.4-0.2,4.3-0.3,5.5c0,0.3,0,0.4-0.1,0.6
			c-0.1,0.2-0.1,0.5-0.1,0.9c-0.1,0.8,0,1.2,0,1.4c0,0,0,0.1-0.1,0.1c0,0.3,0.3,0.5,1.1,0.6c0.3,0,0.6,0,0.8,0c0.3,0,0.5,0,0.8,0.1
			c1,0.1,1.4,0.3,1.4,0.8c0,0.3-0.1,0.5-0.4,0.7c-0.2,0.2-0.5,0.2-0.8,0.2c-0.3,0-0.6-0.1-0.8-0.2c-0.2-0.1-0.6-0.1-0.9-0.1
			c-0.2,0-0.5,0-0.9,0.2c-0.4,0.1-0.7,0.2-0.9,0.2C424.8,1168,424.3,1167.8,424.2,1167.5z"/>
		<path class="st8" d="M447.1,1169.6c-0.1-0.2-0.2-0.5-0.3-0.9c0-0.3-0.1-0.5-0.2-0.7c0-0.1,0-0.1,0.1-0.1c-0.2-1.6-0.6-3.5-1.3-5.9
			c-0.3-1.1-0.4-1.6-0.7-2.7c-0.1-0.1-0.3-0.9-0.8-2.6c-0.1-0.5-0.2-0.7-0.3-1.2c-2.4-9.5-3.9-14.6-4.6-15.4c-0.3,0.9-0.6,2-0.7,3.5
			c-0.1,0.8-0.1,1.4-0.1,2c0,0.8-0.1,1.2-0.1,1.9c-0.1,0.5-0.1,0.7-0.1,1.2c-0.1,0.4-0.1,0.8-0.1,1.2c-0.1,0.7-0.1,1.4,0,1.9
			c0,0.6,0,1,0,1.6c-0.1,0-0.1,0-0.2,0c-0.4,5.6-0.5,8.6-0.3,9.2c-0.1,1.8-0.2,2.7-0.3,4.5c0.1,0.3,0.2,0.6,0.1,1.1
			c0,0.3-0.1,0.5-0.3,0.7c-0.2,0.2-0.4,0.3-0.7,0.2c-0.7-0.1-1-1-0.9-2.8c0.1-0.6,0.1-1,0.2-1.6c0.1-0.5,0.2-1,0.2-1.6
			c0.1-1.6,0.2-4,0.4-7.2c0.1-3.2,0.3-5.6,0.4-7.2c0.1-1,0.2-2.4,0.5-4.4c0.2-2,0.4-3.4,0.5-4.4c0-0.3,0-0.4,0-0.6
			c0.1-1.6,0.5-2.7,1.1-3.1c0.1,0.1,0.1,0.1,0.1,0.2c0.2,0,0.3,0,0.5-0.1c0.1,0,0.3,0.2,0.4,0.3c0.1,0.1,0.2,0.3,0.2,0.5
			c0,0.1,0,0.2,0.1,0.3c0,0.1,0,0.2,0,0.3c0.4,2.4,1.4,5.8,2.9,10.2c1.6,4.6,2.6,7.7,2.9,9.2c0.3,1.2,0.4,2.2,0.6,3.2
			c0.4,2.9,1,5.1,1.8,6.7c0-0.1,0.1-0.1,0.1-0.1c1.3-7.3,2.3-16.4,3-27.1c0-0.2,0-0.4,0-0.6c0-0.2,0-0.4,0-0.7c0-0.7,0.3-1,0.8-1
			c0.3,0,0.5,0.2,0.7,0.5c0.2,0.3,0.3,0.7,0.3,1c-0.1,1.3-0.1,2-0.2,3.3c-0.1,0.2-0.2,0.2-0.3,0.4c-0.2,3.2-0.8,8.3-1.6,15.5
			c-0.9,7.2-1.5,11.1-1.9,11.7c-0.3,0.1-0.5,0.1-0.9,0.1c0,0,0,0,0,0.1c0,0,0,0,0-0.1c-0.2,0-0.3,0.1-0.5,0.1
			C447.4,1169.9,447.3,1169.8,447.1,1169.6z"/>
		<path class="st8" d="M466.4,1171.1c-0.2-0.2-0.3-0.4-0.3-0.7c1.2-2.4,1.8-3.6,3.1-5.9c2.3-4.1,4-8.1,5.1-11.8
			c1.2-3.7,1.9-7.6,2.1-11.6c0.3-4.8-1.1-7.6-2.7-7.4c-0.4,0.1-0.8,0.5-1.1,1c-0.3,0.5-0.5,1-0.6,1.5c-0.2,1.2-0.5,1.8-1,1.7
			c-0.3,0-0.5-0.2-0.6-0.5c0-0.2,0-0.3,0-0.5c0.1-1.4,0.5-2.5,1.4-3.5c0.4-0.5,0.9-0.7,1.5-0.7c1.4,0.1,2.5,0.7,3.3,1.8
			c0.8,1.1,1.2,2.4,1.1,3.9c0,0,0,0.1-0.1,0.1c0,0.7-0.1,1.3-0.1,1.9c0,0.5,0,1.1-0.1,1.8c-0.2,2.8-0.7,6.1-1.7,9.9
			c-1,3.9-2.1,6.9-3.3,9.1c-0.7,1.3-1,1.9-1.7,3.2c-0.5,1-0.8,1.5-1.3,2.4c-0.7,1.3-1.1,2.2-1.3,2.7c-0.1,0.2-0.2,0.4-0.2,0.5
			c0,0.2,0.1,0.3,0.3,0.3c1.8-0.2,3.9-0.3,6.1-0.2c0.5,0,0.7,0.3,0.7,0.8c0,0.4-0.2,0.6-0.5,0.6c-1.4,0-2.2,0-3.6,0
			c-1.9,0.1-3.1,0.1-3.8,0C467,1171.4,466.7,1171.3,466.4,1171.1z"/>
		<path class="st8" d="M487.9,1172.4c-0.4-0.2-0.7-0.3-0.8-0.4c-1.6-1.3-2.5-4.5-2.7-9.5c-0.1-2.3-0.1-4.7-0.1-7
			c0-2.3,0.2-5.2,0.4-8.7c0.1-1.6,0.1-2.4,0.2-4c0.1-1.2,0.2-2.5,0.3-4c0-0.8,0.2-1.5,0.3-2.1c0.1-0.3,0.1-0.6,0.3-0.8
			c0.1-0.2,0.4-0.4,0.7-0.7c0.5-0.4,1.3-0.6,2.5-0.5c3,0.2,4.6,3,5,8.3c0.4,5.7,0.5,11.6,0.2,17.7c-0.1,2-0.2,3.7-0.4,4.9
			c-0.2,1.5-0.6,3-1.1,4.3c-0.3,0.7-0.6,1.2-1,1.6c-0.4,0.4-0.8,0.7-1.3,1c-0.5,0.2-1.1,0.3-1.7,0.3
			C488.5,1172.6,488.3,1172.5,487.9,1172.4z M491.5,1169.3c0.6-1.6,0.9-3.2,1.1-4.7c0.2-1.9,0.3-3.1,0.3-3.7c0.1-1.1,0.1-3.4,0.1-7
			c0-3.6,0-5.9,0.1-6.9c0-0.5,0-0.7,0.1-1.2c0-2-0.2-3.6-0.4-4.8c-0.2-1-0.5-2-0.8-2.7s-0.7-1.4-1.2-1.9c-0.5-0.5-1.3-0.8-2.1-0.8
			s-1.4,0.1-1.7,0.5c-0.3,0.4-0.5,1-0.6,1.8c0,0.3,0,0.6,0,0.8c0,0.3,0,0.5,0,0.8c-0.1,1.9-0.1,2.8-0.2,4.7
			c-0.1,1.9-0.1,2.8-0.2,4.7c-0.1,2-0.2,2.9-0.3,4.9c-0.1,1.9-0.1,4,0,6.2c0.1,2.7,0.3,5.3,0.9,7.6c0.2,1.1,0.6,2.1,1.1,2.8
			c0.5,0.7,1,1.1,1.6,1.1C490.1,1171.6,490.9,1170.8,491.5,1169.3z"/>
		<path class="st8" d="M499.8,1173c-0.2-0.2-0.3-0.4-0.3-0.7c1.2-2.4,1.8-3.6,3-6c2.2-4.2,3.9-8.1,5-11.9c1.1-3.7,1.8-7.6,2-11.6
			c0.2-4.8-1.2-7.6-2.8-7.3c-0.4,0.1-0.8,0.5-1.1,1c-0.3,0.5-0.5,1-0.6,1.5c-0.2,1.2-0.5,1.8-0.9,1.8c-0.3,0-0.5-0.2-0.6-0.5
			c0-0.2,0-0.3,0-0.5c0.1-1.4,0.5-2.5,1.3-3.5c0.4-0.5,0.9-0.8,1.5-0.7c1.4,0.1,2.5,0.6,3.3,1.7c0.8,1.1,1.2,2.4,1.2,3.9
			c0,0,0,0.1-0.1,0.1c0,0.7,0,1.3,0,1.9c0,0.5,0,1.1,0,1.8c-0.1,2.8-0.7,6.1-1.6,10c-0.9,3.9-2,6.9-3.1,9.2c-0.6,1.3-1,1.9-1.6,3.2
			c-0.5,1-0.7,1.5-1.2,2.4c-0.6,1.3-1.1,2.2-1.3,2.7c-0.1,0.2-0.2,0.4-0.2,0.5c0,0.2,0.1,0.3,0.3,0.3c1.8-0.2,3.9-0.3,6.1-0.3
			c0.5,0,0.7,0.3,0.7,0.8c0,0.4-0.2,0.6-0.5,0.6c-1.4,0-2.2,0-3.6,0c-1.9,0.1-3.1,0.1-3.8,0.1C500.3,1173.3,500.1,1173.2,499.8,1173
			z"/>
		<path class="st8" d="M516.1,1173.3c-0.1-0.1-0.2-0.4-0.2-0.8c0-0.1,0.1-0.2,0.1-0.3c0.1-0.1,0.2-0.2,0.3-0.2c0.6,0,0.9,0,1.5,0.1
			c0.6,0,0.9,0.1,1.4,0.1c0.5,0,0.9,0,1-0.1c0.2-0.1,0.2-0.4,0.3-0.8c0.4-9.6,0.4-19.3,0.1-28.8c0-0.6,0-1,0.1-1.6
			c0-0.6,0.1-1,0.1-1.6c0-0.5,0-0.9-0.1-1.1c-0.1-0.2-0.3-0.4-0.6-0.5c-0.3-0.1-0.8-0.1-1.5-0.2c-0.2,0-0.4,0-0.6,0
			c-0.2,0-0.4,0-0.6,0c-0.6,0-0.8-0.2-0.8-0.6c0-0.2,0.1-0.3,0.3-0.4c0.2-0.1,0.4-0.1,0.7-0.2c0.5,0,1.8,0,4,0.1
			c0.2,0,0.4,0.1,0.6,0.3c0.1,0.2,0.2,0.4,0.2,0.6c0,0.6,0,0.9-0.1,1.5c0,1-0.1,2.6-0.1,4.7c0,1.9-0.1,2.9-0.1,4.8
			c0,0.7,0,3.1,0,7.1c0,4.3,0,7.6-0.1,9.7c0,0.3,0,0.4,0,0.6c0,1.1,0,1.7,0,2.8c0,1.2,0,1.7,0,2.9c0,0.2,0,0.2-0.1,0.4
			c0,0.1,0,0.2-0.1,0.3c0.1,0.1,0.1,0.1,0.2,0.2c0.5,0,0.7,0,1.2-0.1c0.3,0,0.7,0,1.1,0c1,0,1.6,0.3,1.5,0.8c0,0.5-0.4,0.7-1.1,0.7
			c-1.6,0-2.4,0-4.1-0.1c-1.4,0-2.7,0-4.1-0.1C516.4,1173.5,516.2,1173.5,516.1,1173.3z"/>
	</g>
</g>
</svg>
