<svg id="pizza" xmlns="http://www.w3.org/2000/svg" xmlns:xlink="http://www.w3.org/1999/xlink" viewBox="0 0 571.3167 218"><defs><radialGradient id="radial-gradient" cx="549.9087" cy="1207.7145" r="486.0139" gradientTransform="matrix(-0.284, 0.9588, 0.7635, 0.2261, -184.8082, -263.3307)" gradientUnits="userSpaceOnUse"><stop offset="0" stop-color="#dc4343"/><stop offset="0.5214" stop-color="#e7645b"/><stop offset="0.6283" stop-color="#e8685e"/><stop offset="0.7524" stop-color="#e8625a"/><stop offset="0.9191" stop-color="#e9514e"/><stop offset="1" stop-color="#e94646"/></radialGradient></defs><g id="ham_b"><g id="_Layer_3" data-name=" Layer 3"><path d="M199.4445,512.9552a61.01,61.01,0,0,1,20.6-33.8c-12.6,65.4-5.1,131.9,71.6,142.8,11.1,1,49.8-7.3,73.8-5.3a223.7067,223.7067,0,0,1,32.6,3.3c52.9,7.9,112.8,3.2,166.1,11.7q79.35-13.5,158.8-26.9c6.2-43.3,4.7-88.7,15.3-130.9,12.3,6.6,10.1,27,8.2,33.9-9.2,3.8,35,97.2,16.3,119-7.5,8.2-21.9,8.4-32.9,8.5-16.4-.9-34.1-4.3-51.6.9-23.1,5.1-34.6,7.6-58.3,16.5-55.3,20.8-136.3-8.1-198.8-6.7-23.8.5-47.5,4.5-71.3,4.8-26-1.5-50.7,1.5-75.3,10-17.6,3.2-57.6,7.8-60.7-16.1C205.8445,601.5551,193.6445,556.7552,199.4445,512.9552Z" transform="translate(-197.9326 -445.3692)" style="fill:#e46557"/></g><path d="M207.1445,547.1552c2.2,10.3,6.8,20,9.3,30.3,5.6,20.2.7,79,33.8,66.6,70.6-33.7,94.1-29.7,166.5-10.7,36,4.8,72.6-6.8,108.6-2.3,37.3,7.6,76.1,18.6,113,2.9,16-5.9,31.2-15.1,48.2-16.6,19.7-1.7,39.3,7.2,58.9,4.9,15.5-.5,18.9-15,15.1-28.3-8.4-42.3-14.1-62.5-16.6-83.6-3.6-29.5,3.3-33.5-3.4-42.6-11.7-15.9-37.4-10.3-96.6-5.7-74.1,5.9-111.4,9.6-152.4-.1-49.1-16-99.8-21.9-150.9-11.1C282.5446,460.4552,189.9445,462.5551,207.1445,547.1552Z" transform="translate(-197.9326 -445.3692)" style="fill:url(#radial-gradient)"/><g id="_Layer_4" data-name=" Layer 4"><path d="M727.7445,487.3551c4.6,1.7,2.7,4.2,2,8.4.8,3.4,3.6,7.8,2.6,12-1.8,9.1,13,41.8,1.7,43.3-10.7-2.9-20.3-9.4-30.7.9-11.5,7.3-28.5,1.2-39,9.9-3.3,3.8-7.3,5.7-12.4,4.9-9.5,0-17.8,6.5-27.2,8-12.1.9-25.2-.2-36.6-4.6-5.9-2.6-11-6.7-17-8.8-13.8-5-28.9,1.1-43.6.7-5.9-.3-20-2.1-20.7-2.1-19.1-.2-34.7,16-62,6.5,12.6,6.6,36.7,2.5,61.7-.2,14-.9,19.2,3.7,30.7,2.9,7.4-.5,14.9-1.9,22.1-.4,15.9,4.8,30.3,14.9,43.6,24.6,7.8,6.4,15.2,14.3,25.1,16.2,6.1,1.2,17.2,2.6,11.6,9.9-4,5.3-21.6,9.1-28,10.1-14.5,2.4-29.1-1.8-43.5-4.7-54.6-10.9-111.4-2.7-166.3-11.8-10.7-1.8-21.6-4.3-32.4-3.3-9,.8-17.6,4-26.6,5-15.6,1.8-31.6-3.2-46.8.3-9.1,2-17.2,6.9-26,9.9-40.9,14.5-39.1-32.2-45.5-58.9h0c-.9-13.1-3.7-17.3-2-23.7,2.3-5.5,4.6-12.5,10.9-15.3,7.7-.9,15.7.2,23.5-2.2,18.1-3.1,19.4,18.4,4.5,24-16.6,1.8-16.6,15-27.7,14.1,6.6,4.7,12.3-4.8,18-6.7,9.8-.2,17.9-4.6,24.2-12.5,3.2-2.9,4.8-6.5,5.9-10.6,6-7.1,14.4-13.4,23.3-16,7.3-1.8,35.4-1.6,43.2-2.2,5.7,1,16.1-5.1,19.1-3.2,4.5,3.3-8.5,8.8-11.7,10.6,10.2.8,18.8-7.3,28.5-10.5,32.8-8,31.6,25.2,78.4,14.8-44.6.5-37.6-12.8-68.7-21.5-10.5-2.4-22.1-4.7-31.6.4-2.6,1.8-5.7,2.5-8.6,1.2-6.6-1.7-20.7,2.4-36.2,0-5.2-.6-18.8-6.3-21.8-4.1a13.0265,13.0265,0,0,1,6.4,2.3c-25.2,19.8-38.5,6.5-58.7,12.8-4.8,1.7-16.2,6.7-20.9,5-1.8-1.3-1.6-4.4-.4-16,1-11.2,2.2-22.9,10.7-30.8,9.8-7.7,48.7-15.2,54-17,0-.2-15.8,2.9-31.1,5.1-46.1,7.6-58.3,34.3-52.2,83.5,4.8,33.2,6.8,68.5,18.8,99.9,15.3,11.7,38.3,9.1,56.4,6,24.5-8.6,49-11.5,75-10,23.7-.3,47.3-4.3,71-4.8,62.2-1.3,142.8,27.4,197.9,6.7,23.6-8.9,35.1-11.4,58-16.4,27.8-9.5,60.7,9.3,84.1-9.3,18-22.1-24.3-114.4-16.2-118.5,1.8-6.7,4.1-27.2-8.2-33.7-4.7,9.3-3.5,11.6-14.3,11.7a252.859,252.859,0,0,0-32.5,2.7c-17,2.1-15.1-9.4-42.2-5.6,10.9,1.1,25,4.1,34,9C696.6445,487.9552,707.8445,479.2552,727.7445,487.3551Zm-81.2,119.2c-13.8-1.8-21.4-4.2-28.2-12.2-7-5.3-22.6-9.7-26.6-16.9.7-1.8,11.7,3.7,26.2,3.1,11-1.3,21-3.1,33-4.8,13.6-6.5,26.7-13.9,41.8-16.6,0,0,15.9-3.2,24.4.2,5.7,3.5,10.4,4.2,10.5,10.7a14.6052,14.6052,0,0,1-.3,3.6c-3.4,15.2-4.3,16.9-5.7,17.7-3.2,1.9-7.3,1.7-10.9,2.7-8.8,2.6-13.7,12.1-21.9,16.3-3.6,2.2-7.7-.6-11.5-.7-8.2-.8-27.2-2.3-30.8-3.1Z" transform="translate(-197.9326 -445.3692)" style="fill:#ff836f"/></g></g></svg>