<svg id="pizza" xmlns="http://www.w3.org/2000/svg" viewBox="0 0 128.1126 121.0655"><g id="mussel_orange_b"><path d="M621.1375,1116.5054c9.4045-16.9,30.1228-24.0417,45.3256-35.0019,6.2225-2.97,8.5559-8.5559,8.6974-15.0614,12.3037-24.4658,12.7987-37.9716-4.6669-61.5183-6.3639-7.4953-9.1924-2.8284-17.0412-.0707-34.719-.3535-40.093,7.99-58.407,30.6885-8.061,9.0509-17.5362,16.6877-25.3851,25.9508s-14.0008,20.6476-13.7179,32.6684C556.7907,1130.93,598.4394,1118.6974,621.1375,1116.5054Z" transform="translate(-555.933 -999.1434)" style="fill:#fc7e3f"/><path d="M621.1375,1116.5054c9.4045-16.9,30.1228-24.0417,45.3256-35.0019,6.2225-2.97,8.5559-8.5559,8.6974-15.0614,12.3037-24.4658,12.7987-37.9716-4.6669-61.5183-6.3639-7.4953-9.1924-2.8284-17.0412-.0707-34.719-.3535-40.093,7.99-58.407,30.6885-8.061,9.0509-17.5362,16.6877-25.3851,25.9508s-14.0008,20.6476-13.7179,32.6684C556.7907,1130.93,598.4394,1118.6974,621.1375,1116.5054Z" transform="translate(-555.933 -999.1434)" style="fill:#fc7e3f"/><path d="M627.5722,1096.9185c10.4652-9.051,22.84-15.2028,34.224-22.91,4.879-2.3334,6.7882-6.7882,6.93-11.8794.9192-4.4548,3.96-8.2024,5.6568-12.4451,5.0912-11.0309-2.4749-33.87-13.7886-38.82-4.7376.4949-10.1116,5.3033-16.3341,3.4648-9.97-.6364-20.6475,4.95-22.2032,6.2225-6.1518,5.1619-10.8187,11.8087-16.122,17.8191-12.3037,13.5765-31.1127,26.163-31.1126,46.2448C573.1956,1111.4142,601.6213,1097.4135,627.5722,1096.9185Z" transform="translate(-555.933 -999.1434)" style="fill:#fa7d50"/><path d="M671.9785,1000.4692c-.4243,4.5255-5.94,7.92-9.546,10.3944-6.576,4.1719-4.7376,7.2832-12.7986,13.6471-11.243,6.859-19.7283,17.0413-29.9107,25.3852a104.8588,104.8588,0,0,0-11.4551,13.5764c-15.2027,21.85-17.2534,24.3245-19.7283,26.9408-5.02,5.3033-5.2326,4.5255-8.6974,8.6974-6.2226,7.6368-11.5259,17.89-13.0108,17.3948-12.5865-4.8083,32.5269-45.5376,40.7294-64.4881,9.1924-11.4551,24.89-37.1939,29.6277-47.1641a5.9855,5.9855,0,0,1,3.2527-3.2526c7.3539.5656,3.3941,2.687,14.6371-1.0607,9.4045-2.4749,6.5054-1.1314,12.445,0C670.14,1000.752,671.4835,999.8328,671.9785,1000.4692Z" transform="translate(-555.933 -999.1434)" style="fill:#35302f"/></g></svg>