<svg id="pizza" xmlns="http://www.w3.org/2000/svg" xmlns:xlink="http://www.w3.org/1999/xlink" viewBox="0 0 128.3453 121.0897"><defs><linearGradient id="linear-gradient" x1="805.1899" y1="130.5788" x2="871.8721" y2="92.0796" gradientTransform="matrix(0.7071, 0.7071, 0.7071, -0.7071, -237.4869, 265.4817)" gradientUnits="userSpaceOnUse"><stop offset="0" stop-color="#ffcc78"/><stop offset="0.164" stop-color="#ffcc78" stop-opacity="0.9876"/><stop offset="0.2946" stop-color="#ffcc78" stop-opacity="0.9485"/><stop offset="0.4138" stop-color="#ffcc78" stop-opacity="0.8825"/><stop offset="0.5262" stop-color="#ffcc78" stop-opacity="0.7895"/><stop offset="0.6338" stop-color="#ffcc78" stop-opacity="0.6693"/><stop offset="0.7378" stop-color="#ffcc78" stop-opacity="0.5219"/><stop offset="0.839" stop-color="#ffcc78" stop-opacity="0.3469"/><stop offset="0.9354" stop-color="#ffcc78" stop-opacity="0.1495"/><stop offset="1" stop-color="#ffcc78" stop-opacity="0"/></linearGradient></defs><g id="mussel_yellow_b"><path d="M431.3542,838.2537c9.4045-16.9,30.1228-24.0416,45.3255-35.0017,6.2226-2.97,8.556-8.556,8.6975-15.0614,12.3036-24.4659,12.8693-38.0423-4.6669-61.5183-6.364-7.4953-9.2631-2.7577-17.0413-.0707-34.86-.3535-40.1637,8.061-58.5484,30.6884-8.061,9.051-17.5363,16.6877-25.3852,25.9508s-14.0007,20.6475-13.7886,32.7391C366.9368,852.608,408.5854,840.3751,431.3542,838.2537Z" transform="translate(-365.9415 -720.8211)" style="fill:#fc7e3f"/><path d="M431.3542,838.1123c9.4045-16.9,30.1227-24.0416,45.3255-35.0017,6.2226-2.97,8.556-8.556,8.6974-15.0614,12.3037-24.4659,12.7987-37.9717-4.6669-61.5183-6.3639-7.4953-9.1923-2.8284-17.0412-.0707-34.719-.3536-40.093,7.99-58.4071,30.6884-8.0609,9.051-17.5362,16.6877-25.3851,25.9508s-14.0007,20.6475-13.7179,32.6683C367.0075,852.5373,408.6561,840.3044,431.3542,838.1123Z" transform="translate(-365.9415 -720.8211)" style="fill:#ffaa4d"/><path d="M437.7182,818.5962c10.4651-9.0509,22.8395-15.2028,34.2239-22.91,4.8791-2.3334,6.7883-6.7882,6.93-11.8794.9192-4.4547,3.96-8.2024,5.6568-12.445,5.0912-11.0309-2.4748-33.87-13.7885-38.82-4.7377.495-10.1117,5.3033-16.3342,3.4648-9.97-.6364-20.6475,4.95-22.2031,6.2226-6.1519,5.1618-10.8188,11.8086-16.1221,17.8191-12.3036,13.5764-31.1127,26.1629-31.1127,46.2448C383.4124,833.0212,411.7674,819.0911,437.7182,818.5962Z" transform="translate(-365.9415 -720.8211)" style="fill:url(#linear-gradient)"/><path d="M482.1245,722.1468c-.4243,4.5255-5.94,7.92-9.5459,10.3945-6.5761,4.1719-4.7377,7.2832-12.7987,13.6471-11.243,6.859-19.7283,17.0413-29.9106,25.3851A104.8664,104.8664,0,0,0,418.4142,785.15c-15.2028,21.85-17.2534,24.3245-19.7283,26.9408-5.02,5.3033-5.2326,4.5255-8.6974,8.6974-6.2225,7.6367-11.5258,17.89-13.0108,17.3948-12.5865-4.8083,32.5269-45.5377,40.7294-64.4881,9.1924-11.4552,24.89-37.1939,29.6278-47.164a5.9853,5.9853,0,0,1,3.2527-3.2527c7.3539.5657,3.3941,2.687,14.6371-1.0607,9.4045-2.4749,6.5053-1.1314,12.445,0C480.286,722.2883,481.63,721.51,482.1245,722.1468Z" transform="translate(-365.9415 -720.8211)" style="fill:#515151"/></g></svg>