<svg id="pizza" xmlns="http://www.w3.org/2000/svg" xmlns:xlink="http://www.w3.org/1999/xlink" viewBox="0 0 385.9768 190.9405"><defs><linearGradient id="linear-gradient" x1="1028.7558" y1="-119.3347" x2="875.5052" y2="-158.0425" gradientTransform="matrix(0, 1, 1, 0, 639.2072, 171.7846)" gradientUnits="userSpaceOnUse"><stop offset="0" stop-color="#8e7aa9"/><stop offset="0.1817" stop-color="#a57aa9" stop-opacity="0.7625"/><stop offset="0.4581" stop-color="#c47aa9" stop-opacity="0.4367"/><stop offset="0.6966" stop-color="#da7aa9" stop-opacity="0.1993"/><stop offset="0.8851" stop-color="#e87aa9" stop-opacity="0.0537"/><stop offset="1" stop-color="#ed7aa9" stop-opacity="0"/></linearGradient></defs><g id="shell_closed"><path d="M458.2383,962.2377c30.6-6.3,118.4,10.8,130.8,17.4,47,17.9,49.1,22.8,69.1,55.3,16.8,32.2,18,87.4-23.3,109.7-11.5,3.2-15.8,4.1-31.1,6.7-18.2,2.7-45.6-7.1-45.8-7.1-32.7-11.7-63.5-14.8-85-16.9-37.5-6.1-145.5,7.2-182.7-24-33.1-29.6,58.4-84.9,84.3-101.3C413.2383,978.9377,407.1382,975.7377,458.2383,962.2377Z" transform="translate(-283.1119 -960.8677)" style="fill:#191919"/><path d="M301.9383,1111.2377c18.9,10.8,67.8,12.5,67.8,12.5,29.4,1.1,85.9,1.8,103.2,3.6,26.3.4,73.1,13,107.8,22.9,24.9-3.5,36.5-11.2,45.4-31.6,13.6-33.8,9.2-53.5-2-81.3-24.9-51.5-69.5-60.9-141.7-70.8-17.9-1.5-27.7-2.4-37.9-1-43.5,15.8-33.1,14.1-70.1,36.5C344.2383,1021.4377,241.4383,1082.4377,301.9383,1111.2377Z" transform="translate(-283.1119 -960.8677)" style="fill:#5e6a85"/><path d="M562.6383,1145.7377c19.2-5.4,31.7-4,40.6-29.9,15.6-36.8-1.1-91.2-27.9-111.9-20-18.3-115.8-47.8-155.4-29-16.6,7.7-33,19.4-45.5,27.1-13,8.2-13.5,10.7-16,10.1-92.9,58.9-110.8,105.7,11.3,111.6C447.1382,1127.2377,489.4383,1121.1377,562.6383,1145.7377Z" transform="translate(-283.1119 -960.8677)" style="fill:#604a63"/><path d="M358.4383,1012.0377c-93.2,59.2-110.7,105.7,11.3,111.6,73.3,3.3,113-2.1,181.5,18.2,14.3-1,25.7-17.2,29-26.5,18.3-38.1-1.2-86.7-25.1-107.1-20.9-18.7-96.7-39.4-138.9-31.7C392.3383,988.9377,380.6382,999.1377,358.4383,1012.0377Z" transform="translate(-283.1119 -960.8677)" style="fill:#2a1b26"/><path d="M358.4383,1012.0377c-23,15.2-69.3,45.1-75.1,73.3-.3,4.1-.5,8.6.8,12.5,3.6,4.8,15.2,11.7,17.8,13.4,50.9,18.5,76.8,10.6,116.5,13.8,38.2.7,74.8,2.4,111.7,10.8,47.7-24.8,24.8-98.2-2.9-121.8-25-19.7-89.6-39.2-127.1-28.4C387.4383,993.0377,372.3383,1004.1377,358.4383,1012.0377Z" transform="translate(-283.1119 -960.8677)" style="fill:#7c5f67"/><path d="M283.4383,1085.3377c-7.8,51.5,160.1,36.1,189.5,41.9,10.4.8,24.2,2.3,40.5,5.2,9.2-2.5,13.7-7.1,15.8-9.7,7.1-8.7,6.5-20.2,6-36.6-3.6-39.3-17.7-66.7-55.3-81.5-28.9-11.9-63.9-20.9-94.2-9.9-7.7,4.6-19.5,13.2-27.2,17.2C335.3383,1027.5377,289.2383,1057.0377,283.4383,1085.3377Z" transform="translate(-283.1119 -960.8677)" style="fill:#2a1b26"/><path d="M369.7383,1123.6377c36.4,1.4,66.5,1.1,101.6,3.5a181.3988,181.3988,0,0,0,17.8-3.7c15.4-4.3,23.4-5.9,25.1-21.7,2.4-10.3-.1-39.1-6.5-52.1-16.4-34.6-44.6-40.9-92.5-47.7-41.6-6.6-61.8,16.3-91.1,35.5C254.7383,1089.4377,275.7383,1118.4377,369.7383,1123.6377Z" transform="translate(-283.1119 -960.8677)" style="fill:#191919"/><path d="M362.7383,1120.8377c2.3.1,8.6.3,12.9.4,24.3.7,22.8.4,30.2.8,20.2.7,45.8,4.3,62.3-1.4,14.4-4,20.4-5.3,22.2-19.4,2.1-9.2-.1-35-5.8-46.7-14.6-31-39.1-36.5-81.8-42.7-37-5.9-54.4,14.5-80.5,31.7-23,17.4-40.3,35.8-32.1,55.2,1.4,1.4,3.1,1.5,5,2,4.1,1.2,6.2,3.6,8,5C310.5382,1111.5377,338.0382,1119.7377,362.7383,1120.8377Z" transform="translate(-283.1119 -960.8677)" style="fill:#5e6a85"/><path d="M394.2383,1119.7377c24.1.4,70.6,3.3,76.9-19.6,3.6-17.4-2.8-49.8-19-63-9.3-8.9-42.6-19-59-19.5-31.8-5.1-46.6,11.6-68.4,26.9-14.9,12.1-43.3,29.5-37.5,52.1,4.1,5.2,12.4,8.6,17,12C336.7383,1125.2377,357.2383,1117.1377,394.2383,1119.7377Z" transform="translate(-283.1119 -960.8677)" style="fill:#2a1b26"/><path d="M357.1382,1109.7377c33.3,0,78.1,6.5,92.3-9.3,9.2-13.2.5-46.3-13-57-12.8-10.8-49.4-18.8-67.2-16.1-21.4,5.7-25.6,13.6-42.1,24.1C282.0382,1085.7377,294.8383,1106.4377,357.1382,1109.7377Z" transform="translate(-283.1119 -960.8677)" style="fill:#191919"/><path d="M574.1383,1132.6377c-11.4-2.3-21.9-6.5-32.6-10.8-33.2-12.1-69.2-16.5-104.2-19.5-28.3-.1-56.8,1.8-84.2-6.5-9.1-2.2-16.4-12.3-8.1-20.3,22-15.4,52.7-9.3,78.2-14.8,37.4-8.7,71-27.5,110-28.5,13.3-3.4,26.3-2,39.6-1,17-4.1,35.7-.1,49.1,11.5,20.6,19.6,20.8,62.2-4.9,77.7C604.1383,1129.3377,590.3383,1138.6377,574.1383,1132.6377Z" transform="translate(-283.1119 -960.8677)" style="fill:url(#linear-gradient)"/></g></svg>