<svg id="pizza" xmlns="http://www.w3.org/2000/svg" xmlns:xlink="http://www.w3.org/1999/xlink" viewBox="0 0 298.8449 127.0555"><defs><radialGradient id="radial-gradient" cx="1361.2719" cy="1528.6713" r="12.7336" gradientTransform="translate(-823.8759 1698.8589) rotate(-78.4605)" gradientUnits="userSpaceOnUse"><stop offset="0" stop-color="#c67e72"/><stop offset="0.1658" stop-color="#b76c66"/><stop offset="0.5118" stop-color="#9d4c51"/><stop offset="0.8022" stop-color="#8d3844"/><stop offset="1" stop-color="#87313f"/></radialGradient><radialGradient id="radial-gradient-2" cx="1064.1018" cy="1884.5144" r="10.5396" gradientTransform="matrix(-0.2022, -0.9794, 0.9794, -0.2022, -716.2614, 2075.1155)" xlink:href="#radial-gradient"/><radialGradient id="radial-gradient-3" cx="848.2611" cy="2117.7244" r="10.4232" gradientTransform="matrix(-0.4157, -0.8207, 0.8293, -0.42, -519.4741, 2228.519)" gradientUnits="userSpaceOnUse"><stop offset="0" stop-color="#c67e72"/><stop offset="0.0499" stop-color="#c0776d"/><stop offset="0.3016" stop-color="#a75959"/><stop offset="0.5479" stop-color="#95434b"/><stop offset="0.7844" stop-color="#8b3542"/><stop offset="1" stop-color="#87313f"/></radialGradient><radialGradient id="radial-gradient-4" cx="304.6551" cy="2208.0162" r="8.7962" gradientTransform="matrix(-0.7172, -0.5762, 0.5823, -0.7246, -215.1581, 2426.0268)" xlink:href="#radial-gradient-3"/><radialGradient id="radial-gradient-5" cx="-248.3631" cy="2299.8337" r="8.8728" gradientTransform="matrix(-0.7854, -0.2182, 0.228, -0.7547, 109.362, 2343.9443)" xlink:href="#radial-gradient-3"/><radialGradient id="radial-gradient-6" cx="-574.0548" cy="2071.4431" r="7.7095" gradientTransform="matrix(-0.8152, -0.0079, 0.0253, -0.7881, 288.0713, 2307.1157)" xlink:href="#radial-gradient-3"/><radialGradient id="radial-gradient-7" cx="-558.6997" cy="2051.3125" r="6.9184" gradientTransform="matrix(-0.8152, -0.0079, 0.0253, -0.7881, 288.0713, 2307.1157)" xlink:href="#radial-gradient-3"/><radialGradient id="radial-gradient-8" cx="-543.6717" cy="2032.8941" r="4.8624" gradientTransform="matrix(-0.8152, -0.0079, 0.0253, -0.7881, 288.0713, 2307.1157)" xlink:href="#radial-gradient-3"/><radialGradient id="radial-gradient-9" cx="-531.7594" cy="2020.6405" r="4.4517" gradientTransform="matrix(-0.8152, -0.0079, 0.0253, -0.7881, 288.0713, 2307.1157)" xlink:href="#radial-gradient-3"/><radialGradient id="radial-gradient-10" cx="1255.0821" cy="1670.3963" r="13.1474" gradientTransform="translate(-802.1697 1851.3201) rotate(-87.4001)" xlink:href="#radial-gradient"/><radialGradient id="radial-gradient-11" cx="976.7366" cy="1927.5887" r="11.3213" gradientTransform="translate(-678.9523 2141.6564) rotate(-106.3351)" xlink:href="#radial-gradient"/><radialGradient id="radial-gradient-12" cx="543.0742" cy="2103.6174" r="9.9728" gradientTransform="matrix(-0.6302, -0.7764, 0.7764, -0.6302, -419.2981, 2404.5995)" xlink:href="#radial-gradient"/><radialGradient id="radial-gradient-13" cx="36.1227" cy="2085.5463" r="9.136" gradientTransform="matrix(-0.8936, -0.4489, 0.4489, -0.8936, -56.5675, 2544.4105)" xlink:href="#radial-gradient"/><radialGradient id="radial-gradient-14" cx="-222.2609" cy="1977.8641" r="8.1671" gradientTransform="matrix(-0.9728, -0.2316, 0.2316, -0.9728, 152.2808, 2547.6648)" xlink:href="#radial-gradient"/><radialGradient id="radial-gradient-15" cx="-210.1691" cy="1958.3633" r="6.8472" gradientTransform="matrix(-0.9728, -0.2316, 0.2316, -0.9728, 152.2808, 2547.6648)" xlink:href="#radial-gradient"/><radialGradient id="radial-gradient-16" cx="-504.7658" cy="1741.0888" r="5.553" gradientTransform="matrix(-0.9977, 0.0665, -0.0665, -0.9977, 408.7524, 2476.9504)" xlink:href="#radial-gradient"/><radialGradient id="radial-gradient-17" cx="-191.2918" cy="1925.6596" r="4.2565" gradientTransform="matrix(-0.9728, -0.2316, 0.2316, -0.9728, 152.2808, 2547.6648)" xlink:href="#radial-gradient"/><radialGradient id="radial-gradient-18" cx="215.7187" cy="2019.3067" r="4.2621" gradientTransform="translate(-146.8932 2537.4666) rotate(-146.9551)" xlink:href="#radial-gradient"/></defs><g id="octopus_a"><path d="M907.3008,723.8581c-.0182.4-.0363.7992-.2361.79-4.1191-12.9-14.9038-22.299-29.6387-24.0692-34.8369-2.1825-61.8889,38.0318-92.9244,51.3376-25.75,13.7461-58.1485,12.9756-82.9645-2.6662-15.58-9.6167-28.499-24.9184-32.6819-43.0268-9.5417-34.5684,39.9926-54.0416,42.0788-11.8034-9.22-39.4588-48.0327-9.1883-24.919,17.4876,10.6715,14.0986,27.7043,22.58,45.1863,23.3739,30.7683,1.3971,48.34-21.83,68.6453-43.5309,18.23-20.0938,40.3156-39.1115,67.9551-43.7625,38.31-5.9683,78.9008,10.59,98.51,46.116Z" transform="translate(-667.6361 -634.5862)" style="fill:#87313f"/><path d="M927.2469,692.4305c-3.3465.9492-7.0426,2.9837-7.4147,6.7706-2.1521,5.508-6.6473,9.7085-9.1944,15.0985-14.5295,20.1617,24.3211,15.5192,33.861,10.4468,10.9975-4.1054,17.0316-17.9459,18.1439-20.3979,6.2794-12.6282,2.1426-14.1173-12.4423-14.78A57.6931,57.6931,0,0,0,927.2469,692.4305Z" transform="translate(-667.6361 -634.5862)" style="fill:#f2d6ca;stroke:#87313f;stroke-miterlimit:10;stroke-width:2px"/><path d="M957.302,687.4889c6.9929,2.52-1.6169-8.4821-10.9213-17.4134a95.5548,95.5548,0,0,0-28.7348-17.5215c-28.8435-12.9216-66.9358-7.3439-89.5525,10.1482-23.13,15.5667-41.6278,43.7567-62.56,59.4232-27.0392,22.2964-72.7879,11.31-86.8521-20.661-8.6736-16.21,9.6474-36.0995,23.37-23.0636-13.1825-13.9123-31.799-.7433-28.0565,18.2461,3.83,39.114,64.1638,61.7742,95.2308,41.1623,20.9822-14.5632,33.2915-29.9207,53.1066-47.44,35.2623-29.2305,65.209-20.7633,83.5632-10.52,19.9441,21.5268,17.6093,4.6035,39.9455,6.5186C947.0126,687.0216,953.56,686.1176,957.302,687.4889Z" transform="translate(-667.6361 -634.5862)" style="fill:#d38787"/><g id="Suckers_copy_4" data-name="Suckers copy 4"><path d="M956.4843,679.0431c-3.8866,6.23-3.7,6.5388-10.1984,4.1416-8.41-2.1838-12.9371-10.4977-11.77-18.5531C943.06,648.4026,967.3,665.72,956.4843,679.0431Z" transform="translate(-667.6361 -634.5862)" style="fill:url(#radial-gradient)"/><path d="M945.3954,671.9327c10.3261,8.4772,19.3345-2.5255,7.9686-10.1489C943.4058,654.024,936.4815,663.2194,945.3954,671.9327Z" transform="translate(-667.6361 -634.5862)" style="fill:#f2d6ca;stroke:#87313f;stroke-miterlimit:10"/><path d="M924.8749,654.2836c-1.362,5.7442.5769,4.9313-5.5122,6.757-7.5739,1.4579-3.1148,2.4612-10.9252-1.8976-9.15-3.5187-4.4959-13.4177,2.1471-16.42C917.7407,639.4448,927.2493,646.083,924.8749,654.2836Z" transform="translate(-667.6361 -634.5862)" style="fill:url(#radial-gradient-2)"/><path d="M914.74,652.6222c9.8718,3.051,13.1724-7.9106,2.5469-9.7945C907.7964,640.1945,905.5855,649.2035,914.74,652.6222Z" transform="translate(-667.6361 -634.5862)" style="fill:#f2d6ca;stroke:#87313f;stroke-miterlimit:10"/><path d="M892.6486,643.11c.2816,2.6155.4224,3.9233-.0134,4.7042.0727.6039-7.12,4.6819-7.6147,4.5593-.9172.3588-7.1109-2.1248-9.2814-2.8239-1.1943-.1543-1.4077.1362-1.7982-.0817-1.8754-2.7879.7942-10.8752,3.3959-13.0593C882.731,632.2493,892.8934,635.5137,892.6486,643.11Z" transform="translate(-667.6361 -634.5862)" style="fill:url(#radial-gradient-3)"/><path d="M883.3492,645.0906c9.7944.3446,10.0891-10.5532-.064-9.6128C873.8767,635.4509,874.0769,644.2691,883.3492,645.0906Z" transform="translate(-667.6361 -634.5862)" style="fill:#f2d6ca;stroke:#87313f;stroke-miterlimit:10"/><path d="M858.6067,647.6708c1.1171,1.8526,1.6756,2.7788,1.6393,3.5781.1771.5085-3.7776,6.0348-4.2816,6.1121.3859.3179-6.852.99-8.1552,1.0311-2.8924,1.9708-3.0969-2.3428-3.6828-4.872C840.92,644.7655,854.8738,639.4931,858.6067,647.6708Z" transform="translate(-667.6361 -634.5862)" style="fill:url(#radial-gradient-4)"/><path d="M852.0863,652.38c7.6511-3.1562,4.1316-11.6246-3.37-7.36C841.5606,648.2982,844.7622,654.95,852.0863,652.38Z" transform="translate(-667.6361 -634.5862)" style="fill:#f2d6ca;stroke:#87313f;stroke-miterlimit:10"/><path d="M833.9871,658.5652c5.0995,4.5361-3.4049,15.4615-9.6214,11.2751C815.5518,663.3338,826.4764,652.0178,833.9871,658.5652Z" transform="translate(-667.6361 -634.5862)" style="fill:url(#radial-gradient-5)"/><path d="M828.929,664.1416c5.2352-5.0678-.8315-10.3484-5.2948-4.645C818.6033,664.4734,824.23,668.4328,828.929,664.1416Z" transform="translate(-667.6361 -634.5862)" style="fill:#f2d6ca;stroke:#87313f;stroke-miterlimit:10"/><path d="M812.12,674.99c5.2856,2.6425.5728,13.84-5.53,11.5611C797.6349,683.1416,804.2865,671.1309,812.12,674.99Z" transform="translate(-667.6361 -634.5862)" style="fill:url(#radial-gradient-6)"/><path d="M809.0548,680.7571c3.2555-5.558-3.02-8.4457-5.4809-2.7514C800.5274,683.373,806.04,685.4251,809.0548,680.7571Z" transform="translate(-667.6361 -634.5862)" style="fill:#f2d6ca;stroke:#87313f;stroke-miterlimit:10"/><path d="M798.6705,691.1969c4.8,2.32.4365,12.4326-4.9762,10.3849C785.7161,698.7169,791.7275,687.5781,798.6705,691.1969Z" transform="translate(-667.6361 -634.5862)" style="fill:url(#radial-gradient-7)"/><path d="M795.9327,696.3779c3.0194-4.7679-2.861-7.5375-4.8951-2.4245C788.2226,698.6305,793.44,700.5692,795.9327,696.3779Z" transform="translate(-667.6361 -634.5862)" style="fill:#f2d6ca;stroke:#87313f;stroke-miterlimit:10"/><path d="M784.9536,706.6906c3.333,1.5528.2,8.8182-3.4325,7.2517C775.9041,711.9855,780.0585,704.2659,784.9536,706.6906Z" transform="translate(-667.6361 -634.5862)" style="fill:url(#radial-gradient-8)"/><path d="M783.083,710.41c2.1567-3.4057-2.0618-5.299-3.4239-1.7571C777.6069,711.9627,781.2486,713.3293,783.083,710.41Z" transform="translate(-667.6361 -634.5862)" style="fill:#f2d6ca;stroke:#87313f;stroke-miterlimit:10"/><path d="M775.5819,716.8759c1.5531,3.2738-1.4073,6.7431-4.5,6.5025C766.06,721.5488,771.8356,713.4023,775.5819,716.8759Z" transform="translate(-667.6361 -634.5862)" style="fill:url(#radial-gradient-9)"/><path d="M773.5205,720.386c2.1568-3.4057-2.0617-5.299-3.4238-1.7571C768.0445,721.9392,771.7861,723.31,773.5205,720.386Z" transform="translate(-667.6361 -634.5862)" style="fill:#f2d6ca;stroke:#87313f;stroke-miterlimit:10"/><path d="M935.5377,677.3912c-5.0849,17.1871-27.6984,5.95-25.4014-7.16C917.9319,650.665,943.3245,664.6312,935.5377,677.3912Z" transform="translate(-667.6361 -634.5862)" style="fill:url(#radial-gradient-10)"/><path d="M921.7428,676.965c11.7427,5.9388,20.2742-7.7883,8.94-13.9089C918.94,654.9151,909.6822,669.21,921.7428,676.965Z" transform="translate(-667.6361 -634.5862)" style="fill:#f2d6ca;stroke:#87313f;stroke-miterlimit:10"/><path d="M907.2026,662.09c.6,15.4432-20.9959,12.6606-22.781,1.268C884.5934,646.3483,909.5268,648.3814,907.2026,662.09Z" transform="translate(-667.6361 -634.5862)" style="fill:url(#radial-gradient-11)"/><path d="M895.8327,665.578c11.1386,1.6069,14.4572-11.9565,3.3368-13.963C887.4087,648.278,883.854,662.6315,895.8327,665.578Z" transform="translate(-667.6361 -634.5862)" style="fill:#f2d6ca;stroke:#87313f;stroke-miterlimit:10"/><path d="M880.5752,653.2731c5.7446,12.3733-12.7043,17.4416-18.1173,8.7872C856.8676,648.4928,877.6231,641.1267,880.5752,653.2731Z" transform="translate(-667.6361 -634.5862)" style="fill:url(#radial-gradient-12)"/><path d="M872.561,660.0166c9.6172-2.3662,7.5778-14.7715-1.94-12.4008C859.751,648.9241,861.7722,661.7289,872.561,660.0166Z" transform="translate(-667.6361 -634.5862)" style="fill:#f2d6ca;stroke:#87313f;stroke-miterlimit:10"/><path d="M853.3308,658.0421c9.4406,8.1366-4.0813,19.3348-11.8553,14.1768C831.776,663.17,846.1332,649.0064,853.3308,658.0421Z" transform="translate(-667.6361 -634.5862)" style="fill:url(#radial-gradient-13)"/><path d="M849.1355,666.6607c7.1605-5.5809.7939-15.28-6.3666-9.6988C834.2325,661.98,840.8715,672.2917,849.1355,666.6607Z" transform="translate(-667.6361 -634.5862)" style="fill:#f2d6ca;stroke:#87313f;stroke-miterlimit:10"/><path d="M830.35,668.11c9.9763,5.1578.3959,17.7361-7.3781,14.7805C812.7236,677.12,822.0314,661.7262,830.35,668.11Z" transform="translate(-667.6361 -634.5862)" style="fill:url(#radial-gradient-14)"/><path d="M828.4664,676.5334c5.09-6.2756-2.4935-13.427-7.4835-7.1469C814.4808,675.8983,822.7725,682.8816,828.4664,676.5334Z" transform="translate(-667.6361 -634.5862)" style="fill:#f2d6ca;stroke:#87313f;stroke-miterlimit:10"/><path d="M813.4505,685.3613c8.3143,4.2816.5274,14.8392-6.17,12.4328C798.9567,693.7124,805.9943,679.8173,813.4505,685.3613Z" transform="translate(-667.6361 -634.5862)" style="fill:url(#radial-gradient-15)"/><path d="M811.8252,692.4949c4.2272-4.9133-1.885-11.3973-6.3347-5.9935C800.0555,691.56,807.0758,697.8849,811.8252,692.4949Z" transform="translate(-667.6361 -634.5862)" style="fill:#f2d6ca;stroke:#87313f;stroke-miterlimit:10"/><path d="M797.6311,700.86c7.447,1.3392,3.9874,11.3926-1.8067,11.13C788.4638,710.9541,790.5383,698.3353,797.6311,700.86Z" transform="translate(-667.6361 -634.5862)" style="fill:url(#radial-gradient-16)"/><path d="M798.1627,706.79c2.2156-4.7043-4.4231-8.4092-6.3663-3.092C788.7543,708.9653,795.7155,712.1844,798.1627,706.79Z" transform="translate(-667.6361 -634.5862)" style="fill:#f2d6ca;stroke:#87313f;stroke-miterlimit:10"/><path d="M786.2753,715.0591c5.1857,2.6379.3819,9.2267-3.8547,7.7331C777.2258,720.3541,781.63,711.5448,786.2753,715.0591Z" transform="translate(-667.6361 -634.5862)" style="fill:url(#radial-gradient-17)"/><path d="M785.2766,719.4183c2.6335-2.8835-1.2763-7.1653-3.9371-3.6824C777.8978,718.783,782.416,722.892,785.2766,719.4183Z" transform="translate(-667.6361 -634.5862)" style="fill:#f2d6ca;stroke:#87313f;stroke-miterlimit:10"/><path d="M777.7165,727.1833c-.1042,4.5-7.9824,6.0441-8.45.9177C768.1217,722.4432,777.8934,721.0851,777.7165,727.1833Z" transform="translate(-667.6361 -634.5862)" style="fill:url(#radial-gradient-18)"/><path d="M774.0023,729.6174c3.3873-1.8482,1.1212-7.0564-2.3887-4.7132C767.4317,726.6162,770.2971,731.8515,774.0023,729.6174Z" transform="translate(-667.6361 -634.5862)" style="fill:#f2d6ca;stroke:#87313f;stroke-miterlimit:10"/><path d="M763.5681,738.9536c3.3873-1.8482,1.1167-6.9565-2.3887-4.7132C757.0973,735.9571,759.8629,741.1879,763.5681,738.9536Z" transform="translate(-667.6361 -634.5862)" style="fill:#f2d6ca;stroke:#87313f;stroke-miterlimit:10"/><path d="M763.2362,730.83c2.9741-1.5666.976-6.0619-2.1162-4.1C757.5511,728.17,759.9488,732.683,763.2362,730.83Z" transform="translate(-667.6361 -634.5862)" style="fill:#f2d6ca;stroke:#87313f;stroke-miterlimit:10"/><path d="M749.3556,743.3134c3.5282-.54,3.1647-5.7624-.5814-4.8314C744.5649,738.5912,745.4143,744.1355,749.3556,743.3134Z" transform="translate(-667.6361 -634.5862)" style="fill:#f2d6ca;stroke:#87313f;stroke-miterlimit:10"/><path d="M751.1989,735.7893c2.62-.3815,2.2929-4.2-.4407-3.5236C747.7523,732.3293,748.27,736.357,751.1989,735.7893Z" transform="translate(-667.6361 -634.5862)" style="fill:#f2d6ca;stroke:#87313f;stroke-miterlimit:10"/><path d="M734.9614,742.86c2.5973.1179,3.1693-3.66.2632-3.5918C732.2413,738.8325,731.96,742.8239,734.9614,742.86Z" transform="translate(-667.6361 -634.5862)" style="fill:#f2d6ca;stroke:#87313f;stroke-miterlimit:10"/><path d="M738.6619,738.5235c2.1978.1,2.5382-2.988.2315-2.8925C736.4141,735.1179,736.16,738.51,738.6619,738.5235Z" transform="translate(-667.6361 -634.5862)" style="fill:#f2d6ca;stroke:#87313f;stroke-miterlimit:10"/><path d="M719.836,740.8719c1.5984.0725,1.9025-2.2161.2-2.1932C718.1467,738.3926,718.0379,740.79,719.836,740.8719Z" transform="translate(-667.6361 -634.5862)" style="fill:#f2d6ca;stroke:#87313f;stroke-miterlimit:10"/><path d="M723.9089,737.1528c1.5984.0725,1.9025-2.2161.2-2.1932A1.1308,1.1308,0,1,0,723.9089,737.1528Z" transform="translate(-667.6361 -634.5862)" style="fill:#f2d6ca;stroke:#87313f;stroke-miterlimit:10"/><path d="M710.9814,737.4667c1.5983.0726,1.9025-2.216.2-2.1932C709.2921,734.9875,709.1832,737.385,710.9814,737.4667Z" transform="translate(-667.6361 -634.5862)" style="fill:#87313f"/><path d="M715.0089,734.7466c1.5984.0725,1.9025-2.2161.2-2.1932A1.1308,1.1308,0,1,0,715.0089,734.7466Z" transform="translate(-667.6361 -634.5862)" style="fill:#87313f"/><path d="M702.1721,733.0625c1.5983.0726,1.9025-2.216.2-2.1931C700.4828,730.5833,700.3739,732.9809,702.1721,733.0625Z" transform="translate(-667.6361 -634.5862)" style="fill:#87313f"/><path d="M705.1553,731.296c1.5983.0726,1.9025-2.216.2-2.1931A1.1308,1.1308,0,1,0,705.1553,731.296Z" transform="translate(-667.6361 -634.5862)" style="fill:#87313f"/><path d="M696.06,728.7809c1.2987.0589,1.48-1.7347.177-1.6937C694.7476,726.8193,694.5616,728.7128,696.06,728.7809Z" transform="translate(-667.6361 -634.5862)" style="fill:#87313f"/><path d="M698.4257,727.3868c1.2987.0589,1.48-1.7347.177-1.6937C697.1179,725.3253,697.0271,727.3232,698.4257,727.3868Z" transform="translate(-667.6361 -634.5862)" style="fill:#87313f"/></g></g></svg>