<svg id="pizza" xmlns="http://www.w3.org/2000/svg" xmlns:xlink="http://www.w3.org/1999/xlink" viewBox="0 0 333.7343 156.5689"><defs><radialGradient id="radial-gradient" cx="-2110.6786" cy="-73.713" r="12.7373" gradientTransform="translate(-930.1739 289.7892) rotate(-143.7888)" gradientUnits="userSpaceOnUse"><stop offset="0" stop-color="#c67e72"/><stop offset="0.1658" stop-color="#b76c66"/><stop offset="0.5118" stop-color="#9d4c51"/><stop offset="0.8022" stop-color="#8d3844"/><stop offset="1" stop-color="#87313f"/></radialGradient><radialGradient id="radial-gradient-2" cx="-2072.4254" cy="659.3624" r="10.5308" gradientTransform="matrix(-0.5088, -0.8609, 0.8609, -0.5088, -883.5528, 115.5582)" xlink:href="#radial-gradient"/><radialGradient id="radial-gradient-3" cx="-2021.4404" cy="1180.6845" r="10.1126" gradientTransform="matrix(-0.2442, -0.8871, 0.8962, -0.2467, -797.6575, 35.5225)" gradientUnits="userSpaceOnUse"><stop offset="0" stop-color="#c67e72"/><stop offset="0.0499" stop-color="#c0776d"/><stop offset="0.3016" stop-color="#a75959"/><stop offset="0.5479" stop-color="#95434b"/><stop offset="0.7844" stop-color="#8b3542"/><stop offset="1" stop-color="#87313f"/></radialGradient><radialGradient id="radial-gradient-4" cx="-1874.9203" cy="1385.4482" r="9.265" gradientTransform="matrix(-0.0485, -0.9088, 0.9428, -0.0504, -618.5865, -117.5818)" xlink:href="#radial-gradient-3"/><radialGradient id="radial-gradient-5" cx="-1734.2496" cy="2008.9505" r="9.2513" gradientTransform="matrix(0.1838, -0.7943, 0.7719, 0.1605, -428.5685, -197.4133)" xlink:href="#radial-gradient-3"/><radialGradient id="radial-gradient-6" cx="-1695.8266" cy="2099.4781" r="7.8803" gradientTransform="matrix(0.2561, -0.7738, 0.7539, 0.2309, -323.6872, -302.1769)" xlink:href="#radial-gradient-3"/><radialGradient id="radial-gradient-7" cx="-2837.6913" cy="-1065.7628" r="6.9232" gradientTransform="matrix(-0.4157, -0.7403, -0.7522, 0.3562, -1133.1228, -231.3875)" xlink:href="#radial-gradient-3"/><radialGradient id="radial-gradient-8" cx="-2586.2352" cy="-1435.3136" r="5.9601" gradientTransform="matrix(-0.3073, -0.8231, -0.8473, 0.2441, -1139.1297, -288.8832)" xlink:href="#radial-gradient-3"/><radialGradient id="radial-gradient-9" cx="-2995.2339" cy="-1541.0441" r="5.9627" gradientTransform="matrix(-0.2762, -0.6976, -0.7453, 0.201, -1082.4318, -289.6341)" xlink:href="#radial-gradient-3"/><radialGradient id="radial-gradient-10" cx="-3263.461" cy="-1420.8474" r="5.9581" gradientTransform="matrix(-0.2895, -0.6185, -0.7386, 0.1612, -1081.1944, -296.3439)" xlink:href="#radial-gradient-3"/><radialGradient id="radial-gradient-11" cx="-3279.8297" cy="-2025.9174" r="5.9705" gradientTransform="matrix(-0.1861, -0.6024, -0.662, 0.0633, -1016.8289, -348.6158)" xlink:href="#radial-gradient-3"/><radialGradient id="radial-gradient-12" cx="-3998.3037" cy="-1739.0906" r="5.9616" gradientTransform="matrix(-0.2081, -0.4728, -0.6552, 0.0234, -1017.8975, -342.3423)" xlink:href="#radial-gradient-3"/><radialGradient id="radial-gradient-13" cx="-2648.6687" cy="-3925.5562" r="5.9706" gradientTransform="matrix(0.0595, -0.4992, -0.5071, -0.1685, -862.6825, -464.6095)" xlink:href="#radial-gradient-3"/><radialGradient id="radial-gradient-14" cx="-2144.1792" cy="221.1797" r="13.1246" gradientTransform="translate(-917.8054 221.2989) rotate(-134.8472)" xlink:href="#radial-gradient"/><radialGradient id="radial-gradient-15" cx="-2040.447" cy="814.6448" r="11.3454" gradientTransform="translate(-865.8253 80.4802) rotate(-115.9183)" xlink:href="#radial-gradient"/><radialGradient id="radial-gradient-16" cx="-1890.1656" cy="1113.4596" r="9.9714" gradientTransform="matrix(-0.9268, -0.3756, -0.3756, 0.9268, -557.4519, -203.1883)" xlink:href="#radial-gradient"/><radialGradient id="radial-gradient-17" cx="-2231.9209" cy="464.0861" r="9.1522" gradientTransform="matrix(-0.8361, -0.5485, -0.5485, 0.8361, -815.2383, -89.0192)" xlink:href="#radial-gradient"/><radialGradient id="radial-gradient-18" cx="-677.3741" cy="2031.9674" r="8.1772" gradientTransform="translate(-476.8429 -193.268) rotate(-55.6322)" xlink:href="#radial-gradient"/><radialGradient id="radial-gradient-19" cx="-2247.0215" cy="-1219.212" r="6.8441" gradientTransform="matrix(-0.3021, -0.9533, -0.9533, 0.3021, -1003.3748, -270.8241)" xlink:href="#radial-gradient"/><radialGradient id="radial-gradient-20" cx="-2601.9145" cy="-686.4741" r="5.5488" gradientTransform="matrix(-0.5346, -0.8451, -0.8451, 0.5346, -1112.6342, -332.237)" xlink:href="#radial-gradient"/><radialGradient id="radial-gradient-21" cx="-778.9252" cy="2140.1185" r="5.2777" gradientTransform="matrix(0.5501, -0.7409, 0.832, 0.5254, -475.1526, -203.1225)" xlink:href="#radial-gradient"/><radialGradient id="radial-gradient-22" cx="-987.3972" cy="2443.7613" r="5.4124" gradientTransform="matrix(0.4944, -0.6191, 0.7681, 0.4543, -491.4844, -221.5329)" xlink:href="#radial-gradient"/><radialGradient id="radial-gradient-23" cx="-1011.2451" cy="2030.1655" r="4.5865" gradientTransform="matrix(0.598, -0.6572, 0.9694, 0.5144, -445.1596, -206.9332)" xlink:href="#radial-gradient"/></defs><g id="octopus_b"><path d="M726.6851,1612.2758c11.0272-71.6308,78.8819-131.4945,152.854-122.1192,27.8643,3.0252,57.6537,7.1565,81.3655,23.3838,11.487,7.951,18.3849,20.1009,28.1274,29.6415,8.5179,9.3668,17.6783,20.0741,25.84,29.88,16.2072,20.4286,8.5436,54.91,35.9285,66.8328-29.1788-7.9151-27.3375-40.3814-45.2373-58.7231-15.7731-14.3408-33.7093-27.2494-49.5716-41.48-14.7077-11.8378-34.5607-12.28-52.6546-13.2078-58.7081-4.7341-112.7,29.9553-109.4144,93.2561C762.7676,1642.9977,726.7569,1647.6593,726.6851,1612.2758Z" transform="translate(-717.066 -1484.4868)" style="fill:#87313f"/><path d="M776.0918,1605.915c7.9289,6.6131,11.3789,5.9515,16.465,13.2632.0241,7.94-5.1228,9.6838-11.8214,13.9016-11.0454,6.8833-25.2743,9.2725-37.6435,4.43-24.0648-8.0464-8.1388-23.08,7.82-28.1634C759.283,1607.6686,768.3825,1599.48,776.0918,1605.915Z" transform="translate(-717.066 -1484.4868)" style="fill:#f2d6ca;stroke:#87313f;stroke-miterlimit:10;stroke-width:2px"/><path d="M730.2067,1619.0469a1.226,1.226,0,0,1-2.093-.7871c-4.5116-17.2248,1.0015-35.6966,8.3075-51.44,20.5554-40.049,56.5313-69.1388,110.7492-76.6048,32.053-4.0476,94.4809,2.6109,120.62,25.7234,17.5935,21.1889,39.5693,41.0157,49.3255,58.3972,7.646,12.5745,7.2558,21.3625,12.3348,36.3162,1.3559,5.2879,10.7783,21.3972,10.799,21.596-4.7558-2.2185-15.3767-24.0342-16.6307-26.417-2.444-6.0792-1.7728-7.3557-4.2687-13.9322-4.5956-11.2841-9.5511-18.3078-18.8275-28.1987-24.4942-24.6918-43.0139-46.0856-72.7705-51.8291-31.5365-5.4573-68.2406-9.37-97.0117,5.8977-22.5656,12.1068-50.0376,26.334-60.2429,52.836-2.3423,8.3883-.996,18.4027-2.5633,26.509C757.0119,1607.1012,737.9087,1605.1729,730.2067,1619.0469Z" transform="translate(-717.066 -1484.4868)" style="fill:#d38787"/><g id="Suckers_copy_3" data-name="Suckers copy 3"><path d="M727.3373,1608.89c7.0434,1.98,7.1948,2.4668,10.3621-3.7957,4.7647-7.3339,2.4964-16.5483-3.8637-21.6158C716.6941,1577.2232,710.3911,1606.4349,727.3373,1608.89Z" transform="translate(-717.066 -1484.4868)" style="fill:url(#radial-gradient)"/><path d="M730.7461,1596.268c-2.0328,13.2826-15.9226,11.2127-12.6963-2.1945C720.1656,1581.5866,731.459,1583.8269,730.7461,1596.268Z" transform="translate(-717.066 -1484.4868)" style="fill:#f2d6ca;stroke:#87313f;stroke-miterlimit:10"/><path d="M732.2385,1572.9875c4.7706,3.323,2.8332,4.0278,8.5726,1.2171,6.6094-4.108,3.9991-.2161,6.8387-8.6564,4.41-8.8051-5.6775-12.9809-12.5732-10.6529C727.4847,1557.296,724.8466,1568.6309,732.2385,1572.9875Z" transform="translate(-717.066 -1484.4868)" style="fill:url(#radial-gradient-2)"/><path d="M738.5324,1564.8907c-5.2058,8.8882-15.0721,2.98-8.5214-5.5457C735.2791,1551.0536,742.9633,1556.2846,738.5324,1564.8907Z" transform="translate(-717.066 -1484.4868)" style="fill:#f2d6ca;stroke:#87313f;stroke-miterlimit:10"/><path d="M748.5291,1543.1361c1.5213,2.0532,2.2426,3.1845,3.1792,3.4889.45.4558,8.4126-1.28,8.7586-1.8186.4186.1574,4.2614-6.3766,4.9593-8.36-.063-5.4227-5.9276-8.6315-10.0573-8.7034C748.4854,1528.26,743.3314,1537.6458,748.5291,1543.1361Z" transform="translate(-717.066 -1484.4868)" style="fill:url(#radial-gradient-3)"/><path d="M756.7671,1538.255c-7.0255,6.866-14.5921-1.0918-6.3791-7.1769C757.2768,1524.83,762.9969,1531.4719,756.7671,1538.255Z" transform="translate(-717.066 -1484.4868)" style="fill:#f2d6ca;stroke:#87313f;stroke-miterlimit:10"/><path d="M772.183,1520.2582c.9348,2.215,1.4468,3.2676,2.2053,3.7917.2612.576,8.1911.4525,8.3589.1334.7749-.282.5656-.3606,3.7666-3.4092.723-.7793,2.4156-2.8661,2.6933-3.0962.7412-3.4958-3.8079-8.5511-7.0052-9.3235C776.01,1507.7938,768.0439,1513.35,772.183,1520.2582Z" transform="translate(-717.066 -1484.4868)" style="fill:url(#radial-gradient-4)"/><path d="M780.21,1517.209c-3.3523,2.5616-11.0462,2.0572-7.827-3.7079C777.5351,1506.0261,791.0374,1508.237,780.21,1517.209Z" transform="translate(-717.066 -1484.4868)" style="fill:#f2d6ca;stroke:#87313f;stroke-miterlimit:10"/><path d="M797.185,1505.4843c1.7209,6.8585,15.7717,4.6889,15.0514-3.1788C810.8546,1490.9877,795.0222,1495.3541,797.185,1505.4843Z" transform="translate(-717.066 -1484.4868)" style="fill:url(#radial-gradient-5)"/><path d="M804.8391,1503.68c-7.3039,2.27-9.06-5.8917-1.6526-7.1672C810.3123,1494.4628,811.0386,1501.425,804.8391,1503.68Z" transform="translate(-717.066 -1484.4868)" style="fill:#f2d6ca;stroke:#87313f;stroke-miterlimit:10"/><path d="M819.5274,1497.02c.8318,6.0463,13.0966,5.0685,13.0085-1.5582C832.2256,1485.742,818.405,1488.1892,819.5274,1497.02Z" transform="translate(-717.066 -1484.4868)" style="fill:url(#radial-gradient-6)"/><path d="M826.26,1496.0164c-6.3923,1.3707-7.1393-5.79-.7531-6.2556C831.4118,1488.5415,831.7463,1494.64,826.26,1496.0164Z" transform="translate(-717.066 -1484.4868)" style="fill:#f2d6ca;stroke:#87313f;stroke-miterlimit:10"/><path d="M853.6709,1490.8443c.1728,5.5119-11.5159,6.2285-12.4058.59C839.9542,1482.7237,853.249,1482.9455,853.6709,1490.8443Z" transform="translate(-717.066 -1484.4868)" style="fill:url(#radial-gradient-7)"/><path d="M847.2431,1490.9117c6.26.2518,5.5959-6.1137-.2827-5.6009C841.0093,1485.1272,842.0669,1490.4462,847.2431,1490.9117Z" transform="translate(-717.066 -1484.4868)" style="fill:#f2d6ca;stroke:#87313f;stroke-miterlimit:10"/><path d="M876.3979,1490.8864c-.596,4.8883-11.2572,3.8891-11.09-1.256C865.2049,1481.8993,877.1738,1483.868,876.3979,1490.8864Z" transform="translate(-717.066 -1484.4868)" style="fill:url(#radial-gradient-8)"/><path d="M870.6829,1490.075c5.4477,1.1409,5.95-4.6424.5856-4.9877C865.9513,1484.2345,865.952,1489.06,870.6829,1490.075Z" transform="translate(-717.066 -1484.4868)" style="fill:#f2d6ca;stroke:#87313f;stroke-miterlimit:10"/><path d="M897.5958,1491.6913c-.47,4.1712-9.9271,3.147-9.8759-1.1817C887.8411,1483.9617,898.1772,1485.6986,897.5958,1491.6913Z" transform="translate(-717.066 -1484.4868)" style="fill:url(#radial-gradient-9)"/><path d="M892.3824,1491.833c4.7411,1.114,5.422-4.889.6747-5.0975C888.3471,1485.92,888.2691,1490.9551,892.3824,1491.833Z" transform="translate(-717.066 -1484.4868)" style="fill:#f2d6ca;stroke:#87313f;stroke-miterlimit:10"/><path d="M917.3,1494.5623c-.6107,3.7838-9.89,2.54-9.8759-1.1817C907.7071,1487.4191,917.7447,1489.1871,917.3,1494.5623Z" transform="translate(-717.066 -1484.4868)" style="fill:url(#radial-gradient-10)"/><path d="M912.1653,1494.4947c4.9194.8944,5.3061-4.0725.5485-4.38C907.9933,1489.199,908.052,1493.6168,912.1653,1494.4947Z" transform="translate(-717.066 -1484.4868)" style="fill:#f2d6ca;stroke:#87313f;stroke-miterlimit:10"/><path d="M938.273,1500.92c-.9506,3.4171-8.9307,1.1328-8.4774-2.2324C930.6381,1493.2714,939.2876,1496.19,938.273,1500.92Z" transform="translate(-717.066 -1484.4868)" style="fill:url(#radial-gradient-11)"/><path d="M933.7929,1500.3824c4.0762,1.4851,4.9809-3.3348.8883-4.0139C930.715,1494.9726,930.3448,1499.1334,933.7929,1500.3824Z" transform="translate(-717.066 -1484.4868)" style="fill:#f2d6ca;stroke:#87313f;stroke-miterlimit:10"/><path d="M957.2817,1508.69c-.9237,2.71-8.6945.5049-8.4566-2.0335C949.8025,1502.5329,957.6935,1504.927,957.2817,1508.69Z" transform="translate(-717.066 -1484.4868)" style="fill:url(#radial-gradient-12)"/><path d="M952.8017,1508.152c4.0554,1.2862,4.8961-2.22.6937-2.9881C949.7385,1503.8466,949.1546,1506.9238,952.8017,1508.152Z" transform="translate(-717.066 -1484.4868)" style="fill:#f2d6ca;stroke:#87313f;stroke-miterlimit:10"/><path d="M972.0932,1521.5225c-1.7921,2.0973-6.9544-2.09-5.4815-4.3548C968.9237,1513.307,974.3678,1518.2689,972.0932,1521.5225Z" transform="translate(-717.066 -1484.4868)" style="fill:url(#radial-gradient-13)"/><path d="M968.97,1519.5358c2.5677,2.4468,4.7429-.7964,1.9391-2.6153C968.4617,1514.6623,966.8522,1517.5448,968.97,1519.5358Z" transform="translate(-717.066 -1484.4868)" style="fill:#f2d6ca;stroke:#87313f;stroke-miterlimit:10"/><path d="M745.0873,1596.8833c15.3434,9.2579,24.5566-14.2248,13.9544-22.3686C740.1756,1565.222,730.77,1592.6459,745.0873,1596.8833Z" transform="translate(-717.066 -1484.4868)" style="fill:url(#radial-gradient-14)"/><path d="M755.0465,1587.2982c-4.7536,12.2594-20.1854,7.9373-16.0389-4.3594C742.2815,1569.024,758.7286,1573.4413,755.0465,1587.2982Z" transform="translate(-717.066 -1484.4868)" style="fill:#f2d6ca;stroke:#87313f;stroke-miterlimit:10"/><path d="M750.5117,1566.9589c9.9915,11.9277,24.04-4.72,17.7-14.4143C756.556,1540.0867,739.4493,1558.26,750.5117,1566.9589Z" transform="translate(-717.066 -1484.4868)" style="fill:url(#radial-gradient-15)"/><path d="M761.2465,1561.9179c-7.1371,8.6875-18.8126.8567-11.7958-8.0194C755.8935,1543.3732,768.1078,1551.55,761.2465,1561.9179Z" transform="translate(-717.066 -1484.4868)" style="fill:#f2d6ca;stroke:#87313f;stroke-miterlimit:10"/><path d="M782.04,1530.893c11,8.1023-2.6946,21.395-11.562,16.3881C758.9656,1538.1261,773.5529,1521.8246,782.04,1530.893Z" transform="translate(-717.066 -1484.4868)" style="fill:url(#radial-gradient-16)"/><path d="M778.2409,1540.74c7.2452-6.6879-.5289-16.6349-7.7741-9.947C761.6778,1537.1394,769.5825,1547.3744,778.2409,1540.74Z" transform="translate(-717.066 -1484.4868)" style="fill:#f2d6ca;stroke:#87313f;stroke-miterlimit:10"/><path d="M803.2457,1517.3194c8.5075,9.2672-6.3875,18.764-13.3591,12.6544C781.1966,1519.9212,796.9947,1507.515,803.2457,1517.3194Z" transform="translate(-717.066 -1484.4868)" style="fill:url(#radial-gradient-17)"/><path d="M797.9568,1525.4118c7.6516-4.7194,2.4428-15.1351-5.1984-10.3163C783.72,1519.0546,789.19,1530.0464,797.9568,1525.4118Z" transform="translate(-717.066 -1484.4868)" style="fill:#f2d6ca;stroke:#87313f;stroke-miterlimit:10"/><path d="M810.4494,1510.2336c-3.9354,10.4648,11.66,13.4628,15.3989,5.9343C829.5225,1505.1271,812.2857,1499.8873,810.4494,1510.2336Z" transform="translate(-717.066 -1484.4868)" style="fill:url(#radial-gradient-18)"/><path d="M817.4166,1515.3383c-7.9758-1.2793-7.134-11.522.8314-10.3421C827.3343,1505.3553,825.9477,1516.1575,817.4166,1515.3383Z" transform="translate(-717.066 -1484.4868)" style="fill:#f2d6ca;stroke:#87313f;stroke-miterlimit:10"/><path d="M844.4372,1502.5657c.5671,9.2913-12.4232,8.1329-13.8665,1.0444C829.7156,1494.4494,845.5816,1493.297,844.4372,1502.5657Z" transform="translate(-717.066 -1484.4868)" style="fill:url(#radial-gradient-19)"/><path d="M837.9394,1504.8522c6.4588.2311,7.8541-8.5611.7985-8.73C831.39,1495.0791,830.6537,1504.4058,837.9394,1504.8522Z" transform="translate(-717.066 -1484.4868)" style="fill:#f2d6ca;stroke:#87313f;stroke-miterlimit:10"/><path d="M863.5622,1497.9564c2.3591,7.1941-8.1214,8.8907-10.6813,3.6279C850.354,1494.7094,862.585,1490.5177,863.5622,1497.9564Z" transform="translate(-717.066 -1484.4868)" style="fill:url(#radial-gradient-20)"/><path d="M858.78,1501.2705c5.0932-.33,5.2-7.9826-.3285-7.0037C852.4011,1494.0937,852.8913,1501.6837,858.78,1501.2705Z" transform="translate(-717.066 -1484.4868)" style="fill:#f2d6ca;stroke:#87313f;stroke-miterlimit:10"/><path d="M872.2428,1501.1731c3.5916,4.5519,12.0433.7545,9.3424-4.8958C878.874,1490.5276,868.8353,1495.496,872.2428,1501.1731Z" transform="translate(-717.066 -1484.4868)" style="fill:url(#radial-gradient-21)"/><path d="M876.64,1500.9155c-4.58-.5277-4.5949-6.4581.3141-5.6632C882.2979,1495.3986,881.8368,1501.58,876.64,1500.9155Z" transform="translate(-717.066 -1484.4868)" style="fill:#f2d6ca;stroke:#87313f;stroke-miterlimit:10"/><path d="M892.9642,1502.2288c3.5709,4.353,12.3788.1162,8.0183-5.0593C897.8137,1493.78,890.0583,1497.5048,892.9642,1502.2288Z" transform="translate(-717.066 -1484.4868)" style="fill:url(#radial-gradient-22)"/><path d="M897.183,1502.1908c-4.49-.6375-4.3026-5.5837.2872-4.9566C902.4268,1497.5215,902.0608,1502.6873,897.183,1502.1908Z" transform="translate(-717.066 -1484.4868)" style="fill:#f2d6ca;stroke:#87313f;stroke-miterlimit:10"/><path d="M913.6484,1503.8915c2.86,3.3212,11.7388,1.6912,8.98-3.5509C920.3712,1496.0517,910.1933,1498.7221,913.6484,1503.8915Z" transform="translate(-717.066 -1484.4868)" style="fill:url(#radial-gradient-23)"/><path d="M917.9148,1503.3459c-4.2811-.5588-4.3294-4.8771.1713-4.14C922.8334,1499.4143,922.9025,1503.9316,917.9148,1503.3459Z" transform="translate(-717.066 -1484.4868)" style="fill:#f2d6ca;stroke:#87313f;stroke-miterlimit:10"/><path d="M937.5818,1506.8241c3.5581,1.338,2.0669,6.32-1.543,4.4843C931.596,1510.1631,933.4849,1505.14,937.5818,1506.8241Z" transform="translate(-717.066 -1484.4868)" style="fill:#f2d6ca;stroke:#87313f;stroke-miterlimit:10;stroke-width:2px"/><path d="M952.8751,1513.6742c3.5312,2.0446,1.6172,5.8638-1.825,3.7094C946.7233,1515.422,948.9357,1511.5716,952.8751,1513.6742Z" transform="translate(-717.066 -1484.4868)" style="fill:#f2d6ca;stroke:#87313f;stroke-miterlimit:10;stroke-width:2px"/><path d="M966.4447,1522.3128c2.7251,2.0282.8172,4.9419-1.9184,2.8142C961.4241,1523.3393,963.72,1520.2847,966.4447,1522.3128Z" transform="translate(-717.066 -1484.4868)" style="fill:#f2d6ca;stroke:#87313f;stroke-miterlimit:10;stroke-width:2px"/><path d="M978.185,1533.6559c3.0443,2.196.6226,5.9676-2.343,3.5623C972.1118,1535.1944,974.8216,1531.2921,978.185,1533.6559Z" transform="translate(-717.066 -1484.4868)" style="fill:#87313f"/><path d="M984.4632,1531.1912c3.2639,2.3741.6433,6.1665-2.4218,3.7716C978.0916,1532.7608,980.98,1528.6388,984.4632,1531.1912Z" transform="translate(-717.066 -1484.4868)" style="fill:#87313f"/><path d="M991.5192,1547.7484c2.5055,1.85.8752,4.5337-1.6407,2.5842C986.7866,1548.6443,988.8044,1545.82,991.5192,1547.7484Z" transform="translate(-717.066 -1484.4868)" style="fill:#87313f"/><path d="M1000.4453,1557.1731c2.5055,1.85.8752,4.5337-1.6407,2.5842C995.6029,1557.98,997.6311,1555.2548,1000.4453,1557.1731Z" transform="translate(-717.066 -1484.4868)" style="fill:#87313f"/><path d="M996.9956,1546.2722c2.605,1.84.5292,5.0725-1.8976,3.0132C991.8963,1547.508,994.0715,1544.2648,996.9956,1546.2722Z" transform="translate(-717.066 -1484.4868)" style="fill:#87313f"/><path d="M1008.044,1558.6929c2.605,1.84.5292,5.0724-1.8976,3.0131C1002.9344,1559.8292,1005.2194,1556.6751,1008.044,1558.6929Z" transform="translate(-717.066 -1484.4868)" style="fill:#87313f"/></g></g></svg>