<svg id="pizza" xmlns="http://www.w3.org/2000/svg" xmlns:xlink="http://www.w3.org/1999/xlink" viewBox="0 0 100.3224 144.0764"><defs><radialGradient id="radial-gradient" cx="-1255.3566" cy="-678.3404" r="62.2382" gradientTransform="matrix(-0.0826, -0.9966, -0.6577, 0.0545, 691.395, -41.6591)" gradientUnits="userSpaceOnUse"><stop offset="0" stop-color="#a88800"/><stop offset="0.2231" stop-color="#a38201"/><stop offset="0.5084" stop-color="#957302"/><stop offset="0.8262" stop-color="#7e5804"/><stop offset="1" stop-color="#6e4706"/></radialGradient></defs><g id="green_olive_whole"><path d="M1263.6137,1239.3021c48.4259-30.7574,32.0387-139.0331-28.2756-138.5671C1173.7135,1112.055,1172.1523,1276.6714,1263.6137,1239.3021Z" transform="translate(-1191.6289 -1100.7335)" style="fill:url(#radial-gradient)"/><g id="Highlight_A-3" data-name="Highlight A-3" style="opacity:0.4000000059604645"><path d="M1225.8615,1229.8459c4.8749-.6967,13.44,3.1869,10.8977,9.2222-1.8909,2.27-9.2875-.97-11.68-2.0642-22.0619-7.6062-31.235-40.142-27.6414-49.5173C1196.3239,1193.6152,1207.74,1228.1382,1225.8615,1229.8459Z" transform="translate(-1191.6289 -1100.7335)" style="fill:#cdad3c"/><path d="M1267.9187,1120.3663c15.39,16.1087,22.3888,46.7809-3.6523,34.5124-9.6-5.7359-5.3626-16.28-15.4406-27.6606-8.3432-9.4335-18.455-10.4294-17.832-14.8262.488-3.1877,6.3492-5.1639,10.2493-5.7213C1254.0828,1105.01,1264.8213,1116.9935,1267.9187,1120.3663Z" transform="translate(-1191.6289 -1100.7335)" style="fill:#cdad3c"/></g><g id="Highlight_B-3" data-name="Highlight B-3" style="opacity:0.8199999928474426"><path d="M1273.2527,1136.0146c2.12,2.0561,7.146,15.1226,2.106,15.6686-.8832-2.0174.0557-6.4285-.6912-8.9271C1274.1646,1138.6639,1273.0057,1136.1524,1273.2527,1136.0146Z" transform="translate(-1191.6289 -1100.7335)" style="fill:#d1b375"/><path d="M1234.1987,1236.3673c-4.5445.9982-9.5345-.8322-13.1115-3.6135l.0546-.1923c.2469-.1379.5772.1636.8658.2455,3.81,2.3273,8.3,1.5215,12.2457,3.3679Z" transform="translate(-1191.6289 -1100.7335)" style="fill:#d1b375"/><path d="M1208.0685,1220.7476a37.8558,37.8558,0,0,0,11.0385,10.9252l-.0545.1924C1214.4459,1229.4158,1210.8659,1225.1787,1208.0685,1220.7476Z" transform="translate(-1191.6289 -1100.7335)" style="fill:#d1b375"/><path d="M1268.9115,1128.9631c-9.2651-10.2146-18.3662-14.0422-31.5179-17.1473l-.0417-.22c12.6618-1.3993,25.2194,6.7344,31.56,17.367Z" transform="translate(-1191.6289 -1100.7335)" style="fill:#d1b375"/><path d="M1269.8541,1139.9362c-.8644.4825-5.1953-1.4729-5.7884-2.6805-.51-.7682-.2772-1.2219-.5271-2.54-.487-3.0485-1.9316-4.1856-1.4792-4.681C1265.4079,1128.49,1272.3237,1138.5576,1269.8541,1139.9362Z" transform="translate(-1191.6289 -1100.7335)" style="fill:#d1b375"/></g></g></svg>