<svg id="pizza" xmlns="http://www.w3.org/2000/svg" viewBox="0 0 330.9409 372.1678"><g id="onion"><path d="M528.8,1329.8c-163.6-85.5-327.2,133.7-251,262.6C467.4,1813.7,680.8,1485,528.8,1329.8ZM472.4,1621c-203.4,57.6-242.6-200.8-67.7-275.9C574.1,1265.6,617.6,1548.8,472.4,1621Z" transform="translate(-249.5409 -1294.532)" style="fill:#f9c7cd"/><path d="M519.8,1313.8c-163.6-85.5-327.2,133.7-251,262.6C458.4,1797.7,671.8,1469,519.8,1313.8ZM463.4,1605c-203.4,57.6-242.6-200.8-67.7-275.9C565.1,1249.6,608.6,1532.8,463.4,1605Z" transform="translate(-249.5409 -1294.532)" style="fill:#fcf3f2"/><g id="Lights"><path d="M472.4,1648.1c-3.9-1.3-6-6.5-4-10.1A9.8677,9.8677,0,0,1,472.4,1648.1Z" transform="translate(-249.5409 -1294.532)" style="fill:#fcf3f2"/><path d="M475.1,1637a16.5358,16.5358,0,0,1,4.5,12.3C475.1,1647.5,472.9,1641.3,475.1,1637Z" transform="translate(-249.5409 -1294.532)" style="fill:#fcf3f2"/><path d="M513.4,1607.6c4.8.2,7.1,5.8,5.6,10C515.5,1615.7,514.1,1611.2,513.4,1607.6Z" transform="translate(-249.5409 -1294.532)" style="fill:#fcf3f2"/><path d="M516.1,1602.8c2.5-.9,5.4,2.6,3.2,4.5C516.9,1608.2,514.8,1604.9,516.1,1602.8Z" transform="translate(-249.5409 -1294.532)" style="fill:#fcf3f2"/><path d="M568.1,1499c-.5-1.7,2.3-2.6,2.5-.7.3,1.7-2.5,1.2-2.5,2.5C568.7,1500.7,568.4,1499.4,568.1,1499Z" transform="translate(-249.5409 -1294.532)" style="fill:#fcf3f2"/><path d="M564.2,1514.7c2.4-1.1,6.1,1.7,4.6,4.1C566.6,1520.5,563.4,1517.1,564.2,1514.7Z" transform="translate(-249.5409 -1294.532)" style="fill:#fcf3f2"/><path d="M572.9,1474.5a16.5883,16.5883,0,0,1-1.8,14.2A12.0966,12.0966,0,0,1,572.9,1474.5Z" transform="translate(-249.5409 -1294.532)" style="fill:#fcf3f2"/><path d="M358.8,1355.7c3.9.4,4.9,6.4,1.3,8A8.2731,8.2731,0,0,1,358.8,1355.7Z" transform="translate(-249.5409 -1294.532)" style="fill:#fcf3f2"/><path d="M365.3,1350.3c4.7,1.7,5.5,9.1,1.3,11.8A26.2787,26.2787,0,0,1,365.3,1350.3Z" transform="translate(-249.5409 -1294.532)" style="fill:#fcf3f2"/><path d="M369.2,1347.3c2.7-1.8,5.8,2,3.6,4.3A3.5269,3.5269,0,0,1,369.2,1347.3Z" transform="translate(-249.5409 -1294.532)" style="fill:#fcf3f2"/><path d="M308.1,1414.7c3.3-.1,5.6,3.8,3.8,6.5A5.01,5.01,0,0,1,308.1,1414.7Z" transform="translate(-249.5409 -1294.532)" style="fill:#fcf3f2"/><path d="M304.6,1421.6a8.3728,8.3728,0,0,1,3.4,11.2A11.718,11.718,0,0,1,304.6,1421.6Z" transform="translate(-249.5409 -1294.532)" style="fill:#fcf3f2"/><path d="M301.1,1433.4a3.8875,3.8875,0,0,1,3.4,2.1c1.7.6-.3,2.8-1.1,1.2A4.0107,4.0107,0,0,1,301.1,1433.4Z" transform="translate(-249.5409 -1294.532)" style="fill:#fcf3f2"/><path d="M449.4,1320.4a24.5291,24.5291,0,0,1,0,14.2A24.5291,24.5291,0,0,1,449.4,1320.4Z" transform="translate(-249.5409 -1294.532)" style="fill:#fcf3f2"/><path d="M445.2,1323.6a11.673,11.673,0,0,1-.5,9.5A11.6522,11.6522,0,0,1,445.2,1323.6Z" transform="translate(-249.5409 -1294.532)" style="fill:#fcf3f2"/><path d="M360.9,1644.3a15.9348,15.9348,0,0,1,2.9,10.1A12.4386,12.4386,0,0,1,360.9,1644.3Z" transform="translate(-249.5409 -1294.532)" style="fill:#fcf3f2"/><path d="M365.3,1646.8a10.9558,10.9558,0,0,1,3.4,8.6A10.4426,10.4426,0,0,1,365.3,1646.8Z" transform="translate(-249.5409 -1294.532)" style="fill:#fcf3f2"/><path d="M553.5,1546.5c2.8,9.2-1.2,20.6-9.4,25.8A56.7693,56.7693,0,0,1,553.5,1546.5Z" transform="translate(-249.5409 -1294.532)" style="fill:#fcf3f2"/></g></g></svg>