<svg id="pizza" xmlns="http://www.w3.org/2000/svg" viewBox="0 0 328.956 344.4527"><g id="oregano"><g id="dark"><polygon points="103.496 112.6 115.196 127.8 102.896 136.7 91.896 101.7 103.496 112.6" style="fill:#293d0e"/><polygon points="107.077 208.2 119.077 218.2 94.077 222.2 94.077 209.2 107.077 208.2" style="fill:#293d0e"/><polygon points="275.106 310.429 252.206 302.929 257.706 287.628 292.706 306.728 275.106 310.429" style="fill:#293d0e"/><polygon points="242.706 115.7 255.706 123.7 261.706 115.7 249.706 110.7 242.706 115.7" style="fill:#293d0e"/><polygon points="297.956 200.2 291.321 240.545 306.321 234.545 307.956 203.2 297.956 200.2" style="fill:#293d0e"/><polygon points="162.456 33.815 169.456 38.815 159.456 45.815 146.456 35.815 162.456 33.815" style="fill:#293d0e"/></g><g id="medium"><polygon points="155.456 158.326 174.456 153.326 187.456 165.326 166.456 177.326 155.456 158.326" style="fill:#335812"/><path d="M1164.44,1030.6l19,5c.3,10,.7,20,1,30l-16-11Z" transform="translate(-932.044 -866.9)" style="fill:#335812"/><polygon points="144.456 244.2 165.456 241.2 171.456 255.2 135.456 255.2 144.456 244.2" style="fill:#335812"/><polygon points="57.451 161.2 55.451 181.2 35.451 181.2 42.451 171.2 57.451 161.2" style="fill:#335812"/></g><g id="light-3"><polygon points="220.396 236.705 214.396 256.705 242.396 243.705 236.396 230.705 220.396 236.705" style="fill:#56812a"/><polygon points="157.956 107.2 170.956 117.2 176.956 86.2 165.956 90.2 157.956 107.2" style="fill:#56812a"/><polygon points="141.956 324.453 171.956 334.453 156.956 344.453 134.956 334.453 141.956 324.453" style="fill:#56812a"/><polygon points="305.956 130.7 328.956 138.7 310.956 152.7 285.956 137.7 305.956 130.7" style="fill:#56812a"/><polygon points="0 113.2 23 124.2 29 110.2 11 110.2 0 113.2" style="fill:#56812a"/></g><g id="lightest"><polygon points="37.5 267.628 47.5 287.628 54.5 273.628 47.5 253.628 37.5 267.628" style="fill:#698a13"/><polygon points="56.956 0 50.956 37 75.956 37 64.956 19 56.956 0" style="fill:#698a13"/><path d="M1212.5,906.7154l-23,24-10-8C1196.8,909.3154,1190.4,910.2154,1212.5,906.7154Z" transform="translate(-932.044 -866.9)" style="fill:#698a13"/></g></g></svg>