<svg id="pizza" xmlns="http://www.w3.org/2000/svg" xmlns:xlink="http://www.w3.org/1999/xlink" viewBox="0 0 128.1 116.5973"><defs><linearGradient id="linear-gradient" x1="-788.9966" y1="-609.4656" x2="-682.7071" y2="-505.5189" gradientTransform="translate(-387.2146 964.8316) rotate(160.9798)" gradientUnits="userSpaceOnUse"><stop offset="0" stop-color="#ffa043"/><stop offset="0.1747" stop-color="#ff9b41"/><stop offset="0.3905" stop-color="#ff8c3d"/><stop offset="0.4706" stop-color="#ff843b"/><stop offset="0.7133" stop-color="#ff883c"/><stop offset="0.9785" stop-color="#ff9640"/><stop offset="1" stop-color="#ff9740"/></linearGradient><linearGradient id="linear-gradient-2" x1="1112.4185" y1="1380.9401" x2="1208.069" y2="1345.809" gradientTransform="matrix(0.3448, 0.9387, 0.9387, -0.3448, -1128.2326, 613.0207)" gradientUnits="userSpaceOnUse"><stop offset="0" stop-color="#ffa143"/><stop offset="0.3732" stop-color="#ff9541"/><stop offset="1" stop-color="#ff773b"/></linearGradient></defs><g id="pineapple_c"><path d="M557.7,1283.1a27.6371,27.6371,0,0,0-8.1-13.5c-30.1,3.2-96.7-23.4-118.7-66.1-.4,6.3-.9,12.6-1.3,18.9a139.0217,139.0217,0,0,0,128.1,60.7Z" transform="translate(-429.6 -1167.1)" style="fill:url(#linear-gradient)"/><path d="M552.3,1190l-6-8.9-.7615,1.5044q1.5824,43.467,3.1648,86.9341,4.4983,6.7306,8.9967,13.4615Z" transform="translate(-429.6 -1167.1)" style="fill:url(#linear-gradient-2)"/><path d="M549.6,1270.9A136.8589,136.8589,0,0,1,430.8,1204q42.9-18.45,85.7-36.9a101.9555,101.9555,0,0,0,29.8,14.1C547.4,1211,548.5,1241,549.6,1270.9Z" transform="translate(-429.6 -1167.1)" style="fill:#fccb51"/><g id="Light_copy" data-name="Light copy"><path d="M511.9,1264.2v9.4c-1.3-3.1-2.7-6.3-4-9.4Z" transform="translate(-429.6 -1167.1)" style="fill:#fccb51"/><path d="M537.5,1269.6a99.3965,99.3965,0,0,0,1.3,10.8,108.7568,108.7568,0,0,1-5.4-10.8Z" transform="translate(-429.6 -1167.1)" style="fill:#fccb51"/><path d="M460.6,1238.6c-.4,4-.7,8.1-1.1,12.1a85.98,85.98,0,0,0-7-18.9Z" transform="translate(-429.6 -1167.1)" style="fill:#fccb51"/><path d="M437.6,1214.3c-.4,1.8-.9,3.6-1.3,5.4-.4-3.1-.9-6.3-1.3-9.4C435.8,1211.6,436.7,1212.9,437.6,1214.3Z" transform="translate(-429.6 -1167.1)" style="fill:#fccb51"/><path d="M483.5,1254.7c-.4,1.8-.9,3.6-1.3,5.4-.4-2.2-.9-4.5-1.3-6.7Z" transform="translate(-429.6 -1167.1)" style="fill:#fccb51"/></g><g id="Lighter_copy" data-name="Lighter copy"><path d="M527.4,1173.8a107.6682,107.6682,0,0,0-7.1,20.7,111.14,111.14,0,0,1,10.6-18.7Z" transform="translate(-429.6 -1167.1)" style="fill:#f9f275"/><path d="M539.4,1179.1a49.076,49.076,0,0,0-3.6,10.6,55.4614,55.4614,0,0,1,5.4-9.5Z" transform="translate(-429.6 -1167.1)" style="fill:#f9f275"/><path d="M533.5,1270.1a18.1005,18.1005,0,0,0,4,.4c-.8-10.9,0-26.6.5-37.5-1.8,10.6-3.9,26.5-4.7,37.1Z" transform="translate(-429.6 -1167.1)" style="fill:#f9f275"/><path d="M483.5,1254.7c1.3-3.7,2.7-7.5,4.1-11.1a91.9458,91.9458,0,0,1-6.6,9.7Z" transform="translate(-429.6 -1167.1)" style="fill:#f9f275"/><path d="M508.1,1264.9c1.2.3,2.4.7,3.7,1.1,2.2-7.2,6.7-21.8,8.9-29C517.5,1243.8,511.2,1257.9,508.1,1264.9Z" transform="translate(-429.6 -1167.1)" style="fill:#f9f275"/><path d="M452.5,1231.8a456.9181,456.9181,0,0,1,45.4-36.3c8-5.6-5.4,5.3-9.6,9.2a176.9781,176.9781,0,0,0-27.7,33.9Z" transform="translate(-429.6 -1167.1)" style="fill:#f9f275"/><path d="M437.6,1214.3c8.8-4.5,21.7-12.2,30.3-17.4-9.4,4.2-22.9,11-32.9,13.3C435.8,1211.6,436.7,1213,437.6,1214.3Z" transform="translate(-429.6 -1167.1)" style="fill:#f9f275"/></g></g></svg>