<svg id="pizza" xmlns="http://www.w3.org/2000/svg" xmlns:xlink="http://www.w3.org/1999/xlink" viewBox="0 0 570.8782 222.729"><defs><radialGradient id="radial-gradient" cx="-47.4437" cy="2191.7609" r="488.087" gradientTransform="matrix(-0.3269, 0.9451, 0.7525, 0.2603, -1086.199, 19.3618)" gradientUnits="userSpaceOnUse"><stop offset="0" stop-color="#dc4343"/><stop offset="0.5214" stop-color="#e7645b"/><stop offset="0.6283" stop-color="#e8685e"/><stop offset="0.7524" stop-color="#e8625a"/><stop offset="0.9191" stop-color="#e9514e"/><stop offset="1" stop-color="#e94646"/></radialGradient></defs><g id="prosciutto_b"><g id="Fat_copy" data-name="Fat copy"><g id="Side-2"><path d="M766.48,604.1134c-4.8068-46.2977-15.298-57.255-15.9245-73.0278,5.1626-29.5456-5.7246-55.6147-12.5407-54.51.6324,18.5241,1.3722,56.4965,2.4812,75.1721l-.0615.1273.0615-.1273c-2.88,16.042-5.7935,31.99-8.6738,48.0314L719.433,618.9241c-113.6743,33.9053-340.7662.0673-457.526-11.3366-13.316-34.86-57.67-107.72-23.5625-134.4355,7.1619-5.8853,25.7156-11.2936,22.9885-11.8256,12.519-2.6694,26.5574-5.233,26.4916-5.4219s-16.0673,2.2118-31.5108,3.7826c-10.2743.2984-14.9784,3.209-23.1235,6.5777-12.4574,2.542-22.2763,8.4-30.813,34.0388-3.6088,13.6484-3.16,28-2.366,42.1262,3.3121,34.1105,3.8043,70.1572,14.4947,102.6489,2.77,3.694,7.4118,5.4649,11.8558,6.6693,25.0634,8.1018,50.2313.7056,74.8543-4.9121,15.18-2.3262,30.5153-.2585,45.8288.2281,23.9825.7478,47.8517-2.1714,71.8628-1.6454,62.7977,1.5145,142.8186,34.5144,199.2708,16.0015,29.4458-9.0991,49.7121-14.1513,79.3187-16.1052,23.4359.0911,45.5979,11.1105,65.1309-3.6408C766.933,637.3142,769.339,630.5451,766.48,604.1134Z" transform="translate(-196.8442 -444.3141)" style="fill:#f7e0bf"/></g><path d="M203.0514,538.0871c1.7564,10.5074,5.9393,20.3808,7.979,30.7894,4.7074,20.4924-2.871,79.2616,30.82,68.3651,72.48-30.56,95.73-25.5324,167.4777-3.204,35.8255,6.4685,73.1017-3.56,109.05,2.654,16.4526,2.843,32.16,9.0169,48.49,12.1147C613.3724,659.177,639.66,636.4587,680.72,630.3c23.3441-1.9949,49.0464,15.8389,70.9218,3.5541,6.3451-5.4946,5.64-15.4155,4.3577-23.6523-6.5291-42.7321-11.2695-63.3189-12.8894-84.6758,0,0,3.081-29.1378-1.5029-42.8956-3.8457-15.286-22.4285-16.6451-33.8888-15.192-11.51.0939-6.46-.6076-22.8122-.7322-13.1574-.0733-27.0744-.2-42.7726,1.2482-27.1958,2.49-26.7576,6.7854-53.9291,8.7377-13.206,1.0026-26.9011.9049-31.3609.871-63.6259.3627-51.3542-15.7758-127.8311-30.1016-28.8518-5.2987-58.6429-2.9628-87.8546.1243C282.4935,454.5857,189.5166,452.4713,203.0514,538.0871Z" transform="translate(-196.8442 -444.3141)" style="fill:url(#radial-gradient)"/><g id="Fat-2"><path d="M760.23,598.0317c-5.8434-55.0439-19.8165-59.2807-14.8222-82.6254,2.1178-13.9759,4.0106-32.8506-10.3607-43.0909,1.915,8.2282,2.9349,22.6988-11.05,19.9486a282.7769,282.7769,0,0,0-32.7158,1.2374c-17.3122,1.3749-13.8621-9.9942-42.1338-7.5525,11.409,1.7418,23.5665,5.023,33.6353,10.5149,13.7627,2.7216,26.1511-4.88,42.2707,3.6923,4.5471,1.8038,2.5286,4.5195,1.6976,8.5157.5369,4.5784,4.5547,6.99,2.7152,13.562-6.223,9.7941-19.99,6.7562-29.2412,7.8629-17.9915,4.8947-40.4783-6.7528-52.0374-5.5829-9.9143-8.0874-22.2148-10.26-35.3549-9.0683-32,2.6824-28.229,17.1472-71.7392,8.38,44.441,19.0328,49.1456-13.9539,80.11.14,9.0171,4.9053,15.98,14.551,26.21,15.6447a37.317,37.317,0,0,1-11.5516-12.1763c6.7044-2.3369,13.1736,5.8923,20.2616,6.175,16.0678,4.7775,45.0479,5.5836,55.3779,20.9391-.519,3.6757-1.89,5.2124-6.1648,4.7964-3.79.368-5.96,3.56-7.6227,4.5633-11.8305,6.7713-28.6553-.1779-39.5156,8.1614-3.4922,3.653-7.6427,5.4174-12.6862,4.3162-9.4618-.4084-18.1388,5.6873-27.5789,6.86-12.1715.3243-25.256-1.3629-36.4864-6.2381-5.7634-2.8625-10.7557-7.1586-16.7035-9.6391-13.6127-5.6333-29.0989-.2352-43.7557-1.2684-5.8891-.4889-19.9022-3.0174-20.6619-3.07-19.1165-1.0672-35.4131,14.4621-62.5685,3.7007,12.464,7.1987,36.6164,4.1807,61.9894,2.5376,14.0687-.35,19.07,4.5783,30.6416,4.3571,7.4614-.1652,15.0372-1.2174,22.2413.6134,15.6988,5.5416,29.73,16.3241,42.6475,26.6475,7.5235,6.6967,14.6579,15.0118,24.4946,17.4075,6.0293,1.499,17.0607,3.3724,11.1808,10.5052-4.2632,5.0867-22.0588,8.1128-28.4686,8.8644-14.618,1.8126-29.1378-3.0809-43.4186-6.681-66.8608-16.5128-131.7175,16.4729-166.269-19.4565-2.5356-2.7169-16.7543-17.9877-18.9131-16.282-.2844,4.6528,4.9156,12.5832-6.563,17.3256-10.6574,4.6681-15.7544-2.6628-33.7075-1.9117-5.6258.2667-10.6105,1.1569-17.6915-.9285-7.7922-3.2143-15.9162-5.254-24.3376-3.5893-10.666,4.0356-10.1216-4.7322-18.7836-6.7961a7.2353,7.2353,0,0,1-3.0336-4.4494c-1.1277-3.843-4.0064-3.8985-4.2957-6.5511-.1905-2.3693,1.9857-2.81,4.0442-7.2343,1.505-3.2779,1.9625-6.8263,1.1984-7.1954-4.3161,5.8464-8.9128,9.6727-18.3848,6.1967-6.6952-8.574-15.89-14.9-21.017-24.4444-4.4273-6.9288-2.7768-13.4346-4.4856-20.4638-2.1438-6.454-5.3846-7.5483-4.5822-11.3227,1.4547-4.6372,5.711-7.9212,9.664-10.2522,3.8672-1.6657,6.1351-.0205,11.7063-1.9625,4.68-2.3726,10.5619-.081,13.3408,4.2454,2.364,4.0475,1.61,6.7459,3.107,9.8248,2.753,2.4292,2.1923,5.3781,1.0323,8.43-.565,2.6326.52,3.3135,1.6975,8.5157,1.6906,10.3185-.0507,10.1842,4.8876,19.7942,2.3812,5.3123,2.8291,5.6857,3.0179,5.62.7884-.1689.7193-5.2281-.2941-9.9581-1.05-5.1406-2.2868-5.3451-3.14-9.9192-.4122-2.3979-1.4731-10.6061,1.8233-12.3905,1.1374-.0788,7.2552-1.3641,7.9163-1.5945,4.5169-.41,8.499,4.0269,12.9458,3.1123,2.1761-.4409,4.1461-2.0807,6.2694-1.7618,5.36,1.097,3.6649,8.9949,7.3093,11.8547,8.7035,2.7908,10.5943,11.5569,14.87,18.9622,7.2019,10.9391,17.5118,8.6161,28.5086,7.96,3.2364.778,4.31,2.9456,8.628,6.5235,2.6586,2.4622,12.3911,8.8126,14.19,8.5034.3405-.5423-4.6388-3.89-10.2365-10.8343-2.9591-3.6283-4.4386-5.4423-5.7137-8.4926-5.3883-19.4079-5.4535,5.9252-20.1352-1.5594-12.2276-3.7862-11.8893-13.753-16.8309-28.2333-2.4573-8.5687-2.5933-9.2626-2.1011-10.2813,6.4275-11.03,34.5384-2.0845,38.9738-1.5126-4.0307-3.3605.8989-12.9155,1.0376-14.3406.0329.0944-6.2031,8.94-11.4355,7.9044-4.94-.5018-16.6786-3.1878-20.5545-2.1545-4.5082,1.042-5.909.3654-6.3941-.4187-.4193-.5951.0156-1.17-.0389-2.8458-.0086-.6324-2.3758-9.55-3.14-9.9192-4.88,3.925-1.7115,13.6224-4.9663,16.1337-2.31,2.1821-5.0921-.0254-12.9382,2.0742-25.4809,12.2709-25.63-26.437-40.3332-35.5025-6.5334-5.983-2.174-8.6674,4.7251-8.3189,3.3951-1.5011,4.3448-6.0682-.1219-4.2994-8.2568,2.1368-8.72,2.9338-10.9008,3.0584-6.291.1808-12.9674-4.6933-13.1854-11.395-1.0322-8.43,47.297-15.0039,50.9025-14.99-.07-.505-15.6739.91-32.9618,1.7468,0,0-10.3644.6475-15.6723,3.3449a53.8627,53.8627,0,0,1-7.3567,3.2c-12.2686,2.4762-22.2148,8.273-30.6944,33.468-7.7856,43.5917,2.478,88.8345,8.3834,132.2075.5644,8.9108,6.5971,15.28,15.4107,16.8675,24.936,8.04,50.01.677,74.4436-4.8748,15.0858-2.2933,30.388-.32,45.6071.1995,23.7607.7192,47.63-2.2,71.4522-1.6081,62.4485,1.4244,141.9887,33.9564,198.19,15.6367,29.29-8.9388,49.4619-13.9582,78.88-15.8462,23.3414.124,45.31,10.8931,64.72-3.6036C760.6127,630.7275,762.9573,624.0857,760.23,598.0317Zm-520.5-104.5c3.0147.75,4.46.0339,5.138,1.0683,1.3236,1.9744-3.0055,6.8722-3.4734,7.353-1.7682,2.5226-5.4266,3.2683-7.9648,2.6705-5.54-.3988-7.4366,6.6164-11.7776,6.0115-7.6346-.9394-.9524-11.8466-1.9512-13.1929C232.7031,474.5889,229.4452,490.7625,239.73,493.5317Zm26.14,119.3464c-1.05,1.8487-3.8343,1.76-8.9836,2.1783-9.3829.729-8.2983,1.41-12.253,1.3059-16.5739-.1532-20.5621-7.3411-26.13-30.6048-1.5988-8.2325,1.2125-10.8009.4937-17.1163-.5326-4.2622-3.6492-10.1652-.4161-14.2575.694-.136,1.6226.7053,2.2679,1.6452,4.5088,5.9473,5.3042,3.9757,9.6,10.5268,3.9951,5.3851,6.2679,14.3357,12.0129,20.4876C248.3855,597.051,266.27,598.23,265.8693,612.8781Zm448.3675-8.5574c-23.8934,3.4572-18.5461,10.5949-36.4944,18.6515-12.6469-4.3814-26.7025-3.0826-39.53-6.7658-22.9772-8.1936-22.1-11.1468-47.7265-25.7242-8.8325-5.2874-13.7747-8.2243-13.5286-8.7337s4.2551,1.27,10.2559,2.9909c4.2552,1.27,13.3736,4.34,23.5536,4.0743,11.0211-1.1941,22.2682-2.0434,33.2893-3.2376,22.2676-9.0327,58.2813-28.1521,77.5727-5.0124C720.0746,589.4718,722.0242,600.23,714.2368,604.3207Zm20.0444-60.6788c.8138,13.2717-25.4177-3.954-30.2126-7.6837,6.5025-3.22,23.4387-2.0278,29.9574.5714C735.2179,538.1262,733.2809,539.86,734.2812,543.6419Z" transform="translate(-196.8442 -444.3141)" style="fill:#ffefdc"/><path d="M282.3576,472.4245c-11.6421-.2838-21.1691,6.1082-1.8168,3.5985,0,0,8.9966-1.23,11.4776-.1883,2.7729,1.575,5.9678,1.6263,9.0969,1.4887,4.7845.6621,13.5809.9847,16.0107,5.221.116,1.5481-.4,3.1048-1.1169,6.2139-1.1229,3.4625-.7123,3.4253-.8952,6.2425-.3146,2.4395-1.4391,3.4668-1.1186,3.7787.4479.3734,2.9316-.7042,4.1662-2.9348,1.4806-2.74-.3766-4.4225.8909-6.5587,1.7638-2.8388,5.9-.9977,7.6313-3.9309.9513-2.1319.6535-5.4169,3.5764-6.7535,2.6024-1.6485,5.009-1.4283,7.6286-1.812,21.1675-8.5433,24.2.46,25.8355,20.6467,4.5638-3.9206.354-11.137,6.04-13.9661,1.2518-.9659,1.6667-.6869,3.5839-1.567,4.893-2.9764,8.5654-7.3276,13.5906-2.937,1.5934-6.0623,14.2063,2.7788,23.0765-3.0665,5.9085-7.3546,18.08-7.6789,25.9137-3.7378-1.922-6.4254-20.82-5.3451-24.2615-.3328a17.7771,17.7771,0,0,1-12.8422,4.4764c-4.3081-.51-4.5644-3.0686-10.17-3.6562-7.6319-3.0583-23.5664,13.51-25.4761,1.0437-1.65-5.0376-1.0478-7.26,1.7019-9.7007-2.9618-1.5093-9.7822-.72-11.6649,2.6893-4.0016,3.407-10.6293-2.543-15.2347.6508a24.1988,24.1988,0,0,1-9.64,2.7249c-6.2538.5914-6.2522,3.0266-12.9037,4.6038C309.9759,475.4,290.4714,471.3966,282.3576,472.4245Z" transform="translate(-196.8442 -444.3141)" style="fill:#ffefdc"/><path d="M368.5456,565.65c-2.2091.3464-3.3152-1.9155-4.2551-1.27-2.1632,1.3895,1.0495,9.6948,4.5822,11.3228.1683-6.201,6.1831-8.0858,10.3875-15.1641.4419-2.378.21-5.4741,2.27-7.463,6.189-5.3344,14.5451-.1987,23.14-.7587,4.969.28,14.9579,9.1886,17.8765,7.5358.1231-.2547-5.1093-1.29-9.0628-5.9484-2.8863-5.2421-6.024-5.7369-11.6169-5.3759-6.2052-.4845-6.911-5.8512-11.8428-5.7206-2.8086.4494-5.0722-.88-6.6548-3.2931-3.9951-5.3851-10.9159-7.3146-14.54-11.0286-4.662-7.9061-3.4841-2.7039-2.7238,4.3383,8.0938-.1738,13.4471,9.7152,10.5075,16.7762-1.246,3.7173-3.1674,4.2812-3.4361,7.7636C373.4127,560.7769,371.8878,564.909,368.5456,565.65Z" transform="translate(-196.8442 -444.3141)" style="fill:#ffefdc"/></g></g></g></svg>