<svg id="pizza" xmlns="http://www.w3.org/2000/svg" viewBox="0 0 302.449 205.2999"><g id="rokpol_gold"><path d="M1031.2835,944.525c-1.3,2.4-2.6,4.8-4,7.2l62.3,79.7,7.2-7.2Z" transform="translate(-1027.2835 -826.225)" style="fill:#eab744"/><path d="M1329.5835,937.6249a81.1268,81.1268,0,0,1-16.5,53.7l-223.4,40.2c1-2.1,2-4.3,3-6.4Z" transform="translate(-1027.2835 -826.225)" style="fill:#d3a240"/><path d="M1031.2835,944.525q30.75,40.35,61.4,80.6l236.9-87.5-91.8-111.4Z" transform="translate(-1027.2835 -826.225)" style="fill:#ffd161"/><g id="Shadows_copy_3" data-name="Shadows copy 3"><path d="M1081.2835,952.6249c-5.5-19.6-1.7-18.6,10.6-31.7,3.6-5.4,16.2-10.2,16.8-.6-.3,2.1-2.4,3.8-2.3,6,2.3,8.9,14.3,14.4,12,24.5-3.3,16.1-25,38-35.5,14.6C1076.5835,960.025,1082.3835,958.8249,1081.2835,952.6249Z" transform="translate(-1027.2835 -826.225)" style="fill:#f2ba49"/><path d="M1154.9835,928.3249c7.3-4.5,15.1-9.2,23.7-9,3.9.1,8.1,1.2,11.4-1,9.2-11.7,5.7-12,22.1-16.5,9-4.4,18.5-9.1,28.9-6.8,20.8,3.7,10,33-5.1,37.8-3.6,1.5-7.5,2.3-10.5,4.8-11.7,18.6-28.2.1-41.5,13.9-7.2,6.2-29.7,10.3-33-1.1,1.8-5-3.2-6.2-3.2-10.6A15.065,15.065,0,0,1,1154.9835,928.3249Z" transform="translate(-1027.2835 -826.225)" style="fill:#f2ba49"/><path d="M1132.6835,930.8249c6.2,3.5,11.8-1.2,10.8-7.9-.8-4.3,2.7-7,6.8-7.7,4.3-.7,8.4-2.7,9-7.4,4.9-10.7-1.1-27.8-14.4-18.5-10.5,5.7-25.4,9.9-28.4,23.1-1,3.5.9,6.1,4.4,6.4C1123.6835,923.6249,1127.0835,928.525,1132.6835,930.8249Z" transform="translate(-1027.2835 -826.225)" style="fill:#f2ba49"/><path d="M1176.4835,902.025c8.1,1.6,16.4-7.8,20.5-13.9,7.2-1.6,18.4-7.4,14.3-16.4-1.4-2.1-4.2-2.6-6.7-3-3.6-.1-15.5-3.3-18.8-1.7-2.7,1.4-3,5.1-3.7,8C1176.8835,884.4249,1175.9835,891.4249,1176.4835,902.025Z" transform="translate(-1027.2835 -826.225)" style="fill:#f2ba49"/><path d="M1225.5835,844.525c4.1-6.1,11.2-5.9,17.2-2.9,5.8,6.6.7,17.6,5.7,24.8,1.7,1.8,4.6,1.6,7.2,1.8,11.3,1,18.6,8.9,24.7,17.7,7.9,8.6,15.9,24.7,4,33.1-4.8,2.5-10.5,3.3-14.7,7-5.1,5.4-10.5.6-10-5.7-2.3-8.9,6.4-22.2-2.7-27.9-23.4-9.2-14.8-11.5-29.3-27.7-3.5-12.6-7.8-6.9-11.9-12.1C1215.5835,848.225,1223.7835,849.3249,1225.5835,844.525Z" transform="translate(-1027.2835 -826.225)" style="fill:#f2ba49"/><path d="M1146.7835,1004.225c-.4-2.3,1.9-9.2-1.5-10-5.3-1.9-12.6-5.8-17.9-3-.7,1-.3,2.6-1.2,3.4-4.4-.8-10.1-1-12.7,3.3-1.2,5-6,5.9-8,.9-2.2-4.2-.4-8.8-.4-13.2-.7-11.7-27.7-.1-22.2,9.2,7.3,18.1,21.3,14.5,26.3,23.5.4.8,1.5-.1,2.1-.3,4.6-2,10-1.8,14-5C1132.1835,1009.6249,1140.7835,1009.3249,1146.7835,1004.225Z" transform="translate(-1027.2835 -826.225)" style="fill:#f2ba49"/><path d="M1048.9835,958.8249c-1.7-4.5,1.6-8.7,1.9-13.1,4.2-3.1,8.4,1,9.8,5,10.3,4.3,2.5,7.6,3.8,12.2l3.5,9.1c.3.8-5.7,1.9-6.4,1.7C1055.7835,970.8249,1050.5835,965.225,1048.9835,958.8249Z" transform="translate(-1027.2835 -826.225)" style="fill:#f2ba49"/><path d="M1157.9835,968.8249c3.7.1,8.9,4,5.9,7.8,5.2,3.2,12.3-.2,13.3-6.2.3-1.9.2-4.2,1.7-5.4,26-4.8,11.5-6.6,26.8-14,8.4-3.4,9.5-2.3,16.5,1.9,5.9,2.6,21.4-2.1,15.8,9.2-17,14.2-18,14.4-39.9,19-11.1,3.2-13.7,11.1-28.5,11.9-5.1.8-8.2-5.1-13.5-4.2-9,.4-18,1.5-26.5-2.1-8.1-2.6-16.3-3-6.5-12.3,3.1-3.6,1.8-5.4,2.3-9.7,1.1-8.8,13.6-5,17.7-1.3C1147.7835,967.3249,1152.1835,967.8249,1157.9835,968.8249Z" transform="translate(-1027.2835 -826.225)" style="fill:#f2ba49"/><path d="M1251.3835,958.9249c1.5-3.5-1.7-5.5-4-7.6-4.4-8.2,4.4-10.4,10.7-7.2,11.9,2.6,11.6-14.1,19.5-17.7,5.3-2.1,2.4,7.3,7,11.5,5.1,6.9-1.8,8.8-.3,13.5,1.9,1.4,1,3.3-1.2,4-12,4.3-24.1,9.1-36.3,12.6C1249.5835,965.725,1250.6835,962.3249,1251.3835,958.9249Z" transform="translate(-1027.2835 -826.225)" style="fill:#f2ba49"/><path d="M1295.0835,927.525c2.5-3.5,2.1-9,5.4-11.8,8.4-3.3,12.4,10.2,11.7,16.4-.4,5.7-7,5.5-10.7,8.2-2.3,2.7-5.8,5.7-9.2,2.8C1286.6835,939.025,1292.7835,932.225,1295.0835,927.525Z" transform="translate(-1027.2835 -826.225)" style="fill:#f2ba49"/></g><g id="Shadows_Dark_copy" data-name="Shadows Dark copy"><path d="M1250.2835,977.3249c2.5,4.7,2.9,10.3,9.4,10.8,4.2,3.7,11.6-18.4,12.7-9.2-.6,1.7-.7,3.7,1.4,4.2l6.6,2.6c5.2,2.7,7.9-3.8,10.2-7.2,17.3-16.2-3-10.5-4.1-19.3.4-2-.5-3.7-2.7-3-12.7,1.8-25.7,5.5-36.2,12.3C1253.4835,971.9249,1250.6835,971.725,1250.2835,977.3249Z" transform="translate(-1027.2835 -826.225)" style="fill:#bc8e3b"/><path d="M1284.8835,994.6249a33.6079,33.6079,0,0,1,3.9-5.2c1.4-2,1.8-4.8,3.8-6,5-2,10.8.5,15.9-1,1.5-.3,3.4-1.5,4.7-.5.1,1.4.5,2.9.7,4.4-.1,1-1,1.7-1,2.7.1,1,.4,2.7-1.1,2.6-9.3,2-19.3,4.2-28.9,5A12.5743,12.5743,0,0,0,1284.8835,994.6249Z" transform="translate(-1027.2835 -826.225)" style="fill:#bc8e3b"/><path d="M1312.2835,949.3249c-5.8,3.3-12.5,10.7-5,16.1,2.4,3.7,2.6,11.4,8.8,9.8,11.5-3.7,2.1-17.1,7.5-24,2.2-5.4-7-7.6-9.7-4.3C1313.4835,947.9249,1313.3835,948.6249,1312.2835,949.3249Z" transform="translate(-1027.2835 -826.225)" style="fill:#bc8e3b"/><path d="M1199.1835,995.025c-5,3,1.5,8.5,5.3,6.9,2.4-1.1,2.8-4.6,5.1-5.8,6.9-1.8,13.1,4.7,20.2,4,7.3,1,5.4-5.6,10.5-7.2,4.3-.8,13.4-4.7,7.3-9.3-9.8-5.4-23.2-1.2-34-.9C1207.4835,985.025,1205.3835,992.6249,1199.1835,995.025Z" transform="translate(-1027.2835 -826.225)" style="fill:#bc8e3b"/><path d="M1168.4835,1008.1249c1.3-3.3,11.5-6.1,15-6.8,8.4-1.8,12.1,7.9,3.8,11-4.7,1.3-9.8.1-14.2,2.6-.6.2-2.4.8-2.9.1C1170.3835,1012.525,1167.8835,1010.525,1168.4835,1008.1249Z" transform="translate(-1027.2835 -826.225)" style="fill:#bc8e3b"/><path d="M1114.6835,1019.625c8.6,4.2.2,8.4,14.4,5.3,4.2-3.3,12.1-2.4,14.4-7.4.5-3.9,4.6-9,2.6-12.5-11.9,4.4-24.5,9.3-36.2,13.9C1111.4835,1019.225,1113.0835,1019.025,1114.6835,1019.625Z" transform="translate(-1027.2835 -826.225)" style="fill:#bc8e3b"/></g><g id="Mold_copy" data-name="Mold copy"><path d="M1179.4835,931.4249c1.5-2.2,4.8-2.7,5.9-5.2,1.1-2.9-2.9-2.2-4.5-1.6-3.2.4-5.7-1.9-8.8-.3-2.9,2.1-4,5.9-7.5,6.7-2.2,3.6-5.6,5.4-9.8,4.3-2.6,0-1.3,4.2.1,5.3,2.5,2.4,6.1,1.2,9.1,2.1C1179.7835,951.525,1174.9835,941.9249,1179.4835,931.4249Z" transform="translate(-1027.2835 -826.225)" style="fill:#57825c"/><path d="M1301.7835,934.9249c-1.2,6.3-11.7,7.2-8.2,1.5,7.1-3.3,4.2-9.8,7.8-14.8,3.3-2.4,8.1,3.7,7.9,6.8C1308.9835,933.225,1304.1835,931.725,1301.7835,934.9249Z" transform="translate(-1027.2835 -826.225)" style="fill:#57825c"/><path d="M1230.6835,846.8249c-5.8,1.8-14.4,5.9-3.1,8.1,1.9-.1,3.9-1.1,5.6-.1-.1,3.7,1.2,6.8,4.7,7.8,2.2,1.3-.7,5.4,2.1,5.9,8.7-1.2-.5-8.8.4-13.3C1243.8835,846.9249,1238.0835,843.9249,1230.6835,846.8249Z" transform="translate(-1027.2835 -826.225)" style="fill:#57825c"/><path d="M1215.4835,918.6249c4.2,8-6.9,7.6-8.6,13.1,1,6,11.2,3.9,14.2.6,1.9-2.4,2.5-5.3,5.4-6.9a24.558,24.558,0,0,0,12.1-8.2c2.6-2.3,6.7-2,9.4-4.2,2.6-7.5-10-10-15.4-11.4-3.7-1.1-4.7,1.2-6.1,3.8-3.6,2-8.1.4-12.1.9C1206.3835,908.725,1213.0835,914.725,1215.4835,918.6249Z" transform="translate(-1027.2835 -826.225)" style="fill:#57825c"/><path d="M1199.6835,875.1249c-7.3,4.5-3.2-3.1-7.3-4.7-2.7,1.3-1.5,5.5-4.2,6.7-2.6,4.1-8.8,6.7-5.5,12.2,1,1.6,6.7,4.6,5,.6-.5-1.2-3.2-2-1.8-3.9,1.2-1.6,5,.9,6.6.9.8,0,1.5-.6,1.1-1.4-3-5,7.3-3.5,9.9-5.6C1214.5835,875.9249,1207.5835,867.025,1199.6835,875.1249Z" transform="translate(-1027.2835 -826.225)" style="fill:#57825c"/><path d="M1150.5835,971.3249c4.8-3,3.6,5.7,2.7,8.2-.6.9-1.8.6-2.8.5-2.2-.1-4.1,1.5-5.9,3s-3.7,3.1-5.9,2.9-4-3.2-2.5-5c-1.8-2.7-5.3-.5-7.8-1.1-1.3-.4-2.5-1.9-1.9-3.3.8-1.8,3.6-1.5,4.5-3.4s-2.7-17.1,5.1-8.5C1139.2835,971.4249,1142.4835,975.3249,1150.5835,971.3249Z" transform="translate(-1027.2835 -826.225)" style="fill:#57825c"/><path d="M1095.0835,1002.8249a2.5142,2.5142,0,0,0,1,2.9c.5,2.1,3.9,4.2,5.1,1.7,1.6-8.6-8.6-10.5-1.4-18.6,2.2-3,2.3-7.9-1.9-6.2-3.2,3.2-10.3,10.6-10,15.8C1088.8835,1002.4249,1094.7835,999.3249,1095.0835,1002.8249Z" transform="translate(-1027.2835 -826.225)" style="fill:#57825c"/><path d="M1060.0835,959.725a5.5808,5.5808,0,0,0,.9-2.1c.4-.8,1.9-.5,2.2-1.4a6.9575,6.9575,0,0,0-.8-2.7c-1.9-.5-3.3-2-5-3-4.2-1.7-5.9,2.8-5,6.3.2,2,0,4,.7,5.9.9,2.6,5.6,6.5,7.4,2.7C1061.2835,963.4249,1058.7835,961.525,1060.0835,959.725Z" transform="translate(-1027.2835 -826.225)" style="fill:#57825c"/><path d="M1183.3835,969.025c-.7-1.3.5-3.8,2.1-2.6,1.1.9.3,2.9,1.6,3.8,1.4.9,3.3.2,4.9.8.6,2,3.4,1.4,5,.7,5.8-1.7,14.5-3.4,10-11.5-3.1-3.1-1.4-6.8,2.1-9,.7.8,4.7,3.4,5.2,4.3.7,1.2-.2,2.8.6,3.9,3.9,2.7,9.9-.6,14.1-1.7,2.7-1.6,7-.1,4.5,3.1-3.9,3.2-10.4,1.7-13.7,5.5-.9,1.5-2.5,1.7-3.9,2.5-2.6,6.4-9.3,7.1-15.4,8.1-5.7,1.6-11.5,5.5-16.7,8.4-2.3,1.5-12.2,4.5-8.8-1.1C1179.6835,980.9249,1186.0835,975.1249,1183.3835,969.025Z" transform="translate(-1027.2835 -826.225)" style="fill:#57825c"/><path d="M1269.5835,878.3249c5,1.4,2.9,6.8,5.6,9.8,3,4.3,6.8,7.9,10.3,11.8,2.7,6.8-5.1,5-8.9,4-3.9-.5-9.8,8-12.6,2.7-.1-1.3,1.4-2.1,2.5-2.9,4.9-4,7.6-12.8,1.3-16.8-3.2-3.4-7.6-.7-11.5-1.2-4.9-1.6-1.6-4.6,1.3-6.1a3.2449,3.2449,0,0,0,1.7-4.5C1261.3835,868.225,1266.9835,876.3249,1269.5835,878.3249Z" transform="translate(-1027.2835 -826.225)" style="fill:#57825c"/><path d="M1273.1835,958.4249c12.1-2.7,2.4-6.5,5.7-14,1.5-3.3,3.9-14.5-2.2-13.1,0,1,1.1,2.1.5,3.3-1.4,2.9-3.4,5.8-4.1,9-.4,2.2.5,4.7-.8,6.7-6.5,8.4-13-4.9-19.7-4.2-3.2,1.6,1.7,3.3,3.2,3.8,4.1,3.2.9,9-1.4,12.3-1.2.9-1.4,4.4.8,3C1260.8835,962.225,1267.2835,960.8249,1273.1835,958.4249Z" transform="translate(-1027.2835 -826.225)" style="fill:#57825c"/><path d="M1130.5835,902.8249c-2.1.4-1.9,2.6-2.1,4.3-.6,2.7-3.4,3.4-4.7,5.7-2.5,4.5,3.2,8.9,5.3,3.2,1,3.3,9.1,8.5,9.6,3.9-4.2-8.9-5.2-8.4,1.9-16.1,2.2-.2,9.7,9.2,11.4,4,.3-3.6-4.8-5.6-6.6-6.8-.3-3.6,5.5-5.9,6.4-8.6,1.6-4.3-2.5-1-3.8.1A52.0906,52.0906,0,0,1,1130.5835,902.8249Z" transform="translate(-1027.2835 -826.225)" style="fill:#57825c"/><path d="M1099.3835,920.3249c.9-1.3,2.6-.5,2,1a10.66,10.66,0,0,0-3.6,8.6c4.7,5.6-6.5,2.9-7.9,6.6-4.4,6-8.3-1.5-3.3-4.2C1092.7835,930.4249,1095.3835,924.9249,1099.3835,920.3249Z" transform="translate(-1027.2835 -826.225)" style="fill:#57825c"/><path d="M1100.8835,950.8249c2.4-3.6,10.5-6.5,12.2-.9-.2,2.8-4,3.2-5.8,4.9-2.1,2-1.2,5.3-2.6,7.8-2.5,7.9-31.8.7-17.6-4.4,1.3-.4,2.8-1.3,2.5-2.5-2.7-3.4.1-5.5,3.9-5C1096.2835,951.025,1098.2835,952.9249,1100.8835,950.8249Z" transform="translate(-1027.2835 -826.225)" style="fill:#57825c"/><path d="M1126.9835,1012.3249a.5236.5236,0,0,1-.8-.2c-1.4-1.7-3.4-2.6-5.3-3.8-3-1.9-2.4-7.6.8-9,2.6.1,5.6,2.2,7.9,0,2.3-3.2,9.1-.4,13.1-1.5,4.3.8.1,5.2,1.7,7.8-3.2,2.7-8.9,2.3-12.7,4.6C1130.2835,1010.8249,1128.4835,1012.025,1126.9835,1012.3249Z" transform="translate(-1027.2835 -826.225)" style="fill:#57825c"/></g><g id="Mold_Dark_copy" data-name="Mold Dark copy"><path d="M1139.1835,982.725c3.5.1,5.8-3.6,9.3-4,2.1,1.7,4.7-1.7,2.5-3.3-5.7-.8-5.3,2.6-12.5-1.7-4.3.7,1.9,3.6,1.1,5.7C1139.4835,980.725,1136.7835,982.225,1139.1835,982.725Z" transform="translate(-1027.2835 -826.225)" style="fill:#3d5941"/><path d="M1175.2835,927.9249c2.3,7-2.6,18.3-11.1,12-2.8-3.3,3.2-4,4.8-4.9C1171.9835,933.525,1171.9835,928.8249,1175.2835,927.9249Z" transform="translate(-1027.2835 -826.225)" style="fill:#3d5941"/><path d="M1129.1835,910.3249c-2.1,1.1-4.2,2.7-4,5.3,1.6.3,2.9-2.4,4.5-2.4,2.5,0,2.7,5.2,5.1,5.3,3.7-1.3-4.2-6.6.8-13.4C1133.2835,903.225,1130.9835,908.9249,1129.1835,910.3249Z" transform="translate(-1027.2835 -826.225)" style="fill:#3d5941"/><path d="M1220.0835,915.9249c-.7-1.6-2.8-2.3-3.8-3.6,0-3.2,5.1-1.9,7.1-1.7,5.5,1.2,8.8-4.8,14.5-2.9,5.7,2.5-2.2,9-6,8.9-3.1.3-4.3,3.5-7.5,3.8C1220.8835,921.9249,1220.9835,918.1249,1220.0835,915.9249Z" transform="translate(-1027.2835 -826.225)" style="fill:#3d5941"/><path d="M1275.5835,902.3249c11.8,2.8,6.8-5.4.4-7.4-2.1,1-1.4,4.5-3.6,5.6C1268.8835,905.1249,1273.0835,902.225,1275.5835,902.3249Z" transform="translate(-1027.2835 -826.225)" style="fill:#3d5941"/><path d="M1262.3835,876.725c1.9-2.3,3.5,1.2,4.1,2.8,1.7,1.1,2.3,3.8,2.8,5.7-1.8.5-1.7-2.3-2.9-3.1-1.6-1.6-4.2.8-5.9-.3C1259.4835,879.8249,1261.2835,878.4249,1262.3835,876.725Z" transform="translate(-1027.2835 -826.225)" style="fill:#3d5941"/><path d="M1306.2835,924.8249c3.6,3.1-.7,6.3-3.7,7.6-2,1.2-2.9,4-4.7,5.1-2.2-2.7,5.3-5.8,4.8-9.4C1301.2835,923.9249,1301.7835,920.4249,1306.2835,924.8249Z" transform="translate(-1027.2835 -826.225)" style="fill:#3d5941"/><path d="M1258.7835,957.725c-.1,2.3-1.9,3.9-2.9,5.8-.1.4.6,1,.1,1.2-1.1.4-2.8.6-1.1,1.8,2.3,2,1,3.8-.2,5.8-.2,1.7,1.8,2.5,2.1,4,.1.8-.7,1.6-.7,2.4.9,1,3.5,1.9,4.6.6,1.2-.8,3.1-.4,3.4-2,1.7-1.9,1.2-4.3,1.2-6.6-.3-1.5,2.6-3.2,3.3-4.2,1.7-1.5,3.7-2.2,4.8-4.3,3.6-.6,7.1-1.2,5.9-6.1l-2.9,1.1a2.6452,2.6452,0,0,0-.4-2.4c0-4.7-1.8-3.3-4-.5-1.8,1.4-4.6,1.3-6,3.1-.3.4-1,.4-1.5.3-3.1.3-3.1-3.7-4.7-3-.5.4,0,1-.3,1.5A10.1072,10.1072,0,0,0,1258.7835,957.725Z" transform="translate(-1027.2835 -826.225)" style="fill:#3d5941"/><path d="M1211.1835,931.225c1.3,3.5,10.9,0,7.5-3.1C1216.5835,927.3249,1211.2835,928.525,1211.1835,931.225Z" transform="translate(-1027.2835 -826.225)" style="fill:#3d5941"/><path d="M1233.5835,847.9249c3.4-1.1,4.1,2.3,3.7,4.9-.1,2,2.8,4.4,1.4,6.2-2.7-.6-1.7-5.6-4.8-6.3C1226.5835,852.525,1225.4835,848.525,1233.5835,847.9249Z" transform="translate(-1027.2835 -826.225)" style="fill:#3d5941"/><path d="M1190.5835,879.025c-.7,1-5.8,3.4-3.3,4.7.8.2,2.2,1.3,2.9.6-.1-4,2.7-4,5.6-5.3-1.2-1.5-4.3-.6-5.9.2" transform="translate(-1027.2835 -826.225)" style="fill:#3d5941"/><path d="M1201.7835,876.4249c1.7-.3,3.2-3,4.9-1.8,1.1,1.3-.3,2.8-1.5,3.3C1202.1835,879.725,1195.6835,880.525,1201.7835,876.4249Z" transform="translate(-1027.2835 -826.225)" style="fill:#3d5941"/><path d="M1054.4835,958.9249c-.5,2,1.1,5.6,3.4,3.7,1.1-2.7-2.5-5.4-.2-8.2a1.4237,1.4237,0,0,0-1.4-1.6C1053.2835,952.725,1054.5835,957.1249,1054.4835,958.9249Z" transform="translate(-1027.2835 -826.225)" style="fill:#3d5941"/><path d="M1091.0835,994.4249c-1.3,3.5,3.5,3.2,5.3,4.8a.293.293,0,0,0,.5-.1c.2-2.8-3-5.2-1.3-8.2.1-.5.9-2.3.5-2.6C1093.4835,988.4249,1091.9835,992.225,1091.0835,994.4249Z" transform="translate(-1027.2835 -826.225)" style="fill:#3d5941"/><path d="M1213.6835,959.525c-.1,3.2,2.9,3.1,5.1,3.7.7,2.5-2.8,2.7-4.3,3.7-1.9,1.4-2.4,4.6-5.1,4.5-.4,0-.6-.4-.4-.8,1.6-3.2,2.5-7,1.1-10.5C1208.2835,955.6249,1213.0835,954.8249,1213.6835,959.525Z" transform="translate(-1027.2835 -826.225)" style="fill:#3d5941"/><path d="M1187.1835,980.8249a82.4356,82.4356,0,0,0,8.1-3.5c1.6-.6.4-1.1-.7-1.6-1.5-.6-3.4-.2-4.8-1.1-2.1-2.3-4.3-.1-4,2.5C1186.3835,979.8249,1180.5835,983.9249,1187.1835,980.8249Z" transform="translate(-1027.2835 -826.225)" style="fill:#3d5941"/><path d="M1274.8835,943.4249c-.4,1.6,1.5,5.1,1.9,1.6.8-1.6,2.4-3.9,2.7-5.6C1278.9835,933.025,1275.1835,941.225,1274.8835,943.4249Z" transform="translate(-1027.2835 -826.225)" style="fill:#3d5941"/><path d="M1096.1835,957.1249c.1,2.1-3.2,1.7-4.7,2.4-1.7,1.5,2.4,3,3.7,2.8,2.4.1,3.7-1.9,4.8-3.7,1.2-1,4.8-3,2.2-4.5-2.6,0-4.9,1.8-6.9,3.2" transform="translate(-1027.2835 -826.225)" style="fill:#3d5941"/><path d="M1089.5835,933.9249c1.4-1.7,4.1-2.2,4.3-4.6,1.3-1.2,3,1,2.4,2.3-.9,2-3.4,1.5-5,2.3-1.3.6-2.6,2.6-4.1,1.3A5.1117,5.1117,0,0,1,1089.5835,933.9249Z" transform="translate(-1027.2835 -826.225)" style="fill:#3d5941"/><path d="M1313.4835,950.725c-.3,2.2-2.1,3.5-4.1,4.1-9.4,5.9,8.2,7.9,3.3,15,2,2.9,6.3.4,6.2-2.6-.7-2.2-3.6-3.5-3.6-5.9,1-3.6,1.8-8.8.8-12.4C1314.8835,947.3249,1313.8835,949.3249,1313.4835,950.725Z" transform="translate(-1027.2835 -826.225)" style="fill:#3d5941"/><path d="M1292.4835,988.8249c.8,5.3-5.3,4.2-7.1,7.4l19.8-3.6c1.3-2.3,3.1-6.5-3.4-6.4C1298.7835,985.9249,1293.4835,984.4249,1292.4835,988.8249Z" transform="translate(-1027.2835 -826.225)" style="fill:#3d5941"/><path d="M1287.9835,968.025c-6.4,3.5-5.1,8.4-12.6,11.5,1.1,2.5,6.1,3.3,8.2,1.8.9-.9.8-2.3,1.2-3.4.7-2,2.5-3.3,4.1-4.7C1291.4835,970.9249,1293.1835,965.9249,1287.9835,968.025Z" transform="translate(-1027.2835 -826.225)" style="fill:#3d5941"/><path d="M1235.2835,985.725c-5.9-4.4-15.6,3.8-10.1,9.7,1,1.2,2.8,3.1,4.6,2.1,2-1.1.6-2.4.9-3.9.4-6.7,15.5-2.2,14.4-8.2C1242.2835,983.1249,1238.6835,987.8249,1235.2835,985.725Z" transform="translate(-1027.2835 -826.225)" style="fill:#3d5941"/><path d="M1202.3835,994.3249c-6.2,1-1,7.3,1.8,2.9,1.2-2.1,5.6-5.4,5.3-7.8C1206.5835,990.025,1204.9835,993.225,1202.3835,994.3249Z" transform="translate(-1027.2835 -826.225)" style="fill:#3d5941"/><path d="M1172.0835,1008.525a2.9653,2.9653,0,0,0-1.6,1.7c4.7,1.2,11,.1,15.8-.1C1195.4835,1007.4249,1182.5835,1000.1249,1172.0835,1008.525Z" transform="translate(-1027.2835 -826.225)" style="fill:#3d5941"/><path d="M1122.3835,1007.525c3.1,2.6,13,1.8,3.7,5.3-1.3,2.3-3.9,4.6-3.8,7.4,2,2.3,5.7,2.2,8,.3,1.6-1.7,4.5-1.3,5.3-3.9.6-1.2,2.7-.2,3.6-1,1.2-1.3-.8-1.8-.9-3,.1-1.5,2.2-.8,2.6-2.1.4-1.8,3.2-2.1,3.1-4.2-1.6-.2-3.1.9-4.5,1.3-1.2-1.2-1.5-3.7-3.4-3.8-1.4-.2-3.2-.5-3.4,1.4C1131.1835,1007.1249,1118.0835,1001.9249,1122.3835,1007.525Z" transform="translate(-1027.2835 -826.225)" style="fill:#3d5941"/></g><g id="Mold_Darker_copy" data-name="Mold Darker copy"><path d="M1264.2835,961.8249c1.8-.3,12.9-6,12.4-3.9.6,2-2,1.7-3.2,2.3-2.1,2.2-6,2.5-8.3,4.1-1,2.9-2.4,6.2-2.8,9.3-.6,3.6-4.8.1-3.1-2.2,2.4-2.6-2.4-4.2-3.2-6.8A41.9165,41.9165,0,0,0,1264.2835,961.8249Z" transform="translate(-1027.2835 -826.225)" style="fill:#2e4230"/><path d="M1139.6835,1007.525c-.7.8.6,2-.5,2.5-1.8.2-2.1,1.8-2.8,3-1.4.4-2.7.4-3.1,2.1a4.3177,4.3177,0,0,1-4.5,1.3c-.5-1,1.6-1.5.8-2.7.9-.8,1.6-2.1.4-3.2A33.1141,33.1141,0,0,0,1139.6835,1007.525Z" transform="translate(-1027.2835 -826.225)" style="fill:#2e4230"/><path d="M1227.2835,988.4249c1.3-1.2,4-2.1,5.4-.9.1,2.4-3.4,3-3.8,5.2C1226.7835,997.1249,1224.5835,990.025,1227.2835,988.4249Z" transform="translate(-1027.2835 -826.225)" style="fill:#2e4230"/><path d="M1280.9835,978.6249c2-3.1,3-.8,1.6,1.5C1280.6835,981.225,1277.4835,980.1249,1280.9835,978.6249Z" transform="translate(-1027.2835 -826.225)" style="fill:#2e4230"/><path d="M1310.0835,956.6249c.9-.8,2.4-.8,3.2-1.8.8-1.6,2.2.3,1.7,1.4a6.7163,6.7163,0,0,0-.8,4.8c.1.3-.2.7-.5.6C1311.3835,961.225,1307.2835,958.9249,1310.0835,956.6249Z" transform="translate(-1027.2835 -826.225)" style="fill:#2e4230"/><path d="M1315.3835,966.025c.9,1.2-.1,2.6-1,3.4,2.9,1.4,2.7-2,1.3-3.5" transform="translate(-1027.2835 -826.225)" style="fill:#2e4230"/><path d="M1303.7835,992.8249c0-5.4-3,1.2-5.7-3.6-3.1-1.3-3,5.9-7.9,6A90.1,90.1,0,0,0,1303.7835,992.8249Z" transform="translate(-1027.2835 -826.225)" style="fill:#2e4230"/></g></g></svg>