<svg id="pizza" xmlns="http://www.w3.org/2000/svg" xmlns:xlink="http://www.w3.org/1999/xlink" viewBox="0 0 615.5945 320.599"><defs><radialGradient id="radial-gradient" cx="1684.3601" cy="272.3604" fx="1993.4952076104921" fy="204.7452496464329" r="317.3575" gradientTransform="matrix(-0.9998, 0.0195, -0.0099, -0.5096, 2607.0235, 742.3665)" gradientUnits="userSpaceOnUse"><stop offset="0" stop-color="#6e7f5e"/><stop offset="1" stop-color="#65ad60"/></radialGradient></defs><g id="rucola_b"><path d="M615.1605,678.1013c-6.0188-8.284-1.1348-5.43,9.4164-11.7124,4.4558-2.72,20.2551-10.7509,25.1774-13.82,6.8159-5.8611,18.5739-6.3607,22.6457-9.9927,3.2313-2.8946,1.5644-3.5739,7.2932-10.7419,4.6036-5.4669,10.6821-12.1685,12.1713-18.4727,3.5672-.274,4.7058,1.7017,7.4845-2.997,9.8455-14.8851,9.995-35.1253,23.3244-40.2758,1.0186.4151,1.08,2.3839.8088,7.0247-1.3191,20.1955-1.9787,30.2933-2.1537,31.5178a1.8546,1.8546,0,0,0,.1954,1.3754c.8814,1.547,4.2326.2131,5.1894,1.5749.1164,2.0992-.9266,5.4536,1.529,7.6421,25.0162,19.6974,99.2-14.2142,99.5027-26.617,2.4362-9.1578,4.2825-18.9879,9.0715-27.2948,4.6825-6.1907,11.94-5.7166,16.8591-8.2474,11.4773-5.9053,12.81-22.4239,10.8-24.6468-1.1113-.4528-1.3169-3.1283.2644-3.5637,3.8418-2.5378,4.9714-13.5239,3.8741-16.1308a2.4323,2.4323,0,0,1,1.1151-3.0011c2.5555-1.7662,1.075-14.0319,5.7642-18.3841,11.7864-10.6386,21.3219,22.4033,23.4126,37.9413-.3538,5.9029-2.8751,8.115-4.8445,14.0075-3.1805,9.3944,1.0828,10.5918-1.4254,19.3963-3.1154,10.8247-10.442,12.3743-9.88,20.27.346,3.92,2.5442,8.5957,6.0632,10.03,2.6374,2.8025,20.5326-7.7223,22.7688-6.0551,2.4249,1.2042,1.2892,4.5209,3.8749,9.57,5.6274,11.364,15.6155,11.7629,19.0433-1.4182.2645-3.5637,2.11-7.5628,6.2159-7.8334,6.6748-1.2753,11.0084-16.6788,18.94-28.4566,4.95-7.3774,5.0013-3.7931,16.51-17.46,8.7577-10.3611,9.4817-13.1975,15.79-18.0778,5.8417-4.53,6.2394-2.8565,18.1318-9.78,12.4893-7.3286,14.6471-10.7687,19.5072-9.9758,13.9219,3.73,15.2649,20.0428,8.397,31.066-3.297,7.2953-4.9845,6.9315-11.5162,17.66-6.813,11.1536-5.7842,12.8687-10.7959,18.2773-5.9276,6.3311-9.0626,5.8094-10.9495,10.44-2.7379,6.9832.9278,17.3318,7.1323,19.86,6.7878,1.3623,30.5139-9.1619,38.43-10.0392,13.1026-1.6794,14.4685-9.0056,27.0091-15.6654,9.2408-4.657,11.0241-1.8786,18.43-7.0674,10.253-8.9958,10.9114-7.4316,23.1635-9.6736,6.181-2.4484,5.8315-5.83,11.21-7.634,19.0814-4.4262,16.343,8.3878,24.1869,12.9883,3.0937,1.1527,4.24-.864,7.8375-.1536,5.8788,1.208,6.5436,7.526,12.0105,12.13,2.13,3.7835,42.8534,6.6653,46.2314,12.6852,18.5887,17.186,1.0764,40.2851-23.8911,47.4959-10.8252,2.7154-12.3307.05-11.2517,14.096.7057,8.6025,1.1653,9.33.414,10.6433-2.2162,3.8482-10.16,3.2025-19.6608,2.1383-24.98-2.2971-61.2033-11.9835-68.1223-4.5446-9.0147,7.0169-9.1116,16.264,2.9512,20.316,14.8819,7.4686,39.58,18.9374,38.08,35.6035-1.0155,1.9618-3.3823,3.265-13.7512,4.3307-13.305,1.3809-19.8461,2.0629-28.414.299-16.8922-3.86-24.6844-10.7074-29.3762-14.5632-3.5327-2.1955-7.68-1.2938-9.3706-1.1191-5.3885.5037-6.7257-5.2245-20.9213-15.437-.11-.2607-13.5509-9.41-20.01-7.0745-3.5466-.0416-6.18-3.3826-6.9179-4.223-6.0533-5.8144-29.8114-19.06-40.5821-13.2986-13.7346,10.3846-10.5805,25.1681-1.4752,38.5973,8.8341,15.1545,4.6773,11.8408,15.5792,31.7254,13.3985,24.3575,16.2832,23.3734,19.3006,33.4579a121.8355,121.8355,0,0,1-.82,37.7845c-5.8629,10.6769-20.09,2.3956-22.7784-1.0759-2.75-2.5248-5.2506-6.4591-14.8648-7.2455-3.7181.6444-6.863-4.0926-7.4458-5.842-3.4978-7.5805-12.86-24.354-19.7981-31.177-17.4674-15.4331-14.5565-3.2325-20.611-31.8322,1.86-9.0686-30.4524-57.7637-36.6291-64.6-9.0367-12.5375-19.8329,8.6552-19.3844,16.8289.5,5.9271-16.6141-6.6626-31.1407-.1643-24.27-8.8106-17.62,2.43-9.88,20.27,3.5185,7.2651,7.5307,15.7031,15.621,25.2633,10.2647,12.174,21.2674,19.3575,23.267,20.28a8.764,8.764,0,0,1,4.335,4.4663c2.4414,7.2581,25.61,16.9157,31.407,13.5549,1.9758-1.1386,1.5536.9571.9155,1.9929-2.1819,4.2941-12.9383,4.9859-12.9383,4.9859-26.38,1.6677-39.86,1.3577-60.6987-15.3415-5.0381-4.8608-3.4191-5.3888-14.092-17.6212-2.4521-2.727-8.6631-10.01-15.6494-15.1243-3.2926-1.99-4.6161-6.9564-4.77-8.9629-1.433-8.1429-4.8-15.7784-8.2434-23.2287-.5069-7.7655,1.3014-14.5875-5.1394-20.7758-3.6767-2.9021-11.3046-6.4426-14.8163-11.8692-11.9284-10.4763-45.323-6.7-63.5921,4.2125-11.6523,7.13-14.9116,14.3324-18.9591,17.11-3.1146,2.0782,1.7351,4.4866,3.5872,5.2413.144.7066-3.6084.9052-6.7643,3.6146-.542.535-4.4628,3.7965-4.2607,7.01a2.4865,2.4865,0,0,1-2.5076,2.9735c-17.1253-5.1433-15.5488,6.6217-22.3048-2.5027-4.1121-4.4833-7.2918-3.8355-12.8034-7.2694-1.6257-1.31-2.3427.4492-3.485,1.9273C621.9332,693.28,619.4235,682.2144,615.1605,678.1013Z" transform="translate(-612.5458 -489.2667)" style="fill:url(#radial-gradient)"/><g id="Branch_copy-2" data-name="Branch copy-2"><path d="M876.8667,545.998c-7.4688,17.7973-18.3812,33.9754-29.9382,49.3509-12.5723,14.4217-31.2629,21.5988-46.085,33.592a332.424,332.424,0,0,0-56.4783,3.98c-19.7845,4.0317-40.9479,8.7972-60.5677,13.22,12.9046-11.2627,25.3155-23.6986,30.3455-40.5461-6.2821,18.065-21.2894,29.9827-35.59,41.7564a164.5708,164.5708,0,0,0-65.0009,29.6628l6.0394,7.9684c11.8276-11.27,31.5358-6.37,43.1933,2.9163a42.4866,42.4866,0,0,0-32.4294-10.5161c32.3983-22,72.9615-25.8787,110.0543-35.8151,7.0487-1.6629,14.3718-2.674,21.5645-3.63,26.19,16.2881,29.5737,29.9774,40.5435,56.5849a179.7994,179.7994,0,0,0,45.2835,58.7325,179.8342,179.8342,0,0,1-42.5085-59.9773c-8.5967-23.1566-12.7692-41.2707-34.7332-56.2687,36.4026-3.7385,73.0309.7138,109.4744-.74,18.8843,11.6912,37.343,26.0166,48.3581,45.6234,18.131,33.4131,32.6259,69.124,56.5916,99.0838-17.8334-24.8691-31.2865-52.2724-43.1754-80.3342a137.8969,137.8969,0,0,0-52.4275-65.3153c12.1354-1.4257,23.9827-4.2645,36.2209-4.3525l.0926.0377.0378-.0925c26.4.9321,52.6289,5.4657,79.184,2.5734,16.3732,15.2033,36.4134,26.1777,57.1983,34,10.0734,4.4291,14.5861,15.8788,24.584,20.4931a251.7713,251.7713,0,0,0,29.2116,14.1721,250.4,250.4,0,0,1-28.7416-15.06c-10.0322-5.06-14.1161-16.7672-24.2993-21.4569-19.1693-7.812-37.2065-18.4021-52.5474-32.4288,52.9213-2.406,105.7639-7.0038,157.5542-18.2936a815.9932,815.9932,0,0,1-99.5253,12.8937,374.1159,374.1159,0,0,1,68.2717-50.1429c-26.5322,13.7-52.269,30.748-74.5692,50.4921-43.9519,2.39-87.9793,4.9648-131.67-1.5016,12.73-12.9538,28.7556-21.5408,42.168-33.7845,15.5292-17.9681,31.3166-44.2538,44.87-63.9988-14.3666,19.09-31.0388,44.367-47.2506,61.625-15.68,12.5076-33.7737,22.1954-48.6269,36.12l.0549.13c-16.9956.6328-33.6245,4.8706-50.6886,4.6117-20.1648-.3347-40.34-1.9694-60.5045-2.3041,11.6869-9.5993,25.6407-16.5471,36.2781-27.5459,20.7129-26.9781,37.3891-58.6249,39.8587-93.0375A151.8092,151.8092,0,0,1,876.8667,545.998Z" transform="translate(-612.5458 -489.2667)" style="fill:#d4ef8b"/></g></g></svg>