<svg id="pizza" xmlns="http://www.w3.org/2000/svg" xmlns:xlink="http://www.w3.org/1999/xlink" viewBox="0 0 325.2978 379.0751"><defs><radialGradient id="radial-gradient" cx="-114.0846" cy="750.4895" fx="-126.63595786175907" r="227.0771" gradientTransform="matrix(-0.8962, 0.4437, -0.3911, -0.79, 955.5375, 2238.0126)" gradientUnits="userSpaceOnUse"><stop offset="0" stop-color="#d63c65"/><stop offset="1" stop-color="#a52d48"/></radialGradient></defs><g id="salami_b"><path id="Shadow-2" d="M912.5,1629.2c25.2-111.1-116.9-273.7-217.9-247.7-142.9,45.1-142.4,341.5,32.9,375.7C825.3,1764.8,890.8,1699.3,912.5,1629.2Z" transform="translate(-590.145 -1378.7275)" style="fill:#812336"/><path id="Salami-2" d="M903.5,1634.2c47.9-187.6-241.9-369-302.2-153.9C532.9,1697,797.1,1862.9,903.5,1634.2Z" transform="translate(-590.145 -1378.7275)" style="fill:url(#radial-gradient)"/><g id="Fat_1_copy_21" data-name="Fat 1 copy 21"><path d="M853.6,1628.6c7.5-1.5,10.2-24.9,6.5-26.4-4,.2-17.1,16.5-14.6,20.7C846.5,1626.2,850.5,1629.3,853.6,1628.6Z" transform="translate(-590.145 -1378.7275)" style="fill:#fff"/><path d="M774.3,1699.3c3.5,3.7,18.1-2.5,17.7-5.1-.2-1.1-3-1.5-6.8-2.1C777.9,1690.1,770.8,1692.5,774.3,1699.3Z" transform="translate(-590.145 -1378.7275)" style="fill:#fff"/><path d="M646.7,1470.1c-7.7.4-14.1,22.9-10.6,25,3.9.4,19.6-13.6,17.8-18.2C653.3,1473.6,649.9,1470,646.7,1470.1Z" transform="translate(-590.145 -1378.7275)" style="fill:#fff"/><path d="M772,1469.9c-4.1-6.4-27.5-1.5-27.7,2.5,1.6,3.6,21.9,10.5,25.1,6.8C772.1,1477.2,773.7,1472.6,772,1469.9Z" transform="translate(-590.145 -1378.7275)" style="fill:#fff"/><path d="M793.9,1638.7c4.8,1.7,14.6-10.4,13-12.5-2.3-1.2-15.6,3.4-15.7,6.6C790.7,1635,791.9,1638.1,793.9,1638.7Z" transform="translate(-590.145 -1378.7275)" style="fill:#fff"/><path d="M686.5,1600.8c-2.1,4.5,9.4,15.4,11.7,14.1,1-.6.3-3.3-.7-6.9C696.6,1600.5,691.4,1595.2,686.5,1600.8Z" transform="translate(-590.145 -1378.7275)" style="fill:#fff"/><path d="M745,1534.4c6.6.1,16.1-10.9,13.5-12C754.6,1522.1,729.6,1531.1,745,1534.4Z" transform="translate(-590.145 -1378.7275)" style="fill:#fff"/><path d="M754.5,1603.4c.9,3,10.8,3.4,11.3,1.8C764.4,1602.4,754.3,1596.1,754.5,1603.4Z" transform="translate(-590.145 -1378.7275)" style="fill:#fff"/><path d="M718.1,1537.9c-2.2,0-4.4,6.5-3.4,7.1C717,1544.7,723.2,1539.2,718.1,1537.9Z" transform="translate(-590.145 -1378.7275)" style="fill:#fff"/><path d="M674.7,1576.3c-2.2,0-4.4,6.5-3.4,7.1C673.5,1583.2,679.8,1577.7,674.7,1576.3Z" transform="translate(-590.145 -1378.7275)" style="fill:#fff"/><path d="M718.1,1537.9c-2.2,0-4.4,6.5-3.4,7.1C717,1544.7,723.2,1539.2,718.1,1537.9Z" transform="translate(-590.145 -1378.7275)" style="fill:#fff"/><path d="M724.6,1620.9c-.1,2.2,6.4,4.7,7.1,3.8C731.5,1622.5,726.1,1616,724.6,1620.9Z" transform="translate(-590.145 -1378.7275)" style="fill:#fff"/><path d="M813.6,1544.6c-2.2,0-4.4,6.5-3.4,7.1C812.5,1551.4,818.7,1545.9,813.6,1544.6Z" transform="translate(-590.145 -1378.7275)" style="fill:#fff"/><path d="M699.1,1470.4c0-3.1,9.4-6.1,10.3-4.7.2,1.6-5.4,8.1-7.3,7.5C700.6,1473,699.1,1471.6,699.1,1470.4Z" transform="translate(-590.145 -1378.7275)" style="fill:#fff"/><path d="M656.5,1520.4c-4.7,1.9-3.7,17.4-1.1,18,1.1.2,2.5-2.2,4.3-5.5C664.3,1526.9,663.9,1519.7,656.5,1520.4Z" transform="translate(-590.145 -1378.7275)" style="fill:#fff"/><path d="M681.1,1676.4c1.9,7.3,25.9,9.6,27.3,5.9-.5-4-17.7-16.5-21.8-13.9C683.3,1669.5,680.3,1673.4,681.1,1676.4Z" transform="translate(-590.145 -1378.7275)" style="fill:#fff"/><path d="M826.8,1488.2c7.5,1.8,10.1,25.2,6.4,26.6-3.9-.3-17.1-17.1-14.5-21.2C819.7,1490.4,823.7,1487.5,826.8,1488.2Z" transform="translate(-590.145 -1378.7275)" style="fill:#fff"/></g><g id="Fat_2_copy_21" data-name="Fat 2 copy 21"><path d="M760.5,1654.7c-2.1-2.4-7,1.8-13.5-.1-7.1-2.1-8.9-9.6-11.3-8.9-2.2.7-3.2,8,.1,13.2C741.8,1669.6,764.9,1668.1,760.5,1654.7Z" transform="translate(-590.145 -1378.7275)" style="fill:#eb96bf"/><path d="M729.8,1576.1c.9-2.1-3.5-3.9-4.3-8.6-.8-5.1,3.5-8.6,2.3-9.8s-6.4.4-8.7,4C713.9,1569,722.6,1583,729.8,1576.1Z" transform="translate(-590.145 -1378.7275)" style="fill:#eb96bf"/><path d="M673.7,1625.2c.4-2.1-4.1-3-5.8-7.2-1.9-4.7,1.5-8.8,0-9.8-1.4-.9-5.9,1.7-7.3,5.6C657.2,1621.7,668.4,1633.2,673.7,1625.2Z" transform="translate(-590.145 -1378.7275)" style="fill:#eb96bf"/><path d="M787.1,1513c-.7,2.1,3.7,3.5,4.8,7.9,1.3,4.9-2.6,8.5-1.3,9.6,1.2,1.1,6.1-.9,8-4.6C803,1518.7,793.4,1505.9,787.1,1513Z" transform="translate(-590.145 -1378.7275)" style="fill:#eb96bf"/><path d="M693.8,1558c1.3-1.1-1.1-3.7-.1-7,1.1-3.7,5.2-4.6,4.8-5.8s-4.4-1.7-7.2,0C685.4,1548.2,686.8,1560.3,693.8,1558Z" transform="translate(-590.145 -1378.7275)" style="fill:#eb96bf"/><path d="M817.2,1657c-1.7.3-.9,3.7-3.5,6.1-2.8,2.7-6.9,1.5-7.1,2.8-.2,1.2,3,3.6,6.3,3.5C819.7,1669.4,824.6,1658.4,817.2,1657Z" transform="translate(-590.145 -1378.7275)" style="fill:#eb96bf"/><path d="M771.7,1565.4c-1.7.3-.9,3.7-3.5,6.1-2.8,2.7-6.9,1.5-7.1,2.8-.2,1.2,3,3.6,6.3,3.5C774.2,1577.9,779.1,1566.8,771.7,1565.4Z" transform="translate(-590.145 -1378.7275)" style="fill:#eb96bf"/><path d="M682.8,1450.3c.8-1.5-2.4-3-2.8-6.5-.4-3.8,3-6.2,2.1-7.2-.8-.9-4.7.1-6.6,2.7C671.3,1444.4,677.2,1455,682.8,1450.3Z" transform="translate(-590.145 -1378.7275)" style="fill:#eb96bf"/><path d="M745.2,1553.9c.8.7,2.8-.4,5.3.2,2.8.7,3.4,2.8,4.3,2.6C759.7,1552,744,1547.8,745.2,1553.9Z" transform="translate(-590.145 -1378.7275)" style="fill:#eb96bf"/><path d="M813.8,1577.4c-3.2,1.9-.3,7.2-3.5,14.5-3,6.9-8.3,8.5-7.4,10.9,1,2.7,8.9,3.8,14.5.9C829.5,1597.9,828.6,1573.8,813.8,1577.4Z" transform="translate(-590.145 -1378.7275)" style="fill:#eb96bf"/><path d="M690,1514c3.8-.2,3.7-6.1,10.1-11.1,6-4.6,11.5-3.6,11.8-6.1.4-2.8-6.1-7.5-12.5-7.4C685.9,1488.9,675,1510.3,690,1514Z" transform="translate(-590.145 -1378.7275)" style="fill:#eb96bf"/><path d="M753.4,1435.5c-3.1,2.8-8.1-1.9-17.4-.7-8.6,1.1-12.1,6.2-14.5,4.5-2.7-1.9-1.5-10.7,3.5-15.7C734.9,1412.7,761.9,1420.4,753.4,1435.5Z" transform="translate(-590.145 -1378.7275)" style="fill:#eb96bf"/><path d="M628.4,1535.2c1.7,3.3-3.7,6.2-4.9,14.1-1.2,7.4,2.4,11.6.3,13.1-2.3,1.7-9.6-1.6-12.7-7.1C604.1,1543.9,617.9,1524.2,628.4,1535.2Z" transform="translate(-590.145 -1378.7275)" style="fill:#eb96bf"/><path d="M850.8,1529.9c-1.8,3.2,3.4,6.4,4.4,14.4.9,7.5-2.8,11.4-.8,13.1,2.3,1.9,9.6-1,12.9-6.3C874.7,1540.2,861.8,1519.6,850.8,1529.9Z" transform="translate(-590.145 -1378.7275)" style="fill:#eb96bf"/><path d="M795.8,1451.6c1.3,2.6,5.6.8,11.3,3.8,5.2,2.8,6.2,6.9,8.2,6.4,2.2-.6,3.5-6.4,1.5-10.9C813,1441.7,794,1439.9,795.8,1451.6Z" transform="translate(-590.145 -1378.7275)" style="fill:#eb96bf"/></g></g></svg>