<svg id="pizza" xmlns="http://www.w3.org/2000/svg" xmlns:xlink="http://www.w3.org/1999/xlink" viewBox="0 0 269.3809 288.0856"><defs><radialGradient id="radial-gradient" cx="1469.5537" cy="2393.4563" r="134.2653" gradientTransform="translate(-408.4537 -866.769)" gradientUnits="userSpaceOnUse"><stop offset="0" stop-color="#d3262f"/><stop offset="1" stop-color="#c12530"/></radialGradient></defs><g id="salami_a"><path id="Shadow" d="M932.8,1514.5c27.1-190.3,287.7-157.5,266.9,33.5C1172.6,1738.2,912,1705.5,932.8,1514.5Z" transform="translate(-931.4996 -1387.187)" style="fill:#a41e1d"/><path id="Salami" d="M932.6,1510.8c25.7-183.3,276.7-152.3,257,31.7C1163.9,1725.9,912.9,1694.9,932.6,1510.8Z" transform="translate(-931.4996 -1387.187)" style="fill:url(#radial-gradient)"/><g id="Fat_1_copy_3" data-name="Fat 1 copy 3"><path d="M1012.4,1614.4c-6,1.7-16.6-13.9-14.5-16.4.9-1.1,4,.3,8.3,2C1015.2,1602.5,1020.3,1609.4,1012.4,1614.4Z" transform="translate(-931.4996 -1387.187)" style="fill:#fff"/><path d="M1096,1635c-1.1,4-14,5-14.6,3,.3-2.1,9.7-8.8,11.9-7.4C1094.9,1631.2,1096.4,1633.4,1096,1635Z" transform="translate(-931.4996 -1387.187)" style="fill:#fff"/><path d="M1101.9,1423.1c5.7-2.6,18.7,11.1,17,13.9-2.7,1.8-19.2-2.4-19.6-6.3C1098.5,1428.1,1099.6,1424.2,1101.9,1423.1Z" transform="translate(-931.4996 -1387.187)" style="fill:#fff"/><path d="M1011.7,1470.2c.5-6.1,19.3-11.4,20.8-8.7.2,3.2-11.8,15.7-15.5,14.3C1014.4,1475.4,1011.5,1472.7,1011.7,1470.2Z" transform="translate(-931.4996 -1387.187)" style="fill:#fff"/><path d="M1059.2,1599.1c-2.8,3-14.4-1.9-14.1-4,.1-.9,2.4-1.3,5.5-1.8C1056.5,1591.6,1062,1593.6,1059.2,1599.1Z" transform="translate(-931.4996 -1387.187)" style="fill:#fff"/><path d="M1122.2,1531.5c3.2,2.4-1,14.5-3.2,14.5-.9,0-1.4-2.2-2.1-5.2C1114.8,1535.1,1116.6,1529.4,1122.2,1531.5Z" transform="translate(-931.4996 -1387.187)" style="fill:#fff"/><path d="M1055.3,1506.1c-4.7,2.6-15.7-1.7-14.2-3.5C1043.8,1501,1065.1,1497.9,1055.3,1506.1Z" transform="translate(-931.4996 -1387.187)" style="fill:#fff"/><path d="M1074.3,1559c.4,2.5-6.5,6.5-7.4,5.6C1066.7,1562.1,1071.7,1553.7,1074.3,1559Z" transform="translate(-931.4996 -1387.187)" style="fill:#fff"/><path d="M1075.9,1498.5c1.6-.8,5.6,3,5.1,3.8C1079.3,1502.9,1072.7,1501.3,1075.9,1498.5Z" transform="translate(-931.4996 -1387.187)" style="fill:#fff"/><path d="M1121.6,1509.6c1.6-.8,5.6,3,5.1,3.8C1125,1514,1118.4,1512.4,1121.6,1509.6Z" transform="translate(-931.4996 -1387.187)" style="fill:#fff"/><path d="M1075.9,1498.5c1.6-.8,5.6,3,5.1,3.8C1079.3,1502.9,1072.7,1501.3,1075.9,1498.5Z" transform="translate(-931.4996 -1387.187)" style="fill:#fff"/><path d="M1102.4,1560.2c.9,1.5-2.8,5.8-3.7,5.4C1098,1564,1099.4,1557.3,1102.4,1560.2Z" transform="translate(-931.4996 -1387.187)" style="fill:#fff"/><path d="M1009.7,1539.2c1.6-.8,5.6,3,5.1,3.8C1013.1,1543.7,1006.5,1542.1,1009.7,1539.2Z" transform="translate(-931.4996 -1387.187)" style="fill:#fff"/><path d="M1064.4,1443c-1.2-2.2-9-.8-9.2.5C1056.7,1445.7,1065.7,1448.7,1064.4,1443Z" transform="translate(-931.4996 -1387.187)" style="fill:#fff"/><path d="M1113.7,1462.8c4.1-.4,9.2,11,7.5,12.4-2.1.5-11.4-5.7-10.7-8.2C1110.5,1465.2,1112,1463,1113.7,1462.8Z" transform="translate(-931.4996 -1387.187)" style="fill:#fff"/><path d="M1154.4,1583.6c1.4,5.9-15,16.6-17.4,14.5-1.1-3,6.6-18.4,10.5-18.2C1150.2,1579.4,1153.8,1581.1,1154.4,1583.6Z" transform="translate(-931.4996 -1387.187)" style="fill:#fff"/><path d="M979.1,1503.9c-4.7,4.1,2.1,21.8,5.4,21.4,1.4-.2,2-3.6,3-8.1C990.3,1508.3,987.7,1500,979.1,1503.9Z" transform="translate(-931.4996 -1387.187)" style="fill:#fff"/></g><g id="Fat_2_copy_3" data-name="Fat 2 copy 3"><path d="M1089.2,1598c.6-2.5,5.7-1.3,9.6-5.2,4.3-4.2,2.8-10.2,4.8-10.6,1.9-.3,5.3,4.5,4.9,9.4C1108.2,1601.5,1091.1,1609.2,1089.2,1598Z" transform="translate(-931.4996 -1387.187)" style="fill:#ff7b71"/><path d="M1081.8,1530.2c-1.4-1.1,1-4.1-.2-7.7-1.3-4-5.7-4.8-5.3-6.2.4-1.3,4.7-2.1,7.8-.4C1090.6,1519.1,1089.5,1532.4,1081.8,1530.2Z" transform="translate(-931.4996 -1387.187)" style="fill:#ff7b71"/><path d="M1140.5,1544.2c-1.1-1.4,1.8-3.7,1.5-7.4-.4-4.1-4.3-5.7-3.7-7,.6-1.1,4.9-1,7.4,1.3C1151.1,1535.5,1147.4,1547.8,1140.5,1544.2Z" transform="translate(-931.4996 -1387.187)" style="fill:#ff7b71"/><path d="M1017,1506.7c1.3,1.2-1.3,3.9-.5,7.5.9,4,5.1,5.1,4.6,6.4-.5,1.2-4.7,1.6-7.5-.3C1007.7,1516.7,1009.8,1504,1017,1506.7Z" transform="translate(-931.4996 -1387.187)" style="fill:#ff7b71"/><path d="M1100.9,1503.7c-1.3-.3-.6-3-2.6-5.1-2.2-2.2-5.4-1.3-5.6-2.4C1097.3,1487.8,1110.1,1500.6,1100.9,1503.7Z" transform="translate(-931.4996 -1387.187)" style="fill:#ff7b71"/><path d="M1049.2,1620.9c1.3-.4,2,2.3,4.8,3.1,3,.8,5.5-1.5,6.2-.7.6.8-.8,3.7-3.2,4.9C1052.1,1630.8,1044.5,1624.7,1049.2,1620.9Z" transform="translate(-931.4996 -1387.187)" style="fill:#ff7b71"/><path d="M1047.7,1538.3c1.3-.4,2,2.3,4.8,3.1,3,.8,5.5-1.5,6.2-.7.6.8-.8,3.7-3.2,4.9C1050.5,1548.2,1042.9,1542.1,1047.7,1538.3Z" transform="translate(-931.4996 -1387.187)" style="fill:#ff7b71"/><path d="M1068.5,1422.5c-1.1-.8.6-3.1-.4-5.7-1.1-2.9-4.5-3.3-4.2-4.4C1071.2,1406.3,1078.3,1423,1068.5,1422.5Z" transform="translate(-931.4996 -1387.187)" style="fill:#ff7b71"/><path d="M1062.4,1520.1c-.3.8-2.1.8-3.7,2.2-1.7,1.5-1.4,3.3-2.1,3.5C1051.3,1524.2,1061,1515.3,1062.4,1520.1Z" transform="translate(-931.4996 -1387.187)" style="fill:#ff7b71"/><path d="M1021.9,1562.8c3,.1,2.9,5,8,9.1,4.8,3.8,9.1,2.9,9.4,5,.3,2.3-5,6.1-10.1,6.1C1018.2,1583.3,1009.9,1565.8,1021.9,1562.8Z" transform="translate(-931.4996 -1387.187)" style="fill:#ff7b71"/><path d="M1087.2,1470.8c-2.8,1.3-5-3-11.5-4.1-6-1-9.6,1.8-10.8.1-1.3-1.9,1.6-7.6,6.2-10C1080.7,1451.3,1096.6,1462.5,1087.2,1470.8Z" transform="translate(-931.4996 -1387.187)" style="fill:#ff7b71"/><path d="M1012.2,1438.6c3.3.9,5.1-4.4,12.3-7.1,6.6-2.5,11-.1,12.1-2.2,1.2-2.4-2.9-8.2-8.4-9.9C1017,1415.3,1000.4,1430.9,1012.2,1438.6Z" transform="translate(-931.4996 -1387.187)" style="fill:#ff7b71"/><path d="M1139.5,1462.8c0,3,4.9,3,8.8,8.2,3.6,4.9,2.6,9.2,4.7,9.5,2.3.4,6.3-4.8,6.4-9.9C1160.2,1459.8,1142.9,1451,1139.5,1462.8Z" transform="translate(-931.4996 -1387.187)" style="fill:#ff7b71"/><path d="M977.5,1542.8c2.5,1.6-.1,5.9,2.2,12,2.2,5.7,6.3,7.1,5.5,9.1-.9,2.2-7.3,2.9-11.7.3C964.2,1559.1,965.8,1539.5,977.5,1542.8Z" transform="translate(-931.4996 -1387.187)" style="fill:#ff7b71"/><path d="M987.8,1466.1c0,2.3-3.8,2.7-6.7,7-2.7,4-1.9,7.3-3.5,7.7-1.8.4-4.9-3.3-5.2-7.2C971.6,1465.4,984.6,1457,987.8,1466.1Z" transform="translate(-931.4996 -1387.187)" style="fill:#ff7b71"/></g></g></svg>