<svg id="pizza" xmlns="http://www.w3.org/2000/svg" xmlns:xlink="http://www.w3.org/1999/xlink" viewBox="0 0 483.5979 266.4514"><defs><radialGradient id="radial-gradient" cx="-2005.0278" cy="1871.2842" r="12.024" gradientTransform="matrix(-0.2985, -0.778, 0.9336, -0.3581, -1490.6199, 205.431)" gradientUnits="userSpaceOnUse"><stop offset="0" stop-color="#1e564b"/><stop offset="0.2703" stop-color="#12352e"/><stop offset="0.5622" stop-color="#081815"/><stop offset="0.8156" stop-color="#020605"/><stop offset="1"/></radialGradient></defs><g id="shrimp_shell"><g id="_Layer_copy_10" data-name=" Layer copy 10"><path d="M541.9872,1193.7738c-4.1329,18.0948,3.0652,26.31.3977,47.5467-14.3282,1.2619-13.181.3163-16.9476-5.0784-1.3986-.8085-2.7151-.09-4.8794.2036-4.654.7415-12.5262-2.1149-15.3628-5.5564-2.272-10.8369,2.6831-22.0429,5.6148-32.5313,2.669-5.8784,10.5314-37.8826,16.54-36.8115C555.631,1171.3965,545.2727,1166.8671,541.9872,1193.7738Z" transform="translate(-502.9317 -975.7546)" style="fill:#ff4e45"/><path d="M519.4139,1146.5561c-4.8424,19.5078,10.0947,25.9119,26.5262,26.8741,10.0071-4.9182,11.3387-38.5742,19.1795-50.1712,2.1574-4.4368,5.0088-9.4806,3.0511-14.1085.2328-3.7048-32.8689-22.8405-34.5159-19.1381C526.6519,1107.692,522.94,1127.7674,519.4139,1146.5561Z" transform="translate(-502.9317 -975.7546)" style="fill:#ff4e45"/><path d="M531.961,1080.0675c-7.5812,16.7876,23.5583,25.7375,33.2438,34.9186,2.4849,2.38,7.2224,2.4592,9.1793-.5921,2.9371-21.7031,23.2314-29.9832,11.7719-43.6646-5.3059-6.6278-12.8214-11.2513-20.2666-15.6625-3.5461-2.0285-7.5847-5.5428-11.5566-6.7235C544.0542,1046.7556,536.1183,1072.2825,531.961,1080.0675Z" transform="translate(-502.9317 -975.7546)" style="fill:#ff4e45"/><path d="M572.0044,1011.3925c-11.6983,9.6245-28.8391,26.1409-20.8628,42.2487,4.9033,18.4923,23.7979,26.1763,39.8666,32.441,1.6694-.3647,4.3789-5.1259,5.4843-6.4816,3.5716-4.4344,8.4846-7.6644,11.7175-12.5519,4.9085-8.7878-1.1555-18.5564-5.016-26.794-3.8736-8.8456-5.3839-18.6629-7.1063-28.41-.3492-2.4755.2676-7.4383-.8747-9.3211C591.94,997.9074,576.11,1008.8541,572.0044,1011.3925Z" transform="translate(-502.9317 -975.7546)" style="fill:#ff4e45"/><path d="M603.4952,989.2726c-4.684,1.6465-9.3119,3.6042-12.8249,6.9356-6.0794,7.1029-5.4355,27.101-1.08,35.41,3.96,8.2518,7.3476,19.7553,14.6771,25.6655,3.0488,3.3712,5.2175,8.6359,10.5345,8.9,3.8181.1481,6.9484-2.6324,10.3457-4.465,4.3453-2.1,8.972-3.35,13.4449-5.6334,6.4262-3.2131-2.0026-11.3031-1.6254-16.7048a85.4951,85.4951,0,0,1,3.2611-37.2164c1.1919-10.3359,17.3986-18.2978,6.6513-18.7409a116.436,116.436,0,0,0-43.3842,5.85Z" transform="translate(-502.9317 -975.7546)" style="fill:#ff4e45"/><path d="M669.8434,976.9434c-8.776-3.5933-21.1882,1.8864-28.1926,4.2076-5.4209,2.55-2.7406,6.3733-9.9517,13.6156-.9205.7763-9.3229,9.9681-7.5918,14.7653.1905,4.2713.378,18.3431,8.518,29.8266,3.8251,4.2917,5.7933,10.942,7.5817,15.3433,6.1556,14.0256,26.8776,11.87,41.02,11.8946,1.7541-.2515,2.1095-1.3116,1.8724-3.1646a92.7551,92.7551,0,0,1,8.15-43.0769c1.6663-6.63,14.2451-26.5341,26.5355-26.9793C705.8268,981.744,692.7292,982.8807,669.8434,976.9434Z" transform="translate(-502.9317 -975.7546)" style="fill:#ff4e45"/><path d="M731.6126,987.1913c-7.2509-2.2613-14.7726-3.3492-22.2134-2.2026-13.712,4.6854-23.821,19.39-29.5287,32.3057-.0215,20.4071,3.5443,51.6392,20.4067,64.9905,9.068,6.4647,20.4639,8.012,31.0941,10.661,5.2168.9566,6.6167,1.058,10.1023-2.7825,13.8749-16.9888,35.3979-32.3661,35.8071-56.1525C776.8,1009.3886,752.6155,994.2708,731.6126,987.1913Z" transform="translate(-502.9317 -975.7546)" style="fill:#ff4e45"/><path d="M732.6067,1033.41c7.1026-9.9861,15.2834-21.837,28.1152-24.6289,19.5306-.2063,38.0045,5.497,54.217,18.4512,4.0945,3.8256,3.8238,4.9989,8.1879,8.3582,4.0957,3.1184,5.6089,3.1352,9.1812,6.38,3.9956,3.8112,2.8771,4.5588,6.1811,7.5627,4.7444,4.2226,8.2251,3.2105,11.1594,7.3734,2.8409,8.9994,5.61,10.8144,13.5734,17.9277.1133-.0846,15.561,21.65,18.1579,24.6533,4.9647,7.5889,14.2593,13.8842,15.87,23.0087-9.6176-7.5545-14.7746-10.3212-26.7688-17.5123-3.8-2.3684-8.5887-5.5871-9.3518-5.8995,3.89,15.7188,57.8693,81.22,66.4258,105.1923-61.081-31.771-105.8144-55.0141-106.1114-55.057,2.4419,2.6772,9.5268,10.9768,10.8813,12.7893-27.1741-20.299-95.17-44.0777-100.9185-72.7963-.1247-9.6168-.7382-38.9063-1.5822-41.4534A19.493,19.493,0,0,1,732.6067,1033.41Z" transform="translate(-502.9317 -975.7546)" style="fill:#ff4e45"/></g><g id="_Layer_copy_10-2" data-name=" Layer copy 10-2"><path d="M567.4619,1118.2427c-7.9031,14.8214-10.7182,31.49-15.5688,47.5613-.483,1.2437-1.2535,5.1738-4.34,6.95-2.336,1.4809-10.1641-2.38-7.5989-5.4439,4.4279-8.9584,10.25-38.7317,17.4652-56.4816C561.8468,1118.643,571.5656,1108.7322,567.4619,1118.2427Z" transform="translate(-502.9317 -975.7546)" style="fill:#ff7664"/><path d="M778.6011,1047.2361c7.5429,5.1327,20.6544,12.2833,29.1166,17.3468,13.104,11.3933,4.9645,32.0407,11.671,46.4492,11.9159,19.6076,34.582,29.8579,52.0084,44.2a266.6516,266.6516,0,0,1,41.8467,40.4065c-33.2292-18.9519-68.6-34.2731-100.4963-55.4572-17.2857-13.9179-24.66-34.8894-31.2285-55.1383-9.5312-16.5347-27.6161-26.3243-43.3387-36.3786-4.3952-1.7472-11.2964-9.9193-2.8516-11.0217C758,1036.6784,762.4919,1039.8541,778.6011,1047.2361Z" transform="translate(-502.9317 -975.7546)" style="fill:#ff3d3d"/><path d="M572.3127,1077.72a106.1448,106.1448,0,0,1,25.181-28.7919,7.4554,7.4554,0,0,0,1.1422,1.8829c-.409-.6654-.8179-1.3308-1.1422-1.8829,21.572-19.21,29.1211-17.6126,61.8247-21.5719.3673.2552,15.9011-3.0552,16.6307.2836,6.4-4.4294,25.7216,1.7,39.278,5.075,1.81.06,14.52,2.3023,16.9427,7.9068,8.3327-1.7249,23.2972,5.1885,27.988,7.6857,8.4586,7.1849,30.6037,16.1473,36.85,26.7506,4.4855,6.7112,2.3674,12.9725-.0813,22.2172-2.6663,20.53,4.8793,40.3136,24.7363,47.6316-4.7972,1.7311-3.4633,7.1781,1.2121,10.4814-29.2063-14.6317-70.9911-33.8107-92.1561-61.4249-6.3173-2.4293-14.6893-2.5288-21.6552-6.0624-10.78-5.8029-24.42-9.9987-30.8073-21.0266-8.5986.07-28.48-1.4923-34.8543-3.5258a11.2846,11.2846,0,0,1-4.0945-3.8255,50.4872,50.4872,0,0,0-14.5429,2.7465c-6.8638,2.7457-7.76,5.4453-12.9452,2.8765-2.6341,2.145-6.5717,5.6171-8.81,7.8194-8.202,7.8063-8.3288,15.669-14.5733,12.0378-4.3266,7.5584-10.66,14.3214-12.1749,23.3981-.656,3.1384-1.2847,6.786-4.0035,8.8178-4.8222-.1923-10.8687-3.7949-14.8667-6.192A177.1144,177.1144,0,0,1,572.3127,1077.72Z" transform="translate(-502.9317 -975.7546)" style="fill:#ff7664"/></g><g id="_Layer_copy_10-3" data-name=" Layer copy 10-3"><path d="M859.6351,1193.24c-7.2423-7.211-12.7282-16.0877-15.0469-24.5063-1.738-8.9409-4.4534-25.096-16.6627-22.4162l-.7321-1.9247c13.6248-3.3845,17.6113,13.7628,19.2908,23.8067,1.9527,7.4563,6.3522,14.7613,12.5346,21.617,18.367,18.3179,47.3037,33.4157,74.73,38.6962,23.9831,1.145,28.5192-21.1351,19.2837-36.92-15.6145-23.376-19.9626-51.9931,10.9587-63.8893l.633,1.91c-14.3474,4.1893-24.218,20.04-21.6839,34.6529,3.36,19.3806,24.2662,33.4179,13.6773,55.6308C939.0028,1248.7735,875.7867,1208.7114,859.6351,1193.24Z" transform="translate(-502.9317 -975.7546)" style="fill:#ff3d3d"/><path d="M736.8543,990.0713c-21.7292-4.1533-18.8541-6.5666-39.0128,4.9665-3.4545,2.2284-12.4109,4.7725-13.31,9.5934-5.8559,16.7341-7.2723,34.2113-5.9737,51.7782a110.0857,110.0857,0,0,1-3.1163-29.4494l.07.2122c.679-8.1871,2.7293-16.0748,4.8785-23.9483,1.9214-6.997,9.9572-8.7648,15.464-11.909C716.0244,981.0971,716.1782,982.13,736.8543,990.0713Z" transform="translate(-502.9317 -975.7546)" style="fill:#d81a16"/><path d="M636.8924,1049.6756c-9.32-15.898-13.9733-31.9291-7.6058-50.1049,2.5448-23.8816,20.7472-24.6842,40.5425-22.5283-10.8213,1.4661-23.7042,1.1183-31.9491,9.2215C628.716,1010.5017,627.5024,1025.179,636.8924,1049.6756Z" transform="translate(-502.9317 -975.7546)" style="fill:#d81a16"/><path d="M615.2526,986.2243c-17.6974,11.2828-26.1945,9.9527-22.0082,34.1007l.7994,11.9374c2.9518,10.329,11.4328,20.8514,17.3419,30.2945-8.3429-8.6837-18.0987-18.077-21.4439-29.8774l-1.0963-11.98C584.7308,996.0564,594.6626,993.7544,615.2526,986.2243Z" transform="translate(-502.9317 -975.7546)" style="fill:#d81a16"/><path d="M561.8635,1020.03c-6.3,12.123-11.5176,19.5526-5.9129,33.1954,3.1424,14.6,21.9381,22.27,32.686,30.3921-14.4851-6.0358-32.7037-12.1063-36.7188-29.0556C546.399,1040.325,552.3414,1030.6764,561.8635,1020.03Z" transform="translate(-502.9317 -975.7546)" style="fill:#d81a16"/><path d="M538.8732,1065.81c-11.5255,32.1815,10.3232,32.7147,28.9155,51.57C545.1536,1105.5182,519.3491,1094.612,538.8732,1065.81Z" transform="translate(-502.9317 -975.7546)" style="fill:#d81a16"/><path d="M522.3349,1134.0455c-.3258,24.6068-1.6472,28.1541,21.782,38.7168C519.0177,1170.9507,513.8113,1155.951,522.3349,1134.0455Z" transform="translate(-502.9317 -975.7546)" style="fill:#d81a16"/><path d="M836.95,1032.2343" transform="translate(-502.9317 -975.7546)" style="fill:#fc8d5f"/><path d="M520.6426,1236.559c-36.0125,3.7838-7.1408-49.1282.0564-64.6578-3.0343,12.5953-7.044,24.9485-10.6578,37.3591C505.6917,1221.8674,502.8541,1235.1986,520.6426,1236.559Z" transform="translate(-502.9317 -975.7546)" style="fill:#d81a16"/><path d="M541.2819,1241.2621c-35.1685,6.3308-20.5153-43.2826-12.395-61.0027-1.6736,10.8724-4.7976,26.1829-5.4528,37.0006C521.8961,1231.3852,525.641,1241.1216,541.2819,1241.2621Z" transform="translate(-502.9317 -975.7546)" style="fill:#d81a16"/><path d="M899.0593,1187.5247c-30.0492-17.8858-60.9211-34.2738-91.5093-51.2272,3.0476,4.0783,8.3809,11.2153,11.4,15.4914-10.8662-5.2091-24.9555-11.1876-35.5521-16.863a452.3317,452.3317,0,0,0,49.3085,27.2392c-5.4335-6.4442-6.8739-7.6629-10.5843-12.7464,30.0242,15.9623,58.6211,31.3141,88.6632,45.0563C906.8717,1192.1911,902.9583,1189.9074,899.0593,1187.5247Zm-71.9416-32.1294Z" transform="translate(-502.9317 -975.7546)" style="fill:#d81a16"/><path d="M874.7355,1122.3717a133.9884,133.9884,0,0,1-14.44-23.8123c13.7159,9.2588,24.7644,15.3026,37.0387,24.05-12.4517-12.41-30.757-25.5662-47.2166-34.7166,4.8478,9.7948,9.779,20.41,15.49,29.8246,8.1245,12.29,18.3869,23.07,28.5648,33.7366C885.0621,1136.9,878.9682,1128.036,874.7355,1122.3717Z" transform="translate(-502.9317 -975.7546)" style="fill:#d81a16"/><path d="M868.6405,1089.7634a26.462,26.462,0,0,1-2.0523-15.15c-7.6849-4.85-14.1224-11.3384-14.53-21.0972-7.4931-1.2859-14.88-6.8-16.8326-14.2564-8.6415.3667-16.6482-6.45-18.5853-14.7121a30.6291,30.6291,0,0,1-15.7649-2.0781,25.7813,25.7813,0,0,0,13.88,4.6345c1.8239,8.3471,9.1521,14.9643,17.5216,16.478a25.5551,25.5551,0,0,0,16.31,13.6757c.8616,8.713,8.2614,14.8353,15.58,18.7231A21.7532,21.7532,0,0,0,868.6405,1089.7634ZM832.2066,1043.37Zm16.2256,13.5624Z" transform="translate(-502.9317 -975.7546)" style="fill:#d81a16"/><path d="M774.4337,1044.6126c12.9315,4.9016,24.7551,12.5732,35.9419,20.4558,7.6027,3.3225,8.338,11.5121,9.202,18.811,2.6226,12.6053-2.0861,28.3939,9.7922,37.0838,15.4339,13.4479,32.7663,24.9475,48.5114,38.3393-19.7039-13.9644-43.3454-24.4568-58.4581-43.6176-5.28-13.0907-1.8322-27.8492-5.429-41.4035-.2347-3.2672-3.4851-4.5457-5.73-6.4871C797.5586,1059.3749,786.7546,1050.9415,774.4337,1044.6126Z" transform="translate(-502.9317 -975.7546)" style="fill:#d81a16"/><path d="M798.16,1120.1872c-9.28-14.7806-.1927-27.3088-1.7945-41.383-8.8078-9.66-21.0951-19.0157-31.6726-27.6184,14.4553,6.9408,25.84,14.8519,36.0322,25.42,1.68,1.6576.658,3.8336-.0242,5.7558C798.105,1094.7172,793.8961,1107.7489,798.16,1120.1872Z" transform="translate(-502.9317 -975.7546)" style="fill:#d81a16"/><path d="M755.5582,1115.0358c-6.03-5.1158-14.9607-9.0348-18.9657-15.5753a160.3618,160.3618,0,0,1-1.7535-48.6522.1875.1875,0,0,1-.0429.2969c1.3095-4.8626,4.7091-24.1748,8.8409-25.497,8.86-3.9726,17.98-11.1408,26.88-13.9962,6.7885-.13,13.5446,2.06,20.4034,2.1429-21.2351-11.761-26.191-8.2341-46.6154,1.6438-11.4046,3.4025-13.2045,13.7514-15.1035,24.086-2.5669,12.1578-1.2739,24.8739,2.2693,36.7029,4.4694,15.9036-.1553,24.1263,5.773,30.642,12.2313,9.044,25.3988,16.5058,38.6938,23.784C769.4134,1125.4262,762.493,1120.1816,755.5582,1115.0358Z" transform="translate(-502.9317 -975.7546)" style="fill:#d81a16"/><path d="M927.9077,1204.6305c-14.5687-22.9216-31.6642-48.6336-52.5532-64.1841-24.5771-17.2963-53.6439-30.7964-48.6741-66.5532-1.4175,34.25,27.0162,45.84,50.8445,62.7245l-.3673-.2551C900.3491,1153.4585,915.5212,1179.1955,927.9077,1204.6305Z" transform="translate(-502.9317 -975.7546)" style="fill:#d81a16"/><path d="M843.4775,1197.37c-16.291-16.6031,7.4713-50.9553-19.9479-60.4784l.5832-1.9365c26.6548,9.9178,9.5788,37.8611,17.3952,56.4718,4.5521,9.0448,16.1148,12.2329,24.775,17.3249,22.9625,18.68,46.9159,36.795,81.6038,30.2938,59.4048-12.5252,14.5263-82.2679,36.9758-118.0224l1.667,1.05c-11.4722,17.8415-5.1732,46.9428-3.8247,68.3564,6.1755,59.2948-62.0645,61.65-95.793,37.069-7.401-5.4153-13.7956-12.2-21.707-16.8813C858.1,1205.9511,849.2091,1203.15,843.4775,1197.37Z" transform="translate(-502.9317 -975.7546)" style="fill:#ff3d3d"/><path d="M684.1971,1066.3186c4.8384,7.0655,10.6715,11.4456,14.6179,19.0892,1.1785,13.5078-6.8615,25.7834-10.83,38.5467-.1614-12.8554,6.2235-24.8651,6.91-37.2949C691.7669,1080.3468,686.1785,1073.577,684.1971,1066.3186Z" transform="translate(-502.9317 -975.7546)" style="fill:#d81a16"/><path d="M679.2915,1065.306c2.363,7.4147,7.33,13.5893,10.4575,20.6093-.2632,12.9962-9.2785,25.03-17.0884,35.0144,3.9941-11.5472,10.9144-22.3679,13.0281-34.1871C683.1684,1080.4167,679.2076,1072.8719,679.2915,1065.306Z" transform="translate(-502.9317 -975.7546)" style="fill:#d81a16"/><path d="M640.1342,1055.9037c32.2028,15.57,12.7251,25.8883,12.47,50.7073-6.2452-11.3105,4.1285-23.6526,1.1362-35.0989C651.3615,1064.9037,644.31,1061.9639,640.1342,1055.9037Z" transform="translate(-502.9317 -975.7546)" style="fill:#d81a16"/><path d="M635.0986,1056.4889c24.193,18.5544,11.7547,22.8178,2.2283,43.9719C638.2907,1074.9359,654.9614,1084.7231,635.0986,1056.4889Z" transform="translate(-502.9317 -975.7546)" style="fill:#d81a16"/><path d="M612.3362,1060.8756c24.5515,7.6938,18.4578,14.8957,3.3417,29.9872C625.6791,1065.0285,630.62,1078.3732,612.3362,1060.8756Z" transform="translate(-502.9317 -975.7546)" style="fill:#d81a16"/><path d="M609.6746,1062.5115c6.5626,7.7189,8.4588,23.25-5.02,24.2308C613.5036,1080.7474,609.1923,1071.4344,609.6746,1062.5115Z" transform="translate(-502.9317 -975.7546)" style="fill:#d81a16"/><path d="M589.0935,1081.1573c9.7968,2.1243,14.0925,12.2435,9.8064,20.9193-1.5525-1.8411-1.5905-4.3727-1.842-6.1268C596.375,1090.1928,591.7153,1086.0834,589.0935,1081.1573Z" transform="translate(-502.9317 -975.7546)" style="fill:#d81a16"/><path d="M585.8941,1083.0186c5.8592,5.5963,9.4429,18.5427,2.4466,24.3C589.4155,1099.1892,586.12,1091.2355,585.8941,1083.0186Z" transform="translate(-502.9317 -975.7546)" style="fill:#d81a16"/><path d="M711.905,1072.4483c6.8116,10.8872,10.7445,26.309.5582,36.6574-2.5507,2.9654-5.9506,6.2121-5.35,10.4416,7.7006,20.11,23.2285,36.4,36.6768,53.0973-14.5493-9.7835-26.6742-23.0559-36.2795-37.6815C685.3908,1103.4723,726.12,1111.7882,711.905,1072.4483Z" transform="translate(-502.9317 -975.7546)" style="fill:#d81a16"/><path d="M723.7871,1079.0168c6.3131,12.937,2.1055,25.2615-1.0707,38.14,2.3511,6.0994,10.148,11.5719,14.7922,16.4873,15.4744,14.5651,31.26,29.0744,45.19,45.2349-18.4447-14.2875-56.4134-40.2906-65.5985-60.6147C719.5181,1102.2449,727.1331,1098.4964,723.7871,1079.0168Z" transform="translate(-502.9317 -975.7546)" style="fill:#d81a16"/></g><path d="M851.4354,1086.4664c13.9634-2.9313,18.281,18.9117,4.1626,21.5175C841.8468,1110.8449,837.43,1088.9876,851.4354,1086.4664Z" transform="translate(-502.9317 -975.7546)" style="fill:url(#radial-gradient)"/></g></svg>