<svg id="pizza" xmlns="http://www.w3.org/2000/svg" viewBox="0 0 209.2466 253.3362"><g id="shrimp"><g id="Shadows-2"><path d="M807.4383,1280.0771c-16.3-1.5-29-13.3-44.4-18.1-2.6,12.2-1.4,11.7,2.6,17,.6,1.6-.3,2.5-.9,4.3-1.4,3.8-.1,12.8,2.1,16.5,8.4,6.6,21.4,7.5,31.7,8.2,6.3-.2,39.9,1.7,39.1-4.9C831.9383,1273.8771,832.7382,1284.2772,807.4383,1280.0771Z" transform="translate(-761.661 -1056.5771)" style="fill:#ff6144"/><path d="M855.9383,1308.4771c-19.6,4.5-27.1-11.1-29.9-27.6,1.1-7.4,38.1-10.6,48.8-20.1,4.1-2.6,8.8-6.2,13.9-5,5-.2,29.7,29.6,26.2,33.4C897.5382,1299.6771,876.0382,1304.8771,855.9383,1308.4771Z" transform="translate(-761.661 -1056.5771)" style="fill:#ff6144"/><path d="M928.5382,1283.7772c-15.5,14.8-34.3-12.5-48.7-17.5a8.4546,8.4546,0,0,1-3.6-2.9c-4.9-7.4,10.4-11,14.6-21.6,2.9-5.6,4.9-12.6,10.8-15.3,16.2-4.2,33.4,8.4,46.6,17C955.2382,1253.1771,934.7382,1275.1771,928.5382,1283.7772Z" transform="translate(-761.661 -1056.5771)" style="fill:#ffdfc0"/><path d="M970.8382,1201.1771c-1.2,16.7-4.4,47-26,48.8-19.8,5.2-36.4-9.6-51.1-20.5-.6-1.6,2.2-6.5,2.7-8.2,2-5.6,1.8-11.8,4-17.3,4.6-9.5,16.7-10.5,25.9-12.6,9.7-2.4,19.9-8.1,28-13.6,2.1-1.4,5.7-5.9,8.1-6.1C969.1382,1171.8771,970.6382,1195.4771,970.8382,1201.1771Z" transform="translate(-761.661 -1056.5771)" style="fill:#ffdfc0"/><path d="M967.1382,1153.2772c9.6,21.4-.2,31.1-17.4,42.8-12.3,3.3-25.5,8.1-38.3,5.5-4.8-.7-10.6.8-14.1-3.6-2.5-3.1-2.2-7.4-2.9-11.2-.8-5.9-5.4-11.8-4.3-17.6,21.8-8.4,42.5-28.9,42.8-53.7-3.4-18.2,12.4,2.7,16.4,6.9A139.4719,139.4719,0,0,1,967.1382,1153.2772Z" transform="translate(-761.661 -1056.5771)" style="fill:#ffdfc0"/><path d="M922.1382,1085.8771c17,6.1,19.6,30.3,19.7,46.5.5,6.9,0,13.8-5.1,18.5-9.8,10.6-23.4,14.8-37.4,16.2-10.5,3-11.3,6.8-25.7,1.1-41.9-33.4-12.2-9.3,3.2-59.8,3.3-7.2,4.9-31.4-6.2-39.8C884.9383,1063.6771,908.6382,1078.6771,922.1382,1085.8771Z" transform="translate(-761.661 -1056.5771)" style="fill:#ffdfc0"/><path d="M861.3382,1058.7772a47.445,47.445,0,0,1,21.7,11.4c9.7,12.7,10.1,33.8,5.7,48.7-6.5,9.7-28.3,27.1-39.4,30.1-5.6-.7-15.2-.7-20.5-2.3-4.4-1.3-7.8-4.4-12.2-5.4-24.7-5.3-21.3-2.7-28.8-27.3-5.7-21.4,11-41.7,27.3-53.5C829.7382,1055.7772,846.3382,1055.6771,861.3382,1058.7772Z" transform="translate(-761.661 -1056.5771)" style="fill:#ffdfc0"/><path d="M879.5382,1257.8771c-13.7,9.7-30.4,13.7-46.4,17.8-1.5.3-6.4,1.6-7,5,1,2.5,3.4,8.6,6.8,6.6,7.9-4.9,20.7-5.7,30.7-9a187.4109,187.4109,0,0,0,25.7-11C879.5382,1261.4771,889.1382,1252.9771,879.5382,1257.8771Z" transform="translate(-761.661 -1056.5771)" style="fill:#ff8164"/><path d="M911.3382,1242.2772c7.1-12.1,10.5-26.1,11.2-40-.5.1-2.3.2-2.3.2s1.5-.2,2.3-.2c3.5-31.6-7.6-42.5-25.7-66.2-8-9.2-12-15.2-13.9-10.1-5.6-2.8,5.9-6.1-7.6-6.8-29.6-7-39-13-70.2-3.8-17.6,1.7-14.9,11.9-7.7,24a109.63,109.63,0,0,0,18.7,13c10.5,4.2,22.7,1,33.8.6,1.3-.1,2.3-1.7,3.4-1.6,3.5,2.6,7,5.8,10.5,8.6,2.7,3.4,16.4,13.3,16.9,13.6,2,.8,5.1.2,6,.6a43.061,43.061,0,0,1,7.4,13.3c1.9,7.3.8,9.9,5.8,12.5.3,2.3-1,9.6-1.4,12.2-2.2,11.8-9,15.6-2.5,19.3-2.2,5.9-8.9,17.8-15.3,22.1-2.6,1.9-5.8,3.9-6.4,7.3,2.5,4.3,8.6,8.2,12.9,11.2C896.9383,1262.4771,904.6382,1253.4771,911.3382,1242.2772Z" transform="translate(-761.661 -1056.5771)" style="fill:#ffedd4"/><path d="M852.3382,1056.5771c26.2,3.7,31.4,9.4,43,32.7,10,13.7-1.3,29.5-9.6,41l.3-.3c-8.3,7.2-16.9,14.7-27.7,17.5,10-6,14-12.3,22.2-22.3-.1.1-.2.2-.2.3,3-6.4,11.8-20.5,9.6-27C877.7382,1072.8771,878.9383,1067.6771,852.3382,1056.5771Z" transform="translate(-761.661 -1056.5771)" style="fill:#fc8d5f"/><path d="M896.2382,1169.2772c28.1-13.7,33.2-22.6,44.5-49.8-.9-13.2-11.2-23.3-18.6-33.6,16.1,8.9,34.8,27.9,23.2,47.1C936.1382,1156.0771,921.2382,1167.7772,896.2382,1169.2772Z" transform="translate(-761.661 -1056.5771)" style="fill:#fc8d5f"/><path d="M960.4383,1139.6771c11.4,21.2,17.8,39.9-7.2,53.7-14.2,13.4-33.7,10.1-50.9,5.2,31.7-4.3,30.8-1.5,56.3-21.6C969.0382,1168.0771,960.4383,1151.6771,960.4383,1139.6771Z" transform="translate(-761.661 -1056.5771)" style="fill:#fc8d5f"/><path d="M969.4383,1217.7772c-1.9,23.5-13.5,36.8-37.9,35.3-13.6-3-24.3-13.6-34.3-22.8,16.7,4.4,32.4,18.1,50.1,10.6C959.0382,1239.0771,963.2382,1226.5771,969.4383,1217.7772Z" transform="translate(-761.661 -1056.5771)" style="fill:#fc8d5f"/><path d="M939.3382,1269.4771c-17.5,36.2-41.7,13.5-63-4.6C904.1382,1272.2772,912.2382,1295.5771,939.3382,1269.4771Z" transform="translate(-761.661 -1056.5771)" style="fill:#fc8d5f"/><path d="M869.1382,1305.4771c-22.9,9.4-37.9,1.7-42.1-22.8C839.7382,1305.6771,843.0382,1306.1771,869.1382,1305.4771Z" transform="translate(-761.661 -1056.5771)" style="fill:#d82e2a"/><path d="M844.9383,1104.3771c.3-4.8.7-4.9.4-6.5-1.3-4.6-6.9-10.1-10.8-10.4-3.1-.5-12.4,10.3-13.5,13.8-.4,1.7.2,2.2,1.6,8.1,1,9.4,7.3,12.4,14.5,7.7C843.6382,1112.8771,844.8382,1113.3771,844.9383,1104.3771Z" transform="translate(-761.661 -1056.5771)" style="fill:#fc8d5f"/><path d="M764.7382,1283.2772c-2.1,15.8,9.8,20.6,23.3,21.3,12.7,1.6,25.4,1.9,38.4,2.5C807.0382,1310.9771,755.7382,1315.9771,764.7382,1283.2772Z" transform="translate(-761.661 -1056.5771)" style="fill:#d82e2a"/><path d="M763.0382,1262.9771c-2.2,28.9,35.6,29.5,56.2,33.5C797.9383,1299.7772,754.5382,1292.8771,763.0382,1262.9771Z" transform="translate(-761.661 -1056.5771)" style="fill:#d82e2a"/><path d="M810.3382,1091.5771" transform="translate(-761.661 -1056.5771)" style="fill:#ffedd4"/></g></g></svg>